<svg width="66" height="66" viewBox="0 0 66 66" fill="none" xmlns="http://www.w3.org/2000/svg">
<path d="M4.125 7.21875H10.3125C10.8825 7.21875 11.3438 6.75751 11.3438 6.1875C11.3438 5.61749 10.8825 5.15625 10.3125 5.15625H4.125C3.55499 5.15625 3.09375 5.61749 3.09375 6.1875C3.09375 6.75751 3.55499 7.21875 4.125 7.21875ZM61.875 9.28125H53.625C53.3511 9.28125 53.0892 9.39001 52.8959 9.58337L47.5421 14.9371C43.6937 11.4361 38.6 9.28125 33 9.28125C27.4 9.28125 22.3063 11.4361 18.4579 14.9371L13.1041 9.58337C12.9108 9.39001 12.6489 9.28125 12.375 9.28125H4.125C3.55499 9.28125 3.09375 9.74249 3.09375 10.3125C3.09375 10.8825 3.55499 11.3438 4.125 11.3438H11.948L16.9996 16.3954C13.4986 20.2438 11.3438 25.3375 11.3438 30.9375C11.3438 36.5375 13.4986 41.6312 16.9996 45.4796L11.948 50.5312H4.125C3.55499 50.5312 3.09375 50.9925 3.09375 51.5625C3.09375 52.1325 3.55499 52.5938 4.125 52.5938H12.375C12.6489 52.5938 12.9108 52.485 13.1041 52.2916L18.4579 46.9379C22.3063 50.4389 27.4 52.5938 33 52.5938C37.103 52.5938 40.9291 51.4258 44.2028 49.4355L46.8524 52.0852C47.0538 52.2866 47.3177 52.3873 47.5815 52.3873C47.8454 52.3873 48.1092 52.2866 48.3106 52.0852L50.5 49.8958L52.0918 51.4876C51.896 51.8981 51.782 52.3454 51.782 52.8133C51.782 53.6401 52.1043 54.4176 52.6884 55.0007L57.6251 59.9374C58.2284 60.5406 59.0199 60.8417 59.8125 60.8417C60.6051 60.8417 61.3966 60.5406 61.9999 59.9374C63.2064 58.7309 63.2064 56.7691 61.9999 55.5626L57.0642 50.6259C56.1518 49.7135 54.7188 49.5374 53.5728 50.052L51.9583 48.4375L54.1477 46.2481C54.5505 45.8453 54.5505 45.1927 54.1477 44.7899L51.498 42.1403C53.4883 38.8666 54.6562 35.0405 54.6562 30.9375C54.6562 25.3375 52.5014 20.2438 49.0004 16.3954L54.052 11.3438H61.875C62.445 11.3438 62.9062 10.8825 62.9062 10.3125C62.9062 9.74249 62.445 9.28125 61.875 9.28125ZM55.6049 52.0842L60.5416 57.0209C60.9435 57.4227 60.9435 58.0773 60.5416 58.4791C60.1388 58.882 59.4862 58.882 59.0834 58.4791L54.1467 53.5414C53.9513 53.347 53.8445 53.0892 53.8445 52.8133C53.8445 52.5384 53.9523 52.2795 54.1467 52.0842C54.342 51.8898 54.6009 51.782 54.8758 51.782C55.1517 51.782 55.4095 51.8888 55.6049 52.0842ZM51.9603 45.519L47.5815 49.8978L45.9429 48.2592C47.6039 47.0147 49.0772 45.5414 50.3217 43.8804L51.9603 45.519ZM52.5938 30.9375C52.5938 41.7415 43.804 50.5312 33 50.5312C27.9685 50.5312 23.3889 48.6086 19.9155 45.4802L21.3541 44.0416C21.757 43.6388 21.757 42.9862 21.3541 42.5834C20.9513 42.1805 20.2987 42.1805 19.8959 42.5834L18.4573 44.022C15.3289 40.5486 13.4062 35.969 13.4062 30.9375C13.4062 25.906 15.3289 21.3264 18.4573 17.853L19.8959 19.2916C20.0973 19.493 20.3611 19.5938 20.625 19.5938C20.8889 19.5938 21.1527 19.493 21.3541 19.2916C21.757 18.8888 21.757 18.2362 21.3541 17.8334L19.9155 16.3948C23.3889 13.2664 27.9685 11.3438 33 11.3438C38.0315 11.3438 42.6111 13.2664 46.0845 16.3948L44.6459 17.8334C44.243 18.2362 44.243 18.8888 44.6459 19.2916C44.8473 19.493 45.1111 19.5938 45.375 19.5938C45.6389 19.5938 45.9027 19.493 46.1041 19.2916L47.5427 17.853C50.6711 21.3264 52.5938 25.906 52.5938 30.9375ZM61.875 5.15625H55.6875C55.1175 5.15625 54.6562 5.61749 54.6562 6.1875C54.6562 6.75751 55.1175 7.21875 55.6875 7.21875H61.875C62.445 7.21875 62.9062 6.75751 62.9062 6.1875C62.9062 5.61749 62.445 5.15625 61.875 5.15625Z" fill="black"/>
<path d="M4.125 48.4688H10.3125C10.8825 48.4688 11.3438 48.0075 11.3438 47.4375C11.3438 46.8675 10.8825 46.4062 10.3125 46.4062H4.125C3.55499 46.4062 3.09375 46.8675 3.09375 47.4375C3.09375 48.0075 3.55499 48.4688 4.125 48.4688ZM33 19.5938C31.5659 19.5938 30.1479 19.8677 28.7844 20.4085C28.2546 20.619 27.9958 21.2182 28.2053 21.7469C28.4158 22.2776 29.018 22.5344 29.5437 22.326C30.6646 21.8818 31.8278 21.6562 33 21.6562C38.118 21.6562 42.2812 25.8195 42.2812 30.9375C42.2812 33.3135 41.3578 35.4608 39.8843 37.1042C38.9439 36.0503 37.7791 35.2387 36.4832 34.7147C37.5049 33.7719 38.1562 32.434 38.1562 30.9375C38.1562 28.0945 35.843 25.7812 33 25.7812C30.157 25.7812 27.8438 28.0945 27.8438 30.9375C27.8438 32.434 28.4951 33.7719 29.5168 34.7147C28.2209 35.2387 27.0561 36.0503 26.1157 37.1042C24.6422 35.4608 23.7188 33.3135 23.7188 30.9375C23.7188 29.7653 23.9443 28.6021 24.3885 27.4812C24.5979 26.9525 24.3391 26.3533 23.8094 26.1428C23.2837 25.9333 22.6805 26.1921 22.471 26.7219C21.9302 28.0854 21.6562 29.5034 21.6562 30.9375C21.6562 37.1925 26.745 42.2812 33 42.2812C39.255 42.2812 44.3438 37.1925 44.3438 30.9375C44.3438 24.6825 39.255 19.5938 33 19.5938ZM29.9062 30.9375C29.9062 29.2315 31.294 27.8438 33 27.8438C34.706 27.8438 36.0938 29.2315 36.0938 30.9375C36.0938 32.6435 34.706 34.0312 33 34.0312C31.294 34.0312 29.9062 32.6435 29.9062 30.9375ZM27.68 38.5207C29.0222 37.0111 30.9258 36.0938 33 36.0938C35.0742 36.0938 36.978 37.0111 38.3202 38.5207C36.811 39.5829 34.9818 40.2188 33 40.2188C31.0182 40.2188 29.1891 39.5829 27.68 38.5207Z" fill="black"/>
<path d="M26.4362 24.3737C26.839 23.971 26.839 23.318 26.4362 22.9153C26.0335 22.5126 25.3805 22.5126 24.9778 22.9153C24.5751 23.318 24.5751 23.971 24.9778 24.3737C25.3805 24.7764 26.0335 24.7764 26.4362 24.3737Z" fill="black"/>
</svg>
