<svg width="66" height="66" viewBox="0 0 66 66" fill="none" xmlns="http://www.w3.org/2000/svg">
<path d="M44.0407 21.9604H18.2428V27.9928H44.0407V21.9604ZM43.0094 26.9616H19.2741V22.9917H43.0094V26.9616ZM23.1946 25.4922H21.8059V24.461H23.1946V25.4922ZM25.7848 25.4922H24.3956V24.461H25.7848V25.4922ZM28.3751 25.4922H26.9858V24.461H28.3751V25.4922ZM18.5303 33.2649H20.5204V34.2961H18.5303V33.2649ZM32.8364 45.2169C34.4002 45.217 35.9156 44.6749 37.1244 43.6829C38.3333 42.691 39.1608 41.3106 39.4659 39.7769C39.7711 38.2432 39.5351 36.6512 38.798 35.2721C38.061 33.8929 36.8685 32.812 35.4239 32.2135C33.9792 31.615 32.3717 31.5359 30.8753 31.9898C29.3788 32.4436 28.0861 33.4023 27.2172 34.7024C26.3484 36.0026 25.9572 37.5638 26.1104 39.12C26.2636 40.6762 26.9517 42.1312 28.0573 43.2369C28.6833 43.8667 29.4281 44.366 30.2485 44.7058C31.0688 45.0457 31.9485 45.2194 32.8364 45.2169ZM28.7864 34.4089C29.7233 33.472 30.9561 32.8889 32.2747 32.759C33.5932 32.6291 34.9161 32.9604 36.0178 33.6965C37.1194 34.4326 37.9318 35.5279 38.3165 36.7958C38.7011 38.0637 38.6342 39.4258 38.1272 40.6499C37.6202 41.874 36.7044 42.8844 35.5359 43.509C34.3673 44.1336 33.0184 44.3338 31.7189 44.0753C30.4194 43.8168 29.2497 43.1157 28.4091 42.0915C27.5686 41.0673 27.1092 39.7833 27.1092 38.4584C27.1072 37.706 27.2544 36.9607 27.5423 36.2657C27.8302 35.5706 28.2531 34.9395 28.7864 34.4089ZM52.6271 52.1375L49.9925 49.503V19.924L49.9699 15.4788L41.163 6.67192H12.291V55.4186H43.6846L46.5151 58.2495C47.2093 58.9415 48.1495 59.3301 49.1297 59.3301C50.1099 59.3301 51.0502 58.9415 51.7444 58.2495L52.6271 57.3663C53.3193 56.6722 53.708 55.7321 53.7079 54.7519C53.7079 53.7717 53.3192 52.8315 52.6271 52.1375ZM48.2105 15.1777H41.5195L41.4924 8.45957L48.2105 15.1777ZM13.3223 54.3873V7.70312H40.4581L40.4922 16.2089H48.9408L48.9605 48.4709L45.1787 44.6892L44.0839 45.7838L41.3337 43.0335C42.4319 40.9939 42.7597 38.6274 42.2574 36.366C41.755 34.1047 40.4558 32.0996 38.5973 30.7169C36.7388 29.3343 34.4448 28.6663 32.1345 28.8352C29.8242 29.004 27.6518 29.9982 26.014 31.6364C25.522 32.1308 25.0848 32.6768 24.7098 33.2648H22.2404V34.2961H24.1392C23.5138 35.5945 23.1887 37.0171 23.1881 38.4583C23.1881 38.6042 23.2028 38.7476 23.2092 38.8924H18.1995V39.9236H23.3096C23.5612 41.6085 24.2593 43.1952 25.3315 44.519H18.1995V45.5503H26.3114C27.7847 46.9116 29.6463 47.7789 31.6363 48.0309C33.6264 48.283 35.6455 47.9072 37.4116 46.9561L40.1615 49.7056L39.0667 50.8002L42.6534 54.3874L13.3223 54.3873ZM42.1227 47.7446L40.8906 48.9763L38.3117 46.3979C39.2788 45.7364 40.1143 44.9008 40.7756 43.9336L43.3547 46.5128L42.1227 47.7446ZM26.7431 32.3655C28.1527 30.9559 30.0075 30.0787 31.9913 29.8833C33.9752 29.6879 35.9655 30.1864 37.623 31.294C39.2805 32.4015 40.5027 34.0495 41.0814 35.9571C41.6601 37.8648 41.5594 39.914 40.7965 41.7558C40.0337 43.5975 38.6558 45.1178 36.8977 46.0575C35.1396 46.9972 33.1101 47.2982 31.1549 46.9093C29.1997 46.5204 27.4399 45.4656 26.1752 43.9246C24.9106 42.3836 24.2193 40.4518 24.2193 38.4583C24.2164 37.3264 24.4379 36.205 24.8711 35.1592C25.3043 34.1134 25.9405 33.1638 26.7431 32.3655ZM51.8979 56.6371L51.0152 57.5204C50.5146 58.0195 49.8366 58.2998 49.1297 58.2998C48.4228 58.2998 47.7447 58.0195 47.2442 57.5204L40.5249 50.8001L42.8518 48.4738L44.8131 46.513L45.1786 46.1474L51.8979 52.8666C52.3968 53.3672 52.677 54.0451 52.677 54.7519C52.677 55.4586 52.3969 56.1366 51.8979 56.6371ZM25.3095 14.513H23.892V13.4818H25.3095V14.513ZM22.6669 14.513H21.2495V13.4818H22.6669L22.6669 14.513ZM20.0238 14.513H18.6064V13.4818H20.0238V14.513ZM34.8662 39.6417H33.4493V38.6104H34.8662V39.6417ZM32.2236 39.6417H30.8062V38.6104H32.2236V39.6417ZM49.9865 9.70218H48.6697V8.67093H49.9865V9.70218ZM47.5312 9.70218H46.214V8.67093H47.5312L47.5312 9.70218ZM49.9865 7.70312H48.6697V6.67188H49.9865V7.70312ZM47.5312 7.70312H46.214V6.67188H47.5312L47.5312 7.70312ZM42.16 57.8618H43.5417V58.893H42.16V57.8618ZM39.5834 57.8618H40.9651V58.893H39.5834V57.8618ZM37.0063 57.8618H38.3885V58.893H37.0062L37.0063 57.8618ZM34.4296 57.8618H35.8119V58.893H34.4296L34.4296 57.8618ZM43.5251 18.4265H18.6064V17.3953H43.5251L43.5251 18.4265ZM38.3784 14.513H26.9858V13.4818H38.3784L38.3784 14.513Z" fill="#D8A353"/>
</svg>
