<svg width="66" height="67" viewBox="0 0 66 67" fill="none" xmlns="http://www.w3.org/2000/svg">
<path d="M59.8125 37.625L52.5938 43.8125L45.375 37.625H50.5312L49.5 30.4062H55.6875L54.6562 37.625H59.8125Z" fill="#EC455A"/>
<path d="M49.5 20.0938L45.7772 25.25H20.2228L16.5 20.0938H49.5Z" fill="#3780EA"/>
<path d="M45.777 25.25L36.0936 38.6562V46.9062L29.9061 42.7812V38.6562L20.2227 25.25H45.777Z" fill="#5BCBFA"/>
<path d="M22.6875 37.625L15.4688 43.8125L8.25 37.625H13.4062L12.375 30.4062H18.5625L17.5312 37.625H22.6875Z" fill="#EC455A"/>
<path d="M24.75 53.0938H6.1875V63.4062H24.75V53.0938Z" fill="#EE8647"/>
<path d="M24.75 53.0938V48.9688H15.4688L13.4062 46.9062H6.1875V53.0938H24.75Z" fill="#F6CC4F"/>
<path d="M59.8125 53.0938H41.25V63.4062H59.8125V53.0938Z" fill="#EE8647"/>
<path d="M59.8125 53.0938V48.9688H50.5312L48.4688 46.9062H41.25V53.0938H59.8125Z" fill="#F6CC4F"/>
<path d="M14.4375 8.75H17.5312C17.8048 8.75 18.0671 8.64135 18.2605 8.44795C18.4539 8.25456 18.5625 7.99225 18.5625 7.71875V3.59375C18.5625 3.32025 18.4539 3.05794 18.2605 2.86455C18.0671 2.67115 17.8048 2.5625 17.5312 2.5625H14.4375C14.164 2.5625 13.9017 2.67115 13.7083 2.86455C13.5149 3.05794 13.4062 3.32025 13.4062 3.59375V7.71875C13.4062 7.99225 13.5149 8.25456 13.7083 8.44795C13.9017 8.64135 14.164 8.75 14.4375 8.75ZM15.4688 4.625H16.5V6.6875H15.4688V4.625Z" fill="#2D2D30"/>
<path d="M22.6875 2.5625H20.625V8.75H22.6875V2.5625Z" fill="#2D2D30"/>
<path d="M25.7812 8.75H28.875C29.1485 8.75 29.4108 8.64135 29.6042 8.44795C29.7976 8.25456 29.9062 7.99225 29.9062 7.71875V3.59375C29.9062 3.32025 29.7976 3.05794 29.6042 2.86455C29.4108 2.67115 29.1485 2.5625 28.875 2.5625H25.7812C25.5077 2.5625 25.2454 2.67115 25.052 2.86455C24.8586 3.05794 24.75 3.32025 24.75 3.59375V7.71875C24.75 7.99225 24.8586 8.25456 25.052 8.44795C25.2454 8.64135 25.5077 8.75 25.7812 8.75ZM26.8125 4.625H27.8438V6.6875H26.8125V4.625Z" fill="#2D2D30"/>
<path d="M34.0312 2.5625H31.9688V8.75H34.0312V2.5625Z" fill="#2D2D30"/>
<path d="M37.125 8.75H40.2188C40.4923 8.75 40.7546 8.64135 40.948 8.44795C41.1414 8.25456 41.25 7.99225 41.25 7.71875V3.59375C41.25 3.32025 41.1414 3.05794 40.948 2.86455C40.7546 2.67115 40.4923 2.5625 40.2188 2.5625H37.125C36.8515 2.5625 36.5892 2.67115 36.3958 2.86455C36.2024 3.05794 36.0938 3.32025 36.0938 3.59375V7.71875C36.0938 7.99225 36.2024 8.25456 36.3958 8.44795C36.5892 8.64135 36.8515 8.75 37.125 8.75ZM38.1562 4.625H39.1875V6.6875H38.1562V4.625Z" fill="#2D2D30"/>
<path d="M45.375 2.5625H43.3125V8.75H45.375V2.5625Z" fill="#2D2D30"/>
<path d="M48.4688 8.75H51.5625C51.836 8.75 52.0983 8.64135 52.2917 8.44795C52.4851 8.25456 52.5938 7.99225 52.5938 7.71875V3.59375C52.5938 3.32025 52.4851 3.05794 52.2917 2.86455C52.0983 2.67115 51.836 2.5625 51.5625 2.5625H48.4688C48.1952 2.5625 47.9329 2.67115 47.7395 2.86455C47.5461 3.05794 47.4375 3.32025 47.4375 3.59375V7.71875C47.4375 7.99225 47.5461 8.25456 47.7395 8.44795C47.9329 8.64135 48.1952 8.75 48.4688 8.75ZM49.5 4.625H50.5312V6.6875H49.5V4.625Z" fill="#2D2D30"/>
<path d="M18.5625 10.8125H16.5V17H18.5625V10.8125Z" fill="#2D2D30"/>
<path d="M21.6562 17H24.75C25.0235 17 25.2858 16.8914 25.4792 16.698C25.6726 16.5046 25.7812 16.2423 25.7812 15.9688V11.8438C25.7812 11.5702 25.6726 11.3079 25.4792 11.1145C25.2858 10.9211 25.0235 10.8125 24.75 10.8125H21.6562C21.3827 10.8125 21.1204 10.9211 20.927 11.1145C20.7336 11.3079 20.625 11.5702 20.625 11.8438V15.9688C20.625 16.2423 20.7336 16.5046 20.927 16.698C21.1204 16.8914 21.3827 17 21.6562 17ZM22.6875 12.875H23.7188V14.9375H22.6875V12.875Z" fill="#2D2D30"/>
<path d="M29.9062 10.8125H27.8438V17H29.9062V10.8125Z" fill="#2D2D30"/>
<path d="M33 17H36.0938C36.3673 17 36.6296 16.8914 36.823 16.698C37.0164 16.5046 37.125 16.2423 37.125 15.9688V11.8438C37.125 11.5702 37.0164 11.3079 36.823 11.1145C36.6296 10.9211 36.3673 10.8125 36.0938 10.8125H33C32.7265 10.8125 32.4642 10.9211 32.2708 11.1145C32.0774 11.3079 31.9688 11.5702 31.9688 11.8438V15.9688C31.9688 16.2423 32.0774 16.5046 32.2708 16.698C32.4642 16.8914 32.7265 17 33 17ZM34.0312 12.875H35.0625V14.9375H34.0312V12.875Z" fill="#2D2D30"/>
<path d="M41.25 10.8125H39.1875V17H41.25V10.8125Z" fill="#2D2D30"/>
<path d="M44.3438 17H47.4375C47.711 17 47.9733 16.8914 48.1667 16.698C48.3601 16.5046 48.4688 16.2423 48.4688 15.9688V11.8438C48.4688 11.5702 48.3601 11.3079 48.1667 11.1145C47.9733 10.9211 47.711 10.8125 47.4375 10.8125H44.3438C44.0702 10.8125 43.8079 10.9211 43.6145 11.1145C43.4211 11.3079 43.3125 11.5702 43.3125 11.8438V15.9688C43.3125 16.2423 43.4211 16.5046 43.6145 16.698C43.8079 16.8914 44.0702 17 44.3438 17ZM45.375 12.875H46.4062V14.9375H45.375V12.875Z" fill="#2D2D30"/>
<path d="M13.4062 59.2812H9.28125V61.3438H13.4062V59.2812Z" fill="#F6CC4F"/>
<path d="M48.4688 59.2812H44.3438V61.3438H48.4688V59.2812Z" fill="#F6CC4F"/>
</svg>
