<svg width="66" height="66" viewBox="0 0 66 66" fill="none" xmlns="http://www.w3.org/2000/svg">
<path d="M40.4226 42.274C40.2582 42.4395 40.0625 42.5707 39.847 42.6598C39.6314 42.749 39.4003 42.7944 39.167 42.7934C38.9337 42.7945 38.7025 42.7492 38.4869 42.66C38.2712 42.5709 38.0755 42.4398 37.911 42.2743L32.3634 36.7269C31.6705 36.034 31.6705 34.9081 32.3634 34.2149C32.5278 34.0494 32.7236 33.9182 32.9392 33.829C33.1548 33.7398 33.386 33.6943 33.6194 33.6953C33.8527 33.6944 34.0839 33.7399 34.2995 33.8291C34.5151 33.9183 34.7108 34.0494 34.8753 34.2149L40.4226 39.7622C41.1155 40.4552 41.1153 41.5813 40.4226 42.274Z" fill="#2A94F4"/>
<path d="M57.3882 59.154C56.5772 59.965 55.5183 60.3701 54.4596 60.3656C53.4 60.3701 52.341 59.965 51.5312 59.1548L38.5967 46.2203C36.9807 44.6045 36.9808 41.979 38.5969 40.363C39.4072 39.553 40.4661 39.1476 41.5251 39.1524C42.5847 39.1479 43.6432 39.553 44.4535 40.3633L57.3882 53.2978C59.0039 54.9132 59.0031 57.5392 57.3882 59.154Z" fill="#0B4870"/>
<path d="M25.1869 41.2058C35.0101 41.2058 42.9734 33.2425 42.9734 23.4193C42.9734 13.5961 35.0101 5.63281 25.1869 5.63281C15.3637 5.63281 7.40039 13.5961 7.40039 23.4193C7.40039 33.2425 15.3637 41.2058 25.1869 41.2058Z" fill="#D3D3D3"/>
<path d="M25.1856 36.5626C32.4451 36.5626 38.3301 30.6775 38.3301 23.418C38.3301 16.1585 32.4451 10.2734 25.1856 10.2734C17.926 10.2734 12.041 16.1585 12.041 23.418C12.041 30.6775 17.926 36.5626 25.1856 36.5626Z" fill="#F7F7F7"/>
<path d="M25.187 35.6826C31.9608 35.6826 37.4521 30.1913 37.4521 23.4175C37.4521 16.6436 31.9608 11.1523 25.187 11.1523C18.4132 11.1523 12.9219 16.6436 12.9219 23.4175C12.9219 30.1913 18.4132 35.6826 25.187 35.6826Z" fill="#CCE9FF"/>
</svg>
