<svg width="60" height="60" viewBox="0 0 60 60" fill="none" xmlns="http://www.w3.org/2000/svg">
<path d="M30.035 23.4891V25.2769M30.035 34.7222V36.51M36.545 29.9991H34.7572M25.3119 29.9991H23.5241M28.1544 15.6328C28.1544 16.0058 28.0062 16.3635 27.7425 16.6272C27.4788 16.8909 27.1211 17.0391 26.7481 17.0391C26.3752 17.0391 26.0175 16.8909 25.7538 16.6272C25.49 16.3635 25.3419 16.0058 25.3419 15.6328C25.3419 15.2599 25.49 14.9022 25.7538 14.6384C26.0175 14.3747 26.3752 14.2266 26.7481 14.2266C27.1211 14.2266 27.4788 14.3747 27.7425 14.6384C28.0062 14.9022 28.1544 15.2599 28.1544 15.6328ZM34.7169 15.6328C34.7169 16.0058 34.5687 16.3635 34.305 16.6272C34.0413 16.8909 33.6836 17.0391 33.3106 17.0391C32.9377 17.0391 32.58 16.8909 32.3163 16.6272C32.0525 16.3635 31.9044 16.0058 31.9044 15.6328C31.9044 15.2599 32.0525 14.9022 32.3163 14.6384C32.58 14.3747 32.9377 14.2266 33.3106 14.2266C33.6836 14.2266 34.0413 14.3747 34.305 14.6384C34.5687 14.9022 34.7169 15.2599 34.7169 15.6328ZM44.3863 28.1137C44.0133 28.1137 43.6556 27.9656 43.3919 27.7019C43.1282 27.4381 42.98 27.0805 42.98 26.7075C42.98 26.3345 43.1282 25.9769 43.3919 25.7131C43.6556 25.4494 44.0133 25.3012 44.3863 25.3012C44.7592 25.3012 45.1169 25.4494 45.3806 25.7131C45.6443 25.9769 45.7925 26.3345 45.7925 26.7075C45.7925 27.0805 45.6443 27.4381 45.3806 27.7019C45.1169 27.9656 44.7592 28.1137 44.3863 28.1137ZM44.3863 34.6762C44.0133 34.6762 43.6556 34.5281 43.3919 34.2644C43.1282 34.0006 42.98 33.643 42.98 33.27C42.98 32.897 43.1282 32.5394 43.3919 32.2756C43.6556 32.0119 44.0133 31.8637 44.3863 31.8637C44.7592 31.8637 45.1169 32.0119 45.3806 32.2756C45.6443 32.5394 45.7925 32.897 45.7925 33.27C45.7925 33.643 45.6443 34.0006 45.3806 34.2644C45.1169 34.5281 44.7592 34.6762 44.3863 34.6762ZM15.6172 28.1147C15.2442 28.1147 14.8865 27.9665 14.6228 27.7028C14.3591 27.4391 14.2109 27.0814 14.2109 26.7084C14.2109 26.3355 14.3591 25.9778 14.6228 25.7141C14.8865 25.4503 15.2442 25.3022 15.6172 25.3022C15.9901 25.3022 16.3478 25.4503 16.6116 25.7141C16.8753 25.9778 17.0234 26.3355 17.0234 26.7084C17.0234 27.0814 16.8753 27.4391 16.6116 27.7028C16.3478 27.9665 15.9901 28.1147 15.6172 28.1147ZM15.6172 34.6772C15.2442 34.6772 14.8865 34.529 14.6228 34.2653C14.3591 34.0016 14.2109 33.6439 14.2109 33.2709C14.2109 32.898 14.3591 32.5403 14.6228 32.2766C14.8865 32.0128 15.2442 31.8647 15.6172 31.8647C15.9901 31.8647 16.3478 32.0128 16.6116 32.2766C16.8753 32.5403 17.0234 32.898 17.0234 33.2709C17.0234 33.6439 16.8753 34.0016 16.6116 34.2653C16.3478 34.529 15.9901 34.6772 15.6172 34.6772ZM28.1544 44.37C28.1544 44.743 28.0062 45.1006 27.7425 45.3644C27.4788 45.6281 27.1211 45.7762 26.7481 45.7762C26.3752 45.7762 26.0175 45.6281 25.7538 45.3644C25.49 45.1006 25.3419 44.743 25.3419 44.37C25.3419 43.997 25.49 43.6394 25.7538 43.3756C26.0175 43.1119 26.3752 42.9637 26.7481 42.9637C27.1211 42.9637 27.4788 43.1119 27.7425 43.3756C28.0062 43.6394 28.1544 43.997 28.1544 44.37ZM34.7169 44.37C34.7169 44.743 34.5687 45.1006 34.305 45.3644C34.0413 45.6281 33.6836 45.7762 33.3106 45.7762C32.9377 45.7762 32.58 45.6281 32.3163 45.3644C32.0525 45.1006 31.9044 44.743 31.9044 44.37C31.9044 43.997 32.0525 43.6394 32.3163 43.3756C32.58 43.1119 32.9377 42.9637 33.3106 42.9637C33.6836 42.9637 34.0413 43.1119 34.305 43.3756C34.5687 43.6394 34.7169 43.997 34.7169 44.37Z" stroke="#167FFC" stroke-linecap="round" stroke-linejoin="round"/>
<path d="M34.7188 29.9883C34.7188 31.2315 34.2249 32.4238 33.3458 33.3028C32.4667 34.1819 31.2745 34.6758 30.0313 34.6758C28.788 34.6758 27.5958 34.1819 26.7167 33.3028C25.8376 32.4238 25.3438 31.2315 25.3438 29.9883C25.3438 28.7451 25.8376 27.5528 26.7167 26.6737C27.5958 25.7946 28.788 25.3008 30.0313 25.3008C31.2745 25.3008 32.4667 25.7946 33.3458 26.6737C34.2249 27.5528 34.7188 28.7451 34.7188 29.9883Z" stroke="#53D86A" stroke-linecap="round" stroke-linejoin="round"/>
<path d="M33.3403 20.1736C33.3403 21.0515 32.9915 21.8935 32.3707 22.5143C31.7499 23.1351 30.9079 23.4839 30.03 23.4839C29.152 23.4839 28.3101 23.1351 27.6893 22.5143C27.0685 21.8935 26.7197 21.0515 26.7197 20.1736C26.7197 19.2956 27.0685 18.4537 27.6893 17.8328C28.3101 17.212 29.152 16.8633 30.03 16.8633C30.9079 16.8633 31.7499 17.212 32.3707 17.8328C32.9915 18.4537 33.3403 19.2956 33.3403 20.1736ZM33.3403 39.8611C33.3403 40.739 32.9915 41.581 32.3707 42.2018C31.7499 42.8226 30.9079 43.1714 30.03 43.1714C29.152 43.1714 28.3101 42.8226 27.6893 42.2018C27.0685 41.581 26.7197 40.739 26.7197 39.8611C26.7197 38.9831 27.0685 38.1412 27.6893 37.5203C28.3101 36.8995 29.152 36.5508 30.03 36.5508C30.9079 36.5508 31.7499 36.8995 32.3707 37.5203C32.9915 38.1412 33.3403 38.9831 33.3403 39.8611ZM39.8728 33.3277C39.4381 33.3277 39.0076 33.242 38.606 33.0757C38.2044 32.9093 37.8395 32.6655 37.5321 32.3581C37.2247 32.0507 36.9808 31.6858 36.8145 31.2841C36.6481 30.8825 36.5625 30.4521 36.5625 30.0173C36.5625 29.5826 36.6481 29.1522 36.8145 28.7505C36.9808 28.3489 37.2247 27.984 37.5321 27.6766C37.8395 27.3692 38.2044 27.1254 38.606 26.959C39.0076 26.7927 39.4381 26.707 39.8728 26.707C40.7508 26.707 41.5928 27.0558 42.2136 27.6766C42.8344 28.2974 43.1831 29.1394 43.1831 30.0173C43.1831 30.8953 42.8344 31.7373 42.2136 32.3581C41.5928 32.9789 40.7508 33.3277 39.8728 33.3277ZM20.1853 33.3277C19.7506 33.3277 19.3201 33.242 18.9185 33.0757C18.5169 32.9093 18.152 32.6655 17.8446 32.3581C17.5372 32.0507 17.2933 31.6858 17.127 31.2841C16.9606 30.8825 16.875 30.4521 16.875 30.0173C16.875 29.5826 16.9606 29.1522 17.127 28.7505C17.2933 28.3489 17.5372 27.984 17.8446 27.6766C18.152 27.3692 18.5169 27.1254 18.9185 26.959C19.3201 26.7927 19.7506 26.707 20.1853 26.707C21.0633 26.707 21.9053 27.0558 22.5261 27.6766C23.1469 28.2974 23.4956 29.1394 23.4956 30.0173C23.4956 30.8953 23.1469 31.7373 22.5261 32.3581C21.9053 32.9789 21.0633 33.3277 20.1853 33.3277Z" stroke="#FE9526" stroke-linecap="round" stroke-linejoin="round"/>
</svg>
