<svg width="60" height="60" viewBox="0 0 60 60" fill="none" xmlns="http://www.w3.org/2000/svg">
<path d="M35.272 30.3263H24.7229C23.5272 30.3263 22.5543 31.2937 22.5543 32.4894V33.9459C22.5543 35.1416 23.5272 36.1091 24.7229 36.1091H26.549V37.0657C26.549 38.1581 27.435 39.0439 28.5219 39.0439H31.473C32.56 39.0439 33.4459 38.158 33.4459 37.0657V36.1091H35.272C36.4677 36.1091 37.4405 35.1417 37.4405 33.9459V32.4894C37.4404 31.2937 36.4677 30.3263 35.272 30.3263ZM22.9727 26.337C23.9293 26.9784 24.5054 28.0545 24.5054 29.2176V29.2502C24.5761 29.2393 24.6467 29.2393 24.7228 29.2393H29.4566V22.2935C28.1521 22.038 27.1685 20.8913 27.1685 19.5163C27.1685 17.9565 28.4402 16.69 30.0001 16.69C31.5598 16.69 32.8262 17.9564 32.8262 19.5163C32.8262 20.8913 31.8425 22.038 30.5436 22.2935V29.2393H35.272C35.348 29.2393 35.4187 29.2393 35.4894 29.2502V29.2176C35.4894 28.0545 36.0709 26.973 37.0546 26.3209C40.5874 23.9566 42.7016 20.0055 42.7016 15.7554C42.7016 12.2607 41.2395 8.88559 38.6961 6.49427C36.1145 4.07024 32.7395 2.85829 29.185 3.07567C22.8099 3.47786 17.7119 8.58126 17.3206 14.9564C17.0432 19.4837 19.2118 23.8425 22.9727 26.337Z" fill="#595BD4"/>
<path d="M31.7414 19.5153C31.7414 18.5552 30.9604 17.7745 30.0006 17.7745C29.0388 17.7745 28.2563 18.5552 28.2563 19.5153C28.2563 20.477 29.0388 21.2598 30.0006 21.2598C30.9605 21.2598 31.7414 20.4769 31.7414 19.5153ZM6.47895 25.5101C6.61805 25.5101 6.75704 25.457 6.86321 25.3509C7.07555 25.1385 7.07555 24.7947 6.86321 24.5823C2.1995 19.9186 2.2029 12.3268 6.87059 7.65824C7.08294 7.4459 7.08294 7.10207 6.87059 6.88973C6.65825 6.67738 6.31442 6.67738 6.10208 6.88973C1.01063 11.9818 1.00712 20.2636 6.09469 25.3509C6.20087 25.457 6.33985 25.5101 6.47895 25.5101ZM10.2871 21.7019C10.4262 21.7019 10.5652 21.6488 10.6713 21.5426C10.8837 21.3303 10.8837 20.9864 10.6713 20.7741C9.43149 19.5343 8.74946 17.8826 8.75075 16.1226C8.7518 14.3621 9.43676 12.7082 10.6787 11.4663C10.8911 11.2539 10.8911 10.9101 10.6787 10.6977C10.4664 10.4854 10.1225 10.4854 9.9102 10.6977C8.46282 12.1445 7.66512 14.0712 7.66383 16.1215C7.66219 18.1723 8.45754 20.0973 9.90282 21.5426C10.009 21.6489 10.148 21.7019 10.2871 21.7019ZM14.095 17.8937C14.2341 17.8937 14.3734 17.8407 14.4792 17.7345C14.6916 17.5221 14.6916 17.1783 14.4792 16.966C14.2549 16.742 14.1323 16.4421 14.1338 16.1226C14.135 15.802 14.2606 15.5005 14.4867 15.2745C14.6991 15.0621 14.6991 14.7183 14.4867 14.506C14.2744 14.2936 13.9306 14.2936 13.7182 14.506C13.2878 14.9364 13.0494 15.5085 13.0468 16.1179C13.0441 16.7298 13.2802 17.3042 13.7108 17.7346C13.8169 17.8407 13.9559 17.8937 14.095 17.8937ZM53.1268 25.3513C53.233 25.4575 53.372 25.5106 53.5111 25.5106C53.6502 25.5106 53.7892 25.4575 53.8954 25.3513C58.9872 20.2593 58.9906 11.978 53.9027 6.8902C53.6904 6.67785 53.3466 6.67785 53.1342 6.8902C52.9219 7.10254 52.9219 7.44637 53.1342 7.65871C57.7982 12.3224 57.7948 19.9149 53.1268 24.5828C52.9145 24.7952 52.9145 25.1391 53.1268 25.3513ZM49.3186 21.5432C49.4248 21.6494 49.5638 21.7025 49.7029 21.7025C49.842 21.7025 49.9809 21.6494 50.0871 21.5432C51.5345 20.0964 52.3322 18.1703 52.3335 16.1194C52.3351 14.0691 51.5398 12.1436 50.0945 10.6983C49.8822 10.486 49.5383 10.486 49.326 10.6983C49.1136 10.9107 49.1136 11.2545 49.326 11.4668C50.5658 12.7067 51.2479 14.3589 51.2464 16.1188C51.2454 17.8793 50.5604 19.5326 49.3185 20.7746C49.1064 20.987 49.1064 21.331 49.3186 21.5432ZM45.5107 17.7351C45.6169 17.8413 45.7559 17.8943 45.895 17.8943C46.0341 17.8943 46.173 17.8413 46.2792 17.7351C47.1714 16.8429 47.1749 15.3945 46.287 14.5066C46.0746 14.2942 45.7308 14.2942 45.5184 14.5066C45.3061 14.7189 45.3061 15.0627 45.5184 15.2751C45.9826 15.7395 45.9791 16.4979 45.5107 16.9666C45.2985 17.1789 45.2985 17.5227 45.5107 17.7351ZM14.849 44.9888H13.9576V43.7225C15.3762 43.1301 16.4849 41.9343 16.974 40.4615C18.5175 40.0158 19.648 38.5973 19.648 36.9125V35.8581C19.648 31.5863 16.1697 28.1079 11.8978 28.1079C7.62059 28.1079 4.14223 31.5863 4.14223 35.8581V36.9125C4.14223 38.5973 5.27813 40.0212 6.82161 40.4669C7.31075 41.9343 8.41407 43.13 9.83801 43.7225V44.9888H8.94669C5.27274 44.9888 2.28352 47.978 2.28352 51.652V56.4075C2.28352 56.7065 2.52258 56.9511 2.82704 56.9511H6.08801V51.6521C6.08801 51.3477 6.32708 51.1086 6.63153 51.1086C6.93047 51.1086 7.17505 51.3477 7.17505 51.6521V56.9511H16.6209V51.6521C16.6209 51.3477 16.8655 51.1086 17.1645 51.1086C17.4634 51.1086 17.708 51.3477 17.708 51.6521V56.9511H20.969C21.2679 56.9511 21.5125 56.7065 21.5125 56.4075V51.6521C21.5121 47.978 18.5229 44.9888 14.849 44.9888ZM12.8706 45.7226C12.8706 45.9781 12.7674 46.2281 12.5879 46.4129C12.4031 46.5923 12.1586 46.6955 11.8977 46.6955C11.3597 46.6955 10.9248 46.2607 10.9248 45.7226V44.0487C11.0064 44.065 11.0933 44.0704 11.1748 44.0813C11.2454 44.0922 11.3106 44.103 11.3813 44.1139C11.5498 44.1302 11.7237 44.1355 11.8976 44.1355C11.8976 44.1355 11.8976 44.1355 11.903 44.1355C12.0715 44.1355 12.2454 44.1302 12.4139 44.1139C12.4792 44.103 12.5443 44.0922 12.6096 44.0867C12.6966 44.0704 12.7835 44.0649 12.8705 44.0486L12.8706 45.7226ZM12.6206 42.9834C12.5881 42.9888 12.5554 42.9943 12.5174 42.9996C12.1043 43.0594 11.6858 43.0594 11.2729 42.9996C11.2403 42.9943 11.2022 42.9888 11.1696 42.9834C10.9739 42.9508 10.7783 42.9019 10.5881 42.842C8.87614 42.2877 7.637 40.6844 7.637 38.7876V37.2332C7.637 36.38 8.29465 35.6679 9.137 35.6028C10.2022 35.5212 11.1696 35.1408 12.023 34.8093C12.849 34.4832 13.5882 34.1897 14.3057 34.1897C14.5991 34.1897 14.8927 34.2387 15.1861 34.3582C15.7676 34.5974 16.159 35.2007 16.159 35.8637V38.7877C16.159 40.6845 14.9145 42.2877 13.2079 42.8422C13.0119 42.9018 12.8162 42.9508 12.6206 42.9834ZM51.0509 44.9888H50.1595V43.7225C51.5835 43.1301 52.6922 41.9343 53.1759 40.4615C54.7194 40.0158 55.8553 38.5973 55.8553 36.9125V35.8581C55.8553 31.5863 52.377 28.1079 48.0997 28.1079C43.8279 28.1079 40.3495 31.5863 40.3495 35.8581V36.9125C40.3495 38.5973 41.48 40.0158 43.0235 40.4615C43.5127 41.9343 44.6214 43.13 46.0399 43.7225V44.9888H45.1486C41.4747 44.9888 38.4854 47.978 38.4854 51.652V56.4075C38.4854 56.7065 38.73 56.9511 39.0289 56.9511H42.2899V51.6521C42.2899 51.3477 42.5345 51.1086 42.8334 51.1086C43.1324 51.1086 43.377 51.3477 43.377 51.6521V56.9511H52.8229V51.6521C52.8229 51.3477 53.0674 51.1086 53.3664 51.1086C53.6707 51.1086 53.9099 51.3477 53.9099 51.6521V56.9511H57.1763C57.4752 56.9511 57.7198 56.7065 57.7198 56.4075V51.6521C57.7194 47.978 54.7248 44.9888 51.0509 44.9888ZM49.0725 45.7226C49.0725 45.9781 48.9747 46.2281 48.7898 46.4129C48.605 46.5923 48.3605 46.6955 48.1051 46.6955C47.567 46.6955 47.1268 46.2607 47.1268 45.7226V44.0487C47.2138 44.065 47.2954 44.0704 47.3823 44.0813C47.4476 44.0922 47.5181 44.103 47.5834 44.1139C47.7573 44.1302 47.9312 44.1355 48.0997 44.1355C48.1051 44.1355 48.1051 44.1355 48.1051 44.1355C48.279 44.1355 48.4475 44.1302 48.6161 44.1139C48.6867 44.103 48.7519 44.0922 48.8172 44.0867C48.9041 44.0704 48.9857 44.0649 49.0726 44.0486V45.7226H49.0725ZM48.8225 42.9834L48.7247 42.9996C48.3116 43.0594 47.8931 43.0594 47.4802 42.9996C47.4421 42.9943 47.4095 42.9888 47.3714 42.9834C47.1757 42.9508 46.9801 42.9019 46.7899 42.842C45.0834 42.2877 43.8388 40.6844 43.8388 38.7876V37.2332C43.8388 36.38 44.4965 35.6679 45.3388 35.6028C46.4094 35.5212 47.3769 35.1408 48.2302 34.8093C49.0508 34.4832 49.7954 34.1897 50.5074 34.1897C50.8063 34.1897 51.0997 34.2387 51.3878 34.3582C51.9693 34.5974 52.3607 35.2007 52.3607 35.8637V38.7877C52.3607 40.6845 51.1215 42.2877 49.4095 42.8422C49.2192 42.9018 49.0236 42.9508 48.8225 42.9834Z" fill="#595BD4"/>
</svg>
