<svg width="60" height="60" viewBox="0 0 60 60" fill="none" xmlns="http://www.w3.org/2000/svg">
<path d="M52.7992 22.8203V39.7703C52.7992 43.3703 49.8742 46.2953 46.2742 46.2953H13.7242C10.1242 46.2953 7.19922 43.3703 7.19922 39.7703V22.8203C7.19922 25.5016 9.39297 27.6953 12.093 27.6953H47.9055C50.6055 27.6953 52.7992 25.5016 52.7992 22.8203Z" fill="#53D86A"/>
<path d="M47.9077 27.6953H12.0914C9.39328 27.6953 7.20703 25.5091 7.20703 22.8109V19.0666C7.20703 15.4703 10.1227 12.5547 13.7189 12.5547H46.2783C49.8745 12.5547 52.7902 15.4703 52.7902 19.0666V22.8109C52.792 25.5091 50.6039 27.6953 47.9077 27.6953Z" fill="#53D86A"/>
<path d="M38.7533 42.2366C38.7533 44.7547 37.6883 47.0253 35.9839 48.6191C35.1533 49.3953 34.707 50.4978 34.707 51.6341H25.3002C25.3002 50.4959 24.852 49.3953 24.0233 48.6191C22.3189 47.0253 21.2539 44.7547 21.2539 42.2366C21.2539 37.3972 25.1727 33.4766 30.0045 33.4766C34.8364 33.4766 38.7533 37.3972 38.7533 42.2366ZM34.7089 51.6359V52.9109C34.7089 54.7484 33.2089 56.2484 31.3714 56.2484H28.6339C26.7964 56.2484 25.2964 54.7484 25.2964 52.9109V51.6359H34.7089Z" fill="#FE9526"/>
<path d="M52.5067 13.7925C51.0011 12.0188 48.7848 10.8675 46.2817 10.8675H40.0211V7.005C40.0211 4.27875 37.803 2.0625 35.0767 2.0625H24.9255C22.1992 2.0625 19.9811 4.28063 19.9811 7.005V10.8656H13.7205C11.2173 10.8656 9.00109 12.0169 7.49547 13.7906C6.27672 15.2213 5.51172 17.0475 5.51172 19.0669V39.7669C5.51172 44.295 9.19797 47.9794 13.7261 47.9794H15.2448C16.1767 47.9794 16.9323 47.2237 16.9323 46.2919C16.9323 45.36 16.1767 44.6044 15.2448 44.6044H13.7261C11.058 44.6044 8.88859 42.4331 8.88859 39.7669V28.5094C9.84109 29.0475 10.923 29.3794 12.093 29.3794H17.4592V30.6056C17.4592 31.5375 18.2148 32.2931 19.1467 32.2931C20.0786 32.2931 20.8342 31.5375 20.8342 30.6056V29.3812H39.1623V30.6075C39.1623 31.5394 39.918 32.295 40.8498 32.295C41.7817 32.295 42.5373 31.5394 42.5373 30.6075V29.3812H47.9036C49.0736 29.3812 50.1555 29.0494 51.108 28.5112V39.7687C51.108 42.435 48.9386 44.6063 46.2705 44.6063H44.7517C43.8198 44.6063 43.0642 45.3619 43.0642 46.2938C43.0642 47.2256 43.8198 47.9813 44.7517 47.9813H46.2705C50.7986 47.9813 54.4848 44.2969 54.4848 39.7687V19.0687C54.4905 17.0494 53.7255 15.2213 52.5067 13.7925ZM23.358 7.005C23.358 6.14063 24.0611 5.4375 24.9255 5.4375H35.0767C35.9411 5.4375 36.6442 6.14063 36.6442 7.005V10.8656H23.358V7.005ZM51.1042 22.8094C51.1042 24.5719 49.6698 26.0062 47.9092 26.0062H42.543V24.78C42.543 23.8481 41.7873 23.0925 40.8555 23.0925C39.9236 23.0925 39.168 23.8481 39.168 24.78V26.0062H20.8398V24.78C20.8398 23.8481 20.0842 23.0925 19.1523 23.0925C18.2205 23.0925 17.4648 23.8481 17.4648 24.78V26.0062H12.093C10.3323 26.0062 8.89797 24.5719 8.89797 22.8094V19.065C8.89797 17.9175 9.31609 16.8769 9.98734 16.0481C10.8742 14.9606 12.2111 14.25 13.7261 14.25H46.2761C47.7911 14.25 49.128 14.9606 50.0167 16.05C50.6861 16.8788 51.1061 17.9194 51.1061 19.0669V22.8094H51.1042Z" fill="#167FFC"/>
<path d="M30.0006 31.793C24.2463 31.793 19.5625 36.4786 19.5625 42.2386C19.5625 45.1148 20.7681 47.8898 22.8681 49.853C23.3406 50.2955 23.6106 50.9461 23.6106 51.638V52.9186C23.6106 55.6861 25.8644 57.938 28.6338 57.938H31.3731C34.1425 57.938 36.3962 55.6861 36.3962 52.9186V51.638C36.3962 50.9461 36.6663 50.2955 37.1369 49.8548C39.2388 47.8917 40.4444 45.1148 40.4444 42.2386C40.4388 36.4786 35.755 31.793 30.0006 31.793ZM31.3694 54.563H28.6319C27.8688 54.563 27.2538 54.0305 27.0681 53.3236H32.935C32.7494 54.0305 32.1344 54.563 31.3694 54.563ZM34.8269 47.3892C34.0863 48.083 33.5481 48.9717 33.2594 49.9486H26.7381C26.4513 48.9717 25.9131 48.0811 25.1706 47.3873C23.7288 46.0392 22.9375 44.2111 22.9375 42.2367C22.9375 38.3367 26.1044 35.1661 30.0006 35.1661C33.8969 35.1661 37.0638 38.3386 37.0638 42.2367C37.0638 44.213 36.2706 46.0411 34.8269 47.3892Z" fill="#167FFC"/>
</svg>
