<svg width="60" height="60" viewBox="0 0 60 60" fill="none" xmlns="http://www.w3.org/2000/svg">
<path d="M48.8231 21.4584C48.8232 21.6355 48.7884 21.8109 48.7206 21.9746C48.6529 22.1383 48.5535 22.287 48.4282 22.4123L48.4212 22.431C47.8075 22.1925 47.1273 22.1888 46.511 22.4205L46.5016 22.3935C46.3486 22.2344 46.237 22.0402 46.1766 21.8279C46.1161 21.6156 46.1087 21.3917 46.1549 21.1759C46.2012 20.96 46.2996 20.7588 46.4418 20.5899C46.5839 20.421 46.7652 20.2896 46.97 20.2071C47.1747 20.1246 47.3966 20.0936 47.6161 20.1169C47.8356 20.1401 48.0461 20.2169 48.229 20.3404C48.4119 20.4639 48.5618 20.6304 48.6654 20.8253C48.7689 21.0203 48.8231 21.2376 48.8231 21.4584Z" fill="#53D86A"/>
<path d="M50.1262 25.7211V24.9242C50.1263 24.3856 49.9636 23.8596 49.6596 23.415C49.3555 22.9705 48.9243 22.6281 48.4223 22.4328L48.4294 22.4141C48.617 22.2262 48.7451 21.9871 48.7974 21.7268C48.8497 21.4664 48.8241 21.1964 48.7236 20.9506C48.6231 20.7048 48.4523 20.4942 48.2325 20.345C48.0128 20.1959 47.7539 20.115 47.4884 20.1124C47.2229 20.1098 46.9625 20.1857 46.7399 20.3305C46.5173 20.4753 46.3424 20.6826 46.2371 20.9264C46.1319 21.1702 46.1009 21.4397 46.1482 21.701C46.1955 21.9623 46.3188 22.2038 46.5028 22.3953L46.5122 22.4223C46.0462 22.598 45.6386 22.9003 45.3351 23.2951C45.0316 23.6899 44.8443 24.1616 44.7942 24.657C44.7907 24.691 44.786 25.3613 44.7837 25.9672C44.7813 26.4793 44.7801 26.9457 44.7801 26.9457C44.7801 27.6546 45.0618 28.3345 45.5631 28.8358C46.0644 29.3371 46.7443 29.6187 47.4532 29.6187C48.1621 29.6187 48.842 29.3371 49.3433 28.8358C49.8446 28.3345 50.1262 27.6546 50.1262 26.9457V25.7211ZM47.5469 18.2305C49.8023 18.2306 51.9983 18.9536 53.8125 20.2935C55.6268 21.6334 56.9637 23.5196 57.6272 25.6752C58.2907 27.8308 58.2457 30.1423 57.4989 32.2704C56.7521 34.3986 55.3428 36.2313 53.4778 37.4996L53.4391 37.4434V33.8457C53.4781 33.4594 53.4357 33.0693 53.3146 32.7004C53.1935 32.3315 52.9963 31.9921 52.736 31.7041C52.4756 31.4162 52.1577 31.186 51.8029 31.0284C51.448 30.8709 51.0641 30.7895 50.6759 30.7895H50.0009L49.5028 31.8641C49.3292 32.2376 49.0507 32.5526 48.7012 32.7706C48.3517 32.9886 47.9463 33.1002 47.5344 33.0917C47.1226 33.0833 46.7221 32.9552 46.3818 32.723C46.0415 32.4909 45.7762 32.1647 45.618 31.7844L45.1786 30.7895H44.418C44.0298 30.7895 43.6459 30.8709 43.291 31.0284C42.9362 31.186 42.6183 31.4162 42.3579 31.7041C42.0975 31.9921 41.9004 32.3315 41.7793 32.7004C41.6582 33.0693 41.6158 33.4594 41.6548 33.8457V37.4445L41.6161 37.4996C39.7511 36.2313 38.3418 34.3986 37.595 32.2704C36.8482 30.1423 36.8032 27.8308 37.4667 25.6752C38.1302 23.5196 39.4671 21.6334 41.2814 20.2935C43.0956 18.9536 45.2916 18.2306 47.5469 18.2305Z" fill="#FE9526"/>
<path d="M53.4402 37.4426L53.4789 37.4988C51.7311 38.691 49.6637 39.327 47.548 39.3234C47.1219 39.3236 46.6961 39.2981 46.273 39.2473L42.5793 41.5641V38.0824C42.2486 37.905 41.9274 37.7102 41.6172 37.4988L41.6559 37.4437V33.8449C41.6169 33.4586 41.6593 33.0685 41.7804 32.6996C41.9015 32.3307 42.0986 31.9913 42.359 31.7034C42.6194 31.4154 42.9373 31.1852 43.2921 31.0276C43.647 30.8701 44.0309 30.7887 44.4191 30.7887H45.1797L45.6191 31.7836C45.7773 32.1639 46.0427 32.49 46.383 32.7221C46.7233 32.9542 47.1237 33.0823 47.5355 33.0908C47.9473 33.0992 48.3527 32.9877 48.7022 32.7697C49.0517 32.5517 49.3303 32.2368 49.5039 31.8633L50.002 30.7887H50.677C51.0652 30.7887 51.4491 30.8701 51.804 31.0276C52.1588 31.1852 52.4767 31.4154 52.7371 31.7034C52.9974 31.9913 53.1946 32.3307 53.3157 32.6996C53.4368 33.0685 53.4792 33.4586 53.4402 33.8449V37.4426ZM50.1273 25.7203V26.9449C50.1273 27.6539 49.8457 28.3338 49.3444 28.8351C48.8431 29.3363 48.1632 29.618 47.4543 29.618C46.7454 29.618 46.0655 29.3363 45.5642 28.8351C45.0629 28.3338 44.7812 27.6539 44.7812 26.9449C44.7812 26.9449 44.7824 26.4785 44.7848 25.9664C45.6133 25.9172 46.3656 25.3148 46.5203 24.5977C47.2926 25.1262 48.4586 25.6371 50.1273 25.7203Z" fill="#53D86A"/>
<path d="M46.5191 24.5974C46.0294 24.2746 45.6065 23.8604 45.2734 23.3775C45.5814 22.942 46.0129 22.6089 46.5121 22.4213C46.9929 22.2403 47.5157 22.2018 48.0178 22.3103C48.5199 22.4188 48.9801 22.6697 49.3434 23.033C49.592 23.2809 49.7891 23.5756 49.9235 23.9C50.0578 24.2244 50.1267 24.5721 50.1262 24.9232V25.7201C48.4574 25.6369 47.2914 25.126 46.5191 24.5974Z" fill="#53D86A"/>
<path d="M43.8164 45.2852L37.957 58.1758H18.5777H18.0352L23.8945 45.2852H27.6457H43.8164Z" fill="#FE9526"/>
<path d="M25.6844 8.9L25.6973 10.1879C25.7053 10.9544 26.0154 11.6869 26.5602 12.2262C27.105 12.7655 27.8405 13.0681 28.6071 13.0684H28.6375C29.0198 13.0645 29.3975 12.9854 29.7491 12.8356C30.1007 12.6857 30.4194 12.468 30.6869 12.195C30.9544 11.9219 31.1655 11.5989 31.3081 11.2442C31.4507 10.8896 31.522 10.5103 31.518 10.1281L31.4934 7.60859L31.4911 7.40938C31.4849 6.8385 31.2524 6.29342 30.8446 5.89393C30.4367 5.49443 29.8869 5.27322 29.3161 5.27891L26.2059 5.31055C26.174 5.31045 26.1421 5.31399 26.111 5.32109C25.9817 5.3443 25.8648 5.41261 25.7811 5.51389C25.6974 5.61517 25.6523 5.74285 25.6539 5.87422L25.6786 8.26602L25.6844 8.9ZM28.7969 1.82422C30.9979 1.82443 33.1436 2.5132 34.9335 3.79402C36.7234 5.07485 38.0678 6.88354 38.7782 8.96668C39.4886 11.0498 39.5296 13.303 38.8953 15.4106C38.261 17.5182 36.9832 19.3745 35.2411 20.7195L35.2012 17.6047C35.2396 17.1837 35.1892 16.7594 35.0534 16.3591C34.9177 15.9588 34.6994 15.5914 34.4129 15.2807C34.1263 14.9699 33.7778 14.7227 33.3898 14.555C33.0017 14.3873 32.5829 14.3028 32.1602 14.307L31.4254 14.3141L30.3028 18.4285L29.0735 16.2863L28.3809 16.2934L27.2852 18.459L26.1731 14.3L25.3457 14.3762C24.9229 14.3803 24.5056 14.473 24.1209 14.6485C23.7361 14.8239 23.3924 15.0781 23.112 15.3946C22.8316 15.7111 22.6207 16.0829 22.493 16.486C22.3652 16.8891 22.3235 17.3145 22.3704 17.7348L22.4102 20.7652C20.6536 19.4285 19.3606 17.5743 18.7135 15.4639C18.0663 13.3535 18.0976 11.0933 18.8029 9.00161C19.5082 6.90993 20.8519 5.09224 22.6449 3.80462C24.4378 2.51699 26.5895 1.82433 28.7969 1.82422Z" fill="#53D86A"/>
<path d="M27.2851 18.4563L28.3808 16.2906L29.0733 16.2836L30.3026 18.4258L31.4253 14.3113L32.1601 14.3043C32.5827 14.3001 33.0016 14.3846 33.3896 14.5523C33.7776 14.72 34.1262 14.9672 34.4127 15.2779C34.6993 15.5887 34.9175 15.9561 35.0533 16.3564C35.1891 16.7567 35.2394 17.181 35.2011 17.602L35.2409 20.7168C33.397 22.1457 31.1295 22.9193 28.7968 22.9152C28.3706 22.9154 27.9449 22.8899 27.5218 22.8391L23.828 25.1559V21.6742C23.3318 21.4086 22.8576 21.1038 22.4101 20.7625L22.3702 17.732C22.3233 17.3118 22.3651 16.8864 22.4929 16.4833C22.6206 16.0802 22.8315 15.7084 23.1119 15.3918C23.3923 15.0753 23.736 14.8212 24.1207 14.6457C24.5055 14.4703 24.9228 14.3775 25.3456 14.3734L26.1729 14.2973L27.2851 18.4563ZM31.5179 10.1254C31.5219 10.5076 31.4505 10.8869 31.3079 11.2415C31.1653 11.5961 30.9543 11.9192 30.6868 12.1923C30.4193 12.4653 30.1006 12.683 29.749 12.8328C29.3973 12.9827 29.0196 13.0618 28.6374 13.0656H28.6069C27.8404 13.0654 27.1048 12.7627 26.56 12.2234C26.0153 11.6841 25.7052 10.9517 25.6972 10.1852L25.6843 8.89727C25.8097 8.62539 26.4073 7.48984 27.7479 7.26953C28.6058 7.86719 29.7788 8.24453 31.1886 7.60937L31.4933 7.60586L31.5179 10.1254Z" fill="#53D86A"/>
<path d="M27.748 7.27081C27.1035 6.80548 26.5591 6.21526 26.1472 5.53526L26.1109 5.31964C26.142 5.31253 26.1739 5.30899 26.2058 5.30909L29.316 5.27745C29.8869 5.27176 30.4366 5.49298 30.8445 5.89247C31.2523 6.29196 31.4849 6.83705 31.491 7.40792L31.4933 7.60714L31.1886 7.61065C29.7789 8.24581 28.6058 7.86847 27.748 7.27081ZM11.7765 48.1868L14.0148 43.8673L15.4047 43.8685L17.8234 48.188L20.1578 39.9638H21.6297C23.1079 39.964 24.5352 40.5043 25.6432 41.4829C26.7511 42.4616 27.4634 43.8113 27.6461 45.2782V45.2829H23.8949L18.0355 58.1735H1.94099V46.6353C1.85562 45.7921 1.94801 44.9404 2.21221 44.1352C2.4764 43.33 2.90653 42.5891 3.4748 41.9604C4.04308 41.3318 4.73688 40.8292 5.51142 40.4853C6.28595 40.1414 7.124 39.9637 7.97146 39.9638L9.632 39.8278L11.7765 48.1868Z" fill="#53D86A"/>
<path d="M27.7473 7.27148C26.4066 7.4918 25.809 8.62734 25.6836 8.89922L25.6777 8.26523L25.6531 5.87344C25.6515 5.74207 25.6966 5.61439 25.7803 5.51311C25.864 5.41183 25.9808 5.34352 26.1102 5.32031L26.1465 5.53594C26.5583 6.21593 27.1027 6.80615 27.7473 7.27148ZM20.4289 29.243V31.5762C20.4289 33.1233 19.8143 34.6071 18.7203 35.7011C17.6263 36.7952 16.1425 37.4098 14.5953 37.4098C13.0481 37.4098 11.5643 36.7952 10.4703 35.7011C9.37633 34.6071 8.76172 33.1233 8.76172 31.5762V29.243C8.76172 27.6958 9.37633 26.212 10.4703 25.118C11.5643 24.024 13.0481 23.4094 14.5953 23.4094C16.1425 23.4094 17.6263 24.024 18.7203 25.118C19.8143 26.212 20.4289 27.6958 20.4289 29.243Z" fill="#53D86A"/>
<path d="M16.5719 40.1445L15.4047 43.8687H14.0137L12.8477 40.1445H16.5719Z" fill="#53D86A"/>
<path d="M43.8168 44.4626H28.3326C27.9789 42.95 27.1242 41.6013 25.9073 40.6357C24.6904 39.6701 23.1829 39.1442 21.6294 39.1435H20.1578C19.9793 39.1435 19.8057 39.2017 19.6633 39.3093C19.5208 39.4169 19.4174 39.568 19.3687 39.7397L17.5738 46.0631L16.2938 43.7771L17.3558 40.3882C17.3943 40.2654 17.4034 40.1352 17.3822 40.0082C17.3611 39.8813 17.3104 39.761 17.2342 39.6573C17.1579 39.5535 17.0584 39.4692 16.9435 39.4111C16.8287 39.3529 16.7018 39.3226 16.573 39.3226H12.8488C12.7201 39.3226 12.5932 39.3529 12.4784 39.4111C12.3636 39.4692 12.264 39.5535 12.1878 39.6572C12.1116 39.7609 12.0609 39.8811 12.0397 40.0081C12.0186 40.135 12.0276 40.2652 12.066 40.388L13.131 43.7897L12.0367 45.9005L10.4266 39.6239C10.3784 39.4364 10.2656 39.272 10.1079 39.1597C9.95023 39.0473 9.75792 38.9944 9.56499 39.0102L7.93678 39.1436C6.98116 39.1483 6.037 39.3521 5.16445 39.7418C4.29191 40.1316 3.51012 40.6988 2.86889 41.4074C2.22766 42.116 1.74105 42.9503 1.44006 43.8573C1.13907 44.7643 1.03031 45.7241 1.12069 46.6754V58.1735C1.12069 58.3911 1.20712 58.5997 1.36096 58.7536C1.51479 58.9074 1.72344 58.9938 1.941 58.9938H37.9574C38.1149 58.9939 38.269 58.9486 38.4014 58.8634C38.5338 58.7782 38.6389 58.6567 38.7041 58.5134L44.5635 45.6228C44.6204 45.4978 44.645 45.3605 44.6351 45.2236C44.6251 45.0867 44.581 44.9544 44.5067 44.8389C44.4324 44.7235 44.3303 44.6285 44.2097 44.5628C44.0892 44.497 43.9541 44.4626 43.8168 44.4626ZM15.4564 40.9634L14.8033 43.047H14.6176L13.9653 40.9634H15.4564ZM2.7571 46.5525C2.68331 45.8235 2.76324 45.087 2.99173 44.3908C3.22021 43.6945 3.59217 43.0539 4.08359 42.5103C4.57501 41.9667 5.17497 41.5322 5.84473 41.2349C6.51448 40.9376 7.23915 40.784 7.97194 40.7841C7.99421 40.7841 8.01659 40.7831 8.03886 40.7814L9.00987 40.7019L10.982 48.3907C10.9828 48.3941 10.9842 48.3972 10.9851 48.4006C10.9907 48.4217 10.9968 48.4423 11.0044 48.4627C11.0063 48.4679 11.0083 48.4733 11.0103 48.4785C11.0181 48.4987 11.0265 48.5182 11.0355 48.5371C11.038 48.5426 11.0407 48.5482 11.0434 48.5536C11.0524 48.5718 11.0623 48.5895 11.0727 48.6068L11.0836 48.6249C11.0941 48.6413 11.1051 48.6571 11.1164 48.6727C11.1209 48.6787 11.1252 48.6844 11.1297 48.6904C11.1414 48.7055 11.1539 48.7201 11.1667 48.7344C11.1715 48.7397 11.1762 48.745 11.181 48.7501C11.1946 48.7644 11.2088 48.7781 11.2233 48.7915C11.2279 48.7957 11.2324 48.7999 11.2371 48.804C11.2528 48.8176 11.2689 48.8306 11.2855 48.8431L11.2973 48.8523C11.3147 48.865 11.3324 48.8767 11.3513 48.8875L11.363 48.8943C11.3819 48.9053 11.4011 48.9154 11.4209 48.9249L11.4326 48.9307C11.4518 48.9396 11.4714 48.9476 11.4912 48.955L11.5071 48.9608C11.5258 48.9673 11.5448 48.9726 11.564 48.9781C11.5712 48.9801 11.5786 48.9819 11.586 48.9837C11.6033 48.9878 11.6212 48.9913 11.6389 48.9942C11.6485 48.9959 11.6582 48.9974 11.6679 48.9987C11.6842 49.0008 11.7005 49.0024 11.717 49.0036C11.7282 49.0044 11.7393 49.005 11.7504 49.0053C11.7589 49.0053 11.7671 49.0065 11.7755 49.0065C11.7814 49.0065 11.7872 49.0054 11.793 49.0053C11.819 49.0053 11.8451 49.0027 11.8714 48.9996C11.8883 48.9976 11.9051 48.9951 11.9217 48.992C11.941 48.9885 11.9602 48.9852 11.9794 48.9803C11.9828 48.9795 11.986 48.9782 11.9892 48.9772C12.0052 48.9729 12.0208 48.9679 12.0361 48.9626C12.0539 48.9566 12.0713 48.9501 12.0884 48.943C12.1015 48.9376 12.1148 48.9325 12.1275 48.9264C12.1557 48.9131 12.1831 48.8981 12.2096 48.8816C12.2168 48.8771 12.2236 48.8719 12.2308 48.8671C12.2523 48.8527 12.2731 48.8374 12.293 48.8212C12.3007 48.8147 12.3085 48.8084 12.3164 48.8017C12.339 48.782 12.3604 48.7611 12.3807 48.7391C12.3831 48.7365 12.3857 48.7342 12.3882 48.7315C12.4096 48.7071 12.4295 48.6815 12.4479 48.6547C12.454 48.646 12.4596 48.6371 12.4655 48.628C12.4789 48.6071 12.4914 48.5855 12.5029 48.5633C12.5059 48.5574 12.51 48.5516 12.513 48.5459L14.5124 44.6872H14.9226L17.1066 48.5877C17.1778 48.7149 17.2817 48.8208 17.4074 48.8946C17.5332 48.9683 17.6763 49.0072 17.8221 49.0072C17.8542 49.0072 17.8863 49.0054 17.9181 49.0016C18.0791 48.9827 18.2309 48.9165 18.3543 48.8113C18.4778 48.7062 18.5672 48.5668 18.6115 48.4109L20.7767 40.783H21.6287C22.7459 40.7835 23.8338 41.1405 24.734 41.8021C25.6342 42.4637 26.2997 43.3954 26.6336 44.4615H23.8949C23.7374 44.4615 23.5833 44.5068 23.4509 44.592C23.3184 44.6772 23.2133 44.7987 23.1481 44.942L17.5074 57.3532H2.76132V46.6353C2.76132 46.6076 2.75991 46.58 2.7571 46.5525ZM37.4291 57.3532H19.3095L24.4231 46.1032H42.5427L37.4291 57.3532ZM14.5961 38.2294C16.3602 38.2274 18.0515 37.5257 19.2989 36.2783C20.5463 35.0309 21.248 33.3396 21.25 31.5755V29.2423C21.25 27.4776 20.549 25.7851 19.3011 24.5373C18.0533 23.2894 16.3608 22.5884 14.5961 22.5884C12.8314 22.5884 11.1389 23.2894 9.89106 24.5373C8.64321 25.7851 7.94218 27.4776 7.94218 29.2423V31.5755C7.94416 33.3396 8.64583 35.0309 9.89325 36.2783C11.1407 37.5257 12.832 38.2274 14.5961 38.2294ZM9.5828 29.2423C9.5828 27.9127 10.111 26.6375 11.0512 25.6974C11.9913 24.7572 13.2665 24.229 14.5961 24.229C15.9257 24.229 17.2008 24.7572 18.141 25.6974C19.0812 26.6375 19.6094 27.9127 19.6094 29.2423V31.5755C19.6094 32.9051 19.0812 34.1802 18.141 35.1204C17.2008 36.0606 15.9257 36.5888 14.5961 36.5888C13.2665 36.5888 11.9913 36.0606 11.0512 35.1204C10.111 34.1802 9.5828 32.9051 9.5828 31.5755V29.2423ZM49.5402 22.1214C49.6444 21.7971 49.6707 21.4529 49.6171 21.1166C49.5634 20.7802 49.4314 20.4612 49.2315 20.1854C49.0317 19.9097 48.7697 19.6848 48.4668 19.5291C48.164 19.3733 47.8286 19.2911 47.4881 19.2891C47.1475 19.2871 46.8112 19.3653 46.5065 19.5174C46.2018 19.6694 45.9371 19.8912 45.734 20.1645C45.5309 20.4379 45.395 20.7553 45.3374 21.091C45.2797 21.4266 45.3019 21.7712 45.4022 22.0967C45.0039 22.3853 44.6711 22.7549 44.4257 23.1812C44.1803 23.6076 44.0278 24.081 43.9783 24.5704C43.9738 24.6127 43.9683 24.6654 43.9632 25.9623C43.9608 26.4751 43.9598 26.9421 43.9598 26.9441C43.9598 27.8706 44.3278 28.7592 44.9829 29.4143C45.6381 30.0694 46.5266 30.4375 47.4531 30.4375C48.3796 30.4375 49.2682 30.0694 49.9233 29.4143C50.5784 28.7592 50.9465 27.8706 50.9465 26.9441V24.9226C50.9477 24.4637 50.858 24.0091 50.6823 23.5851C50.5067 23.1611 50.2488 22.7761 49.9234 22.4524C49.8037 22.3331 49.6757 22.2225 49.5402 22.1214ZM46.982 23.9199C46.7643 23.7716 46.5603 23.6041 46.3726 23.4192C46.6231 23.2381 46.915 23.1228 47.2215 23.0839C47.5281 23.045 47.8396 23.0838 48.1273 23.1966C48.4566 23.325 48.7421 23.5451 48.9501 23.8308C49.1581 24.1165 49.2798 24.4559 49.3007 24.8087C48.4716 24.6873 47.6798 24.3838 46.982 23.9199ZM47.4753 20.9302C47.6154 20.9304 47.7497 20.9861 47.8488 21.0852C47.9478 21.1843 48.0036 21.3186 48.0038 21.4587C48.0038 21.4636 48.0025 21.4684 48.0024 21.4733C47.6532 21.4173 47.2976 21.4149 46.9477 21.4661C46.9477 21.4636 46.947 21.4612 46.947 21.4587C46.9471 21.3186 47.0029 21.1843 47.1019 21.0852C47.201 20.9861 47.3352 20.9304 47.4753 20.9302ZM47.453 28.797C46.9619 28.797 46.491 28.6021 46.1435 28.2551C45.7961 27.9081 45.6007 27.4373 45.6003 26.9462C45.6003 26.9462 45.6003 26.8173 45.6012 26.6227C46.0898 26.4471 46.5212 26.1413 46.8485 25.7383C47.6213 26.1165 48.4518 26.3632 49.3057 26.4681V26.9444C49.3052 27.4355 49.1098 27.9064 48.7625 28.2537C48.4152 28.601 47.9443 28.7964 47.4531 28.797H47.453Z" fill="#595BD4"/>
<path d="M47.547 17.4102C45.1163 17.4103 42.7496 18.1895 40.7943 19.6335C38.8389 21.0775 37.398 23.1103 36.6828 25.4334C35.9677 27.7565 36.016 30.2477 36.8207 32.5414C37.6255 34.835 39.1442 36.8103 41.154 38.1774C41.3495 38.3108 41.5517 38.4392 41.7579 38.5618V41.5648C41.7579 41.7114 41.7972 41.8553 41.8716 41.9815C41.946 42.1077 42.0529 42.2117 42.1812 42.2827C42.3094 42.3536 42.4543 42.3889 42.6008 42.3849C42.7473 42.3808 42.89 42.3376 43.0142 42.2598L46.4672 40.0939C46.8247 40.1275 47.1867 40.1445 47.547 40.1445C50.5617 40.1445 53.453 38.9469 55.5848 36.8152C57.7165 34.6834 58.9142 31.7921 58.9142 28.7773C58.9142 25.7626 57.7165 22.8713 55.5848 20.7395C53.453 18.6078 50.5617 17.4102 47.547 17.4102ZM46.3701 38.4336C46.1836 38.4111 45.9951 38.4533 45.836 38.5531L43.3985 40.082V38.0832C43.3985 37.9349 43.3584 37.7894 43.2822 37.6622C43.2061 37.5349 43.097 37.4307 42.9663 37.3605C42.7996 37.271 42.6359 37.1757 42.4751 37.0771V33.8457C42.4751 33.8181 42.4737 33.7908 42.471 33.7637C42.4436 33.4915 42.4735 33.2166 42.5588 32.9567C42.6442 32.6968 42.7831 32.4577 42.9666 32.2548C43.15 32.0519 43.374 31.8897 43.624 31.7787C43.874 31.6677 44.1445 31.6104 44.4181 31.6103H44.6442L44.8644 32.1087C45.0851 32.6347 45.4539 33.0851 45.9259 33.4053C46.3979 33.7255 46.9527 33.9017 47.523 33.9124C48.0932 33.9231 48.6543 33.7678 49.1379 33.4655C49.6216 33.1632 50.007 32.7269 50.2472 32.2096L50.5249 31.6105H50.676C50.9496 31.6105 51.2201 31.6678 51.4701 31.7788C51.7201 31.8898 51.9441 32.052 52.1276 32.2549C52.3111 32.4578 52.45 32.6969 52.5353 32.9568C52.6207 33.2167 52.6506 33.4916 52.6232 33.7638C52.6205 33.7912 52.6192 33.8186 52.6191 33.8458V37.077C51.0931 38.013 49.3373 38.507 47.5472 38.504C47.1538 38.504 46.7607 38.4804 46.3701 38.4336ZM54.2595 35.815V33.8843C54.3035 33.387 54.2436 32.886 54.0835 32.4132C53.9234 31.9403 53.6667 31.5059 53.3297 31.1377C52.9926 30.7695 52.5826 30.4754 52.1257 30.2742C51.6688 30.073 51.1751 29.9691 50.6759 29.9691H50.0009C49.8444 29.9691 49.6912 30.0139 49.5593 30.0981C49.4274 30.1824 49.3224 30.3026 49.2566 30.4446L48.7596 31.5168C48.6543 31.7425 48.487 31.9335 48.2772 32.0676C48.1169 32.1697 47.9363 32.2354 47.7479 32.2603C47.5596 32.2851 47.3681 32.2684 47.1869 32.2114C47.0056 32.1543 46.8391 32.0583 46.6989 31.9301C46.5588 31.8018 46.4483 31.6445 46.3754 31.469C46.3731 31.4635 46.3708 31.4573 46.3683 31.4525L45.9288 30.4576C45.8646 30.3122 45.7596 30.1886 45.6264 30.1018C45.4933 30.015 45.3378 29.9687 45.1788 29.9687H44.4183C43.9191 29.9687 43.4254 30.0726 42.9685 30.2738C42.5116 30.475 42.1016 30.769 41.7646 31.1373C41.4276 31.5055 41.1708 31.9399 41.0108 32.4127C40.8507 32.8856 40.7908 33.3865 40.8348 33.8838V35.8156C39.4284 34.4744 38.456 32.7427 38.043 30.8437C37.6299 28.9447 37.7953 26.9655 38.5176 25.1613C39.2399 23.3571 40.4862 21.8107 42.0956 20.7214C43.7051 19.6322 45.6039 19.05 47.5473 19.05C49.4907 19.05 51.3896 19.6322 52.999 20.7214C54.6085 21.8107 55.8547 23.3571 56.577 25.1613C57.2994 26.9655 57.4647 28.9447 57.0517 30.8437C56.6387 32.7427 55.6663 34.4744 54.2598 35.8156L54.2595 35.815Z" fill="#595BD4"/>
<path d="M21.9134 21.4169C22.2637 21.6838 22.6291 21.9303 23.0078 22.1552V25.1577C23.0078 25.3042 23.0471 25.448 23.1215 25.5743C23.1959 25.7005 23.3028 25.8045 23.431 25.8754C23.5592 25.9463 23.7041 25.9816 23.8506 25.9776C23.9971 25.9736 24.1398 25.9304 24.2639 25.8526L27.7171 23.6867C28.0745 23.7204 28.4366 23.7374 28.7969 23.7374C31.8115 23.737 34.7026 22.5392 36.8343 20.4076C38.966 18.2759 40.1637 15.3848 40.1641 12.3702C40.1639 10.4359 39.6702 8.53377 38.7297 6.84363C37.7891 5.15349 36.4328 3.7313 34.7892 2.71166C33.1456 1.69201 31.269 1.10864 29.3369 1.01674C27.4049 0.924849 25.4814 1.32747 23.7484 2.18651C22.0154 3.04555 20.5303 4.33258 19.4336 5.92582C18.3369 7.51906 17.6648 9.3658 17.4811 11.2913C17.2974 13.2167 17.608 15.1572 18.3836 16.9291C19.1591 18.701 20.374 20.2457 21.9133 21.417L21.9134 21.4169ZM27.6204 22.0263C27.434 22.0039 27.2455 22.0461 27.0864 22.1458L24.6489 23.6748V21.676C24.6489 21.5275 24.6086 21.3817 24.5322 21.2543C24.4559 21.1268 24.3463 21.0225 24.2153 20.9525C23.875 20.7703 23.5458 20.568 23.2297 20.3465L23.1917 17.7516V17.7231V17.7219C23.1917 17.6954 23.1896 17.6689 23.1868 17.6427C23.1526 17.3364 23.1831 17.0264 23.2763 16.7327C23.3695 16.4389 23.5232 16.168 23.7276 15.9374C23.932 15.7068 24.1825 15.5216 24.4629 15.3939C24.7433 15.2661 25.0474 15.1986 25.3555 15.1957C25.3778 15.1957 25.4001 15.1943 25.4222 15.1923L25.5606 15.1795L26.494 18.67L27.2843 18.4591H27.2876L28.0184 18.8288L28.754 17.375L29.5926 18.8363C29.6733 18.9769 29.7938 19.0904 29.939 19.1626C30.0841 19.2347 30.2474 19.2622 30.4082 19.2416C30.569 19.221 30.7201 19.1533 30.8424 19.0469C30.9647 18.9405 31.0527 18.8003 31.0954 18.6439L32.0548 15.1283L32.17 15.1271C32.4779 15.1241 32.783 15.1857 33.0657 15.3079C33.3483 15.4301 33.6022 15.6102 33.811 15.8365C34.0198 16.0629 34.1787 16.3305 34.2777 16.6221C34.3767 16.9137 34.4134 17.2228 34.3856 17.5295C34.3829 17.5577 34.3818 17.5861 34.3823 17.6145L34.4167 20.3099C32.7771 21.4789 30.8119 22.1039 28.7982 22.0967C28.4045 22.0967 28.0112 22.0733 27.6203 22.0264L27.6204 22.0263ZM28.7972 2.6436C30.6761 2.64384 32.5146 3.18816 34.0908 4.2108C35.6669 5.23343 36.9132 6.69063 37.679 8.4063C38.4448 10.122 38.6974 12.0227 38.4062 13.8789C38.1151 15.735 37.2926 17.4671 36.0382 18.8659L36.0223 17.6334C36.0642 17.1048 35.9964 16.5733 35.8229 16.0723C35.6495 15.5712 35.3743 15.1114 35.0146 14.7219C34.6549 14.3323 34.2185 14.0214 33.7328 13.8086C33.2472 13.5959 32.7227 13.4859 32.1925 13.4857C32.1793 13.4857 32.1659 13.4857 32.1525 13.4857L31.4178 13.4927C31.2392 13.4944 31.0661 13.5544 30.9246 13.6634C30.7832 13.7725 30.6813 13.9247 30.6343 14.097L30.0314 16.3063L29.7854 15.877C29.7135 15.7518 29.6099 15.6478 29.485 15.5754C29.3601 15.5031 29.2183 15.465 29.0739 15.465H29.0655L28.3729 15.472C28.2226 15.4735 28.0757 15.5163 27.9481 15.5956C27.8205 15.675 27.7171 15.7878 27.6493 15.9219L27.5232 16.1711L26.9659 14.087C26.9158 13.9002 26.8013 13.737 26.6426 13.6264C26.484 13.5157 26.2914 13.4645 26.0988 13.4819L25.3027 13.5553C24.7719 13.5654 24.2489 13.6854 23.7667 13.9077C23.2846 14.13 22.8537 14.4498 22.5013 14.8469C22.1488 15.244 21.8825 15.7098 21.719 16.2149C21.5556 16.7201 21.4985 17.2536 21.5515 17.7819L21.5659 18.8779C20.3089 17.4799 19.4839 15.7477 19.1906 13.8907C18.8973 12.0337 19.1483 10.1315 19.9133 8.41411C20.6783 6.69675 21.9244 5.23781 23.501 4.21372C25.0776 3.18964 26.9172 2.64428 28.7972 2.6436Z" fill="#595BD4"/>
<path d="M28.6056 13.8867H28.6444C29.6334 13.8755 30.5776 13.4724 31.2698 12.7659C31.9621 12.0595 32.3458 11.1072 32.3369 10.1182L32.3099 7.39851C32.299 6.611 31.9771 5.85976 31.4144 5.30871C30.8517 4.75765 30.0938 4.45152 29.3063 4.45711L26.2044 4.48875C26.1178 4.48871 26.0314 4.49771 25.9466 4.51558C25.63 4.57561 25.3446 4.74538 25.1408 4.99502C24.9369 5.24467 24.8277 5.5582 24.8322 5.88047L24.8755 10.1941C24.8887 11.1759 25.2871 12.1131 25.9848 12.8039C26.6826 13.4946 27.6238 13.8835 28.6056 13.8867ZM28.6361 12.2461H28.6056C28.0556 12.2443 27.5284 12.0264 27.1375 11.6395C26.7467 11.2526 26.5235 10.7277 26.516 10.1777L26.5051 9.09351C26.7461 8.65821 27.1351 8.32369 27.6015 8.15062C28.2439 8.54386 28.9812 8.75488 29.7344 8.76105C30.0534 8.76012 30.3712 8.72177 30.6813 8.64679L30.696 10.1351C30.7014 10.6878 30.4878 11.2202 30.1018 11.6158C29.7157 12.0114 29.1888 12.238 28.6361 12.2461ZM29.3227 6.09715H29.3359C29.6079 6.09776 29.8732 6.18141 30.0963 6.33691C30.3194 6.4924 30.4897 6.71233 30.5844 6.96726C29.7622 7.25425 28.9846 7.13308 28.2149 6.59683C28.0099 6.4529 27.8178 6.29148 27.6407 6.11437L29.3227 6.09715Z" fill="#595BD4"/>
</svg>
