<svg width="60" height="60" viewBox="0 0 60 60" fill="none" xmlns="http://www.w3.org/2000/svg">
<path d="M41.25 5.625H11.25C8.6625 5.625 6.5625 7.725 6.5625 10.3125V48.75C6.5625 51.3375 8.6625 53.4375 11.25 53.4375H41.25C43.8375 53.4375 45.9375 51.3375 45.9375 48.75V10.3125C45.9375 7.725 43.8375 5.625 41.25 5.625Z" fill="#167FFC"/>
<path d="M41.25 9.375H11.25C10.7344 9.375 10.3125 9.79688 10.3125 10.3125V48.75C10.3125 49.2656 10.7344 49.6875 11.25 49.6875H41.25C41.7656 49.6875 42.1875 49.2656 42.1875 48.75V10.3125C42.1875 9.79688 41.7656 9.375 41.25 9.375Z" fill="#595BD4"/>
<path d="M30.3828 4.13594L29.6047 3.35781C29.2484 3.00156 28.7797 2.80469 28.2828 2.80469H24.2141C23.7172 2.80469 23.2391 3.00156 22.8922 3.35781L22.1141 4.13594C21.7578 4.49219 21.2891 4.68906 20.7922 4.68906H18.7578C17.7266 4.68906 16.8828 5.53281 16.8828 6.56406V8.43906C16.8828 9.47031 17.7266 10.3141 18.7578 10.3141H33.7578C34.7891 10.3141 35.6328 9.47031 35.6328 8.43906V6.56406C35.6328 5.53281 34.7891 4.68906 33.7578 4.68906H31.7234C31.2266 4.68906 30.7484 4.49219 30.4016 4.13594H30.3828Z" fill="#FE9526"/>
<path d="M19.8945 14.4181L16.8008 18.29L15.6664 17.1556C15.3008 16.79 14.7102 16.79 14.3445 17.1556C13.9789 17.5213 13.9789 18.1119 14.3445 18.4775L16.2195 20.3525C16.3977 20.5306 16.632 20.6244 16.8852 20.6244C16.9039 20.6244 16.9227 20.6244 16.9414 20.6244C17.2039 20.6056 17.457 20.4838 17.6258 20.2775L21.3758 15.59C21.6945 15.1869 21.6289 14.5963 21.2258 14.2681C20.8227 13.9494 20.232 14.015 19.9039 14.4181H19.8945Z" fill="#53D86A"/>
<path d="M19.6875 23.4375H15.9375C15.4197 23.4375 15 23.8572 15 24.375V28.125C15 28.6428 15.4197 29.0625 15.9375 29.0625H19.6875C20.2053 29.0625 20.625 28.6428 20.625 28.125V24.375C20.625 23.8572 20.2053 23.4375 19.6875 23.4375Z" fill="#53D86A"/>
<path d="M19.6875 31.875H15.9375C15.4197 31.875 15 32.2947 15 32.8125V36.5625C15 37.0803 15.4197 37.5 15.9375 37.5H19.6875C20.2053 37.5 20.625 37.0803 20.625 36.5625V32.8125C20.625 32.2947 20.2053 31.875 19.6875 31.875Z" fill="#53D86A"/>
<path d="M19.6875 40.3125H15.9375C15.4197 40.3125 15 40.7322 15 41.25V45C15 45.5178 15.4197 45.9375 15.9375 45.9375H19.6875C20.2053 45.9375 20.625 45.5178 20.625 45V41.25C20.625 40.7322 20.2053 40.3125 19.6875 40.3125Z" fill="#53D86A"/>
<path d="M25.3125 16.875H37.5C38.0156 16.875 38.4375 16.4531 38.4375 15.9375C38.4375 15.4219 38.0156 15 37.5 15H25.3125C24.7969 15 24.375 15.4219 24.375 15.9375C24.375 16.4531 24.7969 16.875 25.3125 16.875ZM25.3125 20.625H31.875C32.3906 20.625 32.8125 20.2031 32.8125 19.6875C32.8125 19.1719 32.3906 18.75 31.875 18.75H25.3125C24.7969 18.75 24.375 19.1719 24.375 19.6875C24.375 20.2031 24.7969 20.625 25.3125 20.625ZM37.5 23.4375H25.3125C24.7969 23.4375 24.375 23.8594 24.375 24.375C24.375 24.8906 24.7969 25.3125 25.3125 25.3125H37.5C38.0156 25.3125 38.4375 24.8906 38.4375 24.375C38.4375 23.8594 38.0156 23.4375 37.5 23.4375ZM25.3125 29.0625H31.875C32.3906 29.0625 32.8125 28.6406 32.8125 28.125C32.8125 27.6094 32.3906 27.1875 31.875 27.1875H25.3125C24.7969 27.1875 24.375 27.6094 24.375 28.125C24.375 28.6406 24.7969 29.0625 25.3125 29.0625ZM37.5 31.875H25.3125C24.7969 31.875 24.375 32.2969 24.375 32.8125C24.375 33.3281 24.7969 33.75 25.3125 33.75H37.5C38.0156 33.75 38.4375 33.3281 38.4375 32.8125C38.4375 32.2969 38.0156 31.875 37.5 31.875ZM31.875 35.625H25.3125C24.7969 35.625 24.375 36.0469 24.375 36.5625C24.375 37.0781 24.7969 37.5 25.3125 37.5H31.875C32.3906 37.5 32.8125 37.0781 32.8125 36.5625C32.8125 36.0469 32.3906 35.625 31.875 35.625ZM31.875 40.3125H25.3125C24.7969 40.3125 24.375 40.7344 24.375 41.25C24.375 41.7656 24.7969 42.1875 25.3125 42.1875H31.875C32.3906 42.1875 32.8125 41.7656 32.8125 41.25C32.8125 40.7344 32.3906 40.3125 31.875 40.3125ZM31.875 44.0625H25.3125C24.7969 44.0625 24.375 44.4844 24.375 45C24.375 45.5156 24.7969 45.9375 25.3125 45.9375H31.875C32.3906 45.9375 32.8125 45.5156 32.8125 45C32.8125 44.4844 32.3906 44.0625 31.875 44.0625ZM25.3125 7.5H27.1875C27.7031 7.5 28.125 7.07812 28.125 6.5625C28.125 6.04688 27.7031 5.625 27.1875 5.625H25.3125C24.7969 5.625 24.375 6.04688 24.375 6.5625C24.375 7.07812 24.7969 7.5 25.3125 7.5Z" fill="#53D86A"/>
<path d="M44.0625 57.1875C49.2402 57.1875 53.4375 52.9902 53.4375 47.8125C53.4375 42.6348 49.2402 38.4375 44.0625 38.4375C38.8848 38.4375 34.6875 42.6348 34.6875 47.8125C34.6875 52.9902 38.8848 57.1875 44.0625 57.1875Z" fill="#FE9526"/>
<path d="M41.9797 52.1344C41.7266 52.1344 41.4922 52.0312 41.3141 51.8625L38.7078 49.2563C38.3422 48.8906 38.3422 48.3 38.7078 47.9344C39.0734 47.5688 39.6641 47.5688 40.0297 47.9344L41.9703 49.875L48.0828 43.7625C48.4484 43.3969 49.0391 43.3969 49.4047 43.7625C49.7703 44.1281 49.7703 44.7187 49.4047 45.0844L42.6359 51.8531C42.4578 52.0313 42.2234 52.125 41.9703 52.125L41.9797 52.1344Z" fill="#53D86A"/>
</svg>
