<svg width="60" height="60" viewBox="0 0 60 60" fill="none" xmlns="http://www.w3.org/2000/svg">
<g clip-path="url(#clip0_9047_5971)">
<path fill-rule="evenodd" clip-rule="evenodd" d="M7.63012 13.2658C7.63012 11.8855 7.98402 10.4903 9.14992 9.63848C9.9182 9.07715 10.8857 8.87055 11.8231 8.87055C12.7611 8.87055 13.7296 9.07738 14.4988 9.63836C15.6661 10.4897 16.0214 11.8843 16.0214 13.2657C16.0214 14.5386 15.7129 15.8521 15.0448 16.9438C14.4814 17.8646 13.6355 18.6518 12.5639 18.9126C12.3212 18.9716 12.0728 19.0016 11.823 19.0016C11.5704 19.0016 11.3192 18.9709 11.074 18.9106C10.0052 18.6474 9.1627 17.8599 8.60184 16.9397C7.93668 15.8486 7.63012 14.5367 7.63012 13.2658ZM25.3439 8.96336C25.3439 7.43231 25.7372 5.8866 27.0319 4.94383C27.8856 4.32227 28.9609 4.09375 30.0012 4.09375C31.0401 4.09375 32.1136 4.32297 32.9658 4.94395C34.2599 5.88695 34.653 7.43266 34.653 8.96336C34.653 10.3701 34.3107 11.8203 33.5706 13.0255C32.9467 14.0418 32.0114 14.9095 30.8287 15.199C30.5577 15.2654 30.2802 15.2991 30.0012 15.2991C29.7175 15.2991 29.4353 15.2643 29.1599 15.196C27.979 14.9029 27.0459 14.0356 26.423 13.0195C25.6852 11.8156 25.3439 10.3679 25.3439 8.96336ZM48.1739 8.87055C49.1119 8.87055 50.0805 9.07738 50.8497 9.63836C52.0171 10.4897 52.3723 11.8843 52.3723 13.2657C52.3723 14.5386 52.0638 15.8521 51.3957 16.9438C50.8322 17.8646 49.9864 18.6518 48.9148 18.9126C48.6721 18.9716 48.4237 19.0016 48.1738 19.0016C47.924 19.0016 47.6755 18.9715 47.4327 18.9126C46.3613 18.6518 45.5154 17.8647 44.952 16.9438C44.2839 15.8521 43.9754 14.5387 43.9754 13.2658C43.9754 11.8844 44.3307 10.4898 45.498 9.63848C46.2674 9.07738 47.236 8.87055 48.1739 8.87055ZM50.9935 42.9634L52.7228 46.7761C52.8218 47.0005 53.0376 47.1552 53.2807 47.1824L57.4384 47.6467L54.347 50.4657C54.1636 50.6329 54.0872 50.8852 54.1368 51.1273L54.9757 55.2252L51.342 53.1561C51.2358 53.0956 51.1157 53.0641 50.9936 53.0641C50.8716 53.0641 50.7513 53.0957 50.6452 53.1561L47.0105 55.2258L47.856 51.1271C47.9061 50.8845 47.8231 50.6325 47.6402 50.4658L44.5486 47.6468L48.7063 47.1831C48.9497 47.1559 49.1652 47.0011 49.2652 46.7741L50.9935 42.9634ZM33.3546 50.4655C33.1718 50.6323 33.0888 50.8843 33.1388 51.1268L33.9842 55.2251L30.3442 53.1559C30.238 53.0956 30.1232 53.0638 30.0012 53.0638C29.879 53.0638 29.7589 53.0956 29.6527 53.1559L26.0127 55.2251L26.8581 51.1268C26.9082 50.8843 26.8252 50.6323 26.6423 50.4655L23.5507 47.6466L27.7086 47.1829C27.957 47.1551 28.1697 47.0016 28.273 46.7739L30.0017 42.9626L31.7242 46.7743C31.8271 47.0018 32.0406 47.1548 32.2886 47.1824L36.4462 47.6467L33.3546 50.4655ZM12.1465 51.1272L12.9855 55.2251L9.35172 53.1559C9.13633 53.0334 8.87019 53.0334 8.6548 53.1559L5.02117 55.225L5.86105 51.1233C5.91461 50.8819 5.83223 50.6316 5.65 50.4654L2.55859 47.6465L6.71629 47.1828C6.96168 47.1553 7.17871 46.9995 7.28055 46.774L9.00309 42.9624L10.7328 46.7759C10.8318 47.0003 11.0475 47.155 11.2907 47.1822L15.4547 47.6465L12.3569 50.4655C12.1731 50.6327 12.0971 50.8852 12.1465 51.1272Z" fill="#595BD4"/>
<path fill-rule="evenodd" clip-rule="evenodd" d="M56.9009 47.8225L53.2575 47.4156C52.9314 47.3792 52.6438 47.1718 52.5111 46.8711L50.9963 43.5312L49.4814 46.8711C49.3487 47.1723 49.0611 47.3792 48.735 47.4162L45.0916 47.8225L47.8007 50.2927C48.0439 50.5155 48.1545 50.8505 48.0881 51.1745L47.3473 54.766L50.5318 52.9526C50.6756 52.8713 50.8359 52.8299 50.9963 52.8299C51.1566 52.8299 51.3169 52.8708 51.4607 52.9526L54.6452 54.766L53.9099 51.1745C53.8436 50.8505 53.9486 50.5155 54.1918 50.2927L56.9009 47.8225ZM59.9583 46.83C59.9875 46.9224 60.002 47.017 60.0026 47.1109V47.1189C60.002 47.3787 59.8945 47.632 59.693 47.8125L55.8505 51.3188L56.901 56.4152C56.9728 56.7756 56.8291 57.1461 56.5361 57.3627C56.2376 57.5788 55.8394 57.601 55.5188 57.4191L50.9963 54.846L46.4739 57.4191C46.3301 57.5009 46.1698 57.5413 46.0095 57.5413C45.816 57.5413 45.6225 57.4811 45.4621 57.3627C45.1636 57.1459 45.0198 56.7755 45.0916 56.4152L46.1421 51.3188L42.2941 47.8125C42.0232 47.5649 41.9237 47.1807 42.0398 46.83C42.1505 46.4801 42.4601 46.2291 42.8249 46.1882L47.9941 45.6115L50.1448 40.8718C50.2941 40.5361 50.6313 40.3211 50.9961 40.3211C51.3666 40.3211 51.6983 40.5361 51.8531 40.8718L53.9982 45.6115L59.1675 46.1882C59.5325 46.2291 59.8422 46.4801 59.9583 46.83ZM35.9086 47.8225L32.2652 47.4156C31.9335 47.3792 31.6515 47.1718 31.5134 46.8711L30.004 43.5312L28.4892 46.8711C28.3509 47.1723 28.069 47.3792 27.7373 47.4162L24.094 47.8225L26.803 50.2927C27.0463 50.5155 27.1568 50.8505 27.0905 51.1745L26.3496 54.766L29.5397 52.9526C29.6835 52.8708 29.8438 52.8299 30.0041 52.8299C30.1644 52.8299 30.3192 52.8708 30.463 52.9526L33.6531 54.766L32.9122 51.1745C32.8459 50.8505 32.9565 50.5155 33.1997 50.2927L35.9086 47.8225ZM38.9604 46.83C39.0765 47.1805 38.9714 47.5648 38.7006 47.8125L34.8581 51.3188L35.9031 56.4152C35.9805 56.7756 35.8368 57.1461 35.5382 57.3627C35.3779 57.481 35.1844 57.5413 34.9853 57.5413C34.8305 57.5413 34.6702 57.501 34.5264 57.4191L30.0039 54.846L25.4815 57.4191C25.1609 57.601 24.7628 57.5788 24.4642 57.3627C24.1656 57.1459 24.0219 56.7755 24.0993 56.4152L25.1442 51.3188L21.3018 47.8125C21.0308 47.5649 20.9313 47.1807 21.0418 46.83C21.158 46.4801 21.4621 46.2291 21.8325 46.1882L27.0018 45.6115L29.1469 40.8718C29.3017 40.5361 29.6334 40.3211 30.0039 40.3211C30.3688 40.3211 30.7005 40.5361 30.8554 40.8718L33.0005 45.6115L38.1754 46.1882C38.5403 46.2291 38.8443 46.4801 38.9604 46.83ZM14.9162 47.8225L11.2673 47.4156C10.9412 47.3792 10.6536 47.1718 10.521 46.8711L9.00609 43.5312L7.49672 46.8711C7.35855 47.1723 7.07098 47.3792 6.74484 47.4162L3.10148 47.8225L5.81051 50.2927C6.05379 50.5155 6.16441 50.8505 6.09246 51.1745L5.35711 54.766L8.54168 52.9526C8.82914 52.7895 9.18305 52.7895 9.47051 52.9526L12.655 54.766L11.9197 51.1745C11.8534 50.8505 11.9584 50.5155 12.2017 50.2927L14.9162 47.8225ZM17.9681 46.83C18.0788 47.1805 17.9791 47.5648 17.7083 47.8125L13.8604 51.3188L14.9108 56.4152C14.9827 56.7756 14.839 57.1461 14.5459 57.3627C14.2474 57.5788 13.8493 57.601 13.5286 57.4191L9.00609 54.846L4.48371 57.4191C4.33992 57.5009 4.17961 57.5413 4.0193 57.5413C3.82582 57.5413 3.63223 57.4811 3.46641 57.3627C3.17344 57.1459 3.02965 56.7755 3.10148 56.4152L4.15195 51.3188L0.309492 47.8125C0.0330469 47.5649 -0.0664453 47.1807 0.0496875 46.83C0.160195 46.4801 0.469805 46.2291 0.834727 46.1882L6.00398 45.6115L8.15461 40.8718C8.30391 40.5361 8.63555 40.3211 9.00598 40.3211C9.37641 40.3211 9.70816 40.5361 9.86297 40.8718L12.0081 45.6115L17.1773 46.1882C17.5424 46.2291 17.852 46.4801 17.9681 46.83ZM48.1767 18.7677C50.3605 18.7677 52.1408 16.2998 52.1408 13.2661C52.1408 9.64598 49.6584 9.10527 48.1767 9.10527C46.695 9.10527 44.2127 9.64598 44.2127 13.2661C44.2126 16.2998 45.9928 18.7677 48.1767 18.7677ZM30.004 15.0652C32.4366 15.0652 34.4214 12.3285 34.4214 8.96371C34.4214 4.93059 31.6515 4.32848 30.004 4.32848C28.3509 4.32848 25.5811 4.93059 25.5811 8.96371C25.5811 12.3285 27.5658 15.0652 30.004 15.0652ZM11.8257 18.7677C14.0095 18.7677 15.7898 16.2998 15.7898 13.2661C15.7898 9.64598 13.3075 9.10527 11.8257 9.10527C10.344 9.10527 7.86727 9.64598 7.86727 13.2661C7.86727 16.2998 9.64195 18.7677 11.8257 18.7677ZM60.0025 26.1694V37.3655C60.0025 37.883 59.5822 38.3025 59.0626 38.3025C58.5484 38.3025 58.1283 37.8829 58.1283 37.3655V26.1694C58.1283 24.1077 55.9997 23.128 54.2195 22.6698C50.4987 21.7134 46.6673 21.6619 42.8084 22.5128C42.8305 22.6953 42.8415 22.8804 42.8415 23.069V37.3655C42.8415 37.883 42.4214 38.3025 41.9017 38.3025C41.3876 38.3025 40.9673 37.8829 40.9673 37.3655V23.069C40.9673 20.6038 38.2528 19.5621 36.6329 19.1608C32.1547 18.0495 27.693 18.0484 23.3752 19.1591C21.3959 19.6677 19.0351 20.7597 19.0351 23.069V37.3655C19.0351 37.883 18.6204 38.3025 18.1008 38.3025C17.5811 38.3025 17.1609 37.8829 17.1609 37.3655V23.069C17.1609 22.8804 17.172 22.6947 17.1941 22.5128C13.3351 21.6619 9.50367 21.7134 5.78848 22.6698C4.00277 23.1282 1.87418 24.1079 1.87418 26.1694V37.3655C1.87418 37.883 1.45957 38.3025 0.939844 38.3025C0.420234 38.3025 0 37.8829 0 37.3655V26.1694C0 23.6235 1.89082 21.736 5.31855 20.8537C6.75598 20.4838 8.21004 20.2422 9.68074 20.1228C7.51898 19.0391 5.98758 16.3755 5.98758 13.2661C5.98758 9.54309 8.22668 7.23051 11.8259 7.23051C15.425 7.23051 17.6641 9.5432 17.6641 13.2661C17.6641 16.3816 16.1271 19.0502 13.96 20.1299C15.2205 20.235 16.4865 20.4306 17.7471 20.7176C18.6041 19.1635 20.3622 17.998 22.9109 17.343C24.5861 16.9123 26.2834 16.6381 27.9861 16.5191C25.5037 15.4526 23.7069 12.47 23.7069 8.96371C23.7069 4.94828 26.123 2.45312 30.0041 2.45312C33.8852 2.45312 36.2958 4.94816 36.2958 8.96371C36.2958 12.4777 34.4934 15.4654 32 16.5264C33.6863 16.648 35.3891 16.9196 37.0864 17.3413C39.602 17.9655 41.3822 19.1504 42.2447 20.7194C43.5163 20.4319 44.7824 20.2356 46.0429 20.13C43.8756 19.0509 42.3387 16.3817 42.3387 13.2663C42.3387 9.5432 44.5778 7.23063 48.177 7.23063C51.7761 7.23063 54.0152 9.54332 54.0152 13.2663C54.0152 16.3756 52.4838 19.0393 50.3221 20.1229C51.7927 20.2423 53.2467 20.4839 54.6841 20.8538C58.1116 21.736 60.0025 23.6235 60.0025 26.1694ZM55.3916 37.3656V29.6072C55.3916 29.0897 54.9714 28.6696 54.4518 28.6696C53.932 28.6696 53.5119 29.0898 53.5119 29.6072V37.3656C53.5119 37.8831 53.9321 38.3027 54.4518 38.3027C54.9714 38.3027 55.3916 37.883 55.3916 37.3656ZM37.7994 37.3656V26.8274C37.7994 26.3099 37.3792 25.8903 36.8596 25.8903C36.34 25.8903 35.9252 26.3099 35.9252 26.8274V37.3656C35.9252 37.8831 36.34 38.3027 36.8596 38.3027C37.3792 38.3027 37.7994 37.883 37.7994 37.3656ZM24.0772 37.3656V26.8274C24.0772 26.3099 23.6626 25.8903 23.1429 25.8903C22.6232 25.8903 22.203 26.3099 22.203 26.8274V37.3656C22.203 37.8831 22.6232 38.3027 23.1429 38.3027C23.6626 38.3027 24.0772 37.883 24.0772 37.3656ZM5.5507 38.3027C6.07043 38.3027 6.49055 37.883 6.49055 37.3656V29.6072C6.49055 29.0897 6.07031 28.6696 5.5507 28.6696C5.03648 28.6696 4.61637 29.0898 4.61637 29.6072V37.3656C4.61637 37.883 5.0366 38.3027 5.5507 38.3027Z" fill="#167FFC"/>
</g>
<defs>
<clipPath id="clip0_9047_5971">
<rect width="60" height="60" fill="white"/>
</clipPath>
</defs>
</svg>
