<svg width="60" height="60" viewBox="0 0 60 60" fill="none" xmlns="http://www.w3.org/2000/svg">
<path d="M42.375 42.9375L36.75 41.0625C36 45.5625 28.125 48.9375 28.125 48.9375C28.125 48.9375 20.4375 45.375 19.5 41.0625L13.875 42.9375C10.6875 44.0625 8.4375 47.0625 8.4375 50.4375V57.375H47.8125V50.4375C47.8125 46.875 45.5625 43.875 42.375 42.9375Z" fill="#167FFC"/>
<path d="M47.8125 57.1875V50.25C47.8125 48.75 47.4375 47.4375 46.6875 46.125C42 46.6875 38.4375 50.625 38.4375 55.5V57H47.8125V57.1875ZM8.4375 57.1875V50.25C8.4375 48.75 8.8125 47.4375 9.5625 46.125C14.25 46.6875 17.8125 50.625 17.8125 55.5V57H8.4375V57.1875Z" fill="#53D86A"/>
<path d="M22.6875 38.25C20.4375 38.0625 18.375 37.5 16.125 36.9375L14.0625 36.375V20.625C14.0625 12.9375 20.4375 6.5625 28.125 6.5625C35.8125 6.5625 42.1875 12.9375 42.1875 20.625V36.5625L40.125 37.125C37.875 37.6875 35.8125 38.0625 33.5625 38.4375" fill="#FE9526"/>
<path d="M33.5625 33.1875H22.5V39.9375L19.5 40.875C20.25 45.375 28.125 48.75 28.125 48.75C28.125 48.75 35.8125 45.1875 36.75 40.875L33.75 39.9375V33.1875H33.5625Z" fill="#FED5AA"/>
<path d="M19.5 41.8116C19.125 41.8116 18.75 41.6241 18.5625 41.2491V40.8741C18.5625 40.4991 18.75 40.1241 19.125 39.9366C19.6875 39.7491 20.0625 40.1241 20.25 40.4991V40.8741C20.25 41.2491 20.0625 41.6241 19.6875 41.8116H19.5Z" fill="#595BD4"/>
<path d="M36.75 41.8125H36.375C36 41.625 35.8125 41.25 35.8125 40.875V40.5C36 39.9375 36.5625 39.75 36.9375 39.9375C37.3125 40.125 37.5 40.5 37.5 40.875V41.25C37.5 41.625 37.125 41.8125 36.75 41.8125Z" fill="#595BD4"/>
<path d="M33.5625 33.1875H22.5V39.9375L19.5 40.875C20.4375 45.375 28.125 48.75 28.125 48.75C28.125 48.75 35.8125 45.1875 36.75 40.875L33.75 39.9375V33.1875H33.5625Z" fill="#FED5AA"/>
<path d="M28.125 49.6875H27.75C27.375 49.5 19.5 45.9375 18.5625 41.0625C18.5625 40.6875 18.75 40.125 19.125 39.9375L21.5625 39.1875V33.1875C21.5625 32.625 21.9375 32.25 22.5 32.25H33.5625C34.125 32.25 34.5 32.625 34.5 33.1875V39.1875L36.9375 39.9375C37.3125 40.125 37.6875 40.5 37.5 41.0625C36.5625 45.9375 28.6875 49.5 28.3125 49.6875H28.125ZM20.625 41.4375C21.75 44.25 26.0625 46.6875 28.125 47.625C30.1875 46.6875 34.3125 44.0625 35.625 41.4375L33.375 40.6875C33 40.5 32.8125 40.125 32.8125 39.75V33.9375H23.625V39.75C23.625 40.125 23.4375 40.5 23.0625 40.6875L20.625 41.4375Z" fill="#595BD4"/>
<path d="M15.9375 21.5625C14.8125 21.5625 14.0625 22.3125 14.0625 23.4375V25.3125C14.0625 26.4375 14.8125 27.1875 15.9375 27.1875H17.8125V21.5625H15.9375ZM40.3125 21.5625H38.4375V27.1875H40.3125C41.4375 27.1875 42.1875 26.4375 42.1875 25.3125V23.4375C42.1875 22.3125 41.4375 21.5625 40.3125 21.5625Z" fill="#FED5AA"/>
<path d="M25.3125 21.5625C23.25 21.5625 21.5625 19.875 21.5625 17.8125C21.5625 19.875 19.875 21.5625 17.8125 21.5625V26.25C17.8125 31.875 22.5 36.5625 28.125 36.5625C33.75 36.5625 38.4375 31.875 38.4375 26.25V21.5625H25.3125Z" fill="#FED5AA"/>
<path d="M55.3125 2.8125H47.8125C46.6875 2.8125 45.9375 3.5625 45.9375 4.6875V17.8125C45.9375 18.9375 46.6875 19.6875 47.8125 19.6875H49.6875V23.4375L53.4375 19.6875H55.3125C56.4375 19.6875 57.1875 18.9375 57.1875 17.8125V4.6875C57.1875 3.5625 56.4375 2.8125 55.3125 2.8125ZM2.8125 2.8125H17.8125C18.9375 2.8125 19.6875 3.5625 19.6875 4.6875V12.1875C19.6875 13.3125 18.9375 14.0625 17.8125 14.0625H15.9375V17.8125L10.3125 14.0625H2.8125C1.6875 14.0625 0.9375 13.3125 0.9375 12.1875V4.6875C0.9375 3.5625 1.6875 2.8125 2.8125 2.8125ZM57.1875 42.1875H47.8125C46.6875 42.1875 45.9375 41.4375 45.9375 40.3125V32.8125C45.9375 31.6875 46.6875 30.9375 47.8125 30.9375H49.6875V27.1875L55.3125 30.9375H57.1875C58.3125 30.9375 59.0625 31.6875 59.0625 32.8125V40.3125C59.0625 41.4375 58.3125 42.1875 57.1875 42.1875Z" fill="white"/>
<path d="M55.3125 35.625H49.6875C49.125 35.625 48.75 35.25 48.75 34.6875C48.75 34.125 49.125 33.75 49.6875 33.75H55.3125C55.875 33.75 56.25 34.125 56.25 34.6875C56.25 35.25 55.875 35.625 55.3125 35.625ZM53.4375 39.375H49.6875C49.125 39.375 48.75 39 48.75 38.4375C48.75 37.875 49.125 37.5 49.6875 37.5H53.4375C54 37.5 54.375 37.875 54.375 38.4375C54.375 39 54 39.375 53.4375 39.375ZM15.9375 7.5H4.6875C4.125 7.5 3.75 7.125 3.75 6.5625C3.75 6 4.125 5.625 4.6875 5.625H15.9375C16.5 5.625 16.875 6 16.875 6.5625C16.875 7.125 16.5 7.5 15.9375 7.5ZM12.1875 11.25H4.6875C4.125 11.25 3.75 10.875 3.75 10.3125C3.75 9.75 4.125 9.375 4.6875 9.375H12.1875C12.75 9.375 13.125 9.75 13.125 10.3125C13.125 10.875 12.75 11.25 12.1875 11.25ZM28.125 37.5C21.9375 37.5 16.875 32.4375 16.875 26.25V22.3125C16.875 21.75 17.25 21.375 17.8125 21.375C18.375 21.375 18.75 21.75 18.75 22.3125V26.25C18.75 31.5 22.875 35.625 28.125 35.625C33.375 35.625 37.5 31.5 37.5 26.25V22.3125C37.5 21.75 37.875 21.375 38.4375 21.375C39 21.375 39.375 21.75 39.375 22.3125V26.25C39.375 32.4375 34.3125 37.5 28.125 37.5ZM47.8125 58.125H8.4375C7.875 58.125 7.5 57.75 7.5 57.1875V50.25C7.5 46.5 9.9375 43.125 13.5 41.8125L22.125 39C22.6875 38.8125 23.0625 39.1875 23.25 39.5625C23.4375 39.9375 23.0625 40.5 22.6875 40.6875L14.0625 43.5C11.25 44.625 9.375 47.25 9.375 50.25V56.25H46.875V50.25C46.875 47.25 45 44.625 42.1875 43.6875L33.375 40.6875C32.8125 40.5 32.625 39.9375 32.8125 39.5625C33 39 33.5625 38.8125 33.9375 39L42.75 42C46.3125 43.125 48.75 46.5 48.75 50.4375V57.375C48.75 57.75 48.375 58.125 47.8125 58.125Z" fill="#595BD4"/>
<path d="M47.8125 58.125H38.4375C37.875 58.125 37.5 57.75 37.5 57.1875V55.6875C37.5 50.4375 41.4375 45.9375 46.6875 45.375C47.0625 45.375 47.4375 45.5625 47.625 45.75C48.375 47.0625 48.9375 48.75 48.9375 50.25V57.1875C48.75 57.75 48.375 58.125 47.8125 58.125ZM39.375 56.25H46.875V50.25C46.875 49.3125 46.6875 48.1875 46.125 47.25C42.1875 48 39.1875 51.5625 39.1875 55.6875V56.25H39.375ZM17.8125 58.125H8.4375C7.875 58.125 7.5 57.75 7.5 57.1875V50.25C7.5 48.75 7.875 47.0625 8.8125 45.75C9 45.375 9.375 45.1875 9.75 45.375C15 45.9375 18.9375 50.4375 18.9375 55.6875V57.1875C18.75 57.75 18.375 58.125 17.8125 58.125ZM9.375 56.25H16.875V55.6875C16.875 51.5625 13.875 48.1875 9.9375 47.25C9.5625 48.1875 9.375 49.3125 9.375 50.25V56.25ZM17.8125 28.125H15.9375C14.4375 28.125 13.125 26.8125 13.125 25.3125V23.4375C13.125 21.9375 14.4375 20.625 15.9375 20.625H16.875C17.4375 20.625 17.8125 21 17.8125 21.5625C17.8125 22.125 17.4375 22.5 16.875 22.5H15.9375C15.375 22.5 15 22.875 15 23.4375V25.3125C15 25.875 15.375 26.25 15.9375 26.25H16.875V24.375C16.875 23.8125 17.25 23.4375 17.8125 23.4375C18.375 23.4375 18.75 23.8125 18.75 24.375V27.1875C18.75 27.75 18.375 28.125 17.8125 28.125ZM40.3125 28.125H38.4375C37.875 28.125 37.5 27.75 37.5 27.1875V24.375C37.5 23.8125 37.875 23.4375 38.4375 23.4375C39 23.4375 39.375 23.8125 39.375 24.375V26.25H40.3125C40.875 26.25 41.25 25.875 41.25 25.3125V23.4375C41.25 22.875 40.875 22.5 40.3125 22.5H38.4375C37.875 22.5 37.5 22.125 37.5 21.5625C37.5 21 37.875 20.625 38.4375 20.625H40.3125C41.8125 20.625 43.125 21.9375 43.125 23.4375V25.3125C43.125 26.8125 41.8125 28.125 40.3125 28.125Z" fill="#595BD4"/>
<path d="M17.8125 22.5H15.9375C15.375 22.5 15 22.125 15 21.5625C15 21 15.375 20.625 15.9375 20.625H17.8125C19.3125 20.625 20.625 19.3125 20.625 17.8125V15.9375C20.625 15.375 21 15 21.5625 15C22.125 15 22.5 15.375 22.5 15.9375V17.8125C22.5 20.4375 20.4375 22.5 17.8125 22.5Z" fill="#595BD4"/>
<path d="M38.4375 22.5H25.3125C22.6875 22.5 20.625 20.4375 20.625 17.8125V15.9375C20.625 15.375 21 15 21.5625 15C22.125 15 22.5 15.375 22.5 15.9375V17.8125C22.5 19.3125 23.8125 20.625 25.3125 20.625H38.4375C39 20.625 39.375 21 39.375 21.5625C39.375 22.125 39 22.5 38.4375 22.5ZM49.6875 24.375H49.3125C48.9375 24.1875 48.75 23.8125 48.75 23.4375V20.625H47.8125C46.3125 20.625 45 19.3125 45 17.8125V4.6875C45 3.1875 46.3125 1.875 47.8125 1.875H55.3125C56.8125 1.875 58.125 3.1875 58.125 4.6875V17.8125C58.125 19.3125 56.8125 20.625 55.3125 20.625H53.8125L50.25 24.1875C50.25 24.1875 49.875 24.375 49.6875 24.375ZM47.8125 3.75C47.25 3.75 46.875 4.125 46.875 4.6875V17.8125C46.875 18.375 47.25 18.75 47.8125 18.75H49.6875C50.25 18.75 50.625 19.125 50.625 19.6875V21.1875L52.6875 19.125C52.875 18.9375 53.0625 18.9375 53.4375 18.9375H55.3125C55.875 18.9375 56.25 18.5625 56.25 18V4.875C56.25 4.125 55.875 3.75 55.3125 3.75H47.8125ZM15.9375 18.75C15.75 18.75 15.5625 18.75 15.375 18.5625L9.9375 15H2.8125C1.3125 15 0 13.6875 0 12.1875V4.6875C0 3.1875 1.3125 1.875 2.8125 1.875H17.8125C19.3125 1.875 20.625 3.1875 20.625 4.6875V12.1875C20.625 13.6875 19.3125 15 17.8125 15H16.875V17.8125C16.875 18.1875 16.6875 18.5625 16.3125 18.5625C16.3125 18.75 16.125 18.75 15.9375 18.75ZM2.8125 3.75C2.25 3.75 1.875 4.125 1.875 4.6875V12.1875C1.875 12.75 2.25 13.125 2.8125 13.125H10.3125C10.5 13.125 10.6875 13.125 10.875 13.3125L15 16.125V14.0625C15 13.5 15.375 13.125 15.9375 13.125H17.8125C18.375 13.125 18.75 12.75 18.75 12.1875V4.6875C18.75 4.125 18.375 3.75 17.8125 3.75H2.8125Z" fill="#595BD4"/>
<path d="M33.5625 39.1875C33.1875 39.1875 32.625 38.8125 32.625 38.4375C32.625 37.875 33 37.5 33.375 37.3125C35.625 37.125 37.6875 36.5625 39.75 36L41.0625 35.625V20.625C41.0625 13.3125 35.25 7.5 27.9375 7.5C25.3125 7.5 22.6875 8.25 20.4375 9.9375V12.1875C20.625 13.6875 19.3125 15 17.8125 15H16.875V17.8125C16.875 18.1875 16.6875 18.5625 16.3125 18.5625C16.125 18.75 15.75 18.75 15.375 18.5625L15.1875 18.375C15 19.125 15 19.875 15 20.625V35.8125L16.3125 36.1875C18.375 36.75 20.625 37.125 22.6875 37.5C23.25 37.5 23.625 38.0625 23.4375 38.625C23.4375 39.1875 22.875 39.5625 22.3125 39.375C20.0625 39.1875 17.8125 38.625 15.5625 38.0625L13.875 37.5C13.5 37.3125 13.125 36.9375 13.125 36.5625V20.625C13.125 19.3125 13.3125 18 13.6875 16.6875C13.6875 16.3125 14.0625 16.125 14.25 16.125H15V14.0625C15 13.5 15.375 13.125 15.9375 13.125H17.8125C18.375 13.125 18.75 12.75 18.75 12.1875V9.375C18.75 9 18.9375 8.8125 19.125 8.625C21.75 6.75 24.9375 5.625 28.125 5.625C36.375 5.625 43.125 12.375 43.125 20.625V36.5625C43.125 36.9375 42.75 37.3125 42.375 37.5L40.3125 38.0625C38.25 38.4375 36 39 33.5625 39.1875C33.75 39.1875 33.75 39.1875 33.5625 39.1875ZM57.1875 43.125H47.8125C46.3125 43.125 45 41.8125 45 40.3125V32.8125C45 31.3125 46.3125 30 47.8125 30H48.75V27.1875C48.75 26.8125 48.9375 26.4375 49.3125 26.4375C49.6875 26.25 50.0625 26.25 50.25 26.4375L55.6875 30H57.1875C58.6875 30 60 31.3125 60 32.8125V40.3125C60 41.8125 58.6875 43.125 57.1875 43.125ZM47.8125 31.875C47.25 31.875 46.875 32.25 46.875 32.8125V40.3125C46.875 40.875 47.25 41.25 47.8125 41.25H57.1875C57.75 41.25 58.125 40.875 58.125 40.3125V32.8125C58.125 32.25 57.75 31.875 57.1875 31.875H55.3125C55.125 31.875 54.9375 31.875 54.75 31.6875L50.625 28.875V30.9375C50.625 31.5 50.25 31.875 49.6875 31.875H47.8125ZM51.5625 13.125C51 13.125 50.625 12.75 50.625 12.1875V11.625C50.625 10.5 51.1875 9.75 51.9375 9.1875C52.3125 9.1875 52.5 8.8125 52.5 8.4375C52.5 7.875 52.125 7.5 51.5625 7.5C51 7.5 50.625 7.875 50.625 8.4375C50.625 9 50.25 9.375 49.6875 9.375C49.125 9.375 48.75 9 48.75 8.4375C48.75 6.9375 50.0625 5.625 51.5625 5.625C53.0625 5.625 54.375 6.9375 54.375 8.4375C54.375 9.5625 53.8125 10.5 52.875 10.875C52.6875 11.0625 52.5 11.25 52.5 11.625V12.1875C52.5 12.75 52.125 13.125 51.5625 13.125ZM51.5625 16.875C51 16.875 50.625 16.5 50.625 15.9375C50.625 15.375 51 15 51.5625 15C52.125 15 52.5 15.375 52.5 15.9375C52.5 16.5 52.125 16.875 51.5625 16.875Z" fill="#595BD4"/>
</svg>
