<svg width="46" height="60" viewBox="0 0 46 60" fill="none" xmlns="http://www.w3.org/2000/svg">
<g clip-path="url(#clip0_9025_5749)">
<path fill-rule="evenodd" clip-rule="evenodd" d="M32.4968 19.0746L40.2158 19.1036C40.2108 20.1224 40.0026 21.13 39.6035 22.0676C39.2043 23.0052 38.622 23.854 37.8908 24.5645C37.5479 24.9062 37.1722 25.2133 36.7689 25.4814L32.4735 19.0978L32.4968 19.0746ZM15.1639 18.7032H17.6575C17.6885 18.7024 17.7194 18.7078 17.7483 18.7192C17.7771 18.7305 17.8035 18.7475 17.8257 18.7691C17.8479 18.7907 17.8655 18.8166 17.8776 18.8451C17.8896 18.8737 17.8958 18.9043 17.8958 18.9353V23.6592C17.8943 23.7213 17.8685 23.7803 17.824 23.8237C17.7795 23.8671 17.7197 23.8913 17.6575 23.8913H15.1639C15.1017 23.8913 15.042 23.8671 14.9975 23.8237C14.9529 23.7803 14.9272 23.7213 14.9256 23.6592V18.9353C14.9256 18.9043 14.9318 18.8737 14.9439 18.8451C14.9559 18.8166 14.9736 18.7907 14.9958 18.7691C15.018 18.7475 15.0443 18.7305 15.0732 18.7192C15.1021 18.7078 15.1329 18.7024 15.1639 18.7032ZM6.63122 16.1091H9.12478C9.15531 16.1084 9.1857 16.1136 9.2142 16.1246C9.24271 16.1355 9.26877 16.152 9.2909 16.173C9.31303 16.194 9.3308 16.2192 9.34318 16.2471C9.35557 16.2749 9.36233 16.305 9.36309 16.3355V23.665C9.36233 23.6955 9.35557 23.7255 9.34318 23.7534C9.3308 23.7813 9.31303 23.8064 9.2909 23.8274C9.26877 23.8485 9.24271 23.8649 9.2142 23.8759C9.1857 23.8868 9.15531 23.8921 9.12478 23.8913H6.63122C6.60069 23.8921 6.5703 23.8868 6.54179 23.8759C6.51329 23.8649 6.48723 23.8485 6.46509 23.8274C6.44296 23.8064 6.4252 23.7813 6.41281 23.7534C6.40043 23.7255 6.39366 23.6955 6.39291 23.665V16.3355C6.39366 16.305 6.40043 16.2749 6.41281 16.2471C6.4252 16.2192 6.44296 16.194 6.46509 16.173C6.48723 16.152 6.51329 16.1355 6.54179 16.1246C6.5703 16.1136 6.60069 16.1084 6.63122 16.1091ZM10.7116 14.2579H13.2051C13.2362 14.2571 13.267 14.2625 13.2959 14.2739C13.3248 14.2852 13.3511 14.3022 13.3733 14.3238C13.3955 14.3454 13.4132 14.3713 13.4252 14.3998C13.4373 14.4284 13.4435 14.459 13.4435 14.49V23.6592C13.4419 23.7213 13.4162 23.7803 13.3716 23.8237C13.3271 23.8671 13.2673 23.8913 13.2051 23.8913H10.7116C10.6806 23.8921 10.6497 23.8867 10.6208 23.8753C10.5919 23.864 10.5656 23.847 10.5434 23.8254C10.5212 23.8038 10.5036 23.7779 10.4915 23.7494C10.4795 23.7208 10.4733 23.6902 10.4733 23.6592V14.5074C10.4724 14.4762 10.4781 14.4452 10.4898 14.4162C10.5016 14.3873 10.5192 14.3611 10.5416 14.3393C10.564 14.3175 10.5906 14.3006 10.6199 14.2896C10.6491 14.2785 10.6804 14.2737 10.7116 14.2753V14.2579ZM6.67191 52.4086C6.52993 52.4086 6.38983 52.3763 6.26233 52.3139C6.13483 52.2516 6.02332 52.1609 5.93635 52.0488C5.84939 51.9368 5.78926 51.8064 5.7606 51.6675C5.73193 51.5287 5.73548 51.3852 5.77097 51.2479C5.82683 51.0411 5.95052 50.859 6.12228 50.7306C6.29403 50.6023 6.50393 50.5351 6.71841 50.5399H39.4427C39.5846 50.5396 39.7246 50.5719 39.852 50.6343C39.9793 50.6966 40.0906 50.7875 40.1771 50.8997C40.2637 51.0119 40.3232 51.1425 40.3511 51.2814C40.3789 51.4203 40.3744 51.5637 40.3378 51.7006C40.2797 51.9068 40.1545 52.0878 39.9818 52.2149C39.8092 52.3421 39.599 52.4082 39.3846 52.4028L6.67191 52.4086ZM6.85791 45.7406C6.73009 45.7404 6.60374 45.7135 6.48692 45.6617C6.3701 45.61 6.26539 45.5344 6.1795 45.4399C6.0936 45.3454 6.02841 45.234 5.98809 45.1129C5.94777 44.9919 5.93321 44.8637 5.94535 44.7367C5.97419 44.4987 6.09082 44.2801 6.27246 44.1234C6.45409 43.9668 6.6877 43.8833 6.92766 43.8894H39.3206C39.4487 43.8904 39.5752 43.918 39.692 43.9705C39.8088 44.0229 39.9135 44.099 39.9993 44.1939C40.0851 44.2889 40.1502 44.4006 40.1905 44.522C40.2307 44.6434 40.2453 44.7718 40.2332 44.8991C40.203 45.136 40.0858 45.3532 39.9043 45.5087C39.7228 45.6642 39.4899 45.7468 39.2509 45.7406H6.85791ZM6.5731 38.7071C6.43161 38.7062 6.29218 38.6732 6.16541 38.6105C6.03865 38.5477 5.92789 38.457 5.84157 38.345C5.75525 38.2331 5.69565 38.103 5.6673 37.9646C5.63895 37.8262 5.6426 37.6832 5.67797 37.5464C5.7351 37.3412 5.85949 37.1611 6.03125 37.0349C6.20301 36.9086 6.41222 36.8435 6.62541 36.85H20.5754C20.7169 36.8508 20.8563 36.8839 20.983 36.9466C21.1098 37.0093 21.2206 37.1001 21.3069 37.212C21.3932 37.324 21.4528 37.4541 21.4812 37.5925C21.5095 37.7309 21.5059 37.8739 21.4705 38.0107C21.4113 38.2158 21.2856 38.3955 21.1131 38.5215C20.9405 38.6476 20.731 38.7128 20.5172 38.7071H6.5731ZM24.3419 38.7071C24.2004 38.7062 24.0609 38.6732 23.9342 38.6105C23.8074 38.5477 23.6967 38.457 23.6103 38.345C23.524 38.2331 23.4644 38.103 23.4361 37.9646C23.4077 37.8262 23.4114 37.6832 23.4467 37.5464C23.5045 37.3382 23.6315 37.1559 23.8069 37.0293C23.9822 36.9028 24.1955 36.8395 24.4116 36.85H39.4659C39.6078 36.8497 39.7478 36.882 39.8752 36.9443C40.0026 37.0067 40.1138 37.0976 40.2004 37.2098C40.2869 37.322 40.3465 37.4526 40.3743 37.5915C40.4022 37.7304 40.3976 37.8738 40.3611 38.0107C40.3041 38.2179 40.1793 38.4002 40.0065 38.5285C39.8338 38.6568 39.623 38.7237 39.4078 38.7187L24.3419 38.7071ZM6.57891 32.7761C6.45087 32.7758 6.32429 32.7489 6.2072 32.6972C6.09011 32.6455 5.98506 32.57 5.89872 32.4757C5.81237 32.3813 5.74661 32.27 5.70561 32.1489C5.66461 32.0278 5.64926 31.8995 5.66054 31.7722C5.69062 31.5348 5.80761 31.3169 5.98897 31.1605C6.17032 31.004 6.40323 30.9201 6.64285 30.9249H18.0934C18.2204 30.9253 18.3459 30.9519 18.4622 31.0029C18.5784 31.0539 18.6829 31.1283 18.7691 31.2214C18.8552 31.3145 18.9213 31.4244 18.963 31.5441C19.0048 31.6638 19.0214 31.7908 19.0118 31.9172C18.9855 32.1593 18.8684 32.3825 18.684 32.5418C18.4996 32.7012 18.2616 32.7849 18.0179 32.7761H6.57891Z" fill="#595BD4"/>
<path fill-rule="evenodd" clip-rule="evenodd" d="M6.54403 9.44109C6.31083 9.42264 6.09316 9.31712 5.93441 9.14556C5.77566 8.97401 5.6875 8.74903 5.6875 8.51547C5.6875 8.2819 5.77566 8.05692 5.93441 7.88537C6.09316 7.71381 6.31083 7.60829 6.54403 7.58984H13.426C13.6592 7.60829 13.8769 7.71381 14.0356 7.88537C14.1944 8.05692 14.2825 8.2819 14.2825 8.51547C14.2825 8.74903 14.1944 8.97401 14.0356 9.14556C13.8769 9.31712 13.6592 9.42264 13.426 9.44109H6.54403ZM31.8981 9.70804L32.2875 17.3567L39.9426 16.8286C39.7301 14.8606 38.7906 13.0423 37.3073 11.7288C35.8241 10.4153 33.9038 9.70106 31.9213 9.72545L31.8981 9.70804ZM30.8053 18.8482L34.9438 26.0036C33.8885 26.6122 32.7115 26.9806 31.497 27.0825C30.2826 27.1844 29.0605 27.0172 27.9183 26.593C26.776 26.1687 25.7416 25.4978 24.8891 24.6283C24.0366 23.7587 23.3869 22.7119 22.9865 21.5626C22.5861 20.4133 22.4449 19.19 22.5728 17.9799C22.7008 16.7698 23.0949 15.6028 23.7269 14.5624C24.3589 13.522 25.2132 12.6337 26.2288 11.9611C27.2444 11.2885 28.3963 10.8481 29.6022 10.6714L30.8053 18.8482Z" fill="#167FFC"/>
<path d="M41.4721 60H4.52793C3.32805 60 2.17724 59.5245 1.32825 58.678C0.479268 57.8314 0.00154027 56.683 0 55.4851L0 4.52075C0 3.32177 0.477048 2.1719 1.3262 1.3241C2.17535 0.476292 3.32704 0 4.52793 0L41.4721 0C42.0667 0 42.6555 0.116933 43.2048 0.344121C43.7542 0.57131 44.2533 0.904306 44.6738 1.3241C45.0943 1.74389 45.4278 2.24225 45.6553 2.79073C45.8829 3.33921 46 3.92707 46 4.52075V55.4851C45.9985 56.683 45.5207 57.8314 44.6717 58.678C43.8228 59.5245 42.6719 60 41.4721 60ZM4.52793 2.22265C3.9113 2.22265 3.31993 2.46722 2.88391 2.90255C2.44789 3.33788 2.20293 3.92831 2.20293 4.54396V55.4851C2.20293 56.1007 2.44789 56.6911 2.88391 57.1265C3.31993 57.5618 3.9113 57.8064 4.52793 57.8064H41.4721C42.0887 57.8064 42.6801 57.5618 43.1161 57.1265C43.5521 56.6911 43.7971 56.1007 43.7971 55.4851V4.52075C43.7971 3.9051 43.5521 3.31466 43.1161 2.87933C42.6801 2.444 42.0887 2.19944 41.4721 2.19944L4.52793 2.22265Z" fill="#595BD4"/>
</g>
<defs>
<clipPath id="clip0_9025_5749">
<rect width="46" height="60" fill="white"/>
</clipPath>
</defs>
</svg>
