<svg width="60" height="60" viewBox="0 0 60 60" fill="none" xmlns="http://www.w3.org/2000/svg">
<path fill-rule="evenodd" clip-rule="evenodd" d="M22.6602 55.7662H37.3393V46.8789H34.4511C33.8039 49.6116 32.0554 51.57 29.9997 51.57C27.944 51.57 26.1956 49.6116 25.5484 46.8789H22.6602V55.7662Z" fill="#565673"/>
<path d="M24.8495 46.8789H22.6602V55.7662H24.8495V46.8789Z" fill="#4D4D68"/>
<path fill-rule="evenodd" clip-rule="evenodd" d="M15.3516 58.1377H44.6502V56.1762C44.6502 55.0974 43.7675 54.2148 42.6888 54.2148H17.313C16.2342 54.2148 15.3517 55.0975 15.3517 56.1762V58.1377H15.3516Z" fill="#5F6080"/>
<path fill-rule="evenodd" clip-rule="evenodd" d="M17.5391 58.1377H44.6484V56.1762C44.6484 55.0974 43.7657 54.2148 42.687 54.2148H19.5004C18.4216 54.2148 17.5391 55.0975 17.5391 56.1762V58.1377Z" fill="#77789B"/>
<path d="M56.4633 11.7891H3.53672C2.23065 11.7891 1.17188 12.8478 1.17188 14.1539V46.1971C1.17188 47.5031 2.23065 48.5619 3.53672 48.5619H56.4633C57.7693 48.5619 58.8281 47.5031 58.8281 46.1971V14.1539C58.8281 12.8478 57.7693 11.7891 56.4633 11.7891Z" fill="#5F6080"/>
<path d="M56.4639 11.7891H6.17734C4.87128 11.7891 3.8125 12.8478 3.8125 14.1539V46.1971C3.8125 47.5031 4.87128 48.5619 6.17734 48.5619H56.4639C57.77 48.5619 58.8287 47.5031 58.8287 46.1971V14.1539C58.8287 12.8478 57.77 11.7891 56.4639 11.7891Z" fill="#77789B"/>
<path d="M55.649 14.9688H4.35156V45.3829H55.649V14.9688Z" fill="#F3FBF4"/>
<path fill-rule="evenodd" clip-rule="evenodd" d="M17.9434 26.9219C17.9434 26.5335 18.2582 26.2188 18.6465 26.2188C19.0349 26.2188 19.3496 26.5335 19.3496 26.9219V36.197C19.3496 36.5854 19.0349 36.9002 18.6465 36.9002H12.6797C12.2913 36.9002 11.9766 36.5854 11.9766 36.197C11.9766 35.8087 12.2913 35.4939 12.6797 35.4939H17.9433L17.9434 26.9219ZM40.6475 26.9219C40.6475 26.5335 40.9623 26.2188 41.3507 26.2188C41.739 26.2188 42.0538 26.5335 42.0538 26.9219V35.4939H47.3174C47.7057 35.4939 48.0205 35.8087 48.0205 36.197C48.0205 36.5854 47.7057 36.9002 47.3174 36.9002H41.3507C40.9623 36.9002 40.6475 36.5854 40.6475 36.197V26.9219Z" fill="#77789B"/>
<path fill-rule="evenodd" clip-rule="evenodd" d="M12.3105 37.9376C13.2691 37.9376 14.0509 37.1559 14.0509 36.1973C14.0509 35.2387 13.2691 34.457 12.3105 34.457C11.352 34.457 10.5703 35.2388 10.5703 36.1973C10.5703 37.1557 11.3521 37.9376 12.3105 37.9376Z" fill="#595BD4"/>
<path d="M47.6895 37.9375C48.6506 37.9375 49.4297 37.1584 49.4297 36.1973C49.4297 35.2362 48.6506 34.457 47.6895 34.457C46.7283 34.457 45.9492 35.2362 45.9492 36.1973C45.9492 37.1584 46.7283 37.9375 47.6895 37.9375Z" fill="#FFA94E"/>
<path fill-rule="evenodd" clip-rule="evenodd" d="M25.5136 26.9219C25.5136 26.5335 25.8284 26.2188 26.2167 26.2188C26.6051 26.2188 26.9198 26.5335 26.9198 26.9219V40.8917C26.9198 41.28 26.6051 41.5948 26.2167 41.5948H20.25C19.8616 41.5948 19.5469 41.28 19.5469 40.8917C19.5469 40.5033 19.8616 40.1886 20.25 40.1886H25.5136V26.9219Z" fill="#77789B"/>
<path fill-rule="evenodd" clip-rule="evenodd" d="M19.7051 42.6328C20.6637 42.6328 21.4454 41.8511 21.4454 40.8926C21.4454 39.9341 20.6637 39.1523 19.7051 39.1523C18.7465 39.1523 17.9648 39.9341 17.9648 40.8926C17.9648 41.8511 18.7466 42.6328 19.7051 42.6328Z" fill="#FBAD5B"/>
<path fill-rule="evenodd" clip-rule="evenodd" d="M33.082 26.9219C33.082 26.5335 33.3968 26.2188 33.7852 26.2188C34.1735 26.2188 34.4883 26.5335 34.4883 26.9219V40.1886H39.7519C40.1402 40.1886 40.455 40.5033 40.455 40.8917C40.455 41.28 40.1402 41.5948 39.7519 41.5948H33.7852C33.3968 41.5948 33.082 41.28 33.082 40.8917V26.9219Z" fill="#77789B"/>
<path d="M41.6655 41.9633C42.2573 41.206 42.1231 40.1123 41.3659 39.5205C40.6086 38.9287 39.5149 39.0629 38.9231 39.8202C38.3313 40.5775 38.4655 41.6711 39.2228 42.2629C39.9801 42.8547 41.0737 42.7206 41.6655 41.9633Z" fill="#82E092"/>
<path d="M6.54086 14.9688H4.35156V45.3829H6.54086V14.9688Z" fill="#DBECDE"/>
<path fill-rule="evenodd" clip-rule="evenodd" d="M29.9977 1.85938L33.7818 4.0441L37.5657 6.22883L34.8633 9.60055L29.9977 10.5983L25.0001 10.0755L22.4297 6.22883L26.2137 4.0441L29.9977 1.85938Z" fill="#82E092"/>
<path fill-rule="evenodd" clip-rule="evenodd" d="M37.5673 14.9693V10.5999V6.23047L33.7833 8.4152L29.9992 10.5999L27.5195 14.6527L29.9992 19.3387L34.3636 18.2093L37.5673 14.9693Z" fill="#53D86A"/>
<path fill-rule="evenodd" clip-rule="evenodd" d="M22.4297 14.9693V10.5999V6.23047L26.2137 8.4152L29.9977 10.5999V14.9693V19.3387L26.0555 17.6816L22.4297 14.9693Z" fill="#6FD180"/>
<path fill-rule="evenodd" clip-rule="evenodd" d="M37.568 14.9688L41.352 17.1535L45.1359 19.3382L42.0379 22.5252L37.568 23.7075L33.3618 22.6308L30 19.3382L33.7839 17.1535L37.568 14.9688Z" fill="#FDB76E"/>
<path fill-rule="evenodd" clip-rule="evenodd" d="M45.1347 28.0746V23.7053V19.3359L41.3507 21.5205L37.5668 23.7053L34.7656 24.4062L37.5668 32.4441L41.3507 30.2593L45.1347 28.0746Z" fill="#E89F51"/>
<path fill-rule="evenodd" clip-rule="evenodd" d="M30 28.0747V23.7053V19.3359L33.784 21.5205L37.5681 23.7053V28.0747V32.4441L33.7841 30.2593L30 28.0747Z" fill="#FBAD5B"/>
<path fill-rule="evenodd" clip-rule="evenodd" d="M22.4313 14.9688L18.6473 17.1535L14.8633 19.3382L17.9877 22.5516L22.4313 23.7075L26.9013 22.2614L29.9992 19.3382L26.2154 17.1535L22.4313 14.9688Z" fill="#FFA94E"/>
<path fill-rule="evenodd" clip-rule="evenodd" d="M14.8633 28.0746V23.7053V19.3359L18.6473 21.5205L22.4313 23.7053L23.4865 28.022L22.4313 32.4441L18.6473 30.2593L14.8633 28.0746Z" fill="#FA8E1B"/>
<path fill-rule="evenodd" clip-rule="evenodd" d="M29.9978 28.0747V23.7053V19.3359L26.2138 21.5205L22.4297 23.7053V28.0747V32.4441L26.2137 30.2593L29.9978 28.0747Z" fill="#FE9526"/>
<path fill-rule="evenodd" clip-rule="evenodd" d="M58.1248 46.1964C58.1248 47.1128 57.3793 47.8583 56.4629 47.8583H3.53695C2.62055 47.8583 1.87512 47.1128 1.87512 46.1964V14.1534C1.87512 13.237 2.62055 12.4915 3.53695 12.4915H21.7286V14.2649H4.35117C3.96293 14.2649 3.64805 14.5799 3.64805 14.9675V45.3821C3.64805 45.7704 3.96293 46.0853 4.35117 46.0853H55.6487C56.0374 46.0853 56.3518 45.7704 56.3518 45.3821V14.9676C56.3518 14.5799 56.0374 14.265 55.6487 14.265H38.2712V12.4916H56.4628C57.3792 12.4916 58.1246 13.2371 58.1246 14.1535V46.1965L58.1248 46.1964ZM27.3493 49.2646H32.651C31.9195 50.2832 30.9757 50.8682 30 50.8682C29.0243 50.8682 28.0809 50.2833 27.3493 49.2646ZM30 52.2744C28.2973 52.2744 26.7134 51.1577 25.6952 49.2646H23.3637V53.513H36.6362V49.2646H34.3052C33.2871 51.1577 31.7032 52.2744 30 52.2744ZM42.6875 54.9193C43.3814 54.9193 43.9463 55.4836 43.9463 56.1774V57.4356H16.0542V56.1774C16.0542 55.4836 16.6185 54.9193 17.3123 54.9193H42.6875ZM22.4317 15.7798L16.2698 19.3374L22.4317 22.8946L28.5935 19.3374L22.4317 15.7798ZM23.1348 7.44702V14.5618L29.2966 18.1195V11.0047L23.1348 7.44702ZM29.9998 2.6714L36.1616 6.22909L29.9998 9.78679L23.8379 6.22909L29.9998 2.6714ZM36.8647 14.5618V7.44702L30.7029 11.0047V18.1195L36.8647 14.5618ZM46.6508 36.196C46.6508 36.768 47.1161 37.2333 47.688 37.2333C48.26 37.2333 48.7253 36.7682 48.7253 36.196C48.7253 35.6239 48.2596 35.1588 47.688 35.1588C47.1165 35.1588 46.6508 35.6245 46.6508 36.196ZM38.2711 31.2279L44.4323 27.6702V20.5554L38.2711 24.1125V31.2279ZM39.2588 40.8906C39.2588 41.4627 39.7239 41.9278 40.296 41.9278C40.8681 41.9278 41.3326 41.4627 41.3326 40.8906C41.3326 40.3185 40.8674 39.8539 40.296 39.8539C39.7246 39.8539 39.2588 40.3192 39.2588 40.8906ZM30.7029 27.6702L36.8647 31.2279V24.1125L30.7029 20.5554V27.6702ZM20.7412 40.8906C20.7412 40.319 20.2755 39.8539 19.704 39.8539C19.1325 39.8539 18.6668 40.3192 18.6668 40.8906C18.6668 41.462 19.132 41.9278 19.704 41.9278C20.276 41.9278 20.7412 41.4627 20.7412 40.8906ZM23.1347 31.2279L29.2965 27.6702V20.5554L23.1347 24.1125V31.2279ZM13.3492 36.196C13.3492 35.6245 12.8835 35.1588 12.312 35.1588C11.7404 35.1588 11.2747 35.6245 11.2747 36.196C11.2747 36.7676 11.7398 37.2333 12.312 37.2333C12.8841 37.2333 13.3492 36.7682 13.3492 36.196ZM15.5672 20.5553V27.6701L21.7284 31.2278V24.1124L15.5672 20.5553ZM14.5124 18.7282L19.8079 15.6714H5.0543V44.679H54.9455V15.6714H40.1927L45.4871 18.7282C45.4893 18.7292 45.4908 18.7308 45.4928 18.7318C45.5175 18.7468 45.5408 18.7623 45.5645 18.7793C45.5655 18.7808 45.5666 18.7823 45.5692 18.7834C45.5889 18.7994 45.6089 18.817 45.6265 18.8351C45.6321 18.8398 45.6368 18.8454 45.642 18.8501C45.657 18.8655 45.6709 18.8821 45.6853 18.8992C45.69 18.9048 45.6946 18.9099 45.6982 18.9162C45.7143 18.9383 45.7308 18.961 45.7447 18.9859C45.7591 19.0107 45.7705 19.0355 45.7825 19.0612C45.785 19.0674 45.7872 19.0741 45.7896 19.0808C45.7979 19.1014 45.8046 19.1221 45.8102 19.1428C45.8128 19.1495 45.8154 19.1562 45.8164 19.163C45.8231 19.1883 45.8283 19.2141 45.8314 19.2404C45.833 19.2419 45.833 19.2435 45.833 19.2451C45.836 19.2741 45.8386 19.303 45.8386 19.3314V28.0761C45.8386 28.3276 45.7049 28.5594 45.487 28.6854L42.0548 30.6669V35.493H45.3488C45.6513 34.4878 46.5852 33.7532 47.6879 33.7532C49.0355 33.7532 50.1309 34.8492 50.1309 36.1962C50.1309 37.5431 49.0354 38.6398 47.6879 38.6398C46.5852 38.6398 45.6512 37.9051 45.3488 36.8994H41.3517C40.9635 36.8994 40.6486 36.5844 40.6486 36.1963V31.479L37.9195 33.0547C37.9174 33.0558 37.9154 33.0562 37.9139 33.0573C37.8892 33.0717 37.8633 33.0846 37.8369 33.0955C37.8349 33.096 37.8333 33.0965 37.8313 33.0975C37.8075 33.1067 37.7828 33.1151 37.7575 33.1223C37.7508 33.1244 37.7435 33.126 37.7368 33.1275C37.7156 33.1326 37.6945 33.1367 37.6733 33.1404C37.6662 33.1414 37.6589 33.143 37.6516 33.1434C37.6242 33.1465 37.5964 33.149 37.568 33.149C37.5395 33.149 37.5117 33.1465 37.4843 33.1434C37.477 33.1424 37.4699 33.1413 37.4626 33.1404C37.4414 33.1367 37.4203 33.1326 37.3991 33.1275C37.3924 33.126 37.3857 33.1244 37.3785 33.1223C37.3532 33.1151 37.3284 33.1073 37.3047 33.0975C37.3025 33.097 37.301 33.096 37.299 33.0955C37.2727 33.0846 37.2469 33.0717 37.222 33.0573C37.2205 33.0562 37.2184 33.0558 37.2164 33.0547L34.4869 31.479V40.1789C34.4884 40.1819 34.4899 40.1851 34.4914 40.1882H37.9567C38.2593 39.1824 39.1927 38.4478 40.296 38.4478C41.6434 38.4478 42.739 39.5439 42.739 40.8908C42.739 42.2378 41.6434 43.3344 40.296 43.3344C39.1927 43.3344 38.2593 42.5998 37.9567 41.5945H33.7841C33.3954 41.5945 33.081 41.2791 33.081 40.8908V30.6669L29.9999 28.8883L26.9193 30.6669V40.8908C26.9193 41.2791 26.6043 41.5945 26.2161 41.5945H22.0436C21.7405 42.5998 20.8071 43.3344 19.7043 43.3344C18.3573 43.3344 17.2607 42.2383 17.2607 40.8908C17.2607 39.5433 18.3572 38.4478 19.7043 38.4478C20.807 38.4478 21.7405 39.1824 22.0436 40.1882H25.5088C25.5103 40.1851 25.5114 40.1819 25.5129 40.1789V31.479L22.7832 33.0547C22.7817 33.0558 22.7796 33.0562 22.7776 33.0573C22.7528 33.0717 22.727 33.0846 22.7007 33.0955C22.6992 33.096 22.6971 33.097 22.6956 33.0975C22.6713 33.1073 22.6466 33.1151 22.6213 33.1223C22.6146 33.1244 22.6079 33.126 22.6007 33.1275C22.58 33.1326 22.5588 33.1367 22.5371 33.1404C22.5299 33.1414 22.5227 33.1425 22.5155 33.1434C22.488 33.1465 22.4603 33.149 22.4318 33.149C22.4033 33.149 22.376 33.1465 22.3487 33.1434C22.341 33.1424 22.3343 33.1413 22.327 33.1404C22.3054 33.1367 22.2841 33.1326 22.2635 33.1275C22.2563 33.126 22.2496 33.1244 22.2429 33.1223C22.2171 33.1151 22.1923 33.1073 22.1686 33.0975C22.1671 33.097 22.165 33.096 22.1634 33.0955C22.1366 33.0846 22.1113 33.0717 22.0866 33.0573C22.0845 33.0562 22.0825 33.0558 22.0804 33.0547L19.3513 31.479V36.1963C19.3513 36.5845 19.0364 36.8994 18.6482 36.8994H14.6511C14.3486 37.9051 13.4147 38.6398 12.3124 38.6398C10.9649 38.6398 9.86883 37.5437 9.86883 36.1962C9.86883 34.8486 10.9649 33.7532 12.3124 33.7532C13.4147 33.7532 14.3486 34.4878 14.6511 35.493H17.9449V30.6669L14.5127 28.6854C14.2949 28.5594 14.1612 28.3276 14.1612 28.0761V19.3376C14.1612 19.3355 14.1618 19.3335 14.1618 19.3314C14.1618 19.303 14.1633 19.274 14.1669 19.2457C14.1675 19.2436 14.168 19.2421 14.168 19.2401C14.1716 19.2142 14.1772 19.1884 14.1834 19.1631C14.1855 19.1564 14.1875 19.1496 14.1891 19.1429C14.1953 19.1223 14.202 19.1016 14.2103 19.0809C14.2129 19.0742 14.2154 19.0676 14.218 19.0614C14.2288 19.0356 14.2407 19.0107 14.2552 18.986C14.2696 18.9613 14.285 18.9385 14.3016 18.9163C14.3063 18.9101 14.3108 18.9043 14.3155 18.8993C14.3289 18.8823 14.3429 18.8662 14.3578 18.8508C14.363 18.8456 14.3681 18.8399 14.3733 18.8347C14.3913 18.8171 14.4104 18.8001 14.4306 18.7841C14.4327 18.7826 14.4342 18.781 14.4362 18.7794C14.4589 18.7624 14.4826 18.7464 14.507 18.7319C14.5091 18.7309 14.5106 18.7294 14.5126 18.7283L14.5124 18.7282ZM43.7291 19.3374L37.5679 15.7798L31.406 19.3374L37.5679 22.8946L43.7291 19.3374ZM56.4627 11.0857H38.2711V6.22909C38.2711 6.22698 38.2705 6.22499 38.2705 6.22288C38.2705 6.19452 38.2684 6.16558 38.2649 6.13663C38.2649 6.13511 38.2643 6.13358 38.2638 6.13194C38.2602 6.10616 38.255 6.08026 38.2484 6.05448C38.2468 6.0478 38.2447 6.04112 38.2427 6.03433C38.2371 6.0137 38.2298 5.99296 38.2215 5.97233C38.2189 5.96612 38.2168 5.95944 38.2138 5.95265C38.2029 5.92733 38.1911 5.90202 38.1766 5.87729C38.1627 5.85245 38.1472 5.82983 38.1307 5.80757L38.1168 5.79046C38.1034 5.77347 38.0893 5.75741 38.0745 5.74194C38.0693 5.73679 38.0641 5.73163 38.059 5.72647C38.0409 5.70843 38.0214 5.69132 38.0017 5.67538C37.9997 5.67433 37.9976 5.6728 37.9961 5.67128C37.9733 5.6537 37.9495 5.63823 37.9253 5.62382C37.9232 5.62276 37.9216 5.62124 37.9197 5.62019L30.3516 1.25038C30.1342 1.12487 29.8663 1.12487 29.6489 1.25038L22.0802 5.62019C22.0782 5.62124 22.0766 5.62276 22.0746 5.62382C22.0504 5.63823 22.0271 5.6537 22.0044 5.67081C22.0024 5.6728 21.9998 5.67444 21.9977 5.67644C21.9782 5.6919 21.9595 5.70843 21.9415 5.72601C21.9359 5.73163 21.9307 5.7369 21.925 5.74253C21.911 5.75753 21.8971 5.773 21.8842 5.78999C21.879 5.79573 21.8739 5.80194 21.8698 5.80804C21.8537 5.82925 21.8382 5.8514 21.8249 5.8746C21.8238 5.87659 21.8228 5.87823 21.8218 5.87976C21.8085 5.90354 21.7971 5.92722 21.7862 5.95206C21.7832 5.95921 21.7806 5.96647 21.778 5.97374C21.7703 5.99343 21.7635 6.013 21.7579 6.03315C21.7557 6.04042 21.7533 6.04815 21.7516 6.0553C21.7454 6.07956 21.7403 6.10429 21.7366 6.12913C21.7362 6.13171 21.7356 6.13429 21.7351 6.13733C21.7315 6.16522 21.73 6.19358 21.7295 6.22206C21.7295 6.22417 21.7289 6.22675 21.7289 6.22874V11.0853H3.53695C1.84512 11.0853 0.46875 12.4612 0.46875 14.1531V46.196C0.46875 47.8878 1.84512 49.2642 3.53695 49.2642H21.9573V53.5126H17.3123C15.843 53.5126 14.6479 54.7078 14.6479 56.1771V58.1385C14.6479 58.5267 14.9629 58.8416 15.3505 58.8416H44.6494C45.0372 58.8416 45.3525 58.5267 45.3525 58.1385V56.1771C45.3525 54.7078 44.1573 53.5126 42.6874 53.5126H38.0425V49.2642H56.4628C58.1551 49.2642 59.531 47.8878 59.531 46.196V14.1534C59.531 12.4616 58.155 11.0857 56.4627 11.0857Z" fill="#222224"/>
</svg>
