<svg width="60" height="60" viewBox="0 0 60 60" fill="none" xmlns="http://www.w3.org/2000/svg">
<path d="M53.7513 19.9995L48.9638 16.3995C48.4138 15.9845 47.63 16.0957 47.215 16.647C46.8 17.1982 46.9113 17.982 47.4625 18.397L52.2487 21.9957C52.74 22.3645 53.1175 22.8357 53.3738 23.3657L32.6875 37.8482L32.15 37.472C30.8625 36.572 29.1375 36.572 27.85 37.472L27.3125 37.8482L6.62625 23.3682C6.8825 22.8382 7.26 22.3682 7.74875 21.9995L12.3863 18.5245C12.9388 18.1107 13.0513 17.327 12.6363 16.7745C12.2225 16.2232 11.4412 16.1082 10.8875 16.5232L6.2475 19.9995C4.66 21.1945 3.75 23.017 3.75 24.9982V52.4982C3.75 54.5657 5.4325 56.2482 7.5 56.2482H52.5C54.5675 56.2482 56.25 54.5657 56.25 52.4982V24.9982C56.25 23.017 55.3387 21.1944 53.7513 19.9982V19.9995ZM53.75 26.1495V52.4995C53.75 52.5307 53.7337 52.5569 53.7325 52.5882L34.86 39.372L53.75 26.1495ZM30.725 39.5245L51.05 53.7495H8.95L29.275 39.5245C29.7125 39.2245 30.2875 39.2245 30.725 39.5245ZM6.2675 52.5882C6.265 52.5569 6.25 52.5307 6.25 52.4995V26.1495L25.1413 39.372L6.2675 52.5882Z" fill="#595BD4"/>
<path d="M33.7987 3.82384C32.9187 3.60509 31.9874 3.88009 31.3699 4.54634C30.0562 5.95884 27.3112 8.47259 23.6962 9.44134L18.8662 10.7351C16.2037 11.4488 14.6174 14.1963 15.3312 16.8588L16.3012 20.4813C17.0149 23.1438 19.7624 24.7301 22.4249 24.0163L24.2049 30.6588C24.7399 32.6563 26.7999 33.8451 28.7974 33.3101C30.7949 32.7751 31.9837 30.7151 31.4487 28.7176L29.7337 22.3188C32.4487 22.1201 34.9287 22.6888 36.3462 23.1238C36.8024 23.2651 37.2799 23.2676 37.7249 23.1488C38.1262 23.0413 38.5012 22.8338 38.8099 22.5351C39.4637 21.9038 39.7237 20.9676 39.4887 20.0888L35.6074 5.60259C35.3724 4.72384 34.6787 4.04259 33.7962 3.82259L33.7987 3.82384ZM18.7174 19.8338L17.7474 16.2113C17.3912 14.8801 18.1837 13.5063 19.5149 13.1501L24.3449 11.8563L26.6099 20.3076L21.7799 21.6013C20.4487 21.9576 19.0749 21.1651 18.7187 19.8338H18.7174ZM29.0349 29.3651C29.2137 30.0301 28.8162 30.7176 28.1512 30.8963C27.4862 31.0751 26.7987 30.6776 26.6199 30.0126L24.8399 23.3701L27.2549 22.7226L29.0349 29.3651ZM29.0799 19.8701L26.7037 11.0001C29.5449 9.72884 31.7512 7.80634 33.1962 6.25009L37.0837 20.7351C35.0512 20.1113 32.1787 19.5488 29.0812 19.8688L29.0799 19.8701ZM43.2637 10.0226L42.0562 10.3463C41.3899 10.5251 40.9937 11.2101 41.1724 11.8776C41.3512 12.5451 42.0362 12.9401 42.7037 12.7613L43.9112 12.4376C44.5774 12.2588 44.9737 11.5738 44.7949 10.9063C44.6162 10.2388 43.9312 9.84384 43.2637 10.0226ZM40.7387 8.35384L41.5087 7.36884C41.9337 6.82509 41.8374 6.03884 41.2937 5.61384C40.7499 5.18884 39.9637 5.28509 39.5387 5.82884L38.7687 6.81384C38.3437 7.35759 38.4399 8.14384 38.9837 8.56884C39.5274 8.99384 40.3137 8.89759 40.7387 8.35384ZM42.5574 15.1451C41.9174 14.8863 41.1887 15.1963 40.9299 15.8363C40.6712 16.4763 40.9812 17.2051 41.6212 17.4638L42.7799 17.9326C43.4199 18.1913 44.1487 17.8813 44.4074 17.2413C44.6662 16.6013 44.3562 15.8726 43.7162 15.6138L42.5574 15.1451Z" fill="#595BD4"/>
</svg>
