<svg width="60" height="60" viewBox="0 0 60 60" fill="none" xmlns="http://www.w3.org/2000/svg">
<path d="M18.75 15.1867C19.963 14.2156 20.8444 12.8916 21.2724 11.3978C21.7004 9.90409 21.6539 8.31427 21.1392 6.8481C20.6246 5.38193 19.6673 4.11179 18.3996 3.21323C17.1319 2.31466 15.6164 1.83203 14.0625 1.83203C12.5086 1.83203 10.9931 2.31466 9.72542 3.21323C8.45772 4.11179 7.5004 5.38193 6.98577 6.8481C6.47115 8.31427 6.42462 9.90409 6.85262 11.3978C7.28062 12.8916 8.16201 14.2156 9.375 15.1867C7.25744 15.619 5.35426 16.7696 3.98755 18.4438C2.62084 20.118 1.87456 22.213 1.875 24.3742V28.1242C1.875 28.6215 2.07254 29.0984 2.42417 29.45C2.77581 29.8017 3.25272 29.9992 3.75 29.9992H24.375C24.8723 29.9992 25.3492 29.8017 25.7008 29.45C26.0525 29.0984 26.25 28.6215 26.25 28.1242V24.3742C26.2504 22.213 25.5042 20.118 24.1374 18.4438C22.7707 16.7696 20.8676 15.619 18.75 15.1867ZM14.0625 5.62422C14.8042 5.62422 15.5292 5.84415 16.1459 6.25621C16.7626 6.66826 17.2432 7.25393 17.527 7.93915C17.8109 8.62438 17.8851 9.37838 17.7404 10.1058C17.5958 10.8332 17.2386 11.5014 16.7141 12.0259C16.1897 12.5503 15.5215 12.9075 14.7941 13.0522C14.0667 13.1969 13.3127 13.1226 12.6274 12.8388C11.9422 12.5549 11.3565 12.0743 10.9445 11.4576C10.5324 10.8409 10.3125 10.1159 10.3125 9.37422C10.3125 8.37966 10.7076 7.42583 11.4108 6.72257C12.1141 6.01931 13.0679 5.62422 14.0625 5.62422ZM22.5 26.2492H5.625V24.3742C5.625 22.8824 6.21763 21.4516 7.27252 20.3967C8.32742 19.3418 9.75816 18.7492 11.25 18.7492H16.875C18.3668 18.7492 19.7976 19.3418 20.8525 20.3967C21.9074 21.4516 22.5 22.8824 22.5 24.3742V26.2492ZM50.625 43.3117C51.838 42.3406 52.7194 41.0166 53.1474 39.5228C53.5754 38.0291 53.5289 36.4393 53.0142 34.9731C52.4996 33.5069 51.5423 32.2368 50.2746 31.3382C49.0069 30.4397 47.4914 29.957 45.9375 29.957C44.3836 29.957 42.8681 30.4397 41.6004 31.3382C40.3327 32.2368 39.3754 33.5069 38.8608 34.9731C38.3461 36.4393 38.2996 38.0291 38.7276 39.5228C39.1556 41.0166 40.037 42.3406 41.25 43.3117C39.1324 43.744 37.2293 44.8946 35.8625 46.5688C34.4958 48.243 33.7496 50.338 33.75 52.4992V56.2492C33.75 56.7465 33.9475 57.2234 34.2992 57.575C34.6508 57.9267 35.1277 58.1242 35.625 58.1242H56.25C56.7473 58.1242 57.2242 57.9267 57.5758 57.575C57.9275 57.2234 58.125 56.7465 58.125 56.2492V52.4992C58.1254 50.338 57.3792 48.243 56.0125 46.5688C54.6457 44.8946 52.7426 43.744 50.625 43.3117ZM45.9375 33.7492C46.6792 33.7492 47.4042 33.9692 48.0209 34.3812C48.6376 34.7933 49.1182 35.3789 49.4021 36.0642C49.6859 36.7494 49.7601 37.5034 49.6154 38.2308C49.4707 38.9582 49.1136 39.6264 48.5891 40.1509C48.0647 40.6753 47.3965 41.0325 46.6691 41.1772C45.9417 41.3219 45.1877 41.2476 44.5024 40.9638C43.8172 40.6799 43.2315 40.1993 42.8195 39.5826C42.4074 38.9659 42.1875 38.2409 42.1875 37.4992C42.1875 36.5047 42.5826 35.5508 43.2859 34.8476C43.9891 34.1443 44.9429 33.7492 45.9375 33.7492ZM54.375 54.3742H37.5V52.4992C37.5 51.0074 38.0926 49.5766 39.1475 48.5217C40.2024 47.4669 41.6332 46.8742 43.125 46.8742H48.75C50.2418 46.8742 51.6726 47.4669 52.7275 48.5217C53.7824 49.5766 54.375 51.0074 54.375 52.4992V54.3742Z" fill="#595BD4"/>
<path d="M28.125 50.625H18.75C16.2636 50.625 13.879 49.6373 12.1209 47.8791C10.3627 46.121 9.375 43.7364 9.375 41.25V35.625C9.375 35.1277 9.57254 34.6508 9.92418 34.2992C10.2758 33.9475 10.7527 33.75 11.25 33.75C11.7473 33.75 12.2242 33.9475 12.5758 34.2992C12.9275 34.6508 13.125 35.1277 13.125 35.625V41.25C13.125 42.7418 13.7176 44.1726 14.7725 45.2275C15.8274 46.2824 17.2582 46.875 18.75 46.875H28.125C28.6223 46.875 29.0992 47.0725 29.4508 47.4242C29.8025 47.7758 30 48.2527 30 48.75C30 49.2473 29.8025 49.7242 29.4508 50.0758C29.0992 50.4275 28.6223 50.625 28.125 50.625ZM46.875 24.375C46.3777 24.375 45.9008 24.1775 45.5492 23.8258C45.1975 23.4742 45 22.9973 45 22.5V18.75C45 17.2582 44.4074 15.8274 43.3525 14.7725C42.2976 13.7176 40.8668 13.125 39.375 13.125H30C29.5027 13.125 29.0258 12.9275 28.6742 12.5758C28.3225 12.2242 28.125 11.7473 28.125 11.25C28.125 10.7527 28.3225 10.2758 28.6742 9.92418C29.0258 9.57254 29.5027 9.375 30 9.375H39.375C41.8614 9.375 44.246 10.3627 46.0041 12.1209C47.7623 13.879 48.75 16.2636 48.75 18.75V22.5C48.75 22.9973 48.5525 23.4742 48.2008 23.8258C47.8492 24.1775 47.3723 24.375 46.875 24.375Z" fill="#FE9526"/>
</svg>
