<svg width="105" height="105" viewBox="0 0 105 105" fill="none" xmlns="http://www.w3.org/2000/svg">
<g clip-path="url(#clip0_9287_14688)">
<g filter="url(#filter0_d_9287_14688)">
<path d="M22.168 37.3346V33.0013C22.168 24.9564 25.3638 17.241 31.0524 11.5524C36.741 5.86379 44.4564 2.66797 52.5013 2.66797C60.5462 2.66797 68.2616 5.86379 73.9502 11.5524C79.6388 17.241 82.8346 24.9564 82.8346 33.0013C82.8339 38.5499 80.63 43.8711 76.7073 47.7953L66.2466 58.256C64.6365 59.8657 63.3592 61.7768 62.4878 63.8802C61.6164 65.9837 61.1679 68.2382 61.168 70.515V72.0013H43.8346V66.9226C43.8346 59.0793 46.9546 51.5523 52.5013 46.0013L58.1043 40.3983C59.0784 39.4289 59.8506 38.2761 60.3765 37.0064C60.9023 35.7368 61.1713 34.3755 61.168 33.0013C61.168 30.7028 60.2549 28.4984 58.6296 26.873C57.0042 25.2477 54.7998 24.3346 52.5013 24.3346C50.2028 24.3346 47.9984 25.2477 46.373 26.873C44.7477 28.4984 43.8346 30.7028 43.8346 33.0013V37.3346H22.168ZM52.5013 85.0013C54.7998 85.0013 57.0042 85.9144 58.6296 87.5397C60.2549 89.165 61.168 91.3694 61.168 93.668C61.168 95.9665 60.2549 98.1709 58.6296 99.7962C57.0042 101.422 54.7998 102.335 52.5013 102.335C50.2028 102.335 47.9984 101.422 46.373 99.7962C44.7477 98.1709 43.8346 95.9665 43.8346 93.668C43.8346 91.3694 44.7477 89.165 46.373 87.5397C47.9984 85.9144 50.2028 85.0013 52.5013 85.0013Z" stroke="black" stroke-width="3.125" shape-rendering="crispEdges"/>
</g>
</g>
<defs>
<filter id="filter0_d_9287_14688" x="16.6055" y="1.10547" width="71.793" height="115.793" filterUnits="userSpaceOnUse" color-interpolation-filters="sRGB">
<feFlood flood-opacity="0" result="BackgroundImageFix"/>
<feColorMatrix in="SourceAlpha" type="matrix" values="0 0 0 0 0 0 0 0 0 0 0 0 0 0 0 0 0 0 127 0" result="hardAlpha"/>
<feOffset dy="9"/>
<feGaussianBlur stdDeviation="2"/>
<feComposite in2="hardAlpha" operator="out"/>
<feColorMatrix type="matrix" values="0 0 0 0 0 0 0 0 0 0 0 0 0 0 0 0 0 0 0.25 0"/>
<feBlend mode="normal" in2="BackgroundImageFix" result="effect1_dropShadow_9287_14688"/>
<feBlend mode="normal" in="SourceGraphic" in2="effect1_dropShadow_9287_14688" result="shape"/>
</filter>
<clipPath id="clip0_9287_14688">
<rect width="104" height="104" fill="white" transform="translate(0.5 0.5)"/>
</clipPath>
</defs>
</svg>
