<svg width="60" height="60" viewBox="0 0 60 60" fill="none" xmlns="http://www.w3.org/2000/svg">
<path d="M20.1172 29.793C18.837 29.793 17.5856 29.4131 16.5214 28.7015C15.4572 27.9898 14.6281 26.9785 14.139 25.7954C13.65 24.6123 13.523 23.3106 13.7741 22.0553C14.0252 20.8 14.6432 19.6474 15.5497 18.7435C16.4563 17.8396 17.6107 17.225 18.8667 16.9775C20.1228 16.73 21.424 16.8608 22.6057 17.3533C23.7873 17.8458 24.7963 18.6778 25.5049 19.744C26.2134 20.8103 26.5896 22.0628 26.5859 23.343C26.5859 24.1916 26.4185 25.0318 26.0931 25.8156C25.7678 26.5994 25.2911 27.3113 24.6901 27.9105C24.0892 28.5096 23.3759 28.9843 22.5912 29.3074C21.8065 29.6304 20.9658 29.7954 20.1172 29.793ZM20.1172 20.6242C19.5794 20.6242 19.0538 20.7837 18.6067 21.0824C18.1596 21.3812 17.8111 21.8058 17.6054 22.3026C17.3996 22.7993 17.3457 23.346 17.4507 23.8734C17.5556 24.4008 17.8145 24.8852 18.1947 25.2654C18.5749 25.6456 19.0594 25.9046 19.5868 26.0095C20.1141 26.1144 20.6608 26.0605 21.1576 25.8548C21.6544 25.649 22.079 25.3005 22.3777 24.8534C22.6765 24.4063 22.8359 23.8807 22.8359 23.343C22.8359 22.6219 22.5495 21.9304 22.0396 21.4205C21.5297 20.9107 20.8382 20.6242 20.1172 20.6242Z" fill="#FE9526"/>
<path d="M31.3682 43.7445H8.86819C8.60971 43.7413 8.35469 43.6846 8.11914 43.5782C7.88359 43.4717 7.67261 43.3177 7.49944 43.1257C7.32269 42.9117 7.19568 42.661 7.12759 42.3919C7.0595 42.1228 7.05202 41.8419 7.10569 41.5695C7.67558 38.5048 9.29998 35.7361 11.6972 33.7436C14.0945 31.751 17.1134 30.6602 20.2307 30.6602C23.3479 30.6602 26.3669 31.751 28.7641 33.7436C31.1614 35.7361 32.7858 38.5048 33.3557 41.5695C33.4094 41.8419 33.4019 42.1228 33.3338 42.3919C33.2657 42.661 33.1387 42.9117 32.9619 43.1257C32.7644 43.3478 32.5168 43.5197 32.2397 43.6273C31.9626 43.7349 31.6639 43.7751 31.3682 43.7445ZM11.4932 39.9945H28.7619C27.9746 38.3744 26.7474 37.0086 25.2205 36.053C23.6937 35.0974 21.9288 34.5906 20.1276 34.5906C18.3263 34.5906 16.5614 35.0974 15.0346 36.053C13.5077 37.0086 12.2805 38.3744 11.4932 39.9945Z" fill="#FE9526"/>
<path d="M51.825 48.8438H9.6375C7.70308 48.8438 5.84788 48.0753 4.48004 46.7075C3.1122 45.3396 2.34375 43.4844 2.34375 41.55V18.45C2.36841 16.5319 3.14772 14.7007 4.5129 13.353C5.87808 12.0054 7.71921 11.2498 9.6375 11.25H51.825C53.7612 11.25 55.6183 12.0178 56.9891 13.3851C58.3599 14.7525 59.1325 16.6076 59.1375 18.5438V41.55C59.1325 43.4861 58.3599 45.3413 56.9891 46.7086C55.6183 48.0759 53.7612 48.8438 51.825 48.8438ZM9.6375 15C8.71366 14.9997 7.82621 15.3601 7.16426 16.0046C6.50231 16.649 6.11819 17.5265 6.09375 18.45V41.55C6.09375 42.4899 6.46711 43.3912 7.13169 44.0558C7.79627 44.7204 8.69764 45.0938 9.6375 45.0938H51.825C52.7666 45.0938 53.6699 44.721 54.3375 44.057C55.005 43.3929 55.3825 42.4916 55.3875 41.55V18.45C55.3583 17.5248 54.9701 16.6473 54.3051 16.0033C53.6402 15.3594 52.7507 14.9995 51.825 15H9.6375Z" fill="#595BD4"/>
<path d="M45.1117 22.125H37.3867C36.8894 22.125 36.4125 21.9275 36.0609 21.5758C35.7093 21.2242 35.5117 20.7473 35.5117 20.25C35.5117 19.7527 35.7093 19.2758 36.0609 18.9242C36.4125 18.5725 36.8894 18.375 37.3867 18.375H45.1117C45.609 18.375 46.0859 18.5725 46.4375 18.9242C46.7892 19.2758 46.9867 19.7527 46.9867 20.25C46.9867 20.7473 46.7892 21.2242 46.4375 21.5758C46.0859 21.9275 45.609 22.125 45.1117 22.125ZM48.8617 29.625H37.3867C36.8894 29.625 36.4125 29.4275 36.0609 29.0758C35.7093 28.7242 35.5117 28.2473 35.5117 27.75C35.5117 27.2527 35.7093 26.7758 36.0609 26.4242C36.4125 26.0725 36.8894 25.875 37.3867 25.875H48.8617C49.359 25.875 49.8359 26.0725 50.1875 26.4242C50.5392 26.7758 50.7367 27.2527 50.7367 27.75C50.7367 28.2473 50.5392 28.7242 50.1875 29.0758C49.8359 29.4275 49.359 29.625 48.8617 29.625ZM45.1117 37.125H37.3867C36.8894 37.125 36.4125 36.9275 36.0609 36.5758C35.7093 36.2242 35.5117 35.7473 35.5117 35.25C35.5117 34.7527 35.7093 34.2758 36.0609 33.9242C36.4125 33.5725 36.8894 33.375 37.3867 33.375H45.1117C45.609 33.375 46.0859 33.5725 46.4375 33.9242C46.7892 34.2758 46.9867 34.7527 46.9867 35.25C46.9867 35.7473 46.7892 36.2242 46.4375 36.5758C46.0859 36.9275 45.609 37.125 45.1117 37.125Z" fill="#FE9526"/>
</svg>
