<svg width="60" height="60" viewBox="0 0 60 60" fill="none" xmlns="http://www.w3.org/2000/svg">
<g clip-path="url(#clip0_9025_5908)">
<path d="M58.6109 42.6353L55.2233 42.093C55.0361 41.5048 54.7992 40.9335 54.5152 40.3854L56.5277 37.6058C56.6584 37.4252 56.7205 37.204 56.7028 36.9817C56.6852 36.7595 56.5889 36.5508 56.4312 36.3932L53.8208 33.7827C53.6631 33.6251 53.4544 33.5288 53.2322 33.5111C53.0099 33.4934 52.7887 33.5555 52.6081 33.6862L49.8286 35.6986C49.2805 35.4144 48.7092 35.1775 48.1209 34.9903L47.5786 31.603C47.5434 31.3829 47.4308 31.1825 47.2612 31.0379C47.0916 30.8932 46.8759 30.8138 46.653 30.8137H42.9613C42.7384 30.8138 42.5228 30.8932 42.3531 31.0379C42.1835 31.1825 42.0709 31.3829 42.0357 31.603L41.4934 34.9903C40.905 35.1774 40.3336 35.4143 39.7854 35.6985L37.0061 33.6861C36.8255 33.5553 36.6043 33.4932 36.382 33.5109C36.1597 33.5286 35.9511 33.6249 35.7934 33.7826L33.1831 36.393C33.0255 36.5507 32.9292 36.7594 32.9115 36.9816C32.8938 37.2038 32.9559 37.4251 33.0867 37.6057L35.0991 40.3852C34.815 40.9332 34.5782 41.5045 34.3911 42.0928L31.0034 42.6352C30.7833 42.6704 30.5829 42.7829 30.4382 42.9526C30.2936 43.1222 30.2141 43.3379 30.2141 43.5608V47.2525C30.2142 47.4754 30.2936 47.691 30.4383 47.8607C30.5829 48.0303 30.7833 48.1429 31.0034 48.1781L34.3909 48.7204C34.5781 49.3086 34.815 49.8799 35.0991 50.428L33.0867 53.2076C32.9559 53.3882 32.8938 53.6094 32.9115 53.8317C32.9292 54.0539 33.0255 54.2626 33.1831 54.4202L35.7934 57.0306C35.9511 57.1882 36.1598 57.2845 36.382 57.3022C36.6043 57.3199 36.8255 57.2578 37.0061 57.127L39.7856 55.1147C40.3337 55.3989 40.905 55.6358 41.4933 55.823L42.0356 59.2103C42.0708 59.4304 42.1834 59.6308 42.353 59.7754C42.5226 59.9201 42.7383 59.9995 42.9612 59.9995H46.6529C46.8758 59.9995 47.0914 59.9201 47.2611 59.7754C47.4307 59.6308 47.5433 59.4304 47.5785 59.2103L48.1208 55.8226C48.7091 55.6355 49.2804 55.3987 49.8285 55.1146L52.608 57.127C52.7886 57.2578 53.0098 57.3199 53.2321 57.3022C53.4543 57.2845 53.663 57.1882 53.8206 57.0306L56.4311 54.4202C56.5887 54.2626 56.685 54.0539 56.7027 53.8317C56.7204 53.6094 56.6583 53.3882 56.5275 53.2076L54.5152 50.4281C54.7994 49.88 55.0363 49.3086 55.2235 48.7202L58.6109 48.178C58.831 48.1428 59.0314 48.0302 59.1761 47.8606C59.3207 47.6909 59.4002 47.4753 59.4002 47.2523V43.5609C59.4002 43.338 59.3207 43.1224 59.1761 42.9527C59.0314 42.7831 58.831 42.6705 58.6109 42.6353ZM57.5252 46.4532L54.3388 46.9634C54.1583 46.9923 53.9902 47.0733 53.8552 47.1965C53.7201 47.3197 53.6241 47.4797 53.5788 47.6568C53.3664 48.4861 53.0368 49.2809 52.5999 50.0171C52.5066 50.1744 52.4614 50.3555 52.4697 50.5382C52.4781 50.7208 52.5397 50.897 52.6469 51.0451L54.5402 53.6599L53.0602 55.1399L50.4454 53.2466C50.2973 53.1393 50.1211 53.0777 49.9385 53.0694C49.7559 53.061 49.5748 53.1063 49.4175 53.1996C48.6813 53.6364 47.8865 53.966 47.0572 54.1784C46.8801 54.2237 46.7201 54.3197 46.5969 54.4548C46.4737 54.5898 46.3927 54.7579 46.3638 54.9384L45.8534 58.125H43.7604L43.2503 54.9387C43.2214 54.7582 43.1404 54.5901 43.0172 54.455C42.894 54.32 42.734 54.2239 42.5569 54.1786C41.7276 53.9664 40.9329 53.6368 40.1968 53.1997C40.0395 53.1064 39.8584 53.0611 39.6757 53.0695C39.493 53.0778 39.3168 53.1394 39.1687 53.2466L36.5538 55.1399L35.0738 53.6599L36.9671 51.045C37.0743 50.8969 37.1359 50.7207 37.1442 50.538C37.1526 50.3554 37.1073 50.1743 37.0141 50.017C36.5772 49.2808 36.2477 48.486 36.0353 47.6566C35.99 47.4795 35.8939 47.3196 35.7589 47.1964C35.6239 47.0732 35.4557 46.9921 35.2752 46.9632L32.0887 46.4531V44.3603L35.2752 43.85C35.4557 43.8211 35.6238 43.7401 35.7589 43.6169C35.8939 43.4937 35.99 43.3337 36.0353 43.1566C36.2476 42.3273 36.5772 41.5326 37.0141 40.7964C37.1073 40.6391 37.1525 40.458 37.1442 40.2754C37.1358 40.0927 37.0743 39.9165 36.9671 39.7684L35.0738 37.1536L36.5538 35.6736L39.1686 37.5668C39.3167 37.674 39.4929 37.7356 39.6755 37.7439C39.8582 37.7523 40.0393 37.7071 40.1965 37.6138C40.9327 37.1768 41.7275 36.8472 42.5569 36.635C42.734 36.5898 42.8941 36.4937 43.0173 36.3586C43.1405 36.2236 43.2215 36.0555 43.2504 35.875L43.7606 32.6886H45.8535L46.3636 35.875C46.3925 36.0555 46.4736 36.2236 46.5968 36.3586C46.72 36.4937 46.88 36.5898 47.0572 36.635C47.8865 36.8473 48.6812 37.1769 49.4173 37.6139C49.5746 37.7072 49.7557 37.7524 49.9383 37.7441C50.121 37.7357 50.2972 37.6741 50.4453 37.5669L53.0601 35.6736L54.5401 37.1536L52.6468 39.7685C52.5395 39.9166 52.478 40.0928 52.4696 40.2755C52.4613 40.4581 52.5065 40.6392 52.5998 40.7965C53.0366 41.5327 53.3662 42.3274 53.5785 43.1568C53.6238 43.3339 53.7199 43.4938 53.8549 43.617C53.99 43.7402 54.1581 43.8213 54.3386 43.8502L57.5252 44.3603V46.4532ZM44.8069 39.0145C41.2823 39.0145 38.4148 41.8821 38.4148 45.4068C38.4148 48.9314 41.2823 51.7989 44.8069 51.7989C48.3316 51.7989 51.199 48.9314 51.199 45.4068C51.199 41.8821 48.3316 39.0145 44.8069 39.0145ZM44.8069 49.924C42.3162 49.924 40.2898 47.8976 40.2898 45.4069C40.2898 42.9161 42.3162 40.8896 44.8069 40.8896C47.2976 40.8896 49.324 42.9161 49.324 45.4069C49.3242 47.8976 47.2977 49.924 44.8069 49.924ZM9.63579 29.8167V31.3939C9.63579 32.4872 10.3286 33.4215 11.2981 33.7815V34.611C11.2981 35.6994 11.9849 36.6301 12.9477 36.9935V37.828C12.9477 39.2318 14.0899 40.374 15.4936 40.374H17.5811C18.9849 40.374 20.127 39.2319 20.127 37.828V36.9935C21.0898 36.6301 21.7765 35.6994 21.7765 34.611V33.7391C22.6894 33.3518 23.3313 32.4465 23.3313 31.3941V29.816C23.5756 25.7214 24.5906 23.9861 25.5725 22.3082C26.4708 20.7728 27.3194 19.3227 27.3194 16.5135C27.3194 10.5386 22.4584 5.67762 16.4836 5.67762C10.5088 5.67762 5.64778 10.5384 5.64778 16.5134C5.64778 19.3226 6.49634 20.7728 7.39469 22.308C8.37649 23.9861 9.39157 25.7215 9.63579 29.8167ZM13.8367 17.9488H12.4741C11.7227 17.9488 11.1114 17.3375 11.1114 16.5861C11.1114 15.8347 11.7227 15.2235 12.4741 15.2235C13.2255 15.2235 13.8367 15.8347 13.8367 16.5861V17.9488ZM17.2553 28.8477H15.7117V19.8238H17.2553V28.8477ZM21.4563 30.7227V31.3939C21.4561 31.5718 21.3853 31.7424 21.2596 31.8681C21.1338 31.9939 20.9632 32.0647 20.7854 32.0648H12.1817C12.0038 32.0647 11.8333 31.9939 11.7075 31.8681C11.5817 31.7424 11.511 31.5718 11.5108 31.3939V30.7227H21.4563ZM19.2307 35.2818H13.8441C13.6662 35.2816 13.4956 35.2108 13.3698 35.085C13.244 34.9592 13.1733 34.7887 13.1731 34.6107V33.9397H19.9016V34.6107C19.9014 34.7886 19.8307 34.9591 19.7049 35.0849C19.5791 35.2107 19.4086 35.2815 19.2307 35.2818ZM17.5811 38.4989H15.4936C15.3157 38.4987 15.1452 38.428 15.0194 38.3022C14.8936 38.1764 14.8229 38.0058 14.8227 37.8279V37.1568H18.2521V37.8279C18.2519 38.0058 18.1811 38.1763 18.0553 38.3021C17.9295 38.4279 17.759 38.4987 17.5811 38.4989ZM16.4835 7.5525C21.4245 7.5525 25.4443 11.5723 25.4443 16.5134C25.4443 18.8143 24.7866 19.9383 23.9541 21.3612C23.0277 22.9443 21.8901 24.8885 21.5242 28.8478H19.1303V19.8239H20.493C22.2782 19.8239 23.7306 18.3715 23.7306 16.5863C23.7306 14.801 22.2782 13.3486 20.493 13.3486C18.7077 13.3486 17.2553 14.801 17.2553 16.5863V17.9489H15.7117V16.5863C15.7117 14.801 14.2593 13.3486 12.4741 13.3486C10.6888 13.3486 9.23641 14.801 9.23641 16.5863C9.23641 18.3715 10.6888 19.8239 12.4741 19.8239H13.8367V28.8478H11.4428C11.077 24.8885 9.93931 22.9444 9.01305 21.3612C8.18055 19.9383 7.5229 18.8145 7.5229 16.5134C7.52278 11.5723 11.5425 7.5525 16.4835 7.5525ZM19.1303 17.9488V16.5861C19.1303 15.8347 19.7416 15.2235 20.493 15.2235C21.2444 15.2235 21.8556 15.8347 21.8556 16.5861C21.8556 17.3375 21.2444 17.9488 20.493 17.9488H19.1303ZM15.5461 3.26906V0.9375C15.5461 0.68886 15.6449 0.450403 15.8207 0.274587C15.9965 0.0987721 16.235 0 16.4836 0C16.7323 0 16.9707 0.0987721 17.1466 0.274587C17.3224 0.450403 17.4211 0.68886 17.4211 0.9375V3.26906C17.4211 3.5177 17.3224 3.75616 17.1466 3.93197C16.9707 4.10779 16.7323 4.20656 16.4836 4.20656C16.235 4.20656 15.9965 4.10779 15.8207 3.93197C15.6449 3.75616 15.5461 3.5177 15.5461 3.26906ZM7.04032 3.71895C6.91796 3.50373 6.88569 3.24886 6.95056 3.00995C7.01542 2.77103 7.17215 2.56747 7.38654 2.44369C7.60094 2.3199 7.85559 2.28594 8.09493 2.34922C8.33427 2.4125 8.53887 2.56788 8.66407 2.78145L9.82985 4.80059C9.89141 4.90721 9.93136 5.02492 9.94743 5.14698C9.9635 5.26905 9.95537 5.39308 9.9235 5.512C9.89163 5.63093 9.83665 5.74241 9.7617 5.84008C9.68675 5.93776 9.59329 6.01971 9.48667 6.08127C9.38004 6.14283 9.26234 6.18278 9.14027 6.19885C9.01821 6.21492 8.89417 6.20678 8.77525 6.17492C8.65633 6.14305 8.54485 6.08807 8.44717 6.01312C8.3495 5.93817 8.26754 5.84471 8.20598 5.73809L7.04032 3.71895ZM4.36481 11.2034C4.30328 11.31 4.22133 11.4035 4.12365 11.4785C4.02597 11.5534 3.91447 11.6084 3.79554 11.6403C3.6766 11.6722 3.55255 11.6803 3.43047 11.6642C3.30839 11.6481 3.19068 11.6081 3.08407 11.5465L1.06493 10.3807C0.851361 10.2555 0.695984 10.0509 0.632707 9.81156C0.569429 9.57222 0.603388 9.31757 0.727172 9.10318C0.850956 8.88878 1.05452 8.73205 1.29343 8.66719C1.53235 8.60232 1.78722 8.63459 2.00243 8.75695L4.02157 9.92274C4.12819 9.98428 4.22165 10.0662 4.29661 10.1639C4.37156 10.2616 4.42654 10.373 4.45842 10.492C4.49029 10.6109 4.49843 10.7349 4.48237 10.857C4.46631 10.979 4.42636 11.0967 4.36481 11.2034ZM23.1372 4.8007L24.303 2.78156C24.3645 2.67491 24.4464 2.58143 24.5441 2.50646C24.6418 2.43149 24.7533 2.37651 24.8722 2.34464C24.9911 2.31278 25.1152 2.30466 25.2372 2.32075C25.3593 2.33685 25.477 2.37684 25.5836 2.43844C25.7989 2.56276 25.956 2.76753 26.0204 3.00769C26.0847 3.24785 26.051 3.50374 25.9267 3.71906L24.7609 5.7382C24.6994 5.84487 24.6175 5.93836 24.5198 6.01334C24.4221 6.08832 24.3106 6.14331 24.1917 6.17518C24.0727 6.20705 23.9487 6.21516 23.8266 6.19906C23.7045 6.18295 23.5868 6.14295 23.4802 6.08133C23.2649 5.95698 23.1078 5.75221 23.0435 5.51205C22.9792 5.27189 23.0129 5.01601 23.1372 4.8007ZM28.6024 11.2034C28.478 10.988 28.4443 10.7321 28.5087 10.492C28.573 10.2518 28.7302 10.0471 28.9455 9.92274L30.9646 8.75695C31.1796 8.63768 31.4329 8.60764 31.6699 8.67331C31.9068 8.73898 32.1085 8.8951 32.2314 9.10805C32.3544 9.32099 32.3888 9.57371 32.3272 9.81176C32.2656 10.0498 32.1129 10.2541 31.9021 10.3807L29.883 11.5465C29.7764 11.6081 29.6587 11.6481 29.5366 11.6642C29.4145 11.6803 29.2905 11.6722 29.1716 11.6403C29.0526 11.6085 28.9411 11.5535 28.8435 11.4785C28.7458 11.4035 28.6639 11.31 28.6024 11.2034ZM29.6465 51.4425L21.4454 45.4257C21.3056 45.3234 21.1403 45.2617 20.9676 45.2475C20.795 45.2334 20.6218 45.2673 20.4673 45.3456C20.3127 45.4239 20.1829 45.5435 20.0922 45.691C20.0014 45.8386 19.9533 46.0084 19.9532 46.1816V48.3451C15.5227 48.2244 11.3828 47.1193 9.92348 41.4367C9.87682 41.255 9.77675 41.0915 9.6362 40.9674C9.49565 40.8432 9.32108 40.764 9.13506 40.7401C8.94904 40.7162 8.76012 40.7486 8.59272 40.8332C8.42532 40.9177 8.28714 41.0506 8.19602 41.2145C6.45638 44.3449 6.48356 48.0253 8.26856 51.0592C9.31727 52.8417 10.9449 54.32 12.9753 55.3344C14.965 56.3284 17.3086 56.8836 19.9532 56.9887V59.0625C19.9532 59.2409 20.0041 59.4155 20.0999 59.566C20.1956 59.7165 20.3324 59.8365 20.494 59.912C20.6556 59.9875 20.8354 60.0153 21.0122 59.9922C21.1891 59.969 21.3557 59.8959 21.4925 59.7814L29.6936 52.9173C29.8026 52.826 29.8894 52.7112 29.9474 52.5815C30.0055 52.4517 30.0333 52.3105 30.0288 52.1684C30.0242 52.0264 29.9875 51.8872 29.9212 51.7614C29.855 51.6357 29.7611 51.5266 29.6465 51.4425ZM21.8282 57.0553V56.0698C21.8282 55.8211 21.7294 55.5827 21.5536 55.4069C21.3778 55.231 21.1394 55.1323 20.8907 55.1323C15.7745 55.1323 11.7629 53.3012 9.88458 50.1084C8.84348 48.3389 8.54302 46.2948 8.98563 44.3387C10.0257 46.491 11.6195 48.0613 13.7459 49.0228C16.1025 50.0885 18.6802 50.2322 20.8908 50.2322C21.1395 50.2322 21.3779 50.1334 21.5537 49.9576C21.7296 49.7818 21.8283 49.5433 21.8283 49.2947V48.0321L27.5733 52.247L21.8282 57.0553ZM29.5901 17.7626C29.5947 17.9047 29.6315 18.0438 29.6977 18.1696C29.764 18.2953 29.858 18.4044 29.9726 18.4884L38.7626 24.9373C38.9023 25.0398 39.0677 25.1017 39.2404 25.1159C39.4131 25.1301 39.5864 25.0962 39.741 25.0179C39.8956 24.9396 40.0254 24.8199 40.1161 24.6723C40.2068 24.5246 40.2548 24.3547 40.2548 24.1814V21.7935C45.0561 21.9135 49.5543 23.0869 51.1372 29.2502C51.1838 29.4319 51.2839 29.5954 51.4244 29.7195C51.565 29.8437 51.7396 29.9229 51.9256 29.9468C52.1116 29.9708 52.3005 29.9383 52.4679 29.8538C52.6353 29.7692 52.7735 29.6364 52.8646 29.4724C54.7175 26.1382 54.6886 22.2188 52.7877 18.9877C51.6704 17.0884 49.9356 15.5129 47.7709 14.4315C45.6309 13.3623 43.1059 12.7688 40.2547 12.6629V10.3757C40.2547 10.1973 40.2038 10.0226 40.108 9.87216C40.0122 9.72169 39.8755 9.60167 39.7139 9.52619C39.5523 9.4507 39.3725 9.42289 39.1956 9.44601C39.0188 9.46913 38.8522 9.54223 38.7154 9.65672L29.9254 17.0136C29.8164 17.1049 29.7296 17.2198 29.6715 17.3495C29.6134 17.4792 29.5856 17.6205 29.5901 17.7626ZM38.3797 12.3829V13.5833C38.3797 13.832 38.4784 14.0704 38.6542 14.2462C38.8301 14.422 39.0685 14.5208 39.3172 14.5208C44.8252 14.5208 49.146 16.4955 51.1716 19.9384C52.3295 21.9066 52.6393 24.1895 52.0983 26.3587C50.9928 23.9774 49.2677 22.2468 46.9474 21.1976C44.4331 20.0606 41.6793 19.9073 39.3172 19.9073C39.0685 19.9073 38.8301 20.0061 38.6542 20.1819C38.4784 20.3577 38.3797 20.5962 38.3797 20.8448V22.3309L32.0458 17.6841L38.3797 12.3829Z" fill="url(#paint0_linear_9025_5908)"/>
</g>
<defs>
<linearGradient id="paint0_linear_9025_5908" x1="8.53235" y1="51.7816" x2="47.3011" y2="13.0127" gradientUnits="userSpaceOnUse">
<stop stop-color="#FE9526"/>
<stop offset="1" stop-color="#53D86A"/>
</linearGradient>
<clipPath id="clip0_9025_5908">
<rect width="60" height="60" fill="white"/>
</clipPath>
</defs>
</svg>
