<svg width="60" height="60" viewBox="0 0 60 60" fill="none" xmlns="http://www.w3.org/2000/svg">
<g clip-path="url(#clip0_9025_5803)">
<path d="M15 27.1875V18.75H17.8125L13.125 12.1875L8.4375 18.75H11.25V27.1875H15Z" fill="#595BD4"/>
<path d="M47.8125 0.9375C45.5875 0.9375 43.4124 1.5973 41.5623 2.83347C39.7123 4.06963 38.2703 5.82664 37.4189 7.88231C36.5674 9.93798 36.3446 12.2 36.7787 14.3823C37.2127 16.5646 38.2842 18.5691 39.8575 20.1425C41.4309 21.7158 43.4354 22.7873 45.6177 23.2213C47.8 23.6554 50.062 23.4326 52.1177 22.5811C54.1734 21.7297 55.9304 20.2877 57.1665 18.4377C58.4027 16.5876 59.0625 14.4125 59.0625 12.1875C59.0593 9.2048 57.873 6.3452 55.7639 4.23611C53.6548 2.12703 50.7952 0.940726 47.8125 0.9375ZM45.8231 16.8281C45.6473 17.0039 45.4089 17.1026 45.1603 17.1026C44.9117 17.1026 44.6733 17.0039 44.4975 16.8281L41.8463 14.1759L43.1719 12.8503L45.1603 14.8397L52.4531 7.54688L53.7787 8.8725L45.8231 16.8281ZM4.6875 7.5C4.6875 7.25136 4.78627 7.0129 4.96209 6.83709C5.1379 6.66127 5.37636 6.5625 5.625 6.5625H20.625C20.8736 6.5625 21.1121 6.66127 21.2879 6.83709C21.4637 7.0129 21.5625 7.25136 21.5625 7.5V32.8125H25.3125V0.9375H0.9375V32.8125H4.6875V7.5Z" fill="#595BD4"/>
<path d="M34.3125 48.5156C36.06 48.5156 37.4766 47.099 37.4766 45.3516C37.4766 43.6041 36.06 42.1875 34.3125 42.1875C32.565 42.1875 31.1484 43.6041 31.1484 45.3516C31.1484 47.099 32.565 48.5156 34.3125 48.5156Z" fill="#595BD4"/>
<path d="M29.0391 50.625V59.0625H39.5859V53.2613L48.75 45L46.8516 43.1016L38.5312 48.5156H31.1484C30.589 48.5156 30.0525 48.7379 29.6569 49.1334C29.2613 49.529 29.0391 50.0656 29.0391 50.625Z" fill="#595BD4"/>
<path d="M43.9094 50.625H53.4362L51.5612 39.375H44.0612L43.2344 44.3362L46.3394 42.3159C46.5195 42.1988 46.7343 42.1471 46.948 42.1695C47.1617 42.1918 47.3612 42.2869 47.5131 42.4388L49.4116 44.3372C49.5015 44.4272 49.5722 44.5345 49.6193 44.6527C49.6664 44.7708 49.689 44.8974 49.6857 45.0245C49.6824 45.1517 49.6532 45.2769 49.5999 45.3924C49.5467 45.5079 49.4705 45.6114 49.3759 45.6966L43.9094 50.625Z" fill="#595BD4"/>
<path d="M14.5156 56.25H27.1878V54.375H17.36L24.9931 36.5625H57.1878V54.375H41.4378V56.25H59.0628V34.6875H23.7575L14.5156 56.25Z" fill="#595BD4"/>
</g>
<defs>
<clipPath id="clip0_9025_5803">
<rect width="60" height="60" fill="white"/>
</clipPath>
</defs>
</svg>
