<svg width="60" height="60" viewBox="0 0 60 60" fill="none" xmlns="http://www.w3.org/2000/svg">
<path d="M25.3108 52.5H25.1608C23.9983 52.5 22.892 52.05 22.0577 51.2344C21.2327 50.4188 20.7827 49.3406 20.7827 48.1875C20.7827 44.7656 17.9702 41.9812 14.5202 41.9812C13.442 41.9812 12.3639 42.2719 11.4077 42.8156C9.31705 44.0062 6.62642 43.3031 5.41705 41.2313L4.32955 39.375C3.94517 38.7281 3.7483 37.9875 3.7483 37.2281C3.7483 35.6906 4.59205 34.2563 5.93267 33.4875C7.90142 32.3719 9.0733 30.375 9.0733 28.125C9.0733 25.875 7.90142 23.8781 5.94205 22.7625C4.92017 22.1813 4.1983 21.2437 3.8983 20.1187C3.5983 19.0125 3.75767 17.8594 4.33892 16.8656L5.42642 15.0094C6.20455 13.6781 7.65767 12.8531 9.23267 12.8531C10.0014 12.8531 10.742 13.05 11.417 13.4344C12.3733 13.9781 13.4514 14.2688 14.5295 14.2688C17.9795 14.2688 20.792 11.4844 20.792 8.0625C20.792 5.68125 22.7514 3.75 25.1702 3.75H27.3452C28.5077 3.75 29.6139 4.2 30.4483 5.01562C31.2733 5.83125 31.7233 6.90938 31.7233 8.0625C31.7233 11.4844 34.5358 14.2688 37.9858 14.2688C39.0639 14.2688 40.142 13.9781 41.0983 13.4344C43.1889 12.2437 45.8795 12.9469 47.0889 15.0188L48.1764 16.875C48.5608 17.5219 48.7577 18.2625 48.7577 19.0219C48.7577 20.5594 47.9139 21.9938 46.5733 22.7625C44.9139 23.7094 43.7983 25.3125 43.517 27.1687C43.442 27.6844 43.7889 28.1625 44.3045 28.2375C44.8108 28.3125 45.2983 27.9656 45.3733 27.45C45.5702 26.1656 46.3483 25.05 47.5108 24.3938C49.442 23.2875 50.642 21.2344 50.642 19.0219C50.642 17.925 50.3514 16.8562 49.7983 15.9187L48.7108 14.0625C46.9858 11.1187 43.1514 10.1062 40.1702 11.8031C39.4952 12.1875 38.7452 12.3938 37.9952 12.3938C35.8858 12.3938 33.6077 10.7344 33.6077 8.0625C33.6077 6.4125 32.9608 4.85625 31.7702 3.68438C30.5795 2.52188 29.0139 1.875 27.3545 1.875H25.1795C21.7295 1.875 18.9264 4.65 18.9264 8.0625C18.9264 10.7344 16.6483 12.3938 14.5389 12.3938C13.7889 12.3938 13.0295 12.1875 12.3545 11.8031C11.3983 11.2594 10.3202 10.9781 9.24205 10.9781C7.0108 10.9781 4.92955 12.1594 3.8233 14.0625L2.7358 15.9187C1.90142 17.3438 1.67642 19.0125 2.0983 20.6062C2.52955 22.2188 3.57017 23.5594 5.03267 24.3938C6.40142 25.1719 7.21705 26.5594 7.21705 28.125C7.21705 29.6906 6.40142 31.0781 5.0233 31.8562C3.09205 32.9625 1.89205 35.0156 1.89205 37.2281C1.89205 38.325 2.18267 39.3937 2.7358 40.3312L3.8233 42.1875C5.5483 45.1312 9.38267 46.1531 12.3639 44.4469C13.0389 44.0625 13.7889 43.8562 14.5389 43.8562C16.6483 43.8562 18.9264 45.5156 18.9264 48.1875C18.9264 49.8375 19.5733 51.3937 20.7639 52.5656C21.9545 53.7281 23.5202 54.375 25.1795 54.375H25.3295C25.8452 54.375 26.267 53.9531 26.267 53.4375C26.267 52.9219 25.8452 52.5 25.3295 52.5H25.3108Z" fill="#595BD4"/>
<path d="M37.5 28.125C37.5 21.9188 32.4562 16.875 26.25 16.875C20.0438 16.875 15 21.9188 15 28.125C15 34.3312 20.0438 39.375 26.25 39.375C32.4562 39.375 37.5 34.3312 37.5 28.125ZM26.25 37.5C21.0844 37.5 16.875 33.2906 16.875 28.125C16.875 22.9594 21.0844 18.75 26.25 18.75C31.4156 18.75 35.625 22.9594 35.625 28.125C35.625 33.2906 31.4156 37.5 26.25 37.5ZM57.525 51.1125L47.175 32.4094C46.3406 30.9 44.8312 30 43.125 30C41.4188 30 39.9094 30.9 39.075 32.4094L28.725 51.1125C27.9 52.6031 27.9281 54.3656 28.7906 55.8281C29.6344 57.2625 31.125 58.125 32.775 58.125H53.4656C55.1156 58.125 56.6063 57.2719 57.45 55.8281C58.3125 54.3656 58.3406 52.5938 57.5156 51.1125H57.525ZM55.8469 54.8813C55.3406 55.7438 54.45 56.25 53.475 56.25H32.7844C31.8094 56.25 30.9187 55.7344 30.4125 54.8813C29.8875 53.9906 29.8781 52.9219 30.375 52.0219L40.725 33.3188C41.2219 32.4188 42.1219 31.875 43.1344 31.875C44.1469 31.875 45.0469 32.4094 45.5438 33.3188L55.8937 52.0219C56.3906 52.9219 56.3813 53.9906 55.8563 54.8813H55.8469Z" fill="#595BD4"/>
<path d="M43.125 47.8125C43.6406 47.8125 44.0625 47.3906 44.0625 46.875V38.4375C44.0625 37.9219 43.6406 37.5 43.125 37.5C42.6094 37.5 42.1875 37.9219 42.1875 38.4375V46.875C42.1875 47.3906 42.6094 47.8125 43.125 47.8125Z" fill="#595BD4"/>
<path d="M43.125 52.5C43.9017 52.5 44.5312 51.8704 44.5312 51.0938C44.5312 50.3171 43.9017 49.6875 43.125 49.6875C42.3483 49.6875 41.7188 50.3171 41.7188 51.0938C41.7188 51.8704 42.3483 52.5 43.125 52.5Z" fill="#595BD4"/>
</svg>
