<svg width="60" height="60" viewBox="0 0 60 60" fill="none" xmlns="http://www.w3.org/2000/svg">
<path d="M26.25 52.5H24.375V58.125H26.25V52.5Z" fill="#595BD4"/>
<path d="M35.625 52.5H33.75V58.125H35.625V52.5Z" fill="#595BD4"/>
<path d="M43.125 52.5H41.25V58.125H43.125V52.5Z" fill="#595BD4"/>
<path d="M52.5 52.5H50.625V58.125H52.5V52.5Z" fill="#595BD4"/>
<path d="M5.625 52.5C5.625 50.9494 6.88687 49.6875 8.4375 49.6875H17.8125C19.3631 49.6875 20.625 50.9494 20.625 52.5V58.125H22.5V52.5C22.5 50.9494 23.7619 49.6875 25.3125 49.6875H34.6875C36.2381 49.6875 37.5 50.9494 37.5 52.5V58.125H39.375V52.5C39.375 50.9494 40.6369 49.6875 42.1875 49.6875H51.5625C53.1131 49.6875 54.375 50.9494 54.375 52.5V58.125H56.25V52.5C56.25 49.9153 54.1472 47.8125 51.5625 47.8125H51.0562C51.9506 46.8159 52.5 45.5044 52.5 44.0625C52.5 40.9603 49.9772 38.4375 46.875 38.4375C43.7728 38.4375 41.25 40.9603 41.25 44.0625C41.25 45.5044 41.7994 46.8159 42.6938 47.8125H42.1875C40.6491 47.8125 39.2925 48.5681 38.4375 49.7166C37.5825 48.5681 36.2259 47.8125 34.6875 47.8125H34.1812C35.0756 46.8159 35.625 45.5044 35.625 44.0625C35.625 40.9603 33.1022 38.4375 30 38.4375C26.8978 38.4375 24.375 40.9603 24.375 44.0625C24.375 45.5044 24.9244 46.8159 25.8188 47.8125H25.3125C23.7741 47.8125 22.4175 48.5681 21.5625 49.7166C20.7075 48.5681 19.3509 47.8125 17.8125 47.8125H17.3062C18.2006 46.8159 18.75 45.5044 18.75 44.0625C18.75 40.9603 16.2272 38.4375 13.125 38.4375C10.0228 38.4375 7.5 40.9603 7.5 44.0625C7.5 45.5044 8.04938 46.8159 8.94375 47.8125H8.4375C5.85281 47.8125 3.75 49.9153 3.75 52.5V58.125H5.625V52.5ZM46.875 40.3125C48.9431 40.3125 50.625 41.9944 50.625 44.0625C50.625 46.1306 48.9431 47.8125 46.875 47.8125C44.8069 47.8125 43.125 46.1306 43.125 44.0625C43.125 41.9944 44.8069 40.3125 46.875 40.3125ZM30 40.3125C32.0681 40.3125 33.75 41.9944 33.75 44.0625C33.75 46.1306 32.0681 47.8125 30 47.8125C27.9319 47.8125 26.25 46.1306 26.25 44.0625C26.25 41.9944 27.9319 40.3125 30 40.3125ZM13.125 40.3125C15.1931 40.3125 16.875 41.9944 16.875 44.0625C16.875 46.1306 15.1931 47.8125 13.125 47.8125C11.0569 47.8125 9.375 46.1306 9.375 44.0625C9.375 41.9944 11.0569 40.3125 13.125 40.3125Z" fill="#595BD4"/>
<path d="M9.375 52.5H7.5V58.125H9.375V52.5Z" fill="#595BD4"/>
<path d="M18.75 52.5H16.875V58.125H18.75V52.5Z" fill="#595BD4"/>
<path d="M10.4831 26.0475C11.265 29.9503 14.7037 32.8125 18.75 32.8125C19.9434 32.8125 21.1275 32.5556 22.2159 32.0625C24.1791 34.3359 26.9737 35.625 30 35.625C33.0263 35.625 35.8209 34.3359 37.7841 32.0625C38.8725 32.5556 40.0566 32.8125 41.25 32.8125C45.2962 32.8125 48.735 29.9503 49.5169 26.0475C52.8666 25.2675 55.3125 22.2459 55.3125 18.75C55.3125 15.2541 52.8666 12.2325 49.5169 11.4525C48.735 7.54969 45.2962 4.6875 41.25 4.6875C40.0566 4.6875 38.8725 4.94438 37.7841 5.4375C35.8209 3.16406 33.0263 1.875 30 1.875C26.9737 1.875 24.1791 3.16406 22.2159 5.4375C21.1275 4.94438 19.9434 4.6875 18.75 4.6875C14.7037 4.6875 11.265 7.54969 10.4831 11.4525C7.13344 12.2325 4.6875 15.2541 4.6875 18.75C4.6875 22.2459 7.13344 25.2675 10.4831 26.0475ZM11.43 13.1831C11.8547 13.1259 12.1866 12.7875 12.2353 12.3619C12.6187 9.05531 15.4191 6.5625 18.75 6.5625C19.8862 6.5625 21.0122 6.86344 22.005 7.4325C22.4166 7.66781 22.9416 7.55906 23.2247 7.1775C24.8372 4.99969 27.3075 3.75 30 3.75C32.6925 3.75 35.1628 4.99969 36.7762 7.17656C37.0594 7.55813 37.5844 7.66781 37.9959 7.43156C38.9878 6.86344 40.1138 6.5625 41.25 6.5625C44.5809 6.5625 47.3813 9.05531 47.7638 12.3619C47.8125 12.7875 48.1444 13.1259 48.5691 13.1831C51.345 13.5572 53.4375 15.9506 53.4375 18.75C53.4375 21.5494 51.345 23.9428 48.57 24.3169C48.1453 24.3741 47.8134 24.7125 47.7647 25.1381C47.3813 28.4447 44.5809 30.9375 41.25 30.9375C40.1138 30.9375 38.9878 30.6366 37.995 30.0675C37.5834 29.8322 37.0584 29.9409 36.7753 30.3225C35.1628 32.5003 32.6925 33.75 30 33.75C27.3075 33.75 24.8372 32.5003 23.2237 30.3234C23.0409 30.0769 22.7578 29.9438 22.47 29.9438C22.3116 29.9438 22.1503 29.9841 22.0041 30.0675C21.0122 30.6366 19.8862 30.9375 18.75 30.9375C15.4191 30.9375 12.6188 28.4447 12.2362 25.1381C12.1875 24.7125 11.8556 24.3741 11.4309 24.3169C8.655 23.9428 6.5625 21.5494 6.5625 18.75C6.5625 15.9506 8.655 13.5572 11.43 13.1831Z" fill="#595BD4"/>
<path d="M30 30C36.2034 30 41.25 24.9534 41.25 18.75C41.25 12.5466 36.2034 7.5 30 7.5C23.7966 7.5 18.75 12.5466 18.75 18.75C18.75 24.9534 23.7966 30 30 30ZM30 9.375C35.1694 9.375 39.375 13.5806 39.375 18.75C39.375 23.9194 35.1694 28.125 30 28.125C24.8306 28.125 20.625 23.9194 20.625 18.75C20.625 13.5806 24.8306 9.375 30 9.375Z" fill="#595BD4"/>
<path d="M26.2497 15.9375C26.6097 15.9375 26.9237 16.1419 27.0803 16.4409C27.2284 16.7241 27.5472 16.875 27.8668 16.875H27.8753C28.5709 16.875 29.05 16.1278 28.7134 15.5194C28.2343 14.6513 27.309 14.0625 26.2497 14.0625C25.1903 14.0625 24.265 14.6513 23.7859 15.5194C23.4493 16.1278 23.9284 16.875 24.624 16.875H24.6325C24.9522 16.875 25.27 16.7241 25.419 16.4409C25.5756 16.1419 25.8897 15.9375 26.2497 15.9375ZM33.7497 15.9375C34.1097 15.9375 34.4237 16.1419 34.5803 16.4409C34.7284 16.7241 35.0472 16.875 35.3668 16.875H35.3753C36.0709 16.875 36.55 16.1278 36.2134 15.5194C35.7343 14.6513 34.809 14.0625 33.7497 14.0625C32.6903 14.0625 31.765 14.6513 31.2859 15.5194C30.9494 16.1278 31.4284 16.875 32.124 16.875H32.1325C32.4522 16.875 32.77 16.7241 32.919 16.4409C33.0756 16.1419 33.3897 15.9375 33.7497 15.9375ZM26.3725 20.625H26.3697C25.7593 20.625 25.3075 21.2034 25.4593 21.795C25.9806 23.8153 27.819 25.3125 29.9997 25.3125C32.1803 25.3125 34.0187 23.8153 34.539 21.795C34.6918 21.2034 34.24 20.625 33.6297 20.625H33.6269C33.1834 20.625 32.829 20.9438 32.7119 21.3722C32.3837 22.5609 31.2925 23.4375 29.9997 23.4375C28.7068 23.4375 27.6156 22.5609 27.2875 21.3722C27.1703 20.9438 26.8159 20.625 26.3725 20.625Z" fill="#595BD4"/>
</svg>
