<svg width="60" height="60" viewBox="0 0 60 60" fill="none" xmlns="http://www.w3.org/2000/svg">
<path d="M51.9188 12.1875L44.4188 4.6875H15.5531L8.05313 12.1875L30 36.075L51.9188 12.1875ZM30 13.125H36.1969L30 31.725L23.8031 13.125H30ZM24.9937 11.25L30 6.87187L35.0063 11.25H24.9937ZM38.175 13.125H48.4875L32.2781 30.8156L38.175 13.125ZM39.7594 11.25L44.0625 6.94687L48.3656 11.25H39.7594ZM37.5 10.9031L32.4937 6.5625H41.8031L37.5 10.9031ZM22.5938 10.9031L18.1969 6.5625H27.5063L22.5938 10.9031ZM20.2406 11.25H11.6344L15.9375 6.94687L20.2406 11.25ZM21.825 13.125L27.7219 30.8156L11.5031 13.125H21.825ZM52.5 42.7219C51.075 41.3156 48.5438 41.3063 48.2719 41.3156L33.75 41.25C33.669 39.9866 33.1405 38.7934 32.2594 37.8844C31.3986 37.0563 30.2567 36.5841 29.0625 36.5625H18.75C17.603 36.5339 16.4651 36.7733 15.4268 37.2615C14.3885 37.7498 13.4784 38.4734 12.7687 39.375H6.5625V55.3125H27.4031C40.0219 55.3125 53.4375 51.6937 53.4375 45C53.4434 44.5766 53.3633 44.1564 53.2022 43.7649C53.0411 43.3733 52.8022 43.0185 52.5 42.7219ZM8.4375 53.4375V41.25H12.0937L12.1875 53.4375H8.4375ZM27.4031 53.4375H14.0625V40.7812C14.5856 40.0298 15.2887 39.4215 16.1076 39.0121C16.9265 38.6026 17.835 38.4051 18.75 38.4375H29.0625C29.743 38.4681 30.3892 38.7446 30.8812 39.2156C31.4131 39.7694 31.7433 40.4859 31.8187 41.25H24.375V43.125H32.7469L48.2812 43.1906C49.3174 43.1593 50.3362 43.4617 51.1875 44.0531C51.3115 44.175 51.4088 44.3212 51.4733 44.4825C51.5379 44.6439 51.5682 44.8169 51.5625 44.9906C51.5625 49.575 40.5 53.4375 27.4031 53.4375Z" fill="#595BD4"/>
</svg>
