<svg width="22" height="22" viewBox="0 0 22 22" fill="none" xmlns="http://www.w3.org/2000/svg">
<path d="M18.52 10H14.48C12.47 10 11.5 9.11 11.5 7.27V2.73C11.5 0.89 12.48 0 14.48 0H18.52C20.53 0 21.5 0.89 21.5 2.73V7.26C21.5 9.11 20.52 10 18.52 10ZM14.48 1.5C13.14 1.5 13 1.88 13 2.73V7.26C13 8.12 13.14 8.49 14.48 8.49H18.52C19.86 8.49 20 8.11 20 7.26V2.73C20 1.87 19.86 1.5 18.52 1.5H14.48Z" fill="#DD6E20"/>
<path d="M18.52 21.5H14.48C12.47 21.5 11.5 20.52 11.5 18.52V14.48C11.5 12.47 12.48 11.5 14.48 11.5H18.52C20.53 11.5 21.5 12.48 21.5 14.48V18.52C21.5 20.52 20.52 21.5 18.52 21.5ZM14.48 13C13.3 13 13 13.3 13 14.48V18.52C13 19.7 13.3 20 14.48 20H18.52C19.7 20 20 19.7 20 18.52V14.48C20 13.3 19.7 13 18.52 13H14.48Z" fill="white"/>
<path d="M7.02 10H2.98C0.97 10 0 9.11 0 7.27V2.73C0 0.89 0.98 0 2.98 0H7.02C9.03 0 10 0.89 10 2.73V7.26C10 9.11 9.02 10 7.02 10ZM2.98 1.5C1.64 1.5 1.5 1.88 1.5 2.73V7.26C1.5 8.12 1.64 8.49 2.98 8.49H7.02C8.36 8.49 8.5 8.11 8.5 7.26V2.73C8.5 1.87 8.36 1.5 7.02 1.5H2.98Z" fill="white"/>
<path d="M7.02 21.5H2.98C0.97 21.5 0 20.52 0 18.52V14.48C0 12.47 0.98 11.5 2.98 11.5H7.02C9.03 11.5 10 12.48 10 14.48V18.52C10 20.52 9.02 21.5 7.02 21.5ZM2.98 13C1.8 13 1.5 13.3 1.5 14.48V18.52C1.5 19.7 1.8 20 2.98 20H7.02C8.2 20 8.5 19.7 8.5 18.52V14.48C8.5 13.3 8.2 13 7.02 13H2.98Z" fill="#DD6E20"/>
</svg>
