<svg width="30" height="30" viewBox="0 0 30 30" fill="none" xmlns="http://www.w3.org/2000/svg">
<rect width="30" height="30" rx="8" fill="#DD6E20"/>
<path d="M18 25.75H12C6.57 25.75 4.25 23.43 4.25 18V12C4.25 6.57 6.57 4.25 12 4.25H14C14.41 4.25 14.75 4.59 14.75 5C14.75 5.41 14.41 5.75 14 5.75H12C7.39 5.75 5.75 7.39 5.75 12V18C5.75 22.61 7.39 24.25 12 24.25H18C22.61 24.25 24.25 22.61 24.25 18V16C24.25 15.59 24.59 15.25 25 15.25C25.41 15.25 25.75 15.59 25.75 16V18C25.75 23.43 23.43 25.75 18 25.75Z" fill="white"/>
<path d="M11.4998 20.6901C10.8898 20.6901 10.3298 20.4701 9.91984 20.0701C9.42984 19.5801 9.21984 18.8701 9.32984 18.1201L9.75984 15.1101C9.83984 14.5301 10.2198 13.7801 10.6298 13.3701L18.5098 5.49006C20.4998 3.50006 22.5198 3.50006 24.5098 5.49006C25.5998 6.58006 26.0898 7.69006 25.9898 8.80006C25.8998 9.70006 25.4198 10.5801 24.5098 11.4801L16.6298 19.3601C16.2198 19.7701 15.4698 20.1501 14.8898 20.2301L11.8798 20.6601C11.7498 20.6901 11.6198 20.6901 11.4998 20.6901ZM19.5698 6.55006L11.6898 14.4301C11.4998 14.6201 11.2798 15.0601 11.2398 15.3201L10.8098 18.3301C10.7698 18.6201 10.8298 18.8601 10.9798 19.0101C11.1298 19.1601 11.3698 19.2201 11.6598 19.1801L14.6698 18.7501C14.9298 18.7101 15.3798 18.4901 15.5598 18.3001L23.4398 10.4201C24.0898 9.77006 24.4298 9.19006 24.4798 8.65006C24.5398 8.00006 24.1998 7.31006 23.4398 6.54006C21.8398 4.94006 20.7398 5.39006 19.5698 6.55006Z" fill="white"/>
<path d="M22.8501 12.8298C22.7801 12.8298 22.7101 12.8198 22.6501 12.7998C20.0201 12.0598 17.9301 9.96978 17.1901 7.33978C17.0801 6.93978 17.3101 6.52978 17.7101 6.40978C18.1101 6.29978 18.5201 6.52978 18.6301 6.92978C19.2301 9.05978 20.9201 10.7498 23.0501 11.3498C23.4501 11.4598 23.6801 11.8798 23.5701 12.2798C23.4801 12.6198 23.1801 12.8298 22.8501 12.8298Z" fill="white"/>
</svg>
