<svg width="19" height="18" viewBox="0 0 19 18" fill="none" xmlns="http://www.w3.org/2000/svg">
<path d="M12.7857 17.0625H2.93068C2.21818 17.0625 1.55818 16.7325 1.13068 16.155C0.695681 15.57 0.568188 14.835 0.785688 14.1375L3.94318 3.98996C4.22818 3.04496 5.09819 2.39996 6.08819 2.39996H15.3132C16.2207 2.39996 17.0382 2.94003 17.3832 3.78003C17.5707 4.21503 17.6082 4.71004 17.4957 5.19754L14.9682 15.345C14.7282 16.3575 13.8282 17.0625 12.7857 17.0625ZM6.09568 3.53247C5.60818 3.53247 5.16568 3.85501 5.02318 4.32751L1.86569 14.475C1.76069 14.8275 1.82068 15.195 2.04568 15.495C2.25568 15.78 2.58568 15.945 2.93818 15.945H12.7932C13.3107 15.945 13.7607 15.5925 13.8807 15.09L16.4082 4.93497C16.4682 4.68747 16.4532 4.44 16.3557 4.2225C16.1757 3.795 15.7782 3.52496 15.3207 3.52496H6.09568V3.53247Z" fill="#404053"/>
<path d="M16.085 17.0625H12.5C12.1925 17.0625 11.9375 16.8075 11.9375 16.5C11.9375 16.1925 12.1925 15.9375 12.5 15.9375H16.085C16.3925 15.9375 16.6775 15.81 16.8875 15.585C17.0975 15.36 17.2025 15.06 17.18 14.7525L16.4375 4.53751C16.415 4.23001 16.6475 3.95998 16.955 3.93748C17.2625 3.92248 17.5325 4.14743 17.555 4.45493L18.2975 14.67C18.3425 15.285 18.125 15.9 17.705 16.35C17.2925 16.8075 16.7 17.0625 16.085 17.0625Z" fill="#404053"/>
<path d="M7.75982 5.34747C7.71482 5.34747 7.66983 5.33995 7.62483 5.33245C7.32483 5.25745 7.13734 4.95743 7.21234 4.64993L7.99232 1.40997C8.06732 1.10997 8.36733 0.922432 8.67483 0.997432C8.97483 1.07243 9.16234 1.37246 9.08734 1.67996L8.30733 4.92001C8.24733 5.17501 8.01482 5.34747 7.75982 5.34747Z" fill="#404053"/>
<path d="M12.7846 5.35499C12.7471 5.35499 12.7021 5.35498 12.6646 5.33998C12.3646 5.27248 12.1696 4.97247 12.2296 4.67246L12.9346 1.41749C13.0021 1.10999 13.3021 0.922523 13.6021 0.982523C13.9021 1.04252 14.0971 1.34994 14.0371 1.64994L13.3321 4.90501C13.2796 5.17501 13.0471 5.35499 12.7846 5.35499Z" fill="#404053"/>
<path d="M12.2744 9.5625H6.27441C5.96691 9.5625 5.71191 9.3075 5.71191 9C5.71191 8.6925 5.96691 8.4375 6.27441 8.4375H12.2744C12.5819 8.4375 12.8369 8.6925 12.8369 9C12.8369 9.3075 12.5819 9.5625 12.2744 9.5625Z" fill="#404053"/>
<path d="M11.5244 12.5625H5.52441C5.21691 12.5625 4.96191 12.3075 4.96191 12C4.96191 11.6925 5.21691 11.4375 5.52441 11.4375H11.5244C11.8319 11.4375 12.0869 11.6925 12.0869 12C12.0869 12.3075 11.8319 12.5625 11.5244 12.5625Z" fill="#404053"/>
</svg>
