<svg width="19" height="18" viewBox="0 0 19 18" fill="none" xmlns="http://www.w3.org/2000/svg">
<path d="M11.75 17.0625H7.25C3.1775 17.0625 1.4375 15.3225 1.4375 11.25V6.75C1.4375 2.6775 3.1775 0.9375 7.25 0.9375H11.75C15.8225 0.9375 17.5625 2.6775 17.5625 6.75V11.25C17.5625 15.3225 15.8225 17.0625 11.75 17.0625ZM7.25 2.0625C3.7925 2.0625 2.5625 3.2925 2.5625 6.75V11.25C2.5625 14.7075 3.7925 15.9375 7.25 15.9375H11.75C15.2075 15.9375 16.4375 14.7075 16.4375 11.25V6.75C16.4375 3.2925 15.2075 2.0625 11.75 2.0625H7.25Z" fill="#DD6E20"/>
<path d="M9.49959 11.4451C9.35709 11.4451 9.21459 11.3926 9.10209 11.2801L6.85209 9.03014C6.63459 8.81264 6.63459 8.45265 6.85209 8.23515C7.06959 8.01765 7.42959 8.01765 7.64709 8.23515L9.49959 10.0876L11.3521 8.23515C11.5696 8.01765 11.9296 8.01765 12.1471 8.23515C12.3646 8.45265 12.3646 8.81264 12.1471 9.03014L9.89709 11.2801C9.78459 11.3926 9.64209 11.4451 9.49959 11.4451Z" fill="#DD6E20"/>
<path d="M9.5 11.4448C9.1925 11.4448 8.9375 11.1898 8.9375 10.8823V4.88232C8.9375 4.57482 9.1925 4.31982 9.5 4.31982C9.8075 4.31982 10.0625 4.57482 10.0625 4.88232V10.8823C10.0625 11.1973 9.8075 11.4448 9.5 11.4448Z" fill="#DD6E20"/>
<path d="M9.50032 13.6726C7.91782 13.6726 6.32783 13.4176 4.82033 12.9151C4.52783 12.8176 4.37033 12.4951 4.46783 12.2026C4.56533 11.9101 4.88032 11.7451 5.18032 11.8501C7.97032 12.7801 11.0378 12.7801 13.8278 11.8501C14.1203 11.7526 14.4428 11.9101 14.5403 12.2026C14.6378 12.4951 14.4803 12.8176 14.1878 12.9151C12.6728 13.4251 11.0828 13.6726 9.50032 13.6726Z" fill="#DD6E20"/>
</svg>
