<svg width="19" height="20" viewBox="0 0 19 20" fill="none" xmlns="http://www.w3.org/2000/svg">
<path d="M12.8287 5.75789L7.1718 11.4148C6.78127 11.8053 6.78127 12.4384 7.1718 12.829C7.56232 13.2195 8.1955 13.2195 8.586 12.829L14.2429 7.1721C15.4144 6.00053 15.4144 4.10104 14.2429 2.92946C13.0713 1.75789 11.1718 1.75789 10.0002 2.92946L4.34337 8.58629C2.39075 10.5389 2.39075 13.7048 4.34337 15.6574C6.29599 17.61 9.4618 17.61 11.4144 15.6574L17.0713 10.0005L18.4855 11.4148L12.8287 17.0716C10.095 19.8053 5.66283 19.8053 2.92916 17.0716C0.195489 14.3379 0.195489 9.90579 2.92916 7.1721L8.586 1.51525C10.5386 -0.437374 13.7045 -0.437374 15.6571 1.51525C17.6097 3.46787 17.6097 6.6337 15.6571 8.58629L10.0002 14.2432C8.8287 15.4148 6.92916 15.4148 5.75759 14.2432C4.58601 13.0716 4.58601 11.1721 5.75759 10.0005L11.4144 4.34368L12.8287 5.75789Z" fill="white"/>
</svg>
