<svg width="18" height="18" viewBox="0 0 18 18" fill="none" xmlns="http://www.w3.org/2000/svg">
<path d="M2.32894 0.272556C3.56203 -0.165824 4.99181 0.108466 5.97878 1.09544C6.96603 2.08269 7.2402 3.513 6.80129 4.74633L17.646 15.5912L15.5247 17.7125L4.67887 6.86807C3.44578 7.30648 2.016 7.03218 1.02903 6.04519C0.0417821 5.05794 -0.232388 3.62763 0.206522 2.3943L2.44325 4.63098C3.02903 5.21676 3.97878 5.21676 4.56457 4.63098C5.15035 4.04519 5.15035 3.09544 4.56457 2.50966L2.32894 0.272556ZM12.6963 2.1561L15.8783 0.388336L17.2925 1.80255L15.5247 4.98453L13.757 5.33808L11.6356 7.45938L10.2214 6.04519L12.3427 3.92387L12.6963 2.1561ZM5.62523 9.93428L7.7465 12.0556L2.7968 17.0054C2.21101 17.5912 1.26127 17.5912 0.675482 17.0054C0.124152 16.454 0.0917224 15.5803 0.578192 14.991L0.675482 14.884L5.62523 9.93428Z" fill="#72B800"/>
</svg>
