<svg width="27" height="26" viewBox="0 0 27 26" fill="none" xmlns="http://www.w3.org/2000/svg">
<path d="M14.325 23.2016H3.525C2.88848 23.2016 2.27803 22.9487 1.82794 22.4986C1.37786 22.0485 1.125 21.4381 1.125 20.8016V4.00156C1.125 3.36504 1.37786 2.75459 1.82794 2.30451C2.27803 1.85442 2.88848 1.60156 3.525 1.60156H22.725C23.3615 1.60156 23.972 1.85442 24.4221 2.30451C24.8721 2.75459 25.125 3.36504 25.125 4.00156V12.4016" stroke="#3B3B3F" stroke-width="1.8" stroke-linecap="round"/>
<path d="M1.125 6.4012H25.125M4.725 4.0132L4.737 4M8.325 4.0132L8.337 4M11.925 4.0132L11.937 4M21.5154 14.9512L24.5826 15.73C24.9018 15.8116 25.1262 16.102 25.1166 16.4308C24.9102 23.3404 20.925 24.4012 20.925 24.4012C20.925 24.4012 16.9398 23.3404 16.7334 16.4308C16.7301 16.2708 16.7811 16.1145 16.8781 15.9872C16.9751 15.86 17.1123 15.7693 17.2674 15.73L20.3346 14.9512C20.7222 14.8528 21.1278 14.8528 21.5154 14.9512Z" stroke="#3B3B3F" stroke-width="1.8" stroke-linecap="round" stroke-linejoin="round"/>
</svg>
