<svg width="25" height="22" viewBox="0 0 25 22" fill="none" xmlns="http://www.w3.org/2000/svg">
<path fill-rule="evenodd" clip-rule="evenodd" d="M14.6514 10.6336L9.64851 16.6336L8.17166 16.7016L5.16992 13.7016L6.58674 12.2856L8.81203 14.5116L13.1145 9.35156L14.6514 10.6336Z" fill="#3B3B3F"/>
<path d="M20.8469 13.9325C21.9892 12.7879 22.7 11.2835 22.8584 9.67465C23.0168 8.06582 22.6132 6.45178 21.7161 5.10662C20.8189 3.76145 19.4836 2.76809 17.9368 2.29522C16.39 1.82234 14.7271 1.89911 13.2305 2.51248C12.2548 2.20186 11.2404 2.02885 10.2168 1.99848C11.1907 1.21342 12.3177 0.639816 13.5258 0.314256C14.7339 -0.0113033 15.9966 -0.0816769 17.2334 0.107624C18.4702 0.296924 19.654 0.741744 20.7092 1.41372C21.7644 2.08569 22.668 2.97006 23.3622 4.01045C24.0564 5.05083 24.5261 6.22438 24.7413 7.45626C24.9564 8.68815 24.9124 9.95133 24.6119 11.1652C24.3114 12.3792 23.7611 13.5172 22.9961 14.5067C22.231 15.4962 21.268 16.3156 20.1685 16.9125C20.5268 15.9725 20.7589 14.9725 20.8489 13.9325" fill="#3B3B3F"/>
<path fill-rule="evenodd" clip-rule="evenodd" d="M9.8802 19.9922C8.96042 19.9922 8.04964 19.8111 7.19987 19.4593C6.3501 19.1076 5.57798 18.5919 4.9276 17.9419C4.27721 17.2919 3.76129 16.5203 3.40931 15.671C3.05732 14.8217 2.87616 13.9114 2.87616 12.9922C2.87616 12.0729 3.05732 11.1627 3.40931 10.3134C3.76129 9.46413 4.27721 8.69245 4.9276 8.04244C5.57798 7.39243 6.3501 6.87681 7.19987 6.52503C8.04964 6.17325 8.96042 5.99219 9.8802 5.99219C11.7378 5.99219 13.5193 6.72969 14.8328 8.04244C16.1463 9.3552 16.8843 11.1357 16.8843 12.9922C16.8843 14.8487 16.1463 16.6292 14.8328 17.9419C13.5193 19.2547 11.7378 19.9922 9.8802 19.9922ZM9.8802 21.9922C11.0628 21.9922 12.2338 21.7594 13.3263 21.3071C14.4189 20.8548 15.4116 20.1919 16.2478 19.3561C17.0841 18.5204 17.7474 17.5283 18.1999 16.4363C18.6525 15.3444 18.8854 14.1741 18.8854 12.9922C18.8854 11.8103 18.6525 10.64 18.1999 9.54804C17.7474 8.45611 17.0841 7.46395 16.2478 6.62823C15.4116 5.7925 14.4189 5.12956 13.3263 4.67727C12.2338 4.22498 11.0628 3.99219 9.8802 3.99219C7.49188 3.99219 5.20137 4.9404 3.51256 6.62823C1.82376 8.31605 0.875 10.6052 0.875 12.9922C0.875 15.3791 1.82376 17.6683 3.51256 19.3561C5.20137 21.044 7.49188 21.9922 9.8802 21.9922Z" fill="#3B3B3F"/>
</svg>
