<svg width="25" height="24" viewBox="0 0 25 24" fill="none" xmlns="http://www.w3.org/2000/svg">
<path d="M4.642 17.1418C4.7977 17.2981 4.917 17.4868 4.99141 17.6945C5.06582 17.9021 5.09351 18.1237 5.0725 18.3433C4.96682 19.3596 4.76696 20.3639 4.4755 21.3433C6.568 20.8588 7.846 20.2978 8.4265 20.0038C8.75576 19.837 9.13493 19.7975 9.4915 19.8928C10.5134 20.1663 11.5671 20.3035 12.625 20.3008C18.619 20.3008 23.125 16.0903 23.125 11.3008C23.125 6.51128 18.619 2.30078 12.625 2.30078C6.631 2.30078 2.125 6.51278 2.125 11.3008C2.125 13.5028 3.0505 15.5458 4.642 17.1418ZM3.9025 22.9993C3.54709 23.0696 3.19054 23.1342 2.833 23.1928C2.533 23.2408 2.305 22.9288 2.4235 22.6498C2.55633 22.3355 2.6784 22.0169 2.7895 21.6943L2.794 21.6793C3.166 20.5993 3.469 19.3573 3.58 18.2008C1.7395 16.3558 0.625 13.9408 0.625 11.3008C0.625 5.50178 5.998 0.800781 12.625 0.800781C19.252 0.800781 24.625 5.50178 24.625 11.3008C24.625 17.0998 19.252 21.8008 12.625 21.8008C11.4364 21.8034 10.2527 21.6491 9.1045 21.3418C8.3245 21.7363 6.646 22.4548 3.9025 22.9993Z" fill="#3B3B3F"/>
<path d="M11.224 9.441C10.9318 8.98597 10.4999 8.63807 9.993 8.44959C9.48615 8.2611 8.93181 8.24222 8.41331 8.39578C7.8948 8.54933 7.44015 8.86703 7.11767 9.30112C6.79519 9.73521 6.62232 10.2622 6.62503 10.803C6.6253 11.2508 6.74582 11.6903 6.97399 12.0756C7.20217 12.4609 7.52963 12.7779 7.92217 12.9934C8.31471 13.2089 8.75791 13.315 9.20548 13.3007C9.65306 13.2864 10.0886 13.1522 10.4665 12.912C10.27 13.4955 9.90403 14.118 9.30103 14.742C9.18566 14.8613 9.12243 15.0216 9.12524 15.1876C9.12664 15.2698 9.1442 15.3509 9.17694 15.4263C9.20967 15.5017 9.25694 15.5699 9.31603 15.627C9.37513 15.6841 9.44489 15.729 9.52135 15.7592C9.59781 15.7894 9.67946 15.8042 9.76164 15.8028C9.92761 15.8 10.0857 15.7313 10.201 15.612C12.43 13.302 12.1405 10.791 11.224 9.444V9.441ZM17.224 9.441C16.9318 8.98597 16.4999 8.63807 15.993 8.44959C15.4862 8.2611 14.9318 8.24222 14.4133 8.39578C13.8948 8.54933 13.4401 8.86703 13.1177 9.30112C12.7952 9.73521 12.6223 10.2622 12.625 10.803C12.6253 11.2508 12.7458 11.6903 12.974 12.0756C13.2022 12.4609 13.5296 12.7779 13.9222 12.9934C14.3147 13.2089 14.7579 13.315 15.2055 13.3007C15.6531 13.2864 16.0886 13.1522 16.4665 12.912C16.27 13.4955 15.904 14.118 15.301 14.742C15.2439 14.8011 15.199 14.8709 15.1688 14.9473C15.1387 15.0238 15.1238 15.1054 15.1252 15.1876C15.1266 15.2698 15.1442 15.3509 15.1769 15.4263C15.2097 15.5017 15.2569 15.5699 15.316 15.627C15.3751 15.6841 15.4449 15.729 15.5214 15.7592C15.5978 15.7894 15.6795 15.8042 15.7616 15.8028C15.8438 15.8014 15.9249 15.7838 16.0003 15.7511C16.0757 15.7184 16.1439 15.6711 16.201 15.612C18.43 13.302 18.1405 10.791 17.224 9.444V9.441Z" fill="#3B3B3F"/>
</svg>
