<svg width="25" height="24" viewBox="0 0 25 24" fill="none" xmlns="http://www.w3.org/2000/svg">
<path d="M10.175 6.20045C10.175 6.26765 10.1782 6.33485 10.1838 6.40045H8.575C8.52196 6.40045 8.47109 6.42152 8.43358 6.45903C8.39607 6.49654 8.375 6.54741 8.375 6.60045V15.8005C8.375 15.9109 8.4646 16.0005 8.575 16.0005H16.175C16.228 16.0005 16.2789 15.9794 16.3164 15.9419C16.3539 15.9044 16.375 15.8535 16.375 15.8005V6.60045C16.375 6.54741 16.3539 6.49654 16.3164 6.45903C16.2789 6.42152 16.228 6.40045 16.175 6.40045H14.5662C14.5927 6.1046 14.5591 5.80643 14.4673 5.52393C14.3755 5.24143 14.2274 4.98045 14.032 4.75672C13.8366 4.53299 13.5979 4.35115 13.3303 4.22216C13.0628 4.09317 12.7718 4.0197 12.4751 4.00618C12.1784 3.99267 11.882 4.03939 11.6038 4.14352C11.3256 4.24765 11.0713 4.40704 10.8564 4.61208C10.6415 4.81712 10.4703 5.06356 10.3532 5.33655C10.2361 5.60953 10.1755 5.90341 10.175 6.20045ZM13.775 6.20045C13.775 6.26845 13.7702 6.33485 13.7606 6.40045H10.9894C10.9619 6.21011 10.9739 6.01614 11.0247 5.83064C11.0754 5.64514 11.1639 5.47209 11.2845 5.32227C11.4051 5.17246 11.5552 5.04911 11.7256 4.9599C11.896 4.87069 12.0829 4.81754 12.2747 4.80377C12.4666 4.78999 12.6592 4.81589 12.8406 4.87985C13.0219 4.9438 13.1882 5.04444 13.3289 5.17548C13.4697 5.30653 13.582 5.46517 13.6587 5.64152C13.7355 5.81786 13.775 6.00813 13.775 6.20045ZM5.175 7.20045C5.175 6.98828 5.25929 6.7848 5.40931 6.63477C5.55934 6.48474 5.76283 6.40045 5.975 6.40045H7.375C7.42804 6.40045 7.47891 6.42152 7.51642 6.45903C7.55393 6.49654 7.575 6.54741 7.575 6.60045V15.8005C7.575 15.8535 7.55393 15.9044 7.51642 15.9419C7.47891 15.9794 7.42804 16.0005 7.375 16.0005H5.975C5.76283 16.0005 5.55934 15.9162 5.40931 15.7661C5.25929 15.6161 5.175 15.4126 5.175 15.2005V7.20045ZM17.375 16.0005C17.322 16.0005 17.2711 15.9794 17.2336 15.9419C17.1961 15.9044 17.175 15.8535 17.175 15.8005V6.60045C17.175 6.54741 17.1961 6.49654 17.2336 6.45903C17.2711 6.42152 17.322 6.40045 17.375 6.40045H18.775C18.9872 6.40045 19.1907 6.48474 19.3407 6.63477C19.4907 6.7848 19.575 6.98828 19.575 7.20045V15.2005C19.575 15.4126 19.4907 15.6161 19.3407 15.7661C19.1907 15.9162 18.9872 16.0005 18.775 16.0005H17.375ZM19.975 17.6005C20.0811 17.6005 20.1828 17.6426 20.2578 17.7176C20.3329 17.7926 20.375 17.8944 20.375 18.0005C20.375 18.1065 20.3329 18.2083 20.2578 18.2833C20.1828 18.3583 20.0811 18.4005 19.975 18.4005H17.975C17.975 18.6126 17.8907 18.8161 17.7407 18.9661C17.5907 19.1162 17.3872 19.2005 17.175 19.2005C16.9628 19.2005 16.7593 19.1162 16.6093 18.9661C16.4593 18.8161 16.375 18.6126 16.375 18.4005H14.775C14.775 18.6126 14.6907 18.8161 14.5407 18.9661C14.3907 19.1162 14.1872 19.2005 13.975 19.2005C13.7628 19.2005 13.5593 19.1162 13.4093 18.9661C13.2593 18.8161 13.175 18.6126 13.175 18.4005H11.575C11.575 18.6126 11.4907 18.8161 11.3407 18.9661C11.1907 19.1162 10.9872 19.2005 10.775 19.2005C10.5628 19.2005 10.3593 19.1162 10.2093 18.9661C10.0593 18.8161 9.975 18.6126 9.975 18.4005H8.375C8.375 18.6126 8.29071 18.8161 8.14069 18.9661C7.99066 19.1162 7.78717 19.2005 7.575 19.2005C7.36283 19.2005 7.15934 19.1162 7.00931 18.9661C6.85929 18.8161 6.775 18.6126 6.775 18.4005H4.775C4.66891 18.4005 4.56717 18.3583 4.49216 18.2833C4.41714 18.2083 4.375 18.1065 4.375 18.0005C4.375 17.8944 4.41714 17.7926 4.49216 17.7176C4.56717 17.6426 4.66891 17.6005 4.775 17.6005H19.975Z" fill="#3B3B3F"/>
<path d="M4.375 0C3.84971 0 3.32957 0.103463 2.84427 0.304482C2.35896 0.505501 1.91801 0.800139 1.54657 1.17157C0.796427 1.92172 0.375 2.93913 0.375 4V20C0.375 21.0609 0.796427 22.0783 1.54657 22.8284C1.91801 23.1999 2.35896 23.4945 2.84427 23.6955C3.32957 23.8965 3.84971 24 4.375 24H20.375C21.4359 24 22.4533 23.5786 23.2034 22.8284C23.9536 22.0783 24.375 21.0609 24.375 20V4C24.375 3.47471 24.2715 2.95457 24.0705 2.46927C23.8695 1.98396 23.5749 1.54301 23.2034 1.17157C22.832 0.800139 22.391 0.505501 21.9057 0.304482C21.4204 0.103463 20.9003 0 20.375 0H4.375ZM1.975 4C1.975 3.36348 2.22786 2.75303 2.67794 2.30294C3.12803 1.85286 3.73848 1.6 4.375 1.6H20.375C21.0115 1.6 21.622 1.85286 22.0721 2.30294C22.5221 2.75303 22.775 3.36348 22.775 4V20C22.775 20.6365 22.5221 21.247 22.0721 21.6971C21.622 22.1471 21.0115 22.4 20.375 22.4H4.375C3.73848 22.4 3.12803 22.1471 2.67794 21.6971C2.22786 21.247 1.975 20.6365 1.975 20V4Z" fill="#3B3B3F"/>
</svg>
