<svg width="48" height="37" viewBox="0 0 48 37" fill="none" xmlns="http://www.w3.org/2000/svg">
<path d="M0 37V26.4137C0 23.3693 0.566524 20.2038 1.69957 16.9173C2.86695 13.5961 4.44635 10.4652 6.43777 7.52455C8.46352 4.54933 10.7296 2.04114 13.2361 0L21.8884 5.65638C19.8627 8.73539 18.1631 11.9528 16.7897 15.3086C15.4506 18.6297 14.7983 22.2969 14.8326 26.31V37H0ZM26.1116 37V26.4137C26.1116 23.3693 26.6781 20.2038 27.8112 16.9173C28.9785 13.5961 30.5579 10.4652 32.5494 7.52455C34.5751 4.54933 36.8412 2.04114 39.3476 0L48 5.65638C45.9743 8.73539 44.2747 11.9528 42.9013 15.3086C41.5622 18.6297 40.9099 22.2969 40.9442 26.31V37H26.1116Z" fill="white"/>
</svg>
