<svg width="44" height="44" viewBox="0 0 44 44" fill="none" xmlns="http://www.w3.org/2000/svg">
<g clip-path="url(#clip0_7008_6188)">
<path d="M9.16699 24.7513H34.8337M22.0003 24.7513V44.0013M11.917 20.168V11.918H9.76833C8.54739 11.918 7.36116 12.3242 6.39656 13.0727C5.43197 13.8213 4.74386 14.8694 4.44066 16.0521L0.916992 29.793V30.2513H13.7503V33.0013C13.7503 35.7513 13.7503 37.5846 15.1253 40.3346C15.1253 40.3346 16.5003 43.0846 18.3337 43.0846M32.0837 20.168V11.918H34.2323C35.4533 11.918 36.6395 12.3242 37.6041 13.0727C38.5687 13.8213 39.2568 14.8694 39.56 16.0521L43.0837 29.793V30.2513H30.2503V33.0013C30.2503 35.7513 30.2503 37.5846 28.8753 40.3346C28.8753 40.3346 27.5003 43.0846 25.667 43.0846M11.642 8.2513C11.642 8.2513 8.70866 6.41797 8.70866 4.1263C8.70866 3.27637 9.04629 2.46125 9.64728 1.86026C10.2483 1.25927 11.0634 0.921635 11.9133 0.921635C12.7633 0.921635 13.5784 1.25927 14.1794 1.86026C14.7804 2.46125 15.118 3.27637 15.118 4.1263C15.118 6.41797 12.192 8.2513 12.192 8.2513H11.642ZM32.3587 8.2513C32.3587 8.2513 35.292 6.41797 35.292 4.1263C35.292 3.2754 34.954 2.45935 34.3523 1.85767C33.7506 1.25599 32.9346 0.917969 32.0837 0.917969C30.3127 0.917969 28.8827 2.3553 28.8827 4.1263C28.8827 6.41797 31.8087 8.2513 31.8087 8.2513H32.3587Z" stroke="#FF6600"/>
</g>
<defs>
<clipPath id="clip0_7008_6188">
<rect width="44" height="44" fill="white"/>
</clipPath>
</defs>
</svg>
