<svg width="44" height="44" viewBox="0 0 44 44" fill="none" xmlns="http://www.w3.org/2000/svg">
<path fill-rule="evenodd" clip-rule="evenodd" d="M22 23.8333C27.0646 23.8333 31.1667 19.7313 31.1667 14.6667C31.1667 9.60208 27.0646 5.5 22 5.5C16.9354 5.5 12.8333 9.60208 12.8333 14.6667C12.8333 19.7313 16.9354 23.8333 22 23.8333ZM29.3333 14.6667C29.3333 18.7183 26.0517 22 22 22C17.9483 22 14.6667 18.7183 14.6667 14.6667C14.6667 10.615 17.9483 7.33333 22 7.33333C26.0517 7.33333 29.3333 10.615 29.3333 14.6667ZM26.6154 25.5512L23.8333 33.4987V33L23.3062 29.3141C23.4745 29.2786 23.6294 29.1966 23.7533 29.0773C23.8771 28.958 23.9649 28.8062 24.0066 28.6394L24.4649 26.8061C24.4988 26.671 24.5014 26.53 24.4726 26.3937C24.4438 26.2575 24.3843 26.1296 24.2987 26.0198C24.2131 25.9099 24.1035 25.821 23.9784 25.7599C23.8533 25.6987 23.7159 25.6668 23.5767 25.6667H20.4252C20.2859 25.6667 20.1485 25.6985 20.0234 25.7595C19.8983 25.8206 19.7887 25.9094 19.703 26.0191C19.6173 26.1288 19.5577 26.2567 19.5288 26.3929C19.4998 26.5291 19.5023 26.6701 19.536 26.8052L19.9943 28.6385C20.0359 28.8055 20.1236 28.9574 20.2475 29.0769C20.3713 29.1964 20.5263 29.2786 20.6947 29.3141L20.1795 32.9184L17.38 25.5411L17.3617 25.5017C17.2264 25.224 17.0004 25.0007 16.721 24.8689C16.4417 24.737 16.1257 24.7045 15.8253 24.7766C15.5128 24.8527 15.1681 24.9324 14.8042 25.0186C13.9452 25.2193 12.9763 25.4458 12.0578 25.7015C10.7626 26.0627 9.42058 26.5173 8.48833 27.1297C6.77142 28.2572 5.5 29.7486 5.5 31.625V38.5H38.5V31.625C38.5 29.7486 37.2295 28.2563 35.5117 27.1297C34.5803 26.5173 33.2383 26.0627 31.9431 25.7015C31.0324 25.455 30.1168 25.2274 29.1968 25.0186C28.856 24.9395 28.5156 24.8588 28.1756 24.7766C27.8753 24.7047 27.5596 24.7374 27.2804 24.8692C27.0013 25.001 26.7754 25.2241 26.6402 25.5017L26.6154 25.5512ZM28.8237 26.8143L28.1701 26.6603L24.6666 36.6667H36.6667V31.625C36.6667 30.6662 36.0213 29.6569 34.5061 28.6623C33.8333 28.2196 32.7369 27.8254 31.4518 27.4679C30.5807 27.2319 29.7038 27.014 28.8237 26.8143ZM15.8418 26.6576L19.6396 36.6667H7.33333V31.625C7.33333 30.6662 7.97867 29.6569 9.49392 28.6623C10.1668 28.2196 11.2631 27.8254 12.5483 27.4679C13.4193 27.2316 14.2952 27.0137 15.1754 26.8143L15.8418 26.6576Z" fill="#FF6600"/>
</svg>
