<svg width="44" height="44" viewBox="0 0 44 44" fill="none" xmlns="http://www.w3.org/2000/svg">
<path d="M22.0003 40.3346L18.3337 29.3346H3.66699L7.33366 40.3346H22.0003ZM22.0003 40.3346H29.3337M22.0003 23.8346V22.918C22.0003 19.4603 22.0003 17.7333 20.926 16.659C19.8517 15.5846 18.1247 15.5846 14.667 15.5846C11.2093 15.5846 9.48233 15.5846 8.40799 16.659C7.33366 17.7333 7.33366 19.4603 7.33366 22.918V23.8346M25.667 32.0846H36.667C37.6395 32.0846 38.5721 32.4709 39.2597 33.1586C39.9474 33.8462 40.3337 34.7788 40.3337 35.7513V36.668C40.3337 37.6404 39.9474 38.5731 39.2597 39.2607C38.5721 39.9483 37.6395 40.3346 36.667 40.3346H34.8337M34.8337 23.8346C34.8337 24.8071 34.4474 25.7397 33.7597 26.4274C33.0721 27.115 32.1395 27.5013 31.167 27.5013C30.1945 27.5013 29.2619 27.115 28.5743 26.4274C27.8866 25.7397 27.5003 24.8071 27.5003 23.8346C27.5003 22.8622 27.8866 21.9295 28.5743 21.2419C29.2619 20.5543 30.1945 20.168 31.167 20.168C32.1395 20.168 33.0721 20.5543 33.7597 21.2419C34.4474 21.9295 34.8337 22.8622 34.8337 23.8346ZM18.3337 7.33464C18.3337 8.3071 17.9474 9.23973 17.2597 9.92736C16.5721 10.615 15.6395 11.0013 14.667 11.0013C13.6945 11.0013 12.7619 10.615 12.0743 9.92736C11.3866 9.23973 11.0003 8.3071 11.0003 7.33464C11.0003 6.36217 11.3866 5.42954 12.0743 4.74191C12.7619 4.05428 13.6945 3.66797 14.667 3.66797C15.6395 3.66797 16.5721 4.05428 17.2597 4.74191C17.9474 5.42954 18.3337 6.36217 18.3337 7.33464Z" stroke="#FF6600" stroke-linecap="round" stroke-linejoin="round"/>
</svg>
