<svg width="44" height="45" viewBox="0 0 44 45" fill="none" xmlns="http://www.w3.org/2000/svg">
<path d="M5.5 18.8346C5.5 17.1058 5.5 16.2423 6.03717 15.7051C6.57433 15.168 7.43783 15.168 9.16667 15.168H34.8333C36.5622 15.168 37.4257 15.168 37.9628 15.7051C38.5 16.2423 38.5 17.1058 38.5 18.8346V21.5846C38.5 22.439 38.5 22.8661 38.3607 23.2035C38.1742 23.6518 37.8175 24.0078 37.3688 24.1935C37.0315 24.3346 36.6043 24.3346 35.75 24.3346C34.8957 24.3346 34.4685 24.3346 34.1312 24.474C33.6828 24.6604 33.3268 25.0171 33.1412 25.4658C33 25.8031 33 26.2303 33 27.0846V33.5013C33 35.2301 33 36.0936 32.4628 36.6308C31.9257 37.168 31.0622 37.168 29.3333 37.168H14.6667C12.9378 37.168 12.0743 37.168 11.5372 36.6308C11 36.0936 11 35.2301 11 33.5013V27.0846C11 26.2303 11 25.8031 10.8607 25.4658C10.6742 25.0175 10.3175 24.6614 9.86883 24.4758C9.5315 24.3346 9.10433 24.3346 8.25 24.3346C7.39567 24.3346 6.9685 24.3346 6.63117 24.1953C6.18285 24.0088 5.8268 23.6521 5.64117 23.2035C5.5 22.8661 5.5 22.439 5.5 21.5846V18.8346Z" stroke="#FF6600"/>
<path d="M9.16699 24.3329H34.8337M22.0003 13.3329V37.1662M22.0003 13.3329L20.3888 11.7214C18.4348 9.76635 16.052 8.29372 13.4295 7.42038C12.9428 7.25798 12.4245 7.21357 11.9173 7.2908C11.41 7.36804 10.9284 7.56472 10.5121 7.86463C10.0958 8.16454 9.75678 8.55909 9.52291 9.01576C9.28904 9.47243 9.16705 9.97814 9.16699 10.4912V10.8249C9.16699 12.3227 10.1258 13.6519 11.5448 14.1249L14.667 15.1662M22.0003 13.3329L23.6118 11.7214C25.5658 9.76635 27.9486 8.29372 30.5712 7.42038C31.0578 7.25798 31.5762 7.21357 32.0834 7.2908C32.5906 7.36804 33.0722 7.56472 33.4885 7.86463C33.9048 8.16454 34.2439 8.55909 34.4777 9.01576C34.7116 9.47243 34.8336 9.97814 34.8337 10.4912V10.8249C34.8337 12.3227 33.8748 13.6519 32.4558 14.1249L29.3337 15.1662" stroke="#FF6600" stroke-linecap="round"/>
</svg>
