<svg width="44" height="44" viewBox="0 0 44 44" fill="none" xmlns="http://www.w3.org/2000/svg">
<path d="M12.6656 14.1417C14.3327 14.1417 15.9315 13.4795 17.1103 12.3007C18.2891 11.1219 18.9513 9.5231 18.9513 7.85603C18.9513 6.18895 18.2891 4.59016 17.1103 3.41136C15.9315 2.23256 14.3327 1.57031 12.6656 1.57031C10.9985 1.57031 9.39973 2.23256 8.22093 3.41136C7.04213 4.59016 6.37988 6.18895 6.37988 7.85603C6.37988 9.5231 7.04213 11.1219 8.22093 12.3007C9.39973 13.4795 10.9985 14.1417 12.6656 14.1417Z" stroke="#FF6600" stroke-linecap="round" stroke-linejoin="round"/>
<path d="M17.9641 33.0754L16.795 42.4286H8.57011L6.99868 29.8572H1.66211V25.1429C1.66253 22.399 2.68844 19.7543 4.53849 17.7279C6.38854 15.7015 8.92914 14.4397 11.6617 14.1901C14.3942 13.9406 17.1213 14.7213 19.3078 16.379C21.4944 18.0368 22.9824 20.4519 23.4798 23.1503M28.8384 28.5623V26.5194C28.8384 25.6859 29.1695 24.8865 29.7589 24.2971C30.3483 23.7077 31.1477 23.3766 31.9813 23.3766H33.2761C34.1096 23.3766 34.909 23.7077 35.4984 24.2971C36.0878 24.8865 36.419 25.6859 36.419 26.5194V28.5623M22.9267 31.3343C22.9267 29.8037 24.1681 28.5623 25.6987 28.5623H39.565C41.0955 28.5623 42.337 29.8037 42.337 31.3374V39.6566C42.3378 40.0208 42.2667 40.3817 42.1277 40.7184C41.9886 41.0551 41.7845 41.361 41.5269 41.6185C41.2693 41.8761 40.9634 42.0803 40.6267 42.2193C40.2901 42.3583 39.9292 42.4294 39.565 42.4286H25.6987C25.3344 42.4294 24.9736 42.3583 24.6369 42.2193C24.3002 42.0803 23.9943 41.8761 23.7367 41.6185C23.4792 41.361 23.275 41.0551 23.136 40.7184C22.997 40.3817 22.9259 40.0208 22.9267 39.6566V31.3343Z" stroke="#FF6600" stroke-linecap="round" stroke-linejoin="round"/>
</svg>
