<svg width="24" height="24" viewBox="0 0 24 24" fill="none" xmlns="http://www.w3.org/2000/svg">
<g clip-path="url(#clip0_7039_9059)">
<path d="M6.90904 7.71261C7.81835 7.71261 8.69042 7.35139 9.33341 6.70841C9.97639 6.06542 10.3376 5.19335 10.3376 4.28404C10.3376 3.37473 9.97639 2.50266 9.33341 1.85967C8.69042 1.21669 7.81835 0.855469 6.90904 0.855469C5.99973 0.855469 5.12766 1.21669 4.48467 1.85967C3.84169 2.50266 3.48047 3.37473 3.48047 4.28404C3.48047 5.19335 3.84169 6.06542 4.48467 6.70841C5.12766 7.35139 5.99973 7.71261 6.90904 7.71261Z" stroke="#00003E" stroke-linecap="round" stroke-linejoin="round"/>
<path d="M9.79923 18.0408L9.16151 23.1425H4.67523L3.81808 16.2854H0.907227V13.7139C0.907456 12.2173 1.46704 10.7747 2.47616 9.66941C3.48528 8.5641 4.87106 7.87585 6.36153 7.73972C7.852 7.6036 9.33953 8.02944 10.5322 8.93367C11.7248 9.83789 12.5365 11.1552 12.8078 12.6271M15.7307 15.5791V14.4648C15.7307 14.0101 15.9113 13.5741 16.2328 13.2526C16.5542 12.9311 16.9903 12.7505 17.4449 12.7505H18.1512C18.6059 12.7505 19.0419 12.9311 19.3634 13.2526C19.6849 13.5741 19.8655 14.0101 19.8655 14.4648V15.5791M12.5061 17.0911C12.5061 16.2562 13.1832 15.5791 14.0181 15.5791H21.5815C22.4164 15.5791 23.0935 16.2562 23.0935 17.0928V21.6305C23.094 21.8292 23.0552 22.026 22.9793 22.2097C22.9035 22.3933 22.7922 22.5602 22.6517 22.7007C22.5112 22.8412 22.3443 22.9525 22.1607 23.0283C21.977 23.1042 21.7802 23.143 21.5815 23.1425H14.0181C13.8194 23.143 13.6226 23.1042 13.4389 23.0283C13.2553 22.9525 13.0884 22.8412 12.9479 22.7007C12.8074 22.5602 12.6961 22.3933 12.6203 22.2097C12.5444 22.026 12.5056 21.8292 12.5061 21.6305V17.0911Z" stroke="#00003E" stroke-linecap="round" stroke-linejoin="round"/>
</g>
<defs>
<clipPath id="clip0_7039_9059">
<rect width="24" height="24" fill="white"/>
</clipPath>
</defs>
</svg>
