<svg width="24" height="24" viewBox="0 0 24 24" fill="none" xmlns="http://www.w3.org/2000/svg">
<path d="M8.02439 10.2728H15.9758C16.157 10.2728 16.3039 10.1259 16.3039 9.9447C16.3039 8.26166 14.8958 6.91377 13.3054 6.41628C13.8055 6.02656 14.1281 5.41911 14.1281 4.73741C14.1281 3.56403 13.1735 2.60938 12.0001 2.60938C10.8267 2.60938 9.87206 3.56403 9.87206 4.73741C9.87206 5.41911 10.1947 6.02652 10.6948 6.41628C9.10449 6.91381 7.69631 8.26166 7.69631 9.9447C7.69631 10.1259 7.84317 10.2728 8.02439 10.2728ZM10.5283 4.73741C10.5283 3.92586 11.1885 3.26563 12 3.26563C12.8116 3.26563 13.4718 3.92586 13.4718 4.73741C13.4718 5.54895 12.8116 6.20919 12 6.20919C11.1885 6.20919 10.5283 5.54895 10.5283 4.73741ZM9.53274 7.75592C10.2399 7.19834 11.1623 6.86548 12.0001 6.86548C12.8379 6.86548 13.7603 7.19839 14.4674 7.75592C15.1252 8.2745 15.5276 8.92559 15.6247 9.61658H8.37548C8.47256 8.92559 8.87494 8.2745 9.53274 7.75592ZM23.2501 13.5815H16.3039V11.75C16.3039 11.5688 16.157 11.4219 15.9758 11.4219H8.02439C7.84317 11.4219 7.69627 11.5688 7.69627 11.75V13.5815H0.750047C0.568828 13.5815 0.421922 13.7284 0.421922 13.9096V21.0617C0.421922 21.2429 0.568828 21.3898 0.750047 21.3898H23.25C23.4313 21.3898 23.5782 21.2429 23.5782 21.0617V13.9096C23.5782 13.7284 23.4313 13.5815 23.25 13.5815H23.2501ZM1.07822 14.2378H7.69627V20.7336H1.07817L1.07822 14.2378ZM15.6476 20.7336H8.35252V12.0782H15.6476V20.7336ZM22.922 20.7336H16.3039V14.2378H22.922V20.7336ZM17.2845 12.2484H23.2501C23.4313 12.2484 23.5782 12.1015 23.5782 11.9202C23.5782 10.6696 22.575 9.65905 21.4092 9.24223C21.739 8.93553 21.9458 8.49833 21.9458 8.0135C21.9458 7.08795 21.1929 6.33495 20.2673 6.33495C19.3417 6.33495 18.5888 7.08791 18.5888 8.0135C18.5888 8.49833 18.7957 8.93553 19.1255 9.24223C17.9596 9.65905 16.9564 10.6696 16.9564 11.9202C16.9564 12.1015 17.1033 12.2484 17.2845 12.2484ZM19.245 8.0135C19.245 7.44983 19.7036 6.9912 20.2673 6.9912C20.831 6.9912 21.2896 7.44978 21.2896 8.0135C21.2896 8.57722 20.831 9.03575 20.2673 9.03575C19.7036 9.03575 19.245 8.57717 19.245 8.0135ZM20.2673 9.692C21.3856 9.692 22.6694 10.4997 22.8892 11.5921H17.6455C17.8653 10.4997 19.149 9.692 20.2673 9.692ZM0.750047 12.2484H6.71559C6.89681 12.2484 7.04372 12.1015 7.04372 11.9203C7.04372 10.6697 6.0405 9.65914 4.87472 9.24228C5.20448 8.93558 5.41134 8.49837 5.41134 8.01355C5.41134 7.088 4.65839 6.335 3.73284 6.335C2.8073 6.335 2.0543 7.08795 2.0543 8.01355C2.0543 8.49837 2.26116 8.93558 2.59092 9.24228C1.42509 9.65909 0.421875 10.6697 0.421875 11.9202C0.421875 12.1015 0.568781 12.2484 0.75 12.2484L0.750047 12.2484ZM2.71055 8.01355C2.71055 7.44987 3.16913 6.99125 3.73284 6.99125C4.29656 6.99125 4.75509 7.44983 4.75509 8.01355C4.75509 8.57727 4.29698 9.03528 3.73378 9.0358C3.7335 9.0358 3.73317 9.0358 3.73284 9.0358C3.73252 9.0358 3.73223 9.0358 3.73191 9.0358C3.16866 9.03528 2.71055 8.57694 2.71055 8.01355ZM3.73186 9.69205C3.73219 9.69205 3.73252 9.69205 3.73284 9.69205C3.73317 9.69205 3.7335 9.69205 3.73383 9.69205C4.85189 9.69252 6.13495 10.5 6.35466 11.5922H1.11098C1.33069 10.5 2.61375 9.69252 3.73186 9.69205ZM10.9064 14.5772C10.9064 14.396 11.0533 14.249 11.2345 14.249H12C12.1813 14.249 12.3282 14.396 12.3282 14.5772V18.2345C12.3282 18.4158 12.1813 18.5627 12 18.5627C11.8188 18.5627 11.6719 18.4158 11.6719 18.2345V14.9053H11.2345C11.0533 14.9053 10.9064 14.7584 10.9064 14.5772Z" fill="url(#paint0_linear_9008_7250)"/>
<defs>
<linearGradient id="paint0_linear_9008_7250" x1="12" y1="2.60938" x2="12" y2="21.3898" gradientUnits="userSpaceOnUse">
<stop stop-color="#167FFC"/>
<stop offset="0.41" stop-color="#FE9526"/>
<stop offset="1" stop-color="#595BD4"/>
</linearGradient>
</defs>
</svg>
