<svg width="24" height="24" viewBox="0 0 24 24" fill="none" xmlns="http://www.w3.org/2000/svg">
<g clip-path="url(#clip0_9008_7246)">
<path d="M15.2097 4.36768C15.1784 5.33163 15.5336 6.26109 16.2098 6.98464C16.779 7.59387 17.1182 8.32799 17.1853 9.07728H17.1276C16.9382 9.07728 16.7847 9.23079 16.7847 9.42013V10.6136C16.7847 10.8029 16.9382 10.9565 17.1276 10.9565H21.3913C21.5807 10.9565 21.7342 10.8029 21.7342 10.6136V9.42013C21.7342 9.23079 21.5807 9.07728 21.3913 9.07728H21.3338C21.4013 8.32951 21.7421 7.59362 22.3136 6.97995C22.9568 6.28938 23.311 5.40361 23.311 4.4857C23.311 3.48007 22.8962 2.53219 22.1429 1.81684C21.3276 1.04273 20.1972 0.634586 19.0304 0.693012C16.9513 0.800322 15.273 2.41433 15.2097 4.36768ZM21.0485 10.2707H17.4704V9.76299H17.5422H20.9767H21.0485V10.2707ZM19.2594 6.15261C18.7968 6.15261 18.4205 5.78514 18.4205 5.3333C18.4205 4.88146 18.7968 4.51383 19.2594 4.51383C19.7219 4.51383 20.0983 4.88146 20.0983 5.3333C20.0983 5.78514 19.7219 6.15261 19.2594 6.15261ZM19.0658 1.37772C20.0413 1.32733 20.9909 1.66868 21.6708 2.31405C22.2863 2.89865 22.6253 3.66991 22.6253 4.4857C22.6253 5.22951 22.3364 5.94937 21.8117 6.51254C21.1203 7.25501 20.7117 8.15652 20.6439 9.07728H19.6022V6.79664C20.2778 6.64222 20.784 6.04639 20.784 5.3333C20.784 4.50328 20.1001 3.82811 19.2594 3.82811C18.4186 3.82811 17.7348 4.50328 17.7348 5.3333C17.7348 6.04639 18.241 6.64222 18.9165 6.79664V9.07728H17.8751C17.8078 8.15451 17.4003 7.25434 16.7107 6.51656C16.1594 5.92644 15.8698 5.17125 15.8951 4.38978C15.9468 2.78983 17.3397 1.46678 19.0658 1.37772ZM1.03036 23.3156H6.45053L6.45162 23.3157L6.45254 23.3156H9.10633L9.10725 23.3157L9.10834 23.3156H14.5285C14.7179 23.3156 14.8714 23.162 14.8714 22.9727V18.8579C14.8714 16.6618 13.5975 14.8729 12.018 14.8204C12.0056 14.8199 11.9934 14.817 11.981 14.8178C11.9697 14.8176 11.9587 14.8154 11.9474 14.8154C11.9199 14.8154 11.8925 14.8188 11.8658 14.8253C9.1543 15.4894 6.40458 15.4894 3.69302 14.8253C3.66641 14.8188 3.63895 14.8154 3.6115 14.8154C3.60017 14.8154 3.58925 14.8176 3.57795 14.8178C3.56523 14.8169 3.55269 14.8199 3.5398 14.8205C1.96076 14.8738 0.6875 16.6623 0.6875 18.8579V22.9727C0.6875 23.162 0.841016 23.3156 1.03036 23.3156ZM6.74224 17.145L6.15363 16.4594L6.48309 16.13L7.23627 16.7433L6.74224 17.145ZM7.30759 19.1184L7.512 18.5457H8.04721L8.24375 19.0938C8.39676 19.6519 8.48064 20.2252 8.49353 20.7999L7.77952 21.4108L7.06551 20.7999C7.0784 20.2253 7.16161 19.6541 7.30759 19.1184ZM8.32277 16.7433L9.07578 16.13L9.40541 16.4594L8.8168 17.145L8.32277 16.7433ZM8.06726 17.4193L7.99782 17.86H7.56071L7.49111 17.4199L7.77952 17.1854L8.06726 17.4193ZM5.42639 16.665L6.4394 17.8449C6.5072 17.9238 6.60312 17.9644 6.69972 17.9644C6.76066 17.9644 6.81998 17.9436 6.87452 17.9107L6.91633 18.1748L6.65402 18.9127C6.47087 19.5805 6.37812 20.268 6.37812 20.9562C6.37812 21.0564 6.42199 21.1516 6.49816 21.2167L7.5567 22.1224C7.62081 22.1773 7.70017 22.2048 7.77952 22.2048C7.85887 22.2048 7.93822 22.1773 8.00234 22.1224L9.06088 21.2167C9.13705 21.1516 9.18091 21.0564 9.18091 20.9562C9.18091 20.268 9.08817 19.5805 8.89732 18.8879L8.64244 18.174L8.68398 17.9104C8.73862 17.9435 8.79819 17.9644 8.85932 17.9644C8.95591 17.9644 9.05184 17.9238 9.11964 17.8449L10.1326 16.665C10.2493 16.5291 10.2416 16.326 10.1149 16.1993L9.80544 15.8898C10.3616 15.8253 10.9167 15.7286 11.4709 15.6109L8.86874 22.6298H6.69014L4.08799 15.6109C4.64216 15.7286 5.19731 15.8253 5.75352 15.8898L5.44414 16.1993C5.31741 16.326 5.30971 16.5291 5.42639 16.665ZM14.1857 18.8579V22.6298H9.59999L12.2323 15.5296C13.3323 15.7402 14.1857 17.1519 14.1857 18.8579ZM8.15176 15.9982L7.7795 16.3014L7.4072 15.9982C7.65541 16.0035 7.90355 16.0035 8.15176 15.9982ZM1.37321 18.8579C1.37321 17.1519 2.22655 15.7402 3.3266 15.5296L5.95889 22.6298H1.37321V18.8579ZM7.77952 14.7485C10.6643 14.7485 13.1949 12.1 13.1949 9.08096C13.1949 8.81076 13.1666 8.54736 13.1249 8.28819C13.1232 8.27121 13.1266 8.25472 13.1223 8.23771C13.1207 8.23141 13.1161 8.227 13.1141 8.22089C12.6844 5.76861 10.4592 3.89223 7.77952 3.89223C4.79342 3.89223 2.36412 6.21991 2.36412 9.08096C2.36412 12.1 4.8947 14.7485 7.77952 14.7485ZM7.77952 14.0628C5.39986 14.0628 3.55041 12.0303 3.13756 9.94122C4.02747 9.80003 6.30402 9.31625 7.17456 7.97151C8.3863 8.68348 9.75149 8.86985 10.8425 8.86985C11.5452 8.86985 12.1304 8.79333 12.4906 8.73157C12.5 8.84725 12.5092 8.96302 12.5092 9.08096C12.5092 11.4326 10.4866 14.0628 7.77952 14.0628ZM12.381 8.05651C11.2084 8.26316 7.15016 8.68637 5.54396 5.11439C6.21013 4.77269 6.97126 4.57795 7.77952 4.57795C10.0168 4.57795 11.892 6.06625 12.381 8.05651ZM4.95762 5.47577C5.38774 6.40147 5.96154 7.08515 6.60733 7.58416C5.96611 8.59829 4.09037 9.09496 3.05927 9.26007C3.05672 9.20041 3.04983 9.14033 3.04983 9.08096C3.04983 7.60546 3.80241 6.29757 4.95762 5.47577ZM18.5434 23.3139H20.8235C21.0128 23.3139 21.1663 23.1604 21.1663 22.971V18.1779H22.9697C23.0981 18.1779 23.2158 18.1061 23.2746 17.9919C23.3333 17.8777 23.3233 17.7403 23.2486 17.6356L19.9607 13.0345C19.8318 12.8541 19.5309 12.8546 19.4027 13.0347L16.1181 17.6358C16.0434 17.7403 16.0335 17.8777 16.0923 17.9919C16.1511 18.1061 16.2687 18.1779 16.3972 18.1779H18.2005V22.971C18.2005 23.1604 18.354 23.3139 18.5434 23.3139ZM17.0631 17.4922L19.6819 13.8239L22.3032 17.4922H20.8235C20.6342 17.4922 20.4806 17.6457 20.4806 17.835V22.6282H18.8862V17.835C18.8862 17.6457 18.7327 17.4922 18.5434 17.4922H17.0631Z" fill="#595BD4"/>
</g>
<defs>
<clipPath id="clip0_9008_7246">
<rect width="24" height="24" fill="white"/>
</clipPath>
</defs>
</svg>
