<svg width="24" height="24" viewBox="0 0 24 24" fill="none" xmlns="http://www.w3.org/2000/svg">
<path d="M6 22.75H3C2.53603 22.7495 2.09122 22.5649 1.76315 22.2369C1.43507 21.9088 1.25053 21.464 1.25 21V16C1.25053 15.536 1.43507 15.0912 1.76315 14.7631C2.09122 14.4351 2.53603 14.2505 3 14.25H6C6.46397 14.2505 6.90878 14.4351 7.23685 14.7631C7.56493 15.0912 7.74947 15.536 7.75 16V21C7.74947 21.464 7.56493 21.9088 7.23685 22.2369C6.90878 22.5649 6.46397 22.7495 6 22.75ZM3 15.75C2.9337 15.75 2.87011 15.7763 2.82322 15.8232C2.77634 15.8701 2.75 15.9337 2.75 16V21C2.75 21.0663 2.77634 21.1299 2.82322 21.1768C2.87011 21.2237 2.9337 21.25 3 21.25H6C6.0663 21.25 6.12989 21.2237 6.17678 21.1768C6.22366 21.1299 6.25 21.0663 6.25 21V16C6.25 15.9337 6.22366 15.8701 6.17678 15.8232C6.12989 15.7763 6.0663 15.75 6 15.75H3ZM13.5 22.75H10.5C10.036 22.7495 9.59122 22.5649 9.26315 22.2369C8.93507 21.9088 8.75053 21.464 8.75 21V12C8.75053 11.536 8.93507 11.0912 9.26315 10.7631C9.59122 10.4351 10.036 10.2505 10.5 10.25H13.5C13.964 10.2505 14.4088 10.4351 14.7369 10.7631C15.0649 11.0912 15.2495 11.536 15.25 12V21C15.2495 21.464 15.0649 21.9088 14.7369 22.2369C14.4088 22.5649 13.964 22.7495 13.5 22.75ZM10.5 11.75C10.4337 11.75 10.3701 11.7763 10.3232 11.8232C10.2763 11.8701 10.25 11.9337 10.25 12V21C10.25 21.0663 10.2763 21.1299 10.3232 21.1768C10.3701 21.2237 10.4337 21.25 10.5 21.25H13.5C13.5663 21.25 13.6299 21.2237 13.6768 21.1768C13.7237 21.1299 13.75 21.0663 13.75 21V12C13.75 11.9337 13.7237 11.8701 13.6768 11.8232C13.6299 11.7763 13.5663 11.75 13.5 11.75H10.5ZM21 22.75H18C17.536 22.7495 17.0912 22.5649 16.7631 22.2369C16.4351 21.9088 16.2505 21.464 16.25 21V8C16.2505 7.53603 16.4351 7.09122 16.7631 6.76315C17.0912 6.43507 17.536 6.25053 18 6.25H21C21.464 6.25053 21.9088 6.43507 22.2369 6.76315C22.5649 7.09122 22.7495 7.53603 22.75 8V21C22.7495 21.464 22.5649 21.9088 22.2369 22.2369C21.9088 22.5649 21.464 22.7495 21 22.75ZM18 7.75C17.9337 7.75 17.8701 7.77634 17.8232 7.82322C17.7763 7.87011 17.75 7.9337 17.75 8V21C17.75 21.0663 17.7763 21.1299 17.8232 21.1768C17.8701 21.2237 17.9337 21.25 18 21.25H21C21.0663 21.25 21.1299 21.2237 21.1768 21.1768C21.2237 21.1299 21.25 21.0663 21.25 21V8C21.25 7.9337 21.2237 7.87011 21.1768 7.82322C21.1299 7.77634 21.0663 7.75 21 7.75H18Z" fill="#FE9526"/>
<path d="M3.99934 9.75082C3.8511 9.75069 3.70622 9.70664 3.58301 9.62422C3.45979 9.54179 3.36377 9.42471 3.30705 9.28775C3.25034 9.15078 3.23549 9.00009 3.26438 8.85469C3.29326 8.70929 3.36458 8.57571 3.46934 8.47082L7.46934 4.47082C7.58045 4.35946 7.7238 4.28591 7.87906 4.2606C8.03433 4.23529 8.19362 4.25951 8.33434 4.32982L11.8513 6.08782L16.4693 1.47082C16.6115 1.33834 16.7996 1.26622 16.9939 1.26965C17.1882 1.27308 17.3735 1.35179 17.511 1.4892C17.6484 1.62661 17.7271 1.812 17.7305 2.0063C17.7339 2.2006 17.6618 2.38865 17.5293 2.53082L12.5293 7.53082C12.4181 7.64192 12.2747 7.71529 12.1195 7.74059C11.9644 7.76588 11.8051 7.74183 11.6643 7.67182L8.14734 5.91382L4.52934 9.53082C4.45996 9.60075 4.37739 9.65621 4.2864 9.69398C4.19542 9.73174 4.09785 9.75107 3.99934 9.75082Z" fill="#595BD4"/>
</svg>
