<svg width="64" height="64" viewBox="0 0 64 64" fill="none" xmlns="http://www.w3.org/2000/svg">
<g clip-path="url(#clip0_9061_6116)">
<path d="M55.1514 0.000344955C53.2502 -0.0159266 51.3887 0.543793 49.8117 1.60584C49.4643 1.86228 49.2093 2.22424 49.0847 2.63763C48.96 3.05103 48.9725 3.49365 49.1203 3.89934L49.8172 5.8124C49.9257 6.11027 50.1034 6.37809 50.3358 6.59376C50.5682 6.80943 50.8484 6.96677 51.1536 7.05282C51.4587 7.13887 51.7799 7.15115 52.0907 7.08866C52.4015 7.02617 52.693 6.89069 52.9412 6.6934C53.4369 6.36449 54.0183 6.18832 54.6132 6.18671C55.3869 6.20243 55.387 6.40241 55.387 6.79792C55.387 7.49195 54.9692 8.26234 53.7904 9.74192C51.6594 12.3714 51.3984 14.8028 51.5622 16.3891L51.6181 17.1472C51.6552 17.6509 51.8814 18.1218 52.2514 18.4656C52.6214 18.8093 53.1077 19.0004 53.6128 19.0003H55.8773C56.1464 19.0004 56.4128 18.9461 56.6604 18.8407C56.908 18.7354 57.1318 18.5811 57.3184 18.3872C57.505 18.1933 57.6506 17.9638 57.7464 17.7123C57.8422 17.4609 57.8862 17.1926 57.8759 16.9237L57.8469 16.1647L57.8452 16.129C57.8008 15.34 57.917 14.4155 59.0581 13.0051C60.6046 11.1185 62 9.19025 62 6.46384C62 3.35081 59.8568 0.000344955 55.1514 0.000344955ZM57.5031 11.7472C56.2258 13.3262 55.7612 14.6926 55.8483 16.2413L55.8773 17.0003H53.6128L53.5546 16.2107C53.3804 14.6015 53.903 12.7796 55.3547 10.9882C56.6612 9.3484 57.3871 8.16444 57.3871 6.79795C57.3871 5.24931 56.458 4.21695 54.6289 4.18669C53.5768 4.18427 52.5506 4.51363 51.6964 5.12794L50.9996 3.21489C52.2327 2.40774 53.6777 1.98502 55.1514 2.00034C58.4902 2.00034 59.9999 4.15611 59.9999 6.46384C59.9999 8.52851 58.8968 10.0469 57.5031 11.7472ZM55.0081 21.0003C54.4148 20.9987 53.8342 21.173 53.3399 21.5013C52.8457 21.8296 52.4598 22.2972 52.2313 22.8447C52.0027 23.3923 51.9416 23.9954 52.0558 24.5777C52.17 25.16 52.4543 25.6953 52.8727 26.116C53.2912 26.5367 53.825 26.8239 54.4067 26.9412C54.9883 27.0586 55.5917 27.0007 56.1405 26.7751C56.6893 26.5495 57.1589 26.1662 57.4899 25.6737C57.8208 25.1812 57.9983 24.6016 57.9999 24.0082C58.0041 23.6134 57.9297 23.2217 57.781 22.8559C57.6324 22.4902 57.4124 22.1576 57.134 21.8777C56.8555 21.5977 56.5242 21.376 56.1592 21.2254C55.7943 21.0748 55.403 20.9983 55.0081 21.0003ZM54.9914 25.0003H54.9745C54.8443 25.003 54.7149 24.979 54.5943 24.9299C54.4737 24.8808 54.3644 24.8075 54.2731 24.7146C54.1818 24.6217 54.1105 24.5111 54.0635 24.3896C54.0165 24.2682 53.9948 24.1384 53.9997 24.0082C53.9941 23.8743 54.0164 23.7407 54.0651 23.6159C54.1138 23.491 54.1879 23.3777 54.2827 23.2829C54.3775 23.1882 54.4909 23.1142 54.6158 23.0655C54.7406 23.0169 54.8742 22.9947 55.0081 23.0003C55.1395 23.0014 55.2693 23.0284 55.3902 23.0797C55.5111 23.1309 55.6207 23.2055 55.7128 23.2992C55.8049 23.3928 55.8776 23.5037 55.9268 23.6254C55.9761 23.7471 56.0009 23.8774 55.9998 24.0087C55.9987 24.14 55.9717 24.2699 55.9204 24.3908C55.8692 24.5117 55.7946 24.6213 55.7009 24.7134C55.6073 24.8055 55.4964 24.8782 55.3747 24.9274C55.253 24.9767 55.1227 25.0014 54.9914 25.0003ZM41.9993 2.65168C39.9712 2.65168 38.4992 3.88474 38.4992 5.58368V18.3582C37.7137 18.3551 36.7429 18.3523 35.6812 18.3498C36.8944 17.3799 37.7766 16.0572 38.2059 14.5644C38.6351 13.0716 38.5903 11.4823 38.0775 10.0161C37.5647 8.54987 36.6093 7.27903 35.3432 6.37912C34.0772 5.4792 32.5629 4.99461 31.0096 4.99227C29.4563 4.98992 27.9406 5.46994 26.6718 6.36603C25.403 7.26212 24.4438 8.53007 23.9266 9.99474C23.4094 11.4594 23.3597 13.0485 23.7844 14.5427C24.2092 16.0368 25.0874 17.3621 26.2977 18.3357C24.934 18.3343 24.0311 18.3337 24 18.3337C22.1394 18.3476 20.3405 19.003 18.9069 20.1893C17.4733 21.3755 16.4929 23.02 16.1309 24.8451C16.0451 24.9938 15.9994 25.1622 15.9983 25.3338V25.8867C15.9914 25.9969 15.977 26.1051 15.9747 26.2164C15.9734 26.327 15.9813 26.4376 15.9983 26.5469V39.5838C16.0295 40.4347 16.3822 41.2421 16.9853 41.8431C17.5884 42.4441 18.3971 42.794 19.2481 42.8221L19.2307 44.8162C19.2243 45.309 19.402 45.7865 19.7289 46.1553C20.0558 46.5241 20.5085 46.7577 20.9985 46.8106V60.0003C20.9997 61.0605 21.4217 62.0768 22.1717 62.826C22.9218 63.5752 23.9385 63.996 24.9987 63.996C26.0588 63.996 27.0756 63.5752 27.8256 62.826C28.5757 62.0768 28.9976 61.0605 28.9988 60.0003V46.8337H30.9989V60.0003C31.0001 61.0605 31.422 62.0768 32.1721 62.826C32.9221 63.5752 33.9389 63.996 34.999 63.996C36.0592 63.996 37.0759 63.5752 37.826 62.826C38.576 62.0768 38.998 61.0605 38.9992 60.0003V46.7629C39.4277 46.6531 39.8076 46.404 40.0791 46.0548C40.3506 45.7056 40.4984 45.276 40.4992 44.8337V29.5606C40.4999 29.3305 40.5532 29.1036 40.655 28.8973C40.7568 28.691 40.9044 28.5107 41.0866 28.3702L43.3457 26.6383C44.0137 26.123 44.555 25.4619 44.9283 24.7054C45.3015 23.9488 45.4969 23.117 45.4994 22.2734V5.58366C45.4994 3.88474 44.0274 2.65168 41.9993 2.65168ZM25.4987 12.5003C25.4986 11.4125 25.8212 10.3491 26.4255 9.44455C27.0299 8.54002 27.8889 7.83502 28.8939 7.41869C29.8989 7.00236 31.0049 6.89341 32.0718 7.10562C33.1387 7.31782 34.1188 7.84165 34.888 8.61085C35.6573 9.38006 36.1811 10.3601 36.3934 11.427C36.6056 12.494 36.4967 13.5999 36.0804 14.6049C35.6641 15.61 34.9592 16.469 34.0546 17.0734C33.1501 17.6778 32.0867 18.0003 30.9989 18.0003C30.2766 18.0004 29.5614 17.8581 28.8941 17.5817C28.2268 17.3053 27.6204 16.9002 27.1097 16.3895C26.599 15.8788 26.1938 15.2724 25.9174 14.6051C25.641 13.9378 25.4987 13.2226 25.4987 12.5003ZM26.9987 60.0003C26.9987 60.5308 26.788 61.0395 26.4129 61.4146C26.0378 61.7897 25.5291 62.0004 24.9987 62.0004C24.4682 62.0004 23.9595 61.7897 23.5844 61.4146C23.2093 61.0395 22.9986 60.5308 22.9986 60.0003V46.8337H26.9987V60.0003ZM36.9991 60.0003C36.9991 60.5308 36.7884 61.0395 36.4133 61.4146C36.0382 61.7897 35.5295 62.0004 34.999 62.0004C34.4686 62.0004 33.9598 61.7897 33.5848 61.4146C33.2097 61.0395 32.999 60.5308 32.999 60.0003V46.8337H36.9991V60.0003ZM43.4993 22.2734C43.4993 22.8105 43.3757 23.3404 43.138 23.8221C42.9004 24.3037 42.555 24.7242 42.1288 25.051L39.8697 26.7829C39.4434 27.1097 39.0981 27.5302 38.8604 28.0119C38.6228 28.4935 38.4991 29.0235 38.4991 29.5606V44.8337H21.2307L21.252 42.3921C21.7702 42.1261 22.2063 41.7243 22.514 41.2297C22.8216 40.7351 22.9891 40.1662 22.9986 39.5838V30.8338C22.9986 30.5686 22.8932 30.3143 22.7057 30.1267C22.5181 29.9392 22.2638 29.8338 21.9986 29.8338C21.7333 29.8338 21.479 29.9392 21.2914 30.1267C21.1039 30.3143 20.9985 30.5686 20.9985 30.8338V39.5838C20.9621 39.9472 20.7845 40.2817 20.504 40.5154C20.2235 40.7492 19.8624 40.8635 19.4985 40.8338C19.1345 40.8635 18.7735 40.7492 18.493 40.5154C18.2124 40.2817 18.0349 39.9472 17.9984 39.5838V26.4337L18.1429 26.5926L17.9984 26.3337V25.9227C18.1194 24.4099 18.8024 22.9971 19.9129 21.9627C21.0234 20.9283 22.481 20.3471 23.9986 20.3337C23.9986 20.3337 34.9153 20.3414 38.9954 20.3603L39.0025 20.3603C39.1993 20.3602 39.3942 20.3213 39.5759 20.2459C39.7577 20.1704 39.9228 20.0599 40.0618 19.9206C40.2008 19.7813 40.311 19.6159 40.3861 19.434C40.4611 19.2521 40.4996 19.0571 40.4992 18.8603V5.58366C40.4992 4.96235 41.2492 4.65166 41.9993 4.65166C42.7493 4.65166 43.4993 4.96233 43.4993 5.58366V22.2734ZM16.7128 16.5862L15.8329 12.4293L18.7555 11.0024C19.6656 10.5437 20.3712 9.76115 20.7335 8.80856C21.0959 7.85598 21.0887 6.8023 20.7135 5.85471L19.4073 2.52817C19.1257 1.78693 18.6259 1.14852 17.9739 0.697218C17.3219 0.245914 16.5484 0.00293174 15.7554 0.000344955C15.2875 0.000322451 14.8235 0.0858238 14.3863 0.252635L4.56529 3.98534C4.07382 4.17249 3.6247 4.45596 3.24431 4.8191C2.86393 5.18224 2.55994 5.61773 2.35022 6.1C2.13114 6.59863 2.01245 7.13554 2.00093 7.68005C1.9894 8.22456 2.08527 8.76601 2.28305 9.27346L3.93917 13.4913C4.22098 14.2327 4.72097 14.8711 5.37314 15.3225C6.02532 15.7738 6.79903 16.0167 7.59214 16.0193C8.17893 16.0198 8.75799 15.8853 9.28455 15.6264L9.49455 15.5238L13.5485 18.5946C13.8735 18.8408 14.266 18.9818 14.6734 18.9986C15.0808 19.0155 15.4837 18.9074 15.8279 18.6889C16.1722 18.4704 16.4414 18.1519 16.5996 17.7761C16.7578 17.4003 16.7973 16.9851 16.7128 16.5862ZM13.553 11.3168L14.7561 17.0003L9.72206 13.1871L8.407 13.8292C8.15344 13.9539 7.87469 14.0189 7.59212 14.0193C7.20144 14.0145 6.82134 13.8917 6.50169 13.667C6.18203 13.4423 5.93776 13.1263 5.8009 12.7603L4.14477 8.54255C3.93946 8.03604 3.94322 7.46881 4.15523 6.96507C4.36723 6.46133 4.77021 6.06212 5.27592 5.85484L15.0968 2.12214C15.3071 2.04181 15.5303 2.00054 15.7554 2.00034C16.1459 2.0054 16.5257 2.12828 16.8452 2.3529C17.1646 2.57752 17.4088 2.89339 17.5456 3.25914L18.8518 6.58563C19.0448 7.06514 19.0519 7.59938 18.8718 8.08386C18.6917 8.56834 18.3373 8.9682 17.878 9.2052L13.553 11.3168Z" fill="#595BD4"/>
</g>
<defs>
<clipPath id="clip0_9061_6116">
<rect width="64" height="64" fill="white"/>
</clipPath>
</defs>
</svg>
