<svg width="32" height="32" viewBox="0 0 32 32" fill="none" xmlns="http://www.w3.org/2000/svg">
<g clip-path="url(#clip0_9061_6326)">
<path d="M8 8.5C9.933 8.5 11.5 6.933 11.5 5C11.5 3.067 9.933 1.5 8 1.5C6.067 1.5 4.5 3.067 4.5 5C4.5 6.933 6.067 8.5 8 8.5Z" fill="#595BD4"/>
<path d="M14.5 22.5V26.5H2.9C2.38727 26.5007 1.89385 26.3045 1.52165 25.9518C1.14946 25.5992 0.926918 25.117 0.9 24.605L0.11 9.605C0.0957345 9.33366 0.136909 9.06225 0.231012 8.80735C0.325115 8.55245 0.470171 8.31939 0.657329 8.12241C0.844487 7.92543 1.06982 7.76864 1.31958 7.66163C1.56934 7.55462 1.83828 7.49963 2.11 7.5H3L4 22.5H14.5ZM1 1.5H2C2.26522 1.5 2.51957 1.60536 2.70711 1.79289C2.89464 1.98043 3 2.23478 3 2.5V7.5H2C1.46957 7.5 0.960859 7.28929 0.585786 6.91421C0.210714 6.53914 0 6.03043 0 5.5V2.5C0 2.23478 0.105357 1.98043 0.292893 1.79289C0.48043 1.60536 0.734784 1.5 1 1.5Z" fill="#FE9526"/>
<path d="M11.1543 12.5262L11.0293 12.5513C11.0321 12.503 11.0321 12.4545 11.0293 12.4062L11.1543 12.5262Z" fill="#595BD4"/>
<path d="M17.5 21C17.5 21.09 17.56 20.5 16.5 30.655C16.4796 30.852 16.4207 31.043 16.3265 31.2172C16.2323 31.3914 16.1047 31.5454 15.9511 31.6703C15.7974 31.7952 15.6206 31.8886 15.4308 31.9451C15.241 32.0017 15.042 32.0204 14.845 32C14.648 31.9796 14.457 31.9207 14.2828 31.8265C14.1086 31.7323 13.9546 31.6047 13.8297 31.4511C13.7048 31.2974 13.6114 31.1206 13.5549 30.9308C13.4983 30.741 13.4796 30.542 13.5 30.345L14.335 22.5H4V12.875C4 11.9799 4.35558 11.1215 4.98851 10.4885C5.62145 9.85558 6.47989 9.5 7.375 9.5C9.09 9.5 10.795 10.725 11.01 12.405C9.045 10.805 9.64 11.3 9.395 11.055C9.02635 10.6711 8.52029 10.4494 7.98816 10.4386C7.45602 10.4278 6.9414 10.6288 6.5575 10.9975C6.1736 11.3662 5.95187 11.8722 5.94108 12.4043C5.9303 12.9365 6.13135 13.4511 6.5 13.835L10.175 17.66C10.438 17.9503 10.7896 18.1454 11.175 18.215L11.275 19.5H16C16.3978 19.5 16.7794 19.658 17.0607 19.9393C17.342 20.2206 17.5 20.6022 17.5 21Z" fill="#595BD4"/>
<path d="M19.5 1V4C19.5 4.26522 19.3946 4.51957 19.2071 4.70711C19.0196 4.89464 18.7652 5 18.5 5H13.5L12.73 5.77C12.7114 5.78844 12.6879 5.80108 12.6623 5.8064C12.6367 5.81171 12.61 5.80946 12.5857 5.79992C12.5613 5.79039 12.5402 5.77398 12.525 5.75269C12.5098 5.7314 12.5011 5.70614 12.5 5.68V1C12.5 0.734784 12.6054 0.48043 12.7929 0.292893C12.9804 0.105357 13.2348 0 13.5 0L18.5 0C18.7652 0 19.0196 0.105357 19.2071 0.292893C19.3946 0.48043 19.5 0.734784 19.5 1Z" fill="#F8B46D"/>
<path d="M16 3C16.2761 3 16.5 2.77614 16.5 2.5C16.5 2.22386 16.2761 2 16 2C15.7239 2 15.5 2.22386 15.5 2.5C15.5 2.77614 15.7239 3 16 3Z" fill="#53D86A"/>
<path d="M18 3C18.2761 3 18.5 2.77614 18.5 2.5C18.5 2.22386 18.2761 2 18 2C17.7239 2 17.5 2.22386 17.5 2.5C17.5 2.77614 17.7239 3 18 3Z" fill="#53D86A"/>
<path d="M14 3C14.2761 3 14.5 2.77614 14.5 2.5C14.5 2.22386 14.2761 2 14 2C13.7239 2 13.5 2.22386 13.5 2.5C13.5 2.77614 13.7239 3 14 3Z" fill="#53D86A"/>
<path d="M5.75 23.5H4C3.86739 23.5 3.74021 23.4473 3.64645 23.3536C3.55268 23.2598 3.5 23.1326 3.5 23C3.5 22.8674 3.55268 22.7402 3.64645 22.6464C3.74021 22.5527 3.86739 22.5 4 22.5H5.75C7.4076 22.5 8.99731 21.8415 10.1694 20.6694C11.3415 19.4973 12 17.9076 12 16.25C12 14.5924 11.3415 13.0027 10.1694 11.8306C8.99731 10.6585 7.4076 10 5.75 10H2C1.86739 10 1.74021 9.94732 1.64645 9.85355C1.55268 9.75979 1.5 9.63261 1.5 9.5C1.5 9.36739 1.55268 9.24021 1.64645 9.14645C1.74021 9.05268 1.86739 9 2 9H5.75C7.67282 9 9.51689 9.76384 10.8765 11.1235C12.2362 12.4831 13 14.3272 13 16.25C13 18.1728 12.2362 20.0169 10.8765 21.3765C9.51689 22.7362 7.67282 23.5 5.75 23.5Z" fill="#F8B46D"/>
<path d="M16.9646 15.6607L11.9646 17.6607C11.7338 17.7522 11.4811 17.7735 11.2383 17.7219C10.9954 17.6703 10.7732 17.5481 10.5996 17.3707C10.5396 17.3007 10.1346 16.8707 6.86959 13.4907C6.5931 13.2036 6.44198 12.8184 6.44949 12.4199C6.45699 12.0214 6.62249 11.6422 6.90959 11.3657C7.19668 11.0892 7.58186 10.9381 7.98037 10.9456C8.37889 10.9531 8.7581 11.1186 9.03459 11.4057C9.12459 11.4957 9.67959 12.2007 11.8996 14.9957L16.0346 13.3407C16.1877 13.2756 16.3522 13.2417 16.5185 13.241C16.6849 13.2403 16.8497 13.2729 17.0033 13.3367C17.1569 13.4005 17.2962 13.4943 17.4131 13.6127C17.53 13.731 17.6221 13.8715 17.684 14.0259C17.7458 14.1803 17.7763 14.3455 17.7735 14.5118C17.7708 14.6781 17.7348 14.8422 17.6678 14.9945C17.6008 15.1467 17.5041 15.2841 17.3834 15.3985C17.2626 15.5129 17.1202 15.602 16.9646 15.6607Z" fill="#595BD4"/>
<path d="M27.5007 5C28.2715 5.00058 29.0292 5.19915 29.7013 5.57666C30.3733 5.95418 30.9371 6.49799 31.3386 7.15597C31.7401 7.81395 31.9659 8.56403 31.9943 9.33431C32.0226 10.1046 31.8527 10.8693 31.5007 11.555V13.5H29.5557C28.9499 13.8122 28.2812 13.9827 27.5999 13.9988C26.9187 14.0148 26.2427 13.8759 25.6229 13.5925C25.0032 13.3091 24.4559 12.8887 24.0223 12.363C23.5888 11.8372 23.2803 11.2198 23.1202 10.5575C22.96 9.8951 22.9524 9.20501 23.0979 8.53926C23.2434 7.87352 23.5382 7.24951 23.96 6.71432C24.3819 6.17913 24.9198 5.74674 25.5331 5.44977C26.1464 5.1528 26.8192 4.99901 27.5007 5Z" fill="#FE9526"/>
<path d="M27.4996 10.9993C27.367 10.9993 27.2398 10.9467 27.146 10.8529C27.0523 10.7591 26.9996 10.632 26.9996 10.4993C27.0001 10.1626 27.0938 9.83255 27.2703 9.54575C27.4468 9.25895 27.6992 9.02658 27.9996 8.87434C28.1513 8.78676 28.2773 8.66087 28.365 8.50928C28.4528 8.35769 28.4992 8.18571 28.4995 8.01056C28.4999 7.8354 28.4543 7.66322 28.3672 7.51124C28.2802 7.35926 28.1547 7.23282 28.0034 7.14456C27.8521 7.05631 27.6803 7.00934 27.5052 7.00836C27.33 7.00738 27.1577 7.05241 27.0054 7.13897C26.8531 7.22552 26.7263 7.35055 26.6375 7.50154C26.5487 7.65254 26.5012 7.8242 26.4996 7.99934C26.4996 8.13195 26.4469 8.25913 26.3531 8.3529C26.2594 8.44667 26.1322 8.49934 25.9996 8.49934C24.8596 8.49934 25.7196 5.65934 27.8596 6.02934C28.2659 6.10344 28.6393 6.30148 28.9285 6.59629C29.2177 6.8911 29.4086 7.26821 29.4748 7.67584C29.5411 8.08348 29.4796 8.50163 29.2987 8.8729C29.1178 9.24416 28.8265 9.55032 28.4646 9.74934C28.3314 9.81491 28.2181 9.9148 28.1364 10.0387C28.0547 10.1626 28.0074 10.3061 27.9996 10.4543C28.0059 10.5237 27.9976 10.5936 27.9753 10.6595C27.953 10.7255 27.9171 10.7861 27.8701 10.8374C27.823 10.8887 27.7657 10.9296 27.7019 10.9575C27.6381 10.9854 27.5692 10.9996 27.4996 10.9993ZM27.4996 12.9993C27.4007 12.9993 27.304 12.97 27.2218 12.9151C27.1396 12.8601 27.0755 12.782 27.0377 12.6907C26.9998 12.5993 26.9899 12.4988 27.0092 12.4018C27.0285 12.3048 27.0761 12.2157 27.146 12.1458C27.216 12.0759 27.3051 12.0282 27.402 12.009C27.499 11.9897 27.5996 11.9996 27.6909 12.0374C27.7823 12.0752 27.8604 12.1393 27.9153 12.2216C27.9703 12.3038 27.9996 12.4005 27.9996 12.4993C27.9996 12.632 27.9469 12.7591 27.8531 12.8529C27.7594 12.9467 27.6322 12.9993 27.4996 12.9993Z" fill="#53D86A"/>
<path d="M26 14.5C24.6742 14.3 23.3258 14.3 22 14.5C21.7214 14.1286 21.5518 13.6869 21.5101 13.2245C21.4684 12.7621 21.5563 12.2972 21.7639 11.882C21.9716 11.4667 22.2907 11.1175 22.6857 10.8734C23.0806 10.6293 23.5357 10.5 24 10.5C24.4643 10.5 24.9194 10.6293 25.3143 10.8734C25.7093 11.1175 26.0284 11.4667 26.2361 11.882C26.4437 12.2972 26.5316 12.7621 26.4899 13.2245C26.4482 13.6869 26.2786 14.1286 26 14.5Z" fill="#167FFC"/>
<path d="M25.245 13.8331C25.3949 13.6071 25.4807 13.3446 25.4934 13.0737C25.506 12.8028 25.4449 12.5336 25.3167 12.2946C25.1884 12.0556 24.9978 11.8559 24.7651 11.7167C24.5323 11.5774 24.2662 11.5039 23.995 11.5039C23.7238 11.5039 23.4577 11.5774 23.2249 11.7167C22.9922 11.8559 22.8016 12.0556 22.6733 12.2946C22.5451 12.5336 22.484 12.8028 22.4966 13.0737C22.5092 13.3446 22.5951 13.6071 22.745 13.8331C22.4545 14.0024 22.2011 14.2285 22 14.4981C22.2329 14.8086 22.5348 15.0606 22.882 15.2341C23.2291 15.4077 23.6119 15.4981 24 15.4981C24.3881 15.4981 24.7709 15.4077 25.118 15.2341C25.4652 15.0606 25.7671 14.8086 26 14.4981C25.796 14.2275 25.5391 14.0013 25.245 13.8331Z" fill="#B7B8F9"/>
</g>
<defs>
<clipPath id="clip0_9061_6326">
<rect width="32" height="32" fill="white"/>
</clipPath>
</defs>
</svg>
