<svg width="64" height="64" viewBox="0 0 64 64" fill="none" xmlns="http://www.w3.org/2000/svg">
<path d="M50 52H52V55C52 56.3261 51.4732 57.5979 50.5355 58.5355C49.5979 59.4732 48.3261 60 47 60H15C13.6739 60 12.4021 59.4732 11.4645 58.5355C10.5268 57.5979 10 56.3261 10 55V13C10 11.6739 10.5268 10.4021 11.4645 9.46447C12.4021 8.52678 13.6739 8 15 8H20V10H15C14.2044 10 13.4413 10.3161 12.8787 10.8787C12.3161 11.4413 12 12.2044 12 13V55C12 55.7957 12.3161 56.5587 12.8787 57.1213C13.4413 57.6839 14.2044 58 15 58H47C47.7957 58 48.5587 57.6839 49.1213 57.1213C49.6839 56.5587 50 55.7957 50 55V52ZM50 13V18H52V13C52 11.6739 51.4732 10.4021 50.5355 9.46447C49.5979 8.52678 48.3261 8 47 8H42V10H47C47.7957 10 48.5587 10.3161 49.1213 10.8787C49.6839 11.4413 50 12.2044 50 13ZM20 14V12H15C14.7348 12 14.4804 12.1054 14.2929 12.2929C14.1054 12.4804 14 12.7348 14 13V55C14 55.2652 14.1054 55.5196 14.2929 55.7071C14.4804 55.8946 14.7348 56 15 56H47C47.2652 56 47.5196 55.8946 47.7071 55.7071C47.8946 55.5196 48 55.2652 48 55V51.94H46V54H16V14H20ZM46 18H48V13C48 12.7348 47.8946 12.4804 47.7071 12.2929C47.5196 12.1054 47.2652 12 47 12H42V14H46V18ZM22 17V9C22 8.73478 22.1054 8.48043 22.2929 8.29289C22.4804 8.10536 22.7348 8 23 8H27C27 6.93913 27.4214 5.92172 28.1716 5.17157C28.9217 4.42143 29.9391 4 31 4C32.0609 4 33.0783 4.42143 33.8284 5.17157C34.5786 5.92172 35 6.93913 35 8H39C39.2652 8 39.5196 8.10536 39.7071 8.29289C39.8946 8.48043 40 8.73478 40 9V17C40 17.2652 39.8946 17.5196 39.7071 17.7071C39.5196 17.8946 39.2652 18 39 18H23C22.7348 18 22.4804 17.8946 22.2929 17.7071C22.1054 17.5196 22 17.2652 22 17ZM24 16H38V10H34C33.7348 10 33.4804 9.89464 33.2929 9.70711C33.1054 9.51957 33 9.26522 33 9V8C33 7.46957 32.7893 6.96086 32.4142 6.58579C32.0391 6.21071 31.5304 6 31 6C30.4696 6 29.9609 6.21071 29.5858 6.58579C29.2107 6.96086 29 7.46957 29 8V9C29 9.26522 28.8946 9.51957 28.7071 9.70711C28.5196 9.89464 28.2652 10 28 10H24V16ZM28 14H34V12H28V14ZM32 25H42V23H32V25ZM42 29H32V31H42V29ZM32 37H42V35H32V37ZM32 43H42V41H32V43ZM21 41H27C27.2652 41 27.5196 41.1054 27.7071 41.2929C27.8946 41.4804 28 41.7348 28 42V48C28 48.2652 27.8946 48.5196 27.7071 48.7071C27.5196 48.8946 27.2652 49 27 49H21C20.7348 49 20.4804 48.8946 20.2929 48.7071C20.1054 48.5196 20 48.2652 20 48V42C20 41.7348 20.1054 41.4804 20.2929 41.2929C20.4804 41.1054 20.7348 41 21 41ZM22 47H26V43H22V47ZM32 49H42V47H32V49ZM22.45 28.83C22.6127 28.9394 22.804 28.9985 23 29C23.1316 29.0008 23.2621 28.9755 23.3839 28.9258C23.5057 28.876 23.6166 28.8027 23.71 28.71L27.71 24.71L26.29 23.29L22.87 26.71L20.55 25.17L19.45 26.83L22.45 28.83ZM22.87 34.71L20.55 33.17L19.45 34.83L22.45 36.83C22.6127 36.9394 22.804 36.9985 23 37C23.1316 37.0008 23.2621 36.9755 23.3839 36.9258C23.5057 36.876 23.6166 36.8027 23.71 36.71L27.71 32.71L26.29 31.29L22.87 34.71ZM54 23V45C53.9958 45.2234 53.9225 45.44 53.79 45.62L49.87 50.62C49.7769 50.7379 49.6584 50.8332 49.5234 50.899C49.3883 50.9648 49.2402 50.9993 49.09 51C48.9423 50.999 48.7966 50.9653 48.6635 50.9014C48.5304 50.8374 48.4131 50.7447 48.32 50.63L44.24 45.63C44.0895 45.4541 44.0047 45.2314 44 45V23C44 22.2044 44.3161 21.4413 44.8787 20.8787C45.4413 20.3161 46.2043 20 47 20H51C51.7957 20 52.5587 20.3161 53.1213 20.8787C53.6839 21.4413 54 22.2044 54 23ZM46 25H52V23C52 22.7348 51.8946 22.4804 51.7071 22.2929C51.5196 22.1054 51.2652 22 51 22H47C46.7348 22 46.4804 22.1054 46.2929 22.2929C46.1054 22.4804 46 22.7348 46 23V25ZM52 27H46V44.64L49.07 48.4L52 44.65V27Z" fill="#595BD4"/>
</svg>
