<svg width="64" height="64" viewBox="0 0 64 64" fill="none" xmlns="http://www.w3.org/2000/svg">
<path d="M52.8259 8.33464V60.0013H11.1725V8.33464C11.1725 7.7218 11.0518 7.11496 10.8173 6.54878C10.5828 5.98259 10.239 5.46814 9.80569 5.0348C9.37235 4.60146 8.8579 4.25772 8.29171 4.0232C7.72553 3.78868 7.11869 3.66797 6.50586 3.66797H48.1859C49.4189 3.67501 50.5991 4.16979 51.4685 5.0442C52.3379 5.9186 52.8259 7.10156 52.8259 8.33464Z" fill="#DCDDFF"/>
<path d="M52.8272 26.1875H11.1738V33.2742H52.8272V26.1875Z" fill="white"/>
<path d="M52.8272 17.3008H11.1738V20.3541H52.8272V17.3008Z" fill="white"/>
<path d="M48.1873 3.69141H41.074C42.3117 3.69141 43.4987 4.18307 44.3738 5.05824C45.249 5.93341 45.7407 7.1204 45.7407 8.35807V54.3581H15.4607V8.35807C15.4607 7.1204 14.969 5.93341 14.0938 5.05824C13.2187 4.18307 12.0317 3.69141 10.794 3.69141H6.52734C7.76502 3.69141 8.95201 4.18307 9.82718 5.05824C10.7023 5.93341 11.194 7.1204 11.194 8.35807V59.9981H52.8273V8.33141C52.8203 7.10296 52.3292 5.92682 51.4606 5.05817C50.5919 4.18951 49.4158 3.69841 48.1873 3.69141Z" fill="#B9BAFF"/>
<path d="M52.8272 57.1602H11.1738V60.0135H52.8272V57.1602Z" fill="#9193FF"/>
<path d="M15.4605 53.2928V49.9461H11.1738V45.0994H15.4605V41.7461L23.5938 47.5261L15.4605 53.2928Z" fill="#B9BAFF"/>
<path d="M52.8262 22.7607V27.6007H48.5396V30.9541L40.4062 25.1807L48.5396 19.4141V22.7607H52.8262Z" fill="#B9BAFF"/>
<path d="M11.1734 7.84782V14.1545H1.88672V7.84782C1.88718 6.93183 2.1919 6.04195 2.753 5.31794C3.31411 4.59393 4.09982 4.07681 4.98672 3.84782C5.6429 3.70326 6.31679 3.65609 6.98672 3.70782C7.53406 3.70254 8.07704 3.80567 8.58432 4.01128C9.09161 4.21689 9.55317 4.52089 9.94238 4.90577C10.3316 5.29064 10.6408 5.74876 10.852 6.25371C11.0633 6.75866 11.1725 7.30045 11.1734 7.84782Z" fill="#595BD4"/>
<path d="M8.08672 7.84766V14.1543H1.88672V7.84766C1.88718 6.93167 2.1919 6.04179 2.753 5.31778C3.31411 4.59377 4.09982 4.07665 4.98672 3.84766C5.87362 4.07665 6.65933 4.59377 7.22044 5.31778C7.78154 6.04179 8.08626 6.93167 8.08672 7.84766Z" fill="#B9BAFF"/>
<path d="M15.4593 50.3208V46.9874H5.51265C4.25921 46.9409 3.07262 46.4103 2.2023 45.5071C1.33197 44.6039 0.845703 43.3984 0.845703 42.1441C0.845703 40.8898 1.33197 39.6844 2.2023 38.7811C3.07262 37.8779 4.25921 37.3473 5.51265 37.3008H11.1926V42.1408H15.4793V38.8074L23.6126 44.5874L15.4593 50.3208Z" fill="#53D86A"/>
<path d="M23.5931 44.5534L15.4598 38.7734V42.1068H11.1731V41.8868H0.666474C0.632928 42.5413 0.733223 43.1958 0.961226 43.8103C1.18923 44.4247 1.54015 44.9862 1.99254 45.4605C2.44493 45.9347 2.98928 46.3117 3.59232 46.5684C4.19536 46.8251 4.84441 46.9561 5.49981 46.9534H15.4598V50.2868L23.5931 44.5534Z" fill="#08A022"/>
<path d="M63.3329 25.2653C63.3347 25.9005 63.2112 26.5299 62.9695 27.1175C62.7278 27.705 62.3726 28.2391 61.9243 28.6892C61.4761 29.1393 60.9434 29.4967 60.3569 29.7408C59.7704 29.9849 59.1415 30.1111 58.5063 30.1119H52.8262V25.2653H48.5396V28.5986L40.4062 22.8253L48.5396 17.0586V20.3919H58.4863C59.1252 20.391 59.7581 20.5167 60.3482 20.7616C60.9384 21.0065 61.4742 21.3659 61.9248 21.8189C62.3754 22.272 62.7318 22.8098 62.9735 23.4013C63.2152 23.9928 63.3373 24.6263 63.3329 25.2653Z" fill="#FE9526"/>
<path d="M52.8262 25.332V30.132H58.5062C59.7806 30.1286 61.0023 29.6226 61.9059 28.7239C62.8096 27.8252 63.3223 26.6064 63.3328 25.332H52.8262Z" fill="#D7750E"/>
<path d="M29.6798 28.332H15.4531V35.372H29.6798V28.332Z" fill="#69ADFF"/>
<path d="M28.3326 28.332L21.2926 35.372H17.5859L24.6259 28.332H28.3326Z" fill="#167FFC"/>
<path d="M22.2998 28.332L15.4531 35.172V33.172L20.2998 28.332H22.2998Z" fill="#167FFC"/>
<path d="M29.6805 31.5586V33.5586L27.8672 35.3719H25.8672L29.6805 31.5586Z" fill="#167FFC"/>
<path d="M48.5401 9.3125H32.4668V14.9592H48.5401V9.3125Z" fill="#69ADFF"/>
<path d="M45.2661 9.3125L39.6194 14.9592H35.7461L41.3928 9.3125H45.2661Z" fill="#167FFC"/>
<path d="M38.9468 9.3125L33.2935 14.9592H32.4668V14.4658L37.6135 9.3125H38.9468Z" fill="#167FFC"/>
<path d="M48.54 9.80859V12.6486L46.2267 14.9619H43.3867L48.54 9.80859Z" fill="#167FFC"/>
<path d="M48.5401 46.2266H32.4668V54.9199H48.5401V46.2266Z" fill="#69ADFF"/>
<path d="M47.1992 46.2266L38.5125 54.9199H33.8125L42.5058 46.2266H47.1992Z" fill="#167FFC"/>
<path d="M48.5397 48.9453V50.9453L44.5597 54.9186H42.5664L48.5397 48.9453Z" fill="#167FFC"/>
<path d="M38.6868 46.2266L32.4668 52.4466V50.4532L36.6868 46.2266H38.6868Z" fill="#167FFC"/>
<path d="M62.3869 21.5151C61.3504 20.485 59.9481 19.9073 58.4869 19.9084H53.4935V8.48177C53.4935 7.06728 52.9316 5.71073 51.9314 4.71053C50.9312 3.71034 49.5747 3.14844 48.1602 3.14844C-4.09981 3.14844 7.90685 3.14844 6.01352 3.14844C4.73456 3.15725 3.51139 3.67333 2.61265 4.58331C1.71391 5.4933 1.21309 6.7228 1.22019 8.00177V14.3084C1.22019 14.4852 1.29042 14.6548 1.41545 14.7798C1.54047 14.9049 1.71004 14.9751 1.88685 14.9751H10.5069V36.7751H5.49352C4.06535 36.8248 2.71226 37.4271 1.7195 38.455C0.72674 39.4829 0.171875 40.8561 0.171875 42.2851C0.171875 43.7141 0.72674 45.0873 1.7195 46.1152C2.71226 47.1431 4.06535 47.7454 5.49352 47.7951H10.4869V60.1618C10.4869 60.3386 10.5571 60.5081 10.6821 60.6332C10.8071 60.7582 10.9767 60.8284 11.1535 60.8284H52.8269C53.0037 60.8284 53.1732 60.7582 53.2983 60.6332C53.4233 60.5081 53.4935 60.3386 53.4935 60.1618V30.9284H58.5069C59.5946 30.9219 60.6562 30.5942 61.5583 29.9864C62.4604 29.3786 63.1628 28.5178 63.5773 27.5121C63.9918 26.5064 64.1 25.4007 63.8882 24.3337C63.6764 23.2668 63.1541 22.2862 62.3869 21.5151ZM10.5002 13.6351H2.55352V8.00177C2.55352 7.07705 2.92086 6.1902 3.57474 5.53632C4.22862 4.88245 5.11546 4.5151 6.04019 4.5151H6.66685C7.67514 4.54357 8.63442 4.95637 9.34829 5.66901C10.0622 6.38164 10.4766 7.3402 10.5069 8.34844L10.5002 13.6351ZM5.51352 46.4551C4.43467 46.412 3.41435 45.9531 2.66628 45.1745C1.91821 44.396 1.50042 43.3581 1.50042 42.2784C1.50042 41.1987 1.91821 40.1609 2.66628 39.3823C3.41435 38.6038 4.43467 38.1449 5.51352 38.1018H10.5269V41.6084H5.49352C5.40597 41.6084 5.31928 41.6257 5.2384 41.6592C5.15751 41.6927 5.08402 41.7418 5.02212 41.8037C4.96021 41.8656 4.9111 41.9391 4.8776 42.02C4.8441 42.1009 4.82685 42.1876 4.82685 42.2751C4.82685 42.3626 4.8441 42.4493 4.8776 42.5302C4.9111 42.6111 4.96021 42.6846 5.02212 42.7465C5.08402 42.8084 5.15751 42.8575 5.2384 42.891C5.31928 42.9245 5.40597 42.9418 5.49352 42.9418H15.4935C15.6703 42.9418 15.8399 42.8715 15.9649 42.7465C16.0899 42.6215 16.1602 42.4519 16.1602 42.2751V40.2151L22.4402 44.6684L16.1269 49.1484V47.1218C16.1269 46.945 16.0566 46.7754 15.9316 46.6504C15.8066 46.5253 15.637 46.4551 15.4602 46.4551H5.51352ZM52.1802 59.4951H11.8402V47.7884H14.7935V50.4551C14.7935 50.6319 14.8638 50.8015 14.9888 50.9265C15.1138 51.0515 15.2834 51.1218 15.4602 51.1218C15.7669 51.1218 15.1402 51.4951 23.9802 45.2284C24.0669 45.1668 24.1375 45.0853 24.1863 44.9908C24.2351 44.8963 24.2605 44.7915 24.2605 44.6851C24.2605 44.5787 24.2351 44.4739 24.1863 44.3794C24.1375 44.2849 24.0669 44.2034 23.9802 44.1418L15.8469 38.3684C15.7474 38.2976 15.6303 38.2554 15.5085 38.2466C15.3867 38.2377 15.2647 38.2625 15.156 38.3183C15.0473 38.374 14.9561 38.4585 14.8921 38.5626C14.8282 38.6666 14.7941 38.7863 14.7935 38.9084V41.5751H11.8402C11.8402 6.6351 11.8402 7.98844 11.8402 7.96177C11.8406 7.30849 11.7072 6.66205 11.448 6.06236C11.1889 5.46267 10.8096 4.92247 10.3335 4.4751H48.1869C49.2477 4.4751 50.2651 4.89653 51.0153 5.64668C51.7654 6.39682 52.1869 7.41424 52.1869 8.4751V19.9084H49.2069V17.2418C49.2126 17.1168 49.1831 16.9927 49.1217 16.8838C49.0603 16.7748 48.9695 16.6853 48.8596 16.6255C48.7497 16.5657 48.6253 16.538 48.5004 16.5456C48.3755 16.5532 48.2553 16.5957 48.1535 16.6684L40.0002 22.4551C39.9135 22.5167 39.8428 22.5982 39.794 22.6927C39.7453 22.7873 39.7198 22.8921 39.7198 22.9984C39.7198 23.1048 39.7453 23.2096 39.794 23.3041C39.8428 23.3987 39.9135 23.4801 40.0002 23.5418L48.1535 29.3351C48.2535 29.4063 48.3711 29.4485 48.4936 29.4571C48.616 29.4656 48.7384 29.4403 48.8473 29.3838C48.9562 29.3272 49.0474 29.2417 49.1109 29.1367C49.1743 29.0317 49.2075 28.9111 49.2069 28.7884V26.1218H52.1602L52.1802 59.4951ZM61.4468 28.3751C60.6653 29.1524 59.6091 29.5906 58.5069 29.5951H53.4935V26.0818H58.5069C58.6837 26.0818 58.8532 26.0115 58.9783 25.8865C59.1033 25.7615 59.1735 25.5919 59.1735 25.4151C59.1735 25.2383 59.1033 25.0687 58.9783 24.9437C58.8532 24.8187 58.6837 24.7484 58.5069 24.7484H48.5069C48.33 24.7484 48.1605 24.8187 48.0354 24.9437C47.9104 25.0687 47.8402 25.2383 47.8402 25.4151V27.4818L41.5269 22.9951L47.8402 18.5218V20.5751C47.8402 20.7519 47.9104 20.9215 48.0354 21.0465C48.1605 21.1715 48.33 21.2418 48.5069 21.2418H58.4869C59.3135 21.2414 60.1216 21.4861 60.8092 21.945C61.4967 22.4038 62.0328 23.0562 62.3496 23.8197C62.6664 24.5832 62.7497 25.4235 62.589 26.2343C62.4284 27.0451 62.0309 27.7901 61.4468 28.3751Z" fill="#2D2D3D"/>
<path d="M15.4538 10.1263H29.6804C29.8573 10.1263 30.0268 10.0561 30.1518 9.93104C30.2769 9.80602 30.3471 9.63645 30.3471 9.45964C30.3471 9.28282 30.2769 9.11326 30.1518 8.98823C30.0268 8.86321 29.8573 8.79297 29.6804 8.79297H15.4538C15.277 8.79297 15.1074 8.86321 14.9824 8.98823C14.8573 9.11326 14.7871 9.28282 14.7871 9.45964C14.7871 9.63645 14.8573 9.80602 14.9824 9.93104C15.1074 10.0561 15.277 10.1263 15.4538 10.1263ZM15.4538 13.7863H29.6804C29.8573 13.7863 30.0268 13.7161 30.1518 13.591C30.2769 13.466 30.3471 13.2964 30.3471 13.1196C30.3471 12.9428 30.2769 12.7733 30.1518 12.6482C30.0268 12.5232 29.8573 12.453 29.6804 12.453H15.4538C15.277 12.453 15.1074 12.5232 14.9824 12.6482C14.8573 12.7733 14.7871 12.9428 14.7871 13.1196C14.7871 13.2964 14.8573 13.466 14.9824 13.591C15.1074 13.7161 15.277 13.7863 15.4538 13.7863ZM15.4538 17.453H29.6804C29.8573 17.453 30.0268 17.3827 30.1518 17.2577C30.2769 17.1327 30.3471 16.9631 30.3471 16.7863C30.3471 16.6095 30.2769 16.4399 30.1518 16.3149C30.0268 16.1899 29.8573 16.1196 29.6804 16.1196H15.4538C15.277 16.1196 15.1074 16.1899 14.9824 16.3149C14.8573 16.4399 14.7871 16.6095 14.7871 16.7863C14.7871 16.9631 14.8573 17.1327 14.9824 17.2577C15.1074 17.3827 15.277 17.453 15.4538 17.453ZM15.4538 21.113H29.6804C29.8573 21.113 30.0268 21.0427 30.1518 20.9177C30.2769 20.7927 30.3471 20.6231 30.3471 20.4463C30.3471 20.2695 30.2769 20.0999 30.1518 19.9749C30.0268 19.8499 29.8573 19.7796 29.6804 19.7796H15.4538C15.277 19.7796 15.1074 19.8499 14.9824 19.9749C14.8573 20.0999 14.7871 20.2695 14.7871 20.4463C14.7871 20.6231 14.8573 20.7927 14.9824 20.9177C15.1074 21.0427 15.277 21.113 15.4538 21.113ZM15.4538 24.7796H24.0004C24.1773 24.7796 24.3468 24.7094 24.4718 24.5844C24.5969 24.4593 24.6671 24.2898 24.6671 24.113C24.6671 23.9362 24.5969 23.7666 24.4718 23.6416C24.3468 23.5165 24.1773 23.4463 24.0004 23.4463H15.4538C15.277 23.4463 15.1074 23.5165 14.9824 23.6416C14.8573 23.7666 14.7871 23.9362 14.7871 24.113C14.7871 24.2898 14.8573 24.4593 14.9824 24.5844C15.1074 24.7094 15.277 24.7796 15.4538 24.7796ZM33.6538 28.4796C33.6538 28.6564 33.724 28.826 33.849 28.951C33.9741 29.0761 34.1436 29.1463 34.3204 29.1463H43.0538C43.2306 29.1463 43.4002 29.0761 43.5252 28.951C43.6502 28.826 43.7204 28.6564 43.7204 28.4796C43.7204 28.3028 43.6502 28.1333 43.5252 28.0082C43.4002 27.8832 43.2306 27.813 43.0538 27.813H34.3204C34.1436 27.813 33.9741 27.8832 33.849 28.0082C33.724 28.1333 33.6538 28.3028 33.6538 28.4796ZM48.5404 31.473H34.3204C34.1436 31.473 33.9741 31.5432 33.849 31.6682C33.724 31.7933 33.6538 31.9628 33.6538 32.1396C33.6538 32.3164 33.724 32.486 33.849 32.611C33.9741 32.7361 34.1436 32.8063 34.3204 32.8063H48.5404C48.7173 32.8063 48.8868 32.7361 49.0118 32.611C49.1369 32.486 49.2071 32.3164 49.2071 32.1396C49.2071 31.9628 49.1369 31.7933 49.0118 31.6682C48.8868 31.5432 48.7173 31.473 48.5404 31.473ZM48.5404 35.1396H34.3204C34.1436 35.1396 33.9741 35.2099 33.849 35.3349C33.724 35.4599 33.6538 35.6295 33.6538 35.8063C33.6538 35.9831 33.724 36.1527 33.849 36.2777C33.9741 36.4027 34.1436 36.473 34.3204 36.473H48.5404C48.7173 36.473 48.8868 36.4027 49.0118 36.2777C49.1369 36.1527 49.2071 35.9831 49.2071 35.8063C49.2071 35.6295 49.1369 35.4599 49.0118 35.3349C48.8868 35.2099 48.7173 35.1396 48.5404 35.1396ZM48.5404 38.8063H34.3204C34.1436 38.8063 33.9741 38.8765 33.849 39.0016C33.724 39.1266 33.6538 39.2962 33.6538 39.473C33.6538 39.6498 33.724 39.8194 33.849 39.9444C33.9741 40.0694 34.1436 40.1396 34.3204 40.1396H48.5404C48.7173 40.1396 48.8868 40.0694 49.0118 39.9444C49.1369 39.8194 49.2071 39.6498 49.2071 39.473C49.2071 39.2962 49.1369 39.1266 49.0118 39.0016C48.8868 38.8765 48.7173 38.8063 48.5404 38.8063ZM42.8538 43.7996C43.0306 43.7996 43.2002 43.7294 43.3252 43.6044C43.4502 43.4794 43.5204 43.3098 43.5204 43.133C43.5204 42.9562 43.4502 42.7866 43.3252 42.6616C43.2002 42.5365 43.0306 42.4663 42.8538 42.4663H34.3204C34.1436 42.4663 33.9741 42.5365 33.849 42.6616C33.724 42.7866 33.6538 42.9562 33.6538 43.133C33.6538 43.3098 33.724 43.4794 33.849 43.6044C33.9741 43.7294 34.1436 43.7996 34.3204 43.7996H42.8538ZM29.6804 27.813H15.4538C15.277 27.813 15.1074 27.8832 14.9824 28.0082C14.8573 28.1333 14.7871 28.3028 14.7871 28.4796V35.5196C14.7871 35.6964 14.8573 35.866 14.9824 35.991C15.1074 36.1161 15.277 36.1863 15.4538 36.1863H29.6804C29.8573 36.1863 30.0268 36.1161 30.1518 35.991C30.2769 35.866 30.3471 35.6964 30.3471 35.5196V28.4796C30.3471 28.3028 30.2769 28.1333 30.1518 28.0082C30.0268 27.8832 29.8573 27.813 29.6804 27.813ZM29.0138 34.853H16.1204V29.1463H29.0138V34.853ZM32.4671 15.7796H48.5404C48.7173 15.7796 48.8868 15.7094 49.0118 15.5844C49.1369 15.4594 49.2071 15.2898 49.2071 15.113V9.45964C49.2071 9.28282 49.1369 9.11326 49.0118 8.98823C48.8868 8.86321 48.7173 8.79297 48.5404 8.79297H32.4671C32.2903 8.79297 32.1207 8.86321 31.9957 8.98823C31.8707 9.11326 31.8004 9.28282 31.8004 9.45964V15.113C31.8004 15.2898 31.8707 15.4594 31.9957 15.5844C32.1207 15.7094 32.2903 15.7796 32.4671 15.7796ZM33.1338 10.1263H47.8738V14.4463H33.1338V10.1263ZM48.5404 45.7063H32.4671C32.2903 45.7063 32.1207 45.7765 31.9957 45.9016C31.8707 46.0266 31.8004 46.1962 31.8004 46.373V55.0396C31.8004 55.2164 31.8707 55.386 31.9957 55.511C32.1207 55.6361 32.2903 55.7063 32.4671 55.7063H48.5404C48.7173 55.7063 48.8868 55.6361 49.0118 55.511C49.1369 55.386 49.2071 55.2164 49.2071 55.0396V46.373C49.2071 46.1962 49.1369 46.0266 49.0118 45.9016C48.8868 45.7765 48.7173 45.7063 48.5404 45.7063ZM47.8738 54.373H33.1338V47.0396H47.8738V54.373ZM39.4538 17.5463H34.3204C34.1436 17.5463 33.9741 17.6165 33.849 17.7416C33.724 17.8666 33.6538 18.0362 33.6538 18.213C33.6538 18.3898 33.724 18.5594 33.849 18.6844C33.9741 18.8094 34.1436 18.8796 34.3204 18.8796H39.4538C39.6306 18.8796 39.8002 18.8094 39.9252 18.6844C40.0502 18.5594 40.1204 18.3898 40.1204 18.213C40.1204 18.0362 40.0502 17.8666 39.9252 17.7416C39.8002 17.6165 39.6306 17.5463 39.4538 17.5463ZM34.3204 21.813H36.9338C37.1106 21.813 37.2802 21.7427 37.4052 21.6177C37.5302 21.4927 37.6004 21.3231 37.6004 21.1463C37.6004 20.9695 37.5302 20.7999 37.4052 20.6749C37.2802 20.5499 37.1106 20.4796 36.9338 20.4796H34.3204C34.1436 20.4796 33.9741 20.5499 33.849 20.6749C33.724 20.7999 33.6538 20.9695 33.6538 21.1463C33.6538 21.3231 33.724 21.4927 33.849 21.6177C33.9741 21.7427 34.1436 21.813 34.3204 21.813ZM34.3204 24.7463H36.9338C37.1106 24.7463 37.2802 24.6761 37.4052 24.551C37.5302 24.426 37.6004 24.2564 37.6004 24.0796C37.6004 23.9028 37.5302 23.7333 37.4052 23.6082C37.2802 23.4832 37.1106 23.413 36.9338 23.413H34.3204C34.1436 23.413 33.9741 23.4832 33.849 23.6082C33.724 23.7333 33.6538 23.9028 33.6538 24.0796C33.6538 24.2564 33.724 24.426 33.849 24.551C33.9741 24.6761 34.1436 24.7463 34.3204 24.7463ZM29.6804 40.8796H24.5471C24.3703 40.8796 24.2007 40.9499 24.0757 41.0749C23.9507 41.1999 23.8804 41.3695 23.8804 41.5463C23.8804 41.7231 23.9507 41.8927 24.0757 42.0177C24.2007 42.1427 24.3703 42.213 24.5471 42.213H29.6804C29.8573 42.213 30.0268 42.1427 30.1518 42.0177C30.2769 41.8927 30.3471 41.7231 30.3471 41.5463C30.3471 41.3695 30.2769 41.1999 30.1518 41.0749C30.0268 40.9499 29.8573 40.8796 29.6804 40.8796ZM29.6804 43.813H26.5071C26.3303 43.813 26.1607 43.8832 26.0357 44.0082C25.9107 44.1333 25.8404 44.3028 25.8404 44.4796C25.8404 44.6564 25.9107 44.826 26.0357 44.951C26.1607 45.0761 26.3303 45.1463 26.5071 45.1463H29.6804C29.8573 45.1463 30.0268 45.0761 30.1518 44.951C30.2769 44.826 30.3471 44.6564 30.3471 44.4796C30.3471 44.3028 30.2769 44.1333 30.1518 44.0082C30.0268 43.8832 29.8573 43.813 29.6804 43.813ZM29.6804 46.7463H24.5471C24.3703 46.7463 24.2007 46.8165 24.0757 46.9416C23.9507 47.0666 23.8804 47.2362 23.8804 47.413C23.8804 47.5898 23.9507 47.7594 24.0757 47.8844C24.2007 48.0094 24.3703 48.0796 24.5471 48.0796H29.6804C29.8573 48.0796 30.0268 48.0094 30.1518 47.8844C30.2769 47.7594 30.3471 47.5898 30.3471 47.413C30.3471 47.2362 30.2769 47.0666 30.1518 46.9416C30.0268 46.8165 29.8573 46.7463 29.6804 46.7463ZM29.6804 51.1263H20.2671C20.0903 51.1263 19.9207 51.1965 19.7957 51.3216C19.6707 51.4466 19.6004 51.6162 19.6004 51.793C19.6004 51.9698 19.6707 52.1394 19.7957 52.2644C19.9207 52.3894 20.0903 52.4596 20.2671 52.4596H29.6804C29.8573 52.4596 30.0268 52.3894 30.1518 52.2644C30.2769 52.1394 30.3471 51.9698 30.3471 51.793C30.3471 51.6162 30.2769 51.4466 30.1518 51.3216C30.0268 51.1965 29.8573 51.1263 29.6804 51.1263ZM29.6804 54.3996H15.4538C15.277 54.3996 15.1074 54.4699 14.9824 54.5949C14.8573 54.7199 14.7871 54.8895 14.7871 55.0663C14.7871 55.2431 14.8573 55.4127 14.9824 55.5377C15.1074 55.6627 15.277 55.733 15.4538 55.733H29.6804C29.8573 55.733 30.0268 55.6627 30.1518 55.5377C30.2769 55.4127 30.3471 55.2431 30.3471 55.0663C30.3471 54.8895 30.2769 54.7199 30.1518 54.5949C30.0268 54.4699 29.8573 54.3996 29.6804 54.3996Z" fill="#2D2D3D"/>
</svg>
