<svg width="64" height="64" viewBox="0 0 64 64" fill="none" xmlns="http://www.w3.org/2000/svg">
<g clip-path="url(#clip0_9061_6110)">
<path d="M53.334 5.33203H10.6673C7.73398 5.33203 5.33398 7.73203 5.33398 10.6654V58.6654L16.0007 47.9987H53.334C56.2673 47.9987 58.6673 45.5987 58.6673 42.6654V10.6654C58.6673 7.73203 56.2673 5.33203 53.334 5.33203ZM16.0007 37.332V30.7454L34.3473 12.3987C34.8806 11.8654 35.7073 11.8654 36.2407 12.3987L40.9606 17.1187C41.494 17.652 41.494 18.4787 40.9606 19.012L22.5873 37.332H16.0007ZM45.334 37.332H28.0007L33.334 31.9987H45.334C46.8006 31.9987 48.0006 33.1987 48.0006 34.6654C48.0006 36.132 46.8006 37.332 45.334 37.332Z" fill="#595BD4"/>
</g>
<defs>
<clipPath id="clip0_9061_6110">
<rect width="64" height="64" fill="white"/>
</clipPath>
</defs>
</svg>
