<svg width="24" height="24" viewBox="0 0 24 24" fill="none" xmlns="http://www.w3.org/2000/svg">
<g clip-path="url(#clip0_9008_7254)">
<path fill-rule="evenodd" clip-rule="evenodd" d="M7.81328 9.26491C8.51609 9.4031 9.18428 9.68008 9.77875 10.0796L10.8269 9.61417L11.7292 10.5165L11.2638 11.5643C11.6635 12.1589 11.9405 12.8273 12.0787 13.5302L13.148 13.9418V15.2179L12.0784 15.6296C11.9402 16.3324 11.6632 17.0006 11.2636 17.5951L11.7291 18.6432L10.8268 19.5455L9.77894 19.0801C9.18436 19.4798 8.51602 19.7568 7.81305 19.895L7.40144 20.9643H6.12536L5.71366 19.8947C4.99787 19.7541 4.33277 19.4724 3.74819 19.08L2.70006 19.5455L1.79772 18.6432L2.26309 17.5953C1.86341 17.0008 1.58637 16.3324 1.44822 15.6295L0.378906 15.2178V13.9418L1.44841 13.5301C1.58657 12.8272 1.86357 12.159 2.26319 11.5645L1.79772 10.5165L2.70002 9.61417L3.74814 10.0796C4.34262 9.68008 5.01083 9.40309 5.71366 9.26491L6.12536 8.19531H7.40144L7.81328 9.26491ZM6.76356 11.6504C5.14567 11.6504 3.83411 12.9619 3.83411 14.5798C3.83411 16.1977 5.14567 17.5092 6.76356 17.5092C8.38145 17.5092 9.69302 16.1977 9.69302 14.5798C9.69297 12.9619 8.38145 11.6504 6.76356 11.6504Z" fill="#167FFC"/>
<path fill-rule="evenodd" clip-rule="evenodd" d="M7.81358 9.26491C8.51639 9.4031 9.18458 9.68008 9.77905 10.0796L10.8272 9.61417L11.7295 10.5165L11.2641 11.5643C11.6638 12.1589 11.9408 12.8273 12.079 13.5302L13.1483 13.9418V15.2179L12.0787 15.6296C11.9405 16.3324 11.6635 17.0006 11.2639 17.5951L11.7294 18.6432L10.8271 19.5455L9.77923 19.0801C9.18466 19.4798 8.51632 19.7568 7.81334 19.895L7.40173 20.9643H6.76367V17.5092C8.38156 17.5092 9.69312 16.1977 9.69312 14.5798C9.69312 12.9619 8.38156 11.6504 6.76367 11.6504V8.19531H7.40169L7.81358 9.26491Z" fill="#53D86A"/>
<path fill-rule="evenodd" clip-rule="evenodd" d="M18.9772 2.68459C19.4103 3.02604 19.7709 3.45042 20.0381 3.93292L20.9197 3.98191L21.2213 4.91702L20.5346 5.47173C20.5997 6.0195 20.5549 6.57476 20.4028 7.105L20.9911 7.76247L20.5431 8.63692L19.6656 8.54359C19.3241 8.97669 18.8997 9.33735 18.4172 9.60447L18.3682 10.4861L17.4332 10.7877L16.8785 10.1009C16.3307 10.1661 15.7754 10.1213 15.2452 9.9692L14.5877 10.5575L13.7133 10.1095L13.8066 9.232C13.3735 8.89056 13.0129 8.46617 12.7458 7.98367L11.8641 7.93473L11.5625 6.99962L12.2493 6.44491C12.1842 5.89714 12.2289 5.34188 12.381 4.81164L11.7928 4.15417L12.2407 3.27972L13.1182 3.37309C13.4596 2.93993 13.8841 2.57924 14.3666 2.31212L14.4155 1.4305L15.3507 1.12891L15.9055 1.81586C16.4532 1.75075 17.0083 1.79553 17.5385 1.94758L18.1961 1.35916L19.0706 1.80714L18.9772 2.68459ZM15.7097 3.84278C14.5414 4.21956 13.8996 5.47216 14.2765 6.64052C14.6533 7.80892 15.9058 8.45059 17.0742 8.07377C18.2426 7.69698 18.8843 6.44439 18.5075 5.27598C18.1306 4.10763 16.8781 3.46595 15.7097 3.84278Z" fill="#167FFC"/>
<path fill-rule="evenodd" clip-rule="evenodd" d="M18.9756 2.68459C19.4087 3.02604 19.7693 3.45042 20.0365 3.93292L20.9181 3.98191L21.2197 4.91702L20.533 5.47173C20.5981 6.0195 20.5533 6.57476 20.4012 7.105L20.9895 7.76247L20.5415 8.63692L19.664 8.54359C19.3225 8.97669 18.8981 9.33735 18.4156 9.60447L18.3666 10.4861L17.8626 10.6487L17.0538 8.07963C17.06 8.0777 17.0663 8.07587 17.0725 8.07386C18.2409 7.69708 18.8825 6.44448 18.5057 5.27608C18.1301 4.11133 16.8842 3.47017 15.7189 3.83945L14.9102 1.27042L15.349 1.12891L15.9038 1.81586C16.4515 1.75075 17.0066 1.79553 17.5367 1.94758L18.1944 1.35916L19.0689 1.80714L18.9756 2.68459Z" fill="#53D86A"/>
<path fill-rule="evenodd" clip-rule="evenodd" d="M19.5513 13.5916L23.3912 20.2425C23.7069 20.7892 23.7069 21.4492 23.3912 21.996C23.0755 22.5427 22.504 22.8727 21.8726 22.8727H14.1928C13.5614 22.8727 12.99 22.5427 12.6743 21.996C12.3586 21.4492 12.3586 20.7892 12.6743 20.2425L16.5141 13.5916C16.8298 13.0448 17.4013 12.7148 18.0327 12.7148C18.6641 12.7149 19.2356 13.0448 19.5513 13.5916Z" fill="#FFBD77"/>
<path fill-rule="evenodd" clip-rule="evenodd" d="M19.5517 13.5916L23.3916 20.2425C23.7073 20.7893 23.7073 21.4492 23.3916 21.996C23.0759 22.5427 22.5044 22.8727 21.8731 22.8727H18.0332V12.7148C18.6646 12.7148 19.2361 13.0448 19.5517 13.5916Z" fill="#FE9526"/>
<path fill-rule="evenodd" clip-rule="evenodd" d="M18.0334 20.4234C18.3582 20.4234 18.6215 20.6867 18.6215 21.0115C18.6215 21.3363 18.3582 21.5996 18.0334 21.5996C17.7086 21.5996 17.4453 21.3363 17.4453 21.0115C17.4453 20.6867 17.7086 20.4234 18.0334 20.4234ZM18.0335 19.3736C17.9146 19.3736 17.8003 19.3275 17.7148 19.245C17.6292 19.1624 17.579 19.05 17.5747 18.9312L17.4587 15.7178C17.454 15.5885 17.4973 15.4756 17.587 15.3825C17.6768 15.2894 17.7881 15.2422 17.9174 15.2422H18.1495C18.2788 15.2422 18.3901 15.2895 18.4799 15.3825C18.5697 15.4756 18.613 15.5885 18.6083 15.7178L18.4922 18.9312C18.4879 19.0499 18.4377 19.1624 18.3521 19.2449C18.2665 19.3275 18.1523 19.3736 18.0335 19.3736Z" fill="#FEB364"/>
<path fill-rule="evenodd" clip-rule="evenodd" d="M18.0332 20.4235C18.358 20.4235 18.6213 20.6868 18.6213 21.0116C18.6213 21.3364 18.358 21.5997 18.0332 21.5997V20.4235ZM18.0332 19.3737V15.2422H18.1493C18.2786 15.2422 18.3899 15.2895 18.4797 15.3825C18.5695 15.4756 18.6127 15.5885 18.608 15.7178L18.492 18.9312C18.4877 19.05 18.4374 19.1625 18.3519 19.245C18.2663 19.3275 18.1521 19.3736 18.0332 19.3737Z" fill="#FDA547"/>
<path fill-rule="evenodd" clip-rule="evenodd" d="M17.855 15.6424C17.8741 15.6227 17.8882 15.6167 17.9156 15.6167H18.1477C18.175 15.6167 18.1892 15.6227 18.2082 15.6424C18.2271 15.6621 18.2326 15.6762 18.2316 15.7038L18.1156 18.9171C18.1149 18.9389 18.1057 18.9596 18.0901 18.9747C18.0744 18.9899 18.0534 18.9983 18.0316 18.9983C18.0098 18.9983 17.9888 18.9899 17.9732 18.9747C17.9575 18.9596 17.9483 18.9389 17.9476 18.9171L17.8316 15.7038C17.8306 15.6762 17.8359 15.662 17.855 15.6424ZM18.0317 19.7482C18.2479 19.7489 18.4558 19.6653 18.6114 19.5152C18.767 19.3652 18.858 19.1604 18.8652 18.9443L18.9813 15.7306C18.9896 15.4991 18.9089 15.2885 18.748 15.1216C18.5871 14.9548 18.3795 14.8666 18.1477 14.8666H17.9156C17.6838 14.8666 17.4762 14.9548 17.3153 15.1216C17.1543 15.2885 17.0736 15.499 17.0821 15.7306L17.1981 18.9443C17.2053 19.1604 17.2963 19.3652 17.4519 19.5153C17.6075 19.6653 17.8155 19.7489 18.0317 19.7482ZM18.0316 21.2239C17.9751 21.2239 17.921 21.2014 17.881 21.1615C17.8411 21.1216 17.8186 21.0674 17.8185 21.0109C17.8185 20.8933 17.9142 20.7977 18.0316 20.7977C18.0881 20.7978 18.1423 20.8203 18.1823 20.8603C18.2222 20.9002 18.2447 20.9544 18.2448 21.0109C18.2447 21.0674 18.2222 21.1216 18.1822 21.1615C18.1423 21.2014 18.0881 21.2239 18.0316 21.2239ZM18.0316 20.0476C17.5006 20.0476 17.0685 20.4799 17.0685 21.0109C17.0685 21.5421 17.5006 21.9738 18.0316 21.9738C18.5626 21.9738 18.9947 21.5421 18.9947 21.0109C18.9947 20.4799 18.5626 20.0476 18.0316 20.0476ZM23.0654 21.8064C23.3146 21.3747 23.3146 20.8597 23.0654 20.428L19.2255 13.7772C18.9763 13.3456 18.53 13.0879 18.0316 13.0879C17.5332 13.0879 17.087 13.3456 16.8379 13.7772L12.998 20.428C12.7488 20.8597 12.7488 21.3747 12.998 21.8064C13.2472 22.2383 13.6934 22.4955 14.1918 22.4955H21.8715C22.3699 22.4955 22.8162 22.2383 23.0654 21.8064ZM23.7149 20.0529L19.875 13.4021C19.4902 12.7356 18.8011 12.3377 18.0316 12.3377C17.2621 12.3377 16.5731 12.7356 16.1883 13.4021L12.3484 20.0529C11.9638 20.7194 11.9638 21.5149 12.3484 22.1815C12.7332 22.848 13.4223 23.2456 14.1918 23.2456H21.8715C22.641 23.2456 23.3301 22.848 23.7149 22.1815C24.0997 21.5149 24.0997 20.7194 23.7149 20.0529ZM14.8798 5.18458C15.0865 4.78122 15.4378 4.48244 15.8691 4.34355C16.0379 4.28872 16.2142 4.26074 16.3917 4.26062C16.657 4.26062 16.9205 4.32362 17.1635 4.44817C17.5669 4.6547 17.8656 5.00612 18.0048 5.43733C18.1438 5.86876 18.1066 6.32833 17.9 6.73192C17.4734 7.56451 16.4489 7.89494 15.6163 7.46833C14.7836 7.04176 14.4533 6.01717 14.8798 5.18458ZM15.2744 8.13578C15.6182 8.31251 15.9992 8.4047 16.3858 8.4047C17.2754 8.4047 18.1349 7.91842 18.5675 7.07383C18.8654 6.4922 18.9192 5.8292 18.7186 5.20712C18.5179 4.58528 18.0871 4.07861 17.5055 3.78072C16.9238 3.48264 16.2609 3.42911 15.6389 3.62969C15.017 3.83003 14.5103 4.26105 14.2124 4.84267C13.9144 5.4243 13.8607 6.0873 14.0614 6.70914C14.2618 7.33126 14.6926 7.83789 15.2744 8.13578ZM12.4829 6.73656L11.9964 7.12956L12.14 7.5745L12.7645 7.609C12.8278 7.61258 12.8892 7.63211 12.9429 7.66579C12.9966 7.69947 13.0409 7.74619 13.0717 7.80161C13.3168 8.24392 13.6415 8.62581 14.0367 8.93739C14.0865 8.97663 14.1256 9.02787 14.1502 9.08632C14.1748 9.14476 14.1842 9.2085 14.1775 9.27156L14.1114 9.89298L14.5275 10.1062L14.9931 9.68955C15.0404 9.64733 15.0977 9.61776 15.1595 9.60361C15.2213 9.58946 15.2857 9.59117 15.3466 9.60859C15.8308 9.74772 16.3306 9.78794 16.8322 9.72845C16.8952 9.72096 16.959 9.72956 17.0178 9.75346C17.0765 9.77735 17.1283 9.81576 17.1681 9.86509L17.5611 10.3516L18.0061 10.2081L18.0407 9.58356C18.0442 9.52025 18.0637 9.45885 18.0974 9.40513C18.1311 9.35141 18.1779 9.30711 18.2333 9.27639C18.6725 9.03374 19.0586 8.7056 19.369 8.31133C19.4082 8.26148 19.4594 8.2224 19.5179 8.19777C19.5764 8.17313 19.6401 8.16374 19.7032 8.17047L20.3247 8.23661L20.5378 7.82064L20.1212 7.35489C20.0789 7.30765 20.0493 7.25044 20.0352 7.18864C20.021 7.12683 20.0228 7.06244 20.0403 7.0015C20.1793 6.51719 20.2195 6.01741 20.1601 5.51584C20.1526 5.45285 20.1612 5.38897 20.1851 5.33021C20.209 5.27146 20.2475 5.21973 20.2969 5.17989L20.7833 4.78694L20.6398 4.342L20.0151 4.30726C19.9519 4.30372 19.8905 4.2842 19.8368 4.25052C19.7831 4.21683 19.7388 4.17009 19.7081 4.11465C19.4654 3.6755 19.1372 3.28938 18.743 2.97906C18.6932 2.9398 18.6541 2.88856 18.6295 2.83013C18.6049 2.7717 18.5955 2.70799 18.6021 2.64494L18.6683 2.02351L18.2522 1.81033L17.7864 2.22695C17.7392 2.26926 17.6819 2.29888 17.6201 2.31304C17.5583 2.32719 17.4939 2.32543 17.4329 2.3079C16.9492 2.16901 16.4494 2.1288 15.9475 2.18828C15.8845 2.1957 15.8207 2.18703 15.7619 2.16308C15.7032 2.13914 15.6515 2.1007 15.6117 2.05136L15.2187 1.56484L14.7736 1.70837L14.739 2.33265C14.7355 2.396 14.716 2.45743 14.6823 2.51119C14.6486 2.56495 14.6018 2.60929 14.5463 2.64006C14.1071 2.8826 13.7209 3.21076 13.4107 3.60512C13.3714 3.6549 13.3201 3.69392 13.2617 3.71852C13.2033 3.74312 13.1395 3.7525 13.0765 3.7458L12.4551 3.6797L12.2418 4.09591L12.6584 4.56166C12.7008 4.60889 12.7304 4.66608 12.7446 4.72789C12.7587 4.7897 12.757 4.8541 12.7395 4.91505C12.6007 5.39729 12.56 5.90245 12.6197 6.4007C12.6272 6.46368 12.6185 6.52753 12.5946 6.58628C12.5707 6.64502 12.5322 6.69672 12.4829 6.73656ZM11.5052 8.04976C11.5285 8.1219 11.573 8.1853 11.6331 8.23161C11.6931 8.27791 11.7657 8.30496 11.8414 8.30917L12.5219 8.34676C12.7628 8.7388 13.0625 9.0915 13.4105 9.39255L13.3385 10.0697C13.3304 10.1451 13.3454 10.2211 13.3815 10.2878C13.4175 10.3544 13.4729 10.4086 13.5403 10.4432L14.4148 10.891C14.4823 10.9256 14.5586 10.939 14.6338 10.9293C14.7089 10.9196 14.7794 10.8874 14.8359 10.8369L15.3432 10.3829C15.7909 10.4896 16.2524 10.5268 16.7114 10.4932L17.1395 11.0233C17.1872 11.0823 17.2516 11.1254 17.3242 11.147C17.3968 11.1687 17.4743 11.1678 17.5464 11.1445L18.4815 10.8429C18.5536 10.8196 18.617 10.7751 18.6633 10.7151C18.7096 10.6552 18.7366 10.5826 18.7408 10.507L18.7786 9.82623C19.1707 9.58534 19.5234 9.28566 19.8244 8.93767L20.5015 9.00976C20.5768 9.01766 20.6528 9.00261 20.7195 8.96659C20.7861 8.93056 20.8403 8.87524 20.875 8.80787L21.323 7.93347C21.3575 7.86602 21.3708 7.78968 21.3611 7.71452C21.3515 7.63935 21.3192 7.56888 21.2687 7.51239L20.8146 7.00511C20.9213 6.55738 20.9586 6.09591 20.925 5.63687L21.455 5.20876C21.514 5.16113 21.5571 5.09675 21.5788 5.02411C21.6004 4.95148 21.5996 4.87399 21.5763 4.80184L21.2747 3.86683C21.2515 3.79468 21.2069 3.73128 21.1469 3.68497C21.0869 3.63866 21.0143 3.61162 20.9386 3.60742L20.258 3.56959C20.0171 3.17763 19.7174 2.82494 19.3695 2.52381L19.4415 1.84665C19.4495 1.77132 19.4345 1.69533 19.3984 1.62869C19.3624 1.56206 19.307 1.5079 19.2396 1.47334L18.365 1.02526C18.2975 0.99071 18.2212 0.977414 18.146 0.987129C18.0709 0.996845 18.0004 1.02912 17.944 1.07969L17.4365 1.53367C16.9889 1.42712 16.5276 1.38999 16.0686 1.42356L15.6403 0.893264C15.5928 0.834285 15.5284 0.791127 15.4558 0.769493C15.3831 0.747858 15.3057 0.748765 15.2336 0.772092L14.2985 1.0735C14.2263 1.09674 14.1629 1.14131 14.1166 1.20132C14.0703 1.26133 14.0433 1.33396 14.0391 1.40964L14.0013 2.09012C13.6093 2.33101 13.2566 2.63069 12.9555 2.97869L12.2785 2.90683C12.2031 2.89874 12.1271 2.91371 12.0604 2.94976C11.9938 2.98581 11.9396 3.04123 11.9051 3.10872L11.4571 3.98312C11.4226 4.05057 11.4093 4.12691 11.4189 4.20207C11.4286 4.27724 11.4608 4.34771 11.5114 4.4042L11.9653 4.91148C11.8586 5.35921 11.8214 5.82068 11.855 6.27972L11.3249 6.70783C11.266 6.75542 11.2229 6.81975 11.2012 6.89235C11.1796 6.96496 11.1804 7.04241 11.2037 7.11451L11.5052 8.04976ZM10.7418 19.0975L9.92919 18.7367C9.87123 18.7109 9.80769 18.7003 9.7445 18.7057C9.68132 18.7112 9.62056 18.7327 9.56792 18.7681C9.01091 19.1423 8.39548 19.3972 7.73891 19.5259C7.67668 19.5383 7.61859 19.5662 7.57003 19.607C7.52147 19.6478 7.48403 19.7003 7.46117 19.7595L7.14205 20.5888H6.38099L6.06172 19.7595C6.03896 19.7002 6.00156 19.6478 5.953 19.6069C5.90445 19.5661 5.84633 19.5382 5.78408 19.5259C5.12797 19.3972 4.51273 19.1423 3.95534 18.7681C3.90275 18.7326 3.84198 18.7111 3.77878 18.7056C3.71557 18.7001 3.65201 18.7108 3.59408 18.7367L2.78127 19.0975L2.24305 18.5595L2.60384 17.7466C2.62959 17.6887 2.64022 17.6252 2.63474 17.562C2.62925 17.4989 2.60783 17.4382 2.57248 17.3856C2.19837 16.8283 1.94328 16.2133 1.81428 15.5565C1.80203 15.4942 1.7742 15.4361 1.7334 15.3875C1.6926 15.3389 1.64014 15.3014 1.58094 15.2785L0.751906 14.9594V14.1987L1.58113 13.8794C1.64037 13.8566 1.69286 13.8191 1.73367 13.7705C1.77449 13.7219 1.80229 13.6637 1.81447 13.6014C1.94328 12.9453 2.19837 12.3301 2.57258 11.7728C2.60793 11.7201 2.62935 11.6594 2.63484 11.5962C2.64032 11.5331 2.62969 11.4696 2.60394 11.4116L2.243 10.5989L2.78117 10.0607L3.59398 10.4215C3.65192 10.4473 3.71545 10.4579 3.77862 10.4524C3.84179 10.447 3.90253 10.4255 3.95516 10.3901C4.51259 10.0159 5.12792 9.76098 5.78403 9.63203C5.84626 9.6198 5.90438 9.59199 5.95294 9.55118C6.00149 9.51038 6.03891 9.45793 6.06167 9.39873L6.38094 8.56942H7.142L7.46131 9.39873C7.48408 9.45793 7.52149 9.51038 7.57005 9.55118C7.61861 9.59199 7.67672 9.6198 7.73895 9.63203C8.39506 9.76094 9.0103 10.0159 9.56764 10.3901C9.62028 10.4255 9.68104 10.4469 9.74422 10.4524C9.80741 10.4579 9.87095 10.4473 9.92891 10.4215L10.7417 10.0607L11.2799 10.5989L10.919 11.4112C10.8933 11.4692 10.8827 11.5328 10.8882 11.596C10.8937 11.6592 10.9151 11.7199 10.9505 11.7726C11.3246 12.3296 11.5798 12.9451 11.7087 13.6021C11.721 13.6643 11.7488 13.7223 11.7896 13.7708C11.8304 13.8193 11.8828 13.8567 11.942 13.8794L12.771 14.1988V14.9595L11.9417 15.2786C11.8825 15.3015 11.8301 15.339 11.7893 15.3876C11.7485 15.4362 11.7207 15.4943 11.7084 15.5566C11.5795 16.2125 11.3244 16.828 10.9502 17.3853C10.9149 17.438 10.8935 17.4987 10.888 17.5619C10.8825 17.6251 10.8931 17.6887 10.9189 17.7467L11.2799 18.5596L10.7418 19.0975ZM12.0699 18.4901C12.1007 18.5594 12.1098 18.6364 12.0959 18.7109C12.0821 18.7854 12.046 18.854 11.9923 18.9076L11.0901 19.8101C11.0365 19.8636 10.9679 19.8996 10.8934 19.9134C10.8189 19.9272 10.742 19.9181 10.6727 19.8873L9.81017 19.5045C9.279 19.8347 8.69738 20.0758 8.08836 20.2183L7.74955 21.098C7.7224 21.1688 7.67441 21.2297 7.61192 21.2727C7.54942 21.3157 7.47537 21.3387 7.39953 21.3386H6.12355C6.04772 21.3386 5.97368 21.3156 5.9112 21.2727C5.84871 21.2297 5.80073 21.1688 5.77358 21.098L5.43467 20.2179C4.82581 20.0755 4.24433 19.8345 3.71328 19.5044L2.85036 19.8872C2.78117 19.9182 2.70422 19.9274 2.62969 19.9136C2.55516 19.8998 2.48658 19.8637 2.43303 19.8101L1.53064 18.9076C1.47702 18.854 1.44091 18.7854 1.42708 18.7108C1.41324 18.6363 1.42234 18.5593 1.45316 18.49L1.83617 17.6276C1.50575 17.0966 1.26464 16.515 1.12245 15.906L0.242281 15.567C0.171576 15.5398 0.110763 15.4919 0.0678591 15.4294C0.0249555 15.367 0.00197689 15.2931 0.00195313 15.2173V13.9409C0.00194432 13.8651 0.0249101 13.7912 0.0678179 13.7287C0.110726 13.6663 0.171558 13.6184 0.242281 13.5912L1.12264 13.2522C1.26488 12.6432 1.50595 12.0616 1.83627 11.5306L1.45306 10.6679C1.42229 10.5987 1.41323 10.5217 1.42708 10.4472C1.44093 10.3727 1.47704 10.3042 1.53064 10.2506L2.43294 9.34815C2.48657 9.29463 2.55515 9.25858 2.62966 9.24477C2.70416 9.23096 2.7811 9.24002 2.85036 9.27076L3.71319 9.65401C4.24421 9.32376 4.82573 9.08269 5.43467 8.94039L5.77358 8.06003C5.80077 7.98928 5.84877 7.92843 5.91125 7.88552C5.97373 7.84261 6.04775 7.81964 6.12355 7.81965H7.39953C7.47533 7.81965 7.54935 7.84262 7.61184 7.88553C7.67432 7.92844 7.72234 7.98928 7.74955 8.06003L8.08841 8.94039C8.69728 9.08271 9.27874 9.32377 9.8097 9.65401L10.6726 9.27076C10.7419 9.24003 10.8188 9.23097 10.8933 9.24478C10.9678 9.25859 11.0364 9.29463 11.09 9.34815L11.9923 10.2506C12.0459 10.3042 12.082 10.3727 12.0959 10.4472C12.1097 10.5217 12.1007 10.5987 12.0699 10.6679L11.6868 11.5304C12.0172 12.0615 12.2584 12.6431 12.4006 13.2522L13.2807 13.5912C13.3514 13.6184 13.4123 13.6663 13.4552 13.7287C13.4981 13.7912 13.521 13.8651 13.521 13.9409V15.2173C13.521 15.2931 13.498 15.367 13.4551 15.4294C13.4123 15.4918 13.3515 15.5398 13.2808 15.567L12.4003 15.906C12.2576 16.5161 12.0182 17.0931 11.6867 17.6271L12.0699 18.4901ZM6.76152 17.1335C8.17006 17.1335 9.31592 15.9873 9.31592 14.5793C9.31592 13.1706 8.17002 12.0246 6.76152 12.0246C5.35292 12.0246 4.20706 13.1706 4.20706 14.5793C4.20706 15.9873 5.35292 17.1335 6.76152 17.1335ZM6.76152 11.2745C4.93939 11.2745 3.45706 12.7571 3.45706 14.5794C3.45706 16.4014 4.93944 17.8835 6.76152 17.8835C8.58355 17.8835 10.0659 16.4014 10.0659 14.5794C10.0659 12.757 8.58355 11.2745 6.76152 11.2745Z" fill="#595BD4"/>
</g>
<defs>
<clipPath id="clip0_9008_7254">
<rect width="24" height="24" fill="white"/>
</clipPath>
</defs>
</svg>
