<svg width="25" height="24" viewBox="0 0 25 24" fill="none" xmlns="http://www.w3.org/2000/svg">
<path d="M17.75 24L16.4338 23.25L18.5 20.25H21.5V15H12.5V20.25H15.5V21.75H12.5C11.6735 21.75 11 21.0773 11 20.25V15C11 14.1735 11.6735 13.5 12.5 13.5H21.5C22.3273 13.5 23 14.1735 23 15V20.25C23 21.0773 22.3273 21.75 21.5 21.75H19.25L17.75 24Z" fill="#3B3B3F"/>
<path d="M10.25 1.5C6.2765 1.5 2 2.439 2 4.5V18C2 19.8022 5.2715 20.7472 8.75 20.955V19.455C5.3495 19.245 3.59975 18.357 3.5 18V15.3218C4.78025 15.9638 6.7295 16.3298 8.75 16.4513V14.955C5.3495 14.745 3.59975 13.8562 3.5 13.5V10.8217C5.096 11.6213 7.73225 12 10.25 12C14.2235 12 18.5 11.061 18.5 9V4.5C18.5 2.43825 14.2235 1.5 10.25 1.5ZM3.49925 4.51125C3.6125 4.095 5.86175 3 10.25 3C14.5985 3 16.8462 4.0755 16.9977 4.5C16.8462 4.9245 14.5977 6 10.25 6C5.8625 6 3.6125 4.905 3.49925 4.51125ZM17 8.99025C16.88 9.408 14.6307 10.5 10.25 10.5C5.8625 10.5 3.6125 9.405 3.5 9V6.321C5.096 7.12125 7.73225 7.5 10.25 7.5C12.7677 7.5 15.404 7.12125 17 6.321V8.99025Z" fill="#3B3B3F"/>
</svg>
