<svg width="24" height="24" viewBox="0 0 24 24" fill="none" xmlns="http://www.w3.org/2000/svg">
<path d="M3.60039 2.99844C3.60039 2.83931 3.53718 2.6867 3.42465 2.57417C3.31213 2.46165 3.15952 2.39844 3.00039 2.39844C2.84126 2.39844 2.68865 2.46165 2.57613 2.57417C2.4636 2.6867 2.40039 2.83931 2.40039 2.99844V20.9984C2.40039 21.1576 2.4636 21.3102 2.57613 21.4227C2.68865 21.5352 2.84126 21.5984 3.00039 21.5984H21.0004C21.1595 21.5984 21.3121 21.5352 21.4247 21.4227C21.5372 21.3102 21.6004 21.1576 21.6004 20.9984C21.6004 20.8393 21.5372 20.6867 21.4247 20.5742C21.3121 20.4617 21.1595 20.3984 21.0004 20.3984H19.2004V6.59844C19.2002 6.48554 19.1682 6.37497 19.108 6.27945C19.0478 6.18392 18.9619 6.10732 18.8602 6.05844C18.7584 6.00956 18.6449 5.99039 18.5327 6.00312C18.4205 6.01586 18.3142 6.05999 18.226 6.13044L12.544 10.6748L8.69799 8.47764C8.61627 8.4309 8.5247 8.40405 8.43068 8.39926C8.33667 8.39446 8.24284 8.41186 8.15679 8.45004L3.60039 10.4756V2.99844ZM3.60039 11.7884L8.36679 9.67044L12.3028 11.9192C12.4072 11.9788 12.5271 12.0055 12.6469 11.9961C12.7667 11.9867 12.881 11.9415 12.9748 11.8664L18.0004 7.84644V20.3984H3.60039V11.7884Z" fill="#3B3B3F"/>
</svg>
