<svg width="24" height="24" viewBox="0 0 24 24" fill="none" xmlns="http://www.w3.org/2000/svg">
<path d="M3.30039 2.39844C3.53909 2.39844 3.768 2.49326 3.93679 2.66204C4.10557 2.83082 4.20039 3.05974 4.20039 3.29844V18.2984C4.20039 19.1264 4.87239 19.7984 5.70039 19.7984H20.7004C20.9391 19.7984 21.168 19.8933 21.3368 20.062C21.5056 20.2308 21.6004 20.4597 21.6004 20.6984C21.6004 20.9371 21.5056 21.1661 21.3368 21.3348C21.168 21.5036 20.9391 21.5984 20.7004 21.5984H5.70039C4.82518 21.5984 3.98581 21.2508 3.36694 20.6319C2.74807 20.013 2.40039 19.1737 2.40039 18.2984V3.29844C2.40039 3.05974 2.49521 2.83082 2.66399 2.66204C2.83278 2.49326 3.0617 2.39844 3.30039 2.39844ZM19.2004 6.59844V18.5984H5.70039C5.62083 18.5984 5.54452 18.5668 5.48826 18.5106C5.432 18.4543 5.40039 18.378 5.40039 18.2984V9.67524L8.15679 8.45124C8.24275 8.41288 8.33652 8.39528 8.43054 8.39987C8.52456 8.40445 8.61618 8.43109 8.69799 8.47764L12.544 10.6748L18.226 6.13044C18.3142 6.05999 18.4205 6.01586 18.5327 6.00312C18.6449 5.99039 18.7584 6.00956 18.8602 6.05844C18.9619 6.10732 19.0478 6.18392 19.108 6.27945C19.1682 6.37497 19.2002 6.48554 19.2004 6.59844Z" fill="#3B3B3F"/>
</svg>
