<svg width="24" height="24" viewBox="0 0 24 24" fill="none" xmlns="http://www.w3.org/2000/svg">
<path d="M7 18V16M12 18V15M17 18V13M2.5 12C2.5 7.522 2.5 5.282 3.891 3.891C5.282 2.5 7.521 2.5 12 2.5C16.478 2.5 18.718 2.5 20.109 3.891C21.5 5.282 21.5 7.521 21.5 12C21.5 16.478 21.5 18.718 20.109 20.109C18.718 21.5 16.479 21.5 12 21.5C7.522 21.5 5.282 21.5 3.891 20.109C2.5 18.718 2.5 16.479 2.5 12Z" stroke="#3B3B3F" stroke-width="1.5" stroke-linecap="round" stroke-linejoin="round"/>
<path d="M5.99219 11.4874C8.14719 11.5594 13.0342 11.2344 15.8142 6.82244M13.9922 6.28944L15.8682 5.98744C16.0962 5.95844 16.4322 6.13944 16.5152 6.35444L17.0102 7.99244" stroke="#3B3B3F" stroke-width="1.5" stroke-linecap="round" stroke-linejoin="round"/>
</svg>
