<svg width="24" height="24" viewBox="0 0 24 24" fill="none" xmlns="http://www.w3.org/2000/svg">
<path d="M17.0002 12.0002V17.0003M12.9998 17.0003V15.0002M3 15.0002L5.83008 12.1701M8.00016 7C7.20451 7 6.44145 7.31607 5.87884 7.87868C5.31623 8.44129 5.00016 9.20435 5.00016 10C5.00016 10.7956 5.31623 11.5587 5.87884 12.1213C6.44145 12.6839 7.20451 13 8.00016 13C8.79581 13 9.55887 12.6839 10.1215 12.1213C10.6841 11.5587 11.0002 10.7956 11.0002 10C11.0002 9.20435 10.6841 8.44129 10.1215 7.87868C9.55887 7.31607 8.79581 7 8.00016 7Z" stroke="#3B3B3F" stroke-linecap="round" stroke-linejoin="round"/>
<path d="M8.00032 3H20.0003C20.2655 3 20.5198 3.10534 20.7073 3.29285C20.8948 3.48035 21.0002 3.73467 21.0002 3.99984V20.0002C21.0002 20.2653 20.8948 20.5196 20.7073 20.7072C20.5198 20.8947 20.2655 21 20.0003 21H8.00032C7.86898 21.0001 7.73891 20.9742 7.61755 20.924C7.49619 20.8738 7.38591 20.8002 7.29302 20.7073C7.20012 20.6145 7.12643 20.5042 7.07615 20.3829C7.02588 20.2616 7 20.1315 7 20.0002V17.0002" stroke="#3B3B3F" stroke-linecap="round" stroke-linejoin="round"/>
</svg>
