<svg width="24" height="24" viewBox="0 0 24 24" fill="none" xmlns="http://www.w3.org/2000/svg">
<path d="M9 15.885H15C15.2507 15.885 15.4607 15.8 15.63 15.63C15.7993 15.46 15.8843 15.25 15.885 15V11C15.885 10.7493 15.8 10.5393 15.63 10.37C15.46 10.2007 15.25 10.116 15 10.116H13.885V8.885C13.885 8.67833 13.8083 8.49833 13.655 8.345C13.5017 8.19167 13.3217 8.115 13.115 8.115H10.885C10.6783 8.115 10.4983 8.19167 10.345 8.345C10.1917 8.49833 10.115 8.67833 10.115 8.885V10.115H9C8.74933 10.115 8.53933 10.2 8.37 10.37C8.20067 10.54 8.116 10.75 8.116 11V15C8.116 15.2507 8.20067 15.4607 8.37 15.63C8.53933 15.7993 8.74933 15.8843 9 15.885ZM10.885 10.115V8.885H13.115V10.115H10.885ZM8 18C6.32867 18 4.911 17.4183 3.747 16.255C2.58233 15.091 2 13.674 2 12.004C2 10.334 2.58233 8.91567 3.747 7.749C4.91167 6.58233 6.32933 5.99933 8 6H16C17.6713 6 19.0893 6.58167 20.254 7.745C21.4187 8.90833 22.0007 10.3253 22 11.996C21.9993 13.6667 21.417 15.085 20.253 16.251C19.089 17.417 17.6713 18 16 18H8ZM8 17H16C17.3833 17 18.5627 16.5123 19.538 15.537C20.5133 14.5617 21.0007 13.3827 21 12C20.9993 10.6173 20.5117 9.43833 19.537 8.463C18.5623 7.48767 17.3833 7 16 7H8C6.61667 7 5.43767 7.48767 4.463 8.463C3.48833 9.43833 3.00067 10.6173 3 12C2.99933 13.3827 3.487 14.562 4.463 15.538C5.439 16.514 6.618 17.0013 8 17Z" fill="white"/>
</svg>
