<svg width="24" height="24" viewBox="0 0 24 24" fill="none" xmlns="http://www.w3.org/2000/svg">
<path fill-rule="evenodd" clip-rule="evenodd" d="M10.0396 2.648C10.5816 2.22 11.2276 2 11.9956 2C12.7636 2 13.4076 2.22 13.9476 2.646C14.4546 3.046 14.8106 3.586 15.1026 4.108C15.2286 4.33467 15.3486 4.56267 15.4626 4.792C15.6939 4.74133 15.9263 4.69467 16.1596 4.652C16.7556 4.547 17.4036 4.479 18.0396 4.618C18.7196 4.766 19.3016 5.129 19.7896 5.733C20.3086 6.372 20.5366 7.054 20.5156 7.785C20.4956 8.46 20.2636 9.11 20.0136 9.7C19.9409 9.872 19.8653 10.0443 19.7866 10.217C19.9686 10.3677 20.1476 10.521 20.3236 10.677C20.7816 11.085 21.2436 11.557 21.5336 12.147C21.8446 12.777 21.9226 13.469 21.7446 14.236C21.5766 14.965 21.2306 15.536 20.7116 15.964C20.2216 16.368 19.6336 16.597 19.0726 16.764C18.8206 16.84 18.5406 16.912 18.2526 16.983C18.2476 17.303 18.2396 17.617 18.2196 17.905C18.1786 18.476 18.0816 19.084 17.7946 19.639C17.4926 20.225 17.0196 20.677 16.3626 20.997C15.6396 21.35 14.9366 21.425 14.2406 21.253C13.5936 21.093 13.0216 20.735 12.5126 20.37C12.3406 20.2467 12.1699 20.12 12.0006 19.99C11.8313 20.1193 11.6616 20.2453 11.4916 20.368C10.9816 20.733 10.4096 21.093 9.76259 21.254C9.06559 21.427 8.36259 21.352 7.63759 20.999C6.98259 20.679 6.50959 20.229 6.20759 19.644C5.92059 19.09 5.82259 18.484 5.78059 17.913C5.76004 17.6044 5.74904 17.2953 5.74759 16.986C5.47351 16.9208 5.2011 16.8488 4.93059 16.77C4.36859 16.602 3.78059 16.375 3.28859 15.97C2.76859 15.542 2.42159 14.97 2.25259 14.24C2.07559 13.474 2.15259 12.784 2.46259 12.153C2.75059 11.564 3.21259 11.092 3.66959 10.683C3.84559 10.5263 4.02559 10.3723 4.20959 10.221C4.13193 10.0509 4.05626 9.87988 3.98259 9.708C3.73259 9.118 3.49859 8.468 3.47759 7.791C3.45659 7.061 3.68459 6.377 4.20259 5.736C4.69059 5.134 5.27259 4.77 5.95159 4.622C6.58659 4.482 7.23459 4.55 7.83059 4.655C8.06393 4.69633 8.29726 4.74267 8.53059 4.794C8.64393 4.56467 8.76293 4.338 8.88759 4.114C9.17959 3.589 9.53459 3.05 10.0416 2.648M7.57259 6.641L7.48259 6.624C6.95859 6.532 6.62359 6.522 6.37859 6.576C6.17759 6.62 5.98159 6.718 5.75759 6.995C5.52259 7.285 5.47059 7.505 5.47759 7.732C5.48559 8.002 5.58159 8.347 5.79759 8.865C6.16873 8.51946 6.51933 8.1525 6.84759 7.766C7.12959 7.373 7.36559 7 7.57259 6.641ZM6.65259 10.785C7.27788 10.2437 7.86184 9.65637 8.39959 9.028L8.42359 8.998L8.44659 8.968C8.91159 8.322 9.29459 7.671 9.61659 7.073C10.3126 7.206 11.0986 7.323 11.9416 7.365L11.9906 7.367L12.0396 7.365C12.8876 7.324 13.6766 7.205 14.3756 7.072C14.6956 7.667 15.0756 8.313 15.5376 8.954L15.5596 8.985L15.5846 9.015C16.1252 9.64748 16.7129 10.2382 17.3426 10.782C16.951 11.6972 16.6457 12.647 16.4306 13.619L16.4226 13.656L16.4176 13.694C16.3409 14.2639 16.2932 14.8373 16.2746 15.412C15.7026 15.566 15.0766 15.76 14.4116 16.025L14.3756 16.039L14.3416 16.056C13.4316 16.502 12.6556 17.008 11.9986 17.482C11.2637 16.9435 10.4842 16.4688 9.66859 16.063L9.63359 16.046L9.59859 16.032C8.98544 15.7898 8.35872 15.5834 7.72159 15.414C7.70317 14.8443 7.65611 14.2759 7.58059 13.711L7.57559 13.674L7.56759 13.637C7.35212 12.6598 7.04644 11.7049 6.65259 10.785ZM5.04159 12.139L5.00059 12.176C4.59159 12.54 4.37059 12.803 4.25659 13.034C4.16359 13.224 4.11959 13.44 4.20059 13.79C4.27859 14.129 4.40659 14.301 4.55859 14.426C4.73959 14.576 5.02259 14.711 5.50059 14.853L5.69259 14.908C5.67241 14.6105 5.64273 14.3136 5.60359 14.018C5.46384 13.3784 5.27597 12.7503 5.04159 12.139ZM7.75959 17.505C7.7636 17.595 7.76859 17.6823 7.77459 17.767C7.80859 18.237 7.87959 18.527 7.98259 18.725C8.06959 18.893 8.20859 19.053 8.51359 19.202C8.84359 19.362 9.06759 19.366 9.27959 19.312C9.53959 19.248 9.85559 19.079 10.3196 18.747C9.83989 18.4233 9.33911 18.132 8.82059 17.875C8.47202 17.7375 8.11807 17.6141 7.75959 17.505ZM13.6796 18.746C14.1436 19.078 14.4596 19.246 14.7196 19.311C14.9316 19.364 15.1566 19.36 15.4846 19.2C15.7906 19.05 15.9296 18.89 16.0166 18.722C16.1196 18.523 16.1896 18.233 16.2236 17.762C16.2296 17.6773 16.2343 17.591 16.2376 17.503C15.8976 17.607 15.5476 17.726 15.1876 17.869C14.6176 18.15 14.1256 18.447 13.6796 18.746ZM18.3036 14.905L18.4986 14.849C18.9746 14.706 19.2566 14.57 19.4386 14.421C19.5886 14.296 19.7176 14.124 19.7956 13.786C19.8756 13.435 19.8316 13.218 19.7386 13.029C19.6246 12.798 19.4026 12.535 18.9916 12.169L18.9536 12.135C18.7205 12.7424 18.5333 13.3665 18.3936 14.002C18.3536 14.312 18.3236 14.613 18.3036 14.905ZM18.1956 8.861C18.4116 8.343 18.5076 7.999 18.5156 7.728C18.5226 7.501 18.4696 7.28 18.2356 6.991C18.0106 6.714 17.8156 6.616 17.6136 6.572C17.3686 6.519 17.0336 6.529 16.5076 6.622L16.4196 6.638C16.6256 6.994 16.8596 7.364 17.1376 7.754C17.4976 8.177 17.8506 8.538 18.1956 8.861ZM13.4256 5.211L13.3556 5.083C13.1006 4.627 12.8996 4.368 12.7066 4.215C12.5466 4.089 12.3486 4 11.9946 4C11.6406 4 11.4426 4.09 11.2826 4.216C11.0896 4.369 10.8886 4.629 10.6336 5.086L10.5656 5.212C11.0036 5.282 11.4726 5.338 11.9906 5.365C12.5126 5.338 12.9846 5.282 13.4256 5.211Z" fill="#3B3B3F"/>
</svg>
