<svg width="32" height="33" viewBox="0 0 32 33" fill="none" xmlns="http://www.w3.org/2000/svg">
<path d="M13.333 10.7497C13.333 10.5729 13.4032 10.4033 13.5283 10.2783C13.6533 10.1532 13.8229 10.083 13.9997 10.083H19.333C19.5098 10.083 19.6794 10.1532 19.8044 10.2783C19.9294 10.4033 19.9997 10.5729 19.9997 10.7497C19.9997 10.9265 19.9294 11.0961 19.8044 11.2211C19.6794 11.3461 19.5098 11.4163 19.333 11.4163H13.9997C13.8229 11.4163 13.6533 11.3461 13.5283 11.2211C13.4032 11.0961 13.333 10.9265 13.333 10.7497ZM13.9997 12.7497C13.8229 12.7497 13.6533 12.8199 13.5283 12.9449C13.4032 13.07 13.333 13.2395 13.333 13.4163C13.333 13.5932 13.4032 13.7627 13.5283 13.8877C13.6533 14.0128 13.8229 14.083 13.9997 14.083H19.333C19.5098 14.083 19.6794 14.0128 19.8044 13.8877C19.9294 13.7627 19.9997 13.5932 19.9997 13.4163C19.9997 13.2395 19.9294 13.07 19.8044 12.9449C19.6794 12.8199 19.5098 12.7497 19.333 12.7497H13.9997ZM13.333 19.4163C13.333 19.2395 13.4032 19.07 13.5283 18.9449C13.6533 18.8199 13.8229 18.7497 13.9997 18.7497H19.333C19.5098 18.7497 19.6794 18.8199 19.8044 18.9449C19.9294 19.07 19.9997 19.2395 19.9997 19.4163C19.9997 19.5932 19.9294 19.7627 19.8044 19.8877C19.6794 20.0128 19.5098 20.083 19.333 20.083H13.9997C13.8229 20.083 13.6533 20.0128 13.5283 19.8877C13.4032 19.7627 13.333 19.5932 13.333 19.4163ZM13.9997 21.4163C13.8229 21.4163 13.6533 21.4866 13.5283 21.6116C13.4032 21.7366 13.333 21.9062 13.333 22.083C13.333 22.2598 13.4032 22.4294 13.5283 22.5544C13.6533 22.6794 13.8229 22.7497 13.9997 22.7497H19.333C19.5098 22.7497 19.6794 22.6794 19.8044 22.5544C19.9294 22.4294 19.9997 22.2598 19.9997 22.083C19.9997 21.9062 19.9294 21.7366 19.8044 21.6116C19.6794 21.4866 19.5098 21.4163 19.333 21.4163H13.9997Z" fill="#DD6E20"/>
<path fill-rule="evenodd" clip-rule="evenodd" d="M6.66699 18.7497C6.66699 18.5729 6.73723 18.4033 6.86225 18.2783C6.98728 18.1532 7.15685 18.083 7.33366 18.083H10.667C10.8438 18.083 11.0134 18.1532 11.1384 18.2783C11.2634 18.4033 11.3337 18.5729 11.3337 18.7497V22.083C11.3337 22.2598 11.2634 22.4294 11.1384 22.5544C11.0134 22.6794 10.8438 22.7497 10.667 22.7497H7.33366C7.15685 22.7497 6.98728 22.6794 6.86225 22.5544C6.73723 22.4294 6.66699 22.2598 6.66699 22.083V18.7497ZM8.00033 19.4163V21.4163H10.0003V19.4163H8.00033Z" fill="#DD6E20"/>
<path d="M11.8046 11.2216C11.9261 11.0959 11.9932 10.9275 11.9917 10.7527C11.9902 10.5779 11.9201 10.4107 11.7965 10.2871C11.6729 10.1635 11.5057 10.0933 11.3309 10.0918C11.1561 10.0903 10.9877 10.1575 10.8619 10.2789L8.66661 12.4743L7.80461 11.6123C7.67888 11.4908 7.51048 11.4236 7.33568 11.4252C7.16088 11.4267 6.99367 11.4968 6.87007 11.6204C6.74646 11.744 6.67635 11.9112 6.67483 12.086C6.67331 12.2608 6.74051 12.4292 6.86195 12.5549L8.66661 14.3596L11.8046 11.2216Z" fill="#DD6E20"/>
<path fill-rule="evenodd" clip-rule="evenodd" d="M6.66667 4.75C5.95942 4.75 5.28115 5.03095 4.78105 5.53105C4.28095 6.03115 4 6.70942 4 7.41667V26.0833C4 26.7906 4.28095 27.4689 4.78105 27.969C5.28115 28.469 5.95942 28.75 6.66667 28.75H20C20.7072 28.75 21.3855 28.469 21.8856 27.969C22.3857 27.4689 22.6667 26.7906 22.6667 26.0833V7.41667C22.6667 6.70942 22.3857 6.03115 21.8856 5.53105C21.3855 5.03095 20.7072 4.75 20 4.75H6.66667ZM5.33333 7.41667C5.33333 7.06304 5.47381 6.72391 5.72386 6.47386C5.97391 6.22381 6.31304 6.08333 6.66667 6.08333H20C20.3536 6.08333 20.6928 6.22381 20.9428 6.47386C21.1929 6.72391 21.3333 7.06304 21.3333 7.41667V26.0833C21.3333 26.437 21.1929 26.7761 20.9428 27.0261C20.6928 27.2762 20.3536 27.4167 20 27.4167H6.66667C6.31304 27.4167 5.97391 27.2762 5.72386 27.0261C5.47381 26.7761 5.33333 26.437 5.33333 26.0833V7.41667ZM24 11.4167C24 10.8862 24.2107 10.3775 24.5858 10.0025C24.9609 9.62738 25.4696 9.41667 26 9.41667C26.5304 9.41667 27.0391 9.62738 27.4142 10.0025C27.7893 10.3775 28 10.8862 28 11.4167V24.952L26 27.952L24 24.952V11.4167ZM26 10.75C25.8232 10.75 25.6536 10.8202 25.5286 10.9453C25.4036 11.0703 25.3333 11.2399 25.3333 11.4167V12.75H26.6667V11.4167C26.6667 11.2399 26.5964 11.0703 26.4714 10.9453C26.3464 10.8202 26.1768 10.75 26 10.75ZM26 25.548L25.3333 24.548V14.0833H26.6667V24.548L26 25.548Z" fill="#DD6E20"/>
</svg>
