<svg width="36" height="37" viewBox="0 0 36 37" fill="none" xmlns="http://www.w3.org/2000/svg">
<g clip-path="url(#clip0_531_34714)">
<path d="M18.1552 0.749843C18.7447 0.749843 19.3252 0.788093 19.8652 0.878093C20.397 0.947781 20.9217 1.06372 21.4334 1.22459C21.9464 1.37984 22.4482 1.57334 22.9499 1.81634C23.4382 2.04809 23.9399 2.33159 24.4417 2.63984C25.2899 3.17984 26.1247 3.61634 26.9752 3.96509C28.6495 4.63522 30.42 5.03398 32.2199 5.14634C33.1334 5.21159 34.0717 5.24984 35.0482 5.24984V14.2498C35.0482 15.9598 34.8299 17.5798 34.3934 19.1233C33.9741 20.6448 33.3783 22.112 32.6182 23.4951C31.8612 24.8762 30.9656 26.1767 29.9452 27.3763C28.9091 28.6033 27.7873 29.7552 26.5882 30.8233C25.3732 31.8947 24.0936 32.8903 22.7564 33.8046C21.4199 34.7316 20.0699 35.5933 18.7199 36.3763L18.1799 36.6981L17.6399 36.3763C16.2521 35.5729 14.8966 34.715 13.5764 33.8046C12.2318 32.9006 10.9515 31.9045 9.74468 30.8233C8.5463 29.7551 7.42524 28.6032 6.38993 27.3763C5.37224 26.1716 4.47261 24.8719 3.70343 23.4951C2.95627 22.1059 2.36108 20.6402 1.92818 19.1233C1.48891 17.5365 1.27234 15.8963 1.28468 14.2498V5.24984C2.26343 5.24984 3.20168 5.21159 4.11518 5.14634C5.01442 5.08388 5.90783 4.95529 6.78818 4.76159C7.64993 4.56809 8.51168 4.31159 9.35993 3.96509C10.2401 3.60985 11.084 3.17057 11.8799 2.65334C12.8699 2.00984 13.8734 1.53509 14.8634 1.22234C15.9296 0.895489 17.0401 0.736092 18.1552 0.749843ZM32.7847 7.46159C31.0815 7.37895 29.3942 7.09421 27.7582 6.61334C26.1308 6.12792 24.5808 5.41351 23.1547 4.49159C22.4149 4.00603 21.6116 3.62517 20.7674 3.35984C19.9242 3.105 19.0473 2.97907 18.1664 2.98634C17.279 2.9806 16.3957 3.10647 15.5452 3.35984C14.6998 3.61655 13.8974 3.998 13.1647 4.49159C11.7361 5.41854 10.182 6.13608 8.54993 6.62234C6.95468 7.08584 5.28518 7.36934 3.53468 7.47284V14.2611C3.53468 15.7528 3.72818 17.1793 4.11518 18.5541C4.50944 19.9169 5.05272 21.2321 5.73518 22.4758C6.42581 23.7326 7.23983 24.9174 8.16518 26.0128C9.10343 27.1176 10.1047 28.1458 11.1847 29.1223C12.2647 30.1011 13.3964 31.0011 14.5799 31.8358C15.7747 32.6728 16.9717 33.4311 18.1664 34.1241C19.3898 33.4119 20.5826 32.6485 21.7417 31.8358C22.933 31.0037 24.0707 30.0974 25.1482 29.1223C26.2282 28.1458 27.2317 27.1176 28.1699 26.0128C29.0954 24.9175 29.9094 23.7326 30.5999 22.4758C31.2794 21.2336 31.8146 19.9179 32.1952 18.5541C32.5939 17.1582 32.7924 15.7128 32.7847 14.2611V7.46159Z" fill="#DD6E20"/>
<path fill-rule="evenodd" clip-rule="evenodd" d="M26.5434 11.3446L25.5534 10.4941L24.6399 10.5729L14.8299 22.1559L11.4886 17.3859L10.5886 17.2329L9.54685 17.9776L9.3916 18.8776L13.6869 25.0111L14.1751 25.2811L15.2034 25.3441L15.7299 25.1146L26.6086 12.2559L26.5434 11.3446Z" fill="#DD6E20"/>
</g>
<defs>
<clipPath id="clip0_531_34714">
<rect width="36" height="36" fill="white" transform="translate(0 0.75)"/>
</clipPath>
</defs>
</svg>
