<svg width="32" height="33" viewBox="0 0 32 33" fill="none" xmlns="http://www.w3.org/2000/svg">
<path d="M29.707 19.7657L26.707 16.7657C26.5195 16.5782 26.2652 16.4729 26 16.4729C25.7348 16.4729 25.4805 16.5782 25.293 16.7657L16 26.0587V30.4727H20.414L29.707 21.1797C29.8945 20.9921 29.9998 20.7378 29.9998 20.4727C29.9998 20.2075 29.8945 19.9532 29.707 19.7657ZM19.586 28.4727H18V26.8867L23 21.8867L24.586 23.4727L19.586 28.4727ZM26 22.0587L24.414 20.4727L26 18.8867L27.586 20.4727L26 22.0587ZM30 4.47266H23V6.47266H26.586L19 14.0587L14.707 9.76566C14.5195 9.57819 14.2652 9.47287 14 9.47287C13.7348 9.47287 13.4805 9.57819 13.293 9.76566L6 17.0587L7.414 18.4727L14 11.8867L18.293 16.1797C18.4805 16.3671 18.7348 16.4724 19 16.4724C19.2652 16.4724 19.5195 16.3671 19.707 16.1797L28 7.88666V11.4727H30V4.47266Z" fill="#DD6E20"/>
<path d="M4 2.47266H2V28.4727C2 29.0031 2.21071 29.5118 2.58579 29.8869C2.96086 30.2619 3.46957 30.4727 4 30.4727H12V28.4727H4V2.47266Z" fill="#DD6E20"/>
</svg>
