<svg width="68" height="59" viewBox="0 0 68 59" fill="none" xmlns="http://www.w3.org/2000/svg">
<path d="M17.2324 29.7545V30.7545H16.2324H6.80911C5.25798 30.7545 3.77987 31.341 2.69762 32.3702C1.61707 33.3977 1.02002 34.7803 1.02002 36.2107V51.9768C1.02002 53.4072 1.61707 54.7898 2.69762 55.8174C3.77987 56.8465 5.25798 57.433 6.80911 57.433H20.3873C21.9384 57.433 23.4165 56.8465 24.4988 55.8174C25.5793 54.7898 26.1764 53.4072 26.1764 51.9768L26.1764 29.7545L26.1764 29.7475C26.2024 26.0613 25.7885 22.3839 24.9426 18.7858C24.1133 15.5728 22.7431 12.5064 20.8839 9.70546C19.0534 7.20475 16.6554 5.12046 13.8621 3.60826L13.8616 3.60797C11.3253 2.23288 8.38881 1.47029 5.0188 1.34545V9.36858C7.14421 9.51776 8.9878 10.1557 10.5039 11.3293C12.1889 12.5018 13.5464 14.0911 14.5919 16.0798L14.5926 16.081C15.6243 18.0501 16.3601 20.2876 16.7964 22.7771L16.8009 22.8023L16.804 22.8278C17.0872 25.1332 17.2324 27.4465 17.2324 29.7545ZM57.9669 29.7545V30.7545H56.9669H47.5437C45.9925 30.7545 44.5144 31.341 43.4322 32.3702C42.3516 33.3977 41.7546 34.7803 41.7546 36.2107V51.9768C41.7546 53.4072 42.3516 54.7898 43.4322 55.8174C44.5144 56.8465 45.9925 57.433 47.5437 57.433H61.1218C62.673 57.433 64.1511 56.8465 65.2333 55.8174C66.3139 54.7898 66.9109 53.4072 66.9109 51.9768L66.9109 29.7545L66.911 29.7475C66.9369 26.0613 66.5231 22.384 65.6772 18.7859C64.8478 15.5729 63.4777 12.5065 61.6184 9.70547C59.788 7.20476 57.3899 5.12046 54.5967 3.60826L54.5961 3.60797C52.0598 2.23288 49.1234 1.47029 45.7533 1.34545V9.36858C47.8787 9.51776 49.7223 10.1557 51.2385 11.3293C52.9234 12.5018 54.2809 14.0911 55.3265 16.0798L55.3272 16.081C56.3589 18.0501 57.0947 20.2876 57.531 22.7771L57.5354 22.8023L57.5385 22.8278C57.8217 25.1332 57.9669 27.4465 57.9669 29.7545Z" stroke="#FCBB8D" stroke-width="2"/>
</svg>
