<svg width="1440" height="939" viewBox="0 0 1440 939" fill="none" xmlns="http://www.w3.org/2000/svg">
<g clip-path="url(#clip0_1552_9995)">
<g opacity="0.5">
<g filter="url(#filter0_d_1552_9995)">
<path d="M207.214 620.803L90.9169 562.654L-25.3799 620.803L90.9169 678.951L207.214 620.803Z" fill="white"/>
<path d="M207.214 620.803L90.917 562.655V446.358L207.214 504.506V620.803Z" fill="white"/>
<path d="M90.9169 562.655L-25.3799 620.803V504.506L90.9169 446.358V562.655Z" fill="white"/>
<path d="M90.9169 678.951L-25.3799 620.803V504.506L90.9169 562.654V678.951Z" fill="white"/>
<path d="M90.917 678.951L207.214 620.803V504.506L90.917 562.654V678.951Z" fill="white"/>
<path d="M207.214 504.506L90.9169 446.358L-25.3799 504.506L90.9169 562.655L207.214 504.506Z" fill="white"/>
</g>
<g filter="url(#filter1_d_1552_9995)">
<path d="M749.992 150.62L707.029 129.139L664.065 150.62L707.029 172.102L749.992 150.62Z" fill="white"/>
<path d="M749.992 150.62L707.028 129.139V86.1753L749.992 107.657V150.62Z" fill="white"/>
<path d="M707.029 129.139L664.065 150.62V107.657L707.029 86.1753V129.139Z" fill="white"/>
<path d="M707.029 172.102L664.065 150.62V107.657L707.029 129.139V172.102Z" fill="white"/>
<path d="M707.028 172.102L749.992 150.62V107.657L707.028 129.139V172.102Z" fill="white"/>
<path d="M749.992 107.657L707.029 86.1753L664.065 107.657L707.029 129.139L749.992 107.657Z" fill="white"/>
</g>
<g filter="url(#filter2_d_1552_9995)">
<path d="M619.504 562.107L515.595 510.153L411.687 562.107L515.595 614.062L619.504 562.107Z" fill="white"/>
<path d="M619.503 562.107L515.595 510.153V406.245L619.503 458.199V562.107Z" fill="white"/>
<path d="M515.595 510.153L411.687 562.107V458.199L515.595 406.245V510.153Z" fill="white"/>
<path d="M515.595 614.062L411.687 562.108V458.199L515.595 510.153V614.062Z" fill="white"/>
<path d="M515.595 614.062L619.503 562.108V458.199L515.595 510.153V614.062Z" fill="white"/>
<path d="M619.504 458.199L515.595 406.245L411.687 458.199L515.595 510.153L619.504 458.199Z" fill="white"/>
</g>
<g filter="url(#filter3_d_1552_9995)">
<path d="M1068.77 199.378L1005.56 167.772L942.351 199.378L1005.56 230.984L1068.77 199.378Z" fill="white"/>
<path d="M1068.77 199.378L1005.56 167.772V104.561L1068.77 136.166V199.378Z" fill="white"/>
<path d="M1005.56 167.772L942.351 199.378V136.166L1005.56 104.561V167.772Z" fill="white"/>
<path d="M1005.56 230.984L942.351 199.378V136.166L1005.56 167.772V230.984Z" fill="white"/>
<path d="M1005.56 230.984L1068.77 199.378V136.166L1005.56 167.772V230.984Z" fill="white"/>
<path d="M1068.77 136.166L1005.56 104.561L942.351 136.166L1005.56 167.772L1068.77 136.166Z" fill="white"/>
</g>
<g filter="url(#filter4_d_1552_9995)">
<path d="M1013.19 379.149L907.572 326.34L801.954 379.149L907.572 431.958L1013.19 379.149Z" fill="white"/>
<path d="M1013.19 379.149L907.572 326.34V220.722L1013.19 273.531V379.149Z" fill="white"/>
<path d="M907.572 326.339L801.954 379.148V273.53L907.572 220.721V326.339Z" fill="white"/>
<path d="M907.572 431.958L801.954 379.149V273.531L907.572 326.34V431.958Z" fill="white"/>
<path d="M907.572 431.958L1013.19 379.149V273.531L907.572 326.34V431.958Z" fill="white"/>
<path d="M1013.19 273.53L907.572 220.721L801.954 273.53L907.572 326.339L1013.19 273.53Z" fill="white"/>
</g>
<g filter="url(#filter5_d_1552_9995)">
<path d="M1343.87 480.076L1245.06 430.673L1146.26 480.076L1245.06 529.478L1343.87 480.076Z" fill="white"/>
<path d="M1343.87 480.076L1245.06 430.673V331.868L1343.87 381.271V480.076Z" fill="white"/>
<path d="M1245.06 430.673L1146.26 480.076V381.271L1245.06 331.868V430.673Z" fill="white"/>
<path d="M1245.06 529.478L1146.26 480.076V381.271L1245.06 430.673V529.478Z" fill="white"/>
<path d="M1245.06 529.478L1343.87 480.076V381.271L1245.06 430.673V529.478Z" fill="white"/>
<path d="M1343.87 381.271L1245.06 331.868L1146.26 381.271L1245.06 430.673L1343.87 381.271Z" fill="white"/>
</g>
<g filter="url(#filter6_d_1552_9995)">
<path d="M772.075 364.614L651.633 304.393L531.19 364.614L651.633 424.835L772.075 364.614Z" fill="white"/>
<path d="M772.075 364.614L651.633 304.393V183.951L772.075 244.172V364.614Z" fill="white"/>
<path d="M651.633 304.393L531.19 364.614V244.172L651.633 183.951V304.393Z" fill="white"/>
<path d="M651.633 424.835L531.19 364.614V244.172L651.633 304.393V424.835Z" fill="white"/>
<path d="M651.633 424.835L772.075 364.614V244.172L651.633 304.393V424.835Z" fill="white"/>
<path d="M772.075 244.172L651.633 183.951L531.19 244.172L651.633 304.393L772.075 244.172Z" fill="white"/>
</g>
<g filter="url(#filter7_d_1552_9995)">
<path d="M555.385 975.737L445.93 921.01L336.475 975.737L445.93 1030.46L555.385 975.737Z" fill="white"/>
<path d="M555.385 975.737L445.93 921.01V811.555L555.385 866.282V975.737Z" fill="white"/>
<path d="M445.93 921.01L336.475 975.737V866.282L445.93 811.555V921.01Z" fill="white"/>
<path d="M445.93 1030.46L336.475 975.737V866.282L445.93 921.01V1030.46Z" fill="white"/>
<path d="M445.93 1030.46L555.385 975.737V866.282L445.93 921.01V1030.46Z" fill="white"/>
<path d="M555.385 866.282L445.93 811.555L336.475 866.282L445.93 921.01L555.385 866.282Z" fill="white"/>
</g>
<g filter="url(#filter8_d_1552_9995)">
<path d="M372.475 521.828L309.347 490.264L246.22 521.828L309.347 553.392L372.475 521.828Z" fill="white"/>
<path d="M372.475 521.828L309.348 490.264V427.137L372.475 458.701V521.828Z" fill="white"/>
<path d="M309.347 490.265L246.22 521.828V458.701L309.347 427.137V490.265Z" fill="white"/>
<path d="M309.347 553.392L246.22 521.828V458.7L309.347 490.264V553.392Z" fill="white"/>
<path d="M309.348 553.392L372.475 521.828V458.7L309.348 490.264V553.392Z" fill="white"/>
<path d="M372.475 458.701L309.347 427.137L246.22 458.701L309.347 490.265L372.475 458.701Z" fill="white"/>
</g>
<g filter="url(#filter9_d_1552_9995)">
<path d="M496.4 36.056L449.029 12.3706L401.658 36.056L449.029 59.7414L496.4 36.056Z" fill="white"/>
<path d="M496.4 36.0562L449.029 12.3708V-35L496.4 -11.3146V36.0562Z" fill="white"/>
<path d="M449.029 12.3708L401.658 36.0562V-11.3146L449.029 -35V12.3708Z" fill="white"/>
<path d="M449.029 59.7418L401.658 36.0564V-11.3145L449.029 12.371V59.7418Z" fill="white"/>
<path d="M449.029 59.7418L496.4 36.0564V-11.3145L449.029 12.371V59.7418Z" fill="white"/>
<path d="M496.4 -11.3146L449.029 -35L401.658 -11.3146L449.029 12.3708L496.4 -11.3146Z" fill="white"/>
</g>
<g filter="url(#filter10_d_1552_9995)">
<path d="M268.142 380.693L174.865 334.055L81.5889 380.693L174.865 427.331L268.142 380.693Z" fill="white"/>
<path d="M268.142 380.693L174.865 334.055V240.778L268.142 287.416V380.693Z" fill="white"/>
<path d="M174.865 334.054L81.5889 380.693V287.416L174.865 240.778V334.054Z" fill="white"/>
<path d="M174.865 427.331L81.5889 380.693V287.416L174.865 334.055V427.331Z" fill="white"/>
<path d="M174.865 427.331L268.142 380.693V287.416L174.865 334.055V427.331Z" fill="white"/>
<path d="M268.142 287.416L174.865 240.778L81.5889 287.416L174.865 334.054L268.142 287.416Z" fill="white"/>
</g>
<g filter="url(#filter11_d_1552_9995)">
<path d="M134.495 190.83L77.5388 162.352L20.583 190.83L77.5388 219.308L134.495 190.83Z" fill="white"/>
<path d="M134.495 190.83L77.5391 162.352V105.396L134.495 133.874V190.83Z" fill="white"/>
<path d="M77.5388 162.352L20.583 190.83V133.874L77.5388 105.396V162.352Z" fill="white"/>
<path d="M77.5388 219.308L20.583 190.83V133.874L77.5388 162.352V219.308Z" fill="white"/>
<path d="M77.5391 219.308L134.495 190.83V133.874L77.5391 162.352V219.308Z" fill="white"/>
<path d="M134.495 133.874L77.5388 105.396L20.583 133.874L77.5388 162.352L134.495 133.874Z" fill="white"/>
</g>
<g filter="url(#filter12_d_1552_9995)">
<path d="M1112.12 471.73L1058.99 445.166L1005.86 471.73L1058.99 498.294L1112.12 471.73Z" fill="white"/>
<path d="M1112.12 471.73L1058.99 445.166V392.038L1112.12 418.602V471.73Z" fill="white"/>
<path d="M1058.99 445.166L1005.86 471.73V418.602L1058.99 392.038V445.166Z" fill="white"/>
<path d="M1058.99 498.294L1005.86 471.73V418.602L1058.99 445.166V498.294Z" fill="white"/>
<path d="M1058.99 498.294L1112.12 471.73V418.602L1058.99 445.166V498.294Z" fill="white"/>
<path d="M1112.12 418.602L1058.99 392.038L1005.86 418.602L1058.99 445.166L1112.12 418.602Z" fill="white"/>
</g>
<g filter="url(#filter13_d_1552_9995)">
<path d="M1322.6 909.758L1239.86 868.388L1157.12 909.758L1239.86 951.128L1322.6 909.758Z" fill="white"/>
<path d="M1322.6 909.758L1239.86 868.388V785.648L1322.6 827.018V909.758Z" fill="white"/>
<path d="M1239.86 868.388L1157.12 909.758V827.018L1239.86 785.648V868.388Z" fill="white"/>
<path d="M1239.86 951.128L1157.12 909.758V827.018L1239.86 868.388V951.128Z" fill="white"/>
<path d="M1239.86 951.128L1322.6 909.758V827.018L1239.86 868.388V951.128Z" fill="white"/>
<path d="M1322.6 827.018L1239.86 785.648L1157.12 827.018L1239.86 868.388L1322.6 827.018Z" fill="white"/>
</g>
<g filter="url(#filter14_d_1552_9995)">
<path d="M978.847 85.1337L927.171 59.2959L875.495 85.1337L927.171 110.972L978.847 85.1337Z" fill="white"/>
<path d="M978.847 85.1337L927.171 59.2958V7.62012L978.847 33.458V85.1337Z" fill="white"/>
<path d="M927.171 59.2958L875.495 85.1337V33.458L927.171 7.62012V59.2958Z" fill="white"/>
<path d="M927.171 110.972L875.495 85.1337V33.458L927.171 59.2959V110.972Z" fill="white"/>
<path d="M927.171 110.972L978.847 85.1337V33.458L927.171 59.2959V110.972Z" fill="white"/>
<path d="M978.847 33.458L927.171 7.62012L875.495 33.458L927.171 59.2958L978.847 33.458Z" fill="white"/>
</g>
<g filter="url(#filter15_d_1552_9995)">
<path d="M608.401 177.72L533.443 140.241L458.485 177.72L533.443 215.199L608.401 177.72Z" fill="white"/>
<path d="M608.401 177.719L533.443 140.241V65.2827L608.401 102.762V177.719Z" fill="white"/>
<path d="M533.443 140.241L458.485 177.719V102.762L533.443 65.2827V140.241Z" fill="white"/>
<path d="M533.443 215.198L458.485 177.72V102.762L533.443 140.241V215.198Z" fill="white"/>
<path d="M533.443 215.198L608.401 177.72V102.762L533.443 140.241V215.198Z" fill="white"/>
<path d="M608.401 102.762L533.443 65.2827L458.485 102.762L533.443 140.241L608.401 102.762Z" fill="white"/>
</g>
<g filter="url(#filter16_d_1552_9995)">
<path d="M877.132 572.104L774.359 520.717L671.586 572.104L774.359 623.49L877.132 572.104Z" fill="white"/>
<path d="M877.131 572.104L774.358 520.717V417.944L877.131 469.331V572.104Z" fill="white"/>
<path d="M774.359 520.717L671.586 572.104V469.331L774.359 417.944V520.717Z" fill="white"/>
<path d="M774.359 623.49L671.586 572.104V469.331L774.359 520.717V623.49Z" fill="white"/>
<path d="M774.358 623.49L877.131 572.104V469.331L774.358 520.717V623.49Z" fill="white"/>
<path d="M877.132 469.331L774.359 417.944L671.586 469.331L774.359 520.717L877.132 469.331Z" fill="white"/>
</g>
<g filter="url(#filter17_d_1552_9995)">
<path d="M247.572 945.234L127.81 885.354L8.04785 945.234L127.81 1005.12L247.572 945.234Z" fill="white"/>
<path d="M247.571 945.235L127.81 885.354V765.592L247.571 825.473V945.235Z" fill="white"/>
<path d="M127.81 885.354L8.04785 945.235V825.473L127.81 765.592V885.354Z" fill="white"/>
<path d="M127.81 1005.12L8.04785 945.234V825.473L127.81 885.354V1005.12Z" fill="white"/>
<path d="M127.81 1005.12L247.571 945.234V825.473L127.81 885.354V1005.12Z" fill="white"/>
<path d="M247.572 825.473L127.81 765.592L8.04785 825.473L127.81 885.354L247.572 825.473Z" fill="white"/>
</g>
<g filter="url(#filter18_d_1552_9995)">
<path d="M1508.95 1078.98L1403.65 1026.33V921.03L1508.95 973.679V1078.98Z" fill="white"/>
<path d="M1403.65 1026.33L1298.35 1078.98V973.679L1403.65 921.03V1026.33Z" fill="white"/>
<path d="M1508.95 973.679L1403.65 921.03L1298.35 973.679L1403.65 1026.33L1508.95 973.679Z" fill="white"/>
</g>
<g filter="url(#filter19_d_1552_9995)">
<path d="M490.875 350.937L404.064 307.532L317.254 350.937L404.064 394.342L490.875 350.937Z" fill="white"/>
<path d="M490.875 350.937L404.064 307.532V220.722L490.875 264.127V350.937Z" fill="white"/>
<path d="M404.064 307.532L317.254 350.937V264.127L404.064 220.721V307.532Z" fill="white"/>
<path d="M404.064 394.342L317.254 350.937V264.127L404.064 307.532V394.342Z" fill="white"/>
<path d="M404.064 394.342L490.875 350.937V264.127L404.064 307.532V394.342Z" fill="white"/>
<path d="M490.875 264.127L404.064 220.721L317.254 264.127L404.064 307.532L490.875 264.127Z" fill="white"/>
</g>
<g filter="url(#filter20_d_1552_9995)">
<path d="M754.488 790.371L634.9 730.577L515.312 790.371L634.9 850.165L754.488 790.371Z" fill="white"/>
<path d="M754.488 790.371L634.9 730.577V610.989L754.488 670.783V790.371Z" fill="white"/>
<path d="M634.9 730.577L515.312 790.371V670.783L634.9 610.989V730.577Z" fill="white"/>
<path d="M634.9 850.165L515.312 790.371V670.783L634.9 730.577V850.165Z" fill="white"/>
<path d="M634.9 850.165L754.488 790.371V670.783L634.9 730.577V850.165Z" fill="white"/>
<path d="M754.488 670.783L634.9 610.989L515.312 670.783L634.9 730.577L754.488 670.783Z" fill="white"/>
</g>
<g filter="url(#filter21_d_1552_9995)">
<path d="M399.222 172.304L282.19 113.788L165.158 172.304L282.19 230.82L399.222 172.304Z" fill="white"/>
<path d="M399.221 172.304L282.189 113.788V-3.24365L399.221 55.2722V172.304Z" fill="white"/>
<path d="M282.19 113.788L165.158 172.304V55.2722L282.19 -3.24365V113.788Z" fill="white"/>
<path d="M282.19 230.82L165.158 172.304V55.272L282.19 113.788V230.82Z" fill="white"/>
<path d="M282.189 230.82L399.221 172.304V55.272L282.189 113.788V230.82Z" fill="white"/>
<path d="M399.222 55.2722L282.19 -3.24365L165.158 55.2722L282.19 113.788L399.222 55.2722Z" fill="white"/>
</g>
<g filter="url(#filter22_d_1552_9995)">
<path d="M1244.68 725.757L1125.27 666.052L1005.86 725.757L1125.27 785.462L1244.68 725.757Z" fill="white"/>
<path d="M1244.68 725.757L1125.27 666.052V546.641L1244.68 606.346V725.757Z" fill="white"/>
<path d="M1125.27 666.052L1005.86 725.757V606.346L1125.27 546.641V666.052Z" fill="white"/>
<path d="M1125.27 785.462L1005.86 725.757V606.346L1125.27 666.052V785.462Z" fill="white"/>
<path d="M1125.27 785.462L1244.68 725.757V606.346L1125.27 666.052V785.462Z" fill="white"/>
<path d="M1244.68 606.346L1125.27 546.641L1005.86 606.346L1125.27 666.052L1244.68 606.346Z" fill="white"/>
</g>
<g filter="url(#filter23_d_1552_9995)">
<path d="M933.018 697.587L879.186 670.671L825.354 697.587L879.186 724.503L933.018 697.587Z" fill="white"/>
<path d="M933.018 697.587L879.186 670.671V616.839L933.018 643.755V697.587Z" fill="white"/>
<path d="M879.186 670.671L825.354 697.587V643.755L879.186 616.839V670.671Z" fill="white"/>
<path d="M879.186 724.503L825.354 697.587V643.755L879.186 670.671V724.503Z" fill="white"/>
<path d="M879.186 724.503L933.018 697.587V643.755L879.186 670.671V724.503Z" fill="white"/>
<path d="M933.018 643.755L879.186 616.839L825.354 643.755L879.186 670.671L933.018 643.755Z" fill="white"/>
</g>
<g filter="url(#filter24_d_1552_9995)">
<path d="M50.8134 751.912L8.12056 730.565L-34.5723 751.912L8.12056 773.258L50.8134 751.912Z" fill="white"/>
<path d="M50.8129 751.912L8.12012 730.565V687.873L50.8129 709.219V751.912Z" fill="white"/>
<path d="M8.12056 730.565L-34.5723 751.912V709.219L8.12056 687.873V730.565Z" fill="white"/>
<path d="M8.12056 773.258L-34.5723 751.912V709.219L8.12056 730.565V773.258Z" fill="white"/>
<path d="M8.12012 773.258L50.8129 751.912V709.219L8.12012 730.565V773.258Z" fill="white"/>
<path d="M50.8134 709.219L8.12056 687.873L-34.5723 709.219L8.12056 730.565L50.8134 709.219Z" fill="white"/>
</g>
<g filter="url(#filter25_d_1552_9995)">
<path d="M1370.15 199.149L1245.25 136.699L1120.35 199.149L1245.25 261.6L1370.15 199.149Z" fill="white"/>
<path d="M1370.15 199.15L1245.25 136.699V11.7988L1370.15 74.2491V199.15Z" fill="white"/>
<path d="M1245.25 136.699L1120.35 199.15V74.2491L1245.25 11.7988V136.699Z" fill="white"/>
<path d="M1245.25 261.6L1120.35 199.15V74.249L1245.25 136.699V261.6Z" fill="white"/>
<path d="M1245.25 261.6L1370.15 199.15V74.249L1245.25 136.699V261.6Z" fill="white"/>
<path d="M1370.15 74.2491L1245.25 11.7988L1120.35 74.2491L1245.25 136.699L1370.15 74.2491Z" fill="white"/>
</g>
<g filter="url(#filter26_d_1552_9995)">
<path d="M42.1672 396.944L-12.9164 369.403L-68 396.944L-12.9164 424.486L42.1672 396.944Z" fill="white"/>
<path d="M42.1666 396.944L-12.917 369.402V314.319L42.1666 341.861V396.944Z" fill="white"/>
<path d="M-12.917 424.486L42.1666 396.944V341.861L-12.917 369.402V424.486Z" fill="white"/>
<path d="M42.1672 341.861L-12.9164 314.319L-68 341.861L-12.9164 369.402L42.1672 341.861Z" fill="white"/>
</g>
<g filter="url(#filter27_d_1552_9995)">
<path d="M1163.32 332.967L1097.96 300.287L1032.6 332.967L1097.96 365.647L1163.32 332.967Z" fill="white"/>
<path d="M1163.32 332.967L1097.96 300.288V234.928L1163.32 267.608V332.967Z" fill="white"/>
<path d="M1097.96 300.288L1032.6 332.967V267.608L1097.96 234.928V300.288Z" fill="white"/>
<path d="M1097.96 365.647L1032.6 332.967V267.608L1097.96 300.288V365.647Z" fill="white"/>
<path d="M1097.96 365.647L1163.32 332.967V267.608L1097.96 300.288V365.647Z" fill="white"/>
<path d="M1163.32 267.608L1097.96 234.928L1032.6 267.608L1097.96 300.288L1163.32 267.608Z" fill="white"/>
</g>
<g filter="url(#filter28_d_1552_9995)">
<path d="M1003.67 547.92L955.46 523.816L907.251 547.92L955.46 572.024L1003.67 547.92Z" fill="white"/>
<path d="M1003.67 547.92L955.459 523.816V475.607L1003.67 499.711V547.92Z" fill="white"/>
<path d="M955.46 523.816L907.251 547.92V499.711L955.46 475.607V523.816Z" fill="white"/>
<path d="M955.46 572.024L907.251 547.92V499.711L955.46 523.815V572.024Z" fill="white"/>
<path d="M955.459 572.024L1003.67 547.92V499.711L955.459 523.815V572.024Z" fill="white"/>
<path d="M1003.67 499.711L955.46 475.607L907.251 499.711L955.46 523.816L1003.67 499.711Z" fill="white"/>
</g>
<g filter="url(#filter29_d_1552_9995)">
<path d="M862.605 1046.12L737.429 983.53V858.354L862.605 920.942V1046.12Z" fill="white"/>
<path d="M737.429 983.53L612.252 1046.12V920.942L737.429 858.354V983.53Z" fill="white"/>
<path d="M737.429 1108.71L612.252 1046.12V920.942L737.429 983.53V1108.71Z" fill="white"/>
<path d="M737.429 1108.71L862.605 1046.12V920.942L737.429 983.53V1108.71Z" fill="white"/>
<path d="M862.605 920.942L737.429 858.354L612.252 920.942L737.429 983.53L862.605 920.942Z" fill="white"/>
</g>
<g filter="url(#filter30_d_1552_9995)">
<path d="M1024.49 871.067L942.469 830.059L860.452 871.067L942.469 912.076L1024.49 871.067Z" fill="white"/>
<path d="M1024.49 871.067L942.469 830.059V748.042L1024.49 789.05V871.067Z" fill="white"/>
<path d="M942.469 830.059L860.452 871.068V789.051L942.469 748.042V830.059Z" fill="white"/>
<path d="M942.469 912.076L860.452 871.067V789.051L942.469 830.059V912.076Z" fill="white"/>
<path d="M942.469 912.076L1024.49 871.067V789.051L942.469 830.059V912.076Z" fill="white"/>
<path d="M1024.49 789.051L942.469 748.042L860.452 789.051L942.469 830.059L1024.49 789.051Z" fill="white"/>
</g>
<g filter="url(#filter31_d_1552_9995)">
<path d="M468.226 770.599L346.776 709.875L225.327 770.599L346.776 831.324L468.226 770.599Z" fill="white"/>
<path d="M468.226 770.599L346.776 709.875V588.425L468.226 649.15V770.599Z" fill="white"/>
<path d="M346.776 709.875L225.327 770.599V649.15L346.776 588.425V709.875Z" fill="white"/>
<path d="M346.776 831.324L225.327 770.599V649.15L346.776 709.875V831.324Z" fill="white"/>
<path d="M346.776 831.324L468.226 770.599V649.15L346.776 709.875V831.324Z" fill="white"/>
<path d="M468.226 649.15L346.776 588.425L225.327 649.15L346.776 709.875L468.226 649.15Z" fill="white"/>
</g>
<g filter="url(#filter32_d_1552_9995)">
<path d="M685.485 61.9181L639.258 38.8047L593.031 61.9181L639.258 85.0316L685.485 61.9181Z" fill="white"/>
<path d="M685.485 61.918L639.258 38.8045V-7.42236L685.485 15.6911V61.918Z" fill="white"/>
<path d="M639.258 38.8045L593.031 61.918V15.6911L639.258 -7.42236V38.8045Z" fill="white"/>
<path d="M639.258 85.0312L593.031 61.9178V15.6909L639.258 38.8044V85.0312Z" fill="white"/>
<path d="M639.258 85.0312L685.485 61.9178V15.6909L639.258 38.8044V85.0312Z" fill="white"/>
<path d="M685.485 15.6911L639.258 -7.42236L593.031 15.6911L639.258 38.8045L685.485 15.6911Z" fill="white"/>
</g>
<g filter="url(#filter33_d_1552_9995)">
<path d="M835.067 61.7043L773.383 30.8623L711.699 61.7043L773.383 92.5463L835.067 61.7043Z" fill="white"/>
<path d="M835.068 61.7043L773.384 30.8622V-30.8218L835.068 0.0202351V61.7043Z" fill="white"/>
<path d="M773.383 30.8622L711.699 61.7043V0.0202351L773.383 -30.8218V30.8622Z" fill="white"/>
<path d="M773.383 92.5461L711.699 61.704V0.0200195L773.383 30.862V92.5461Z" fill="white"/>
<path d="M773.384 92.5461L835.068 61.704V0.0200195L773.384 30.862V92.5461Z" fill="white"/>
<path d="M835.067 0.0202351L773.383 -30.8218L711.699 0.0202351L773.383 30.8622L835.067 0.0202351Z" fill="white"/>
</g>
<g filter="url(#filter34_d_1552_9995)">
<path d="M908.739 188.618L844.9 156.699L781.062 188.618L844.9 220.538L908.739 188.618Z" fill="white"/>
<path d="M908.739 188.619L844.9 156.699V92.8608L908.739 124.78V188.619Z" fill="white"/>
<path d="M844.9 156.699L781.062 188.619V124.78L844.9 92.8608V156.699Z" fill="white"/>
<path d="M844.9 220.538L781.062 188.618V124.78L844.9 156.699V220.538Z" fill="white"/>
<path d="M844.9 220.538L908.739 188.618V124.78L844.9 156.699V220.538Z" fill="white"/>
<path d="M908.739 124.78L844.9 92.8608L781.062 124.78L844.9 156.699L908.739 124.78Z" fill="white"/>
</g>
<g filter="url(#filter35_d_1552_9995)">
<path d="M1177.5 1104.91L1059.92 1046.13V928.552L1177.5 987.339V1104.91Z" fill="white"/>
<path d="M1059.92 1046.13L942.351 1104.91V987.339L1059.92 928.552V1046.13Z" fill="white"/>
<path d="M1177.5 987.339L1059.92 928.552L942.351 987.339L1059.92 1046.13L1177.5 987.339Z" fill="white"/>
</g>
</g>
</g>
<defs>
<filter id="filter0_d_1552_9995" x="-70.3799" y="431.358" width="302.594" height="302.593" filterUnits="userSpaceOnUse" color-interpolation-filters="sRGB">
<feFlood flood-opacity="0" result="BackgroundImageFix"/>
<feColorMatrix in="SourceAlpha" type="matrix" values="0 0 0 0 0 0 0 0 0 0 0 0 0 0 0 0 0 0 127 0" result="hardAlpha"/>
<feOffset dx="-10" dy="20"/>
<feGaussianBlur stdDeviation="17.5"/>
<feComposite in2="hardAlpha" operator="out"/>
<feColorMatrix type="matrix" values="0 0 0 0 0 0 0 0 0 0 0 0 0 0 0.254167 0 0 0 0.07 0"/>
<feBlend mode="normal" in2="BackgroundImageFix" result="effect1_dropShadow_1552_9995"/>
<feBlend mode="normal" in="SourceGraphic" in2="effect1_dropShadow_1552_9995" result="shape"/>
</filter>
<filter id="filter1_d_1552_9995" x="619.065" y="71.1753" width="155.927" height="155.927" filterUnits="userSpaceOnUse" color-interpolation-filters="sRGB">
<feFlood flood-opacity="0" result="BackgroundImageFix"/>
<feColorMatrix in="SourceAlpha" type="matrix" values="0 0 0 0 0 0 0 0 0 0 0 0 0 0 0 0 0 0 127 0" result="hardAlpha"/>
<feOffset dx="-10" dy="20"/>
<feGaussianBlur stdDeviation="17.5"/>
<feComposite in2="hardAlpha" operator="out"/>
<feColorMatrix type="matrix" values="0 0 0 0 0 0 0 0 0 0 0 0 0 0 0.254167 0 0 0 0.07 0"/>
<feBlend mode="normal" in2="BackgroundImageFix" result="effect1_dropShadow_1552_9995"/>
<feBlend mode="normal" in="SourceGraphic" in2="effect1_dropShadow_1552_9995" result="shape"/>
</filter>
<filter id="filter2_d_1552_9995" x="366.687" y="391.245" width="277.817" height="277.817" filterUnits="userSpaceOnUse" color-interpolation-filters="sRGB">
<feFlood flood-opacity="0" result="BackgroundImageFix"/>
<feColorMatrix in="SourceAlpha" type="matrix" values="0 0 0 0 0 0 0 0 0 0 0 0 0 0 0 0 0 0 127 0" result="hardAlpha"/>
<feOffset dx="-10" dy="20"/>
<feGaussianBlur stdDeviation="17.5"/>
<feComposite in2="hardAlpha" operator="out"/>
<feColorMatrix type="matrix" values="0 0 0 0 0 0 0 0 0 0 0 0 0 0 0.254167 0 0 0 0.07 0"/>
<feBlend mode="normal" in2="BackgroundImageFix" result="effect1_dropShadow_1552_9995"/>
<feBlend mode="normal" in="SourceGraphic" in2="effect1_dropShadow_1552_9995" result="shape"/>
</filter>
<filter id="filter3_d_1552_9995" x="897.351" y="89.5605" width="196.424" height="196.424" filterUnits="userSpaceOnUse" color-interpolation-filters="sRGB">
<feFlood flood-opacity="0" result="BackgroundImageFix"/>
<feColorMatrix in="SourceAlpha" type="matrix" values="0 0 0 0 0 0 0 0 0 0 0 0 0 0 0 0 0 0 127 0" result="hardAlpha"/>
<feOffset dx="-10" dy="20"/>
<feGaussianBlur stdDeviation="17.5"/>
<feComposite in2="hardAlpha" operator="out"/>
<feColorMatrix type="matrix" values="0 0 0 0 0 0 0 0 0 0 0 0 0 0 0.254167 0 0 0 0.07 0"/>
<feBlend mode="normal" in2="BackgroundImageFix" result="effect1_dropShadow_1552_9995"/>
<feBlend mode="normal" in="SourceGraphic" in2="effect1_dropShadow_1552_9995" result="shape"/>
</filter>
<filter id="filter4_d_1552_9995" x="756.954" y="205.721" width="281.236" height="281.237" filterUnits="userSpaceOnUse" color-interpolation-filters="sRGB">
<feFlood flood-opacity="0" result="BackgroundImageFix"/>
<feColorMatrix in="SourceAlpha" type="matrix" values="0 0 0 0 0 0 0 0 0 0 0 0 0 0 0 0 0 0 127 0" result="hardAlpha"/>
<feOffset dx="-10" dy="20"/>
<feGaussianBlur stdDeviation="17.5"/>
<feComposite in2="hardAlpha" operator="out"/>
<feColorMatrix type="matrix" values="0 0 0 0 0 0 0 0 0 0 0 0 0 0 0.254167 0 0 0 0.07 0"/>
<feBlend mode="normal" in2="BackgroundImageFix" result="effect1_dropShadow_1552_9995"/>
<feBlend mode="normal" in="SourceGraphic" in2="effect1_dropShadow_1552_9995" result="shape"/>
</filter>
<filter id="filter5_d_1552_9995" x="1101.26" y="316.868" width="267.609" height="267.61" filterUnits="userSpaceOnUse" color-interpolation-filters="sRGB">
<feFlood flood-opacity="0" result="BackgroundImageFix"/>
<feColorMatrix in="SourceAlpha" type="matrix" values="0 0 0 0 0 0 0 0 0 0 0 0 0 0 0 0 0 0 127 0" result="hardAlpha"/>
<feOffset dx="-10" dy="20"/>
<feGaussianBlur stdDeviation="17.5"/>
<feComposite in2="hardAlpha" operator="out"/>
<feColorMatrix type="matrix" values="0 0 0 0 0 0 0 0 0 0 0 0 0 0 0.254167 0 0 0 0.07 0"/>
<feBlend mode="normal" in2="BackgroundImageFix" result="effect1_dropShadow_1552_9995"/>
<feBlend mode="normal" in="SourceGraphic" in2="effect1_dropShadow_1552_9995" result="shape"/>
</filter>
<filter id="filter6_d_1552_9995" x="486.19" y="168.951" width="310.885" height="310.885" filterUnits="userSpaceOnUse" color-interpolation-filters="sRGB">
<feFlood flood-opacity="0" result="BackgroundImageFix"/>
<feColorMatrix in="SourceAlpha" type="matrix" values="0 0 0 0 0 0 0 0 0 0 0 0 0 0 0 0 0 0 127 0" result="hardAlpha"/>
<feOffset dx="-10" dy="20"/>
<feGaussianBlur stdDeviation="17.5"/>
<feComposite in2="hardAlpha" operator="out"/>
<feColorMatrix type="matrix" values="0 0 0 0 0 0 0 0 0 0 0 0 0 0 0.254167 0 0 0 0.07 0"/>
<feBlend mode="normal" in2="BackgroundImageFix" result="effect1_dropShadow_1552_9995"/>
<feBlend mode="normal" in="SourceGraphic" in2="effect1_dropShadow_1552_9995" result="shape"/>
</filter>
<filter id="filter7_d_1552_9995" x="291.475" y="796.555" width="288.91" height="288.91" filterUnits="userSpaceOnUse" color-interpolation-filters="sRGB">
<feFlood flood-opacity="0" result="BackgroundImageFix"/>
<feColorMatrix in="SourceAlpha" type="matrix" values="0 0 0 0 0 0 0 0 0 0 0 0 0 0 0 0 0 0 127 0" result="hardAlpha"/>
<feOffset dx="-10" dy="20"/>
<feGaussianBlur stdDeviation="17.5"/>
<feComposite in2="hardAlpha" operator="out"/>
<feColorMatrix type="matrix" values="0 0 0 0 0 0 0 0 0 0 0 0 0 0 0.254167 0 0 0 0.07 0"/>
<feBlend mode="normal" in2="BackgroundImageFix" result="effect1_dropShadow_1552_9995"/>
<feBlend mode="normal" in="SourceGraphic" in2="effect1_dropShadow_1552_9995" result="shape"/>
</filter>
<filter id="filter8_d_1552_9995" x="201.22" y="412.137" width="196.256" height="196.255" filterUnits="userSpaceOnUse" color-interpolation-filters="sRGB">
<feFlood flood-opacity="0" result="BackgroundImageFix"/>
<feColorMatrix in="SourceAlpha" type="matrix" values="0 0 0 0 0 0 0 0 0 0 0 0 0 0 0 0 0 0 127 0" result="hardAlpha"/>
<feOffset dx="-10" dy="20"/>
<feGaussianBlur stdDeviation="17.5"/>
<feComposite in2="hardAlpha" operator="out"/>
<feColorMatrix type="matrix" values="0 0 0 0 0 0 0 0 0 0 0 0 0 0 0.254167 0 0 0 0.07 0"/>
<feBlend mode="normal" in2="BackgroundImageFix" result="effect1_dropShadow_1552_9995"/>
<feBlend mode="normal" in="SourceGraphic" in2="effect1_dropShadow_1552_9995" result="shape"/>
</filter>
<filter id="filter9_d_1552_9995" x="356.658" y="-50" width="164.742" height="164.742" filterUnits="userSpaceOnUse" color-interpolation-filters="sRGB">
<feFlood flood-opacity="0" result="BackgroundImageFix"/>
<feColorMatrix in="SourceAlpha" type="matrix" values="0 0 0 0 0 0 0 0 0 0 0 0 0 0 0 0 0 0 127 0" result="hardAlpha"/>
<feOffset dx="-10" dy="20"/>
<feGaussianBlur stdDeviation="17.5"/>
<feComposite in2="hardAlpha" operator="out"/>
<feColorMatrix type="matrix" values="0 0 0 0 0 0 0 0 0 0 0 0 0 0 0.254167 0 0 0 0.07 0"/>
<feBlend mode="normal" in2="BackgroundImageFix" result="effect1_dropShadow_1552_9995"/>
<feBlend mode="normal" in="SourceGraphic" in2="effect1_dropShadow_1552_9995" result="shape"/>
</filter>
<filter id="filter10_d_1552_9995" x="36.5889" y="225.778" width="256.554" height="256.553" filterUnits="userSpaceOnUse" color-interpolation-filters="sRGB">
<feFlood flood-opacity="0" result="BackgroundImageFix"/>
<feColorMatrix in="SourceAlpha" type="matrix" values="0 0 0 0 0 0 0 0 0 0 0 0 0 0 0 0 0 0 127 0" result="hardAlpha"/>
<feOffset dx="-10" dy="20"/>
<feGaussianBlur stdDeviation="17.5"/>
<feComposite in2="hardAlpha" operator="out"/>
<feColorMatrix type="matrix" values="0 0 0 0 0 0 0 0 0 0 0 0 0 0 0.254167 0 0 0 0.07 0"/>
<feBlend mode="normal" in2="BackgroundImageFix" result="effect1_dropShadow_1552_9995"/>
<feBlend mode="normal" in="SourceGraphic" in2="effect1_dropShadow_1552_9995" result="shape"/>
</filter>
<filter id="filter11_d_1552_9995" x="-24.417" y="90.396" width="183.912" height="183.912" filterUnits="userSpaceOnUse" color-interpolation-filters="sRGB">
<feFlood flood-opacity="0" result="BackgroundImageFix"/>
<feColorMatrix in="SourceAlpha" type="matrix" values="0 0 0 0 0 0 0 0 0 0 0 0 0 0 0 0 0 0 127 0" result="hardAlpha"/>
<feOffset dx="-10" dy="20"/>
<feGaussianBlur stdDeviation="17.5"/>
<feComposite in2="hardAlpha" operator="out"/>
<feColorMatrix type="matrix" values="0 0 0 0 0 0 0 0 0 0 0 0 0 0 0.254167 0 0 0 0.07 0"/>
<feBlend mode="normal" in2="BackgroundImageFix" result="effect1_dropShadow_1552_9995"/>
<feBlend mode="normal" in="SourceGraphic" in2="effect1_dropShadow_1552_9995" result="shape"/>
</filter>
<filter id="filter12_d_1552_9995" x="960.862" y="377.038" width="176.256" height="176.256" filterUnits="userSpaceOnUse" color-interpolation-filters="sRGB">
<feFlood flood-opacity="0" result="BackgroundImageFix"/>
<feColorMatrix in="SourceAlpha" type="matrix" values="0 0 0 0 0 0 0 0 0 0 0 0 0 0 0 0 0 0 127 0" result="hardAlpha"/>
<feOffset dx="-10" dy="20"/>
<feGaussianBlur stdDeviation="17.5"/>
<feComposite in2="hardAlpha" operator="out"/>
<feColorMatrix type="matrix" values="0 0 0 0 0 0 0 0 0 0 0 0 0 0 0.254167 0 0 0 0.07 0"/>
<feBlend mode="normal" in2="BackgroundImageFix" result="effect1_dropShadow_1552_9995"/>
<feBlend mode="normal" in="SourceGraphic" in2="effect1_dropShadow_1552_9995" result="shape"/>
</filter>
<filter id="filter13_d_1552_9995" x="1112.12" y="770.648" width="235.48" height="235.479" filterUnits="userSpaceOnUse" color-interpolation-filters="sRGB">
<feFlood flood-opacity="0" result="BackgroundImageFix"/>
<feColorMatrix in="SourceAlpha" type="matrix" values="0 0 0 0 0 0 0 0 0 0 0 0 0 0 0 0 0 0 127 0" result="hardAlpha"/>
<feOffset dx="-10" dy="20"/>
<feGaussianBlur stdDeviation="17.5"/>
<feComposite in2="hardAlpha" operator="out"/>
<feColorMatrix type="matrix" values="0 0 0 0 0 0 0 0 0 0 0 0 0 0 0.254167 0 0 0 0.07 0"/>
<feBlend mode="normal" in2="BackgroundImageFix" result="effect1_dropShadow_1552_9995"/>
<feBlend mode="normal" in="SourceGraphic" in2="effect1_dropShadow_1552_9995" result="shape"/>
</filter>
<filter id="filter14_d_1552_9995" x="830.495" y="-7.37988" width="173.352" height="173.352" filterUnits="userSpaceOnUse" color-interpolation-filters="sRGB">
<feFlood flood-opacity="0" result="BackgroundImageFix"/>
<feColorMatrix in="SourceAlpha" type="matrix" values="0 0 0 0 0 0 0 0 0 0 0 0 0 0 0 0 0 0 127 0" result="hardAlpha"/>
<feOffset dx="-10" dy="20"/>
<feGaussianBlur stdDeviation="17.5"/>
<feComposite in2="hardAlpha" operator="out"/>
<feColorMatrix type="matrix" values="0 0 0 0 0 0 0 0 0 0 0 0 0 0 0.254167 0 0 0 0.07 0"/>
<feBlend mode="normal" in2="BackgroundImageFix" result="effect1_dropShadow_1552_9995"/>
<feBlend mode="normal" in="SourceGraphic" in2="effect1_dropShadow_1552_9995" result="shape"/>
</filter>
<filter id="filter15_d_1552_9995" x="413.485" y="50.2827" width="219.916" height="219.916" filterUnits="userSpaceOnUse" color-interpolation-filters="sRGB">
<feFlood flood-opacity="0" result="BackgroundImageFix"/>
<feColorMatrix in="SourceAlpha" type="matrix" values="0 0 0 0 0 0 0 0 0 0 0 0 0 0 0 0 0 0 127 0" result="hardAlpha"/>
<feOffset dx="-10" dy="20"/>
<feGaussianBlur stdDeviation="17.5"/>
<feComposite in2="hardAlpha" operator="out"/>
<feColorMatrix type="matrix" values="0 0 0 0 0 0 0 0 0 0 0 0 0 0 0.254167 0 0 0 0.07 0"/>
<feBlend mode="normal" in2="BackgroundImageFix" result="effect1_dropShadow_1552_9995"/>
<feBlend mode="normal" in="SourceGraphic" in2="effect1_dropShadow_1552_9995" result="shape"/>
</filter>
<filter id="filter16_d_1552_9995" x="626.586" y="402.944" width="275.546" height="275.546" filterUnits="userSpaceOnUse" color-interpolation-filters="sRGB">
<feFlood flood-opacity="0" result="BackgroundImageFix"/>
<feColorMatrix in="SourceAlpha" type="matrix" values="0 0 0 0 0 0 0 0 0 0 0 0 0 0 0 0 0 0 127 0" result="hardAlpha"/>
<feOffset dx="-10" dy="20"/>
<feGaussianBlur stdDeviation="17.5"/>
<feComposite in2="hardAlpha" operator="out"/>
<feColorMatrix type="matrix" values="0 0 0 0 0 0 0 0 0 0 0 0 0 0 0.254167 0 0 0 0.07 0"/>
<feBlend mode="normal" in2="BackgroundImageFix" result="effect1_dropShadow_1552_9995"/>
<feBlend mode="normal" in="SourceGraphic" in2="effect1_dropShadow_1552_9995" result="shape"/>
</filter>
<filter id="filter17_d_1552_9995" x="-36.9521" y="750.592" width="309.523" height="309.524" filterUnits="userSpaceOnUse" color-interpolation-filters="sRGB">
<feFlood flood-opacity="0" result="BackgroundImageFix"/>
<feColorMatrix in="SourceAlpha" type="matrix" values="0 0 0 0 0 0 0 0 0 0 0 0 0 0 0 0 0 0 127 0" result="hardAlpha"/>
<feOffset dx="-10" dy="20"/>
<feGaussianBlur stdDeviation="17.5"/>
<feComposite in2="hardAlpha" operator="out"/>
<feColorMatrix type="matrix" values="0 0 0 0 0 0 0 0 0 0 0 0 0 0 0.254167 0 0 0 0.07 0"/>
<feBlend mode="normal" in2="BackgroundImageFix" result="effect1_dropShadow_1552_9995"/>
<feBlend mode="normal" in="SourceGraphic" in2="effect1_dropShadow_1552_9995" result="shape"/>
</filter>
<filter id="filter18_d_1552_9995" x="1253.35" y="906.03" width="280.594" height="280.594" filterUnits="userSpaceOnUse" color-interpolation-filters="sRGB">
<feFlood flood-opacity="0" result="BackgroundImageFix"/>
<feColorMatrix in="SourceAlpha" type="matrix" values="0 0 0 0 0 0 0 0 0 0 0 0 0 0 0 0 0 0 127 0" result="hardAlpha"/>
<feOffset dx="-10" dy="20"/>
<feGaussianBlur stdDeviation="17.5"/>
<feComposite in2="hardAlpha" operator="out"/>
<feColorMatrix type="matrix" values="0 0 0 0 0 0 0 0 0 0 0 0 0 0 0.254167 0 0 0 0.07 0"/>
<feBlend mode="normal" in2="BackgroundImageFix" result="effect1_dropShadow_1552_9995"/>
<feBlend mode="normal" in="SourceGraphic" in2="effect1_dropShadow_1552_9995" result="shape"/>
</filter>
<filter id="filter19_d_1552_9995" x="272.254" y="205.721" width="243.621" height="243.621" filterUnits="userSpaceOnUse" color-interpolation-filters="sRGB">
<feFlood flood-opacity="0" result="BackgroundImageFix"/>
<feColorMatrix in="SourceAlpha" type="matrix" values="0 0 0 0 0 0 0 0 0 0 0 0 0 0 0 0 0 0 127 0" result="hardAlpha"/>
<feOffset dx="-10" dy="20"/>
<feGaussianBlur stdDeviation="17.5"/>
<feComposite in2="hardAlpha" operator="out"/>
<feColorMatrix type="matrix" values="0 0 0 0 0 0 0 0 0 0 0 0 0 0 0.254167 0 0 0 0.07 0"/>
<feBlend mode="normal" in2="BackgroundImageFix" result="effect1_dropShadow_1552_9995"/>
<feBlend mode="normal" in="SourceGraphic" in2="effect1_dropShadow_1552_9995" result="shape"/>
</filter>
<filter id="filter20_d_1552_9995" x="470.312" y="595.989" width="309.176" height="309.176" filterUnits="userSpaceOnUse" color-interpolation-filters="sRGB">
<feFlood flood-opacity="0" result="BackgroundImageFix"/>
<feColorMatrix in="SourceAlpha" type="matrix" values="0 0 0 0 0 0 0 0 0 0 0 0 0 0 0 0 0 0 127 0" result="hardAlpha"/>
<feOffset dx="-10" dy="20"/>
<feGaussianBlur stdDeviation="17.5"/>
<feComposite in2="hardAlpha" operator="out"/>
<feColorMatrix type="matrix" values="0 0 0 0 0 0 0 0 0 0 0 0 0 0 0.254167 0 0 0 0.07 0"/>
<feBlend mode="normal" in2="BackgroundImageFix" result="effect1_dropShadow_1552_9995"/>
<feBlend mode="normal" in="SourceGraphic" in2="effect1_dropShadow_1552_9995" result="shape"/>
</filter>
<filter id="filter21_d_1552_9995" x="120.158" y="-18.2437" width="304.063" height="304.063" filterUnits="userSpaceOnUse" color-interpolation-filters="sRGB">
<feFlood flood-opacity="0" result="BackgroundImageFix"/>
<feColorMatrix in="SourceAlpha" type="matrix" values="0 0 0 0 0 0 0 0 0 0 0 0 0 0 0 0 0 0 127 0" result="hardAlpha"/>
<feOffset dx="-10" dy="20"/>
<feGaussianBlur stdDeviation="17.5"/>
<feComposite in2="hardAlpha" operator="out"/>
<feColorMatrix type="matrix" values="0 0 0 0 0 0 0 0 0 0 0 0 0 0 0.254167 0 0 0 0.07 0"/>
<feBlend mode="normal" in2="BackgroundImageFix" result="effect1_dropShadow_1552_9995"/>
<feBlend mode="normal" in="SourceGraphic" in2="effect1_dropShadow_1552_9995" result="shape"/>
</filter>
<filter id="filter22_d_1552_9995" x="960.862" y="531.641" width="308.822" height="308.822" filterUnits="userSpaceOnUse" color-interpolation-filters="sRGB">
<feFlood flood-opacity="0" result="BackgroundImageFix"/>
<feColorMatrix in="SourceAlpha" type="matrix" values="0 0 0 0 0 0 0 0 0 0 0 0 0 0 0 0 0 0 127 0" result="hardAlpha"/>
<feOffset dx="-10" dy="20"/>
<feGaussianBlur stdDeviation="17.5"/>
<feComposite in2="hardAlpha" operator="out"/>
<feColorMatrix type="matrix" values="0 0 0 0 0 0 0 0 0 0 0 0 0 0 0.254167 0 0 0 0.07 0"/>
<feBlend mode="normal" in2="BackgroundImageFix" result="effect1_dropShadow_1552_9995"/>
<feBlend mode="normal" in="SourceGraphic" in2="effect1_dropShadow_1552_9995" result="shape"/>
</filter>
<filter id="filter23_d_1552_9995" x="780.354" y="601.839" width="177.664" height="177.664" filterUnits="userSpaceOnUse" color-interpolation-filters="sRGB">
<feFlood flood-opacity="0" result="BackgroundImageFix"/>
<feColorMatrix in="SourceAlpha" type="matrix" values="0 0 0 0 0 0 0 0 0 0 0 0 0 0 0 0 0 0 127 0" result="hardAlpha"/>
<feOffset dx="-10" dy="20"/>
<feGaussianBlur stdDeviation="17.5"/>
<feComposite in2="hardAlpha" operator="out"/>
<feColorMatrix type="matrix" values="0 0 0 0 0 0 0 0 0 0 0 0 0 0 0.254167 0 0 0 0.07 0"/>
<feBlend mode="normal" in2="BackgroundImageFix" result="effect1_dropShadow_1552_9995"/>
<feBlend mode="normal" in="SourceGraphic" in2="effect1_dropShadow_1552_9995" result="shape"/>
</filter>
<filter id="filter24_d_1552_9995" x="-79.5723" y="672.873" width="155.386" height="155.386" filterUnits="userSpaceOnUse" color-interpolation-filters="sRGB">
<feFlood flood-opacity="0" result="BackgroundImageFix"/>
<feColorMatrix in="SourceAlpha" type="matrix" values="0 0 0 0 0 0 0 0 0 0 0 0 0 0 0 0 0 0 127 0" result="hardAlpha"/>
<feOffset dx="-10" dy="20"/>
<feGaussianBlur stdDeviation="17.5"/>
<feComposite in2="hardAlpha" operator="out"/>
<feColorMatrix type="matrix" values="0 0 0 0 0 0 0 0 0 0 0 0 0 0 0.254167 0 0 0 0.07 0"/>
<feBlend mode="normal" in2="BackgroundImageFix" result="effect1_dropShadow_1552_9995"/>
<feBlend mode="normal" in="SourceGraphic" in2="effect1_dropShadow_1552_9995" result="shape"/>
</filter>
<filter id="filter25_d_1552_9995" x="1075.35" y="-3.20117" width="319.801" height="319.801" filterUnits="userSpaceOnUse" color-interpolation-filters="sRGB">
<feFlood flood-opacity="0" result="BackgroundImageFix"/>
<feColorMatrix in="SourceAlpha" type="matrix" values="0 0 0 0 0 0 0 0 0 0 0 0 0 0 0 0 0 0 127 0" result="hardAlpha"/>
<feOffset dx="-10" dy="20"/>
<feGaussianBlur stdDeviation="17.5"/>
<feComposite in2="hardAlpha" operator="out"/>
<feColorMatrix type="matrix" values="0 0 0 0 0 0 0 0 0 0 0 0 0 0 0.254167 0 0 0 0.07 0"/>
<feBlend mode="normal" in2="BackgroundImageFix" result="effect1_dropShadow_1552_9995"/>
<feBlend mode="normal" in="SourceGraphic" in2="effect1_dropShadow_1552_9995" result="shape"/>
</filter>
<filter id="filter26_d_1552_9995" x="-113" y="299.319" width="180.167" height="180.167" filterUnits="userSpaceOnUse" color-interpolation-filters="sRGB">
<feFlood flood-opacity="0" result="BackgroundImageFix"/>
<feColorMatrix in="SourceAlpha" type="matrix" values="0 0 0 0 0 0 0 0 0 0 0 0 0 0 0 0 0 0 127 0" result="hardAlpha"/>
<feOffset dx="-10" dy="20"/>
<feGaussianBlur stdDeviation="17.5"/>
<feComposite in2="hardAlpha" operator="out"/>
<feColorMatrix type="matrix" values="0 0 0 0 0 0 0 0 0 0 0 0 0 0 0.254167 0 0 0 0.07 0"/>
<feBlend mode="normal" in2="BackgroundImageFix" result="effect1_dropShadow_1552_9995"/>
<feBlend mode="normal" in="SourceGraphic" in2="effect1_dropShadow_1552_9995" result="shape"/>
</filter>
<filter id="filter27_d_1552_9995" x="987.604" y="219.928" width="200.719" height="200.719" filterUnits="userSpaceOnUse" color-interpolation-filters="sRGB">
<feFlood flood-opacity="0" result="BackgroundImageFix"/>
<feColorMatrix in="SourceAlpha" type="matrix" values="0 0 0 0 0 0 0 0 0 0 0 0 0 0 0 0 0 0 127 0" result="hardAlpha"/>
<feOffset dx="-10" dy="20"/>
<feGaussianBlur stdDeviation="17.5"/>
<feComposite in2="hardAlpha" operator="out"/>
<feColorMatrix type="matrix" values="0 0 0 0 0 0 0 0 0 0 0 0 0 0 0.254167 0 0 0 0.07 0"/>
<feBlend mode="normal" in2="BackgroundImageFix" result="effect1_dropShadow_1552_9995"/>
<feBlend mode="normal" in="SourceGraphic" in2="effect1_dropShadow_1552_9995" result="shape"/>
</filter>
<filter id="filter28_d_1552_9995" x="862.251" y="460.607" width="166.417" height="166.417" filterUnits="userSpaceOnUse" color-interpolation-filters="sRGB">
<feFlood flood-opacity="0" result="BackgroundImageFix"/>
<feColorMatrix in="SourceAlpha" type="matrix" values="0 0 0 0 0 0 0 0 0 0 0 0 0 0 0 0 0 0 127 0" result="hardAlpha"/>
<feOffset dx="-10" dy="20"/>
<feGaussianBlur stdDeviation="17.5"/>
<feComposite in2="hardAlpha" operator="out"/>
<feColorMatrix type="matrix" values="0 0 0 0 0 0 0 0 0 0 0 0 0 0 0.254167 0 0 0 0.07 0"/>
<feBlend mode="normal" in2="BackgroundImageFix" result="effect1_dropShadow_1552_9995"/>
<feBlend mode="normal" in="SourceGraphic" in2="effect1_dropShadow_1552_9995" result="shape"/>
</filter>
<filter id="filter29_d_1552_9995" x="567.252" y="843.354" width="320.354" height="320.354" filterUnits="userSpaceOnUse" color-interpolation-filters="sRGB">
<feFlood flood-opacity="0" result="BackgroundImageFix"/>
<feColorMatrix in="SourceAlpha" type="matrix" values="0 0 0 0 0 0 0 0 0 0 0 0 0 0 0 0 0 0 127 0" result="hardAlpha"/>
<feOffset dx="-10" dy="20"/>
<feGaussianBlur stdDeviation="17.5"/>
<feComposite in2="hardAlpha" operator="out"/>
<feColorMatrix type="matrix" values="0 0 0 0 0 0 0 0 0 0 0 0 0 0 0.254167 0 0 0 0.07 0"/>
<feBlend mode="normal" in2="BackgroundImageFix" result="effect1_dropShadow_1552_9995"/>
<feBlend mode="normal" in="SourceGraphic" in2="effect1_dropShadow_1552_9995" result="shape"/>
</filter>
<filter id="filter30_d_1552_9995" x="815.452" y="733.042" width="234.034" height="234.034" filterUnits="userSpaceOnUse" color-interpolation-filters="sRGB">
<feFlood flood-opacity="0" result="BackgroundImageFix"/>
<feColorMatrix in="SourceAlpha" type="matrix" values="0 0 0 0 0 0 0 0 0 0 0 0 0 0 0 0 0 0 127 0" result="hardAlpha"/>
<feOffset dx="-10" dy="20"/>
<feGaussianBlur stdDeviation="17.5"/>
<feComposite in2="hardAlpha" operator="out"/>
<feColorMatrix type="matrix" values="0 0 0 0 0 0 0 0 0 0 0 0 0 0 0.254167 0 0 0 0.07 0"/>
<feBlend mode="normal" in2="BackgroundImageFix" result="effect1_dropShadow_1552_9995"/>
<feBlend mode="normal" in="SourceGraphic" in2="effect1_dropShadow_1552_9995" result="shape"/>
</filter>
<filter id="filter31_d_1552_9995" x="180.327" y="573.425" width="312.898" height="312.899" filterUnits="userSpaceOnUse" color-interpolation-filters="sRGB">
<feFlood flood-opacity="0" result="BackgroundImageFix"/>
<feColorMatrix in="SourceAlpha" type="matrix" values="0 0 0 0 0 0 0 0 0 0 0 0 0 0 0 0 0 0 127 0" result="hardAlpha"/>
<feOffset dx="-10" dy="20"/>
<feGaussianBlur stdDeviation="17.5"/>
<feComposite in2="hardAlpha" operator="out"/>
<feColorMatrix type="matrix" values="0 0 0 0 0 0 0 0 0 0 0 0 0 0 0.254167 0 0 0 0.07 0"/>
<feBlend mode="normal" in2="BackgroundImageFix" result="effect1_dropShadow_1552_9995"/>
<feBlend mode="normal" in="SourceGraphic" in2="effect1_dropShadow_1552_9995" result="shape"/>
</filter>
<filter id="filter32_d_1552_9995" x="548.031" y="-22.4224" width="162.454" height="162.454" filterUnits="userSpaceOnUse" color-interpolation-filters="sRGB">
<feFlood flood-opacity="0" result="BackgroundImageFix"/>
<feColorMatrix in="SourceAlpha" type="matrix" values="0 0 0 0 0 0 0 0 0 0 0 0 0 0 0 0 0 0 127 0" result="hardAlpha"/>
<feOffset dx="-10" dy="20"/>
<feGaussianBlur stdDeviation="17.5"/>
<feComposite in2="hardAlpha" operator="out"/>
<feColorMatrix type="matrix" values="0 0 0 0 0 0 0 0 0 0 0 0 0 0 0.254167 0 0 0 0.07 0"/>
<feBlend mode="normal" in2="BackgroundImageFix" result="effect1_dropShadow_1552_9995"/>
<feBlend mode="normal" in="SourceGraphic" in2="effect1_dropShadow_1552_9995" result="shape"/>
</filter>
<filter id="filter33_d_1552_9995" x="666.699" y="-45.8218" width="193.368" height="193.368" filterUnits="userSpaceOnUse" color-interpolation-filters="sRGB">
<feFlood flood-opacity="0" result="BackgroundImageFix"/>
<feColorMatrix in="SourceAlpha" type="matrix" values="0 0 0 0 0 0 0 0 0 0 0 0 0 0 0 0 0 0 127 0" result="hardAlpha"/>
<feOffset dx="-10" dy="20"/>
<feGaussianBlur stdDeviation="17.5"/>
<feComposite in2="hardAlpha" operator="out"/>
<feColorMatrix type="matrix" values="0 0 0 0 0 0 0 0 0 0 0 0 0 0 0.254167 0 0 0 0.07 0"/>
<feBlend mode="normal" in2="BackgroundImageFix" result="effect1_dropShadow_1552_9995"/>
<feBlend mode="normal" in="SourceGraphic" in2="effect1_dropShadow_1552_9995" result="shape"/>
</filter>
<filter id="filter34_d_1552_9995" x="736.062" y="77.8608" width="197.678" height="197.677" filterUnits="userSpaceOnUse" color-interpolation-filters="sRGB">
<feFlood flood-opacity="0" result="BackgroundImageFix"/>
<feColorMatrix in="SourceAlpha" type="matrix" values="0 0 0 0 0 0 0 0 0 0 0 0 0 0 0 0 0 0 127 0" result="hardAlpha"/>
<feOffset dx="-10" dy="20"/>
<feGaussianBlur stdDeviation="17.5"/>
<feComposite in2="hardAlpha" operator="out"/>
<feColorMatrix type="matrix" values="0 0 0 0 0 0 0 0 0 0 0 0 0 0 0.254167 0 0 0 0.07 0"/>
<feBlend mode="normal" in2="BackgroundImageFix" result="effect1_dropShadow_1552_9995"/>
<feBlend mode="normal" in="SourceGraphic" in2="effect1_dropShadow_1552_9995" result="shape"/>
</filter>
<filter id="filter35_d_1552_9995" x="897.351" y="913.552" width="305.148" height="305.149" filterUnits="userSpaceOnUse" color-interpolation-filters="sRGB">
<feFlood flood-opacity="0" result="BackgroundImageFix"/>
<feColorMatrix in="SourceAlpha" type="matrix" values="0 0 0 0 0 0 0 0 0 0 0 0 0 0 0 0 0 0 127 0" result="hardAlpha"/>
<feOffset dx="-10" dy="20"/>
<feGaussianBlur stdDeviation="17.5"/>
<feComposite in2="hardAlpha" operator="out"/>
<feColorMatrix type="matrix" values="0 0 0 0 0 0 0 0 0 0 0 0 0 0 0.254167 0 0 0 0.07 0"/>
<feBlend mode="normal" in2="BackgroundImageFix" result="effect1_dropShadow_1552_9995"/>
<feBlend mode="normal" in="SourceGraphic" in2="effect1_dropShadow_1552_9995" result="shape"/>
</filter>
<clipPath id="clip0_1552_9995">
<rect width="1440" height="939" fill="white"/>
</clipPath>
</defs>
</svg>
