<svg width="19" height="14" viewBox="0 0 19 14" fill="none" xmlns="http://www.w3.org/2000/svg">
<path d="M8.31338 12.9414L10.3248 1.05951M12.1667 3.42498H13.9444C14.8874 3.42498 15.7918 3.79959 16.4586 4.46638C17.1254 5.13318 17.5 6.03754 17.5 6.98053C17.5 7.92352 17.1254 8.82789 16.4586 9.49469C15.7918 10.1615 14.8874 10.5361 13.9444 10.5361H12.1667M6.83333 3.42498H5.05556C4.11256 3.42498 3.20819 3.79959 2.5414 4.46638C1.8746 5.13318 1.5 6.03754 1.5 6.98053C1.5 7.92352 1.8746 8.82789 2.5414 9.49469C3.20819 10.1615 4.11256 10.5361 5.05556 10.5361H6.83333" stroke="#404053" stroke-width="1.5" stroke-linecap="round" stroke-linejoin="round"/>
</svg>
