<svg width="36" height="40" viewBox="0 0 36 40" fill="none" xmlns="http://www.w3.org/2000/svg">
<path d="M2 23.35V16.15C2 9.3622 2 5.9674 4.1096 3.8596C6.2174 1.75 9.6122 1.75 16.4 1.75H20C26.7878 1.75 30.1826 1.75 32.2904 3.8596C33.4676 5.035 33.9878 6.61 34.2164 8.95M34.4 16.15V23.35C34.4 30.1378 34.4 33.5326 32.2904 35.6404C30.1826 37.75 26.7878 37.75 20 37.75H16.4C9.6122 37.75 6.2174 37.75 4.1096 35.6404C2.9324 34.465 2.4122 32.89 2.1836 30.55M11 23.35H20M11 16.15H12.8M25.4 16.15H18.2" stroke="#DD6E20" stroke-width="3" stroke-linecap="round"/>
</svg>
