<svg width="25" height="24" viewBox="0 0 25 24" fill="none" xmlns="http://www.w3.org/2000/svg">
<path d="M7.5 5H21.5V7H7.5V5ZM7.5 13V11H21.5V13H7.5ZM4.5 4.5C4.89782 4.5 5.27936 4.65804 5.56066 4.93934C5.84196 5.22064 6 5.60218 6 6C6 6.39782 5.84196 6.77936 5.56066 7.06066C5.27936 7.34196 4.89782 7.5 4.5 7.5C4.10218 7.5 3.72064 7.34196 3.43934 7.06066C3.15804 6.77936 3 6.39782 3 6C3 5.60218 3.15804 5.22064 3.43934 4.93934C3.72064 4.65804 4.10218 4.5 4.5 4.5ZM4.5 10.5C4.89782 10.5 5.27936 10.658 5.56066 10.9393C5.84196 11.2206 6 11.6022 6 12C6 12.3978 5.84196 12.7794 5.56066 13.0607C5.27936 13.342 4.89782 13.5 4.5 13.5C4.10218 13.5 3.72064 13.342 3.43934 13.0607C3.15804 12.7794 3 12.3978 3 12C3 11.6022 3.15804 11.2206 3.43934 10.9393C3.72064 10.658 4.10218 10.5 4.5 10.5ZM7.5 19V17H21.5V19H7.5ZM4.5 16.5C4.89782 16.5 5.27936 16.658 5.56066 16.9393C5.84196 17.2206 6 17.6022 6 18C6 18.3978 5.84196 18.7794 5.56066 19.0607C5.27936 19.342 4.89782 19.5 4.5 19.5C4.10218 19.5 3.72064 19.342 3.43934 19.0607C3.15804 18.7794 3 18.3978 3 18C3 17.6022 3.15804 17.2206 3.43934 16.9393C3.72064 16.658 4.10218 16.5 4.5 16.5Z" fill="#404053"/>
</svg>
