<svg width="26" height="27" viewBox="0 0 26 27" fill="none" xmlns="http://www.w3.org/2000/svg">
<path d="M12.9999 0.583008C20.1299 0.583008 25.9166 6.36967 25.9166 13.4997C25.9166 20.6297 20.1299 26.4163 12.9999 26.4163C5.86992 26.4163 0.083252 20.6297 0.083252 13.4997C0.083252 6.36967 5.86992 0.583008 12.9999 0.583008ZM12.9999 23.833C18.7177 23.833 23.3333 19.2175 23.3333 13.4997C23.3333 7.78189 18.7177 3.16634 12.9999 3.16634C7.28214 3.16634 2.66659 7.78189 2.66659 13.4997C2.66659 19.2175 7.28214 23.833 12.9999 23.833ZM12.9999 21.2497C8.71159 21.2497 5.24992 17.788 5.24992 13.4997C5.24992 9.21134 8.71159 5.74967 12.9999 5.74967C17.2883 5.74967 20.7499 9.21134 20.7499 13.4997C20.7499 17.788 17.2883 21.2497 12.9999 21.2497ZM12.9999 10.9163C11.5791 10.9163 10.4166 12.0788 10.4166 13.4997C10.4166 14.9205 11.5791 16.083 12.9999 16.083C14.4208 16.083 15.5833 14.9205 15.5833 13.4997C15.5833 12.0788 14.4208 10.9163 12.9999 10.9163Z" fill="#007DFC"/>
</svg>
