<svg width="28" height="28" viewBox="0 0 28 28" fill="none" xmlns="http://www.w3.org/2000/svg">
<path d="M27.3333 13.9998C27.3333 21.3598 21.3599 27.3332 13.9999 27.3332C6.63992 27.3332 0.666587 21.3598 0.666587 13.9998C0.666588 6.63984 6.63992 0.666503 13.9999 0.666503C21.3599 0.666504 27.3333 6.63984 27.3333 13.9998ZM3.33325 13.9998C3.33325 19.8932 8.10659 24.6665 13.9999 24.6665C19.8933 24.6665 24.6666 19.8932 24.6666 13.9998C24.6666 8.1065 19.8933 3.33317 13.9999 3.33317C8.10659 3.33317 3.33325 8.1065 3.33325 13.9998ZM13.9999 15.3332L8.66659 15.3332L8.66659 12.6665L13.9999 12.6665L13.9999 8.6665L19.3333 13.9998L13.9999 19.3332L13.9999 15.3332Z" fill="#000462"/>
</svg>
