<svg width="32" height="33" viewBox="0 0 32 33" fill="none" xmlns="http://www.w3.org/2000/svg">
<path d="M16 4C9.41125 4 4.25 6.965 4.25 10.75V22.75C4.25 26.535 9.41125 29.5 16 29.5C22.5887 29.5 27.75 26.535 27.75 22.75V10.75C27.75 6.965 22.5887 4 16 4ZM16 5.5C21.5562 5.5 26.25 7.90375 26.25 10.75C26.25 13.5963 21.5562 16 16 16C10.4437 16 5.75 13.5963 5.75 10.75C5.75 7.90375 10.4437 5.5 16 5.5ZM26.25 22.75C26.25 25.5963 21.5562 28 16 28C10.4437 28 5.75 25.5963 5.75 22.75V20.0987C7.75 22.145 11.5462 23.5 16 23.5C20.4538 23.5 24.25 22.145 26.25 20.0987V22.75ZM26.25 16.75C26.25 19.5963 21.5562 22 16 22C10.4437 22 5.75 19.5963 5.75 16.75V14.0988C7.75 16.145 11.5462 17.5 16 17.5C20.4538 17.5 24.25 16.145 26.25 14.0988V16.75Z" fill="#DD6E20"/>
</svg>
