<svg width="25" height="24" viewBox="0 0 25 24" fill="none" xmlns="http://www.w3.org/2000/svg">
<path d="M17.1013 10.7306C17.6422 10.0719 17.9848 9.27301 18.0894 8.42707C18.194 7.58112 18.0561 6.72288 17.6919 5.95222C17.3277 5.18157 16.7521 4.53021 16.0321 4.07395C15.3121 3.61769 14.4774 3.3753 13.625 3.375H7.25C6.95163 3.375 6.66548 3.49353 6.4545 3.7045C6.24353 3.91548 6.125 4.20163 6.125 4.5V18.75C6.125 19.0484 6.24353 19.3345 6.4545 19.5455C6.66548 19.7565 6.95163 19.875 7.25 19.875H14.75C15.8313 19.8745 16.8817 19.5146 17.736 18.8519C18.5903 18.1892 19.2001 17.2612 19.4694 16.214C19.7386 15.1668 19.6521 14.0598 19.2234 13.0672C18.7947 12.0745 18.0482 11.2526 17.1013 10.7306ZM8.375 5.625H13.625C14.2217 5.625 14.794 5.86205 15.216 6.28401C15.6379 6.70597 15.875 7.27826 15.875 7.875C15.875 8.47174 15.6379 9.04403 15.216 9.46599C14.794 9.88795 14.2217 10.125 13.625 10.125H8.375V5.625ZM14.75 17.625H8.375V12.375H14.75C15.4462 12.375 16.1139 12.6516 16.6062 13.1438C17.0984 13.6361 17.375 14.3038 17.375 15C17.375 15.6962 17.0984 16.3639 16.6062 16.8562C16.1139 17.3484 15.4462 17.625 14.75 17.625Z" fill="#404053"/>
</svg>
