<svg width="32" height="32" viewBox="0 0 32 32" fill="none" xmlns="http://www.w3.org/2000/svg">
<path d="M2.66675 16.0002C2.66675 8.64016 8.64008 2.66683 16.0001 2.66683C23.3601 2.66683 29.3334 8.64016 29.3334 16.0002C29.3334 23.3602 23.3601 29.3335 16.0001 29.3335C8.64008 29.3335 2.66675 23.3602 2.66675 16.0002ZM26.6667 16.0002C26.6667 10.1068 21.8934 5.3335 16.0001 5.3335C10.1067 5.3335 5.33342 10.1068 5.33342 16.0002C5.33341 21.8935 10.1067 26.6668 16.0001 26.6668C21.8934 26.6668 26.6667 21.8935 26.6667 16.0002ZM16.0001 14.6668L21.3334 14.6668L21.3334 17.3335L16.0001 17.3335L16.0001 21.3335L10.6667 16.0002L16.0001 10.6668L16.0001 14.6668Z" fill="#9E9E9E"/>
</svg>
