<svg width="21" height="14" viewBox="0 0 21 14" fill="none" xmlns="http://www.w3.org/2000/svg">
<path d="M5.5 3.67822H0.5V1.67822H5.5V3.67822ZM5.5 6.67822H0.5V8.67822H5.5V6.67822ZM19.09 13.6782L15.26 9.84822C14.46 10.3682 13.52 10.6782 12.5 10.6782C9.74 10.6782 7.5 8.43822 7.5 5.67822C7.5 2.91822 9.74 0.678223 12.5 0.678223C15.26 0.678223 17.5 2.91822 17.5 5.67822C17.5 6.69822 17.19 7.63822 16.67 8.42822L20.5 12.2682L19.09 13.6782ZM15.5 5.67822C15.5 4.02822 14.15 2.67822 12.5 2.67822C10.85 2.67822 9.5 4.02822 9.5 5.67822C9.5 7.32822 10.85 8.67822 12.5 8.67822C14.15 8.67822 15.5 7.32822 15.5 5.67822ZM0.5 13.6782H10.5V11.6782H0.5V13.6782Z" fill="#DD6E20"/>
</svg>
