<svg width="20" height="18" viewBox="0 0 20 18" fill="none" xmlns="http://www.w3.org/2000/svg">
<path d="M5 17.1782H15M7 13.1782V17.1782M13 13.1782V17.1782M7 9.17822V5.17822M10 9.17822V8.17822M13 9.17822V7.17822M1 2.17822C1 1.91301 1.10536 1.65865 1.29289 1.47112C1.48043 1.28358 1.73478 1.17822 2 1.17822H18C18.2652 1.17822 18.5196 1.28358 18.7071 1.47112C18.8946 1.65865 19 1.91301 19 2.17822V12.1782C19 12.4434 18.8946 12.6978 18.7071 12.8853C18.5196 13.0729 18.2652 13.1782 18 13.1782H2C1.73478 13.1782 1.48043 13.0729 1.29289 12.8853C1.10536 12.6978 1 12.4434 1 12.1782V2.17822Z" stroke="#DD6E20" stroke-width="1.5" stroke-linecap="round" stroke-linejoin="round"/>
</svg>
