<svg width="32" height="32" viewBox="0 0 32 32" fill="none" xmlns="http://www.w3.org/2000/svg">
<path d="M12.0003 5.94639C13.2939 5.53631 14.6433 5.3294 16.0003 5.33306C21.5763 5.33306 25.371 8.66639 27.6337 11.6051C28.767 13.0797 29.3337 13.8144 29.3337 15.9997C29.3337 18.1864 28.767 18.9211 27.6337 20.3944C25.371 23.3331 21.5763 26.6664 16.0003 26.6664C10.4243 26.6664 6.62966 23.3331 4.36699 20.3944C3.23366 18.9224 2.66699 18.1851 2.66699 15.9997C2.66699 13.8131 3.23366 13.0784 4.36699 11.6051C5.05814 10.702 5.82781 9.86183 6.66699 9.09439" stroke="#DD6E20" stroke-width="2" stroke-linecap="round"/>
<path d="M20 16C20 17.0609 19.5786 18.0783 18.8284 18.8284C18.0783 19.5786 17.0609 20 16 20C14.9391 20 13.9217 19.5786 13.1716 18.8284C12.4214 18.0783 12 17.0609 12 16C12 14.9391 12.4214 13.9217 13.1716 13.1716C13.9217 12.4214 14.9391 12 16 12C17.0609 12 18.0783 12.4214 18.8284 13.1716C19.5786 13.9217 20 14.9391 20 16Z" stroke="#DD6E20" stroke-width="2"/>
</svg>
