<svg width="18" height="21" viewBox="0 0 18 21" fill="none" xmlns="http://www.w3.org/2000/svg">
<path d="M16.5 8.30322H17.75V9.55322H16.5V8.30322ZM13.8612 3.17635L14.745 2.29197L15.6288 3.17635L14.745 4.0601L13.8612 3.17635ZM8.375 0.178223H9.625V1.42822H8.375V0.178223ZM3.255 4.07447L2.37125 3.1901L3.255 2.30635L4.13875 3.19072L3.255 4.07447ZM0.25 8.30322H1.5V9.55322H0.25V8.30322ZM7.125 18.9282H10.875V20.1782H7.125V18.9282ZM5.875 16.4282H12.125V17.6782H5.875V16.4282ZM9 2.67822C5.5625 2.67822 2.75 5.49072 2.75 8.92822C2.75 11.6782 4 12.8657 4.9375 13.6782C5.5625 14.2407 5.875 14.6157 5.875 15.1782H7.125C7.125 14.0532 6.4375 13.3657 5.75 12.7407C4.875 11.9907 4 11.1157 4 8.92822C4 6.17822 6.25 3.92822 9 3.92822C11.75 3.92822 14 6.17822 14 8.92822C14 11.1157 13.125 11.9907 12.25 12.7407C11.5625 13.3657 10.875 13.9907 10.875 15.1782H12.125C12.125 14.6157 12.4375 14.2407 13.0625 13.6782C14 12.8657 15.25 11.6782 15.25 8.92822C15.25 5.49072 12.4375 2.67822 9 2.67822Z" fill="#DD6E20"/>
</svg>
