<svg width="32" height="33" viewBox="0 0 32 33" fill="none" xmlns="http://www.w3.org/2000/svg">
<path d="M6.85742 11.6689H20.5717M8.35228 16.2983L9.87609 16.2709C10.2494 16.2637 10.6123 16.3938 10.896 16.6364C11.1797 16.8791 11.3644 17.2175 11.4151 17.5874L11.4289 17.7931V19.2926C11.4289 19.6917 11.2724 20.075 10.9928 20.36C10.7133 20.6449 10.3331 20.8088 9.93399 20.8164L8.41018 20.8438C8.03691 20.851 7.67398 20.7209 7.39028 20.4782C7.10658 20.2355 6.92184 19.8971 6.87114 19.5272L6.85742 19.32V17.8221C6.85735 17.4229 7.01391 17.0397 7.29345 16.7547C7.57299 16.4697 7.95318 16.3059 8.35228 16.2983Z" stroke="#DD6E20" stroke-width="1.52381" stroke-linecap="round" stroke-linejoin="round"/>
<path d="M14.4766 16.2399H20.5718M14.4766 20.8114H20.5718M5.33375 7.07422H22.0957C22.9039 7.07422 23.6791 7.39531 24.2506 7.96685C24.8222 8.53839 25.1433 9.31356 25.1433 10.1218V25.3828H5.33375C4.52547 25.3828 3.7503 25.0617 3.17876 24.4902C2.60722 23.9186 2.28613 23.1435 2.28613 22.3352V10.1234C2.28613 9.31508 2.60722 8.53991 3.17876 7.96837C3.7503 7.39683 4.52547 7.07422 5.33375 7.07422Z" stroke="#DD6E20" stroke-width="1.52381" stroke-linecap="round" stroke-linejoin="round"/>
<path d="M24.3818 25.3832C25.3922 25.3832 26.3612 24.9819 27.0756 24.2674C27.79 23.553 28.1914 22.5841 28.1914 21.5737V11.6689H25.1437" stroke="#DD6E20" stroke-width="1.52381" stroke-linecap="round" stroke-linejoin="round"/>
</svg>
