<svg width="37" height="37" viewBox="0 0 37 37" fill="none" xmlns="http://www.w3.org/2000/svg">
<path d="M18 21.75C18.7956 21.75 19.5587 21.4339 20.1213 20.8713C20.6839 20.3087 21 19.5456 21 18.75C21 17.9544 20.6839 17.1913 20.1213 16.6287C19.5587 16.0661 18.7956 15.75 18 15.75C17.2044 15.75 16.4413 16.0661 15.8787 16.6287C15.3161 17.1913 15 17.9544 15 18.75C15 19.5456 15.3161 20.3087 15.8787 20.8713C16.4413 21.4339 17.2044 21.75 18 21.75ZM7.5 18.75C7.5 15.9652 8.60625 13.2945 10.5754 11.3254C12.5445 9.35625 15.2152 8.25 18 8.25C20.7848 8.25 23.4555 9.35625 25.4246 11.3254C27.3938 13.2945 28.5 15.9652 28.5 18.75C28.5 21.5348 27.3938 24.2055 25.4246 26.1746C23.4555 28.1438 20.7848 29.25 18 29.25C15.2152 29.25 12.5445 28.1438 10.5754 26.1746C8.60625 24.2055 7.5 21.5348 7.5 18.75ZM18 11.25C16.0109 11.25 14.1032 12.0402 12.6967 13.4467C11.2902 14.8532 10.5 16.7609 10.5 18.75C10.5 20.7391 11.2902 22.6468 12.6967 24.0533C14.1032 25.4598 16.0109 26.25 18 26.25C19.9891 26.25 21.8968 25.4598 23.3033 24.0533C24.7098 22.6468 25.5 20.7391 25.5 18.75C25.5 16.7609 24.7098 14.8532 23.3033 13.4467C21.8968 12.0402 19.9891 11.25 18 11.25ZM0 18.7515C0 8.8095 8.0595 0.75 18.0015 0.75C27.9435 0.75 36.0045 8.8095 36.0045 18.7515C36.0045 28.6935 27.945 36.7545 18.0015 36.7545C8.0595 36.7545 0 28.6965 0 18.7515ZM18.0015 3.75C9.717 3.75 3 10.467 3 18.7515C3 27.0375 9.717 33.7545 18.0015 33.7545C26.2875 33.7545 33.0045 27.0375 33.0045 18.7515C33.0045 10.467 26.289 3.75 18.0015 3.75Z" fill="#DD6E20"/>
</svg>
