<svg width="26" height="25" viewBox="0 0 26 25" fill="none" xmlns="http://www.w3.org/2000/svg">
<path d="M24.625 24.125H1.37504C0.661679 24.125 0.083374 23.5467 0.083374 22.8333V13.1288C0.083374 12.7555 0.244845 12.4004 0.526183 12.1551L5.25004 8.03645V2.16667C5.25004 1.4533 5.82835 0.875 6.54171 0.875H24.625C25.3384 0.875 25.9167 1.4533 25.9167 2.16667V22.8333C25.9167 23.5467 25.3384 24.125 24.625 24.125ZM9.12504 21.5417H13V13.7162L7.83337 9.21144L2.66671 13.7162V21.5417H6.54171V16.375H9.12504V21.5417ZM15.5834 21.5417H23.3334V3.45833H7.83337V6.20608C8.13619 6.20608 8.43901 6.31212 8.68223 6.52417L15.1406 12.1551C15.4219 12.4004 15.5834 12.7555 15.5834 13.1288V21.5417ZM18.1667 11.2083H20.75V13.7917H18.1667V11.2083ZM18.1667 16.375H20.75V18.9583H18.1667V16.375ZM18.1667 6.04167H20.75V8.625H18.1667V6.04167ZM13 6.04167H15.5834V8.625H13V6.04167Z" fill="#6B15D9"/>
</svg>
