<svg width="61" height="60" viewBox="0 0 61 60" fill="none" xmlns="http://www.w3.org/2000/svg">
<path d="M31.267 59.25H30.067C15.067 59.25 2.91699 46.95 2.91699 32.1V24C2.91699 11.25 13.417 0.75 26.167 0.75H35.467C48.217 0.75 58.717 11.25 58.717 24V32.1C58.567 46.95 46.267 59.25 31.267 59.25Z" fill="#FE9526"/>
<path d="M30.817 7.95078V29.7008H7.41699V17.2508L13.267 9.30078L23.467 4.80078" fill="#53D86A"/>
<path d="M30.8174 7.95078V29.7008H54.2174V17.2508L48.3674 9.30078L38.1674 4.80078" fill="#167FFC"/>
<path d="M30.8168 7.65007L25.1168 5.40007C24.2168 4.65007 23.0168 4.65008 21.9668 5.10008L13.8668 9.15007C13.2668 9.30007 12.9668 9.60007 12.5168 10.0501L7.7168 16.3501C7.2668 16.9501 6.9668 17.7001 6.9668 18.4501V29.8501H54.6668V18.4501C54.6668 17.7001 54.3668 16.9501 53.9168 16.3501L49.1168 10.0501C48.8168 9.60007 48.3668 9.30008 47.9168 9.00008L39.8168 5.10008C38.7668 4.65008 37.5668 4.65007 36.6668 5.40007L30.8168 7.65007Z" stroke="#020202" stroke-width="1.282" stroke-miterlimit="10" stroke-linecap="round" stroke-linejoin="round"/>
<path d="M20.0172 43.6516C22.1711 43.6516 23.9172 41.9055 23.9172 39.7516C23.9172 37.5977 22.1711 35.8516 20.0172 35.8516C17.8633 35.8516 16.1172 37.5977 16.1172 39.7516C16.1172 41.9055 17.8633 43.6516 20.0172 43.6516Z" fill="#53D86A" stroke="#020202" stroke-width="1.185" stroke-miterlimit="10"/>
<path d="M41.4674 43.6516C43.6213 43.6516 45.3674 41.9055 45.3674 39.7516C45.3674 37.5977 43.6213 35.8516 41.4674 35.8516C39.3135 35.8516 37.5674 37.5977 37.5674 39.7516C37.5674 41.9055 39.3135 43.6516 41.4674 43.6516Z" fill="#53D86A" stroke="#020202" stroke-width="1.185" stroke-miterlimit="10"/>
<path d="M30.8168 24.45C32.3908 24.45 33.6668 23.174 33.6668 21.6C33.6668 20.026 32.3908 18.75 30.8168 18.75C29.2428 18.75 27.9668 20.026 27.9668 21.6C27.9668 23.174 29.2428 24.45 30.8168 24.45Z" fill="#167FFC" stroke="#020202" stroke-width="1.025" stroke-miterlimit="10"/>
<path d="M30.8174 7.64844V18.4484" stroke="#020202" stroke-width="1.025" stroke-miterlimit="10"/>
<path d="M39.667 16.6484C40.9096 16.6484 41.917 15.6411 41.917 14.3984C41.917 13.1558 40.9096 12.1484 39.667 12.1484C38.4244 12.1484 37.417 13.1558 37.417 14.3984C37.417 15.6411 38.4244 16.6484 39.667 16.6484Z" stroke="#020202" stroke-width="0.996" stroke-miterlimit="10"/>
<path d="M47.3174 23.1016C48.56 23.1016 49.5674 22.0942 49.5674 20.8516C49.5674 19.6089 48.56 18.6016 47.3174 18.6016C46.0747 18.6016 45.0674 19.6089 45.0674 20.8516C45.0674 22.0942 46.0747 23.1016 47.3174 23.1016Z" stroke="#020202" stroke-width="0.996" stroke-miterlimit="10"/>
<path d="M44.0168 7.94922L40.7168 12.4492M49.2668 19.7992L53.9168 17.6992" stroke="#020202" stroke-width="0.83" stroke-miterlimit="10"/>
<path d="M21.667 16.6484C22.9096 16.6484 23.917 15.6411 23.917 14.3984C23.917 13.1558 22.9096 12.1484 21.667 12.1484C20.4244 12.1484 19.417 13.1558 19.417 14.3984C19.417 15.6411 20.4244 16.6484 21.667 16.6484Z" fill="#167FFC" stroke="#020202" stroke-width="0.996" stroke-miterlimit="10"/>
<path d="M14.1668 22.7984C15.2438 22.7984 16.1168 21.9254 16.1168 20.8484C16.1168 19.7715 15.2438 18.8984 14.1668 18.8984C13.0898 18.8984 12.2168 19.7715 12.2168 20.8484C12.2168 21.9254 13.0898 22.7984 14.1668 22.7984Z" fill="#167FFC" stroke="#020202" stroke-width="0.83" stroke-miterlimit="10"/>
<path d="M17.467 7.94922L20.617 12.4492M7.41699 17.6992L12.217 19.7992" stroke="#020202" stroke-width="0.83" stroke-miterlimit="10"/>
<path d="M35.767 52.9508H25.717C25.117 52.9508 24.667 52.5008 24.667 51.9008V51.6008C24.667 51.0008 25.117 50.5508 25.717 50.5508H35.767C36.367 50.5508 36.817 51.0008 36.817 51.6008V51.9008C36.817 52.5008 36.367 52.9508 35.767 52.9508Z" fill="#595BD4"/>
</svg>
