<svg width="61" height="60" viewBox="0 0 61 60" fill="none" xmlns="http://www.w3.org/2000/svg">
<path d="M30.3705 20.625H30.333C17.7143 20.625 7.83301 25.1531 7.83301 30.9375C7.83301 36.7125 17.6955 41.2406 30.2955 41.25H30.333C42.9518 41.25 52.833 36.7219 52.833 30.9375C52.833 25.1625 42.9705 20.6344 30.3705 20.625ZM36.8674 38.9156C34.7031 39.2251 32.5193 39.3786 30.333 39.375C28.1467 39.3786 25.9629 39.2251 23.7986 38.9156C15.6986 37.7719 9.70801 34.5844 9.70801 30.9375C9.70801 27.2906 15.6986 24.1031 23.7893 22.9594C23.7943 22.9543 23.8009 22.951 23.808 22.95C25.9699 22.6481 28.1502 22.4977 30.333 22.5H30.3986C32.5632 22.4963 34.7251 22.6498 36.8674 22.9594C44.9674 24.1031 50.958 27.2906 50.958 30.9375C50.958 34.5844 44.9674 37.7719 36.8674 38.9156Z" fill="#595BD4"/>
<path d="M36.8674 22.9594C35.0362 21.4546 32.7407 20.6298 30.3705 20.625H30.333C27.9552 20.6254 25.6503 21.4467 23.808 22.95C23.8009 22.951 23.7943 22.9543 23.7893 22.9594C23.6955 23.0437 23.5924 23.1281 23.4986 23.2125C23.3611 23.3374 23.2629 23.4997 23.2163 23.6796C23.1697 23.8594 23.1766 24.049 23.2361 24.225C23.2976 24.4004 23.4097 24.5537 23.5582 24.6654C23.7067 24.7772 23.8849 24.8425 24.0705 24.8531C24.7358 24.8912 25.3722 25.1383 25.889 25.5591C26.4057 25.9799 26.7766 26.553 26.9486 27.1969C26.9393 27.2062 26.9486 27.225 26.958 27.2437C27.0226 27.4948 27.0541 27.7533 27.0518 28.0125C27.0528 28.582 26.8989 29.1411 26.6066 29.6299C26.3143 30.1187 25.8946 30.5189 25.3924 30.7875C25.3397 30.8068 25.2894 30.832 25.2424 30.8625C24.8181 31.0661 24.3536 31.1718 23.883 31.1719C23.4625 31.1748 23.0459 31.0915 22.6589 30.927C22.2719 30.7625 21.9227 30.5204 21.633 30.2156C21.5006 30.0863 21.3327 29.9994 21.1507 29.966C20.9687 29.9326 20.7808 29.9542 20.6111 30.0281C20.4356 30.1068 20.2865 30.2344 20.1817 30.3957C20.077 30.557 20.021 30.7452 20.0205 30.9375C20.0205 33.6661 21.1018 36.2834 23.0277 38.2163C24.9536 40.1492 27.567 41.2401 30.2955 41.25H30.333C32.4598 41.25 34.5346 40.5925 36.2731 39.3674C38.0117 38.1424 39.3289 36.4097 40.0445 34.4069C40.76 32.4041 40.8387 30.229 40.27 28.1797C39.7012 26.1303 38.5128 24.307 36.8674 22.9594ZM28.9268 28.0125C28.927 27.8371 28.9176 27.6619 28.8986 27.4875C29.3492 27.2842 29.8387 27.1819 30.333 27.1875C31.0233 27.187 31.7003 27.377 32.2895 27.7366C32.8787 28.0962 33.3572 28.6115 33.6723 29.2257C33.9874 29.8398 34.1269 30.5291 34.0754 31.2174C34.0239 31.9058 33.7833 32.5666 33.3803 33.127C32.9773 33.6874 32.4274 34.1257 31.7912 34.3936C31.155 34.6615 30.4573 34.7486 29.7748 34.6453C29.0922 34.542 28.4515 34.2523 27.9231 33.8082C27.3946 33.3641 26.999 32.7827 26.7799 32.1281C27.4417 31.6647 27.9823 31.0488 28.3559 30.3325C28.7296 29.6162 28.9254 28.8204 28.9268 28.0125Z" fill="#595BD4"/>
<path d="M13.4176 15.0414L12.0918 16.3672L15.6072 19.8826L16.933 18.5568L13.4176 15.0414Z" fill="#595BD4"/>
<path d="M47.2478 15.0393L43.7324 18.5547L45.0582 19.8805L48.5737 16.3651L47.2478 15.0393Z" fill="#595BD4"/>
<path d="M31.2705 12.1875H29.3955V16.875H31.2705V12.1875Z" fill="#595BD4"/>
</svg>
