<svg width="66" height="66" viewBox="0 0 66 66" fill="none" xmlns="http://www.w3.org/2000/svg">
<path d="M58.7812 2.0625H7.21875C4.3725 2.0625 2.0625 4.3725 2.0625 7.21875V38.1562C2.0625 41.0025 4.3725 43.3125 7.21875 43.3125H17.5725C18.1397 43.3125 18.6038 42.8484 18.6038 42.2812C18.6038 41.7141 18.1397 41.25 17.5725 41.25H10.3125V4.125H55.6875V41.25H48.4275C47.8603 41.25 47.3962 41.7141 47.3962 42.2812C47.3962 42.8484 47.8603 43.3125 48.4275 43.3125H58.7812C61.6275 43.3125 63.9375 41.0025 63.9375 38.1562V7.21875C63.9375 4.3725 61.6275 2.0625 58.7812 2.0625Z" fill="#595BD4"/>
<path d="M46.7466 51.8616C46.3444 51.4594 45.6844 51.4594 45.2822 51.8616L44.1478 53.0063L42.4359 51.2944C44.2716 49.1391 45.375 46.3547 45.375 43.3125C45.375 36.4856 39.8269 30.9375 33 30.9375C26.1731 30.9375 20.625 36.4856 20.625 43.3125C20.625 50.1394 26.1731 55.6875 33 55.6875C36.0422 55.6875 38.8266 54.5841 40.9819 52.7484L42.6938 54.4603L41.5491 55.5947C41.3634 55.7906 41.25 56.0484 41.25 56.3269C41.25 56.6053 41.3634 56.8631 41.5491 57.0591L48.1284 63.6384C48.3347 63.8344 48.5925 63.9375 48.8606 63.9375C49.1288 63.9375 49.3866 63.8344 49.5928 63.6384L53.3259 59.9053C53.5116 59.7094 53.625 59.4516 53.625 59.1731C53.625 58.8947 53.5116 58.6369 53.3259 58.4409L46.7466 51.8616ZM33 53.625C27.3178 53.625 22.6875 48.9947 22.6875 43.3125C22.6875 37.6303 27.3178 33 33 33C38.6822 33 43.3125 37.6303 43.3125 43.3125C43.3125 48.9947 38.6822 53.625 33 53.625Z" fill="#595BD4"/>
<path d="M39.1051 38.7956C38.9504 38.4141 38.5688 38.1562 38.1563 38.1562H34.0313C33.4641 38.1562 33.0001 38.6203 33.0001 39.1875C33.0001 39.7547 33.4641 40.2188 34.0313 40.2188H35.671L33.0001 42.8897L31.6698 41.5594C31.2676 41.1572 30.6179 41.1572 30.2157 41.5594L26.0907 45.6844C25.6885 46.0866 25.6885 46.7362 26.0907 47.1384C26.297 47.3447 26.5548 47.4375 26.8229 47.4375C27.091 47.4375 27.3488 47.3344 27.5551 47.1384L30.9479 43.7456L32.2782 45.0759C32.6804 45.4781 33.3301 45.4781 33.7323 45.0759L37.1251 41.6831V43.3228C37.1251 43.89 37.5891 44.3541 38.1563 44.3541C38.7235 44.3541 39.1876 43.89 39.1876 43.3228V39.1978C39.1876 39.0637 39.167 38.9297 39.1154 38.8059L39.1051 38.7956Z" fill="#595BD4"/>
<path d="M30.9375 12.375H26.8125C26.243 12.375 25.7812 12.8367 25.7812 13.4062V27.8438C25.7812 28.4133 26.243 28.875 26.8125 28.875H30.9375C31.507 28.875 31.9688 28.4133 31.9688 27.8438V13.4062C31.9688 12.8367 31.507 12.375 30.9375 12.375Z" fill="#595BD4"/>
<path d="M39.1875 16.5H35.0625C34.493 16.5 34.0312 16.9617 34.0312 17.5312V27.8438C34.0312 28.4133 34.493 28.875 35.0625 28.875H39.1875C39.757 28.875 40.2188 28.4133 40.2188 27.8438V17.5312C40.2188 16.9617 39.757 16.5 39.1875 16.5Z" fill="#595BD4"/>
<path d="M47.4375 8.25H43.3125C42.743 8.25 42.2812 8.71171 42.2812 9.28125V27.8438C42.2812 28.4133 42.743 28.875 43.3125 28.875H47.4375C48.007 28.875 48.4688 28.4133 48.4688 27.8438V9.28125C48.4688 8.71171 48.007 8.25 47.4375 8.25Z" fill="#595BD4"/>
<path d="M22.6875 18.5625H18.5625C17.993 18.5625 17.5312 19.0242 17.5312 19.5938V27.8438C17.5312 28.4133 17.993 28.875 18.5625 28.875H22.6875C23.257 28.875 23.7188 28.4133 23.7188 27.8438V19.5938C23.7188 19.0242 23.257 18.5625 22.6875 18.5625Z" fill="#595BD4"/>
</svg>
