<svg width="66" height="66" viewBox="0 0 66 66" fill="none" xmlns="http://www.w3.org/2000/svg">
<path d="M60.8438 39.1875H54.6562C54.0375 39.1875 53.625 38.775 53.625 38.1562C53.625 37.5375 54.0375 37.125 54.6562 37.125H60.8438C61.4625 37.125 61.875 37.5375 61.875 38.1562C61.875 38.775 61.4625 39.1875 60.8438 39.1875ZM58.7812 43.3125H54.6562C54.0375 43.3125 53.625 42.9 53.625 42.2812C53.625 41.6625 54.0375 41.25 54.6562 41.25H58.7812C59.4 41.25 59.8125 41.6625 59.8125 42.2812C59.8125 42.9 59.4 43.3125 58.7812 43.3125ZM17.5312 8.25H5.15625C4.5375 8.25 4.125 7.8375 4.125 7.21875C4.125 6.6 4.5375 6.1875 5.15625 6.1875H17.5312C18.15 6.1875 18.5625 6.6 18.5625 7.21875C18.5625 7.8375 18.15 8.25 17.5312 8.25ZM13.4062 12.375H5.15625C4.5375 12.375 4.125 11.9625 4.125 11.3438C4.125 10.725 4.5375 10.3125 5.15625 10.3125H13.4062C14.025 10.3125 14.4375 10.725 14.4375 11.3438C14.4375 11.9625 14.025 12.375 13.4062 12.375ZM30.9375 50.1187H30.525C29.9062 49.9125 23.925 47.025 23.925 43.1063V38.775C23.925 38.1562 24.3375 37.7437 24.9563 37.7437C25.575 37.7437 25.9875 38.1562 25.9875 38.775V43.1063C25.9875 45.1688 29.2875 47.2312 30.9375 48.0562C32.5875 47.2312 35.8875 45.1688 35.8875 43.1063V38.775C35.8875 38.1562 36.3 37.7437 36.9188 37.7437C37.5375 37.7437 37.95 38.1562 37.95 38.775V43.1063C37.95 47.025 31.9688 49.7062 31.35 50.1187C31.1437 49.9125 31.1437 50.1187 30.9375 50.1187Z" fill="#595BD4"/>
<path d="M30.9375 41.2492C24.1313 41.2492 18.5625 35.6805 18.5625 28.8742V24.543C18.5625 23.9242 18.975 23.5117 19.5938 23.5117C20.2125 23.5117 20.625 23.9242 20.625 24.543V28.8742C20.625 34.6492 25.1625 39.1867 30.9375 39.1867C36.7125 39.1867 41.25 34.6492 41.25 28.8742V24.543C41.25 23.9242 41.6625 23.5117 42.2812 23.5117C42.9 23.5117 43.3125 23.9242 43.3125 24.543V28.8742C43.3125 35.6805 37.7437 41.2492 30.9375 41.2492ZM52.5938 63.9367H9.28125C8.6625 63.9367 8.25 63.5242 8.25 62.9055V55.2742C8.25 51.1492 10.9312 47.4367 14.85 45.993L24.5437 42.693C25.1625 42.4867 25.575 42.8992 25.7812 43.3117C25.9875 43.7242 25.575 44.343 25.1625 44.5492L15.4688 47.8492C12.375 49.0867 10.3125 51.9742 10.3125 55.2742V61.8742H51.5625V55.2742C51.5625 51.9742 49.5 49.0867 46.4062 48.0555L36.7125 44.7555C36.0937 44.5492 35.8875 43.9305 36.0938 43.518C36.3 42.8992 36.9188 42.693 37.3313 42.8992L47.025 46.1992C50.9437 47.4367 53.625 51.1492 53.625 55.4805V63.1117C53.625 63.5242 53.2125 63.9367 52.5938 63.9367Z" fill="#595BD4"/>
<path d="M52.5938 63.9375H42.2812C41.6625 63.9375 41.25 63.525 41.25 62.9062V61.2563C41.25 55.4813 45.5812 50.5313 51.3563 49.9125C51.7687 49.9125 52.1812 50.1187 52.3875 50.325C53.2125 51.7687 53.8312 53.625 53.8312 55.275V62.9062C53.625 63.525 53.2125 63.9375 52.5938 63.9375ZM43.3125 61.875H51.5625V55.275C51.5625 54.2437 51.3563 53.0063 50.7375 51.975C46.4062 52.8 43.1063 56.7188 43.1063 61.2563V61.875H43.3125ZM19.5938 63.9375H9.28125C8.6625 63.9375 8.25 63.525 8.25 62.9062V55.275C8.25 53.625 8.6625 51.7687 9.69375 50.325C9.9 49.9125 10.3125 49.7063 10.725 49.9125C16.5 50.5313 20.8313 55.4813 20.8313 61.2563V62.9062C20.625 63.525 20.2125 63.9375 19.5938 63.9375ZM10.3125 61.875H18.5625V61.2563C18.5625 56.7188 15.2625 53.0063 10.9313 51.975C10.5188 53.0063 10.3125 54.2437 10.3125 55.275V61.875ZM30.9375 50.1187H30.525C29.9062 49.9125 23.925 47.025 23.925 43.1062V38.775C23.925 38.1562 24.3375 37.7437 24.9563 37.7437C25.575 37.7437 25.9875 38.1562 25.9875 38.775V43.1062C25.9875 45.1687 29.2875 47.2312 30.9375 48.0562C32.5875 47.2312 35.8875 45.1687 35.8875 43.1062V38.775C35.8875 38.1562 36.3 37.7437 36.9187 37.7437C37.5375 37.7437 37.95 38.1562 37.95 38.775V43.1062C37.95 47.025 31.9688 49.7062 31.35 50.1187C31.1437 49.9125 31.1437 50.1187 30.9375 50.1187ZM19.5938 30.9375H17.5312C15.8812 30.9375 14.4375 29.4938 14.4375 27.8438V25.7812C14.4375 24.1313 15.8812 22.6875 17.5312 22.6875H18.5625C19.1812 22.6875 19.5938 23.1 19.5938 23.7188C19.5938 24.3375 19.1812 24.75 18.5625 24.75H17.5312C16.9125 24.75 16.5 25.1625 16.5 25.7812V27.8438C16.5 28.4625 16.9125 28.875 17.5312 28.875H18.5625V26.8125C18.5625 26.1937 18.975 25.7812 19.5938 25.7812C20.2125 25.7812 20.625 26.1937 20.625 26.8125V29.9062C20.625 30.525 20.2125 30.9375 19.5938 30.9375ZM44.3438 30.9375H42.2812C41.6625 30.9375 41.25 30.525 41.25 29.9062V26.8125C41.25 26.1937 41.6625 25.7812 42.2812 25.7812C42.9 25.7812 43.3125 26.1937 43.3125 26.8125V28.875H44.3438C44.9625 28.875 45.375 28.4625 45.375 27.8438V25.7812C45.375 25.1625 44.9625 24.75 44.3438 24.75H42.2812C41.6625 24.75 41.25 24.3375 41.25 23.7188C41.25 23.1 41.6625 22.6875 42.2812 22.6875H44.3438C45.9938 22.6875 47.4375 24.1313 47.4375 25.7812V27.8438C47.4375 29.4938 45.9938 30.9375 44.3438 30.9375Z" fill="#595BD4"/>
<path d="M19.5938 24.75H17.5312C16.9125 24.75 16.5 24.3375 16.5 23.7188C16.5 23.1 16.9125 22.6875 17.5312 22.6875H19.5938C21.2438 22.6875 22.6875 21.2438 22.6875 19.5938V17.5312C22.6875 16.9125 23.1 16.5 23.7188 16.5C24.3375 16.5 24.75 16.9125 24.75 17.5312V19.5938C24.75 22.4812 22.4812 24.75 19.5938 24.75Z" fill="#595BD4"/>
<path d="M42.2812 24.75H27.8438C24.9562 24.75 22.6875 22.4813 22.6875 19.5938V17.5312C22.6875 16.9125 23.1 16.5 23.7188 16.5C24.3375 16.5 24.75 16.9125 24.75 17.5312V19.5938C24.75 21.2437 26.1938 22.6875 27.8438 22.6875H42.2812C42.9 22.6875 43.3125 23.1 43.3125 23.7188C43.3125 24.3375 42.9 24.75 42.2812 24.75ZM54.6562 26.8125H54.2437C53.8312 26.6063 53.625 26.1938 53.625 25.7812V22.6875H52.5938C50.9437 22.6875 49.5 21.2437 49.5 19.5938V5.15625C49.5 3.50625 50.9437 2.0625 52.5938 2.0625H60.8438C62.4938 2.0625 63.9375 3.50625 63.9375 5.15625V19.5938C63.9375 21.2437 62.4938 22.6875 60.8438 22.6875H59.1938L55.275 26.6062C55.275 26.6062 54.8625 26.8125 54.6562 26.8125ZM52.5938 4.125C51.975 4.125 51.5625 4.5375 51.5625 5.15625V19.5938C51.5625 20.2125 51.975 20.625 52.5938 20.625H54.6562C55.275 20.625 55.6875 21.0375 55.6875 21.6562V23.3062L57.9562 21.0375C58.1625 20.8312 58.3688 20.8313 58.7812 20.8313H60.8438C61.4625 20.8313 61.875 20.4188 61.875 19.8V5.3625C61.875 4.5375 61.4625 4.125 60.8438 4.125H52.5938ZM17.5312 20.625C17.325 20.625 17.1187 20.625 16.9125 20.4187L10.9313 16.5H3.09375C1.44375 16.5 0 15.0562 0 13.4062V5.15625C0 3.50625 1.44375 2.0625 3.09375 2.0625H19.5938C21.2437 2.0625 22.6875 3.50625 22.6875 5.15625V13.4062C22.6875 15.0562 21.2437 16.5 19.5938 16.5H18.5625V19.5938C18.5625 20.0063 18.3562 20.4187 17.9438 20.4187C17.9438 20.625 17.7375 20.625 17.5312 20.625ZM3.09375 4.125C2.475 4.125 2.0625 4.5375 2.0625 5.15625V13.4062C2.0625 14.025 2.475 14.4375 3.09375 14.4375H11.3438C11.55 14.4375 11.7563 14.4375 11.9625 14.6438L16.5 17.7375V15.4688C16.5 14.85 16.9125 14.4375 17.5312 14.4375H19.5938C20.2125 14.4375 20.625 14.025 20.625 13.4062V5.15625C20.625 4.5375 20.2125 4.125 19.5938 4.125H3.09375Z" fill="#595BD4"/>
<path d="M36.9187 43.1063C36.5062 43.1063 35.8875 42.6937 35.8875 42.2812C35.8875 41.6625 36.3 41.25 36.7125 41.0438C39.1875 40.8375 41.4563 40.2188 43.725 39.6L45.1687 39.1875V22.6875C45.1687 14.6438 38.775 8.25 30.7312 8.25C27.8437 8.25 24.9562 9.075 22.4812 10.9313V13.4062C22.6875 15.0562 21.2438 16.5 19.5938 16.5H18.5625V19.5938C18.5625 20.0063 18.3562 20.4187 17.9437 20.4187C17.7375 20.625 17.325 20.625 16.9125 20.4187L16.7063 20.2125C16.5 21.0375 16.5 21.8625 16.5 22.6875V39.3937L17.9437 39.8062C20.2125 40.425 22.6875 40.8375 24.9563 41.25C25.575 41.25 25.9875 41.8688 25.7812 42.4875C25.7812 43.1063 25.1625 43.5187 24.5437 43.3125C22.0687 43.1063 19.5938 42.4875 17.1188 41.8687L15.2625 41.25C14.85 41.0438 14.4375 40.6312 14.4375 40.2188V22.6875C14.4375 21.2437 14.6438 19.8 15.0563 18.3562C15.0563 17.9437 15.4687 17.7375 15.675 17.7375H16.5V15.4688C16.5 14.85 16.9125 14.4375 17.5312 14.4375H19.5938C20.2125 14.4375 20.625 14.025 20.625 13.4062V10.3125C20.625 9.9 20.8312 9.69375 21.0375 9.4875C23.925 7.425 27.4312 6.1875 30.9375 6.1875C40.0125 6.1875 47.4375 13.6125 47.4375 22.6875V40.2188C47.4375 40.6312 47.025 41.0438 46.6125 41.25L44.3438 41.8687C42.075 42.2812 39.6 42.9 36.9187 43.1063C37.125 43.1063 37.125 43.1063 36.9187 43.1063ZM62.9062 47.4375H52.5938C50.9437 47.4375 49.5 45.9938 49.5 44.3438V36.0938C49.5 34.4438 50.9437 33 52.5938 33H53.625V29.9062C53.625 29.4937 53.8312 29.0813 54.2437 29.0813C54.6562 28.875 55.0687 28.875 55.275 29.0813L61.2563 33H62.9062C64.5563 33 66 34.4438 66 36.0938V44.3438C66 45.9938 64.5563 47.4375 62.9062 47.4375ZM52.5938 35.0625C51.975 35.0625 51.5625 35.475 51.5625 36.0938V44.3438C51.5625 44.9625 51.975 45.375 52.5938 45.375H62.9062C63.525 45.375 63.9375 44.9625 63.9375 44.3438V36.0938C63.9375 35.475 63.525 35.0625 62.9062 35.0625H60.8438C60.6375 35.0625 60.4313 35.0625 60.225 34.8562L55.6875 31.7625V34.0312C55.6875 34.65 55.275 35.0625 54.6562 35.0625H52.5938ZM56.7188 14.4375C56.1 14.4375 55.6875 14.025 55.6875 13.4062V12.7875C55.6875 11.55 56.3063 10.725 57.1313 10.1063C57.5438 10.1063 57.75 9.69375 57.75 9.28125C57.75 8.6625 57.3375 8.25 56.7188 8.25C56.1 8.25 55.6875 8.6625 55.6875 9.28125C55.6875 9.9 55.275 10.3125 54.6562 10.3125C54.0375 10.3125 53.625 9.9 53.625 9.28125C53.625 7.63125 55.0687 6.1875 56.7188 6.1875C58.3688 6.1875 59.8125 7.63125 59.8125 9.28125C59.8125 10.5188 59.1938 11.55 58.1625 11.9625C57.9563 12.1688 57.75 12.375 57.75 12.7875V13.4062C57.75 14.025 57.3375 14.4375 56.7188 14.4375ZM56.7188 18.5625C56.1 18.5625 55.6875 18.15 55.6875 17.5312C55.6875 16.9125 56.1 16.5 56.7188 16.5C57.3375 16.5 57.75 16.9125 57.75 17.5312C57.75 18.15 57.3375 18.5625 56.7188 18.5625Z" fill="#595BD4"/>
</svg>
