<svg width="66" height="67" viewBox="0 0 66 67" fill="none" xmlns="http://www.w3.org/2000/svg">
<g clip-path="url(#clip0_8890_5193)">
<path d="M19.8867 20.8127C20.1602 20.8127 20.4225 20.7041 20.6159 20.5107C20.8093 20.3173 20.9179 20.055 20.9179 19.7815V6.19922H45.0822V19.7815C45.0822 20.055 45.1908 20.3173 45.3842 20.5107C45.5776 20.7041 45.8399 20.8127 46.1134 20.8127C46.3869 20.8127 46.6492 20.7041 46.8426 20.5107C47.036 20.3173 47.1447 20.055 47.1447 19.7815V6.10159C47.1439 5.5807 46.9367 5.08135 46.5684 4.71302C46.2 4.34469 45.7007 4.13745 45.1798 4.13672H20.8203C20.2994 4.13745 19.8001 4.34469 19.4317 4.71302C19.0634 5.08135 18.8562 5.5807 18.8554 6.10159V19.7815C18.8554 20.055 18.9641 20.3173 19.1575 20.5107C19.3509 20.7041 19.6132 20.8127 19.8867 20.8127ZM20.6553 27.0868H45.3448C46.0823 27.0902 46.7964 26.8281 47.3566 26.3484C47.9167 25.8687 48.2857 25.2035 48.3959 24.4743L48.6214 23.0237C48.6445 22.8767 48.6354 22.7264 48.5948 22.5832C48.5541 22.4399 48.483 22.3073 48.3861 22.1942C48.2893 22.0812 48.1691 21.9905 48.0338 21.9283C47.8985 21.8662 47.7514 21.8341 47.6026 21.8343H35.2001C35.0606 21.8341 34.9226 21.8621 34.7944 21.9168C34.2252 22.1488 33.6208 22.2827 33.0069 22.3128C32.5252 22.3056 32.0514 22.1895 31.6209 21.9732C31.4639 21.8822 31.2854 21.8347 31.1039 21.8357H18.3976C18.2487 21.8355 18.1016 21.8676 17.9663 21.9297C17.831 21.9918 17.7108 22.0825 17.614 22.1956C17.5172 22.3086 17.446 22.4413 17.4053 22.5845C17.3647 22.7277 17.3556 22.878 17.3787 23.0251L17.6042 24.4757C17.7147 25.2047 18.0838 25.8695 18.6439 26.3489C19.2041 26.8283 19.918 27.0902 20.6553 27.0868ZM30.8537 23.8955C31.5275 24.2042 32.2589 24.3672 33.0001 24.374C33.818 24.3511 34.6261 24.1893 35.3898 23.8955H46.3994L46.3582 24.1567C46.3215 24.3989 46.199 24.6198 46.0129 24.7791C45.8269 24.9384 45.5897 25.0254 45.3448 25.0243H20.6553C20.4104 25.0254 20.1732 24.9384 19.9872 24.7791C19.8011 24.6198 19.6786 24.3989 19.6419 24.1567L19.6007 23.8955H30.8537ZM2.52043 56.5916C2.79393 56.5916 3.05623 56.4829 3.24963 56.2895C3.44303 56.0961 3.55168 55.8338 3.55168 55.5603V41.9781H27.7159V55.5603C27.7159 55.8338 27.8246 56.0961 28.018 56.2895C28.2114 56.4829 28.4737 56.5916 28.7472 56.5916C29.0207 56.5916 29.283 56.4829 29.4764 56.2895C29.6698 56.0961 29.7784 55.8338 29.7784 55.5603V41.8791C29.7777 41.3586 29.5706 40.8596 29.2025 40.4915C28.8345 40.1234 28.3355 39.9163 27.8149 39.9156H3.45405C2.93328 39.916 2.43393 40.1229 2.06556 40.491C1.6972 40.8591 1.4899 41.3583 1.48918 41.8791V55.5603C1.48918 55.8338 1.59783 56.0961 1.79122 56.2895C1.98462 56.4829 2.24692 56.5916 2.52043 56.5916ZM30.2363 57.6105H17.8269C17.6881 57.611 17.5507 57.6391 17.4227 57.693C16.8535 57.9251 16.2491 58.059 15.6352 58.089C15.1539 58.0819 14.6805 57.9658 14.2506 57.7493C14.0929 57.6587 13.9141 57.6113 13.7322 57.6118H1.0313C0.882448 57.6116 0.735319 57.6437 0.600049 57.7058C0.464779 57.768 0.344585 57.8587 0.247744 57.9717C0.150904 58.0848 0.0797198 58.2174 0.0390956 58.3606C-0.00152858 58.5039 -0.0106273 58.6542 0.0124263 58.8012L0.237926 60.2532C0.348484 60.9825 0.717685 61.6478 1.27811 62.1274C1.83853 62.607 2.55278 62.8691 3.29043 62.8657H27.9772C28.7148 62.8691 29.4291 62.607 29.9895 62.1274C30.5499 61.6478 30.9191 60.9825 31.0297 60.2532L31.2552 58.8012C31.2782 58.6542 31.2691 58.5039 31.2285 58.3606C31.1879 58.2174 31.1167 58.0848 31.0199 57.9717C30.923 57.8587 30.8028 57.768 30.6676 57.7058C30.5323 57.6437 30.3852 57.6103 30.2363 57.6105ZM28.9988 59.9342C28.9622 60.1768 28.8395 60.398 28.6532 60.5576C28.4668 60.7171 28.2293 60.8043 27.9841 60.8032H3.29043C3.04513 60.8043 2.80763 60.7171 2.62132 60.5576C2.43501 60.398 2.31232 60.1768 2.27568 59.9342L2.23443 59.673H13.4874C14.161 59.9825 14.8926 60.1456 15.6338 60.1515C16.4522 60.1284 17.2607 59.9666 18.0249 59.673H29.0332L28.9988 59.9342ZM36.2217 41.8791V55.5603C36.2217 55.8338 36.3303 56.0961 36.5237 56.2895C36.7171 56.4829 36.9794 56.5916 37.2529 56.5916C37.5264 56.5916 37.7887 56.4829 37.9821 56.2895C38.1755 56.0961 38.2842 55.8338 38.2842 55.5603V41.9781H62.4484V55.5603C62.4484 55.8338 62.5571 56.0961 62.7505 56.2895C62.9439 56.4829 63.2062 56.5916 63.4797 56.5916C63.7532 56.5916 64.0155 56.4829 64.2089 56.2895C64.4023 56.0961 64.5109 55.8338 64.5109 55.5603V41.8791C64.5102 41.3583 64.3029 40.8591 63.9345 40.491C63.5662 40.1229 63.0668 39.916 62.5461 39.9156H38.1866C37.6658 39.916 37.1664 40.1229 36.7981 40.491C36.4297 40.8591 36.2224 41.3583 36.2217 41.8791ZM65.7525 57.9762C65.6557 57.8631 65.5355 57.7723 65.4002 57.7101C65.2649 57.6479 65.1177 57.6158 64.9688 57.616H52.5594C52.4205 57.6164 52.2831 57.6444 52.1552 57.6985C51.5859 57.9304 50.9816 58.0643 50.3677 58.0945C49.8864 58.0874 49.413 57.9713 48.9831 57.7548C48.8258 57.6644 48.6475 57.617 48.4661 57.6173H35.7638C35.6149 57.6171 35.4678 57.6492 35.3326 57.7113C35.1973 57.7734 35.0771 57.8642 34.9802 57.9772C34.8834 58.0903 34.8122 58.2229 34.7716 58.3661C34.731 58.5094 34.7219 58.6597 34.7449 58.8067L34.9704 60.2587C35.081 60.988 35.4502 61.6533 36.0106 62.1329C36.571 62.6125 37.2853 62.8746 38.0229 62.8712H62.7097C63.4473 62.8746 64.1616 62.6125 64.722 62.1329C65.2824 61.6533 65.6516 60.988 65.7622 60.2587L65.9877 58.8067C66.0108 58.6595 66.0018 58.5091 65.9612 58.3657C65.9206 58.2223 65.8494 58.0894 65.7525 57.9762ZM63.7244 59.9397C63.6878 60.1823 63.5651 60.4035 63.3788 60.5631C63.1925 60.7226 62.955 60.8098 62.7097 60.8087H38.0229C37.7776 60.8098 37.5401 60.7226 37.3538 60.5631C37.1675 60.4035 37.0448 60.1823 37.0082 59.9397L36.9669 59.6785H48.2199C48.8935 59.9878 49.6251 60.1509 50.3663 60.157C51.1847 60.1339 51.9932 59.9721 52.7574 59.6785H63.7657L63.7244 59.9397ZM49.3351 37.7857C49.3351 38.0592 49.4437 38.3215 49.6371 38.5149C49.8305 38.7083 50.0928 38.817 50.3663 38.817C50.6398 38.817 50.9021 38.7083 51.0955 38.5149C51.2889 38.3215 51.3976 38.0592 51.3976 37.7857V34.1172C51.3976 33.8437 51.2889 33.5814 51.0955 33.388C50.9021 33.1946 50.6398 33.086 50.3663 33.086H33.9144V29.2662C33.9144 28.9927 33.8058 28.7304 33.6124 28.537C33.419 28.3436 33.1567 28.235 32.8832 28.235C32.6097 28.235 32.3474 28.3436 32.154 28.537C31.9606 28.7304 31.8519 28.9927 31.8519 29.2662V33.0887H15.6338C15.3603 33.0887 15.098 33.1974 14.9046 33.3908C14.7112 33.5842 14.6026 33.8465 14.6026 34.12V37.7885C14.6026 37.9239 14.6292 38.058 14.6811 38.1831C14.7329 38.3082 14.8088 38.4219 14.9046 38.5177C15.0004 38.6134 15.114 38.6894 15.2392 38.7412C15.3643 38.793 15.4984 38.8197 15.6338 38.8197C15.7692 38.8197 15.9033 38.793 16.0284 38.7412C16.1536 38.6894 16.2672 38.6134 16.363 38.5177C16.4588 38.4219 16.5347 38.3082 16.5866 38.1831C16.6384 38.058 16.6651 37.9239 16.6651 37.7885V35.1512H49.3351V37.7857Z" fill="#595BD4"/>
<path d="M26.1824 19.6678C25.9089 19.6678 25.6466 19.5591 25.4532 19.3657C25.2598 19.1723 25.1512 18.91 25.1512 18.6365V13.868C25.1512 13.5945 25.2598 13.3322 25.4532 13.1388C25.6466 12.9454 25.9089 12.8368 26.1824 12.8368C26.4559 12.8368 26.7182 12.9454 26.9116 13.1388C27.105 13.3322 27.2137 13.5945 27.2137 13.868V18.6365C27.2137 18.91 27.105 19.1723 26.9116 19.3657C26.7182 19.5591 26.4559 19.6678 26.1824 19.6678ZM30.7282 19.6678C30.4547 19.6678 30.1924 19.5591 29.999 19.3657C29.8056 19.1723 29.6969 18.91 29.6969 18.6365V15.2306C29.6969 14.9571 29.8056 14.6948 29.999 14.5014C30.1924 14.308 30.4547 14.1994 30.7282 14.1994C31.0017 14.1994 31.264 14.308 31.4574 14.5014C31.6508 14.6948 31.7594 14.9571 31.7594 15.2306V18.6365C31.7594 18.91 31.6508 19.1723 31.4574 19.3657C31.264 19.5591 31.0017 19.6678 30.7282 19.6678ZM35.2712 19.6911C34.9977 19.6911 34.7354 19.5825 34.542 19.3891C34.3486 19.1957 34.2399 18.9334 34.2399 18.6599V10.9063C34.2399 10.6327 34.3486 10.3704 34.542 10.177C34.7354 9.98365 34.9977 9.875 35.2712 9.875C35.5447 9.875 35.807 9.98365 36.0004 10.177C36.1938 10.3704 36.3024 10.6327 36.3024 10.9063V18.6599C36.3024 18.9334 36.1938 19.1957 36.0004 19.3891C35.807 19.5825 35.5447 19.6911 35.2712 19.6911ZM39.8169 19.6911C39.5434 19.6911 39.2811 19.5825 39.0877 19.3891C38.8943 19.1957 38.7857 18.9334 38.7857 18.6599V13.5064C38.7857 13.2329 38.8943 12.9706 39.0877 12.7772C39.2811 12.5838 39.5434 12.4751 39.8169 12.4751C40.0904 12.4751 40.3527 12.5838 40.5461 12.7772C40.7395 12.9706 40.8482 13.2329 40.8482 13.5064V18.6599C40.8482 18.9334 40.7395 19.1957 40.5461 19.3891C40.3527 19.5825 40.0904 19.6911 39.8169 19.6911ZM8.79004 55.5016C8.51653 55.5016 8.25423 55.393 8.06084 55.1996C7.86744 55.0062 7.75879 54.7439 7.75879 54.4704V49.7005C7.75879 49.427 7.86744 49.1647 8.06084 48.9713C8.25423 48.7779 8.51653 48.6693 8.79004 48.6693C9.06354 48.6693 9.32585 48.7779 9.51924 48.9713C9.71264 49.1647 9.82129 49.427 9.82129 49.7005V54.469C9.82147 54.6045 9.79493 54.7388 9.74318 54.8641C9.69144 54.9893 9.61551 55.1032 9.51973 55.1991C9.42395 55.295 9.31021 55.3711 9.185 55.423C9.05979 55.4749 8.92558 55.5016 8.79004 55.5016ZM13.3372 55.5016C13.0637 55.5016 12.8014 55.393 12.608 55.1996C12.4146 55.0062 12.3059 54.7439 12.3059 54.4704V51.0631C12.3059 50.7896 12.4146 50.5273 12.608 50.3339C12.8014 50.1405 13.0637 50.0319 13.3372 50.0319C13.6107 50.0319 13.873 50.1405 14.0664 50.3339C14.2598 50.5273 14.3684 50.7896 14.3684 51.0631V54.469C14.3686 54.6045 14.3421 54.7388 14.2903 54.8641C14.2386 54.9893 14.1626 55.1032 14.0669 55.1991C13.9711 55.295 13.8573 55.3711 13.7321 55.423C13.6069 55.4749 13.4727 55.5016 13.3372 55.5016ZM17.8747 55.5236C17.6012 55.5236 17.3389 55.415 17.1455 55.2216C16.9521 55.0282 16.8434 54.7659 16.8434 54.4924V46.7388C16.8434 46.4652 16.9521 46.2029 17.1455 46.0095C17.3389 45.8162 17.6012 45.7075 17.8747 45.7075C18.1482 45.7075 18.4105 45.8162 18.6039 46.0095C18.7973 46.2029 18.9059 46.4652 18.9059 46.7388V54.4924C18.9059 54.7659 18.7973 55.0282 18.6039 55.2216C18.4105 55.415 18.1482 55.5236 17.8747 55.5236ZM22.4218 55.5236C22.1483 55.5236 21.886 55.415 21.6926 55.2216C21.4992 55.0282 21.3905 54.7659 21.3905 54.4924V49.3403C21.3905 49.0667 21.4992 48.8044 21.6926 48.611C21.886 48.4177 22.1483 48.309 22.4218 48.309C22.6953 48.309 22.9576 48.4177 23.151 48.611C23.3444 48.8044 23.453 49.0667 23.453 49.3403V54.4924C23.453 54.7659 23.3444 55.0282 23.151 55.2216C22.9576 55.415 22.6953 55.5236 22.4218 55.5236ZM43.5775 55.5016C43.304 55.5016 43.0417 55.393 42.8483 55.1996C42.6549 55.0062 42.5463 54.7439 42.5463 54.4704V49.7005C42.5463 49.5651 42.573 49.431 42.6248 49.3059C42.6766 49.1807 42.7526 49.0671 42.8483 48.9713C42.9441 48.8755 43.0578 48.7996 43.1829 48.7478C43.308 48.6959 43.4421 48.6693 43.5775 48.6693C43.713 48.6693 43.8471 48.6959 43.9722 48.7478C44.0973 48.7996 44.211 48.8755 44.3067 48.9713C44.4025 49.0671 44.4785 49.1807 44.5303 49.3059C44.5821 49.431 44.6088 49.5651 44.6088 49.7005V54.469C44.609 54.6045 44.5824 54.7388 44.5307 54.8641C44.4789 54.9893 44.403 55.1032 44.3072 55.1991C44.2114 55.295 44.0977 55.3711 43.9725 55.423C43.8473 55.4749 43.7131 55.5016 43.5775 55.5016ZM48.1247 55.5016C47.8512 55.5016 47.5889 55.393 47.3955 55.1996C47.2021 55.0062 47.0934 54.7439 47.0934 54.4704V51.0631C47.0934 50.7896 47.2021 50.5273 47.3955 50.3339C47.5889 50.1405 47.8512 50.0319 48.1247 50.0319C48.3982 50.0319 48.6605 50.1405 48.8539 50.3339C49.0473 50.5273 49.1559 50.7896 49.1559 51.0631V54.469C49.1561 54.6045 49.1296 54.7388 49.0778 54.8641C49.0261 54.9893 48.9501 55.1032 48.8544 55.1991C48.7586 55.295 48.6448 55.3711 48.5196 55.423C48.3944 55.4749 48.2602 55.5016 48.1247 55.5016ZM52.6622 55.5236C52.3887 55.5236 52.1264 55.415 51.933 55.2216C51.7396 55.0282 51.6309 54.7659 51.6309 54.4924V46.7388C51.6309 46.4652 51.7396 46.2029 51.933 46.0095C52.1264 45.8162 52.3887 45.7075 52.6622 45.7075C52.9357 45.7075 53.198 45.8162 53.3914 46.0095C53.5848 46.2029 53.6934 46.4652 53.6934 46.7388V54.4924C53.6934 54.7659 53.5848 55.0282 53.3914 55.2216C53.198 55.415 52.9357 55.5236 52.6622 55.5236ZM57.2093 55.5236C56.9358 55.5236 56.6735 55.415 56.4801 55.2216C56.2867 55.0282 56.178 54.7659 56.178 54.4924V49.3403C56.178 49.0667 56.2867 48.8044 56.4801 48.611C56.6735 48.4177 56.9358 48.309 57.2093 48.309C57.4828 48.309 57.7451 48.4177 57.9385 48.611C58.1319 48.8044 58.2405 49.0667 58.2405 49.3403V54.4924C58.2405 54.7659 58.1319 55.0282 57.9385 55.2216C57.7451 55.415 57.4828 55.5236 57.2093 55.5236Z" fill="#595BD4"/>
</g>
<defs>
<clipPath id="clip0_8890_5193">
<rect width="66" height="66" fill="white" transform="translate(0 0.5)"/>
</clipPath>
</defs>
</svg>
