<svg width="24" height="24" viewBox="0 0 24 24" fill="none" xmlns="http://www.w3.org/2000/svg">
<path d="M16.5 13V11C16.5 10.4696 16.2893 9.96086 15.9142 9.58579C15.5391 9.21071 15.0304 9 14.5 9L14.455 8.87C14.3228 8.4717 14.0687 8.12508 13.7286 7.8792C13.3885 7.63333 12.9797 7.50067 12.56 7.5H10C9.33696 7.5 8.70107 7.76339 8.23223 8.23223C7.76339 8.70107 7.5 9.33696 7.5 10V13H16.5Z" fill="url(#paint0_linear_8890_5216)"/>
<path d="M19.5 20.56V23.5H4.5V20.56C4.49922 20.116 4.64621 19.6844 4.91779 19.3331C5.18937 18.9819 5.57011 18.731 6 18.62L10.5 17.5H13.5L18 18.62C18.4299 18.731 18.8106 18.9819 19.0822 19.3331C19.3538 19.6844 19.5008 20.116 19.5 20.56Z" fill="url(#paint1_linear_8890_5216)"/>
<path d="M14 18H10V23.5H14V18Z" fill="#167FFC"/>
<path d="M12 19.5C11.6022 19.5 11.2206 19.342 10.9393 19.0607C10.658 18.7794 10.5 18.3978 10.5 18V17.5H13.5V18C13.5 18.3978 13.342 18.7794 13.0607 19.0607C12.7794 19.342 12.3978 19.5 12 19.5Z" fill="url(#paint2_linear_8890_5216)"/>
<path d="M10.5 17.5L12 19.5L10.5 20.5V17.5Z" fill="#4791EA"/>
<path d="M13.5 17.5L12 19.5L13.5 20.5V17.5Z" fill="#4791EA"/>
<path d="M9.835 17.725L8.5 19.5L9.5 20.5L8 22L9.5 23.5H10.5V17.5L9.835 17.725Z" fill="#595BD4"/>
<path d="M16 22L14.5 23.5H13.5V17.5L14.165 17.725L15.5 19.5L14.5 20.5L16 22Z" fill="#595BD4"/>
<path d="M15.5 11.5V14.5C15.5 15.4283 15.1313 16.3185 14.4749 16.9749C13.8185 17.6313 12.9283 18 12 18C11.0717 18 10.1815 17.6313 9.52513 16.9749C8.86875 16.3185 8.5 15.4283 8.5 14.5V11.5H10.465C11.64 11.5 12.285 11 13 10.5C13.3274 10.8272 13.7177 11.0845 14.1474 11.2564C14.5772 11.4283 15.0373 11.5112 15.5 11.5Z" fill="url(#paint3_linear_8890_5216)"/>
<path d="M7.75 14.5H8.5V12H7.75C7.41848 12 7.10054 12.1317 6.86612 12.3661C6.6317 12.6005 6.5 12.9185 6.5 13.25C6.5 13.5815 6.6317 13.8995 6.86612 14.1339C7.10054 14.3683 7.41848 14.5 7.75 14.5Z" fill="url(#paint4_linear_8890_5216)"/>
<path d="M16.25 14.5H15.5V12H16.25C16.5815 12 16.8995 12.1317 17.1339 12.3661C17.3683 12.6005 17.5 12.9185 17.5 13.25C17.5 13.5815 17.3683 13.8995 17.1339 14.1339C16.8995 14.3683 16.5815 14.5 16.25 14.5Z" fill="url(#paint5_linear_8890_5216)"/>
<path d="M11.1451 16.354C11.0509 16.2598 10.998 16.1321 10.998 15.999C10.998 15.8658 11.0509 15.7381 11.1451 15.644C11.2392 15.5498 11.3669 15.4969 11.5001 15.4969C11.6332 15.4969 11.7609 15.5498 11.8551 15.644C11.8741 15.663 11.8967 15.6782 11.9216 15.6885C11.9465 15.6988 11.9732 15.7041 12.0001 15.7041C12.027 15.7041 12.0537 15.6988 12.0786 15.6885C12.1035 15.6782 12.1261 15.663 12.1451 15.644C12.1916 15.5971 12.2469 15.5599 12.3078 15.5345C12.3687 15.5092 12.4341 15.4961 12.5001 15.4961C12.5661 15.4961 12.6315 15.5092 12.6924 15.5345C12.7533 15.5599 12.8086 15.5971 12.8551 15.644C13.5001 16.279 12.0251 17.234 11.1451 16.354Z" fill="#B4B5E1"/>
<path d="M5.5 7.5C7.433 7.5 9 5.933 9 4C9 2.067 7.433 0.5 5.5 0.5C3.567 0.5 2 2.067 2 4C2 5.933 3.567 7.5 5.5 7.5Z" fill="url(#paint6_linear_8890_5216)"/>
<path d="M18.5 7.5C20.433 7.5 22 5.933 22 4C22 2.067 20.433 0.5 18.5 0.5C16.567 0.5 15 2.067 15 4C15 5.933 16.567 7.5 18.5 7.5Z" fill="url(#paint7_linear_8890_5216)"/>
<path d="M18.0001 5.49814C17.7301 5.49814 17.7151 5.42314 16.6451 4.35314C16.5985 4.30652 16.5615 4.25118 16.5363 4.19026C16.511 4.12935 16.498 4.06407 16.498 3.99814C16.498 3.93221 16.511 3.86693 16.5363 3.80602C16.5615 3.7451 16.5985 3.68976 16.6451 3.64314C16.6917 3.59652 16.7471 3.55954 16.808 3.53431C16.8689 3.50908 16.9342 3.49609 17.0001 3.49609C17.066 3.49609 17.1313 3.50908 17.1922 3.53431C17.2531 3.55954 17.3085 3.59652 17.3551 3.64314L18.0001 4.29314L19.6451 2.64314C19.6917 2.59652 19.7471 2.55954 19.808 2.53431C19.8689 2.50908 19.9342 2.49609 20.0001 2.49609C20.066 2.49609 20.1313 2.50908 20.1922 2.53431C20.2531 2.55954 20.3085 2.59652 20.3551 2.64314C20.4017 2.68976 20.4387 2.7451 20.4639 2.80602C20.4892 2.86693 20.5021 2.93221 20.5021 2.99814C20.5021 3.06407 20.4892 3.12935 20.4639 3.19026C20.4387 3.25118 20.4017 3.30652 20.3551 3.35314L18.3551 5.35314C18.3084 5.39948 18.253 5.43614 18.192 5.46102C18.1311 5.48591 18.0659 5.49852 18.0001 5.49814ZM6.20509 3.99814L7.35509 2.85314C7.44924 2.75899 7.50214 2.63129 7.50214 2.49814C7.50214 2.36499 7.44924 2.23729 7.35509 2.14314C7.26094 2.04899 7.13324 1.99609 7.00009 1.99609C6.86694 1.99609 6.73924 2.04899 6.64509 2.14314L5.50009 3.29314L4.35509 2.14314C4.30847 2.09652 4.25313 2.05954 4.19222 2.03431C4.13131 2.00908 4.06602 1.99609 4.00009 1.99609C3.93416 1.99609 3.86888 2.00908 3.80797 2.03431C3.74706 2.05954 3.69171 2.09652 3.64509 2.14314C3.59847 2.18976 3.56149 2.2451 3.53626 2.30602C3.51103 2.36693 3.49805 2.43221 3.49805 2.49814C3.49805 2.56407 3.51103 2.62935 3.53626 2.69026C3.56149 2.75118 3.59847 2.80652 3.64509 2.85314L4.79509 3.99814L3.64509 5.14314C3.59847 5.18976 3.56149 5.2451 3.53626 5.30601C3.51103 5.36693 3.49805 5.43221 3.49805 5.49814C3.49805 5.56407 3.51103 5.62935 3.53626 5.69026C3.56149 5.75118 3.59847 5.80652 3.64509 5.85314C3.69171 5.89976 3.74706 5.93674 3.80797 5.96197C3.86888 5.9872 3.93416 6.00019 4.00009 6.00019C4.06602 6.00019 4.13131 5.9872 4.19222 5.96197C4.25313 5.93674 4.30847 5.89976 4.35509 5.85314L5.50009 4.70314L6.64509 5.85314C6.73924 5.94729 6.86694 6.00019 7.00009 6.00019C7.13324 6.00019 7.26094 5.94729 7.35509 5.85314C7.44924 5.75899 7.50214 5.63129 7.50214 5.49814C7.50214 5.36499 7.44924 5.23729 7.35509 5.14314L6.20509 3.99814Z" fill="#D7D7F7"/>
<defs>
<linearGradient id="paint0_linear_8890_5216" x1="12" y1="13" x2="12" y2="7.5" gradientUnits="userSpaceOnUse">
<stop stop-color="#FE9526"/>
<stop offset="1" stop-color="#FFB669"/>
</linearGradient>
<linearGradient id="paint1_linear_8890_5216" x1="12" y1="23.5" x2="12" y2="17.5" gradientUnits="userSpaceOnUse">
<stop stop-color="#54A2FF"/>
<stop offset="1" stop-color="#8A8CFE"/>
</linearGradient>
<linearGradient id="paint2_linear_8890_5216" x1="12" y1="19.5" x2="12" y2="17.5" gradientUnits="userSpaceOnUse">
<stop stop-color="#D3D4F5"/>
<stop offset="1" stop-color="#53D86A"/>
</linearGradient>
<linearGradient id="paint3_linear_8890_5216" x1="12" y1="18" x2="12" y2="10.5" gradientUnits="userSpaceOnUse">
<stop stop-color="#D3D4F5"/>
<stop offset="1" stop-color="#53D86A"/>
</linearGradient>
<linearGradient id="paint4_linear_8890_5216" x1="8.5" y1="13.25" x2="6.5" y2="13.25" gradientUnits="userSpaceOnUse">
<stop stop-color="#D3D4F5"/>
<stop offset="1" stop-color="#53D86A"/>
</linearGradient>
<linearGradient id="paint5_linear_8890_5216" x1="15.5" y1="13.25" x2="17.5" y2="13.25" gradientUnits="userSpaceOnUse">
<stop stop-color="#D3D4F5"/>
<stop offset="1" stop-color="#53D86A"/>
</linearGradient>
<linearGradient id="paint6_linear_8890_5216" x1="5.5" y1="7.5" x2="5.5" y2="0.5" gradientUnits="userSpaceOnUse">
<stop stop-color="#FE9526"/>
<stop offset="1" stop-color="#FFB669"/>
</linearGradient>
<linearGradient id="paint7_linear_8890_5216" x1="18.5" y1="7.5" x2="18.5" y2="0.5" gradientUnits="userSpaceOnUse">
<stop stop-color="#54A2FF"/>
<stop offset="1" stop-color="#8A8CFE"/>
</linearGradient>
</defs>
</svg>
