<svg width="66" height="66" viewBox="0 0 66 66" fill="none" xmlns="http://www.w3.org/2000/svg">
<path d="M35.0625 34.0312H30.9375C29.2289 34.0312 27.8438 35.4164 27.8438 37.125V57.75C27.8438 59.4586 29.2289 60.8438 30.9375 60.8438H35.0625C36.7711 60.8438 38.1562 59.4586 38.1562 57.75V37.125C38.1562 35.4164 36.7711 34.0312 35.0625 34.0312Z" fill="#595BD4"/>
<path d="M47.4375 36.0938H43.3125C41.6109 36.0938 40.2188 37.4859 40.2188 39.1875V57.75C40.2188 59.4516 41.6109 60.8438 43.3125 60.8438H47.4375C49.1391 60.8438 50.5312 59.4516 50.5312 57.75V39.1875C50.5312 37.4859 49.1391 36.0938 47.4375 36.0938ZM48.4688 57.75C48.4688 58.3172 48.0047 58.7812 47.4375 58.7812H43.3125C42.7453 58.7812 42.2812 58.3172 42.2812 57.75V39.1875C42.2812 38.6203 42.7453 38.1562 43.3125 38.1562H47.4375C48.0047 38.1562 48.4688 38.6203 48.4688 39.1875V57.75Z" fill="#595BD4"/>
<path d="M59.8125 21.6562H55.6875C53.9789 21.6562 52.5938 23.0414 52.5938 24.75V57.75C52.5938 59.4586 53.9789 60.8438 55.6875 60.8438H59.8125C61.5211 60.8438 62.9062 59.4586 62.9062 57.75V24.75C62.9062 23.0414 61.5211 21.6562 59.8125 21.6562Z" fill="#595BD4"/>
<path d="M22.6875 28.875H18.5625C16.8609 28.875 15.4688 30.2672 15.4688 31.9688V57.75C15.4688 59.4516 16.8609 60.8438 18.5625 60.8438H22.6875C24.3891 60.8438 25.7812 59.4516 25.7812 57.75V31.9688C25.7812 30.2672 24.3891 28.875 22.6875 28.875ZM23.7188 57.75C23.7188 58.3172 23.2547 58.7812 22.6875 58.7812H18.5625C17.9953 58.7812 17.5312 58.3172 17.5312 57.75V31.9688C17.5312 31.4016 17.9953 30.9375 18.5625 30.9375H22.6875C23.2547 30.9375 23.7188 31.4016 23.7188 31.9688V57.75Z" fill="#595BD4"/>
<path d="M10.3125 38.1562H6.1875C4.47887 38.1562 3.09375 39.5414 3.09375 41.25V57.75C3.09375 59.4586 4.47887 60.8438 6.1875 60.8438H10.3125C12.0211 60.8438 13.4062 59.4586 13.4062 57.75V41.25C13.4062 39.5414 12.0211 38.1562 10.3125 38.1562Z" fill="#595BD4"/>
<path d="M7.3941 32.5359C7.5591 32.7834 7.81691 32.9484 8.11597 32.9897C8.15722 32.9897 8.20878 32.9897 8.25003 32.9897C8.49753 32.9897 8.73472 32.8969 8.93066 32.7319L28.7719 15.4584L41.6419 27.3384C42.0544 27.7097 42.6835 27.6994 43.0753 27.3075L57.1519 13.2309L59.0907 15.1697C59.3897 15.4688 59.8228 15.5513 60.2147 15.3966C60.5963 15.2419 60.8541 14.8603 60.8541 14.4478V6.1875C60.8541 5.62031 60.39 5.15625 59.8228 5.15625H51.5728C51.1603 5.15625 50.7788 5.40375 50.6241 5.79562C50.4694 6.17719 50.5519 6.62063 50.851 6.91969L52.7897 8.85844L42.2091 19.4288L29.6794 7.85812C29.2875 7.49719 28.6894 7.49719 28.2975 7.84781L5.50691 28.1016C5.12535 28.4419 5.05316 29.0194 5.3316 29.4422L7.3941 32.5359ZM28.9472 10.0134L41.5182 21.615C41.9307 21.9862 42.5597 21.9759 42.9516 21.5841L54.9553 9.58031C55.1513 9.38438 55.2544 9.12656 55.2544 8.84812C55.2544 8.56969 55.141 8.31187 54.9553 8.11594L54.0478 7.20844H58.7813V11.9419L57.8738 11.0344C57.4819 10.6425 56.8013 10.6425 56.4197 11.0344L42.3122 25.1419L29.4835 13.3031C29.0916 12.9422 28.5038 12.9422 28.1016 13.2825L8.45628 30.4219L7.53847 29.0503L28.9472 10.0134Z" fill="#595BD4"/>
</svg>
