<svg width="24" height="24" viewBox="0 0 24 24" fill="none" xmlns="http://www.w3.org/2000/svg">
<path d="M21.1875 4.6875H2.8125V17.8125H21.1875V4.6875Z" fill="#53D86A"/>
<path d="M6.93652 16.6875H4.68652C4.27215 16.6875 3.93652 16.3519 3.93652 15.9375C3.93652 15.5231 4.27215 15.1875 4.68652 15.1875H6.93652C7.3509 15.1875 7.68652 15.5231 7.68652 15.9375C7.68652 16.3519 7.3509 16.6875 6.93652 16.6875Z" fill="#FE9526"/>
<path d="M16.6875 8.8125H12.9375V10.3125H16.6875V8.8125Z" fill="#FE9526"/>
<path d="M11.0625 11.8125H8.0625V13.3125H11.0625V11.8125Z" fill="#FE9526"/>
<path d="M21.1875 4.6875V17.8125H2.8125L21.1875 4.6875Z" fill="#FE9526"/>
<path d="M11.0623 11.918L9.1123 13.3107H11.0623V11.918Z" fill="#167FFC"/>
<path d="M4.68652 16.6875H6.93652C7.35089 16.6875 7.68652 16.3519 7.68652 15.9375C7.68652 15.5231 7.35089 15.1875 6.93652 15.1875H6.48764L4.44727 16.6448C4.52264 16.6706 4.60252 16.6875 4.68652 16.6875Z" fill="#167FFC"/>
<path d="M16.6875 10.3125V8.8125H15.4125L13.3125 10.3125H16.6875Z" fill="#167FFC"/>
<path d="M16.3125 11.8125H13.3125V13.3125H16.3125V11.8125Z" fill="#167FFC"/>
<path d="M19.3115 16.6875H17.0615C16.6471 16.6875 16.3115 16.3519 16.3115 15.9375C16.3115 15.5231 16.6471 15.1875 17.0615 15.1875H19.3115C19.7259 15.1875 20.0615 15.5231 20.0615 15.9375C20.0615 16.3519 19.7259 16.6875 19.3115 16.6875Z" fill="#167FFC"/>
<path d="M13.3077 15.9366L12.1797 14.8086L11.0517 15.9366L12.1796 17.0646L13.3077 15.9366Z" fill="#167FFC"/>
<path d="M13.6875 7.3125H10.3125C9.89812 7.3125 9.5625 6.97688 9.5625 6.5625C9.5625 6.14812 9.89812 5.8125 10.3125 5.8125H13.6875C14.1019 5.8125 14.4375 6.14812 14.4375 6.5625C14.4375 6.97688 14.1019 7.3125 13.6875 7.3125Z" fill="#FE9526"/>
<path d="M11.0625 8.8125H7.3125V10.3125H11.0625V8.8125Z" fill="#FE9526"/>
<path d="M6.93268 12.5616L5.80469 11.4336L4.67666 12.5616L5.80465 13.6896L6.93268 12.5616Z" fill="#FE9526"/>
<path d="M8.0625 22.6875H6.5625L7.6875 17.8125H9.1875L8.0625 22.6875Z" fill="#167FFC"/>
<path d="M17.4375 22.6875H15.9375L14.8125 17.8125H16.3125L17.4375 22.6875Z" fill="#167FFC"/>
<path d="M15.2451 19.6875H8.75462L8.49512 20.8125H15.5046L15.2451 19.6875Z" fill="#797AD5"/>
<path d="M12 2.4375C12.3107 2.4375 12.5625 2.18566 12.5625 1.875C12.5625 1.56434 12.3107 1.3125 12 1.3125C11.6893 1.3125 11.4375 1.56434 11.4375 1.875C11.4375 2.18566 11.6893 2.4375 12 2.4375Z" fill="#167FFC"/>
<path d="M21.75 4.6875H2.25C1.9395 4.6875 1.6875 4.4355 1.6875 4.125C1.6875 3.8145 1.9395 3.5625 2.25 3.5625H21.75C22.0605 3.5625 22.3125 3.8145 22.3125 4.125C22.3125 4.4355 22.0605 4.6875 21.75 4.6875Z" fill="#167FFC"/>
<path d="M21.75 4.875H2.25C1.83637 4.875 1.5 4.53863 1.5 4.125C1.5 3.71137 1.83637 3.375 2.25 3.375H21.75C22.1636 3.375 22.5 3.71137 22.5 4.125C22.5 4.53863 22.1636 4.875 21.75 4.875ZM2.25 3.75C2.043 3.75 1.875 3.91838 1.875 4.125C1.875 4.33162 2.043 4.5 2.25 4.5H21.75C21.957 4.5 22.125 4.33162 22.125 4.125C22.125 3.91838 21.957 3.75 21.75 3.75H2.25ZM13.6875 7.5H10.3125C9.79537 7.5 9.375 7.07925 9.375 6.5625C9.375 6.04575 9.79537 5.625 10.3125 5.625H13.6875C14.2046 5.625 14.625 6.04575 14.625 6.5625C14.625 7.07925 14.2046 7.5 13.6875 7.5ZM10.3125 6C10.0024 6 9.75 6.25237 9.75 6.5625C9.75 6.87263 10.0024 7.125 10.3125 7.125H13.6875C13.9976 7.125 14.25 6.87263 14.25 6.5625C14.25 6.25237 13.9976 6 13.6875 6H10.3125ZM6.93637 16.875H4.68637C4.16925 16.875 3.74887 16.4543 3.74887 15.9375C3.74887 15.4207 4.16925 15 4.68637 15H6.93637C7.4535 15 7.87387 15.4207 7.87387 15.9375C7.87387 16.4543 7.4535 16.875 6.93637 16.875ZM4.68637 15.375C4.37625 15.375 4.12387 15.6274 4.12387 15.9375C4.12387 16.2476 4.37625 16.5 4.68637 16.5H6.93637C7.2465 16.5 7.49887 16.2476 7.49887 15.9375C7.49887 15.6274 7.2465 15.375 6.93637 15.375H4.68637ZM19.3114 16.875H17.0614C16.5443 16.875 16.1239 16.4543 16.1239 15.9375C16.1239 15.4207 16.5443 15 17.0614 15H19.3114C19.8285 15 20.2489 15.4207 20.2489 15.9375C20.2489 16.4543 19.8285 16.875 19.3114 16.875ZM17.0614 15.375C16.7513 15.375 16.4989 15.6274 16.4989 15.9375C16.4989 16.2476 16.7513 16.5 17.0614 16.5H19.3114C19.6215 16.5 19.8739 16.2476 19.8739 15.9375C19.8739 15.6274 19.6215 15.375 19.3114 15.375H17.0614ZM11.0625 10.5H7.3125C7.209 10.5 7.125 10.416 7.125 10.3125V8.8125C7.125 8.709 7.209 8.625 7.3125 8.625H11.0625C11.166 8.625 11.25 8.709 11.25 8.8125V10.3125C11.25 10.416 11.166 10.5 11.0625 10.5ZM7.5 10.125H10.875V9H7.5V10.125ZM16.6875 10.5H12.9375C12.834 10.5 12.75 10.416 12.75 10.3125V8.8125C12.75 8.709 12.834 8.625 12.9375 8.625H16.6875C16.791 8.625 16.875 8.709 16.875 8.8125V10.3125C16.875 10.416 16.791 10.5 16.6875 10.5ZM13.125 10.125H16.5V9H13.125V10.125ZM11.0625 13.5H8.0625C7.959 13.5 7.875 13.416 7.875 13.3125V11.8125C7.875 11.709 7.959 11.625 8.0625 11.625H11.0625C11.166 11.625 11.25 11.709 11.25 11.8125V13.3125C11.25 13.416 11.166 13.5 11.0625 13.5ZM8.25 13.125H10.875V12H8.25V13.125Z" fill="#595BD4"/>
<path d="M11.0625 13.5H8.0625C7.959 13.5 7.875 13.416 7.875 13.3125V11.8125C7.875 11.709 7.959 11.625 8.0625 11.625H11.0625C11.166 11.625 11.25 11.709 11.25 11.8125V13.3125C11.25 13.416 11.166 13.5 11.0625 13.5ZM8.25 13.125H10.875V12H8.25V13.125ZM16.3125 13.5H13.3125C13.209 13.5 13.125 13.416 13.125 13.3125V11.8125C13.125 11.709 13.209 11.625 13.3125 11.625H16.3125C16.416 11.625 16.5 11.709 16.5 11.8125V13.3125C16.5 13.416 16.416 13.5 16.3125 13.5ZM13.5 13.125H16.125V12H13.5V13.125Z" fill="#595BD4"/>
<path d="M21.1875 18H2.8125C2.709 18 2.625 17.916 2.625 17.8125V4.6875C2.625 4.584 2.709 4.5 2.8125 4.5H21.1875C21.291 4.5 21.375 4.584 21.375 4.6875V17.8125C21.375 17.916 21.291 18 21.1875 18ZM3 17.625H21V4.875H3V17.625Z" fill="#595BD4"/>
<path d="M12.1875 2.4375H11.8125V3.5625H12.1875V2.4375Z" fill="#595BD4"/>
<path d="M12.0003 2.625C11.5866 2.625 11.2503 2.28863 11.2503 1.875C11.2503 1.46137 11.5866 1.125 12.0003 1.125C12.4139 1.125 12.7503 1.46137 12.7503 1.875C12.7503 2.28863 12.4139 2.625 12.0003 2.625ZM12.0003 1.5C11.7933 1.5 11.6253 1.66838 11.6253 1.875C11.6253 2.08162 11.7933 2.25 12.0003 2.25C12.2073 2.25 12.3753 2.08162 12.3753 1.875C12.3753 1.66838 12.2073 1.5 12.0003 1.5ZM8.06276 22.875H6.56276C6.50576 22.875 6.45139 22.8491 6.41576 22.8045C6.38014 22.7595 6.36701 22.7014 6.37976 22.6455L7.50476 17.7705C7.52464 17.6854 7.60076 17.625 7.68776 17.625H9.18776C9.24476 17.625 9.29914 17.6509 9.33476 17.6955C9.37039 17.7405 9.38351 17.7986 9.37076 17.8545L8.24576 22.7295C8.22589 22.8146 8.14976 22.875 8.06276 22.875ZM6.79864 22.5H7.91389L8.95226 18H7.83701L6.79864 22.5ZM17.4378 22.875H15.9378C15.8508 22.875 15.7746 22.8146 15.7551 22.7295L14.6301 17.8545C14.6174 17.799 14.6305 17.7405 14.6661 17.6955C14.7014 17.6509 14.7558 17.625 14.8128 17.625H16.3128C16.3998 17.625 16.4759 17.6854 16.4954 17.7705L17.6204 22.6455C17.6331 22.701 17.62 22.7595 17.5844 22.8045C17.5491 22.8491 17.4948 22.875 17.4378 22.875ZM16.0866 22.5H17.2019L16.1635 18H15.0483L16.0866 22.5Z" fill="#595BD4"/>
<path d="M15.7401 21H8.2596L8.60535 19.5H15.3944L15.7401 21ZM8.7306 20.625H15.2691L15.0962 19.875H8.90348L8.7306 20.625ZM5.80485 13.878C5.75685 13.878 5.70885 13.8596 5.6721 13.8232L4.5441 12.6953C4.47098 12.6221 4.47098 12.5032 4.5441 12.4301L5.6721 11.3021C5.74523 11.229 5.8641 11.229 5.93723 11.3021L7.06523 12.4301C7.13835 12.5032 7.13835 12.6221 7.06523 12.6953L5.93723 13.8232C5.90085 13.8596 5.85285 13.878 5.80485 13.878ZM4.94235 12.5625L5.80523 13.4254L6.6681 12.5625L5.80523 11.6996L4.94235 12.5625ZM12.1799 17.253C12.1319 17.253 12.0839 17.2346 12.0471 17.1982L10.9191 16.0702C10.846 15.9971 10.846 15.8783 10.9191 15.8051L12.0471 14.6771C12.1202 14.604 12.2391 14.604 12.3122 14.6771L13.4402 15.8051C13.5134 15.8783 13.5134 15.9971 13.4402 16.0702L12.3122 17.1982C12.2759 17.2346 12.2279 17.253 12.1799 17.253ZM11.3174 15.9375L12.1802 16.8004L13.0431 15.9375L12.1802 15.0746L11.3174 15.9375ZM11.9999 8.25C11.8964 8.25 11.8124 8.166 11.8124 8.0625V7.3125C11.8124 7.209 11.8964 7.125 11.9999 7.125C12.1034 7.125 12.1874 7.209 12.1874 7.3125V8.0625C12.1874 8.166 12.1034 8.25 11.9999 8.25Z" fill="#595BD4"/>
<path d="M14.8125 9C14.709 9 14.625 8.916 14.625 8.8125V8.25H9.375V8.8125C9.375 8.916 9.291 9 9.1875 9C9.084 9 9 8.916 9 8.8125V8.0625C9 7.959 9.084 7.875 9.1875 7.875H14.8125C14.916 7.875 15 7.959 15 8.0625V8.8125C15 8.916 14.916 9 14.8125 9ZM5.8125 11.625C5.709 11.625 5.625 11.541 5.625 11.4375V9.5625C5.625 9.459 5.709 9.375 5.8125 9.375H7.3125C7.416 9.375 7.5 9.459 7.5 9.5625C7.5 9.666 7.416 9.75 7.3125 9.75H6V11.4375C6 11.541 5.916 11.625 5.8125 11.625ZM12.18 14.997C12.0922 15.0008 11.9921 14.9126 11.9925 14.8091L11.9992 12.75H11.0625C10.959 12.75 10.875 12.666 10.875 12.5625C10.875 12.459 10.959 12.375 11.0625 12.375H12.1875C12.2374 12.375 12.2854 12.3949 12.3203 12.4301C12.3551 12.4654 12.375 12.5134 12.375 12.5629L12.3675 14.8099C12.3671 14.9138 12.2835 14.997 12.18 14.997Z" fill="#595BD4"/>
<path d="M12.195 14.9979C12.0919 14.9979 12.0079 14.9143 12.0075 14.8108L12 12.5638C12 12.5139 12.0195 12.4663 12.0547 12.431C12.09 12.3958 12.1376 12.3759 12.1875 12.3759H13.3125C13.416 12.3759 13.5 12.4599 13.5 12.5634C13.5 12.6669 13.416 12.7509 13.3125 12.7509H12.3757L12.3825 14.81C12.3829 14.9135 12.2989 14.9975 12.1957 14.9979H12.195ZM5.8125 15.3759C5.709 15.3759 5.625 15.2919 5.625 15.1884V13.6914C5.625 13.5879 5.709 13.5039 5.8125 13.5039C5.916 13.5039 6 13.5879 6 13.6914V15.1884C6 15.2919 5.916 15.3759 5.8125 15.3759ZM14.8125 12.0009C14.709 12.0009 14.625 11.9169 14.625 11.8134V10.3164C14.625 10.2129 14.709 10.1289 14.8125 10.1289C14.916 10.1289 15 10.2129 15 10.3164V11.8134C15 11.9169 14.916 12.0009 14.8125 12.0009ZM8.0625 12.7509H6.933C6.8295 12.7509 6.7455 12.6669 6.7455 12.5634C6.7455 12.4599 6.8295 12.3759 6.933 12.3759H8.0625C8.166 12.3759 8.25 12.4599 8.25 12.5634C8.25 12.6669 8.166 12.7509 8.0625 12.7509ZM11.0625 16.1259H7.683C7.5795 16.1259 7.4955 16.0419 7.4955 15.9384C7.4955 15.8349 7.5795 15.7509 7.683 15.7509H11.0625C11.166 15.7509 11.25 15.8349 11.25 15.9384C11.25 16.0419 11.166 16.1259 11.0625 16.1259ZM16.3114 16.1259H13.308C13.2045 16.1259 13.1205 16.0419 13.1205 15.9384C13.1205 15.8349 13.2045 15.7509 13.308 15.7509H16.3114C16.4149 15.7509 16.4989 15.8349 16.4989 15.9384C16.4989 16.0419 16.4149 16.1259 16.3114 16.1259Z" fill="#595BD4"/>
</svg>
