<svg width="24" height="24" viewBox="0 0 24 24" fill="none" xmlns="http://www.w3.org/2000/svg">
<g clip-path="url(#clip0_8890_5254)">
<path fill-rule="evenodd" clip-rule="evenodd" d="M7.8123 9.26491C8.51511 9.4031 9.1833 9.68008 9.77777 10.0796L10.8259 9.61417L11.7282 10.5165L11.2628 11.5643C11.6625 12.1589 11.9395 12.8273 12.0777 13.5302L13.147 13.9418V15.2179L12.0774 15.6296C11.9392 16.3324 11.6622 17.0006 11.2626 17.5951L11.7281 18.6432L10.8259 19.5455L9.77796 19.0801C9.18339 19.4798 8.51504 19.7568 7.81207 19.895L7.40046 20.9643H6.12438L5.71268 19.8947C4.9969 19.7541 4.33179 19.4724 3.74721 19.08L2.69909 19.5455L1.79674 18.6432L2.26212 17.5953C1.86243 17.0008 1.5854 16.3324 1.44724 15.6295L0.37793 15.2178V13.9418L1.44743 13.5301C1.58559 12.8272 1.86259 12.159 2.26221 11.5645L1.79674 10.5165L2.69904 9.61417L3.74716 10.0796C4.34165 9.68008 5.00985 9.40309 5.71268 9.26491L6.12438 8.19531H7.40046L7.8123 9.26491ZM6.76259 11.6504C5.1447 11.6504 3.83313 12.9619 3.83313 14.5798C3.83313 16.1977 5.1447 17.5092 6.76259 17.5092C8.38048 17.5092 9.69204 16.1977 9.69204 14.5798C9.69199 12.9619 8.38048 11.6504 6.76259 11.6504Z" fill="#167FFC"/>
<path fill-rule="evenodd" clip-rule="evenodd" d="M7.8126 9.26491C8.51541 9.4031 9.1836 9.68008 9.77807 10.0796L10.8262 9.61417L11.7285 10.5165L11.2631 11.5643C11.6628 12.1589 11.9398 12.8273 12.078 13.5302L13.1473 13.9418V15.2179L12.0777 15.6296C11.9395 16.3324 11.6625 17.0006 11.2629 17.5951L11.7284 18.6432L10.8261 19.5455L9.77826 19.0801C9.18368 19.4798 8.51534 19.7568 7.81237 19.895L7.40076 20.9643H6.7627V17.5092C8.38059 17.5092 9.69215 16.1977 9.69215 14.5798C9.69215 12.9619 8.38059 11.6504 6.7627 11.6504V8.19531H7.40071L7.8126 9.26491Z" fill="#53D86A"/>
<path fill-rule="evenodd" clip-rule="evenodd" d="M18.9762 2.68459C19.4093 3.02604 19.77 3.45042 20.0371 3.93292L20.9188 3.98191L21.2204 4.91702L20.5336 5.47173C20.5987 6.0195 20.554 6.57476 20.4018 7.105L20.9901 7.76247L20.5421 8.63692L19.6646 8.54359C19.3232 8.97669 18.8988 9.33735 18.4162 9.60447L18.3673 10.4861L17.4322 10.7877L16.8775 10.1009C16.3297 10.1661 15.7745 10.1213 15.2442 9.9692L14.5867 10.5575L13.7123 10.1095L13.8057 9.232C13.3726 8.89056 13.0119 8.46617 12.7448 7.98367L11.8631 7.93473L11.5615 6.99962L12.2483 6.44491C12.1832 5.89714 12.228 5.34188 12.3801 4.81164L11.7918 4.15417L12.2398 3.27972L13.1172 3.37309C13.4587 2.93993 13.8831 2.57924 14.3656 2.31212L14.4146 1.4305L15.3497 1.12891L15.9045 1.81586C16.4522 1.75075 17.0073 1.79553 17.5375 1.94758L18.1951 1.35916L19.0696 1.80714L18.9762 2.68459ZM15.7087 3.84278C14.5404 4.21956 13.8987 5.47216 14.2755 6.64052C14.6523 7.80892 15.9049 8.45059 17.0732 8.07377C18.2416 7.69698 18.8833 6.44439 18.5065 5.27598C18.1296 4.10763 16.8771 3.46595 15.7087 3.84278Z" fill="#167FFC"/>
<path fill-rule="evenodd" clip-rule="evenodd" d="M18.9766 2.68459C19.4097 3.02604 19.7703 3.45042 20.0374 3.93292L20.9191 3.98191L21.2207 4.91702L20.5339 5.47173C20.5991 6.0195 20.5543 6.57476 20.4022 7.105L20.9904 7.76247L20.5425 8.63692L19.665 8.54359C19.3235 8.97669 18.8991 9.33735 18.4166 9.60447L18.3676 10.4861L17.8636 10.6487L17.0548 8.07963C17.061 8.0777 17.0672 8.07587 17.0734 8.07386C18.2418 7.69708 18.8835 6.44448 18.5067 5.27608C18.1311 4.11133 16.8851 3.47017 15.7199 3.83945L14.9111 1.27042L15.3499 1.12891L15.9048 1.81586C16.4524 1.75075 17.0076 1.79553 17.5377 1.94758L18.1954 1.35916L19.0698 1.80714L18.9766 2.68459Z" fill="#53D86A"/>
<path fill-rule="evenodd" clip-rule="evenodd" d="M19.5513 13.5916L23.3912 20.2425C23.7069 20.7892 23.7069 21.4492 23.3912 21.996C23.0755 22.5427 22.504 22.8727 21.8726 22.8727H14.1928C13.5614 22.8727 12.99 22.5427 12.6743 21.996C12.3586 21.4492 12.3586 20.7892 12.6743 20.2425L16.5141 13.5916C16.8298 13.0448 17.4013 12.7148 18.0327 12.7148C18.6641 12.7149 19.2356 13.0448 19.5513 13.5916Z" fill="#FFBD77"/>
<path fill-rule="evenodd" clip-rule="evenodd" d="M19.5517 13.5916L23.3916 20.2425C23.7073 20.7893 23.7073 21.4492 23.3916 21.996C23.0759 22.5427 22.5044 22.8727 21.8731 22.8727H18.0332V12.7148C18.6646 12.7148 19.2361 13.0448 19.5517 13.5916Z" fill="#FE9526"/>
<path fill-rule="evenodd" clip-rule="evenodd" d="M18.0324 20.4234C18.3572 20.4234 18.6205 20.6867 18.6205 21.0115C18.6205 21.3363 18.3572 21.5996 18.0324 21.5996C17.7076 21.5996 17.4443 21.3363 17.4443 21.0115C17.4443 20.6867 17.7076 20.4234 18.0324 20.4234ZM18.0325 19.3736C17.9136 19.3736 17.7994 19.3275 17.7138 19.245C17.6282 19.1624 17.578 19.05 17.5737 18.9312L17.4577 15.7178C17.453 15.5885 17.4963 15.4756 17.586 15.3825C17.6758 15.2894 17.7871 15.2422 17.9165 15.2422H18.1485C18.2779 15.2422 18.3891 15.2895 18.479 15.3825C18.5687 15.4756 18.612 15.5885 18.6073 15.7178L18.4912 18.9312C18.4869 19.0499 18.4367 19.1624 18.3511 19.2449C18.2656 19.3275 18.1513 19.3736 18.0325 19.3736Z" fill="#FEB364"/>
<path fill-rule="evenodd" clip-rule="evenodd" d="M18.0322 20.4235C18.357 20.4235 18.6203 20.6868 18.6203 21.0116C18.6203 21.3364 18.357 21.5997 18.0322 21.5997V20.4235ZM18.0322 19.3737V15.2422H18.1483C18.2776 15.2422 18.3889 15.2895 18.4787 15.3825C18.5685 15.4756 18.6117 15.5885 18.6071 15.7178L18.491 18.9312C18.4867 19.05 18.4365 19.1625 18.3509 19.245C18.2653 19.3275 18.1511 19.3736 18.0322 19.3737Z" fill="#FDA547"/>
<path fill-rule="evenodd" clip-rule="evenodd" d="M17.856 15.6424C17.8751 15.6227 17.8892 15.6167 17.9165 15.6167H18.1487C18.176 15.6167 18.1901 15.6227 18.2091 15.6424C18.2281 15.6621 18.2336 15.6762 18.2326 15.7038L18.1166 18.9171C18.1159 18.9389 18.1067 18.9596 18.091 18.9747C18.0754 18.9899 18.0544 18.9983 18.0326 18.9983C18.0108 18.9983 17.9898 18.9899 17.9741 18.9747C17.9584 18.9596 17.9493 18.9389 17.9486 18.9171L17.8325 15.7038C17.8316 15.6762 17.8369 15.662 17.856 15.6424ZM18.0326 19.7482C18.2488 19.7489 18.4568 19.6653 18.6124 19.5152C18.768 19.3652 18.859 19.1604 18.8661 18.9443L18.9822 15.7306C18.9905 15.4991 18.9099 15.2885 18.749 15.1216C18.5881 14.9548 18.3805 14.8666 18.1487 14.8666H17.9165C17.6848 14.8666 17.4772 14.9548 17.3163 15.1216C17.1553 15.2885 17.0746 15.499 17.0831 15.7306L17.1991 18.9443C17.2062 19.1604 17.2973 19.3652 17.4529 19.5153C17.6085 19.6653 17.8165 19.7489 18.0326 19.7482ZM18.0326 21.2239C17.9761 21.2239 17.9219 21.2014 17.882 21.1615C17.842 21.1216 17.8196 21.0674 17.8195 21.0109C17.8195 20.8933 17.9151 20.7977 18.0326 20.7977C18.0891 20.7978 18.1433 20.8203 18.1833 20.8603C18.2232 20.9002 18.2457 20.9544 18.2457 21.0109C18.2457 21.0674 18.2232 21.1216 18.1832 21.1615C18.1433 21.2014 18.0891 21.2239 18.0326 21.2239ZM18.0326 20.0476C17.5016 20.0476 17.0695 20.4799 17.0695 21.0109C17.0695 21.5421 17.5016 21.9738 18.0326 21.9738C18.5636 21.9738 18.9957 21.5421 18.9957 21.0109C18.9957 20.4799 18.5636 20.0476 18.0326 20.0476ZM23.0664 21.8064C23.3156 21.3747 23.3156 20.8597 23.0664 20.428L19.2265 13.7772C18.9773 13.3456 18.531 13.0879 18.0326 13.0879C17.5342 13.0879 17.088 13.3456 16.8388 13.7772L12.9989 20.428C12.7497 20.8597 12.7497 21.3747 12.9989 21.8064C13.2482 22.2383 13.6944 22.4955 14.1928 22.4955H21.8725C22.3708 22.4955 22.8171 22.2383 23.0664 21.8064ZM23.7159 20.0529L19.876 13.4021C19.4912 12.7356 18.8021 12.3377 18.0326 12.3377C17.2631 12.3377 16.574 12.7356 16.1893 13.4021L12.3494 20.0529C11.9647 20.7194 11.9647 21.5149 12.3494 22.1815C12.7342 22.848 13.4232 23.2456 14.1928 23.2456H21.8725C22.642 23.2456 23.3311 22.848 23.7159 22.1815C24.1007 21.5149 24.1007 20.7194 23.7159 20.0529ZM14.8808 5.18458C15.0874 4.78122 15.4388 4.48244 15.8701 4.34355C16.0388 4.28872 16.2152 4.26074 16.3926 4.26062C16.658 4.26062 16.9215 4.32362 17.1645 4.44817C17.5678 4.6547 17.8666 5.00612 18.0057 5.43733C18.1448 5.86876 18.1076 6.32833 17.9009 6.73192C17.4744 7.56451 16.4499 7.89494 15.6173 7.46833C14.7846 7.04176 14.4543 6.01717 14.8808 5.18458ZM15.2754 8.13578C15.6192 8.31251 16.0002 8.4047 16.3868 8.4047C17.2764 8.4047 18.1359 7.91842 18.5685 7.07383C18.8664 6.4922 18.9201 5.8292 18.7196 5.20712C18.5189 4.58528 18.0881 4.07861 17.5064 3.78072C16.9248 3.48264 16.2619 3.42911 15.6399 3.62969C15.0179 3.83003 14.5113 4.26105 14.2134 4.84267C13.9153 5.4243 13.8617 6.0873 14.0623 6.70914C14.2628 7.33126 14.6936 7.83789 15.2754 8.13578ZM12.4839 6.73656L11.9974 7.12956L12.1409 7.5745L12.7655 7.609C12.8288 7.61258 12.8901 7.63211 12.9439 7.66579C12.9976 7.69947 13.0419 7.74619 13.0727 7.80161C13.3178 8.24392 13.6425 8.62581 14.0377 8.93739C14.0875 8.97663 14.1266 9.02787 14.1512 9.08632C14.1758 9.14476 14.1852 9.2085 14.1785 9.27156L14.1124 9.89298L14.5285 10.1062L14.9941 9.68955C15.0414 9.64733 15.0986 9.61776 15.1604 9.60361C15.2223 9.58946 15.2866 9.59117 15.3476 9.60859C15.8318 9.74772 16.3316 9.78794 16.8332 9.72845C16.8961 9.72096 16.96 9.72956 17.0188 9.75346C17.0775 9.77735 17.1292 9.81576 17.1691 9.86509L17.5621 10.3516L18.0071 10.2081L18.0417 9.58356C18.0452 9.52025 18.0647 9.45885 18.0984 9.40513C18.1321 9.35141 18.1788 9.30711 18.2343 9.27639C18.6735 9.03374 19.0596 8.7056 19.3699 8.31133C19.4092 8.26148 19.4604 8.2224 19.5189 8.19777C19.5773 8.17313 19.6411 8.16374 19.7042 8.17047L20.3256 8.23661L20.5388 7.82064L20.1222 7.35489C20.0799 7.30765 20.0503 7.25044 20.0361 7.18864C20.022 7.12683 20.0237 7.06244 20.0412 7.0015C20.1803 6.51719 20.2205 6.01741 20.1611 5.51584C20.1536 5.45285 20.1622 5.38897 20.1861 5.33021C20.21 5.27146 20.2485 5.21973 20.2978 5.17989L20.7843 4.78694L20.6408 4.342L20.0161 4.30726C19.9528 4.30372 19.8915 4.2842 19.8378 4.25052C19.7841 4.21683 19.7398 4.17009 19.709 4.11465C19.4664 3.6755 19.1382 3.28938 18.7439 2.97906C18.6941 2.9398 18.6551 2.88856 18.6305 2.83013C18.6059 2.7717 18.5965 2.70799 18.6031 2.64494L18.6693 2.02351L18.2532 1.81033L17.7874 2.22695C17.7401 2.26926 17.6829 2.29888 17.6211 2.31304C17.5593 2.32719 17.4949 2.32543 17.4339 2.3079C16.9502 2.16901 16.4503 2.1288 15.9484 2.18828C15.8855 2.1957 15.8216 2.18703 15.7629 2.16308C15.7042 2.13914 15.6525 2.1007 15.6127 2.05136L15.2196 1.56484L14.7746 1.70837L14.74 2.33265C14.7365 2.396 14.7169 2.45743 14.6833 2.51119C14.6496 2.56495 14.6028 2.60929 14.5473 2.64006C14.1081 2.8826 13.7219 3.21076 13.4117 3.60512C13.3724 3.6549 13.3211 3.69392 13.2627 3.71852C13.2042 3.74312 13.1405 3.7525 13.0774 3.7458L12.4561 3.6797L12.2428 4.09591L12.6594 4.56166C12.7017 4.60889 12.7314 4.66608 12.7455 4.72789C12.7597 4.7897 12.758 4.8541 12.7405 4.91505C12.6017 5.39729 12.561 5.90245 12.6206 6.4007C12.6281 6.46368 12.6195 6.52753 12.5956 6.58628C12.5717 6.64502 12.5332 6.69672 12.4839 6.73656ZM11.5062 8.04976C11.5295 8.1219 11.574 8.1853 11.634 8.23161C11.694 8.27791 11.7667 8.30496 11.8423 8.30917L12.5229 8.34676C12.7638 8.7388 13.0635 9.0915 13.4115 9.39255L13.3394 10.0697C13.3314 10.1451 13.3464 10.2211 13.3824 10.2878C13.4185 10.3544 13.4739 10.4086 13.5413 10.4432L14.4158 10.891C14.4832 10.9256 14.5596 10.939 14.6347 10.9293C14.7099 10.9196 14.7804 10.8874 14.8369 10.8369L15.3442 10.3829C15.7919 10.4896 16.2533 10.5268 16.7124 10.4932L17.1405 11.0233C17.1882 11.0823 17.2525 11.1254 17.3252 11.147C17.3978 11.1687 17.4753 11.1678 17.5474 11.1445L18.4825 10.8429C18.5546 10.8196 18.618 10.7751 18.6643 10.7151C18.7105 10.6552 18.7376 10.5826 18.7418 10.507L18.7796 9.82623C19.1716 9.58534 19.5243 9.28566 19.8254 8.93767L20.5024 9.00976C20.5778 9.01766 20.6538 9.00261 20.7204 8.96659C20.7871 8.93056 20.8413 8.87524 20.876 8.80787L21.3239 7.93347C21.3585 7.86602 21.3718 7.78968 21.3621 7.71452C21.3524 7.63935 21.3202 7.56888 21.2697 7.51239L20.8156 7.00511C20.9223 6.55738 20.9595 6.09591 20.926 5.63687L21.456 5.20876C21.5149 5.16113 21.5581 5.09675 21.5797 5.02411C21.6014 4.95148 21.6005 4.87399 21.5773 4.80184L21.2757 3.86683C21.2524 3.79468 21.2079 3.73128 21.1479 3.68497C21.0879 3.63866 21.0152 3.61162 20.9396 3.60742L20.259 3.56959C20.018 3.17763 19.7184 2.82494 19.3705 2.52381L19.4425 1.84665C19.4505 1.77132 19.4355 1.69533 19.3994 1.62869C19.3634 1.56206 19.308 1.5079 19.2406 1.47334L18.366 1.02526C18.2985 0.99071 18.2222 0.977414 18.147 0.987129C18.0719 0.996845 18.0014 1.02912 17.9449 1.07969L17.4375 1.53367C16.9899 1.42712 16.5285 1.38999 16.0696 1.42356L15.6413 0.893264C15.5937 0.834285 15.5294 0.791127 15.4568 0.769493C15.3841 0.747858 15.3066 0.748765 15.2345 0.772092L14.2994 1.0735C14.2273 1.09674 14.1639 1.14131 14.1176 1.20132C14.0713 1.26133 14.0443 1.33396 14.0401 1.40964L14.0023 2.09012C13.6103 2.33101 13.2575 2.63069 12.9565 2.97869L12.2794 2.90683C12.2041 2.89874 12.1281 2.91371 12.0614 2.94976C11.9947 2.98581 11.9406 3.04123 11.9061 3.10872L11.4581 3.98312C11.4236 4.05057 11.4102 4.12691 11.4199 4.20207C11.4296 4.27724 11.4618 4.34771 11.5123 4.4042L11.9663 4.91148C11.8596 5.35921 11.8224 5.82068 11.856 6.27972L11.3259 6.70783C11.267 6.75542 11.2238 6.81975 11.2022 6.89235C11.1805 6.96496 11.1814 7.04241 11.2046 7.11451L11.5062 8.04976ZM10.7428 19.0975L9.93016 18.7367C9.87221 18.7109 9.80867 18.7003 9.74548 18.7057C9.68229 18.7112 9.62154 18.7327 9.5689 18.7681C9.01188 19.1423 8.39646 19.3972 7.73988 19.5259C7.67766 19.5383 7.61957 19.5662 7.57101 19.607C7.52245 19.6478 7.485 19.7003 7.46215 19.7595L7.14302 20.5888H6.38196L6.0627 19.7595C6.03994 19.7002 6.00253 19.6478 5.95398 19.6069C5.90542 19.5661 5.8473 19.5382 5.78505 19.5259C5.12895 19.3972 4.51371 19.1423 3.95632 18.7681C3.90372 18.7326 3.84296 18.7111 3.77975 18.7056C3.71655 18.7001 3.65298 18.7108 3.59505 18.7367L2.78224 19.0975L2.24402 18.5595L2.60482 17.7466C2.63057 17.6887 2.6412 17.6252 2.63571 17.562C2.63023 17.4989 2.60881 17.4382 2.57346 17.3856C2.19935 16.8283 1.94426 16.2133 1.81526 15.5565C1.80301 15.4942 1.77518 15.4361 1.73438 15.3875C1.69357 15.3389 1.64112 15.3014 1.58191 15.2785L0.752883 14.9594V14.1987L1.5821 13.8794C1.64135 13.8566 1.69384 13.8191 1.73465 13.7705C1.77546 13.7219 1.80326 13.6637 1.81545 13.6014C1.94426 12.9453 2.19935 12.3301 2.57355 11.7728C2.60891 11.7201 2.63033 11.6594 2.63581 11.5962C2.6413 11.5331 2.63067 11.4696 2.60491 11.4116L2.24398 10.5989L2.78215 10.0607L3.59496 10.4215C3.6529 10.4473 3.71643 10.4579 3.7796 10.4524C3.84277 10.447 3.90351 10.4255 3.95613 10.3901C4.51357 10.0159 5.1289 9.76098 5.78501 9.63203C5.84724 9.6198 5.90536 9.59199 5.95391 9.55118C6.00247 9.51038 6.03988 9.45793 6.06265 9.39873L6.38191 8.56942H7.14298L7.46229 9.39873C7.48506 9.45793 7.52247 9.51038 7.57102 9.55118C7.61958 9.59199 7.6777 9.6198 7.73993 9.63203C8.39604 9.76094 9.01127 10.0159 9.56862 10.3901C9.62126 10.4255 9.68202 10.4469 9.7452 10.4524C9.80838 10.4579 9.87193 10.4473 9.92988 10.4215L10.7427 10.0607L11.2809 10.5989L10.92 11.4112C10.8943 11.4692 10.8836 11.5328 10.8891 11.596C10.8946 11.6592 10.9161 11.7199 10.9515 11.7726C11.3255 12.3296 11.5807 12.9451 11.7097 13.6021C11.722 13.6643 11.7498 13.7223 11.7906 13.7708C11.8314 13.8193 11.8838 13.8567 11.9429 13.8794L12.772 14.1988V14.9595L11.9426 15.2786C11.8835 15.3015 11.831 15.339 11.7902 15.3876C11.7495 15.4362 11.7216 15.4943 11.7094 15.5566C11.5805 16.2125 11.3254 16.828 10.9512 17.3853C10.9159 17.438 10.8945 17.4987 10.889 17.5619C10.8835 17.6251 10.8941 17.6887 10.9198 17.7467L11.2809 18.5596L10.7428 19.0975ZM12.0709 18.4901C12.1017 18.5594 12.1108 18.6364 12.0969 18.7109C12.0831 18.7854 12.0469 18.854 11.9933 18.9076L11.0911 19.8101C11.0375 19.8636 10.9689 19.8996 10.8944 19.9134C10.8199 19.9272 10.7429 19.9181 10.6737 19.8873L9.81115 19.5045C9.27997 19.8347 8.69836 20.0758 8.08934 20.2183L7.75052 21.098C7.72338 21.1688 7.67539 21.2297 7.61289 21.2727C7.5504 21.3157 7.47634 21.3387 7.40051 21.3386H6.12452C6.0487 21.3386 5.97466 21.3156 5.91217 21.2727C5.84969 21.2297 5.8017 21.1688 5.77455 21.098L5.43565 20.2179C4.82678 20.0755 4.24531 19.8345 3.71426 19.5044L2.85134 19.8872C2.78215 19.9182 2.70519 19.9274 2.63067 19.9136C2.55614 19.8998 2.48756 19.8637 2.43401 19.8101L1.53162 18.9076C1.478 18.854 1.44189 18.7854 1.42805 18.7108C1.41422 18.6363 1.42331 18.5593 1.45413 18.49L1.83715 17.6276C1.50673 17.0966 1.26562 16.515 1.12343 15.906L0.243258 15.567C0.172553 15.5398 0.111739 15.4919 0.0688357 15.4294C0.0259321 15.367 0.00295345 15.2931 0.00292969 15.2173V13.9409C0.00292088 13.8651 0.0258866 13.7912 0.0687945 13.7287C0.111702 13.6663 0.172534 13.6184 0.243258 13.5912L1.12362 13.2522C1.26585 12.6432 1.50692 12.0616 1.83724 11.5306L1.45404 10.6679C1.42326 10.5987 1.4142 10.5217 1.42805 10.4472C1.4419 10.3727 1.47801 10.3042 1.53162 10.2506L2.43391 9.34815C2.48755 9.29463 2.55613 9.25858 2.63063 9.24477C2.70514 9.23096 2.78208 9.24002 2.85134 9.27076L3.71416 9.65401C4.24519 9.32376 4.82671 9.08269 5.43565 8.94039L5.77455 8.06003C5.80175 7.98928 5.84975 7.92843 5.91223 7.88552C5.97471 7.84261 6.04873 7.81964 6.12452 7.81965H7.40051C7.47631 7.81965 7.55033 7.84262 7.61281 7.88553C7.6753 7.92844 7.72331 7.98928 7.75052 8.06003L8.08938 8.94039C8.69826 9.08271 9.27972 9.32377 9.81068 9.65401L10.6736 9.27076C10.7429 9.24003 10.8198 9.23097 10.8943 9.24478C10.9688 9.25859 11.0374 9.29463 11.091 9.34815L11.9933 10.2506C12.0469 10.3042 12.083 10.3727 12.0969 10.4472C12.1107 10.5217 12.1017 10.5987 12.0709 10.6679L11.6878 11.5304C12.0182 12.0615 12.2593 12.6431 12.4016 13.2522L13.2817 13.5912C13.3524 13.6184 13.4132 13.6663 13.4561 13.7287C13.4991 13.7912 13.522 13.8651 13.522 13.9409V15.2173C13.522 15.2931 13.499 15.367 13.4561 15.4294C13.4132 15.4918 13.3525 15.5398 13.2818 15.567L12.4013 15.906C12.2585 16.5161 12.0191 17.0931 11.6877 17.6271L12.0709 18.4901ZM6.76249 17.1335C8.17104 17.1335 9.3169 15.9873 9.3169 14.5793C9.3169 13.1706 8.17099 12.0246 6.76249 12.0246C5.3539 12.0246 4.20804 13.1706 4.20804 14.5793C4.20804 15.9873 5.3539 17.1335 6.76249 17.1335ZM6.76249 11.2745C4.94037 11.2745 3.45804 12.7571 3.45804 14.5794C3.45804 16.4014 4.94041 17.8835 6.76249 17.8835C8.58452 17.8835 10.0669 16.4014 10.0669 14.5794C10.0669 12.757 8.58452 11.2745 6.76249 11.2745Z" fill="#595BD4"/>
</g>
<defs>
<clipPath id="clip0_8890_5254">
<rect width="24" height="24" fill="white"/>
</clipPath>
</defs>
</svg>
