<svg width="66" height="66" viewBox="0 0 66 66" fill="none" xmlns="http://www.w3.org/2000/svg">
<path d="M47.4375 34.375V39.875C47.4353 40.4213 47.2173 40.9447 46.831 41.331C46.4447 41.7173 45.9213 41.9353 45.375 41.9375H39.875C39.328 41.9375 38.8034 41.7202 38.4166 41.3334C38.0298 40.9466 37.8125 40.422 37.8125 39.875C37.8125 39.328 38.0298 38.8034 38.4166 38.4166C38.8034 38.0298 39.328 37.8125 39.875 37.8125H40.3947L34.144 31.5618L31.141 36.069C30.9723 36.3235 30.7491 36.5372 30.4875 36.6947C30.2259 36.8522 29.9326 36.9495 29.6287 36.9795C29.3249 37.0095 29.0181 36.9715 28.7308 36.8683C28.4435 36.765 28.1827 36.5991 27.9675 36.3825L19.1675 27.5825C18.8032 27.1915 18.6048 26.6744 18.6143 26.1401C18.6237 25.6057 18.8402 25.0959 19.218 24.718C19.5959 24.3402 20.1057 24.1237 20.6401 24.1143C21.1744 24.1048 21.6915 24.3032 22.0825 24.6675L29.106 31.6882L32.109 27.181C32.2785 26.9272 32.5019 26.714 32.7634 26.5566C33.0249 26.3993 33.3179 26.3016 33.6215 26.2708C33.9237 26.24 34.2289 26.2777 34.5145 26.381C34.8002 26.4843 35.0589 26.6506 35.2715 26.8675L43.3015 34.8948V34.375C43.3015 33.828 43.5188 33.3034 43.9056 32.9166C44.2924 32.5298 44.817 32.3125 45.364 32.3125C45.911 32.3125 46.4356 32.5298 46.8224 32.9166C47.2092 33.3034 47.4265 33.828 47.4265 34.375H47.4375ZM62.5625 24.75V41.25C62.5625 56.188 56.1908 62.5625 41.25 62.5625H24.75C9.80925 62.5625 3.4375 56.188 3.4375 41.25V24.75C3.4375 9.812 9.80925 3.4375 24.75 3.4375H41.25C56.1908 3.4375 62.5625 9.812 62.5625 24.75ZM58.4375 24.75C58.4375 12.0615 53.9385 7.5625 41.25 7.5625H24.75C12.0615 7.5625 7.5625 12.0615 7.5625 24.75V41.25C7.5625 53.9385 12.0615 58.4375 24.75 58.4375H41.25C53.9385 58.4375 58.4375 53.9385 58.4375 41.25V24.75Z" fill="url(#paint0_linear_8890_5151)"/>
<defs>
<linearGradient id="paint0_linear_8890_5151" x1="8.492" y1="57.508" x2="57.508" y2="8.492" gradientUnits="userSpaceOnUse">
<stop stop-color="#167FFC"/>
<stop offset="1" stop-color="#595BD4"/>
</linearGradient>
</defs>
</svg>
