<svg width="32" height="32" viewBox="0 0 32 32" fill="none" xmlns="http://www.w3.org/2000/svg">
<path d="M23.0837 9.02738C23.4587 9.57151 24.2701 9.01983 23.9157 8.47262C23.9157 8.47265 23.5263 7.88849 23.5263 7.88849C26.0449 8.49112 27.3487 11.6631 25.8885 13.8763C25.6744 14.1951 25.9316 14.6529 26.3115 14.6423C26.4777 14.6423 26.6403 14.5596 26.7353 14.4085C27.2353 13.613 27.4997 12.6938 27.4997 11.75C27.4997 9.54941 26.069 7.68024 24.0903 7.0138L24.7233 6.69727C25.3053 6.39438 24.8697 5.51776 24.276 5.80274L22.276 6.80274C22.0762 6.91068 21.9456 7.1698 22.0285 7.39252C22.0281 7.50626 23.0388 8.93024 23.0837 9.02738ZM11.9997 8.75C14.6428 8.66596 14.6422 4.83365 11.9996 4.75C9.35658 4.83405 9.35719 8.66635 11.9997 8.75ZM11.9997 5.75C13.3183 5.78443 13.3181 7.71576 11.9996 7.75C10.681 7.71557 10.6813 5.78424 11.9997 5.75ZM14.9997 8.75H17.4997C18.1561 8.73904 18.1574 7.76117 17.4997 7.75H14.9997C14.3432 7.76093 14.342 8.73883 14.9997 8.75Z" fill="#595BD4"/>
<path d="M4 18.25H17C18.6543 18.25 20 16.9043 20 15.25V12.75C20 11.7071 19.4646 10.7878 18.6548 10.25C19.4646 9.71225 20 8.79291 20 7.75V5.25C20 3.59571 18.6543 2.25 17 2.25H4C2.34571 2.25 1 3.59571 1 5.25V7.75C1 8.79291 1.53543 9.71225 2.34522 10.25C1.53543 10.7878 1 11.7071 1 12.75V15.25C1 16.9043 2.34571 18.25 4 18.25ZM2 7.75V5.25C2 4.14722 2.89722 3.25 4 3.25H17C18.1028 3.25 19 4.14722 19 5.25V7.75C19 8.85279 18.1028 9.75 17 9.75H4C2.89722 9.75 2 8.85279 2 7.75ZM2 12.75C2 11.6472 2.89722 10.75 4 10.75H17C18.1028 10.75 19 11.6472 19 12.75V15.25C19 16.353 18.1028 17.25 17 17.25H4C2.89722 17.25 2 16.353 2 15.25V12.75Z" fill="#595BD4"/>
<path d="M11.9997 16.25C14.6428 16.1661 14.6422 12.3337 11.9997 12.25C9.35656 12.334 9.3572 16.1665 11.9997 16.25ZM11.9997 13.25C13.3183 13.2844 13.3181 15.2158 11.9997 15.25C10.6811 15.2156 10.6813 13.2842 11.9997 13.25ZM14.9997 16.75H17.4997C18.1562 16.7392 18.1575 15.761 17.4997 15.75H14.9997C14.3432 15.7608 14.3419 16.739 14.9997 16.75Z" fill="#595BD4"/>
<path d="M28.5989 11.3104C27.9503 11.1951 27.7595 12.1477 28.4011 12.2909C29.3276 12.4777 30 13.3019 30 14.2506V24.2506C30 25.3536 29.1028 26.2506 28 26.2506H25.9551C25.7646 26.2506 25.5911 26.3585 25.5068 26.5294C25.1531 27.2457 25.1099 28.0538 25.3599 28.7487C24.143 28.7891 23.0559 27.9543 23.0096 26.7272C22.9971 26.4606 22.7771 26.2506 22.51 26.2506H11C9.89722 26.2506 9 25.3537 9 24.2506V19.2506C9 18.9743 8.77613 18.7506 8.5 18.7506C8.22387 18.7506 8 18.9743 8 19.2506V24.2506C8 25.9049 9.34571 27.2506 11 27.2506H22.0696C22.3615 28.7594 23.7613 29.7631 25.2988 29.7491C25.7229 29.7048 26.4146 29.7846 26.6136 29.3005C26.6677 29.1408 26.6372 28.9645 26.533 28.8317C26.1982 28.4064 26.1128 27.8102 26.291 27.2506H28C29.6543 27.2506 31 25.9049 31 24.2506V14.2506C31 12.8278 29.9902 11.5912 28.5989 11.3104Z" fill="#595BD4"/>
<path d="M20.8758 12.25H25.5008C26.1567 12.2393 26.1591 11.2612 25.5008 11.25H20.8758C20.2201 11.2607 20.2176 12.2388 20.8758 12.25ZM20.4916 21.3276L18.8712 20.5371C18.2767 20.2563 17.8464 21.138 18.4328 21.4356C18.4327 21.4356 19.0643 21.7437 19.0643 21.7437C17.0704 22.3468 14.7798 21.1076 14.1889 19.1035C14.1078 18.8394 13.828 18.6899 13.5643 18.772C12.8331 19.0704 13.4541 19.9398 13.6839 20.4121C14.7227 22.244 16.9699 23.2513 19.0227 22.7765L18.6315 23.376C18.4806 23.6074 18.5455 23.917 18.777 24.0684C19.005 24.2174 19.317 24.1559 19.4689 23.9229C19.4807 23.887 20.8472 21.8652 20.7554 21.8887C20.8087 21.6647 20.687 21.4312 20.4916 21.3276Z" fill="#595BD4"/>
</svg>
