<svg width="32" height="32" viewBox="0 0 32 32" fill="none" xmlns="http://www.w3.org/2000/svg">
<path d="M27.5 11H27C26.7348 11 26.4804 10.8946 26.2929 10.7071C26.1054 10.5196 26 10.2652 26 10C26 9.73478 26.1054 9.48043 26.2929 9.29289C26.4804 9.10536 26.7348 9 27 9H27.5C27.6326 9 27.7598 8.94732 27.8536 8.85355C27.9473 8.75979 28 8.63261 28 8.5C28 8.23478 28.1054 7.98043 28.2929 7.79289C28.4804 7.60536 28.7348 7.5 29 7.5C29.2652 7.5 29.5196 7.60536 29.7071 7.79289C29.8946 7.98043 30 8.23478 30 8.5C30 9.16304 29.7366 9.79893 29.2678 10.2678C28.7989 10.7366 28.163 11 27.5 11Z" fill="#167FFC"/>
<path d="M25 2.00001H14.829C14.4347 1.99887 14.0442 2.07597 13.6799 2.22686C13.3157 2.37774 12.985 2.59941 12.707 2.87901L6.87901 8.70801C6.59952 8.98586 6.37793 9.31639 6.22705 9.68046C6.07617 10.0445 5.999 10.4349 6.00001 10.829V27C6.00001 27.7957 6.31608 28.5587 6.87869 29.1213C7.4413 29.6839 8.20436 30 9.00001 30H25C25.7957 30 26.5587 29.6839 27.1213 29.1213C27.6839 28.5587 28 27.7957 28 27V5.00001C28 4.20436 27.6839 3.4413 27.1213 2.87869C26.5587 2.31608 25.7957 2.00001 25 2.00001Z" fill="#E6E8E6"/>
<path d="M29 9.5C28.7348 9.5 28.4804 9.39464 28.2929 9.20711C28.1054 9.01957 28 8.76522 28 8.5C28 8.36739 27.9473 8.24021 27.8536 8.14645C27.7598 8.05268 27.6326 8 27.5 8H23C22.7348 8 22.4804 7.89464 22.2929 7.70711C22.1054 7.51957 22 7.26522 22 7C22 6.73478 22.1054 6.48043 22.2929 6.29289C22.4804 6.10536 22.7348 6 23 6H27.5C28.163 6 28.7989 6.26339 29.2678 6.73223C29.7366 7.20107 30 7.83696 30 8.5C30 8.76522 29.8946 9.01957 29.7071 9.20711C29.5196 9.39464 29.2652 9.5 29 9.5Z" fill="#167FFC"/>
<path d="M15 2.00004C14.3609 2.63935 14.0012 3.50601 14 4.41004V8.00004C13.9985 8.52999 13.7872 9.03778 13.4125 9.41251C13.0378 9.78724 12.53 9.99846 12 10H8.41004C7.50601 10.0012 6.63935 10.3609 6.00004 11V10.83C5.99796 10.4358 6.07474 10.0452 6.22586 9.68114C6.37699 9.31706 6.59941 8.98688 6.88004 8.71004L12.71 2.88004C12.9869 2.59941 13.3171 2.37699 13.6811 2.22586C14.0452 2.07474 14.4358 1.99796 14.83 2.00004H15Z" fill="#595BD4"/>
<path d="M22.2924 24.2928L21.9994 24.5858L20.7064 23.2928C20.5189 23.1053 20.2646 23 19.9994 23C19.7343 23 19.48 23.1053 19.2924 23.2928L17.2924 25.2928C17.1103 25.4814 17.0095 25.734 17.0118 25.9962C17.014 26.2584 17.1192 26.5092 17.3046 26.6946C17.49 26.88 17.7408 26.9852 18.003 26.9875C18.2652 26.9897 18.5178 26.8889 18.7064 26.7068L19.9994 25.4138L21.2924 26.7068C21.48 26.8943 21.7343 26.9996 21.9994 26.9996C22.2646 26.9996 22.5189 26.8943 22.7064 26.7068L23.7064 25.7068C23.8886 25.5182 23.9894 25.2656 23.9871 25.0034C23.9848 24.7412 23.8797 24.4904 23.6942 24.305C23.5088 24.1196 23.258 24.0144 22.9958 24.0121C22.7336 24.0098 22.481 24.1106 22.2924 24.2928Z" fill="#53D86A"/>
<path d="M23 18H17C16.7348 18 16.4804 18.1054 16.2929 18.2929C16.1054 18.4804 16 18.7348 16 19C16 19.2652 16.1054 19.5196 16.2929 19.7071C16.4804 19.8946 16.7348 20 17 20H23C23.2652 20 23.5196 19.8946 23.7071 19.7071C23.8946 19.5196 24 19.2652 24 19C24 18.7348 23.8946 18.4804 23.7071 18.2929C23.5196 18.1054 23.2652 18 23 18ZM24 14C24 13.7348 23.8946 13.4804 23.7071 13.2929C23.5196 13.1054 23.2652 13 23 13H13C12.7348 13 12.4804 13.1054 12.2929 13.2929C12.1054 13.4804 12 13.7348 12 14C12 14.2652 12.1054 14.5196 12.2929 14.7071C12.4804 14.8946 12.7348 15 13 15H23C23.2652 15 23.5196 14.8946 23.7071 14.7071C23.8946 14.5196 24 14.2652 24 14Z" fill="#FE9526"/>
<path d="M14.7066 22.1751L7.47057 14.9391C6.86005 14.3564 6.04853 14.0312 5.20457 14.0312C4.36061 14.0312 3.54909 14.3564 2.93857 14.9391C2.64044 15.2363 2.40391 15.5895 2.24252 15.9783C2.08112 16.3672 1.99805 16.7841 1.99805 17.2051C1.99805 17.6261 2.08112 18.0429 2.24252 18.4318C2.40391 18.8206 2.64044 19.1738 2.93857 19.4711L10.1746 26.7071C10.3621 26.8946 10.6164 27 10.8816 27.0001H13.9996C14.2648 27.0001 14.5191 26.8947 14.7067 26.7072C14.8942 26.5196 14.9996 26.2653 14.9996 26.0001V22.8821C14.9995 22.6169 14.8941 22.3626 14.7066 22.1751Z" fill="#167FFC"/>
<path d="M8.42952 15.8889L3.88952 20.4289L2.93952 19.4689C2.64169 19.1716 2.40541 18.8186 2.2442 18.4299C2.08298 18.0413 2 17.6246 2 17.2039C2 16.7831 2.08298 16.3665 2.2442 15.9778C2.40541 15.5892 2.64169 15.2361 2.93952 14.9389C3.5497 14.3563 4.36089 14.0312 5.20452 14.0312C6.04815 14.0312 6.85933 14.3563 7.46952 14.9389L8.42952 15.8889Z" fill="#FE9526"/>
</svg>
