<svg width="64" height="64" viewBox="0 0 64 64" fill="none" xmlns="http://www.w3.org/2000/svg">
<path d="M41.25 50.12L36 49.16V47.15C39.27 45.71 41.63 42.58 41.96 38.86C43.7 38.43 45 36.86 45 34.99V31.99C45 26.8 40.72 20.99 35 20.99H30.47C27.53 20.99 24.86 22.52 23.38 25.03C20.91 25.33 18.99 27.44 18.99 29.99V34.99C18.99 36.86 20.29 38.43 22.03 38.86C22.35 42.57 24.71 45.71 27.99 47.15V49.16L22.74 50.12C19.41 50.72 16.99 53.62 16.99 57.01V60C16.99 60.55 17.44 61 17.99 61C18.54 61 18.99 60.55 18.99 60V57.01C18.99 54.59 20.72 52.52 23.1 52.09L28.19 51.16C28.69 52.8 30.2 54 32 54C33.8 54 35.31 52.8 35.81 51.16L40.9 52.09C43.28 52.52 45.01 54.59 45.01 57.01V60C45.01 60.55 45.46 61 46.01 61C46.56 61 47.01 60.55 47.01 60V57.01C47.01 53.62 44.59 50.73 41.26 50.12H41.25ZM22 36V36.72C21.41 36.37 21 35.74 21 35V30C21 28.35 22.35 27 24 27C24.38 27 24.72 26.79 24.89 26.45C25.95 24.32 28.09 23 30.47 23H35C39.58 23 43 27.75 43 32V35C43 35.74 42.59 36.37 42 36.72V36C42 35.45 41.55 35 41 35C31.61 35 27.74 31.33 27.71 31.29C27.47 31.05 27.11 30.95 26.77 31.02C26.43 31.1 26.16 31.35 26.05 31.68C25.23 34.15 22.7 35.04 22.68 35.05C22.27 35.19 22 35.57 22 36ZM34 50C34 51.1 33.1 52 32 52C30.9 52 30 51.1 30 50V47.8C30.65 47.93 31.32 48 32 48C32.68 48 33.35 47.93 34 47.8V50ZM32 46C27.59 46 24 42.41 24 38V36.66C24.88 36.23 26.4 35.29 27.39 33.57C29.15 34.77 33.14 36.81 40 36.99V38C40 42.41 36.41 46 32 46ZM9 11C9.55 11 10 11.45 10 12C10 12.55 10.45 13 11 13C11.55 13 12 12.55 12 12C12 10.35 10.65 9 9 9C7.35 9 6 10.35 6 12C6 12.55 6.45 13 7 13C7.55 13 8 12.55 8 12C8 11.45 8.45 11 9 11ZM20 12C20 10.35 18.65 9 17 9C15.35 9 14 10.35 14 12C14 12.55 14.45 13 15 13C15.55 13 16 12.55 16 12C16 11.45 16.45 11 17 11C17.55 11 18 11.45 18 12C18 12.55 18.45 13 19 13C19.55 13 20 12.55 20 12ZM17 15C16.45 15 16 15.45 16 16C16 17.65 14.65 19 13 19C11.35 19 10 17.65 10 16C10 15.45 9.55 15 9 15C8.45 15 8 15.45 8 16C8 18.76 10.24 21 13 21C15.76 21 18 18.76 18 16C18 15.45 17.55 15 17 15ZM51 3C44.93 3 40 7.93 40 14C40 19.73 44.4 24.44 50 24.95V30C50 30.55 49.55 31 49 31H48C47.45 31 47 31.45 47 32C47 32.55 47.45 33 48 33H49C50.65 33 52 31.65 52 30V24.95C57.6 24.44 62 19.73 62 14C62 7.93 57.07 3 51 3ZM51 23C46.04 23 42 18.96 42 14C42 9.04 46.04 5 51 5C55.96 5 60 9.04 60 14C60 18.96 55.96 23 51 23Z" fill="black"/>
<path d="M57 9C56.45 9 56 9.45 56 10C56 10.55 55.55 11 55 11C54.45 11 54 10.55 54 10C54 9.45 53.55 9 53 9C52.45 9 52 9.45 52 10C52 11.65 53.35 13 55 13C56.65 13 58 11.65 58 10C58 9.45 57.55 9 57 9ZM50 10C50 9.45 49.55 9 49 9C48.45 9 48 9.45 48 10C48 10.55 47.55 11 47 11C46.45 11 46 10.55 46 10C46 9.45 45.55 9 45 9C44.45 9 44 9.45 44 10C44 11.65 45.35 13 47 13C48.65 13 50 11.65 50 10ZM51 14C48.24 14 46 16.24 46 19C46 19.55 46.45 20 47 20C47.55 20 48 19.55 48 19C48 17.35 49.35 16 51 16C52.65 16 54 17.35 54 19C54 19.55 54.45 20 55 20C55.55 20 56 19.55 56 19C56 16.24 53.76 14 51 14ZM16 31H15C14.45 31 14 30.55 14 30V24.95C19.6 24.44 24 19.73 24 14C24 7.93 19.07 3 13 3C6.93 3 2 7.93 2 14C2 19.73 6.4 24.44 12 24.95V30C12 31.65 13.35 33 15 33H16C16.55 33 17 32.55 17 32C17 31.45 16.55 31 16 31ZM4 14C4 9.04 8.04 5 13 5C17.96 5 22 9.04 22 14C22 18.96 17.96 23 13 23C8.04 23 4 18.96 4 14Z" fill="black"/>
</svg>
