<svg width="64" height="64" viewBox="0 0 64 64" fill="none" xmlns="http://www.w3.org/2000/svg">
<g clip-path="url(#clip0_8990_5881)">
<path d="M58.8737 24.3158V22.8057C58.8719 21.5041 58.443 20.239 57.653 19.2045C56.8629 18.1701 55.7553 17.4234 54.5 17.079V14.0983C55.0821 13.6621 55.5546 13.0964 55.88 12.4459C56.2055 11.7954 56.375 11.0781 56.375 10.3507V4.85075C56.3736 3.60797 55.8793 2.4165 55.0005 1.53772C54.1217 0.658946 52.9303 0.16464 51.6875 0.16325H45.0625C44.8139 0.16325 44.5754 0.262022 44.3996 0.437837C44.2238 0.613653 44.125 0.852109 44.125 1.10075V10.3507C44.125 11.0781 44.2945 11.7954 44.62 12.4459C44.9454 13.0964 45.4179 13.6621 46 14.0983V17.5853C45.7016 17.773 45.4251 17.9936 45.1758 18.2429L39.1808 24.2434H32.834C32.4264 24.2433 32.0203 24.2936 31.625 24.3931V24.0566C31.6277 23.0607 31.3119 22.0899 30.7237 21.2861C30.1356 20.4823 29.306 19.8876 28.3559 19.5888L23.8412 18.1556C23.6513 18.0958 23.4854 17.9769 23.3677 17.8162C23.2501 17.6554 23.187 17.4613 23.1875 17.2621V15.3199C23.7797 14.7451 24.2504 14.0572 24.5718 13.297C24.8931 12.5369 25.0586 11.7199 25.0583 10.8946V1.5655C25.0578 1.15043 24.8926 0.752513 24.5991 0.459028C24.3056 0.165544 23.9077 0.000463131 23.4926 0H16.7696C15.6885 0.00122412 14.652 0.431249 13.8875 1.19573C13.123 1.96022 12.693 2.99673 12.6917 4.07788V10.8945C12.6914 11.7198 12.8569 12.5367 13.1782 13.2969C13.4996 14.0571 13.9703 14.7449 14.5625 15.3197V17.262C14.563 17.4612 14.4998 17.6553 14.3822 17.8161C14.2646 17.9768 14.0986 18.0957 13.9086 18.1555L9.39425 19.5888C8.44417 19.8876 7.61449 20.4823 7.02634 21.286C6.43819 22.0898 6.12237 23.0605 6.125 24.0565V28.2607H0.9375C0.68886 28.2607 0.450403 28.3595 0.274587 28.5353C0.098772 28.7112 0 28.9496 0 29.1982L0 31.3018C0.000720937 31.8831 0.18132 32.4501 0.51702 32.9247C0.85272 33.3994 1.32707 33.7586 1.875 33.953V62.0625C1.87556 62.5762 2.07987 63.0687 2.4431 63.4319C2.80633 63.7951 3.29882 63.9994 3.8125 64H6.5625C6.75926 64 6.95103 63.9381 7.11065 63.8231C7.27027 63.708 7.38965 63.5457 7.45188 63.359L8.8995 59.016C8.96157 58.8292 9.08092 58.6667 9.24061 58.5517C9.40029 58.4366 9.59218 58.3748 9.789 58.375H33.3361C33.5329 58.3748 33.7248 58.4366 33.8844 58.5517C34.0441 58.6668 34.1634 58.8292 34.2255 59.016L35.673 63.359C35.7352 63.5457 35.8546 63.708 36.0143 63.8231C36.1739 63.9381 36.3657 64 36.5625 64H39.3125C39.8262 63.9994 40.3187 63.7951 40.6819 63.4319C41.0451 63.0687 41.2494 62.5762 41.25 62.0625V44.8683H48.0116L50.3825 63.345C50.4115 63.5711 50.5219 63.7789 50.6931 63.9296C50.8642 64.0802 51.0844 64.1633 51.3124 64.1633H55.5624C55.6954 64.1632 55.8268 64.1349 55.948 64.0802C56.0692 64.0255 56.1774 63.9457 56.2654 63.8459C56.3533 63.7462 56.4191 63.6289 56.4582 63.5019C56.4974 63.3748 56.5091 63.2408 56.4925 63.1089L54.2001 44.8683H55.5625C57.7995 44.8657 59.9441 43.976 61.5259 42.3942C63.1077 40.8124 63.9975 38.6677 64 36.4308V30.3057C63.9981 28.8606 63.4809 27.4635 62.5413 26.3656C61.6017 25.2676 60.3012 24.5408 58.8737 24.3158ZM46 2.03825H51.6875C52.4332 2.03908 53.1481 2.33566 53.6753 2.86293C54.2026 3.39019 54.4992 4.10508 54.5 4.85075V5.6895L54.4948 5.69275C53.8162 6.12974 53.0189 6.34571 52.2125 6.31095C51.4062 6.27618 50.6304 5.99239 49.992 5.49862L46.0339 2.43075C46.0229 2.42225 46.0112 2.41512 46 2.40712V2.03825ZM46 4.77675L48.8434 6.9805C49.6356 7.59341 50.5735 7.98996 51.5651 8.13128C52.5568 8.27259 53.5681 8.15383 54.5 7.78662V10.3507C54.4992 11.0964 54.2026 11.8113 53.6753 12.3386C53.1481 12.8658 52.4332 13.1624 51.6875 13.1632H48.8125C48.0668 13.1624 47.3519 12.8658 46.8247 12.3386C46.2974 11.8113 46.0008 11.0964 46 10.3507V4.77675ZM52.625 14.9439V16.8684H48.4919C48.2856 16.8687 48.0795 16.8825 47.875 16.9096V14.9438C48.1835 15.0066 48.4976 15.0382 48.8125 15.0381H51.6875C52.0024 15.0382 52.3165 15.0067 52.625 14.9439ZM46.5021 19.568C46.7627 19.3057 47.0728 19.0978 47.4143 18.9562C47.7559 18.8147 48.1222 18.7423 48.4919 18.7434H52.9361C54.0132 18.7446 55.0458 19.173 55.8074 19.9346C56.569 20.6962 56.9974 21.7288 56.9986 22.8059V35.0559C56.9978 35.8015 56.7012 36.5164 56.174 37.0437C55.6467 37.571 54.9318 37.8675 54.1861 37.8684H41.25V33.953C41.7979 33.7586 42.2723 33.3994 42.608 32.9247C42.9437 32.4501 43.1243 31.8831 43.125 31.3018V29.6396C43.2814 29.5339 43.4274 29.4135 43.5609 29.28L48.105 24.7384C48.2796 24.5624 48.3774 24.3243 48.3769 24.0764C48.3765 23.8285 48.2778 23.5908 48.1025 23.4155C47.9273 23.2401 47.6897 23.1413 47.4418 23.1406C47.1938 23.14 46.9558 23.2376 46.7796 23.4121L45.3001 24.8909L43.323 22.75L46.5021 19.568ZM32.834 26.1182H39.5694C39.6926 26.1183 39.8146 26.094 39.9284 26.0468C40.0422 25.9997 40.1456 25.9305 40.2326 25.8434L41.9966 24.0776L43.9729 26.2174L42.2354 27.9539C42.0573 28.1325 41.8211 28.2414 41.5696 28.2607H29.8971C30.0973 27.639 30.4894 27.0968 31.0171 26.7118C31.5448 26.3269 32.1809 26.1191 32.834 26.1182ZM14.5667 4.07788C14.5674 3.49384 14.7997 2.93391 15.2127 2.52094C15.6257 2.10796 16.1856 1.87566 16.7696 1.875H23.1834V6.57225C22.4003 6.8478 21.5588 6.91415 20.7423 6.76475C20.2816 6.66345 19.8385 6.49409 19.4277 6.26225C18.8817 5.96038 18.2939 5.74132 17.6835 5.61225C16.6425 5.42329 15.5706 5.49946 14.5667 5.83375V4.07788ZM14.5667 7.82363C15.5693 7.414 16.4937 7.28875 17.3209 7.45188C17.7622 7.54924 18.1866 7.71199 18.5799 7.93475C19.1416 8.2445 19.746 8.46971 20.3735 8.60312C21.3046 8.78391 22.2642 8.75621 23.1833 8.522V10.8945C23.1833 12.0371 22.7293 13.1329 21.9214 13.9409C21.1134 14.7488 20.0176 15.2028 18.875 15.2028C17.7324 15.2028 16.6366 14.7488 15.8286 13.9409C15.0207 13.1329 14.5667 12.0371 14.5667 10.8945V7.82363ZM21.8194 18.874C19.9294 19.6286 17.8217 19.6276 15.9325 18.8711C16.2618 18.3992 16.4381 17.8375 16.4375 17.262V16.5763C17.2075 16.9072 18.0369 17.0779 18.875 17.0779C19.7131 17.0779 20.5425 16.9072 21.3125 16.5763V17.262C21.3118 17.8386 21.4888 18.4015 21.8194 18.874ZM8 24.0565C7.9984 23.4589 8.18787 22.8765 8.54075 22.3942C8.89363 21.9119 9.39144 21.5551 9.9615 21.3757L14.0802 20.0683C15.5455 20.8847 17.195 21.3136 18.8724 21.3144C18.9424 21.3144 19.0131 21.3136 19.0841 21.3121C20.6912 21.2768 22.2653 20.8499 23.67 20.0684L27.7885 21.3759C28.3585 21.5552 28.8563 21.912 29.2091 22.3942C29.562 22.8764 29.7515 23.4588 29.75 24.0564V25.3231C28.8244 26.0585 28.1916 27.1002 27.9657 28.2606H26V26.164C26 25.9154 25.9012 25.6769 25.7254 25.5011C25.5496 25.3253 25.3111 25.2265 25.0625 25.2265C24.8139 25.2265 24.5754 25.3253 24.3996 25.5011C24.2238 25.6769 24.125 25.9154 24.125 26.164V28.2606H13.625V26.164C13.625 25.9154 13.5262 25.6769 13.3504 25.5011C13.1746 25.3253 12.9361 25.2265 12.6875 25.2265C12.4389 25.2265 12.2004 25.3253 12.0246 25.5011C11.8488 25.6769 11.75 25.9154 11.75 26.164V28.2606H8V24.0565ZM39.375 62.0625C39.375 62.0791 39.3684 62.095 39.3567 62.1067C39.345 62.1184 39.3291 62.125 39.3125 62.125H37.2383L36.0042 58.423C35.818 57.8627 35.46 57.3754 34.981 57.0302C34.502 56.685 33.9264 56.4995 33.336 56.5H9.789C9.19856 56.4995 8.62297 56.685 8.14398 57.0302C7.66498 57.3754 7.30696 57.8628 7.12075 58.4231L5.88675 62.125H3.8125C3.79592 62.125 3.78003 62.1184 3.76831 62.1067C3.75658 62.095 3.75 62.0791 3.75 62.0625V34.1143H39.375V62.0625ZM40.3125 32.2393H2.8125C2.56394 32.239 2.32564 32.1401 2.14988 31.9644C1.97412 31.7886 1.87526 31.5503 1.875 31.3018V30.1357H28.7302C28.7574 30.1381 28.7847 30.1399 28.8125 30.1399H41.25V31.3018C41.2497 31.5503 41.1509 31.7886 40.9751 31.9644C40.7994 32.1401 40.5611 32.239 40.3125 32.2393ZM54.4999 62.2882H52.1374L49.902 44.8683H52.3105L54.4999 62.2882ZM62.125 36.4308C62.123 38.1706 61.431 39.8387 60.2007 41.0689C58.9704 42.2992 57.3024 42.9913 55.5625 42.9933H41.25V39.7433H54.1862C55.429 39.7419 56.6205 39.2476 57.4993 38.3688C58.3781 37.49 58.8724 36.2985 58.8737 35.0558V26.2251C59.7969 26.4381 60.6208 26.9573 61.2112 27.6983C61.8016 28.4393 62.1237 29.3583 62.125 30.3057V36.4308Z" fill="#B34700"/>
</g>
<defs>
<clipPath id="clip0_8990_5881">
<rect width="64" height="64" fill="white"/>
</clipPath>
</defs>
</svg>
