<svg width="32" height="32" viewBox="0 0 32 32" fill="none" xmlns="http://www.w3.org/2000/svg">
<path d="M26.5 25C26.4 25 26.3 25 26.2 24.9L22.3 22H15.5C14.1 22 13 20.9 13 19.5V12.5C13 11.1 14.1 10 15.5 10H27.5C28.9 10 30 11.1 30 12.5V19.5C30 20.9 28.9 22 27.5 22H27V24.5C27 24.7 26.9 24.9 26.7 24.9C26.6 25 26.6 25 26.5 25ZM15.5 11C14.7 11 14 11.7 14 12.5V19.5C14 20.3 14.7 21 15.5 21H22.5C22.6 21 22.7 21 22.8 21.1L26 23.5V21.5C26 21.2 26.2 21 26.5 21H27.5C28.3 21 29 20.3 29 19.5V12.5C29 11.7 28.3 11 27.5 11H15.5Z" fill="#595BD4"/>
<path d="M5.5 22C5.4 22 5.3 22 5.3 21.9C5.1 21.9 5 21.7 5 21.5V19H4.5C3.1 19 2 17.9 2 16.5V9.5C2 8.1 3.1 7 4.5 7H16.5C17.9 7 19 8.1 19 9.5V10.5C19 10.8 18.8 11 18.5 11H15.5C14.7 11 14 11.7 14 12.5V18.5C14 18.8 13.8 19 13.5 19H9.7L5.8 21.9C5.7 22 5.6 22 5.5 22ZM4.5 8C3.7 8 3 8.7 3 9.5V16.5C3 17.3 3.7 18 4.5 18H5.5C5.8 18 6 18.2 6 18.5V20.5L9.2 18.1C9.3 18 9.4 18 9.5 18H13V12.5C13 11.1 14.1 10 15.5 10H18V9.5C18 8.7 17.3 8 16.5 8H4.5Z" fill="#595BD4"/>
<path d="M9.5 16H8.5C7.7 16 7 15.3 7 14.5V11.5C7 10.7 7.7 10 8.5 10H9.5C10.3 10 11 10.7 11 11.5V14.5C11 15.3 10.3 16 9.5 16ZM8.5 11C8.2 11 8 11.2 8 11.5V14.5C8 14.8 8.2 15 8.5 15H9.5C9.8 15 10 14.8 10 14.5V11.5C10 11.2 9.8 11 9.5 11H8.5ZM23.5 19C23.2 19 23 18.8 23 18.5V14.5C23 14.2 22.8 14 22.5 14H20.5C20.2 14 20 14.2 20 14.5V18.5C20 18.8 19.8 19 19.5 19C19.2 19 19 18.8 19 18.5V14.5C19 13.7 19.7 13 20.5 13H22.5C23.3 13 24 13.7 24 14.5V18.5C24 18.8 23.8 19 23.5 19Z" fill="#595BD4"/>
<path d="M22.9992 17.0008H19.9992C19.6992 17.0008 19.4992 16.8008 19.4992 16.5008C19.4992 16.2008 19.6992 16.0008 19.9992 16.0008H22.9992C23.2992 16.0008 23.4992 16.2008 23.4992 16.5008C23.4992 16.8008 23.2992 17.0008 22.9992 17.0008ZM11.4992 16.0008C11.3992 16.0008 11.1992 16.0008 11.0992 15.9008L9.09922 13.9008C8.89922 13.7008 8.89922 13.4008 9.09922 13.2008C9.29922 13.0008 9.59922 13.0008 9.79922 13.2008L11.7992 15.2008C11.9992 15.4008 11.9992 15.7008 11.7992 15.9008C11.7992 15.9008 11.5992 16.0008 11.4992 16.0008Z" fill="#595BD4"/>
</svg>
