<svg width="32" height="32" viewBox="0 0 32 32" fill="none" xmlns="http://www.w3.org/2000/svg">
<path d="M7 29H8.525V30H7C6.33696 30 5.70107 29.7366 5.23223 29.2678C4.76339 28.7989 4.5 28.163 4.5 27.5V6.5C4.5 5.83696 4.76339 5.20107 5.23223 4.73223C5.70107 4.26339 6.33696 4 7 4H9.5V5H7C6.60218 5 6.22064 5.15804 5.93934 5.43934C5.65804 5.72064 5.5 6.10218 5.5 6.5V27.5C5.5 27.8978 5.65804 28.2794 5.93934 28.5607C6.22064 28.842 6.60218 29 7 29ZM24.5 6.5V18H25.5V6.5C25.5 5.83696 25.2366 5.20107 24.7678 4.73223C24.2989 4.26339 23.663 4 23 4H20.5V5H23C23.3978 5 23.7794 5.15804 24.0607 5.43934C24.342 5.72064 24.5 6.10218 24.5 6.5ZM9.5 7V6H7C6.86739 6 6.74021 6.05268 6.64645 6.14645C6.55268 6.24021 6.5 6.36739 6.5 6.5V27.5C6.5 27.6326 6.55268 27.7598 6.64645 27.8536C6.74021 27.9473 6.86739 28 7 28H8.47V27H7.5V7H9.5ZM22.5 18H23.5V6.5C23.5 6.36739 23.4473 6.24021 23.3536 6.14645C23.2598 6.05268 23.1326 6 23 6H20.5V7H22.5V18ZM10.5 8.5V4.5C10.5 4.36739 10.5527 4.24021 10.6464 4.14645C10.7402 4.05268 10.8674 4 11 4H13C13 3.46957 13.2107 2.96086 13.5858 2.58579C13.9609 2.21071 14.4696 2 15 2C15.5304 2 16.0391 2.21071 16.4142 2.58579C16.7893 2.96086 17 3.46957 17 4H19C19.1326 4 19.2598 4.05268 19.3536 4.14645C19.4473 4.24021 19.5 4.36739 19.5 4.5V8.5C19.5 8.63261 19.4473 8.75979 19.3536 8.85355C19.2598 8.94732 19.1326 9 19 9H11C10.8674 9 10.7402 8.94732 10.6464 8.85355C10.5527 8.75979 10.5 8.63261 10.5 8.5ZM11.5 8H18.5V5H16.5C16.3674 5 16.2402 4.94732 16.1464 4.85355C16.0527 4.75979 16 4.63261 16 4.5V4C16 3.73478 15.8946 3.48043 15.7071 3.29289C15.5196 3.10536 15.2652 3 15 3C14.7348 3 14.4804 3.10536 14.2929 3.29289C14.1054 3.48043 14 3.73478 14 4V4.5C14 4.63261 13.9473 4.75979 13.8536 4.85355C13.7598 4.94732 13.6326 5 13.5 5H11.5V8ZM13.5 7H16.5V6H13.5V7ZM20.5 11H15.5V12H20.5V11ZM20.5 14H15.5V15H20.5V14ZM15.5 18H20.5V17H15.5V18ZM10.725 13.915C10.8052 13.972 10.9016 14.0018 11 14C11.0658 14.0004 11.131 13.9878 11.192 13.9629C11.2529 13.938 11.3083 13.9013 11.355 13.855L13.355 11.855L12.645 11.145L10.935 12.855L9.775 12.085L9.225 12.915L10.725 13.915ZM11 18C11.0658 18.0004 11.131 17.9878 11.192 17.9629C11.2529 17.938 11.3083 17.9013 11.355 17.855L13.355 15.855L12.645 15.145L10.935 16.855L9.775 16.085L9.225 16.915L10.725 17.915C10.8052 17.972 10.9016 18.0018 11 18ZM27.5 29V30H9.5V29H11V24.5C11 24.3674 11.0527 24.2402 11.1464 24.1464C11.2402 24.0527 11.3674 24 11.5 24H14.5C14.6326 24 14.7598 24.0527 14.8536 24.1464C14.9473 24.2402 15 24.3674 15 24.5V29H16.5V22.5C16.5 22.3674 16.5527 22.2402 16.6464 22.1464C16.7402 22.0527 16.8674 22 17 22H20C20.1326 22 20.2598 22.0527 20.3536 22.1464C20.4473 22.2402 20.5 22.3674 20.5 22.5V29H22V19.5C22 19.3674 22.0527 19.2402 22.1464 19.1464C22.2402 19.0527 22.3674 19 22.5 19H25.5C25.6326 19 25.7598 19.0527 25.8536 19.1464C25.9473 19.2402 26 19.3674 26 19.5V29H27.5ZM14 29V25H12V29H14ZM19.5 29V23H17.5V29H19.5ZM25 29V20H23V29H25Z" fill="#595BD4"/>
</svg>
