<svg width="19" height="19" viewBox="0 0 19 19" fill="none" xmlns="http://www.w3.org/2000/svg">
<path d="M18.7041 16.5249L15.3041 13.1349C16.4011 11.7373 16.9964 10.0115 16.9941 8.23487C16.9941 6.65262 16.525 5.1059 15.6459 3.7903C14.7668 2.47471 13.5174 1.44933 12.0556 0.843831C10.5938 0.23833 8.98527 0.0799029 7.43342 0.388585C5.88157 0.697266 4.45611 1.45919 3.33729 2.57801C2.21847 3.69683 1.45654 5.1223 1.14786 6.67414C0.83918 8.22599 0.997607 9.83453 1.60311 11.2963C2.20861 12.7581 3.23399 14.0076 4.54958 14.8866C5.86518 15.7657 7.41189 16.2349 8.99414 16.2349C10.7708 16.2371 12.4966 15.6419 13.8941 14.5449L17.2841 17.9449C17.3771 18.0386 17.4877 18.113 17.6096 18.1638C17.7314 18.2145 17.8621 18.2407 17.9941 18.2407C18.1262 18.2407 18.2569 18.2145 18.3787 18.1638C18.5006 18.113 18.6112 18.0386 18.7041 17.9449C18.7979 17.8519 18.8723 17.7413 18.923 17.6194C18.9738 17.4976 18.9999 17.3669 18.9999 17.2349C18.9999 17.1029 18.9738 16.9721 18.923 16.8503C18.8723 16.7284 18.7979 16.6178 18.7041 16.5249ZM2.99414 8.23487C2.99414 7.04818 3.34604 5.88814 4.00533 4.90145C4.66461 3.91475 5.60169 3.14572 6.69804 2.69159C7.7944 2.23746 9.0008 2.11864 10.1647 2.35016C11.3286 2.58167 12.3977 3.15311 13.2368 3.99223C14.0759 4.83134 14.6473 5.90044 14.8789 7.06433C15.1104 8.22821 14.9915 9.43461 14.5374 10.531C14.0833 11.6273 13.3143 12.5644 12.3276 13.2237C11.3409 13.883 10.1808 14.2349 8.99414 14.2349C7.40285 14.2349 5.87672 13.6027 4.7515 12.4775C3.62629 11.3523 2.99414 9.82617 2.99414 8.23487Z" fill="white"/>
</svg>
