<svg width="76" height="75" viewBox="0 0 76 75" fill="none" xmlns="http://www.w3.org/2000/svg">
<g clip-path="url(#clip0_9073_8204)">
<path d="M35.6562 14.0625C38.5615 14.0625 41.2959 14.6118 43.8594 15.7104C46.4229 16.8091 48.6567 18.3228 50.561 20.2515C52.4653 22.1802 53.9668 24.4141 55.0654 26.9531C56.1641 29.4922 56.7256 32.2266 56.75 35.1562C56.75 36.6943 56.6523 38.1348 56.457 39.4775C56.2617 40.8203 55.9565 42.1021 55.5415 43.3228C55.1265 44.5435 54.5894 45.752 53.9302 46.9482C53.271 48.1445 52.4897 49.3652 51.5864 50.6104C50.8784 51.5869 50.2559 52.4658 49.7188 53.2471C49.1816 54.0283 48.7422 54.8096 48.4004 55.5908C48.0586 56.3721 47.8022 57.2266 47.6313 58.1543C47.4604 59.082 47.375 60.1685 47.375 61.4136V67.9688C47.375 68.9453 47.1919 69.8608 46.8257 70.7153C46.4595 71.5698 45.959 72.3145 45.3242 72.9492C44.6895 73.584 43.9448 74.0845 43.0903 74.4507C42.2358 74.8169 41.3203 75 40.3438 75H30.9688C29.9922 75 29.0767 74.8169 28.2222 74.4507C27.3677 74.0845 26.623 73.584 25.9883 72.9492C25.3535 72.3145 24.853 71.5698 24.4868 70.7153C24.1206 69.8608 23.9375 68.9453 23.9375 67.9688V61.377C23.9375 60.1318 23.8521 59.0576 23.6812 58.1543C23.5103 57.251 23.2539 56.4087 22.9121 55.6274C22.5703 54.8462 22.1309 54.0527 21.5938 53.2471C21.0566 52.4414 20.4341 51.5625 19.7261 50.6104C18.8228 49.3652 18.0537 48.1567 17.4189 46.9849C16.7842 45.813 16.2471 44.6045 15.8076 43.3594C15.3682 42.1143 15.0508 40.8203 14.8555 39.4775C14.6602 38.1348 14.5625 36.6943 14.5625 35.1562C14.5625 32.251 15.1118 29.5166 16.2104 26.9531C17.3091 24.3896 18.8228 22.1558 20.7515 20.2515C22.6802 18.3472 24.9141 16.8457 27.4531 15.7471C29.9922 14.6484 32.7266 14.0869 35.6562 14.0625ZM42.6875 67.9688V65.625H28.625V67.9688C28.625 68.6035 28.8569 69.1528 29.3208 69.6167C29.7847 70.0806 30.334 70.3125 30.9688 70.3125H40.3438C40.9785 70.3125 41.5278 70.0806 41.9917 69.6167C42.4556 69.1528 42.6875 68.6035 42.6875 67.9688ZM52.0625 35.1562C52.0625 32.8857 51.6353 30.7617 50.7808 28.7842C49.9263 26.8066 48.7544 25.061 47.2651 23.5474C45.7759 22.0337 44.0425 20.8618 42.0649 20.0317C40.0874 19.2017 37.9512 18.7744 35.6562 18.75C33.3857 18.75 31.2617 19.1772 29.2842 20.0317C27.3066 20.8862 25.561 22.0581 24.0474 23.5474C22.5337 25.0366 21.3618 26.77 20.5317 28.7476C19.7017 30.7251 19.2744 32.8613 19.25 35.1562C19.25 37.3291 19.4697 39.1968 19.9092 40.7593C20.3486 42.3218 20.9224 43.7134 21.6304 44.9341C22.3384 46.1548 23.083 47.3022 23.8643 48.3765C24.6455 49.4507 25.3901 50.5737 26.0981 51.7456C26.8062 52.9175 27.3921 54.2358 27.856 55.7007C28.3198 57.1655 28.5762 58.9111 28.625 60.9375H42.6875C42.7119 58.9111 42.9561 57.1777 43.4199 55.7373C43.8838 54.2969 44.4697 52.9785 45.1777 51.7822C45.8857 50.5859 46.6304 49.4629 47.4116 48.4131C48.1929 47.3633 48.9375 46.2158 49.6455 44.9707C50.3535 43.7256 50.9272 42.3218 51.3667 40.7593C51.8062 39.1968 52.0381 37.3291 52.0625 35.1562ZM35.6562 9.375C35.0215 9.375 34.4722 9.14307 34.0083 8.6792C33.5444 8.21533 33.3125 7.66602 33.3125 7.03125V2.34375C33.3125 1.70898 33.5444 1.15967 34.0083 0.695801C34.4722 0.231934 35.0215 0 35.6562 0C36.291 0 36.8403 0.231934 37.3042 0.695801C37.7681 1.15967 38 1.70898 38 2.34375V7.03125C38 7.66602 37.7681 8.21533 37.3042 8.6792C36.8403 9.14307 36.291 9.375 35.6562 9.375ZM7.53125 33.9844H2.84375C2.20898 33.9844 1.65967 33.7524 1.1958 33.2886C0.731934 32.8247 0.5 32.2754 0.5 31.6406C0.5 31.0059 0.731934 30.4565 1.1958 29.9927C1.65967 29.5288 2.20898 29.2969 2.84375 29.2969H7.53125C8.16602 29.2969 8.71533 29.5288 9.1792 29.9927C9.64307 30.4565 9.875 31.0059 9.875 31.6406C9.875 32.2754 9.64307 32.8247 9.1792 33.2886C8.71533 33.7524 8.16602 33.9844 7.53125 33.9844ZM9.47217 43.5425C10.1069 43.5425 10.6562 43.7744 11.1201 44.2383C11.584 44.7021 11.8159 45.2637 11.8159 45.9229C11.8159 46.4111 11.6816 46.8384 11.4131 47.2046C11.1445 47.5708 10.7783 47.8638 10.3145 48.0835C10.0459 48.2056 9.67969 48.3643 9.21582 48.5596C8.75195 48.7549 8.25146 48.9624 7.71436 49.1821C7.17725 49.4019 6.68896 49.585 6.24951 49.7314C5.81006 49.8779 5.41943 49.9634 5.07764 49.9878C4.44287 49.9878 3.89355 49.7559 3.42969 49.292C2.96582 48.8281 2.73389 48.2666 2.73389 47.6074C2.73389 47.1191 2.86816 46.6919 3.13672 46.3257C3.40527 45.9595 3.77148 45.6665 4.23535 45.4468C4.50391 45.3491 4.87012 45.1904 5.33398 44.9707C5.79785 44.751 6.29834 44.5435 6.83545 44.3481C7.37256 44.1528 7.86084 43.9697 8.30029 43.7988C8.73975 43.6279 9.13037 43.5425 9.47217 43.5425ZM15.0386 19.9219C15.0386 20.5566 14.8066 21.106 14.3428 21.5698C13.8789 22.0337 13.3296 22.2656 12.6948 22.2656C12.2554 22.2656 11.8525 22.1558 11.4863 21.936L7.49463 19.4824C7.15283 19.2627 6.88428 18.9819 6.68896 18.6401C6.49365 18.2983 6.38379 17.9077 6.35938 17.4683C6.35938 16.8335 6.59131 16.2842 7.05518 15.8203C7.51904 15.3564 8.06836 15.1245 8.70312 15.1245C9.09375 15.1245 9.49658 15.2466 9.91162 15.4907L13.9399 17.9077C14.2817 18.103 14.5503 18.3838 14.7456 18.75C14.9409 19.1162 15.0386 19.5068 15.0386 19.9219ZM18.0781 6.44531C18.0781 5.81055 18.3101 5.26123 18.7739 4.79736C19.2378 4.3335 19.7871 4.10156 20.4219 4.10156C20.8369 4.10156 21.2275 4.21143 21.5938 4.43115C21.96 4.65088 22.2529 4.94385 22.4727 5.31006L24.7432 9.41162C24.9385 9.75342 25.0361 10.1196 25.0361 10.5103C25.0361 11.1694 24.8042 11.731 24.3403 12.1948C23.8765 12.6587 23.3271 12.8906 22.6924 12.8906C22.2773 12.8906 21.8867 12.7808 21.5205 12.561C21.1543 12.3413 20.8613 12.0483 20.6416 11.6821L18.3711 7.58057C18.1758 7.23877 18.0781 6.86035 18.0781 6.44531ZM68.4688 29.2969C69.1035 29.2969 69.6528 29.5288 70.1167 29.9927C70.5806 30.4565 70.8125 31.0059 70.8125 31.6406C70.8125 32.2754 70.5806 32.8247 70.1167 33.2886C69.6528 33.7524 69.1035 33.9844 68.4688 33.9844H63.7812C63.1465 33.9844 62.5972 33.7524 62.1333 33.2886C61.6694 32.8247 61.4375 32.2754 61.4375 31.6406C61.4375 31.0059 61.6694 30.4565 62.1333 29.9927C62.5972 29.5288 63.1465 29.2969 63.7812 29.2969H68.4688ZM68.542 47.644C68.542 48.2788 68.3101 48.8281 67.8462 49.292C67.3823 49.7559 66.833 49.9878 66.1982 49.9878C65.9297 49.9878 65.5635 49.9146 65.0996 49.7681C64.6357 49.6216 64.1353 49.4263 63.5981 49.1821C63.061 48.938 62.5728 48.7305 62.1333 48.5596C61.6938 48.3887 61.3154 48.2178 60.998 48.0469C60.5586 47.8516 60.2046 47.5586 59.936 47.168C59.6675 46.7773 59.521 46.3379 59.4966 45.8496C59.4966 45.1904 59.7285 44.6411 60.1924 44.2017C60.6562 43.7622 61.2178 43.5303 61.877 43.5059C62.1699 43.5059 62.5483 43.5913 63.0122 43.7622C63.4761 43.9331 63.9644 44.1284 64.4771 44.3481C64.9897 44.5679 65.478 44.7876 65.9419 45.0073C66.4058 45.2271 66.7842 45.3857 67.0771 45.4834C67.5166 45.6787 67.8706 45.9595 68.1392 46.3257C68.4077 46.6919 68.542 47.1313 68.542 47.644ZM58.6177 22.2656C57.9829 22.2656 57.4336 22.0337 56.9697 21.5698C56.5059 21.106 56.2739 20.5566 56.2739 19.9219C56.2739 19.5068 56.3716 19.1162 56.5669 18.75C56.7622 18.3838 57.0308 18.103 57.3726 17.9077L61.4009 15.4907C61.8159 15.2466 62.2188 15.1245 62.6094 15.1245C63.2441 15.1245 63.7935 15.3564 64.2573 15.8203C64.7212 16.2842 64.9531 16.8335 64.9531 17.4683C64.9531 17.8833 64.8555 18.2617 64.6602 18.6035C64.4648 18.9453 64.1841 19.2383 63.8179 19.4824L59.8262 21.936C59.46 22.1558 59.0571 22.2656 58.6177 22.2656ZM46.2764 10.5103C46.2764 10.1196 46.374 9.75342 46.5693 9.41162L48.8398 5.31006C49.0352 4.94385 49.3159 4.65088 49.6821 4.43115C50.0483 4.21143 50.4512 4.10156 50.8906 4.10156C51.5254 4.10156 52.0747 4.3335 52.5386 4.79736C53.0024 5.26123 53.2344 5.81055 53.2344 6.44531C53.2344 6.86035 53.1367 7.23877 52.9414 7.58057L50.6709 11.6821C50.4756 12.0483 50.1948 12.3413 49.8286 12.561C49.4624 12.7808 49.0596 12.8906 48.6201 12.8906C47.9854 12.8906 47.436 12.6587 46.9722 12.1948C46.5083 11.731 46.2764 11.1694 46.2764 10.5103Z" fill="black"/>
</g>
<defs>
<clipPath id="clip0_9073_8204">
<rect width="75" height="75" fill="white" transform="translate(0.5)"/>
</clipPath>
</defs>
</svg>
