<svg width="25" height="25" viewBox="0 0 25 25" fill="none" xmlns="http://www.w3.org/2000/svg">
<path d="M11.1144 18.4235C10.777 19.1961 9.70776 19.1961 9.3704 18.4235L8.49275 16.4133C7.71171 14.6245 6.30589 13.2005 4.5523 12.4221L2.13658 11.3498C1.36854 11.0089 1.36854 9.89161 2.13658 9.55069L4.47685 8.51187C6.27553 7.71345 7.70657 6.23674 8.47427 4.38685L9.3633 2.24466C9.69319 1.4497 10.7916 1.4497 11.1215 2.24466L12.0105 4.38687C12.7782 6.23674 14.2092 7.71345 16.0079 8.51187L18.3482 9.55069C19.1162 9.89161 19.1162 11.0089 18.3482 11.3498L15.9325 12.4221C14.1789 13.2005 12.7731 14.6245 11.992 16.4133L11.1144 18.4235ZM5.03956 10.4503C7.3254 11.4649 9.18402 13.1327 10.2424 15.4275C11.3008 13.1327 13.1594 11.4649 15.4452 10.4503C13.1321 9.4235 11.2676 7.6744 10.2424 5.33881C9.21719 7.67441 7.35267 9.4235 5.03956 10.4503ZM19.9014 23.3178L20.1482 22.7521C20.5882 21.7435 21.3807 20.9404 22.3695 20.5011L23.1299 20.1632C23.5412 19.9805 23.5412 19.3828 23.1299 19.2001L22.4121 18.8811C21.3978 18.4305 20.5911 17.5977 20.1586 16.5548L19.9052 15.9435C19.7285 15.5175 19.1395 15.5175 18.9628 15.9435L18.7094 16.5548C18.277 17.5977 17.4703 18.4305 16.456 18.8811L15.7381 19.2001C15.3269 19.3828 15.3269 19.9805 15.7381 20.1632L16.4985 20.5011C17.4874 20.9404 18.2798 21.7435 18.7198 22.7521L18.9667 23.3178C19.1473 23.7319 19.7207 23.7319 19.9014 23.3178ZM18.8745 19.6748L19.437 19.1162L19.9878 19.6748L19.437 20.2177L18.8745 19.6748Z" fill="#6B15D9"/>
</svg>
