<svg width="58" height="58" viewBox="0 0 58 58" fill="none" xmlns="http://www.w3.org/2000/svg">
<path d="M20.0472 43.3998H38.0472V46.9998H20.0472V43.3998ZM23.6472 50.5998H34.4472V54.1998H23.6472V50.5998ZM29.0472 3.7998C24.2733 3.7998 19.6949 5.69623 16.3193 9.07188C12.9436 12.4475 11.0472 17.0259 11.0472 21.7998C10.9255 24.4158 11.4266 27.0233 12.5093 29.4079C13.592 31.7924 15.2255 33.8858 17.2752 35.5158C19.0752 37.1898 20.0472 38.1438 20.0472 39.7998H23.6472C23.6472 36.4878 21.6492 34.6338 19.7052 32.8518C18.0228 31.5635 16.682 29.8823 15.8002 27.9555C14.9184 26.0287 14.5225 23.9151 14.6472 21.7998C14.6472 17.9807 16.1643 14.318 18.8648 11.6175C21.5654 8.91694 25.2281 7.3998 29.0472 7.3998C32.8663 7.3998 36.529 8.91694 39.2295 11.6175C41.93 14.318 43.4472 17.9807 43.4472 21.7998C43.5698 23.9167 43.1711 26.0313 42.2861 27.9582C41.4011 29.8851 40.0568 31.5654 38.3712 32.8518C36.4452 34.6518 34.4472 36.4518 34.4472 39.7998H38.0472C38.0472 38.1438 39.0012 37.1898 40.8192 35.4978C42.8675 33.8706 44.5001 31.7803 45.5829 29.3989C46.6656 27.0175 47.1675 24.413 47.0472 21.7998C47.0472 19.436 46.5816 17.0954 45.677 14.9115C44.7724 12.7276 43.4466 10.7433 41.7751 9.07188C40.1036 7.40043 38.1193 6.07456 35.9355 5.16997C33.7516 4.26539 31.411 3.7998 29.0472 3.7998Z" fill="#DD6E20"/>
</svg>
