<svg width="46" height="46" viewBox="0 0 46 46" fill="none" xmlns="http://www.w3.org/2000/svg">
<path d="M12.1807 14.6001H23.3807V17.4001H12.1807V14.6001ZM12.1807 9.00014H28.9807V11.8001H12.1807V9.00014ZM12.1807 3.40015H28.9807V6.20014H12.1807V3.40015Z" fill="#DD6E20"/>
<path d="M7.57567 39.8001L15.4591 25.8057L25.8667 34.8917C26.1813 35.1717 26.555 35.3771 26.96 35.4926C27.3649 35.6081 27.7907 35.6308 28.2057 35.5589C28.6207 35.4871 29.0141 35.3225 29.3566 35.0776C29.6992 34.8326 29.9821 34.5136 30.1843 34.1441L39.9422 19.5799L37.6168 18.0203L27.8169 32.6475L27.7189 32.7917L17.3099 23.7057C16.9954 23.4274 16.6223 23.2232 16.2183 23.1083C15.8144 22.9935 15.3897 22.9708 14.9758 23.042C14.5619 23.1133 14.1693 23.2766 13.8269 23.5199C13.4846 23.7632 13.2012 24.0803 12.9979 24.4477L6.58027 35.8563V3.40015H3.78027V39.8001C3.78101 40.5425 4.07625 41.2543 4.60119 41.7792C5.12613 42.3041 5.83789 42.5994 6.58027 42.6001H42.9802V39.8001H7.57567Z" fill="#DD6E20"/>
</svg>
