<svg width="66" height="66" viewBox="0 0 66 66" fill="none" xmlns="http://www.w3.org/2000/svg">
<path d="M44.0397 21.9604H18.2418V27.9928H44.0397V21.9604ZM43.0085 26.9616H19.2731V22.9917H43.0085V26.9616ZM23.1937 25.4922H21.8049V24.461H23.1937V25.4922ZM25.7839 25.4922H24.3946V24.461H25.7839V25.4922ZM28.3741 25.4922H26.9848V24.461H28.3741V25.4922ZM18.5294 33.2649H20.5194V34.2961H18.5294V33.2649ZM32.8354 45.2169C34.3992 45.217 35.9146 44.6749 37.1234 43.6829C38.3323 42.691 39.1598 41.3106 39.465 39.7769C39.7701 38.2432 39.5341 36.6512 38.797 35.2721C38.06 33.8929 36.8675 32.812 35.4229 32.2135C33.9782 31.615 32.3707 31.5359 30.8743 31.9898C29.3779 32.4436 28.0851 33.4023 27.2162 34.7024C26.3474 36.0026 25.9563 37.5638 26.1094 39.12C26.2626 40.6762 26.9507 42.1312 28.0563 43.2369C28.6824 43.8667 29.4271 44.366 30.2475 44.7058C31.0678 45.0457 31.9475 45.2194 32.8354 45.2169ZM28.7855 34.4089C29.7223 33.472 30.9551 32.8889 32.2737 32.759C33.5923 32.6291 34.9151 32.9604 36.0168 33.6965C37.1185 34.4326 37.9308 35.5279 38.3155 36.7958C38.7001 38.0637 38.6332 39.4258 38.1262 40.6499C37.6192 41.874 36.7034 42.8844 35.5349 43.509C34.3664 44.1336 33.0174 44.3338 31.7179 44.0753C30.4184 43.8168 29.2487 43.1157 28.4082 42.0915C27.5676 41.0673 27.1082 39.7833 27.1082 38.4584C27.1062 37.706 27.2534 36.9607 27.5413 36.2657C27.8292 35.5706 28.2521 34.9395 28.7855 34.4089ZM52.6261 52.1375L49.9916 49.503V19.924L49.9689 15.4788L41.162 6.67192H12.29V55.4186H43.6836L46.5141 58.2495C47.2083 58.9415 48.1486 59.3301 49.1288 59.3301C50.109 59.3301 51.0492 58.9415 51.7434 58.2495L52.6261 57.3663C53.3183 56.6722 53.707 55.7321 53.707 54.7519C53.707 53.7717 53.3182 52.8315 52.6261 52.1375ZM48.2095 15.1777H41.5185L41.4914 8.45957L48.2095 15.1777ZM13.3213 54.3873V7.70312H40.4571L40.4913 16.2089H48.9398L48.9596 48.4709L45.1777 44.6892L44.083 45.7838L41.3327 43.0335C42.4309 40.9939 42.7588 38.6274 42.2564 36.366C41.754 34.1047 40.4549 32.0996 38.5963 30.7169C36.7378 29.3343 34.4439 28.6663 32.1336 28.8352C29.8233 29.004 27.6508 29.9982 26.013 31.6364C25.5211 32.1308 25.0838 32.6768 24.7088 33.2648H22.2395V34.2961H24.1382C23.5128 35.5945 23.1878 37.0171 23.1871 38.4583C23.1871 38.6042 23.2018 38.7476 23.2083 38.8924H18.1985V39.9236H23.3087C23.5602 41.6085 24.2583 43.1952 25.3306 44.519H18.1985V45.5503H26.3104C27.7837 46.9116 29.6453 47.7789 31.6354 48.0309C33.6254 48.283 35.6445 47.9072 37.4106 46.9561L40.1605 49.7056L39.0657 50.8002L42.6524 54.3874L13.3213 54.3873ZM42.1218 47.7446L40.8896 48.9763L38.3107 46.3979C39.2778 45.7364 40.1133 44.9008 40.7746 43.9336L43.3538 46.5128L42.1218 47.7446ZM26.7421 32.3655C28.1517 30.9559 30.0065 30.0787 31.9904 29.8833C33.9743 29.6879 35.9645 30.1864 37.622 31.294C39.2795 32.4015 40.5018 34.0495 41.0804 35.9571C41.6591 37.8648 41.5584 39.914 40.7956 41.7558C40.0327 43.5975 38.6548 45.1178 36.8967 46.0575C35.1386 46.9972 33.1091 47.2982 31.1539 46.9093C29.1987 46.5204 27.4389 45.4656 26.1742 43.9246C24.9096 42.3836 24.2184 40.4518 24.2184 38.4583C24.2154 37.3264 24.4369 36.205 24.8701 35.1592C25.3033 34.1134 25.9396 33.1638 26.7421 32.3655ZM51.897 56.6371L51.0142 57.5204C50.5137 58.0195 49.8356 58.2998 49.1287 58.2998C48.4218 58.2998 47.7437 58.0195 47.2432 57.5204L40.524 50.8001L42.8508 48.4738L44.8121 46.513L45.1777 46.1474L51.8969 52.8666C52.3959 53.3672 52.676 54.0451 52.676 54.7519C52.676 55.4586 52.3959 56.1366 51.897 56.6371ZM25.3085 14.513H23.8911V13.4818H25.3085V14.513ZM22.666 14.513H21.2485V13.4818H22.666L22.666 14.513ZM20.0229 14.513H18.6054V13.4818H20.0229V14.513ZM34.8652 39.6417H33.4483V38.6104H34.8652V39.6417ZM32.2226 39.6417H30.8052V38.6104H32.2226V39.6417ZM49.9855 9.70218H48.6688V8.67093H49.9855V9.70218ZM47.5303 9.70218H46.213V8.67093H47.5303L47.5303 9.70218ZM49.9855 7.70312H48.6688V6.67188H49.9855V7.70312ZM47.5303 7.70312H46.213V6.67188H47.5303L47.5303 7.70312ZM42.159 57.8618H43.5407V58.893H42.159V57.8618ZM39.5824 57.8618H40.9641V58.893H39.5824V57.8618ZM37.0053 57.8618H38.3875V58.893H37.0053L37.0053 57.8618ZM34.4287 57.8618H35.8109V58.893H34.4286L34.4287 57.8618ZM43.5241 18.4265H18.6054V17.3953H43.5241L43.5241 18.4265ZM38.3774 14.513H26.9848V13.4818H38.3774L38.3774 14.513Z" fill="#D8A353"/>
</svg>
