<svg width="66" height="66" viewBox="0 0 66 66" fill="none" xmlns="http://www.w3.org/2000/svg">
<path d="M59.8125 37.125L52.5938 43.3125L45.375 37.125H50.5312L49.5 29.9062H55.6875L54.6562 37.125H59.8125Z" fill="#EC455A"/>
<path d="M49.5 19.5938L45.7772 24.75H20.2228L16.5 19.5938H49.5Z" fill="#3780EA"/>
<path d="M45.777 24.75L36.0936 38.1562V46.4062L29.9061 42.2812V38.1562L20.2227 24.75H45.777Z" fill="#5BCBFA"/>
<path d="M22.6875 37.125L15.4688 43.3125L8.25 37.125H13.4062L12.375 29.9062H18.5625L17.5312 37.125H22.6875Z" fill="#EC455A"/>
<path d="M24.75 52.5938H6.1875V62.9062H24.75V52.5938Z" fill="#EE8647"/>
<path d="M24.75 52.5938V48.4688H15.4688L13.4062 46.4062H6.1875V52.5938H24.75Z" fill="#F6CC4F"/>
<path d="M59.8125 52.5938H41.25V62.9062H59.8125V52.5938Z" fill="#EE8647"/>
<path d="M59.8125 52.5938V48.4688H50.5312L48.4688 46.4062H41.25V52.5938H59.8125Z" fill="#F6CC4F"/>
<path d="M14.4375 8.25H17.5312C17.8048 8.25 18.0671 8.14135 18.2605 7.94795C18.4539 7.75456 18.5625 7.49225 18.5625 7.21875V3.09375C18.5625 2.82025 18.4539 2.55794 18.2605 2.36455C18.0671 2.17115 17.8048 2.0625 17.5312 2.0625H14.4375C14.164 2.0625 13.9017 2.17115 13.7083 2.36455C13.5149 2.55794 13.4062 2.82025 13.4062 3.09375V7.21875C13.4062 7.49225 13.5149 7.75456 13.7083 7.94795C13.9017 8.14135 14.164 8.25 14.4375 8.25ZM15.4688 4.125H16.5V6.1875H15.4688V4.125Z" fill="#2D2D30"/>
<path d="M22.6875 2.0625H20.625V8.25H22.6875V2.0625Z" fill="#2D2D30"/>
<path d="M25.7812 8.25H28.875C29.1485 8.25 29.4108 8.14135 29.6042 7.94795C29.7976 7.75456 29.9062 7.49225 29.9062 7.21875V3.09375C29.9062 2.82025 29.7976 2.55794 29.6042 2.36455C29.4108 2.17115 29.1485 2.0625 28.875 2.0625H25.7812C25.5077 2.0625 25.2454 2.17115 25.052 2.36455C24.8586 2.55794 24.75 2.82025 24.75 3.09375V7.21875C24.75 7.49225 24.8586 7.75456 25.052 7.94795C25.2454 8.14135 25.5077 8.25 25.7812 8.25ZM26.8125 4.125H27.8438V6.1875H26.8125V4.125Z" fill="#2D2D30"/>
<path d="M34.0312 2.0625H31.9688V8.25H34.0312V2.0625Z" fill="#2D2D30"/>
<path d="M37.125 8.25H40.2188C40.4923 8.25 40.7546 8.14135 40.948 7.94795C41.1414 7.75456 41.25 7.49225 41.25 7.21875V3.09375C41.25 2.82025 41.1414 2.55794 40.948 2.36455C40.7546 2.17115 40.4923 2.0625 40.2188 2.0625H37.125C36.8515 2.0625 36.5892 2.17115 36.3958 2.36455C36.2024 2.55794 36.0938 2.82025 36.0938 3.09375V7.21875C36.0938 7.49225 36.2024 7.75456 36.3958 7.94795C36.5892 8.14135 36.8515 8.25 37.125 8.25ZM38.1562 4.125H39.1875V6.1875H38.1562V4.125Z" fill="#2D2D30"/>
<path d="M45.375 2.0625H43.3125V8.25H45.375V2.0625Z" fill="#2D2D30"/>
<path d="M48.4688 8.25H51.5625C51.836 8.25 52.0983 8.14135 52.2917 7.94795C52.4851 7.75456 52.5938 7.49225 52.5938 7.21875V3.09375C52.5938 2.82025 52.4851 2.55794 52.2917 2.36455C52.0983 2.17115 51.836 2.0625 51.5625 2.0625H48.4688C48.1952 2.0625 47.9329 2.17115 47.7395 2.36455C47.5461 2.55794 47.4375 2.82025 47.4375 3.09375V7.21875C47.4375 7.49225 47.5461 7.75456 47.7395 7.94795C47.9329 8.14135 48.1952 8.25 48.4688 8.25ZM49.5 4.125H50.5312V6.1875H49.5V4.125Z" fill="#2D2D30"/>
<path d="M18.5625 10.3125H16.5V16.5H18.5625V10.3125Z" fill="#2D2D30"/>
<path d="M21.6562 16.5H24.75C25.0235 16.5 25.2858 16.3914 25.4792 16.198C25.6726 16.0046 25.7812 15.7423 25.7812 15.4688V11.3438C25.7812 11.0702 25.6726 10.8079 25.4792 10.6145C25.2858 10.4211 25.0235 10.3125 24.75 10.3125H21.6562C21.3827 10.3125 21.1204 10.4211 20.927 10.6145C20.7336 10.8079 20.625 11.0702 20.625 11.3438V15.4688C20.625 15.7423 20.7336 16.0046 20.927 16.198C21.1204 16.3914 21.3827 16.5 21.6562 16.5ZM22.6875 12.375H23.7188V14.4375H22.6875V12.375Z" fill="#2D2D30"/>
<path d="M29.9062 10.3125H27.8438V16.5H29.9062V10.3125Z" fill="#2D2D30"/>
<path d="M33 16.5H36.0938C36.3673 16.5 36.6296 16.3914 36.823 16.198C37.0164 16.0046 37.125 15.7423 37.125 15.4688V11.3438C37.125 11.0702 37.0164 10.8079 36.823 10.6145C36.6296 10.4211 36.3673 10.3125 36.0938 10.3125H33C32.7265 10.3125 32.4642 10.4211 32.2708 10.6145C32.0774 10.8079 31.9688 11.0702 31.9688 11.3438V15.4688C31.9688 15.7423 32.0774 16.0046 32.2708 16.198C32.4642 16.3914 32.7265 16.5 33 16.5ZM34.0312 12.375H35.0625V14.4375H34.0312V12.375Z" fill="#2D2D30"/>
<path d="M41.25 10.3125H39.1875V16.5H41.25V10.3125Z" fill="#2D2D30"/>
<path d="M44.3438 16.5H47.4375C47.711 16.5 47.9733 16.3914 48.1667 16.198C48.3601 16.0046 48.4688 15.7423 48.4688 15.4688V11.3438C48.4688 11.0702 48.3601 10.8079 48.1667 10.6145C47.9733 10.4211 47.711 10.3125 47.4375 10.3125H44.3438C44.0702 10.3125 43.8079 10.4211 43.6145 10.6145C43.4211 10.8079 43.3125 11.0702 43.3125 11.3438V15.4688C43.3125 15.7423 43.4211 16.0046 43.6145 16.198C43.8079 16.3914 44.0702 16.5 44.3438 16.5ZM45.375 12.375H46.4062V14.4375H45.375V12.375Z" fill="#2D2D30"/>
<path d="M13.4062 58.7812H9.28125V60.8438H13.4062V58.7812Z" fill="#F6CC4F"/>
<path d="M48.4688 58.7812H44.3438V60.8438H48.4688V58.7812Z" fill="#F6CC4F"/>
</svg>
