<svg width="58" height="58" viewBox="0 0 58 58" fill="none" xmlns="http://www.w3.org/2000/svg">
<path d="M28.7145 6.2002C25.6911 6.2002 22.7914 7.40126 20.6535 9.53918C18.5156 11.6771 17.3145 14.5767 17.3145 17.6002C17.3145 20.6237 18.5156 23.5233 20.6535 25.6612C22.7914 27.7991 25.6911 29.0002 28.7145 29.0002C31.738 29.0002 34.6376 27.7991 36.7755 25.6612C38.9135 23.5233 40.1145 20.6237 40.1145 17.6002C40.1145 14.5767 38.9135 11.6771 36.7755 9.53918C34.6376 7.40126 31.738 6.2002 28.7145 6.2002ZM20.1645 17.6002C20.1645 15.3326 21.0653 13.1579 22.6688 11.5544C24.2722 9.951 26.4469 9.0502 28.7145 9.0502C30.9821 9.0502 33.1569 9.951 34.7603 11.5544C36.3637 13.1579 37.2645 15.3326 37.2645 17.6002C37.2645 19.8678 36.3637 22.0425 34.7603 23.646C33.1569 25.2494 30.9821 26.1502 28.7145 26.1502C26.4469 26.1502 24.2722 25.2494 22.6688 23.646C21.0653 22.0425 20.1645 19.8678 20.1645 17.6002ZM42.5798 48.3716C39.5274 50.3182 35.5859 51.404 31.2881 51.709C31.0738 51.143 30.7415 50.6291 30.3134 50.2013L29.0594 48.9473C33.8616 48.9017 38.0654 47.8672 41.0465 45.9662C44.039 44.0567 45.8145 41.2837 45.8145 37.5502C45.8145 36.7943 45.5143 36.0694 44.9798 35.5349C44.4453 35.0005 43.7204 34.7002 42.9645 34.7002H25.1349C24.7789 33.6942 24.2982 32.7367 23.7042 31.8502H42.9645C44.4763 31.8502 45.9261 32.4507 46.995 33.5197C48.064 34.5886 48.6645 36.0385 48.6645 37.5502C48.6645 42.3695 46.2905 46.0033 42.5798 48.3716ZM13.0395 48.9502C15.2796 48.9502 17.3487 48.2092 19.0131 46.9637L26.2806 54.2312C26.4129 54.3637 26.57 54.4689 26.743 54.5406C26.9159 54.6124 27.1013 54.6494 27.2885 54.6496C27.4758 54.6497 27.6612 54.6129 27.8342 54.5414C28.0073 54.4699 28.1645 54.365 28.297 54.2327C28.4295 54.1004 28.5346 53.9433 28.6064 53.7703C28.6782 53.5974 28.7152 53.412 28.7153 53.2248C28.7155 53.0375 28.6787 52.8521 28.6072 52.6791C28.5356 52.506 28.4307 52.3488 28.2984 52.2163L21.0309 44.9488C22.3762 43.1498 23.0748 40.9494 23.0137 38.7039C22.9526 36.4584 22.1354 34.2993 20.6943 32.5761C19.2533 30.8529 17.2728 29.6666 15.0735 29.2092C12.8742 28.7518 10.585 29.0501 8.57635 30.0558C6.56774 31.0616 4.9574 32.7158 4.00608 34.7508C3.05476 36.7857 2.81815 39.0822 3.33456 41.2684C3.85097 43.4545 5.09017 45.4024 6.85151 46.7966C8.61284 48.1907 10.7932 48.9496 13.0395 48.9502ZM13.0395 46.1002C11.1499 46.1002 9.33759 45.3495 8.00139 44.0133C6.6652 42.6771 5.91453 40.8649 5.91453 38.9752C5.91453 37.0855 6.6652 35.2733 8.00139 33.9371C9.33759 32.6009 11.1499 31.8502 13.0395 31.8502C14.9292 31.8502 16.7415 32.6009 18.0777 33.9371C19.4139 35.2733 20.1645 37.0855 20.1645 38.9752C20.1645 40.8649 19.4139 42.6771 18.0777 44.0133C16.7415 45.3495 14.9292 46.1002 13.0395 46.1002Z" fill="#DD6E20"/>
</svg>
