<svg width="75" height="75" viewBox="0 0 75 75" fill="none" xmlns="http://www.w3.org/2000/svg">
<path d="M60.2209 26.9413C60.2209 14.0813 50.1267 3.65625 37.6749 3.65625C25.2231 3.65625 15.1289 14.0814 15.1289 26.9413C15.1289 32.7567 17.1933 38.0739 20.6063 42.1545H20.6061L25.5376 51.094C26.8257 53.4788 27.3038 55.0187 29.4623 55.0187H45.5424C47.701 55.0187 48.336 53.3971 49.467 51.094L54.7437 42.1545H54.7434C58.1563 38.0739 60.2209 32.7567 60.2209 26.9413Z" fill="#FFE46A"/>
<path d="M16.5245 29.7771C16.5245 16.4878 26.5408 5.50444 39.5439 3.74399C38.8952 3.68604 38.2442 3.65676 37.5929 3.65625C25.1411 3.65625 15.0469 14.0814 15.0469 26.9413C15.0469 31.1732 16.141 35.1406 18.0516 38.5603C17.0628 35.8138 16.5245 32.8573 16.5245 29.7771Z" fill="#FFF0B7"/>
<path d="M60.2218 26.9904C60.2218 22.3842 58.9265 18.0908 56.692 14.4766C57.1704 16.3639 57.4123 18.3034 57.4123 20.2504C57.4123 35.5513 42.5971 48.0124 24.0898 48.517L25.5386 51.1434C26.8266 53.5281 27.3047 55.068 29.4632 55.068H45.5434C47.702 55.068 48.337 53.4464 49.468 51.1434L54.7446 42.2039H54.7443C58.1573 38.1231 60.2218 32.8059 60.2218 26.9904Z" fill="#FFDA00"/>
<path d="M47.1544 30.9397C47.1762 30.9205 47.1979 30.903 47.2199 30.8819C47.6281 30.4912 47.9643 29.868 47.6829 29.29C46.5288 26.9205 42.9998 26.1687 40.4284 26.9534C40.2982 26.9931 40.1719 27.0363 40.0493 27.0831C38.6486 26.2653 36.9096 26.0687 35.3617 26.5603C35.1784 26.6182 34.9985 26.6864 34.8229 26.7645C33.9755 26.2694 32.9842 26.0224 31.9966 26.1179C29.9294 26.3178 28.1331 27.9944 27.7771 30.0366L27.6143 30.1374C29.023 32.4139 32.731 38.9369 32.9686 41.7438C33.2681 45.2849 32.9688 54.8971 32.9658 54.9938L34.7227 55.0493C34.7353 54.6504 35.0283 45.2381 34.7199 41.5956C34.5825 39.9715 33.5888 37.383 31.7662 33.9021C30.9156 32.2773 30.0897 30.8508 29.5897 30.0091C29.9354 28.8891 30.9975 27.9806 32.1658 27.8677C32.5216 27.8332 32.8826 27.8731 33.228 27.9744C33.098 28.1409 32.9842 28.3193 32.8881 28.5074C32.2953 29.6697 32.543 31.1291 33.4643 31.9023C34.0099 32.36 34.8027 32.5286 35.5336 32.3417C36.2144 32.1677 36.7405 31.7203 36.9771 31.1143C37.1896 30.5697 37.1716 29.941 36.9233 29.2458C36.7796 28.8458 36.5798 28.4683 36.3301 28.1244C36.9935 27.9966 37.6782 28.034 38.3237 28.2334C38.0725 28.5227 37.8803 28.8447 37.7539 29.1938C37.4838 29.941 37.6032 30.829 38.0656 31.5115C38.4642 32.0997 39.0699 32.4494 39.7279 32.4711C39.75 32.4719 39.772 32.4722 39.7938 32.4722C40.3703 32.4722 40.9174 32.2244 41.341 31.7696C41.8386 31.2353 42.0919 30.4937 42.0184 29.7856C41.9716 29.3354 41.8115 28.8951 41.5537 28.4867C43.3461 28.1611 45.0994 28.7666 45.8579 29.6858C45.4001 30.4475 44.4601 32.0457 43.488 33.9024C41.6656 37.3834 40.6716 39.9719 40.5343 41.5959C40.2261 45.2384 40.5191 54.6507 40.5315 55.0496L42.2885 54.9941C42.2854 54.8974 41.9861 45.2858 42.2857 41.7441C42.4994 39.2171 45.5249 33.6807 47.1544 30.9397ZM35.3394 30.4752C35.2985 30.5801 35.1444 30.6268 35.0981 30.6387C34.915 30.6854 34.7078 30.6513 34.5939 30.5559C34.2988 30.3082 34.2346 29.7358 34.4538 29.3061C34.5257 29.1678 34.6169 29.0404 34.7248 28.9278C34.9607 29.1955 35.1484 29.5029 35.2678 29.8371C35.3652 30.1096 35.3913 30.3424 35.3394 30.4752ZM40.0547 30.571C40.0033 30.626 39.8987 30.7163 39.7854 30.714C39.6636 30.71 39.5672 30.594 39.5205 30.5252C39.375 30.3103 39.3283 30.0085 39.4068 29.7914C39.4974 29.5409 39.6721 29.336 39.876 29.1711C40.1031 29.4276 40.2424 29.7034 40.2698 29.9671C40.2909 30.1679 40.2043 30.4105 40.0547 30.571Z" fill="#FAAF63"/>
<path d="M46.2795 58.9883H28.9893C28.0225 58.9883 27.2314 59.7793 27.2314 60.7461V61.7652C27.2314 62.732 28.0225 63.523 28.9893 63.523H34.5735C32.9084 64.1425 31.1503 65.6155 31.1503 67.3237V68.0092C32.4867 69.5113 33.7312 72.1227 36.1018 72.1227H39.3084C41.1757 72.1227 42.5023 70.1067 44.1183 68.0092V67.3237C44.1183 65.6155 42.4409 64.1425 40.8154 63.523H46.2795C47.2463 63.523 48.0374 62.732 48.0374 61.7652V60.7461C48.0374 59.7793 47.2463 58.9883 46.2795 58.9883Z" fill="#6B83A5"/>
<path d="M47.52 58.9878H27.7471C26.7803 58.9878 25.9893 58.1968 25.9893 57.23V56.2109C25.9893 55.2441 26.7803 54.4531 27.7471 54.4531H47.52C48.4868 54.4531 49.2778 55.2441 49.2778 56.2109V57.23C49.2778 58.1968 48.4868 58.9878 47.52 58.9878ZM46.4936 66.2996V65.2805C46.4936 64.3137 45.7025 63.5227 44.7357 63.5227H30.5313C29.5645 63.5227 28.7735 64.3137 28.7735 65.2805V66.2996C28.7735 67.2664 29.5645 68.0574 30.5313 68.0574H44.7357C45.7025 68.0574 46.4936 67.2664 46.4936 66.2996Z" fill="#ABBDDB"/>
</svg>
