<svg width="24" height="24" viewBox="0 0 24 24" fill="none" xmlns="http://www.w3.org/2000/svg">
<g clip-path="url(#clip0_8836_4626)">
<path d="M23.8511 11.5931H23.0595V4.07745C23.0595 4.04015 23.0447 4.00438 23.0183 3.97801C22.992 3.95164 22.9562 3.93682 22.9189 3.93682H20.5119C20.4746 3.93682 20.4388 3.95164 20.4125 3.97801C20.3861 4.00438 20.3713 4.04015 20.3713 4.07745V11.5931H18.702V6.72748C18.702 6.69018 18.6872 6.65441 18.6608 6.62804C18.6344 6.60167 18.5986 6.58685 18.5613 6.58685H16.1544C16.1171 6.58685 16.0813 6.60167 16.0549 6.62804C16.0286 6.65441 16.0137 6.69018 16.0137 6.72748V11.5931H14.3445V7.92551C14.3445 7.88821 14.3297 7.85245 14.3033 7.82607C14.2769 7.7997 14.2411 7.78488 14.2038 7.78488H11.7969C11.7596 7.78488 11.7238 7.7997 11.6974 7.82607C11.6711 7.85245 11.6562 7.88821 11.6562 7.92551V11.5931H9.72935C10.4391 11.2578 10.8218 10.8359 10.8224 10.3721V8.06684C10.8224 8.06515 10.8227 8.06351 10.8227 8.06182C10.8227 8.06088 10.8224 8.05999 10.8224 8.0591V5.7559C10.8224 5.75435 10.8227 5.75285 10.8227 5.75121C10.8227 5.75037 10.8227 5.74957 10.8224 5.74873V3.44028C10.8224 2.36417 8.65211 1.52121 5.88119 1.52121C3.11027 1.52121 0.94005 2.36435 0.94005 3.44028V10.3723C0.940706 10.8357 1.32353 11.2575 2.03355 11.5929H0.148472C0.111176 11.5929 0.075407 11.6077 0.0490347 11.6341C0.0226624 11.6605 0.0078466 11.6962 0.0078466 11.7335C0.00389651 13.4193 0.34321 15.0882 1.00511 16.6386C1.6379 18.1262 2.55935 19.4736 3.71617 20.6029C5.9561 22.7933 8.89793 23.9997 11.9998 23.9997C13.0249 24.0001 14.0457 23.8665 15.0363 23.6024C18.1962 22.7597 20.9176 20.5927 22.5026 17.6571C23.4815 15.8363 23.9932 13.801 23.9917 11.7337C23.9917 11.6964 23.9769 11.6607 23.9505 11.6343C23.9242 11.6079 23.8884 11.5931 23.8511 11.5931ZM20.6525 4.21807H22.7783V11.5931H20.6525V4.21807ZM16.295 6.86801H18.4207V11.593H16.295V6.86801ZM11.9375 8.06614H14.0632V11.5931H11.9375V8.06614ZM10.5412 8.06614C10.5383 8.42867 10.16 8.79153 9.47477 9.08838C8.57791 9.47693 7.26827 9.69978 5.88157 9.69978C4.49486 9.69978 3.18522 9.47693 2.28841 9.08838C1.60047 8.7904 1.22163 8.42581 1.22163 8.06182C1.22163 8.06107 1.22163 8.06037 1.22163 8.05962V6.4084C1.42924 6.63898 1.74911 6.85043 2.17685 7.03521C3.10764 7.43834 4.45807 7.66976 5.8818 7.66976C7.30553 7.66976 8.65596 7.43848 9.58666 7.03526C10.0141 6.85062 10.3338 6.63935 10.5415 6.40901L10.5412 8.06614ZM5.88128 1.8026C8.66875 1.8026 10.5413 2.64949 10.5413 3.44046C10.5413 4.23143 8.66875 5.07832 5.88128 5.07832C3.09382 5.07832 1.2213 4.23143 1.2213 3.44028C1.2213 2.64912 3.09382 1.8026 5.88128 1.8026ZM5.88128 5.35957C8.06097 5.35957 9.86908 4.83776 10.5413 4.09123V5.75529C10.5386 6.1182 10.1603 6.48087 9.47482 6.77717C8.57796 7.16571 7.26832 7.38851 5.88161 7.38851C4.49491 7.38851 3.18527 7.16571 2.28832 6.77712C1.60047 6.47988 1.22167 6.11567 1.22167 5.75149C1.22167 5.75051 1.22167 5.74962 1.22139 5.74868V4.09123C1.89353 4.83776 3.70146 5.35957 5.88128 5.35957ZM1.22149 10.3723V8.7184C1.4291 8.94907 1.74897 9.16081 2.17666 9.3461C3.10746 9.74923 4.45788 9.98065 5.88161 9.98065C7.30535 9.98065 8.65572 9.74965 9.58652 9.34653C10.0139 9.16137 10.3336 8.94982 10.5412 8.71938V10.3722C10.5406 10.8236 9.94544 11.2794 8.94822 11.5933H2.81472C1.81736 11.2789 1.2221 10.8231 1.22149 10.3723ZM0.289894 11.8744H4.66652C4.83616 11.9379 4.93839 12.0234 4.99413 12.1502C5.16335 12.5322 4.77564 13.0395 4.36521 13.5767C3.89153 14.1967 3.35463 14.8993 3.56486 15.6058C3.77168 16.3004 4.55744 16.5424 5.25068 16.7561C5.81013 16.9284 6.33855 17.0912 6.45025 17.442C6.5778 17.8425 6.22268 18.6663 3.83121 20.3201C1.57947 18.0774 0.325472 15.0877 0.289894 11.8744ZM15.1438 23.2801C15.1455 22.9117 15.1211 22.5437 15.0708 22.1788C14.8037 20.254 13.8364 18.6844 13.1962 17.646C12.8471 17.0795 12.486 16.4937 12.6094 16.3654C12.6406 16.333 12.7623 16.2792 13.2165 16.4795C13.5728 16.6366 14.028 16.9023 14.5097 17.1835C15.9059 17.9987 17.4883 18.9226 18.3243 18.2921C18.8821 17.871 18.8095 16.9762 18.7452 16.1868C18.6993 15.6237 18.6519 15.0414 18.8858 14.9074C19.1283 14.7688 19.8826 14.9394 22.208 17.6082C20.6839 20.3769 18.1217 22.4327 15.1438 23.2801ZM22.3503 17.3434C19.8738 14.5165 19.1074 14.4567 18.7462 14.6631C18.3571 14.886 18.407 15.4993 18.4649 16.2094C18.5233 16.9266 18.5895 17.7395 18.1549 18.0674C17.4686 18.5851 15.9066 17.6732 14.6516 16.9405C13.5416 16.2925 12.7398 15.8244 12.4068 16.1703C12.1323 16.4556 12.4426 16.9592 12.9568 17.7934C13.5846 18.812 14.5334 20.3512 14.7923 22.2175C14.8443 22.595 14.8675 22.976 14.8617 23.357C13.9267 23.5972 12.9651 23.7187 11.9998 23.7184C9.02838 23.7184 6.20763 22.5834 4.03643 20.5198C6.06832 19.1083 6.94628 18.0729 6.71824 17.3566C6.56186 16.8657 5.96519 16.6819 5.33346 16.4873C4.67721 16.2851 3.99832 16.0759 3.83444 15.5256C3.66499 14.9563 4.13444 14.3418 4.58871 13.7475C5.05118 13.1422 5.488 12.5705 5.25133 12.0365C5.22547 11.9783 5.19199 11.9238 5.15177 11.8744H23.7096C23.689 13.7784 23.2235 15.6513 22.3503 17.3434ZM12.9994 5.88354C12.994 5.86589 12.9921 5.84734 12.9938 5.82896C12.9955 5.81057 13.0009 5.7927 13.0095 5.77637C13.0181 5.76005 13.0299 5.74558 13.0441 5.7338C13.0583 5.72202 13.0747 5.71315 13.0924 5.70771C13.1346 5.69468 17.2833 4.38115 21.2076 0.329041L19.6322 0.526666C19.6137 0.529169 19.595 0.527996 19.577 0.523214C19.5591 0.518432 19.5422 0.510136 19.5275 0.498806C19.5128 0.487476 19.5004 0.473337 19.4912 0.457207C19.482 0.441076 19.476 0.423274 19.4737 0.404831C19.4714 0.386387 19.4727 0.367667 19.4777 0.349754C19.4827 0.331842 19.4911 0.315091 19.5026 0.300471C19.5141 0.285852 19.5284 0.273653 19.5446 0.264581C19.5608 0.25551 19.5787 0.249744 19.5971 0.247619L21.5644 0.000869043C21.5853 -0.00145145 21.6065 0.000889161 21.6264 0.00772245C21.6463 0.0145557 21.6644 0.0257118 21.6794 0.0403879C21.6945 0.055064 21.7061 0.0728952 21.7135 0.0925985C21.7208 0.112302 21.7237 0.133387 21.7219 0.154338L21.5201 2.15473C21.5166 2.18939 21.5004 2.22153 21.4746 2.24491C21.4487 2.26829 21.4152 2.28126 21.3803 2.28129C21.3756 2.2813 21.3709 2.28107 21.3663 2.28059C21.3479 2.27874 21.33 2.27328 21.3138 2.26454C21.2975 2.2558 21.2831 2.24393 21.2714 2.22963C21.2598 2.21533 21.251 2.19886 21.2457 2.18118C21.2404 2.16349 21.2386 2.14493 21.2404 2.12656L21.4013 0.533791C19.7838 2.20179 17.9289 3.62187 15.8966 4.74809C14.3 5.62582 13.2204 5.96262 13.1752 5.97654C13.1396 5.98752 13.101 5.98389 13.0681 5.96644C13.0351 5.949 13.0104 5.91918 12.9994 5.88354Z" fill="url(#paint0_linear_8836_4626)"/>
</g>
<defs>
<linearGradient id="paint0_linear_8836_4626" x1="0.0078466" y1="11.9997" x2="23.9917" y2="11.9997" gradientUnits="userSpaceOnUse">
<stop stop-color="#FE9526"/>
<stop offset="0.944" stop-color="#595BD4"/>
<stop offset="1" stop-color="#000297"/>
</linearGradient>
<clipPath id="clip0_8836_4626">
<rect width="24" height="24" fill="white"/>
</clipPath>
</defs>
</svg>
