<svg width="41" height="42" viewBox="0 0 41 42" fill="none" xmlns="http://www.w3.org/2000/svg">
<path d="M29.2413 0.23584H38.6973L38.9049 0.26491L39.1105 0.323049L39.2351 0.377036C39.4012 0.447634 39.5528 0.553531 39.6898 0.688498L39.7729 0.779861L39.8642 0.898217L39.9764 1.08509L40.0573 1.27197L40.0968 1.40486L40.1259 1.53775L40.1445 1.73501V11.1453C40.1444 11.5399 39.9945 11.9197 39.7252 12.208C39.4558 12.4963 39.087 12.6716 38.6934 12.6985C38.2997 12.7254 37.9105 12.6019 37.6045 12.3529C37.2984 12.1039 37.0982 11.748 37.0445 11.3571L37.0299 11.1453V5.54939L23.6578 18.9215C23.3941 19.1852 23.0445 19.3456 22.6726 19.3734C22.3007 19.4012 21.9312 19.2947 21.6312 19.0731L21.4568 18.9236L15.1653 12.8812L3.35044 24.6939C3.07257 24.9726 2.6995 25.1357 2.30627 25.1505C1.91303 25.1653 1.52877 25.0306 1.23075 24.7737C0.932733 24.5167 0.743053 24.1564 0.699848 23.7652C0.656644 23.3741 0.763118 22.9811 0.997863 22.6653L1.14944 22.4909L14.0647 9.57556C14.3287 9.31213 14.6784 9.15215 15.0503 9.12472C15.4222 9.09728 15.7916 9.20421 16.0913 9.42606L16.2658 9.57556L22.5573 15.6179L34.8248 3.35046H29.2392C28.8632 3.34995 28.5001 3.21343 28.217 2.96613C27.9338 2.71882 27.7496 2.37742 27.6985 2.00495L27.684 1.79315C27.684 1.41683 27.8203 1.05324 28.0676 0.769623C28.315 0.486008 28.6567 0.301555 29.0295 0.250375L29.2413 0.23584ZM2.24994 31.3821C2.66297 31.3821 3.05908 31.5462 3.35113 31.8382C3.64318 32.1303 3.80725 32.5264 3.80725 32.9394V40.2068C3.80725 40.6199 3.64318 41.016 3.35113 41.308C3.05908 41.6001 2.66297 41.7642 2.24994 41.7642C1.83692 41.7642 1.44081 41.6001 1.14876 41.308C0.856703 41.016 0.69263 40.6199 0.69263 40.2068V32.9394C0.69263 32.5264 0.856703 32.1303 1.14876 31.8382C1.44081 31.5462 1.83692 31.3821 2.24994 31.3821ZM14.1893 24.6337C14.1893 24.2207 14.0253 23.8246 13.7332 23.5325C13.4412 23.2405 13.045 23.0764 12.632 23.0764C12.219 23.0764 11.8229 23.2405 11.5308 23.5325C11.2388 23.8246 11.0747 24.2207 11.0747 24.6337V40.2068C11.0747 40.6199 11.2388 41.016 11.5308 41.308C11.8229 41.6001 12.219 41.7642 12.632 41.7642C13.045 41.7642 13.4412 41.6001 13.7332 41.308C14.0253 41.016 14.1893 40.6199 14.1893 40.2068V24.6337ZM23.0141 27.2292C23.4271 27.2292 23.8232 27.3933 24.1153 27.6854C24.4073 27.9774 24.5714 28.3735 24.5714 28.7866V40.2068C24.5714 40.6199 24.4073 41.016 24.1153 41.308C23.8232 41.6001 23.4271 41.7642 23.0141 41.7642C22.6011 41.7642 22.205 41.6001 21.9129 41.308C21.6209 41.016 21.4568 40.6199 21.4568 40.2068V28.7866C21.4568 28.3735 21.6209 27.9774 21.9129 27.6854C22.205 27.3933 22.6011 27.2292 23.0141 27.2292ZM34.9535 18.4045C34.9535 17.9915 34.7894 17.5953 34.4974 17.3033C34.2053 17.0112 33.8092 16.8472 33.3962 16.8472C32.9832 16.8472 32.5871 17.0112 32.295 17.3033C32.0029 17.5953 31.8389 17.9915 31.8389 18.4045V40.2068C31.8389 40.6199 32.0029 41.016 32.295 41.308C32.5871 41.6001 32.9832 41.7642 33.3962 41.7642C33.8092 41.7642 34.2053 41.6001 34.4974 41.308C34.7894 41.016 34.9535 40.6199 34.9535 40.2068V18.4045Z" fill="#DD6E20"/>
</svg>
