<svg width="66" height="66" viewBox="0 0 66 66" fill="none" xmlns="http://www.w3.org/2000/svg">
<path d="M40.4236 42.274C40.2592 42.4395 40.0635 42.5707 39.848 42.6598C39.6324 42.749 39.4012 42.7944 39.168 42.7934C38.9347 42.7945 38.7035 42.7492 38.4878 42.66C38.2722 42.5709 38.0765 42.4398 37.912 42.2743L32.3644 36.7269C31.6715 36.034 31.6715 34.9081 32.3644 34.2149C32.5288 34.0494 32.7245 33.9182 32.9402 33.829C33.1558 33.7398 33.387 33.6943 33.6203 33.6953C33.8537 33.6944 34.0848 33.7399 34.3005 33.8291C34.5161 33.9183 34.7118 34.0494 34.8763 34.2149L40.4236 39.7622C41.1164 40.4552 41.1163 41.5813 40.4236 42.274Z" fill="#2A94F4"/>
<path d="M57.3892 59.154C56.5782 59.965 55.5192 60.3701 54.4606 60.3656C53.401 60.3701 52.342 59.965 51.5322 59.1548L38.5977 46.2203C36.9817 44.6045 36.9818 41.979 38.5978 40.363C39.4081 39.553 40.4671 39.1476 41.5261 39.1524C42.5857 39.1479 43.6442 39.553 44.4545 40.3633L57.3892 53.2978C59.0049 54.9132 59.004 57.5392 57.3892 59.154Z" fill="#0B4870"/>
<path d="M25.1859 41.2058C35.0091 41.2058 42.9724 33.2425 42.9724 23.4193C42.9724 13.5961 35.0091 5.63281 25.1859 5.63281C15.3627 5.63281 7.39941 13.5961 7.39941 23.4193C7.39941 33.2425 15.3627 41.2058 25.1859 41.2058Z" fill="#D3D3D3"/>
<path d="M25.1866 36.5626C32.4461 36.5626 38.3311 30.6775 38.3311 23.418C38.3311 16.1585 32.4461 10.2734 25.1866 10.2734C17.927 10.2734 12.042 16.1585 12.042 23.418C12.042 30.6775 17.927 36.5626 25.1866 36.5626Z" fill="#F7F7F7"/>
<path d="M25.186 35.6826C31.9598 35.6826 37.4511 30.1913 37.4511 23.4175C37.4511 16.6436 31.9598 11.1523 25.186 11.1523C18.4122 11.1523 12.9209 16.6436 12.9209 23.4175C12.9209 30.1913 18.4122 35.6826 25.186 35.6826Z" fill="#CCE9FF"/>
</svg>
