<svg width="24" height="24" viewBox="0 0 24 24" fill="none" xmlns="http://www.w3.org/2000/svg">
<g clip-path="url(#clip0_8836_4620)">
<path d="M20.625 2.36921L12.1875 0.025461C12.0648 -0.008487 11.9352 -0.008487 11.8125 0.025461L3.375 2.36921C3.22682 2.41021 3.09616 2.49865 3.00303 2.62098C2.90991 2.74332 2.85945 2.89281 2.85938 3.04655V14.8591C2.85938 19.8991 6.96 23.9997 12 23.9997C17.04 23.9997 21.1406 19.8991 21.1406 14.8591V3.04655C21.1406 2.89281 21.0901 2.74332 20.997 2.62098C20.9038 2.49865 20.7732 2.41021 20.625 2.36921Z" fill="#595BD4"/>
<path d="M13.4062 22.5928C8.36625 22.5928 4.26562 18.4922 4.26562 13.4522V2.12109L3.375 2.36859C3.22682 2.40959 3.09616 2.49803 3.00303 2.62037C2.90991 2.7427 2.85945 2.89219 2.85938 3.04594V14.8584C2.85938 19.8984 6.96 23.9991 12 23.9991C13.3682 23.9992 14.7188 23.6917 15.9521 23.0994C17.1854 22.5071 18.2698 21.6451 19.125 20.5772C17.5053 21.8833 15.4869 22.5947 13.4062 22.5928Z" fill="#167FFC"/>
<path d="M17.3438 5.84265L12.1875 4.40827C12.0648 4.37433 11.9352 4.37433 11.8125 4.40827L6.65625 5.84265C6.50807 5.88365 6.37741 5.97209 6.28428 6.09442C6.19116 6.21676 6.1407 6.36624 6.14062 6.51999V13.7495C6.14062 16.9839 8.76891 19.6169 12 19.6169C15.2311 19.6169 17.8594 16.9848 17.8594 13.7495V6.51999C17.8593 6.36624 17.8088 6.21676 17.7157 6.09442C17.6226 5.97209 17.4919 5.88365 17.3438 5.84265Z" fill="#FE9526"/>
<path d="M13.4062 18.2111C10.1752 18.2111 7.54688 15.5791 7.54688 12.3437V5.59375L6.65625 5.84172C6.50807 5.88272 6.37741 5.97116 6.28428 6.09349C6.19116 6.21583 6.1407 6.36531 6.14062 6.51906V13.75C6.14062 16.9844 8.76891 19.6173 12 19.6173C12.9373 19.6168 13.8608 19.3913 14.6929 18.9596C15.5249 18.5279 16.2411 17.9028 16.7812 17.1367C15.7952 17.8367 14.6155 18.2122 13.4062 18.2111Z" fill="#53D86A"/>
</g>
<defs>
<clipPath id="clip0_8836_4620">
<rect width="24" height="24" fill="white"/>
</clipPath>
</defs>
</svg>
