<svg width="59" height="58" viewBox="0 0 59 58" fill="none" xmlns="http://www.w3.org/2000/svg">
<path d="M37.8505 37.1365C39.2545 35.7277 39.4441 33.6397 38.2729 32.4661C37.1017 31.2949 35.0114 31.4845 33.605 32.8909C32.201 34.2973 30.1106 34.4869 28.9394 33.3157C27.7682 32.1445 27.9578 30.0541 29.3642 28.6501M29.3642 28.6501L28.5146 27.8005M29.3642 28.6501C30.1586 27.8533 31.1714 27.4501 32.1146 27.4573M38.6977 37.9837L37.8481 37.1341C36.8881 38.0965 35.6042 38.4901 34.5146 38.2645M21.5715 26.3101C22.5208 26.3101 23.4488 26.0286 24.2382 25.5012C25.0275 24.9738 25.6427 24.2241 26.006 23.347C26.3693 22.47 26.4644 21.5048 26.2792 20.5737C26.094 19.6426 25.6368 18.7874 24.9655 18.1161C24.2943 17.4448 23.439 16.9876 22.5079 16.8024C21.5768 16.6172 20.6117 16.7123 19.7346 17.0756C18.8575 17.4389 18.1079 18.0541 17.5804 18.8435C17.053 19.6328 16.7715 20.5608 16.7715 21.5102" stroke="#DD6E20" stroke-width="3.59998" stroke-linecap="round"/>
<path d="M39.643 11.5478C35.9326 7.83984 34.0799 5.98465 31.6727 5.29585C29.2655 4.60466 26.7095 5.19505 21.5999 6.37585L18.6528 7.05504C14.352 8.04623 12.2016 8.54303 10.728 10.0142C9.25683 11.4878 8.76004 13.6382 7.76884 17.939L7.08725 20.8861C5.90885 25.9981 5.31846 28.5517 6.00725 30.9589C6.69845 33.3661 8.55364 35.2188 12.2616 38.9268L16.6536 43.3188C23.1095 49.7771 26.3351 53.0003 30.3431 53.0003C34.3535 53.0003 37.579 49.7723 44.0326 43.3188C50.4909 36.8652 53.7141 33.6397 53.7141 29.6293C53.7141 26.4085 51.6309 23.6917 47.4646 19.4006" stroke="#DD6E20" stroke-width="3.59998" stroke-linecap="round"/>
</svg>
