<svg width="60" height="60" viewBox="0 0 60 60" fill="none" xmlns="http://www.w3.org/2000/svg">
<path d="M50.0488 27.876L30.0479 7.875L7.92285 30H12.8395V47.2083C12.8395 48.5123 13.3575 49.7629 14.2796 50.6849C15.2016 51.607 16.4522 52.125 17.7562 52.125H34.9645" stroke="#DD6E20" stroke-width="3.5" stroke-linecap="round" stroke-linejoin="round"/>
<path d="M22.6729 52.1249V37.3749C22.6729 36.0709 23.1909 34.8204 24.1129 33.8983C25.035 32.9763 26.2855 32.4583 27.5895 32.4583H32.5062C33.6542 32.4583 34.7089 32.8516 35.5447 33.5104M47.2562 54.5833V54.6078M47.2562 47.2083C48.3618 47.2116 49.4363 46.8421 50.3061 46.1596C51.1759 45.4771 51.7903 44.5213 52.05 43.4466C52.3098 42.3719 52.1997 41.241 51.7376 40.2366C51.2754 39.2321 50.4882 38.4128 49.5031 37.9108C48.5251 37.4099 47.4064 37.2545 46.3289 37.4701C45.2514 37.6857 44.2786 38.2595 43.5687 39.0982" stroke="#DD6E20" stroke-width="3.5" stroke-linecap="round" stroke-linejoin="round"/>
</svg>
