<svg width="24" height="24" viewBox="0 0 24 24" fill="none" xmlns="http://www.w3.org/2000/svg">
<g clip-path="url(#clip0_8836_4596)">
<path d="M12 23.7695C18.498 23.7695 23.7656 18.5019 23.7656 12.0039C23.7656 5.50593 18.498 0.238281 12 0.238281C5.50202 0.238281 0.234375 5.50593 0.234375 12.0039C0.234375 18.5019 5.50202 23.7695 12 23.7695Z" fill="#167FFC"/>
<path d="M20.3203 3.68359L3.67969 20.3242C8.27344 24.918 15.7219 24.918 20.3203 20.3242C24.9141 15.7258 24.9141 8.27734 20.3203 3.68359Z" fill="#DB8428"/>
<path d="M11.6436 12.3703C11.7279 12.4594 11.8498 12.5156 11.9857 12.5156H23.7561C23.7701 12.1875 23.7701 11.8594 23.7607 11.5781H12.4357L11.6436 12.3703Z" fill="#B5620B"/>
<path d="M12 21.8945C17.4624 21.8945 21.8906 17.4663 21.8906 12.0039C21.8906 6.54146 17.4624 2.11328 12 2.11328C6.53756 2.11328 2.10938 6.54146 2.10938 12.0039C2.10938 17.4663 6.53756 21.8945 12 21.8945Z" fill="#FAFFFB"/>
<path d="M5.00586 18.9992C6.79648 20.7898 9.2668 21.8961 11.9996 21.8961C17.4605 21.8961 21.8902 17.4664 21.8902 12.0055C21.8902 9.27266 20.784 6.80234 18.9934 5.01172L5.00586 18.9992Z" fill="#DFEBE1"/>
<path d="M11.6436 12.3703C11.7279 12.4594 11.8498 12.5156 11.9857 12.5156H21.8764C21.8857 12.3281 21.8904 12.1828 21.8904 12.0141C21.8904 11.8687 21.8857 11.7188 21.8811 11.5781H12.4357L11.6436 12.3703Z" fill="#53D86A"/>
<path d="M12 19.8789C16.3492 19.8789 19.875 16.3531 19.875 12.0039C19.875 7.65466 16.3492 4.12891 12 4.12891C7.65076 4.12891 4.125 7.65466 4.125 12.0039C4.125 16.3531 7.65076 19.8789 12 19.8789Z" fill="#167FFC"/>
<path d="M6.43164 17.575C7.85664 19 9.82539 19.8812 12.0004 19.8812C16.3504 19.8812 19.8754 16.3563 19.8754 12.0063C19.8754 9.83125 18.9941 7.8625 17.5691 6.4375L6.43164 17.575Z" fill="#DB8428"/>
<path d="M11.6436 12.3703C11.7279 12.4594 11.8498 12.5156 11.9857 12.5156H19.8561C19.8654 12.3281 19.8701 12.1828 19.8701 12.0141C19.8701 11.8687 19.8654 11.7188 19.8561 11.5781H12.4357L11.6436 12.3703Z" fill="#B5620B"/>
<path d="M12 18.0039C15.3137 18.0039 18 15.3176 18 12.0039C18 8.6902 15.3137 6.00391 12 6.00391C8.68629 6.00391 6 8.6902 6 12.0039C6 15.3176 8.68629 18.0039 12 18.0039Z" fill="#FAFFFB"/>
<path d="M7.75781 16.2461C8.84531 17.3336 10.3453 18.0039 12 18.0039C15.3141 18.0039 18 15.318 18 12.0039C18 10.3492 17.3297 8.84922 16.2422 7.76172L7.75781 16.2461Z" fill="#DFEBE1"/>
<path d="M11.6436 12.3703C11.7279 12.4594 11.8498 12.5156 11.9857 12.5156H17.9764C17.9904 12.3281 17.9951 12.1828 17.9951 12.0141C17.9951 11.8687 17.9904 11.7188 17.9811 11.5781H12.4357L11.6436 12.3703Z" fill="#53D86A"/>
<path d="M12 15.4727C13.9157 15.4727 15.4688 13.9196 15.4688 12.0039C15.4688 10.0882 13.9157 8.53516 12 8.53516C10.0843 8.53516 8.53125 10.0882 8.53125 12.0039C8.53125 13.9196 10.0843 15.4727 12 15.4727Z" fill="#167FFC"/>
<path d="M9.54883 14.4578C10.177 15.0859 11.0441 15.475 12.0004 15.475C13.9176 15.475 15.4691 13.9234 15.4691 12.0063C15.4691 11.05 15.0801 10.1828 14.452 9.55469L9.54883 14.4578Z" fill="#DB8428"/>
<path d="M11.6436 12.3703C11.7279 12.4594 11.8498 12.5156 11.9857 12.5156H15.4311C15.4545 12.3281 15.4686 12.1828 15.4686 12.0141C15.4686 11.8687 15.4592 11.7188 15.4404 11.5781H12.4357L11.6436 12.3703Z" fill="#B5620B"/>
<path d="M11.9996 10.1445L12.6043 11.368L13.9543 11.5648L12.9746 12.5164L13.209 13.8617L11.9996 13.2289L10.7902 13.8617L11.0246 12.5164L10.0449 11.5648L11.3949 11.368L11.9996 10.1445Z" fill="#FFAF5A"/>
<path d="M10.791 13.8602L12.0004 13.2273L13.2098 13.8602L12.9754 12.5148L13.9551 11.5633L12.6332 11.3711L10.927 13.0727L10.791 13.8602Z" fill="#F88307"/>
<path d="M11.9863 11.5781C11.7285 11.5781 11.5176 11.7891 11.5176 12.0469C11.5176 12.3047 11.7285 12.5156 11.9863 12.5156H12.9895L13.9504 11.5781H11.9863Z" fill="#FE9526"/>
<path d="M18.858 0.234375L15.9986 3.09375L15.6518 6.30937L15.3096 3.77812L13.9502 5.1375L14.6111 9.37969L18.858 10.0453L21.4877 7.41094L19.7064 6.47344L22.2846 6.61406L23.7611 5.1375L19.5189 4.47656L18.858 0.234375Z" fill="#686AD6"/>
<path d="M19.5191 4.475L19.3316 3.26562L14.4238 8.17344L14.6113 9.38281L15.8348 9.57031L20.7426 4.66719L19.5191 4.475Z" fill="#595BD4"/>
<path d="M20.7611 2.57794L11.6674 11.6717C11.4846 11.8545 11.4846 12.1498 11.6674 12.3326C11.8502 12.5154 12.1455 12.5154 12.3283 12.3326L21.4221 3.24356C21.6049 3.06075 21.6049 2.76544 21.4221 2.58262C21.2393 2.39512 20.9439 2.39512 20.7611 2.57794Z" fill="#1F2077"/>
</g>
<defs>
<clipPath id="clip0_8836_4596">
<rect width="24" height="24" fill="white"/>
</clipPath>
</defs>
</svg>
