<svg width="24" height="24" viewBox="0 0 24 24" fill="none" xmlns="http://www.w3.org/2000/svg">
<g clip-path="url(#clip0_8836_4637)">
<path d="M12 24C18.6274 24 24 18.6274 24 12C24 5.37258 18.6274 0 12 0C5.37258 0 0 5.37258 0 12C0 18.6274 5.37258 24 12 24Z" fill="#FE9526"/>
<path d="M12 23.3992C5.475 23.3992 0.15 18.1492 0 11.6992C0 11.7742 0 11.8492 0 11.9992C0 18.5992 5.4 23.9992 12 23.9992C18.6 23.9992 24 18.5992 24 11.9992C24 11.9242 24 11.8492 24 11.6992C23.85 18.2242 18.525 23.3992 12 23.3992Z" fill="#595BD4"/>
<path d="M18.8252 7.79922L18.4502 7.42422C18.3002 7.27422 18.1502 7.19922 18.0002 7.19922C17.8502 7.19922 17.6252 7.27422 17.5502 7.42422L11.0252 13.9492L7.5002 10.4992C7.2752 10.2742 6.8252 10.2742 6.5252 10.4992L6.1502 10.8742C5.9252 11.0992 5.9252 11.5492 6.1502 11.7742L10.2752 15.8992C10.4252 16.0492 10.7252 16.1992 10.9502 16.1992C11.1752 16.1992 11.4752 16.1242 11.6252 15.8992L18.8252 8.69922C18.9752 8.54922 19.0502 8.39922 19.0502 8.24922C19.0502 8.09922 18.9752 7.94922 18.8252 7.79922Z" fill="#53D86A"/>
</g>
<defs>
<clipPath id="clip0_8836_4637">
<rect width="24" height="24" fill="white"/>
</clipPath>
</defs>
</svg>
