<svg width="60" height="60" viewBox="0 0 60 60" fill="none" xmlns="http://www.w3.org/2000/svg">
<g clip-path="url(#clip0_9048_6064)">
<path d="M19.7443 19.7152C19.5325 19.7094 19.3249 19.7755 19.1555 19.9027C17.7263 20.9419 16.2035 21.8458 14.6068 22.6027C14.4958 22.6559 14.3962 22.7304 14.314 22.8221C14.2317 22.9137 14.1683 23.0206 14.1274 23.1368C14.0865 23.2529 14.0689 23.3759 14.0756 23.4989C14.0822 23.6218 14.113 23.7423 14.1662 23.8533C14.2194 23.9644 14.2939 24.0639 14.3855 24.1461C14.4771 24.2284 14.5841 24.2917 14.7002 24.3327C14.8163 24.3736 14.9395 24.3912 15.0624 24.3846C15.1854 24.3779 15.3058 24.3471 15.4168 24.294C17.1662 23.4577 18.7918 22.4958 20.2656 21.4177C20.4266 21.3038 20.5475 21.1419 20.6112 20.9553C20.6749 20.7686 20.6781 20.5666 20.6203 20.378C20.5626 20.1894 20.4469 20.0239 20.2896 19.9048C20.1323 19.7858 19.9415 19.7195 19.7443 19.7152Z" fill="#595BD4"/>
<path fill-rule="evenodd" clip-rule="evenodd" d="M28.8008 13.1406C28.5521 13.1406 28.3136 13.2394 28.1378 13.4152C27.962 13.591 27.8633 13.8295 27.8633 14.0781C27.8633 14.3268 27.962 14.5652 28.1378 14.741C28.3136 14.9168 28.5521 15.0156 28.8008 15.0156H30.6758C30.9244 15.0156 31.1628 14.9168 31.3386 14.741C31.5144 14.5652 31.6133 14.3268 31.6133 14.0781C31.6133 13.8295 31.5144 13.591 31.3386 13.4152C31.1628 13.2394 30.9244 13.1406 30.6758 13.1406H28.8008Z" fill="#595BD4"/>
<path d="M38.4057 4.74283C38.2111 4.73565 38.0192 4.78922 37.8565 4.89609C37.6938 5.00296 37.5683 5.15784 37.4976 5.33923C37.4269 5.52061 37.4144 5.71951 37.4619 5.90831C37.5094 6.09711 37.6144 6.26646 37.7625 6.39283C45.5963 13.3078 50.1413 28.5253 47.9382 41.2566L43.1082 41.2716C42.9851 41.2718 42.8632 41.2963 42.7495 41.3437C42.6359 41.391 42.5327 41.4603 42.4458 41.5475C42.2703 41.7237 42.1721 41.9623 42.1726 42.2109C42.1731 42.4596 42.2724 42.6978 42.4485 42.8733C42.6247 43.0488 42.8633 43.1471 43.112 43.1466L48.8175 43.1278C49.0347 43.1275 49.2451 43.0518 49.4126 42.9137C49.5802 42.7755 49.6947 42.5835 49.7364 42.3703C52.3857 28.801 47.7301 12.691 39.0039 4.98845C38.8399 4.83824 38.6279 4.75118 38.4057 4.74283Z" fill="#595BD4"/>
<path fill-rule="evenodd" clip-rule="evenodd" d="M33.5325 3.89458C33.3806 3.89299 33.2305 3.92834 33.0953 3.99758C32.9601 4.06682 32.8437 4.16789 32.7562 4.29209C31.2806 6.34146 28.8355 7.55834 26.2255 7.52271C26.034 7.52089 25.8466 7.57778 25.6884 7.68572C25.5301 7.79366 25.4087 7.94748 25.3406 8.12647C24.3881 10.6015 21.8437 12.5646 18.5681 13.1627L18.6674 13.1515C15.6393 13.3802 13.0725 15.3715 12.3506 18.1652C11.6287 20.959 12.9655 23.8708 15.5662 25.3277C16.8376 26.0353 18.2889 26.3536 19.7397 26.2429C21.1905 26.1322 22.5769 25.5975 23.7263 24.7052C26.1975 25.6127 28.8638 25.7196 31.3538 25.0502C31.1925 25.2377 31.0594 25.5133 30.8662 25.6877C29.91 26.5502 28.3574 27.4033 25.0537 28.2358C22.1676 28.9525 19.6784 30.7739 18.1219 33.3077C17.9901 33.5191 17.9476 33.7741 18.0039 34.0167C18.0601 34.2593 18.2105 34.4697 18.4218 34.6015C18.6332 34.7332 18.8883 34.7757 19.1309 34.7194C19.3735 34.6631 19.5838 34.5128 19.7156 34.3015C20.9812 32.2746 22.8768 30.7165 25.513 30.0527C28.9762 29.1808 30.8681 28.2096 32.1225 27.079C33.3468 25.9765 33.8756 24.8458 34.6931 23.764L35.9643 22.7271L35.9568 22.7215C35.9718 22.7065 35.9944 22.7027 36.0075 22.6877C36.1765 22.5199 36.2752 22.294 36.2838 22.056C36.2923 21.818 36.2099 21.5857 36.0534 21.4062C35.8968 21.2267 35.6778 21.1135 35.4408 21.0897C35.2038 21.0658 34.9667 21.1331 34.7775 21.2777L34.7306 21.3152C31.9106 23.9402 26.6456 24.4952 22.9631 22.4683C22.7968 22.3769 22.6069 22.3381 22.4181 22.3569C22.2293 22.3758 22.0507 22.4514 21.9059 22.5739C21.761 22.6964 21.6568 22.86 21.6068 23.043C21.5569 23.226 21.5636 23.4199 21.6262 23.599C20.0212 24.4108 18.0919 24.5927 16.4812 23.6927C14.5556 22.6127 13.6574 20.5896 14.1637 18.634C14.6699 16.6783 16.5131 15.1915 18.81 15.019C18.842 15.0169 18.8739 15.0131 18.9056 15.0077C22.4962 14.3533 25.3518 12.1858 26.7168 9.28146C29.7206 9.15959 32.5406 7.80209 34.2787 5.38709C34.3809 5.24805 34.4426 5.08352 34.4573 4.91161C34.4719 4.73971 34.4389 4.56709 34.3617 4.41278C34.2846 4.25846 34.1663 4.12843 34.02 4.037C33.8737 3.94558 33.705 3.89629 33.5325 3.89458ZM39.3637 7.51521C39.1931 7.51473 39.0256 7.56081 38.8793 7.64849C38.7329 7.73617 38.6131 7.86213 38.5331 8.0128C38.453 8.16346 38.4157 8.33312 38.4249 8.50348C38.4342 8.67385 38.4897 8.83846 38.5856 8.97959C41.3306 13.1383 43.0687 18.049 43.7381 23.2033C43.7538 23.3255 43.7935 23.4433 43.8548 23.5501C43.9161 23.6569 43.9979 23.7506 44.0954 23.8258C44.1929 23.901 44.3042 23.9563 44.423 23.9885C44.5419 24.0206 44.666 24.0291 44.7881 24.0133C44.9102 23.9976 45.028 23.9579 45.1348 23.8966C45.2416 23.8353 45.3353 23.7536 45.4105 23.6561C45.4857 23.5586 45.5411 23.4472 45.5733 23.3284C45.6054 23.2095 45.6139 23.0855 45.5981 22.9633C44.8968 17.5483 43.0706 12.3696 40.1531 7.94834C40.0681 7.81578 39.9509 7.70678 39.8127 7.63141C39.6744 7.55604 39.5194 7.51672 39.3619 7.51709L39.3637 7.51521ZM44.9362 24.739C44.8051 24.7355 44.6748 24.7595 44.5536 24.8095C44.4324 24.8595 44.3231 24.9343 44.2326 25.0292C44.1421 25.1241 44.0726 25.2369 44.0284 25.3603C43.9843 25.4838 43.9665 25.6151 43.9762 25.7458C43.9912 26.0083 44.0006 26.2933 44.0194 26.6027C44.0275 26.7257 44.0597 26.8459 44.1143 26.9564C44.1688 27.0669 44.2447 27.1656 44.3374 27.2468C44.4301 27.3281 44.5379 27.3902 44.6546 27.4298C44.7714 27.4693 44.8948 27.4855 45.0178 27.4774C45.1408 27.4693 45.261 27.437 45.3715 27.3824C45.482 27.3279 45.5806 27.2521 45.6618 27.1593C45.7431 27.0666 45.8053 26.9588 45.8448 26.8421C45.8844 26.7253 45.9006 26.602 45.8924 26.479C45.8737 26.2183 45.8662 25.939 45.8475 25.6352C45.8371 25.3983 45.7373 25.174 45.5682 25.0077C45.3991 24.8414 45.1733 24.7454 44.9362 24.739ZM44.9869 28.1665C44.8638 28.165 44.7415 28.1878 44.6272 28.2335C44.5129 28.2792 44.4087 28.3471 44.3206 28.4331C44.2325 28.5191 44.1622 28.6216 44.1137 28.7348C44.0652 28.848 44.0395 28.9696 44.038 29.0927C43.8959 33.9269 42.8245 38.6885 40.8824 43.1177H37.4981C37.2494 43.1177 37.0109 43.2165 36.8351 43.3923C36.6593 43.5681 36.5606 43.8066 36.5606 44.0552V47.539C36.5606 47.7876 36.6593 48.0261 36.8351 48.2019C37.0109 48.3777 37.2494 48.4765 37.4981 48.4765C37.7467 48.4765 37.9852 48.3777 38.161 48.2019C38.3369 48.0261 38.4356 47.7876 38.4356 47.539V44.9946H41.5518C41.7317 44.9945 41.9079 44.9427 42.0591 44.8453C42.2104 44.7479 42.3305 44.609 42.405 44.4452C44.586 39.6313 45.7783 34.4285 45.9112 29.1452C45.9167 29.0198 45.897 28.8945 45.8532 28.7768C45.8094 28.6591 45.7425 28.5515 45.6562 28.4602C45.57 28.3689 45.4663 28.2958 45.3514 28.2454C45.2364 28.1949 45.1124 28.1681 44.9869 28.1665ZM17.7768 35.0758C17.5931 35.087 17.4168 35.1519 17.2697 35.2626C17.1227 35.3733 17.0115 35.5249 16.95 35.6983C16.8666 35.9265 16.7884 36.1566 16.7156 36.3883C16.6726 36.5072 16.654 36.6336 16.661 36.7599C16.6681 36.8861 16.7006 37.0097 16.7567 37.123C16.8128 37.2364 16.8913 37.3372 16.9873 37.4195C17.0833 37.5017 17.195 37.5637 17.3156 37.6017C17.4362 37.6396 17.5633 37.6528 17.6892 37.6404C17.815 37.628 17.9369 37.5903 18.0478 37.5295C18.1587 37.4687 18.2561 37.386 18.3343 37.2866C18.4124 37.1872 18.4697 37.073 18.5025 36.9508C18.5662 36.7483 18.6374 36.5477 18.7105 36.3508C18.7676 36.204 18.7867 36.0452 18.7662 35.8891C18.7456 35.733 18.6861 35.5846 18.593 35.4575C18.5 35.3305 18.3764 35.2289 18.2338 35.1622C18.0911 35.0955 17.934 35.0658 17.7768 35.0758ZM17.0699 38.2708C16.8376 38.2705 16.6136 38.3565 16.4411 38.5121C16.2686 38.6676 16.1599 38.8816 16.1362 39.1127C15.933 40.8371 16.0263 42.5835 16.4119 44.2765C16.4596 44.4841 16.5765 44.6692 16.7435 44.8015C16.9105 44.9337 17.1176 45.0051 17.3306 45.004L19.6818 44.9908V47.6552C19.6818 47.9039 19.7807 48.1423 19.9565 48.3181C20.1323 48.4939 20.3707 48.5927 20.6193 48.5927C20.868 48.5927 21.1065 48.4939 21.2823 48.3181C21.4581 48.1423 21.5568 47.9039 21.5568 47.6552V44.0496C21.5568 43.9262 21.5325 43.8039 21.4852 43.69C21.4378 43.576 21.3683 43.4724 21.2809 43.3853C21.1934 43.2982 21.0896 43.2293 20.9755 43.1824C20.8613 43.1355 20.739 43.1116 20.6155 43.1121L18.1987 43.1252C17.9868 41.8821 17.8518 40.6033 18.0018 39.3321C18.0195 39.1995 18.0086 39.0646 17.9698 38.9366C17.931 38.8085 17.8653 38.6903 17.7771 38.5898C17.6888 38.4892 17.5799 38.4088 17.458 38.3537C17.336 38.2987 17.2037 38.2705 17.0699 38.2708ZM39.8512 30.7371C39.651 30.7391 39.4567 30.8052 39.2968 30.9257C39.1368 31.0461 39.0197 31.2146 38.9625 31.4065C38.8087 31.8977 38.6437 32.3721 38.4731 32.8277C38.3912 33.0588 38.4031 33.3128 38.5062 33.5352C38.6093 33.7576 38.7956 33.9308 39.0248 34.0176C39.2541 34.1044 39.5082 34.0979 39.7328 33.9996C39.9573 33.9012 40.1345 33.7188 40.2262 33.4915C40.4119 33.0021 40.5881 32.494 40.7531 31.9671C40.7996 31.8255 40.8117 31.675 40.7884 31.5278C40.7651 31.3807 40.707 31.2412 40.619 31.1209C40.531 31.0007 40.4156 30.9032 40.2824 30.8364C40.1492 30.7697 40.0002 30.7356 39.8512 30.7371ZM37.8206 35.524C37.652 35.5247 37.4867 35.5709 37.3422 35.6577C37.1977 35.7445 37.0793 35.8686 36.9994 36.0171C34.635 40.2977 31.7081 42.4371 30.7162 43.0746C30.6056 43.1377 30.5091 43.2226 30.4324 43.3242C30.3557 43.4258 30.3005 43.542 30.2702 43.6656C30.2399 43.7892 30.2351 43.9177 30.256 44.0433C30.277 44.1688 30.3233 44.2888 30.3921 44.3959C30.4609 44.5029 30.5508 44.5949 30.6563 44.6661C30.7619 44.7373 30.8808 44.7862 31.0059 44.81C31.1309 44.8337 31.2596 44.8317 31.3839 44.8041C31.5081 44.7766 31.6254 44.724 31.7287 44.6496C32.9118 43.8883 36.0862 41.5483 38.64 36.9246C38.7212 36.7817 38.7634 36.6199 38.7623 36.4555C38.7613 36.2912 38.717 36.1299 38.634 35.9881C38.551 35.8462 38.4322 35.7286 38.2894 35.6472C38.1467 35.5657 37.985 35.5232 37.8206 35.524Z" fill="#595BD4"/>
<path fill-rule="evenodd" clip-rule="evenodd" d="M19.6875 43.125V45H38.4375V43.125H19.6875Z" fill="#595BD4"/>
<path d="M31.8679 0.00141247C31.6941 0.0121561 31.5268 0.071065 31.3847 0.171529C31.2425 0.271993 31.1311 0.410047 31.063 0.570234C30.9949 0.730421 30.9728 0.906414 30.999 1.07849C31.0253 1.25058 31.0989 1.41195 31.2116 1.54454C31.6129 2.01329 32.2355 3.23392 32.5617 4.61204C32.8842 5.99204 32.8842 7.40954 32.6592 8.18017C32.6193 8.29972 32.6039 8.42607 32.614 8.55169C32.6241 8.67731 32.6594 8.79961 32.7178 8.91128C32.7762 9.02295 32.8566 9.1217 32.954 9.20162C33.0514 9.28154 33.1639 9.341 33.2849 9.37643C33.4058 9.41187 33.5327 9.42256 33.6578 9.40786C33.783 9.39317 33.9039 9.35338 34.0134 9.2909C34.1228 9.22841 34.2185 9.1445 34.2948 9.04418C34.3711 8.94387 34.4264 8.8292 34.4573 8.70704C34.8323 7.42454 34.7666 5.81204 34.3822 4.18454C34.2435 3.58454 33.9417 3.28079 33.7392 2.76329C37.2417 4.56329 39.1561 8.21579 38.1829 11.962C38.1519 12.0812 38.1446 12.2053 38.1615 12.3273C38.1785 12.4493 38.2194 12.5667 38.2817 12.6729C38.344 12.7791 38.4266 12.872 38.5249 12.9463C38.6231 13.0206 38.735 13.0748 38.8541 13.1058C38.9733 13.1368 39.0974 13.1441 39.2194 13.1271C39.3414 13.1102 39.4588 13.0694 39.565 13.007C39.6712 12.9447 39.7642 12.8621 39.8384 12.7638C39.9127 12.6656 39.9668 12.5537 39.9978 12.4345C41.4172 6.97266 37.926 1.42266 32.1454 0.0276624C32.0547 0.00513331 31.9611 -0.00371435 31.8679 0.00141247Z" fill="#595BD4"/>
<path d="M15.2344 52.5117C13.1175 52.5117 11.25 54.0117 11.25 56.0367V60.0005H46.875V56.0348C46.875 54.0098 45.0075 52.5117 42.8906 52.5117H15.2344ZM15.2344 54.3867H42.8906C44.1544 54.3867 45 55.193 45 56.0367V56.5261L44.9812 57.4636H45V58.1255H13.125V56.0348C13.125 55.1948 13.9688 54.3867 15.2344 54.3867Z" fill="#FE9526"/>
<path d="M18.9688 46.8867C16.9062 46.8867 15.2188 48.5742 15.2188 50.6367C15.2188 52.6992 16.9062 54.3867 18.9688 54.3867H39.2787C41.3412 54.3867 43.0287 52.6992 43.0287 50.6367C43.0287 48.5742 41.3412 46.8867 39.2787 46.8867H18.9688ZM18.9688 48.7617H39.2787C40.3343 48.7617 41.1537 49.583 41.1537 50.6367C41.1537 51.6923 40.3343 52.5117 39.2787 52.5117H18.9688C17.915 52.5117 17.0938 51.6923 17.0938 50.6367C17.0938 49.583 17.915 48.7617 18.9688 48.7617Z" fill="#FE9526"/>
</g>
<defs>
<clipPath id="clip0_9048_6064">
<rect width="60" height="60" fill="white"/>
</clipPath>
</defs>
</svg>
