<svg width="60" height="60" viewBox="0 0 60 60" fill="none" xmlns="http://www.w3.org/2000/svg">
<path d="M57.2234 35.0906H51.5609C51.3078 35.0906 51.1016 34.8844 51.1016 34.6312C51.1016 34.3781 51.3078 34.1719 51.5609 34.1719H57.2234C57.4766 34.1719 57.6828 34.3781 57.6828 34.6312C57.6828 34.8844 57.4766 35.0906 57.2234 35.0906Z" fill="#595BD4"/>
<path d="M23.7375 54.8148C23.4844 54.8148 23.2781 54.6086 23.2781 54.3555V48.8523C23.2781 48.5992 23.0625 48.393 22.7906 48.393H19.0312C18.7594 48.393 18.5438 48.5992 18.5438 48.8523V54.3555C18.5438 54.6086 18.3375 54.8148 18.0844 54.8148C17.8313 54.8148 17.625 54.6086 17.625 54.3555V48.8523C17.625 48.093 18.2625 47.4648 19.0406 47.4648H22.8C23.5781 47.4648 24.2156 48.0836 24.2156 48.8523V54.3555C24.1969 54.6086 23.9906 54.8148 23.7375 54.8148Z" fill="#595BD4"/>
<path d="M35.0344 54.8125C34.7812 54.8125 34.575 54.6063 34.575 54.3531V39.7C34.575 39.4469 34.3594 39.2406 34.0875 39.2406H30.3281C30.0562 39.2406 29.8406 39.4469 29.8406 39.7V54.3531C29.8406 54.6063 29.6344 54.8125 29.3812 54.8125C29.1281 54.8125 28.9219 54.6063 28.9219 54.3531V39.7C28.9219 38.9406 29.5594 38.3125 30.3375 38.3125H34.0969C34.875 38.3125 35.5125 38.9312 35.5125 39.7V54.3531C35.5031 54.6063 35.2969 54.8125 35.0344 54.8125Z" fill="#595BD4"/>
<path d="M46.1242 54.8133C45.8711 54.8133 45.6648 54.607 45.6648 54.3539V43.9852C45.6648 43.732 45.4492 43.5258 45.1773 43.5258H41.418C41.1461 43.5258 40.9305 43.732 40.9305 43.9852V54.3539C40.9305 54.607 40.7242 54.8133 40.4711 54.8133C40.218 54.8133 40.0117 54.607 40.0117 54.3539V43.9852C40.0117 43.2258 40.6492 42.5977 41.4273 42.5977H45.1867C45.9648 42.5977 46.6023 43.2164 46.6023 43.9852V54.3539C46.5836 54.607 46.3773 54.8133 46.1242 54.8133Z" fill="#595BD4"/>
<path d="M57.2258 54.8141C56.9727 54.8141 56.7664 54.6078 56.7664 54.3547V31.3953C56.7664 31.1422 56.5508 30.9359 56.2789 30.9359H52.5195C52.2477 30.9359 52.032 31.1422 52.032 31.3953V54.3547C52.032 54.6078 51.8258 54.8141 51.5727 54.8141C51.3195 54.8141 51.1133 54.6078 51.1133 54.3547V31.3953C51.1133 30.6359 51.7508 30.0078 52.5289 30.0078H56.2883C57.0664 30.0078 57.7039 30.6266 57.7039 31.3953V54.3547C57.6852 54.6078 57.4789 54.8141 57.2258 54.8141Z" fill="#595BD4"/>
<path d="M23.7391 51.3445H18.0766C17.8234 51.3445 17.6172 51.1383 17.6172 50.8852C17.6172 50.632 17.8234 50.4258 18.0766 50.4258H23.7391C23.9922 50.4258 24.1984 50.632 24.1984 50.8852C24.1984 51.1383 23.9922 51.3445 23.7391 51.3445Z" fill="#595BD4"/>
<path d="M35.0359 43.5164H29.3734C29.1203 43.5164 28.9141 43.3102 28.9141 43.057C28.9141 42.8039 29.1203 42.5977 29.3734 42.5977H35.0359C35.2891 42.5977 35.4953 42.8039 35.4953 43.057C35.5047 43.3102 35.2984 43.5164 35.0359 43.5164Z" fill="#595BD4"/>
<path d="M46.1258 46.3875H40.4633C40.2102 46.3875 40.0039 46.1813 40.0039 45.9281C40.0039 45.675 40.2102 45.4688 40.4633 45.4688H46.1258C46.3789 45.4688 46.5852 45.675 46.5852 45.9281C46.5852 46.1813 46.3789 46.3875 46.1258 46.3875Z" fill="#595BD4"/>
<path d="M59.5406 54.8133H16.0219C15.7687 54.8133 15.5625 54.607 15.5625 54.3539C15.5625 54.1008 15.7687 53.8945 16.0219 53.8945H59.5406C59.7937 53.8945 60 54.1008 60 54.3539C60 54.607 59.7937 54.8133 59.5406 54.8133Z" fill="#595BD4"/>
<path d="M9.21562 26.1641C4.13437 26.1641 0 22.0297 0 16.9578C0 11.8766 4.13437 7.74219 9.21562 7.74219C9.46875 7.74219 9.675 7.94844 9.675 8.20156C9.675 8.45469 9.46875 8.66094 9.21562 8.66094C4.65 8.66094 0.928125 12.3828 0.928125 16.9484C0.928125 21.5141 4.65 25.2359 9.21562 25.2359C11.0531 25.2359 12.7875 24.6547 14.2313 23.5391C14.4375 23.3891 14.7281 23.4266 14.8781 23.6234C15.0375 23.8297 14.9906 24.1109 14.7937 24.2703C13.1812 25.5078 11.25 26.1641 9.21562 26.1641Z" fill="#595BD4"/>
<path d="M14.5141 24.3758C14.3734 24.3758 14.2328 24.3102 14.1484 24.1977L8.85156 17.2414C8.79531 17.157 8.75781 17.0633 8.75781 16.9602V8.21328C8.75781 7.96016 8.96406 7.75391 9.21719 7.75391C9.47031 7.75391 9.67656 7.96016 9.67656 8.21328V16.8008L14.8797 23.6352C15.0297 23.8414 14.9922 24.132 14.7953 24.282C14.7016 24.3477 14.6078 24.3758 14.5141 24.3758Z" fill="#595BD4"/>
<path d="M20.6516 14.9346H11.7172C11.4641 14.9346 11.2578 14.7284 11.2578 14.4752V5.64399C11.2578 5.52211 11.3047 5.40024 11.3984 5.31586C11.4922 5.23149 11.6141 5.17524 11.7359 5.18461C16.9016 5.38149 20.7547 9.18774 21.1109 14.4377C21.1203 14.569 21.0734 14.6909 20.9891 14.7846C20.8953 14.8784 20.7734 14.9346 20.6516 14.9346ZM12.1766 14.0065H20.1359C19.6297 9.65649 16.4516 6.50649 12.1766 6.13149V14.0065Z" fill="#595BD4"/>
<path d="M17.4956 24.1703C17.4769 24.1703 17.4581 24.1703 17.4394 24.1703C17.3175 24.1516 17.205 24.0859 17.13 23.9922L11.7487 16.9047C11.6456 16.7641 11.6269 16.5766 11.7019 16.4172C11.7769 16.2578 11.9362 16.1641 12.1144 16.1641H20.9175C21.0394 16.1641 21.1612 16.2109 21.2456 16.3047C21.33 16.3984 21.3769 16.5109 21.3769 16.6422C21.2831 19.7172 20.0831 22.2203 17.7862 24.0766C17.7019 24.1422 17.5987 24.1703 17.4956 24.1703ZM13.0425 17.0828L17.5706 23.0453C19.3237 21.4797 20.2612 19.5297 20.43 17.0828H13.0425Z" fill="#595BD4"/>
<path d="M20.9812 36.5422C20.8594 36.5422 20.7469 36.4953 20.6531 36.4109L16.1531 31.9109C15.975 31.7328 15.975 31.4422 16.1531 31.2547L28.7156 18.6922C28.8937 18.5141 29.1844 18.5141 29.3719 18.6922L35.3156 24.6359L45.9938 13.9578L43.7062 11.6703C43.575 11.5391 43.5375 11.3422 43.6031 11.1641C43.6781 10.9953 43.8469 10.8828 44.025 10.8828H53.3813C53.6344 10.8828 53.8406 11.0797 53.8406 11.3328L54.0656 20.5859C54.0656 20.7734 53.9625 20.9516 53.7844 21.0172C53.6156 21.0922 53.4094 21.0547 53.2781 20.9234L51.1781 18.8234L35.1094 34.8922C34.9313 35.0703 34.6406 35.0703 34.4531 34.8922L28.6313 29.0703L21.3 36.4016C21.2156 36.4953 21.0937 36.5422 20.9812 36.5422ZM17.1281 31.5734L20.9812 35.4266L28.3125 28.0953C28.4906 27.9172 28.7812 27.9172 28.9688 28.0953L34.7906 33.9172L50.8594 17.8484C51.0375 17.6703 51.3281 17.6703 51.5156 17.8484L53.1188 19.4516L52.9313 11.8016H45.1406L46.9594 13.6203C47.1375 13.7984 47.1375 14.0891 46.9594 14.2766L35.6344 25.6016C35.4562 25.7797 35.1656 25.7797 34.9781 25.6016L29.0344 19.6578L17.1281 31.5734Z" fill="#595BD4"/>
</svg>
