<svg width="60" height="60" viewBox="0 0 60 60" fill="none" xmlns="http://www.w3.org/2000/svg">
<path d="M55.4013 41.3329C56.8895 41.3329 58.1359 40.1794 58.2389 38.7062C58.2598 38.3664 59.1739 19.803 50.0943 18.8237C50.0408 18.8119 49.9914 18.8061 49.947 18.8019C49.8993 18.7935 49.8499 18.7893 49.7997 18.7893H35.8695C35.8184 18.7893 35.7673 18.7944 35.7188 18.8027C35.6928 18.8052 35.6644 18.8086 35.6342 18.8136C26.4601 19.8516 27.4169 38.5212 27.4311 38.7129C27.5441 40.1819 28.7905 41.3329 30.2679 41.3329C30.3524 41.3329 30.437 41.3312 30.4805 41.3228C31.2405 41.2684 31.9345 40.9202 32.4325 40.3435C32.9264 39.7726 33.1674 39.0469 33.1122 38.3002C32.7899 33.9149 33.7366 29.9355 35.0123 28.0622V53.7447C35.0123 55.5218 36.4679 56.9674 38.2576 56.9674C40.0472 56.9674 41.5028 55.5218 41.5028 53.7447V39.236C42.2344 39.1975 43.4347 39.1975 44.1663 39.236V53.7447C44.1663 55.5218 45.622 56.9674 47.4116 56.9674C49.2012 56.9674 50.6568 55.5218 50.6568 53.7447V28.0421C51.8605 29.7171 52.9311 33.2377 52.5645 38.3002C52.5092 39.0494 52.7503 39.7759 53.2433 40.346C53.7405 40.9219 54.4345 41.2684 55.1242 41.3145C55.2171 41.3295 55.3092 41.3329 55.4013 41.3329ZM54.2738 38.4249C54.74 31.9989 52.988 26.5246 50.1094 25.4071C49.8466 25.305 49.5477 25.3401 49.3159 25.4992C49.0823 25.659 48.9426 25.9235 48.9426 26.2065V53.7447C48.9426 54.5767 48.2562 55.2531 47.4116 55.2531C46.567 55.2531 45.8806 54.5767 45.8806 53.7447V38.5053C45.8806 37.4941 44.8628 37.4941 42.8346 37.4941C40.8064 37.4941 39.7885 37.4941 39.7885 38.5053V53.7447C39.7885 54.5767 39.1022 55.2531 38.2576 55.2531C37.413 55.2531 36.7266 54.5767 36.7266 53.7447V26.2065C36.7266 25.9252 36.5885 25.6616 36.3566 25.5017C36.1256 25.3418 35.8301 25.3066 35.5673 25.4046C32.4476 26.5806 30.9995 32.9489 31.4029 38.4258C31.4239 38.7154 31.3293 38.9983 31.1359 39.2227C30.9367 39.4528 30.6605 39.5918 30.3566 39.6136C30.339 39.6144 30.2855 39.6161 30.2679 39.6186C29.6803 39.6186 29.1847 39.1632 29.1404 38.584C28.8893 35.1705 29.2944 21.2252 35.8695 20.5112C35.908 20.5112 35.9456 20.5086 35.9825 20.5036H49.69C49.7344 20.5112 49.7804 20.5145 49.8273 20.5145C56.3764 21.2243 56.7799 35.1696 56.5288 38.584L56.5279 38.5873C56.4886 39.1624 55.9989 39.6136 55.3309 39.6136C55.3276 39.6136 55.3234 39.6136 55.3192 39.6136C55.0145 39.5918 54.7375 39.4537 54.5399 39.2252C54.3466 39.0017 54.2528 38.7179 54.2738 38.4249ZM42.8354 16.659C46.9654 16.659 50.3254 13.3276 50.3254 9.23186C50.3254 5.13616 46.9654 1.80469 42.8354 1.80469C38.7054 1.80469 35.3446 5.13616 35.3446 9.23186C35.3446 13.3276 38.7054 16.659 42.8354 16.659ZM42.8354 3.51897C46.0204 3.51897 48.6111 6.08203 48.6111 9.23186C48.6111 12.3817 46.0204 14.9448 42.8354 14.9448C39.6504 14.9448 37.0589 12.3817 37.0589 9.23186C37.0589 6.08203 39.6504 3.51897 42.8354 3.51897ZM9.89401 25.1032L1.82732 39.8739C1.68251 40.1392 1.68837 40.4623 1.84239 40.7218C1.99724 40.9821 2.27682 41.142 2.57983 41.142H7.45818V57.3398C7.45818 57.8136 7.84155 58.197 8.31532 58.197H12.9844C13.4582 58.197 13.8416 57.8136 13.8416 57.3398V41.142H18.7199C19.0229 41.142 19.3025 40.9821 19.4573 40.7218C19.6114 40.4615 19.6172 40.1392 19.4724 39.8739L11.399 25.1032C11.0969 24.5516 10.1945 24.5541 9.89401 25.1032ZM12.9844 39.4277C12.5106 39.4277 12.1273 39.8111 12.1273 40.2849V56.4827H9.17247V40.2849C9.17247 39.8111 8.7891 39.4277 8.31532 39.4277H4.02459L10.6465 27.3022L17.2743 39.4277H12.9844ZM20.2768 32.3823H24.4345C24.9082 32.3823 25.2916 31.9989 25.2916 31.5251V17.1956H29.5413C29.8443 17.1956 30.1239 17.0357 30.2788 16.7754C30.4328 16.5151 30.4386 16.1928 30.2938 15.9275L23.1044 2.77483C22.8022 2.22238 21.8999 2.22573 21.5994 2.77483L14.4166 15.9275C14.2718 16.1928 14.2777 16.5159 14.4317 16.7754C14.5865 17.0357 14.8661 17.1956 15.1691 17.1956H19.4197V31.5251C19.4197 31.9989 19.803 32.3823 20.2768 32.3823ZM22.3519 4.97377L28.0957 15.4813H24.4345C23.9607 15.4813 23.5773 15.8647 23.5773 16.3384V30.668H21.134V16.3384C21.134 15.8647 20.7506 15.4813 20.2768 15.4813H16.6139L22.3519 4.97377Z" fill="#595BD4"/>
</svg>
