<svg width="60" height="60" viewBox="0 0 60 60" fill="none" xmlns="http://www.w3.org/2000/svg">
<path d="M4.68567 3.72668C4.43768 3.73063 4.20136 3.83269 4.02846 4.01052C3.85556 4.18834 3.76017 4.42743 3.76317 4.67543V55.0567C3.71845 55.2215 3.71962 55.3955 3.76654 55.5597C3.81346 55.7239 3.90436 55.8722 4.02942 55.9886C4.14578 56.1087 4.29216 56.1955 4.45338 56.24C4.61459 56.2845 4.78478 56.2851 4.9463 56.2417H55.3257C55.5743 56.2417 55.8128 56.1429 55.9886 55.9671C56.1644 55.7913 56.2632 55.5528 56.2632 55.3042C56.2632 55.0555 56.1644 54.8171 55.9886 54.6413C55.8128 54.4655 55.5743 54.3667 55.3257 54.3667H5.63817V4.67543C5.63969 4.5501 5.61607 4.42574 5.56869 4.3097C5.52131 4.19366 5.45115 4.0883 5.36235 3.99984C5.27354 3.91139 5.1679 3.84164 5.05168 3.79472C4.93545 3.7478 4.811 3.72467 4.68567 3.72668ZM53.4657 15.0254C51.9225 15.0254 50.6532 16.2948 50.6532 17.8379C50.6532 18.3198 50.7901 18.7679 51.0094 19.1673L37.6669 33.9911C37.3038 33.8388 36.9124 33.7659 36.5189 33.7773C36.1254 33.7886 35.7388 33.8838 35.385 34.0567L33.0188 31.6904C33.7838 29.8361 34.0088 27.7417 33.4632 25.6623C32.1432 20.6448 27.0057 17.6636 22.0182 19.0248C17.0307 20.3842 14.0513 25.5817 15.3713 30.5992C15.769 32.0712 16.5239 33.4224 17.5688 34.5329L11.6869 39.7623C11.2765 39.5286 10.813 39.404 10.3407 39.4004C8.79755 39.4004 7.52817 40.6698 7.52817 42.2129C7.52817 43.7542 8.79755 45.0254 10.3407 45.0254C11.8819 45.0254 13.1532 43.7542 13.1532 42.2129C13.1515 41.8505 13.0789 41.4918 12.9394 41.1573L18.9825 35.7854C20.191 36.6715 21.596 37.2518 23.0775 37.4767L23.8782 40.5273C23.9095 40.6474 23.9643 40.76 24.0395 40.8588C24.1147 40.9575 24.2088 41.0403 24.3162 41.1024C24.4237 41.1645 24.5424 41.2046 24.6654 41.2205C24.7885 41.2363 24.9135 41.2276 25.0332 41.1948L25.0707 41.1836L27.5382 50.5698C27.7309 51.2741 28.1942 51.8736 28.8271 52.2378C29.46 52.602 30.2111 52.7014 30.9169 52.5142C30.9182 52.5142 30.9194 52.5142 30.9207 52.5142C31.6261 52.3186 32.2268 51.8543 32.5939 51.2209C32.9609 50.5874 33.065 49.8354 32.8838 49.1261L32.1732 46.4354L31.8038 45.0329L31.3725 43.3773L30.8588 41.4273L30.4125 39.7286C30.6482 39.6615 30.8483 39.5048 30.9699 39.2921C31.0915 39.0794 31.125 38.8275 31.0632 38.5904L30.2438 35.4704C30.9675 34.8817 31.5713 34.1767 32.0888 33.4117L34.0632 35.3861C33.8791 35.7595 33.7816 36.1697 33.7782 36.5861C33.7782 38.1292 35.0475 39.3986 36.5907 39.3986C38.1319 39.3986 39.4032 38.1292 39.4032 36.5861C39.4032 36.1042 39.2663 35.6523 39.0469 35.2548L52.3913 20.4292C52.7232 20.5679 53.085 20.6504 53.4657 20.6504C55.0069 20.6504 56.2782 19.3792 56.2782 17.8379C56.2782 16.2948 55.0069 15.0254 53.4657 15.0254ZM53.4657 16.9004C53.9944 16.9004 54.4032 17.3092 54.4032 17.8379C54.4032 18.3667 53.9944 18.7754 53.4657 18.7754C53.3421 18.7772 53.2194 18.7542 53.1048 18.7077C52.9903 18.6612 52.8862 18.5922 52.7988 18.5048C52.7114 18.4174 52.6424 18.3133 52.5959 18.1988C52.5494 18.0842 52.5264 17.9615 52.5282 17.8379C52.5282 17.3092 52.9369 16.9004 53.4657 16.9004ZM23.9963 20.5848C25.7214 20.4791 27.4294 20.9775 28.8268 21.9944C30.2243 23.0114 31.2239 24.4833 31.6538 26.1573C32.0034 27.5024 31.9768 28.9176 31.5769 30.2486L29.7413 28.4129C29.9194 28.0473 30.0282 27.6442 30.0282 27.2129C30.0282 25.6698 28.7569 24.4004 27.2157 24.4004C25.6725 24.4004 24.4032 25.6698 24.4032 27.2129C24.4032 27.5861 24.48 27.9404 24.615 28.2667L18.9638 33.2917C18.1156 32.3928 17.5036 31.2976 17.1825 30.1042C16.1175 26.0617 18.495 21.9292 22.4982 20.8361C22.9988 20.6992 23.4994 20.6148 23.9963 20.5848ZM27.2157 26.2754C27.7444 26.2754 28.1532 26.6842 28.1532 27.2129C28.1532 27.7417 27.7444 28.1504 27.2157 28.1504C26.9864 28.1486 26.7659 28.0617 26.5969 27.9067C26.5638 27.8622 26.5268 27.8208 26.4863 27.7829C26.3748 27.6466 26.3046 27.4812 26.2839 27.3063C26.2633 27.1314 26.293 26.9542 26.3696 26.7956C26.4463 26.6371 26.5666 26.5037 26.7165 26.4112C26.8664 26.3187 27.0396 26.2709 27.2157 26.2736V26.2754ZM25.8713 29.6617C26.2725 29.8867 26.7263 30.0254 27.2157 30.0254C27.6469 30.0254 28.05 29.9148 28.4157 29.7386L30.7632 32.0861C29.7688 33.725 28.1848 34.9212 26.3363 35.4292C25.34 35.7016 24.2976 35.7612 23.2768 35.6042C22.256 35.4472 21.2797 35.0771 20.4113 34.5179L25.8713 29.6617ZM36.5907 35.6504C37.1194 35.6504 37.5282 36.0592 37.5282 36.5879C37.5282 37.1167 37.1194 37.5254 36.5907 37.5254C36.4671 37.5272 36.3444 37.5042 36.2298 37.4577C36.1153 37.4112 36.0112 37.3422 35.9238 37.2548C35.8364 37.1674 35.7674 37.0633 35.7209 36.9488C35.6744 36.8342 35.6514 36.7115 35.6532 36.5879C35.6532 36.0592 36.0619 35.6504 36.5907 35.6504ZM28.5919 36.5579L29.0138 38.1704L25.4513 39.1361L25.0332 37.5423C26.2733 37.4551 27.4833 37.1204 28.5919 36.5579ZM28.6032 40.2236L29.0457 41.9092L29.5594 43.8573L29.9907 45.5073L30.36 46.9117L31.0725 49.6061C31.1035 49.7201 31.1115 49.8391 31.0959 49.9563C31.0803 50.0734 31.0415 50.1862 30.9818 50.2882C30.9221 50.3901 30.8427 50.4792 30.7481 50.5501C30.6536 50.621 30.5459 50.6723 30.4313 50.7011C30.3202 50.7371 30.2028 50.7496 30.0866 50.7379C29.9704 50.7262 29.8578 50.6905 29.7561 50.633C29.6544 50.5756 29.5658 50.4976 29.4958 50.4041C29.4258 50.3106 29.3759 50.2036 29.3494 50.0898L26.8782 40.6923L28.6032 40.2236ZM10.3407 41.2736C10.6032 41.2736 10.8375 41.3748 11.0063 41.5417C11.175 41.7104 11.2782 41.9486 11.2782 42.2129C11.2782 42.7417 10.8694 43.1504 10.3407 43.1504C10.2171 43.1522 10.0944 43.1292 9.97983 43.0827C9.86528 43.0362 9.76123 42.9672 9.67382 42.8798C9.58641 42.7924 9.51742 42.6883 9.47093 42.5738C9.42445 42.4592 9.4014 42.3365 9.40317 42.2129C9.40317 41.6842 9.81192 41.2736 10.3407 41.2736Z" fill="url(#paint0_linear_9048_6077)"/>
<defs>
<linearGradient id="paint0_linear_9048_6077" x1="3.72942" y1="30.0011" x2="52.5019" y2="30.0011" gradientUnits="userSpaceOnUse">
<stop stop-color="#595BD4"/>
<stop offset="1" stop-color="#FE9526"/>
</linearGradient>
</defs>
</svg>
