<svg width="60" height="60" viewBox="0 0 60 60" fill="none" xmlns="http://www.w3.org/2000/svg">
<path d="M36.4602 46.9297H23.5508V53.1641H36.4602V46.9297Z" fill="#167FFC"/>
<path d="M36.4602 46.9297H23.5508V48.3359H36.4602V46.9297Z" fill="#595BD4"/>
<path d="M57.1875 5.25781H2.8125C1.2592 5.25781 0 6.51701 0 8.07031V44.7078C0 46.2611 1.2592 47.5203 2.8125 47.5203H57.1875C58.7408 47.5203 60 46.2611 60 44.7078V8.07031C60 6.51701 58.7408 5.25781 57.1875 5.25781Z" fill="#7C7DC2"/>
<path d="M56.25 43.7703V9.00781L3.75 9.00781V43.7703H56.25Z" fill="white"/>
<path d="M3.75 9.00781V43.7703H56.25V9.00781H3.75ZM55.4062 42.9266H4.59375V9.85156H55.4062V42.9266Z" fill="#F2F4F2"/>
<path d="M42.083 54.7406H17.9143C17.9093 54.325 17.9869 53.9126 18.1425 53.5272C18.2981 53.1419 18.5287 52.7912 18.8208 52.4956C19.1129 52.2 19.4608 51.9653 19.8443 51.8051C20.2278 51.6449 20.6393 51.5625 21.0549 51.5625H38.9424C39.7754 51.5625 40.5742 51.8934 41.1632 52.4824C41.7521 53.0714 42.083 53.8702 42.083 54.7031V54.7406Z" fill="#7C7DC2"/>
<path d="M15.1797 33.957H10.9141V39.2164H15.1797V33.957Z" fill="#D8842B"/>
<path d="M23.6523 28.6953H19.3867V39.2141H23.6523V28.6953Z" fill="#F0B373"/>
<path d="M32.1289 31.1055H27.8633V39.2148H32.1289V31.1055Z" fill="#363770"/>
<path d="M40.6133 25.8359H36.3477V39.2141H40.6133V25.8359Z" fill="#FE9526"/>
<path d="M49.0859 22.0586H44.8203V39.2148H49.0859V22.0586Z" fill="#53D86A"/>
<path d="M48.2064 16.6963C48.1834 16.634 48.1472 16.5775 48.1002 16.5305C48.0533 16.4836 47.9968 16.4474 47.9345 16.4244L45.6564 15.4869C45.5394 15.4405 45.4089 15.442 45.2931 15.4911C45.1773 15.5402 45.0855 15.633 45.0376 15.7494C44.994 15.8652 44.997 15.9934 45.046 16.107C45.0949 16.2207 45.186 16.3109 45.3001 16.3588L46.4814 16.8369L38.3064 19.9775C38.2626 19.997 38.2216 20.0222 38.1845 20.0525L29.9157 26.84L21.6845 23.7275C21.6157 23.7 21.5413 23.6899 21.4677 23.6981C21.3941 23.7063 21.3237 23.7325 21.2626 23.7744L12.8251 29.3994C12.7733 29.4326 12.7286 29.4759 12.6938 29.5266C12.6589 29.5774 12.6347 29.6347 12.6225 29.695C12.6102 29.7554 12.6102 29.8176 12.6225 29.8779C12.6348 29.9383 12.659 29.9955 12.6939 30.0463C12.7345 30.1111 12.7913 30.1642 12.8587 30.2003C12.9261 30.2365 13.0018 30.2545 13.0782 30.2525C13.1716 30.2566 13.2637 30.2303 13.3407 30.1775L21.5626 24.7119L29.822 27.8244C29.8979 27.856 29.9812 27.8658 30.0624 27.8525C30.1436 27.8393 30.2194 27.8036 30.2814 27.7494L38.7189 20.8494L46.8751 17.7275L46.3126 18.8807C46.2841 18.9358 46.2671 18.9961 46.2625 19.058C46.258 19.1199 46.266 19.1821 46.2862 19.2408C46.3063 19.2995 46.3382 19.3535 46.3798 19.3996C46.4214 19.4456 46.4719 19.4828 46.5282 19.5088C46.59 19.5375 46.657 19.5535 46.7251 19.5557C46.813 19.5558 46.8991 19.5313 46.9737 19.4849C47.0483 19.4385 47.1083 19.3721 47.147 19.2932L48.2345 17.0713C48.2578 17.0106 48.2673 16.9455 48.2625 16.8806C48.2576 16.8158 48.2384 16.7528 48.2064 16.6963Z" fill="#E9E9E9"/>
</svg>
