<svg width="66" height="66" viewBox="0 0 66 66" fill="none" xmlns="http://www.w3.org/2000/svg">
<path d="M21.6562 29.9937L27.8438 33.5659V26.5936L21.6562 23.0214V29.9937ZM28.875 33.5659L35.0625 29.9937V23.0214L28.875 26.5936V33.5659ZM34.4726 22.1706L28.3594 18.6406L22.2461 22.1706L28.3594 25.7006L34.4726 22.1706ZM16.5 38.155H18.5625V41.2487H16.5V38.155ZM19.5938 37.6393H20.625V41.7643H19.5938V37.6393ZM39.1875 38.4736V40.9301L39.5268 40.7599L41.6439 39.7018L39.5278 38.6438L39.1875 38.4736ZM21.6562 38.155H38.1562V39.1862H21.6562V38.155ZM21.6562 40.2175H38.1562V41.2487H21.6562V40.2175Z" fill="#595BD4"/>
<path d="M56.7188 7.22081C55.6257 7.22217 54.5777 7.65679 53.8045 8.42941C53.0313 9.20203 52.5959 10.2497 52.5938 11.3427H13.4062C13.4046 10.2493 12.9695 9.20115 12.1962 8.42808C11.4229 7.65501 10.3747 7.22011 9.28125 7.21875C7.00631 7.21875 5.15625 9.06881 5.15625 11.3438V42.7969H5.18822C5.31487 43.7933 5.80033 44.7095 6.55371 45.3738C7.3071 46.0382 8.27678 46.4052 9.28125 46.4062H46.4062V12.8906H52.5927V13.9219H47.4375V50.5312H11.3438V58.7812H55.6875V46.4062H56.7188C58.9937 46.4062 60.8438 44.5562 60.8438 42.2812V11.3458C60.8438 9.07087 58.9937 7.22081 56.7188 7.22081ZM12.375 12.374V39.5557C11.6191 38.6977 10.5115 38.1562 9.28125 38.1562C8.05097 38.1562 6.94341 38.6977 6.1875 39.5557V11.3438C6.1875 9.63806 7.57556 8.25 9.28125 8.25C10.9869 8.25 12.375 9.63806 12.375 11.3438V12.374ZM37.125 34.0312H38.1562V18.5625H37.125V17.5312H40.2188V18.5625H39.1875V34.0312H40.2188V35.0625H37.125V34.0312ZM20.625 13.4062H21.6562V14.4375H35.0625V13.4062H36.0938V16.5H35.0625V15.4688H21.6562V16.5H20.625V13.4062ZM20.625 21.9172L28.3594 17.4518L36.0938 21.9172V30.59L28.3594 35.0553L20.625 30.59V21.9172ZM43.0279 40.1641L39.9888 41.6842L38.9029 42.2266C38.8988 42.2287 38.8936 42.2276 38.8884 42.2297C38.8211 42.2632 38.7471 42.2808 38.6719 42.2812H21.6562V42.7969H18.5625V42.2812H15.4688V37.125H18.5625V36.6094H21.6562V37.125H38.6719C38.7473 37.1261 38.8216 37.1437 38.8895 37.1766C38.8936 37.1786 38.8988 37.1776 38.9029 37.1797L39.9898 37.7231L43.0279 39.2422L43.9508 39.7031L43.0279 40.1641ZM54.6562 45.375V57.75H12.375V51.5625H14.4375V54.6562H15.4688V51.5625H17.5312V53.625H18.5625V51.5625H20.625V54.6562H21.6562V51.5625H23.7188V53.625H24.75V51.5625H26.8125V54.6562H27.8438V51.5625H29.9062V53.625H30.9375V51.5625H33V54.6562H34.0312V51.5625H36.0938V53.625H37.125V51.5625H39.1875V54.6562H40.2188V51.5625H42.2812V53.625H43.3125V51.5625H45.375V54.6562H46.4062V51.5625H48.4688V49.5H51.5625V48.4688H48.4688V46.4062H50.5312V45.375H48.4688V43.3125H51.5625V42.2812H48.4688V40.2188H50.5312V39.1875H48.4688V37.125H51.5625V36.0938H48.4688V34.0312H50.5312V33H48.4688V30.9375H51.5625V29.9062H48.4688V27.8438H50.5312V26.8125H48.4688V24.75H51.5625V23.7188H48.4688V21.6562H50.5312V20.625H48.4688V18.5625H51.5625V17.5312H48.4688V15.4688H52.5938V42.2812H53.625C53.625 41.3707 54.0282 40.5591 54.6562 39.9919V45.375ZM59.8125 39.5557C59.4261 39.1157 58.9502 38.7633 58.4167 38.5219C57.8832 38.2806 57.3043 38.1559 56.7188 38.1562C56.0072 38.1562 55.3482 38.3532 54.7635 38.6719H54.6562V38.7358C54.2708 38.9521 53.9226 39.2289 53.625 39.5557V11.3458C53.625 9.64012 55.0131 8.25206 56.7188 8.25206C58.4244 8.25206 59.8125 9.64012 59.8125 11.3458V39.5557Z" fill="#595BD4"/>
</svg>
