<svg width="66" height="66" viewBox="0 0 66 66" fill="none" xmlns="http://www.w3.org/2000/svg">
<g clip-path="url(#clip0_8942_5509)">
<path d="M19.8867 20.3127C20.1602 20.3127 20.4225 20.2041 20.6159 20.0107C20.8093 19.8173 20.9179 19.555 20.9179 19.2815V5.69922H45.0822V19.2815C45.0822 19.555 45.1908 19.8173 45.3842 20.0107C45.5776 20.2041 45.8399 20.3127 46.1134 20.3127C46.3869 20.3127 46.6492 20.2041 46.8426 20.0107C47.036 19.8173 47.1447 19.555 47.1447 19.2815V5.60159C47.1439 5.0807 46.9367 4.58135 46.5684 4.21302C46.2 3.84469 45.7007 3.63745 45.1798 3.63672H20.8203C20.2994 3.63745 19.8001 3.84469 19.4317 4.21302C19.0634 4.58135 18.8562 5.0807 18.8554 5.60159V19.2815C18.8554 19.555 18.9641 19.8173 19.1575 20.0107C19.3509 20.2041 19.6132 20.3127 19.8867 20.3127ZM20.6553 26.5868H45.3448C46.0823 26.5902 46.7964 26.3281 47.3566 25.8484C47.9167 25.3687 48.2857 24.7035 48.3959 23.9743L48.6214 22.5237C48.6445 22.3767 48.6354 22.2264 48.5948 22.0832C48.5541 21.9399 48.483 21.8073 48.3861 21.6942C48.2893 21.5812 48.1691 21.4905 48.0338 21.4283C47.8985 21.3662 47.7514 21.3341 47.6026 21.3343H35.2001C35.0606 21.3341 34.9226 21.3621 34.7944 21.4168C34.2252 21.6488 33.6208 21.7827 33.0069 21.8128C32.5252 21.8056 32.0514 21.6895 31.6209 21.4732C31.4639 21.3822 31.2854 21.3347 31.1039 21.3357H18.3976C18.2487 21.3355 18.1016 21.3676 17.9663 21.4297C17.831 21.4918 17.7108 21.5825 17.614 21.6956C17.5172 21.8086 17.446 21.9413 17.4053 22.0845C17.3647 22.2277 17.3556 22.378 17.3787 22.5251L17.6042 23.9757C17.7147 24.7047 18.0838 25.3695 18.6439 25.8489C19.2041 26.3283 19.918 26.5902 20.6553 26.5868ZM30.8537 23.3955C31.5275 23.7042 32.2589 23.8672 33.0001 23.874C33.818 23.8511 34.6261 23.6893 35.3898 23.3955H46.3994L46.3582 23.6567C46.3215 23.8989 46.199 24.1198 46.0129 24.2791C45.8269 24.4384 45.5897 24.5254 45.3448 24.5243H20.6553C20.4104 24.5254 20.1732 24.4384 19.9872 24.2791C19.8011 24.1198 19.6786 23.8989 19.6419 23.6567L19.6007 23.3955H30.8537ZM2.52043 56.0916C2.79393 56.0916 3.05623 55.9829 3.24963 55.7895C3.44303 55.5961 3.55168 55.3338 3.55168 55.0603V41.4781H27.7159V55.0603C27.7159 55.3338 27.8246 55.5961 28.018 55.7895C28.2114 55.9829 28.4737 56.0916 28.7472 56.0916C29.0207 56.0916 29.283 55.9829 29.4764 55.7895C29.6698 55.5961 29.7784 55.3338 29.7784 55.0603V41.3791C29.7777 40.8586 29.5706 40.3596 29.2025 39.9915C28.8345 39.6234 28.3355 39.4163 27.8149 39.4156H3.45405C2.93328 39.416 2.43393 39.6229 2.06556 39.991C1.6972 40.3591 1.4899 40.8583 1.48918 41.3791V55.0603C1.48918 55.3338 1.59783 55.5961 1.79122 55.7895C1.98462 55.9829 2.24692 56.0916 2.52043 56.0916ZM30.2363 57.1105H17.8269C17.6881 57.111 17.5507 57.1391 17.4227 57.193C16.8535 57.4251 16.2491 57.559 15.6352 57.589C15.1539 57.5819 14.6805 57.4658 14.2506 57.2493C14.0929 57.1587 13.9141 57.1113 13.7322 57.1118H1.0313C0.882448 57.1116 0.735319 57.1437 0.600049 57.2058C0.464779 57.268 0.344585 57.3587 0.247744 57.4717C0.150904 57.5848 0.0797198 57.7174 0.0390956 57.8606C-0.00152858 58.0039 -0.0106273 58.1542 0.0124263 58.3012L0.237926 59.7532C0.348484 60.4825 0.717685 61.1478 1.27811 61.6274C1.83853 62.107 2.55278 62.3691 3.29043 62.3657H27.9772C28.7148 62.3691 29.4291 62.107 29.9895 61.6274C30.5499 61.1478 30.9191 60.4825 31.0297 59.7532L31.2552 58.3012C31.2782 58.1542 31.2691 58.0039 31.2285 57.8606C31.1879 57.7174 31.1167 57.5848 31.0199 57.4717C30.923 57.3587 30.8028 57.268 30.6676 57.2058C30.5323 57.1437 30.3852 57.1103 30.2363 57.1105ZM28.9988 59.4342C28.9622 59.6768 28.8395 59.898 28.6532 60.0576C28.4668 60.2171 28.2293 60.3043 27.9841 60.3032H3.29043C3.04513 60.3043 2.80763 60.2171 2.62132 60.0576C2.43501 59.898 2.31232 59.6768 2.27568 59.4342L2.23443 59.173H13.4874C14.161 59.4825 14.8926 59.6456 15.6338 59.6515C16.4522 59.6284 17.2607 59.4666 18.0249 59.173H29.0332L28.9988 59.4342ZM36.2217 41.3791V55.0603C36.2217 55.3338 36.3303 55.5961 36.5237 55.7895C36.7171 55.9829 36.9794 56.0916 37.2529 56.0916C37.5264 56.0916 37.7887 55.9829 37.9821 55.7895C38.1755 55.5961 38.2842 55.3338 38.2842 55.0603V41.4781H62.4484V55.0603C62.4484 55.3338 62.5571 55.5961 62.7505 55.7895C62.9439 55.9829 63.2062 56.0916 63.4797 56.0916C63.7532 56.0916 64.0155 55.9829 64.2089 55.7895C64.4023 55.5961 64.5109 55.3338 64.5109 55.0603V41.3791C64.5102 40.8583 64.3029 40.3591 63.9345 39.991C63.5662 39.6229 63.0668 39.416 62.5461 39.4156H38.1866C37.6658 39.416 37.1664 39.6229 36.7981 39.991C36.4297 40.3591 36.2224 40.8583 36.2217 41.3791ZM65.7525 57.4762C65.6557 57.3631 65.5355 57.2723 65.4002 57.2101C65.2649 57.1479 65.1177 57.1158 64.9688 57.116H52.5594C52.4205 57.1164 52.2831 57.1444 52.1552 57.1985C51.5859 57.4304 50.9816 57.5643 50.3677 57.5945C49.8864 57.5874 49.413 57.4713 48.9831 57.2548C48.8258 57.1644 48.6475 57.117 48.4661 57.1173H35.7638C35.6149 57.1171 35.4678 57.1492 35.3326 57.2113C35.1973 57.2734 35.0771 57.3642 34.9802 57.4772C34.8834 57.5903 34.8122 57.7229 34.7716 57.8661C34.731 58.0094 34.7219 58.1597 34.7449 58.3067L34.9704 59.7587C35.081 60.488 35.4502 61.1533 36.0106 61.6329C36.571 62.1125 37.2853 62.3746 38.0229 62.3712H62.7097C63.4473 62.3746 64.1616 62.1125 64.722 61.6329C65.2824 61.1533 65.6516 60.488 65.7622 59.7587L65.9877 58.3067C66.0108 58.1595 66.0018 58.0091 65.9612 57.8657C65.9206 57.7223 65.8494 57.5894 65.7525 57.4762ZM63.7244 59.4397C63.6878 59.6823 63.5651 59.9035 63.3788 60.0631C63.1925 60.2226 62.955 60.3098 62.7097 60.3087H38.0229C37.7776 60.3098 37.5401 60.2226 37.3538 60.0631C37.1675 59.9035 37.0448 59.6823 37.0082 59.4397L36.9669 59.1785H48.2199C48.8935 59.4878 49.6251 59.6509 50.3663 59.657C51.1847 59.6339 51.9932 59.4721 52.7574 59.1785H63.7657L63.7244 59.4397ZM49.3351 37.2857C49.3351 37.5592 49.4437 37.8215 49.6371 38.0149C49.8305 38.2083 50.0928 38.317 50.3663 38.317C50.6398 38.317 50.9021 38.2083 51.0955 38.0149C51.2889 37.8215 51.3976 37.5592 51.3976 37.2857V33.6172C51.3976 33.3437 51.2889 33.0814 51.0955 32.888C50.9021 32.6946 50.6398 32.586 50.3663 32.586H33.9144V28.7662C33.9144 28.4927 33.8058 28.2304 33.6124 28.037C33.419 27.8436 33.1567 27.735 32.8832 27.735C32.6097 27.735 32.3474 27.8436 32.154 28.037C31.9606 28.2304 31.8519 28.4927 31.8519 28.7662V32.5887H15.6338C15.3603 32.5887 15.098 32.6974 14.9046 32.8908C14.7112 33.0842 14.6026 33.3465 14.6026 33.62V37.2885C14.6026 37.4239 14.6292 37.558 14.6811 37.6831C14.7329 37.8082 14.8088 37.9219 14.9046 38.0177C15.0004 38.1134 15.114 38.1894 15.2392 38.2412C15.3643 38.293 15.4984 38.3197 15.6338 38.3197C15.7692 38.3197 15.9033 38.293 16.0284 38.2412C16.1536 38.1894 16.2672 38.1134 16.363 38.0177C16.4588 37.9219 16.5347 37.8082 16.5866 37.6831C16.6384 37.558 16.6651 37.4239 16.6651 37.2885V34.6512H49.3351V37.2857Z" fill="#595BD4"/>
<path d="M26.1834 19.1678C25.9099 19.1678 25.6476 19.0591 25.4542 18.8657C25.2608 18.6723 25.1521 18.41 25.1521 18.1365V13.368C25.1521 13.0945 25.2608 12.8322 25.4542 12.6388C25.6476 12.4454 25.9099 12.3368 26.1834 12.3368C26.4569 12.3368 26.7192 12.4454 26.9126 12.6388C27.106 12.8322 27.2146 13.0945 27.2146 13.368V18.1365C27.2146 18.41 27.106 18.6723 26.9126 18.8657C26.7192 19.0591 26.4569 19.1678 26.1834 19.1678ZM30.7291 19.1678C30.4556 19.1678 30.1933 19.0591 29.9999 18.8657C29.8065 18.6723 29.6979 18.41 29.6979 18.1365V14.7306C29.6979 14.4571 29.8065 14.1948 29.9999 14.0014C30.1933 13.808 30.4556 13.6994 30.7291 13.6994C31.0026 13.6994 31.2649 13.808 31.4583 14.0014C31.6517 14.1948 31.7604 14.4571 31.7604 14.7306V18.1365C31.7604 18.41 31.6517 18.6723 31.4583 18.8657C31.2649 19.0591 31.0026 19.1678 30.7291 19.1678ZM35.2721 19.1911C34.9986 19.1911 34.7363 19.0825 34.5429 18.8891C34.3495 18.6957 34.2409 18.4334 34.2409 18.1599V10.4063C34.2409 10.1327 34.3495 9.87044 34.5429 9.67705C34.7363 9.48365 34.9986 9.375 35.2721 9.375C35.5456 9.375 35.8079 9.48365 36.0013 9.67705C36.1947 9.87044 36.3034 10.1327 36.3034 10.4063V18.1599C36.3034 18.4334 36.1947 18.6957 36.0013 18.8891C35.8079 19.0825 35.5456 19.1911 35.2721 19.1911ZM39.8179 19.1911C39.5444 19.1911 39.2821 19.0825 39.0887 18.8891C38.8953 18.6957 38.7866 18.4334 38.7866 18.1599V13.0064C38.7866 12.7329 38.8953 12.4706 39.0887 12.2772C39.2821 12.0838 39.5444 11.9751 39.8179 11.9751C40.0914 11.9751 40.3537 12.0838 40.5471 12.2772C40.7405 12.4706 40.8491 12.7329 40.8491 13.0064V18.1599C40.8491 18.4334 40.7405 18.6957 40.5471 18.8891C40.3537 19.0825 40.0914 19.1911 39.8179 19.1911ZM8.79102 55.0016C8.51751 55.0016 8.25521 54.893 8.06181 54.6996C7.86841 54.5062 7.75977 54.2439 7.75977 53.9704V49.2005C7.75977 48.927 7.86841 48.6647 8.06181 48.4713C8.25521 48.2779 8.51751 48.1693 8.79102 48.1693C9.06452 48.1693 9.32682 48.2779 9.52022 48.4713C9.71362 48.6647 9.82227 48.927 9.82227 49.2005V53.969C9.82245 54.1045 9.79591 54.2388 9.74416 54.3641C9.69242 54.4893 9.61648 54.6032 9.52071 54.6991C9.42493 54.795 9.31118 54.8711 9.18598 54.923C9.06077 54.9749 8.92656 55.0016 8.79102 55.0016ZM13.3381 55.0016C13.0646 55.0016 12.8023 54.893 12.6089 54.6996C12.4155 54.5062 12.3069 54.2439 12.3069 53.9704V50.5631C12.3069 50.2896 12.4155 50.0273 12.6089 49.8339C12.8023 49.6405 13.0646 49.5319 13.3381 49.5319C13.6116 49.5319 13.8739 49.6405 14.0673 49.8339C14.2607 50.0273 14.3694 50.2896 14.3694 50.5631V53.969C14.3696 54.1045 14.343 54.2388 14.2913 54.3641C14.2395 54.4893 14.1636 54.6032 14.0678 54.6991C13.9721 54.795 13.8583 54.8711 13.7331 54.923C13.6079 54.9749 13.4737 55.0016 13.3381 55.0016ZM17.8756 55.0236C17.6021 55.0236 17.3398 54.915 17.1464 54.7216C16.953 54.5282 16.8444 54.2659 16.8444 53.9924V46.2388C16.8444 45.9652 16.953 45.7029 17.1464 45.5095C17.3398 45.3162 17.6021 45.2075 17.8756 45.2075C18.1491 45.2075 18.4114 45.3162 18.6048 45.5095C18.7982 45.7029 18.9069 45.9652 18.9069 46.2388V53.9924C18.9069 54.2659 18.7982 54.5282 18.6048 54.7216C18.4114 54.915 18.1491 55.0236 17.8756 55.0236ZM22.4228 55.0236C22.1493 55.0236 21.887 54.915 21.6936 54.7216C21.5002 54.5282 21.3915 54.2659 21.3915 53.9924V48.8403C21.3915 48.5667 21.5002 48.3044 21.6936 48.111C21.887 47.9177 22.1493 47.809 22.4228 47.809C22.6963 47.809 22.9586 47.9177 23.152 48.111C23.3454 48.3044 23.454 48.5667 23.454 48.8403V53.9924C23.454 54.2659 23.3454 54.5282 23.152 54.7216C22.9586 54.915 22.6963 55.0236 22.4228 55.0236ZM43.5785 55.0016C43.305 55.0016 43.0427 54.893 42.8493 54.6996C42.6559 54.5062 42.5473 54.2439 42.5473 53.9704V49.2005C42.5473 49.0651 42.5739 48.931 42.6258 48.8059C42.6776 48.6807 42.7536 48.5671 42.8493 48.4713C42.9451 48.3755 43.0588 48.2996 43.1839 48.2478C43.309 48.1959 43.4431 48.1693 43.5785 48.1693C43.7139 48.1693 43.848 48.1959 43.9732 48.2478C44.0983 48.2996 44.212 48.3755 44.3077 48.4713C44.4035 48.5671 44.4794 48.6807 44.5313 48.8059C44.5831 48.931 44.6098 49.0651 44.6098 49.2005V53.969C44.6099 54.1045 44.5834 54.2388 44.5317 54.3641C44.4799 54.4893 44.404 54.6032 44.3082 54.6991C44.2124 54.795 44.0987 54.8711 43.9735 54.923C43.8483 54.9749 43.7141 55.0016 43.5785 55.0016ZM48.1256 55.0016C47.8521 55.0016 47.5898 54.893 47.3964 54.6996C47.203 54.5062 47.0944 54.2439 47.0944 53.9704V50.5631C47.0944 50.2896 47.203 50.0273 47.3964 49.8339C47.5898 49.6405 47.8521 49.5319 48.1256 49.5319C48.3991 49.5319 48.6614 49.6405 48.8548 49.8339C49.0482 50.0273 49.1569 50.2896 49.1569 50.5631V53.969C49.1571 54.1045 49.1305 54.2388 49.0788 54.3641C49.027 54.4893 48.9511 54.6032 48.8553 54.6991C48.7596 54.795 48.6458 54.8711 48.5206 54.923C48.3954 54.9749 48.2612 55.0016 48.1256 55.0016ZM52.6631 55.0236C52.3896 55.0236 52.1273 54.915 51.9339 54.7216C51.7405 54.5282 51.6319 54.2659 51.6319 53.9924V46.2388C51.6319 45.9652 51.7405 45.7029 51.9339 45.5095C52.1273 45.3162 52.3896 45.2075 52.6631 45.2075C52.9366 45.2075 53.1989 45.3162 53.3923 45.5095C53.5857 45.7029 53.6944 45.9652 53.6944 46.2388V53.9924C53.6944 54.2659 53.5857 54.5282 53.3923 54.7216C53.1989 54.915 52.9366 55.0236 52.6631 55.0236ZM57.2103 55.0236C56.9368 55.0236 56.6745 54.915 56.4811 54.7216C56.2877 54.5282 56.179 54.2659 56.179 53.9924V48.8403C56.179 48.5667 56.2877 48.3044 56.4811 48.111C56.6745 47.9177 56.9368 47.809 57.2103 47.809C57.4838 47.809 57.7461 47.9177 57.9395 48.111C58.1329 48.3044 58.2415 48.5667 58.2415 48.8403V53.9924C58.2415 54.2659 58.1329 54.5282 57.9395 54.7216C57.7461 54.915 57.4838 55.0236 57.2103 55.0236Z" fill="#595BD4"/>
</g>
<defs>
<clipPath id="clip0_8942_5509">
<rect width="66" height="66" fill="white"/>
</clipPath>
</defs>
</svg>
