<svg width="66" height="66" viewBox="0 0 66 66" fill="none" xmlns="http://www.w3.org/2000/svg">
<path d="M47.8243 7.702C47.8246 6.73598 47.4411 5.80942 46.7582 5.12615C46.0753 4.44288 45.149 4.05887 44.183 4.05859C43.7046 4.05846 43.231 4.15254 42.789 4.33546C42.347 4.51838 41.9454 4.78656 41.6071 5.12469C40.9238 5.80758 40.5398 6.73392 40.5395 7.69994C40.5395 9.71088 44.1819 16.5006 44.1819 16.5006C44.1819 16.5006 47.8243 9.71294 47.8243 7.702ZM42.4412 7.702C42.433 7.4685 42.4719 7.23575 42.5556 7.01761C42.6393 6.79946 42.766 6.6004 42.9282 6.43228C43.0905 6.26415 43.2849 6.13041 43.4999 6.03902C43.715 5.94763 43.9462 5.90046 44.1798 5.90032C44.4135 5.90018 44.6447 5.94708 44.8599 6.03821C45.075 6.12935 45.2696 6.26286 45.432 6.43079C45.5945 6.59872 45.7215 6.79764 45.8054 7.01568C45.8893 7.23372 45.9285 7.46643 45.9206 7.69994C45.9053 8.15098 45.7155 8.57847 45.3911 8.89225C45.0667 9.20602 44.6332 9.38155 44.1819 9.38182C43.7306 9.38208 43.2968 9.20707 42.9721 8.89368C42.6473 8.58029 42.457 8.15303 42.4412 7.702ZM52.1411 38.1445C50.9861 38.1445 49.8785 38.2414 48.8617 38.3982L22.8928 28.8241C23.3053 28.4528 23.5363 28.0403 23.5363 27.6072C23.5313 27.3788 23.4688 27.1554 23.3548 26.9575L40.7004 22.3416C41.6492 22.6242 42.8104 22.7954 44.0953 22.7954C47.2303 22.7954 49.7672 21.7971 49.7672 20.5637C49.7672 19.3262 47.2303 18.3301 44.0953 18.3301C40.9603 18.3301 38.4234 19.3304 38.4234 20.5637C38.4262 20.7081 38.4633 20.847 38.5348 20.9804L20.4095 25.1611C18.8903 24.7303 17.3171 24.5198 15.738 24.5361C11.4335 24.5361 7.94173 25.9118 7.94173 27.6092C7.94173 29.3067 11.4335 30.6824 15.738 30.6824C16.9219 30.6824 18.0274 30.5689 19.0339 30.3833L43.7632 40.4194C43.3714 40.8154 43.1321 41.2444 43.1321 41.7044C43.1321 42.0963 43.3301 42.4551 43.6189 42.8037L17.9325 52.417C17.608 52.4046 17.28 52.3978 16.9487 52.3964C10.2662 52.3964 4.8418 54.5331 4.8418 57.1608C4.8418 59.7946 10.2662 61.9313 16.9487 61.9313C23.6312 61.9313 29.0555 59.7987 29.0555 57.1628C29.0555 56.7091 28.8844 56.2718 28.5812 55.8573L49.7548 45.1034C50.5179 45.1859 51.3079 45.2374 52.137 45.2374C57.1138 45.2374 61.1501 43.6493 61.1501 41.6838C61.1501 39.7368 57.1138 38.1445 52.137 38.1445H52.1411Z" fill="black"/>
</svg>
