<svg width="66" height="66" viewBox="0 0 66 66" fill="none" xmlns="http://www.w3.org/2000/svg">
<g clip-path="url(#clip0_8942_5576)">
<path d="M33 66C51.2254 66 66 51.2254 66 33C66 14.7746 51.2254 0 33 0C14.7746 0 0 14.7746 0 33C0 51.2254 14.7746 66 33 66Z" fill="#53D86A"/>
<path d="M40.3435 65.1417C41.1539 64.9673 41.9575 64.7623 42.7525 64.5274C43.8029 64.2027 44.8365 63.8257 45.8494 63.3978C46.8628 62.9678 47.854 62.4875 48.8194 61.9585C49.7851 61.4304 50.7238 60.8542 51.632 60.2323C52.5404 59.6123 53.4173 58.9472 54.2593 58.2396C55.101 57.5307 55.9067 56.78 56.6734 55.9905C57.4403 55.2007 58.1672 54.373 58.8514 53.5105C59.5346 52.6486 60.1742 51.7531 60.7679 50.8273C61.3627 49.9017 61.9109 48.9469 62.4103 47.9665C62.9095 46.9869 63.3593 45.9829 63.7582 44.9584C64.1555 43.9322 64.5011 42.8867 64.7939 41.8259C65.0895 40.7658 65.3318 39.6915 65.5199 38.6072C65.5242 38.5649 65.5285 38.5226 65.5326 38.4802L50.7689 23.7115L49.7815 23.4779C48.2676 23.1359 46.7634 22.7525 45.2706 22.328C43.9165 21.9388 42.5829 21.4813 41.2751 20.9572C41.2167 20.9369 41.1583 20.9192 41.0999 20.8938C40.7826 20.7669 40.4831 20.6171 40.1734 20.4775C39.8053 20.3125 39.4296 20.1475 39.0742 19.9698C38.8382 19.8479 38.6173 19.7109 38.3889 19.5865C38.0182 19.3834 37.6451 19.1829 37.2922 18.962C37.0308 18.797 36.7871 18.6117 36.5358 18.4365C36.2109 18.2081 35.8859 17.9872 35.5788 17.741C35.3732 17.5785 35.1853 17.3932 34.9873 17.2206C34.8731 17.1191 34.7639 17.0125 34.6497 16.9084L32.9692 15.2305L32.0529 16.2611C28.169 20.6222 22.7773 22.6809 16.3449 23.4652L15.2305 23.5998V24.7243C15.2305 31.2735 16.6165 37.6273 19.4849 42.8362C20.0002 43.7729 20.5815 44.6589 21.1959 45.5143C21.3735 45.7605 21.5487 46.0119 21.7365 46.2505C22.1569 46.7918 22.5998 47.3151 23.0642 47.8192C23.2139 47.9817 23.3612 48.1492 23.516 48.3041C23.5769 48.3675 23.6353 48.4361 23.6988 48.497L40.3435 65.1417Z" fill="#FE9526"/>
<path d="M32.9692 15.233L32.0529 16.2611C28.169 20.6222 22.7773 22.6809 16.3449 23.4652L15.2305 23.5998V24.7243C15.2305 31.2735 16.6165 37.6273 19.4849 42.8362C22.3534 48.0452 26.7551 52.1092 32.6367 53.8633L33.0149 53.9775L33.3906 53.8481C44.7579 50.1749 50.7689 38.2086 50.7689 24.7243V23.714L49.7815 23.4805C43.5242 22.0386 37.7542 20.2871 33.9212 16.2382L32.9692 15.2305V15.233ZM33.0302 18.6092C37.1399 22.4473 42.5367 24.2953 48.1264 25.6305C47.8599 37.7669 42.5494 47.8903 32.9895 51.2233C28.0116 49.6114 24.2522 46.2225 21.7112 41.6102C19.2336 37.1171 18.005 31.502 17.873 25.6635C23.7495 24.7725 28.9965 22.6682 33.0276 18.6092H33.0302ZM39.7774 29.4763L30.5196 37.5816L26.2804 33.3475L24.4857 35.1422L30.4003 41.0568L41.4528 31.3878L39.7774 29.4763Z" fill="#167FFC"/>
</g>
<defs>
<clipPath id="clip0_8942_5576">
<rect width="66" height="66" fill="white"/>
</clipPath>
</defs>
</svg>
