<svg width="66" height="66" viewBox="0 0 66 66" fill="none" xmlns="http://www.w3.org/2000/svg">
<g clip-path="url(#clip0_8942_5547)">
<path d="M33 65.3672C50.8694 65.3672 65.3555 50.8811 65.3555 33.0117C65.3555 15.1423 50.8694 0.65625 33 0.65625C15.1306 0.65625 0.644531 15.1423 0.644531 33.0117C0.644531 50.8811 15.1306 65.3672 33 65.3672Z" fill="#167FFC"/>
<path d="M55.8809 10.1328L10.1191 55.8945C22.752 68.5273 43.2352 68.5273 55.8809 55.8945C68.5137 43.2488 68.5137 22.7656 55.8809 10.1328Z" fill="#DB8428"/>
<path d="M32.0195 34.0184C32.2516 34.2633 32.5867 34.418 32.9605 34.418H65.3289C65.3676 33.5156 65.3676 32.6133 65.3418 31.8398H34.198L32.0195 34.0184Z" fill="#B5620B"/>
<path d="M33 60.2109C48.0217 60.2109 60.1992 48.0334 60.1992 33.0117C60.1992 17.99 48.0217 5.8125 33 5.8125C17.9783 5.8125 5.80078 17.99 5.80078 33.0117C5.80078 48.0334 17.9783 60.2109 33 60.2109Z" fill="#FAFFFB"/>
<path d="M13.7676 52.2469C18.6918 57.1711 25.4852 60.2133 33.0004 60.2133C48.018 60.2133 60.1996 48.0316 60.1996 33.0141C60.1996 25.4988 57.1574 18.7055 52.2332 13.7812L13.7676 52.2469Z" fill="#DFEBE1"/>
<path d="M32.0195 34.0184C32.2516 34.2633 32.5867 34.418 32.9605 34.418H60.1598C60.1855 33.9023 60.1984 33.5027 60.1984 33.0387C60.1984 32.6391 60.1855 32.2266 60.1727 31.8398H34.198L32.0195 34.0184Z" fill="#53D86A"/>
<path d="M33 54.668C44.9604 54.668 54.6562 44.9721 54.6562 33.0117C54.6562 21.0513 44.9604 11.3555 33 11.3555C21.0396 11.3555 11.3438 21.0513 11.3438 33.0117C11.3438 44.9721 21.0396 54.668 33 54.668Z" fill="#167FFC"/>
<path d="M17.6855 48.3273C21.6043 52.2461 27.0184 54.6695 32.9996 54.6695C44.9621 54.6695 54.6559 44.9758 54.6559 33.0133C54.6559 27.032 52.2324 21.618 48.3137 17.6992L17.6855 48.3273Z" fill="#DB8428"/>
<path d="M32.0195 34.0184C32.2516 34.2633 32.5867 34.418 32.9605 34.418H54.6039C54.6297 33.9023 54.6426 33.5027 54.6426 33.0387C54.6426 32.6391 54.6297 32.2266 54.6039 31.8398H34.198L32.0195 34.0184Z" fill="#B5620B"/>
<path d="M33 49.5117C42.1127 49.5117 49.5 42.1244 49.5 33.0117C49.5 23.899 42.1127 16.5117 33 16.5117C23.8873 16.5117 16.5 23.899 16.5 33.0117C16.5 42.1244 23.8873 49.5117 33 49.5117Z" fill="#FAFFFB"/>
<path d="M21.334 44.6797C24.3246 47.6703 28.4496 49.5137 33 49.5137C42.1137 49.5137 49.5 42.1273 49.5 33.0137C49.5 28.4633 47.6566 24.3383 44.666 21.3477L21.334 44.6797Z" fill="#DFEBE1"/>
<path d="M32.0195 34.0184C32.2516 34.2633 32.5867 34.418 32.9605 34.418H49.4348C49.4734 33.9023 49.4863 33.5027 49.4863 33.0387C49.4863 32.6391 49.4734 32.2266 49.4477 31.8398H34.198L32.0195 34.0184Z" fill="#53D86A"/>
<path d="M33 42.5508C38.2683 42.5508 42.5391 38.28 42.5391 33.0117C42.5391 27.7434 38.2683 23.4727 33 23.4727C27.7317 23.4727 23.4609 27.7434 23.4609 33.0117C23.4609 38.28 27.7317 42.5508 33 42.5508Z" fill="#167FFC"/>
<path d="M26.2578 39.7531C27.9852 41.4805 30.3699 42.5504 32.9996 42.5504C38.2719 42.5504 42.5387 38.2836 42.5387 33.0113C42.5387 30.3816 41.4687 27.9969 39.7414 26.2695L26.2578 39.7531Z" fill="#DB8428"/>
<path d="M32.0195 34.0184C32.2516 34.2633 32.5867 34.418 32.9605 34.418H42.4352C42.4996 33.9023 42.5383 33.5027 42.5383 33.0387C42.5383 32.6391 42.5125 32.2266 42.4609 31.8398H34.198L32.0195 34.0184Z" fill="#B5620B"/>
<path d="M33.0004 27.8945L34.6633 31.259L38.3758 31.8004L35.6816 34.4172L36.3262 38.1168L33.0004 36.3766L29.6746 38.1168L30.3191 34.4172L27.625 31.8004L31.3375 31.259L33.0004 27.8945Z" fill="#FFAF5A"/>
<path d="M29.6738 38.1184L32.9996 36.3781L36.3254 38.1184L35.6809 34.4187L38.375 31.802L34.7398 31.2734L30.0477 35.9527L29.6738 38.1184Z" fill="#F88307"/>
<path d="M32.9609 31.8398C32.252 31.8398 31.6719 32.4199 31.6719 33.1289C31.6719 33.8379 32.252 34.418 32.9609 34.418H35.7195L38.3621 31.8398H32.9609Z" fill="#FE9526"/>
<path d="M51.8598 0.644531L43.9965 8.50781L43.0426 17.3508L42.1016 10.3898L38.3633 14.1281L40.1809 25.7941L51.8598 27.6246L59.0914 20.3801L54.193 17.802L61.2828 18.1887L65.3434 14.1281L53.6773 12.3105L51.8598 0.644531Z" fill="#686AD6"/>
<path d="M53.6762 12.3102L53.1605 8.98438L39.6641 22.4809L40.1797 25.8066L43.5441 26.3223L57.0406 12.8387L53.6762 12.3102Z" fill="#595BD4"/>
<path d="M57.0919 7.0903L32.0841 32.0981C31.5813 32.6008 31.5813 33.413 32.0841 33.9157C32.5868 34.4184 33.3989 34.4184 33.9017 33.9157L58.9095 8.92077C59.4122 8.41803 59.4122 7.60592 58.9095 7.10319C58.4067 6.58756 57.5946 6.58756 57.0919 7.0903Z" fill="#1F2077"/>
</g>
<defs>
<clipPath id="clip0_8942_5547">
<rect width="66" height="66" fill="white"/>
</clipPath>
</defs>
</svg>
