<svg width="32" height="33" viewBox="0 0 32 33" fill="none" xmlns="http://www.w3.org/2000/svg">
<path d="M10 18.0942H18V20.0942H10V18.0942ZM10 13.0942H22V15.0942H10V13.0942ZM10 23.0942H15V25.0942H10V23.0942Z" fill="#DD6E20"/>
<path d="M25 5.09424H22V4.09424C22 3.56381 21.7893 3.0551 21.4142 2.68002C21.0391 2.30495 20.5304 2.09424 20 2.09424H12C11.4696 2.09424 10.9609 2.30495 10.5858 2.68002C10.2107 3.0551 10 3.56381 10 4.09424V5.09424H7C6.46957 5.09424 5.96086 5.30495 5.58579 5.68002C5.21071 6.0551 5 6.56381 5 7.09424V28.0942C5 28.6247 5.21071 29.1334 5.58579 29.5085C5.96086 29.8835 6.46957 30.0942 7 30.0942H25C25.5304 30.0942 26.0391 29.8835 26.4142 29.5085C26.7893 29.1334 27 28.6247 27 28.0942V7.09424C27 6.56381 26.7893 6.0551 26.4142 5.68002C26.0391 5.30495 25.5304 5.09424 25 5.09424ZM12 4.09424H20V8.09424H12V4.09424ZM25 28.0942H7V7.09424H10V10.0942H22V7.09424H25V28.0942Z" fill="#DD6E20"/>
</svg>
