<svg width="32" height="33" viewBox="0 0 32 33" fill="none" xmlns="http://www.w3.org/2000/svg">
<path d="M26 20.0942H20V18.0942H26V20.0942ZM30 28.0942H24V26.0942H30V28.0942ZM28 24.0942H22V22.0942H28V24.0942Z" fill="#DD6E20"/>
<path d="M17.0034 20.0942C16.9963 19.2505 16.7713 18.4228 16.3501 17.6916C15.9289 16.9605 15.3258 16.3506 14.5994 15.9212L22.0004 3.09424L20.2704 2.09424L12.6934 15.2202C11.7635 15.0125 10.7963 15.0412 9.88041 15.3038C8.96448 15.5664 8.129 16.0544 7.45038 16.7232C3.70638 20.3342 3.99638 28.7762 4.01038 29.1342C4.02072 29.3925 4.13062 29.6367 4.31705 29.8156C4.50348 29.9946 4.75195 30.0944 5.01038 30.0942H20.0014C20.2113 30.0942 20.4158 30.0282 20.5861 29.9055C20.7564 29.7828 20.8837 29.6096 20.9501 29.4105C21.0164 29.2114 21.0185 28.9964 20.9559 28.7961C20.8933 28.5957 20.7693 28.4202 20.6014 28.2942C17.0614 25.6382 17.0034 20.1482 17.0034 20.0942ZM11.9304 17.0912C12.7308 17.1 13.4969 17.4171 14.0695 17.9764C14.642 18.5357 14.9769 19.2943 15.0044 20.0942C15.0044 20.1322 15.0064 20.3022 15.0214 20.5632L9.12138 17.9392C9.51002 17.6188 9.9585 17.3788 10.4407 17.2332C10.923 17.0876 11.4293 17.0393 11.9304 17.0912ZM15.4504 28.0942C14.6511 27.2804 14.1416 26.2262 14.0004 25.0942H12.0004C12.072 26.1585 12.4044 27.1888 12.9684 28.0942H10.7454C10.3341 26.7965 10.0839 25.4531 10.0004 24.0942H8.00038C8.06487 25.449 8.28806 26.7915 8.66538 28.0942H6.00038C6.03138 26.2582 6.29038 22.2022 7.80338 19.5412L15.3364 22.8912C15.6983 24.7705 16.4699 26.547 17.5964 28.0942H15.4504Z" fill="#DD6E20"/>
</svg>
