<svg width="32" height="33" viewBox="0 0 32 33" fill="none" xmlns="http://www.w3.org/2000/svg">
<path d="M8 10.0942H16V12.0942H8V10.0942ZM8 6.09424H20V8.09424H8V6.09424ZM8 2.09424H20V4.09424H8V2.09424Z" fill="#DD6E20"/>
<path d="M4.711 28.0942L10.342 18.0982L17.776 24.5882C18.0007 24.7882 18.2677 24.9349 18.5569 25.0174C18.8462 25.0999 19.1504 25.1161 19.4468 25.0648C19.7432 25.0135 20.0242 24.896 20.2688 24.721C20.5135 24.546 20.7156 24.3181 20.86 24.0542L27.83 13.6512L26.169 12.5372L19.169 22.9852L19.099 23.0882L11.664 16.5982C11.4394 16.3994 11.1729 16.2536 10.8843 16.1715C10.5958 16.0895 10.2925 16.0733 9.99683 16.1242C9.70117 16.1751 9.42072 16.2917 9.17618 16.4655C8.93165 16.6393 8.72927 16.8658 8.584 17.1282L4 25.2772V2.09424H2V28.0942C2.00053 28.6245 2.21141 29.1329 2.58637 29.5079C2.96133 29.8828 3.46973 30.0937 4 30.0942H30V28.0942H4.711Z" fill="#DD6E20"/>
</svg>
