<svg width="32" height="33" viewBox="0 0 32 33" fill="none" xmlns="http://www.w3.org/2000/svg">
<path d="M23 4.09424C24.3261 4.09424 25.5979 4.62102 26.5355 5.5587C27.4732 6.49639 28 7.76816 28 9.09424V11.0942C28 11.3595 27.8946 11.6138 27.7071 11.8013C27.5196 11.9889 27.2652 12.0942 27 12.0942C26.7348 12.0942 26.4804 11.9889 26.2929 11.8013C26.1054 11.6138 26 11.3595 26 11.0942V9.09424C26 8.29859 25.6839 7.53553 25.1213 6.97292C24.5587 6.41031 23.7956 6.09424 23 6.09424H21C20.7348 6.09424 20.4804 5.98888 20.2929 5.80134C20.1054 5.61381 20 5.35945 20 5.09424C20 4.82902 20.1054 4.57467 20.2929 4.38713C20.4804 4.1996 20.7348 4.09424 21 4.09424H23ZM9 4.09424C7.67392 4.09424 6.40215 4.62102 5.46447 5.5587C4.52678 6.49639 4 7.76816 4 9.09424V11.0942C4 11.3595 4.10536 11.6138 4.29289 11.8013C4.48043 11.9889 4.73478 12.0942 5 12.0942C5.26522 12.0942 5.51957 11.9889 5.70711 11.8013C5.89464 11.6138 6 11.3595 6 11.0942V9.09424C6 8.29859 6.31607 7.53553 6.87868 6.97292C7.44129 6.41031 8.20435 6.09424 9 6.09424H11C11.2652 6.09424 11.5196 5.98888 11.7071 5.80134C11.8946 5.61381 12 5.35945 12 5.09424C12 4.82902 11.8946 4.57467 11.7071 4.38713C11.5196 4.1996 11.2652 4.09424 11 4.09424H9ZM23 28.0942C24.3261 28.0942 25.5979 27.5675 26.5355 26.6298C27.4732 25.6921 28 24.4203 28 23.0942V21.0942C28 20.829 27.8946 20.5747 27.7071 20.3871C27.5196 20.1996 27.2652 20.0942 27 20.0942C26.7348 20.0942 26.4804 20.1996 26.2929 20.3871C26.1054 20.5747 26 20.829 26 21.0942V23.0942C26 23.8899 25.6839 24.653 25.1213 25.2156C24.5587 25.7782 23.7956 26.0942 23 26.0942H21C20.7348 26.0942 20.4804 26.1996 20.2929 26.3871C20.1054 26.5747 20 26.829 20 27.0942C20 27.3595 20.1054 27.6138 20.2929 27.8013C20.4804 27.9889 20.7348 28.0942 21 28.0942H23ZM4 23.0942C4 24.4203 4.52678 25.6921 5.46447 26.6298C6.40215 27.5675 7.67392 28.0942 9 28.0942H11C11.2652 28.0942 11.5196 27.9889 11.7071 27.8013C11.8946 27.6138 12 27.3595 12 27.0942C12 26.829 11.8946 26.5747 11.7071 26.3871C11.5196 26.1996 11.2652 26.0942 11 26.0942H9C8.20435 26.0942 7.44129 25.7782 6.87868 25.2156C6.31607 24.653 6 23.8899 6 23.0942V21.0942C6 20.829 5.89464 20.5747 5.70711 20.3871C5.51957 20.1996 5.26522 20.0942 5 20.0942C4.73478 20.0942 4.48043 20.1996 4.29289 20.3871C4.10536 20.5747 4 20.829 4 21.0942V23.0942ZM16 20.0942C17.0609 20.0942 18.0783 19.6728 18.8284 18.9227C19.5786 18.1725 20 17.1551 20 16.0942C20 15.0334 19.5786 14.016 18.8284 13.2658C18.0783 12.5157 17.0609 12.0942 16 12.0942C14.9391 12.0942 13.9217 12.5157 13.1716 13.2658C12.4214 14.016 12 15.0334 12 16.0942C12 17.1551 12.4214 18.1725 13.1716 18.9227C13.9217 19.6728 14.9391 20.0942 16 20.0942ZM16 18.0942C15.4696 18.0942 14.9609 17.8835 14.5858 17.5085C14.2107 17.1334 14 16.6247 14 16.0942C14 15.5638 14.2107 15.0551 14.5858 14.68C14.9609 14.305 15.4696 14.0942 16 14.0942C16.5304 14.0942 17.0391 14.305 17.4142 14.68C17.7893 15.0551 18 15.5638 18 16.0942C18 16.6247 17.7893 17.1334 17.4142 17.5085C17.0391 17.8835 16.5304 18.0942 16 18.0942ZM10 11.5942C10.3978 11.5942 10.7794 11.4362 11.0607 11.1549C11.342 10.8736 11.5 10.4921 11.5 10.0942C11.5 9.69641 11.342 9.31488 11.0607 9.03358C10.7794 8.75227 10.3978 8.59424 10 8.59424C9.60218 8.59424 9.22064 8.75227 8.93934 9.03358C8.65804 9.31488 8.5 9.69641 8.5 10.0942C8.5 10.4921 8.65804 10.8736 8.93934 11.1549C9.22064 11.4362 9.60218 11.5942 10 11.5942Z" fill="#DD6E20"/>
</svg>
