<svg width="66" height="67" viewBox="0 0 66 67" fill="none" xmlns="http://www.w3.org/2000/svg">
<path fill-rule="evenodd" clip-rule="evenodd" d="M31.8569 5.65625C22.2852 5.65625 14.5258 13.4157 14.5258 22.9874V30.3383C14.5258 32.3201 14.0805 34.2767 13.223 36.0634L9.24845 44.3446C7.14985 48.717 10.3366 53.7812 15.1866 53.7812H22.9824C23.515 58.1008 27.3527 61.3438 31.8568 61.3438C36.3609 61.3438 40.1986 58.1008 40.7312 53.7812H48.5272C53.3772 53.7812 56.5639 48.717 54.4654 44.3446L50.4908 36.0634C49.6332 34.2767 49.188 32.3201 49.188 30.3383V29.2781C54.2602 27.8644 57.9818 23.2105 57.9818 17.6875C57.9818 11.0428 52.5953 5.65625 45.9506 5.65625C43.6151 5.65625 41.4351 6.32166 39.5898 7.47324C37.2605 6.31018 34.633 5.65625 31.8569 5.65625ZM37.3724 17.164C37.362 17.3371 37.3568 17.5117 37.3568 17.6875C37.3568 22.4337 41.2043 26.2812 45.9506 26.2812C46.0029 26.2812 46.0551 26.2808 46.1073 26.2799C50.7812 26.1963 54.5443 22.3813 54.5443 17.6875C54.5443 12.9413 50.6967 9.09375 45.9506 9.09375C41.3801 9.09375 37.643 12.6616 37.3724 17.164ZM36.7214 9.96866C35.2086 9.40313 33.5701 9.09375 31.8569 9.09375C24.1836 9.09375 17.9633 15.3141 17.9633 22.9874V30.3383C17.9633 32.8351 17.4024 35.2999 16.3221 37.5508L12.3475 45.832C11.3442 47.9224 12.8677 50.3438 15.1866 50.3438H48.5272C50.846 50.3438 52.3697 47.9224 51.3663 45.832L47.3918 37.5508C46.3114 35.2999 45.7505 32.8351 45.7505 30.3383V29.7171C39.1981 29.6103 33.9193 24.2654 33.9193 17.6875C33.9193 17.5039 33.9234 17.3212 33.9316 17.1396C34.0537 14.4155 35.0816 11.9272 36.7214 9.96866ZM37.2452 53.7812H26.4684C26.973 56.0866 29.1347 57.9062 31.8568 57.9062C34.579 57.9062 36.7406 56.0866 37.2452 53.7812Z" fill="url(#paint0_linear_8985_5420)"/>
<defs>
<linearGradient id="paint0_linear_8985_5420" x1="33.2867" y1="5.65625" x2="33.2867" y2="61.3438" gradientUnits="userSpaceOnUse">
<stop stop-color="#53D86A"/>
<stop offset="1" stop-color="#FE9526"/>
</linearGradient>
</defs>
</svg>
