<svg width="66" height="66" viewBox="0 0 66 66" fill="none" xmlns="http://www.w3.org/2000/svg">
<path d="M57.4208 41.5808C57.4208 37.9508 54.4508 34.9808 50.8208 34.9808C47.1908 34.9808 44.2208 37.9508 44.2208 41.5808C44.2208 45.2108 47.1908 48.1808 50.8208 48.1808C54.4508 48.1808 57.4208 45.2108 57.4208 41.5808ZM50.8208 45.5408C48.6428 45.5408 46.8608 43.7588 46.8608 41.5808C46.8608 39.4028 48.6428 37.6208 50.8208 37.6208C52.9988 37.6208 54.7808 39.4028 54.7808 41.5808C54.7808 43.7588 52.9988 45.5408 50.8208 45.5408ZM50.8208 48.1808C48.3128 48.1808 45.9368 48.9728 44.0228 50.3588C42.2408 46.0028 37.9508 42.9008 33.0008 42.9008C28.0508 42.9008 23.7608 46.0028 21.9788 50.3588C20.0648 49.0388 17.6888 48.1808 15.1808 48.1808C8.64678 48.1808 3.30078 53.5268 3.30078 60.0608V61.3808C3.30078 62.1068 3.89478 62.7008 4.62078 62.7008H61.3808C62.1068 62.7008 62.7008 62.1068 62.7008 61.3808V60.0608C62.7008 53.5268 57.3548 48.1808 50.8208 48.1808ZM21.1208 54.7808V60.0608H5.94078C5.94078 54.9788 10.0988 50.8208 15.1808 50.8208C17.4908 50.8208 19.6028 51.6788 21.2528 53.1308C21.1868 53.6588 21.1208 54.1868 21.1208 54.7808ZM42.2408 60.0608H23.7608V54.7808C23.7608 49.6988 27.9188 45.5408 33.0008 45.5408C38.0828 45.5408 42.2408 49.6988 42.2408 54.7808V60.0608ZM44.8808 60.0608V54.7808C44.8808 54.1868 44.8148 53.6588 44.7488 53.1308C46.3988 51.7448 48.5108 50.8208 50.8208 50.8208C55.9028 50.8208 60.0608 54.9788 60.0608 60.0608H44.8808ZM21.7808 41.5808C21.7808 37.9508 18.8108 34.9808 15.1808 34.9808C11.5508 34.9808 8.58078 37.9508 8.58078 41.5808C8.58078 45.2108 11.5508 48.1808 15.1808 48.1808C18.8108 48.1808 21.7808 45.2108 21.7808 41.5808ZM15.1808 45.5408C13.0028 45.5408 11.2208 43.7588 11.2208 41.5808C11.2208 39.4028 13.0028 37.6208 15.1808 37.6208C17.3588 37.6208 19.1408 39.4028 19.1408 41.5808C19.1408 43.7588 17.3588 45.5408 15.1808 45.5408ZM39.6008 36.3008C39.6008 32.6708 36.6308 29.7008 33.0008 29.7008C29.3708 29.7008 26.4008 32.6708 26.4008 36.3008C26.4008 39.9308 29.3708 42.9008 33.0008 42.9008C36.6308 42.9008 39.6008 39.9308 39.6008 36.3008ZM33.0008 40.2608C30.8228 40.2608 29.0408 38.4788 29.0408 36.3008C29.0408 34.1228 30.8228 32.3408 33.0008 32.3408C35.1788 32.3408 36.9608 34.1228 36.9608 36.3008C36.9608 38.4788 35.1788 40.2608 33.0008 40.2608ZM8.51478 16.8308L7.52478 22.8368C7.45878 23.3648 7.65678 23.8268 8.05278 24.1568C8.44878 24.4208 9.04278 24.4868 9.43878 24.2228L14.5208 21.4508L19.6028 24.2228C19.8008 24.3548 19.9988 24.3548 20.2628 24.3548C20.5268 24.3548 20.7908 24.2888 20.9888 24.0908C21.3848 23.8268 21.6488 23.2988 21.5168 22.7708L20.5268 16.7648L23.7608 13.4648L26.9948 16.7648L26.0048 22.7708C25.9388 23.2988 26.1368 23.7608 26.5328 24.0908C26.9288 24.3548 27.5228 24.4208 27.9188 24.1568L33.0008 21.3848L38.0828 24.1568C38.2808 24.2888 38.4788 24.2888 38.7428 24.2888C39.0068 24.2888 39.2708 24.2228 39.4688 24.0248C39.8648 23.7608 40.1288 23.2328 39.9968 22.7048L39.0068 16.6988L42.2408 13.3988L45.4748 16.6988L44.4848 22.7048C44.4188 23.2328 44.6168 23.6948 45.0128 24.0248C45.4088 24.2888 46.0028 24.3548 46.3988 24.0908L51.4808 21.3188L56.5628 24.0908C56.7608 24.2228 56.9588 24.2228 57.2228 24.2228C57.4868 24.2228 57.7508 24.1568 57.9488 23.9588C58.3448 23.6948 58.6088 23.1668 58.4768 22.6388L57.4868 16.6328L61.6448 12.3428C61.9748 12.0128 62.1068 11.4848 61.9748 11.0228C61.8428 10.5608 61.3808 10.2308 60.9188 10.1648L55.2428 9.30678L52.6688 3.89478C52.4708 3.63078 52.0088 3.30078 51.4808 3.30078C50.9528 3.30078 50.4908 3.63078 50.2928 4.02678L47.7188 9.43878L42.2408 10.3628L36.7628 9.50478L34.1888 4.09278C33.9908 3.63078 33.5288 3.30078 33.0008 3.30078C32.4728 3.30078 32.0108 3.63078 31.8128 4.02678L29.2388 9.43878L23.7608 10.3628L18.2828 9.50478L15.7088 4.09278C15.5108 3.63078 15.0488 3.30078 14.5208 3.30078C13.9928 3.30078 13.5308 3.63078 13.3328 4.02678L10.7588 9.43878L5.08278 10.2968C4.62078 10.3628 4.15878 10.6928 4.02678 11.1548C3.89478 11.6168 3.96078 12.1448 4.35678 12.4748L8.51478 16.8308ZM48.8408 12.0128C49.3028 11.9468 49.6328 11.6828 49.8308 11.2868L51.4808 7.72278L53.1308 11.2868C53.3288 11.6828 53.6588 11.9468 54.1208 12.0128L57.9488 12.6068L55.1108 15.5108C54.7808 15.8408 54.6488 16.2368 54.7808 16.6328L55.4408 20.6588L52.1408 18.8108C51.9428 18.6788 51.7448 18.6788 51.4808 18.6788C51.2168 18.6788 51.0188 18.7448 50.8208 18.8108L47.5208 20.6588L48.1808 16.6328C48.2468 16.2368 48.1148 15.7748 47.8508 15.5108L45.0128 12.6068L48.8408 12.0128ZM30.3608 12.0128C30.8228 11.9468 31.1528 11.6828 31.3508 11.2868L33.0008 7.72278L34.6508 11.2868C34.8488 11.6828 35.1788 11.9468 35.6408 12.0128L39.4688 12.6068L36.6308 15.5108C36.3008 15.8408 36.1688 16.2368 36.3008 16.6328L36.9608 20.6588L33.6608 18.8108C33.4628 18.6788 33.2648 18.6788 33.0008 18.6788C32.7368 18.6788 32.5388 18.7448 32.3408 18.8108L29.0408 20.6588L29.7008 16.6328C29.7668 16.2368 29.6348 15.7748 29.3708 15.5108L26.5328 12.6068L30.3608 12.0128ZM11.8808 12.0128C12.3428 11.9468 12.6728 11.6828 12.8708 11.2868L14.5208 7.72278L16.1708 11.2868C16.3688 11.6828 16.6988 11.9468 17.1608 12.0128L20.9888 12.6068L18.1508 15.5108C17.8208 15.8408 17.6888 16.2368 17.8208 16.6328L18.4808 20.6588L15.1808 18.8108C14.9828 18.6788 14.7848 18.6788 14.5208 18.6788C14.2568 18.6788 14.0588 18.7448 13.8608 18.8108L10.5608 20.6588L11.2208 16.6328C11.2868 16.2368 11.1548 15.7748 10.8908 15.5108L8.05278 12.6068L11.8808 12.0128Z" fill="#595BD4"/>
</svg>
