<svg width="66" height="66" viewBox="0 0 66 66" fill="none" xmlns="http://www.w3.org/2000/svg">
<path d="M9.28125 19.5938H31.9688C33.1031 19.5938 34.0312 18.6656 34.0312 17.5312V15.4688C34.0312 14.3344 33.1031 13.4062 31.9688 13.4062H9.28125C8.14687 13.4062 7.21875 14.3344 7.21875 15.4688V17.5312C7.21875 18.6656 8.14687 19.5938 9.28125 19.5938ZM31.9688 17.5312H27.8438V15.4688H31.9688V17.5312ZM9.28125 15.4688H25.7812V17.5312H9.28125V15.4688ZM9.28125 27.8438H31.9688C33.1031 27.8438 34.0312 26.9156 34.0312 25.7812V23.7188C34.0312 22.5844 33.1031 21.6562 31.9688 21.6562H9.28125C8.14687 21.6562 7.21875 22.5844 7.21875 23.7188V25.7812C7.21875 26.9156 8.14687 27.8438 9.28125 27.8438ZM31.9688 25.7812H23.7188V23.7188H31.9688V25.7812ZM9.28125 23.7188H21.6562V25.7812H9.28125V23.7188ZM9.28125 36.0938H31.9688C33.1031 36.0938 34.0312 35.1656 34.0312 34.0312V31.9688C34.0312 30.8344 33.1031 29.9062 31.9688 29.9062H9.28125C8.14687 29.9062 7.21875 30.8344 7.21875 31.9688V34.0312C7.21875 35.1656 8.14687 36.0938 9.28125 36.0938ZM31.9688 34.0312H15.4688V31.9688H31.9688V34.0312ZM9.28125 31.9688H13.4062V34.0312H9.28125V31.9688ZM41.25 19.5938C42.9516 19.5938 44.3438 18.2016 44.3438 16.5C44.3438 14.7984 42.9516 13.4062 41.25 13.4062C39.5484 13.4062 38.1562 14.7984 38.1562 16.5C38.1562 18.2016 39.5484 19.5938 41.25 19.5938ZM41.25 15.4688C41.8172 15.4688 42.2812 15.9328 42.2812 16.5C42.2812 17.0672 41.8172 17.5312 41.25 17.5312C40.6828 17.5312 40.2188 17.0672 40.2188 16.5C40.2188 15.9328 40.6828 15.4688 41.25 15.4688ZM47.4375 15.4688H57.75C58.3172 15.4688 58.7812 15.0047 58.7812 14.4375C58.7812 13.8703 58.3172 13.4062 57.75 13.4062H47.4375C46.8703 13.4062 46.4062 13.8703 46.4062 14.4375C46.4062 15.0047 46.8703 15.4688 47.4375 15.4688ZM47.4375 19.5938H51.5625C52.1297 19.5938 52.5938 19.1297 52.5938 18.5625C52.5938 17.9953 52.1297 17.5312 51.5625 17.5312H47.4375C46.8703 17.5312 46.4062 17.9953 46.4062 18.5625C46.4062 19.1297 46.8703 19.5938 47.4375 19.5938ZM41.25 28.875C42.9516 28.875 44.3438 27.4828 44.3438 25.7812C44.3438 24.0797 42.9516 22.6875 41.25 22.6875C39.5484 22.6875 38.1562 24.0797 38.1562 25.7812C38.1562 27.4828 39.5484 28.875 41.25 28.875ZM41.25 24.75C41.8172 24.75 42.2812 25.2141 42.2812 25.7812C42.2812 26.3484 41.8172 26.8125 41.25 26.8125C40.6828 26.8125 40.2188 26.3484 40.2188 25.7812C40.2188 25.2141 40.6828 24.75 41.25 24.75ZM47.4375 24.75H57.75C58.3172 24.75 58.7812 24.2859 58.7812 23.7188C58.7812 23.1516 58.3172 22.6875 57.75 22.6875H47.4375C46.8703 22.6875 46.4062 23.1516 46.4062 23.7188C46.4062 24.2859 46.8703 24.75 47.4375 24.75ZM47.4375 28.875H51.5625C52.1297 28.875 52.5938 28.4109 52.5938 27.8438C52.5938 27.2766 52.1297 26.8125 51.5625 26.8125H47.4375C46.8703 26.8125 46.4062 27.2766 46.4062 27.8438C46.4062 28.4109 46.8703 28.875 47.4375 28.875ZM47.4375 56.7188C54.2644 56.7188 59.8125 51.1706 59.8125 44.3438C59.8125 37.5169 54.2644 31.9688 47.4375 31.9688C40.6106 31.9688 35.0625 37.5169 35.0625 44.3438C35.0625 51.1706 40.6106 56.7188 47.4375 56.7188ZM47.4375 39.1875C50.2837 39.1875 52.5938 41.4975 52.5938 44.3438C52.5938 47.19 50.2837 49.5 47.4375 49.5C44.5913 49.5 42.2812 47.19 42.2812 44.3438C42.2812 41.4975 44.5913 39.1875 47.4375 39.1875ZM48.4688 54.6047V51.48C51.6244 51.0262 54.12 48.5306 54.5737 45.375H57.6984C57.2137 50.2425 53.3363 54.12 48.4688 54.6047ZM57.6984 43.3125H54.5737C54.12 40.1569 51.6244 37.6613 48.4688 37.2075V34.0828C53.3363 34.5675 57.2137 38.445 57.6984 43.3125ZM46.4062 34.0828V37.2075C42.9103 37.7128 40.2188 40.7138 40.2188 44.3438C40.2188 47.9738 42.9103 50.9747 46.4062 51.48V54.6047C41.1984 54.0891 37.125 49.6856 37.125 44.3438C37.125 39.0019 41.1984 34.5984 46.4062 34.0828Z" fill="#595BD4"/>
<path d="M59.8125 5.15625H6.1875C3.90844 5.15625 2.0625 7.00219 2.0625 9.28125V56.7188C2.0625 58.9978 3.90844 60.8438 6.1875 60.8438H59.8125C62.0916 60.8438 63.9375 58.9978 63.9375 56.7188V9.28125C63.9375 7.00219 62.0916 5.15625 59.8125 5.15625ZM6.1875 7.21875H59.8125C60.9469 7.21875 61.875 8.14687 61.875 9.28125H4.125C4.125 8.14687 5.05312 7.21875 6.1875 7.21875ZM61.875 56.7188C61.875 57.8531 60.9469 58.7812 59.8125 58.7812H6.1875C5.05312 58.7812 4.125 57.8531 4.125 56.7188V11.3438H61.875V56.7188Z" fill="#595BD4"/>
<path d="M31.9688 53.625V41.25C31.9688 40.1156 31.0406 39.1875 29.9062 39.1875H27.8438C26.7094 39.1875 25.7812 40.1156 25.7812 41.25V53.625H23.7188V44.3438C23.7188 43.2094 22.7906 42.2812 21.6562 42.2812H19.5938C18.4594 42.2812 17.5312 43.2094 17.5312 44.3438V53.625H15.4688V47.4375C15.4688 46.3031 14.5406 45.375 13.4062 45.375H11.3438C10.2094 45.375 9.28125 46.3031 9.28125 47.4375V53.625C8.71406 53.625 8.25 54.0891 8.25 54.6562C8.25 55.2234 8.71406 55.6875 9.28125 55.6875H31.9688C32.5359 55.6875 33 55.2234 33 54.6562C33 54.0891 32.5359 53.625 31.9688 53.625ZM11.3438 53.625V47.4375H13.4062V53.625H11.3438ZM19.5938 53.625V44.3438H21.6562V53.625H19.5938ZM27.8438 53.625V41.25H29.9062V53.625H27.8438Z" fill="#595BD4"/>
</svg>
