<svg width="60" height="61" viewBox="0 0 60 61" fill="none" xmlns="http://www.w3.org/2000/svg">
<path d="M50.0733 17.7826L51.725 11.8216C52.1398 10.3248 51.2625 8.77501 49.7657 8.36026L43.9121 6.73828" stroke="#595BD4" stroke-width="5" stroke-linecap="round"/>
<path d="M12.5 36.8555C12.5 35.6473 11.5206 34.668 10.3125 34.668C9.10438 34.668 8.125 35.6473 8.125 36.8555V52.4805C8.125 53.6886 9.10438 54.668 10.3125 54.668C11.5206 54.668 12.5 53.6886 12.5 52.4805V36.8555Z" fill="#167FFC" stroke="#595BD4" stroke-width="5"/>
<path d="M25.625 33.1055C25.625 31.8973 24.6456 30.918 23.4375 30.918C22.2294 30.918 21.25 31.8973 21.25 33.1055V52.4805C21.25 53.6886 22.2294 54.668 23.4375 54.668C24.6456 54.668 25.625 53.6886 25.625 52.4805V33.1055Z" fill="#167FFC" stroke="#595BD4" stroke-width="5"/>
<path d="M38.75 29.3555C38.75 28.1473 37.7706 27.168 36.5625 27.168C35.3544 27.168 34.375 28.1473 34.375 29.3555V52.4805C34.375 53.6886 35.3544 54.668 36.5625 54.668C37.7706 54.668 38.75 53.6886 38.75 52.4805V29.3555Z" fill="#167FFC" stroke="#595BD4" stroke-width="5"/>
<path d="M51.875 25.6055C51.875 24.3973 50.8956 23.418 49.6875 23.418C48.4794 23.418 47.5 24.3973 47.5 25.6055V52.4805C47.5 53.6886 48.4794 54.668 49.6875 54.668C50.8956 54.668 51.875 53.6886 51.875 52.4805V25.6055Z" fill="#167FFC" stroke="#595BD4" stroke-width="5"/>
<path d="M8.125 25.8126L44.6875 13.3125" stroke="#595BD4" stroke-width="5" stroke-linecap="round"/>
</svg>
