<svg width="66" height="66" viewBox="0 0 66 66" fill="none" xmlns="http://www.w3.org/2000/svg">
<path d="M36.2332 35.5609C36.2332 33.9446 34.8862 32.5977 33.2699 32.5977C31.6536 32.5977 30.3066 33.9446 30.3066 35.5609C30.3066 37.1772 31.6536 38.5242 33.2699 38.5242C35.0209 38.3895 36.2332 37.1772 36.2332 35.5609ZM32.1924 35.5609C32.1924 34.8875 32.7311 34.4834 33.2699 34.4834C33.9434 34.4834 34.3475 35.0221 34.3475 35.5609C34.3475 36.2344 33.8087 36.6385 33.2699 36.6385C32.7311 36.6385 32.1924 36.0997 32.1924 35.5609Z" fill="#595BD4"/>
<path d="M30.7099 52.262C30.5752 51.7232 30.9793 51.1844 31.5181 51.0497C32.0569 50.915 32.5957 51.3191 32.7303 51.8579C33.1344 54.013 35.1548 55.6293 37.3099 55.6293H38.2528V40.4089C37.0406 41.6211 35.2895 42.4293 33.4038 42.4293C29.6324 42.4293 26.5344 39.3313 26.5344 35.5599C26.5344 33.6742 27.3426 31.9232 28.5548 30.7109H10.6406C10.5059 31.7885 10.5059 32.7313 10.5059 33.8089C10.5059 36.0987 11.0446 38.3885 12.1222 40.5436L15.0855 46.7395C17.3752 51.5885 18.5875 56.8416 18.5875 62.2293V63.9803C18.5875 64.5191 18.9916 65.0579 19.665 65.0579H39.465C40.0038 65.0579 40.5426 64.6538 40.5426 63.9803V59.266C40.5426 58.3232 41.3508 57.6497 42.1589 57.6497H37.4446C34.0773 57.6497 31.3834 55.3599 30.7099 52.262Z" fill="#595BD4"/>
<path d="M54.955 40.6775L51.453 35.5591C51.3183 35.2897 51.1836 35.0203 51.1836 34.7509L51.0489 32.1917C50.7795 28.1509 49.2979 24.2448 46.8734 21.0121C46.7387 20.7428 46.3346 20.6081 46.0653 20.6081H44.5836C44.9877 19.5305 45.2571 18.3183 45.2571 17.106L45.9306 17.7795C46.0653 17.9142 46.3346 18.0489 46.604 18.0489C46.8734 18.0489 47.1428 17.9142 47.2775 17.7795C47.6816 17.3754 47.6816 16.7019 47.2775 16.2979L44.853 13.8734C44.4489 13.4693 43.7755 13.4693 43.3714 13.8734L40.9469 16.2979C40.5428 16.7019 40.5428 17.3754 40.9469 17.7795C41.351 18.1836 42.0244 18.1836 42.4285 17.7795L43.102 17.106C42.9673 18.3183 42.6979 19.5305 42.2938 20.6081H15.3551C15.0857 20.6081 14.8163 20.7428 14.5469 21.0121C12.7959 23.3019 11.5836 25.8611 10.9102 28.6897H33.404C37.1755 28.6897 40.1387 31.653 40.1387 35.4244V55.6285H41.7551C42.2938 55.6285 42.8326 56.0326 42.8326 56.706C42.8326 57.2448 42.4285 57.7836 41.7551 57.7836H46.0653C48.0857 57.7836 49.702 56.1673 49.702 54.1468V46.4693C49.702 46.3346 49.8367 46.1999 49.9714 46.1999H51.8571C53.0693 46.1999 54.1469 45.6611 54.6857 44.7183C55.7632 43.3713 55.7632 41.8897 54.955 40.6775Z" fill="#595BD4"/>
<path d="M36.6359 9.16046L35.4236 9.69923C35.2889 9.56454 35.1542 9.56454 35.0195 9.42985L35.2889 8.08291C35.2889 7.67883 35.1542 7.27474 34.7501 7.00536C34.2114 6.73597 33.5379 6.46658 32.8644 6.33189C32.191 6.19719 31.6522 6.0625 30.9787 6.0625C30.5746 6.0625 30.1705 6.33189 30.0358 6.73597L29.6318 7.94821C29.4971 7.94821 29.3624 7.94821 29.093 8.08291L28.2848 7.00536C28.0154 6.60128 27.6114 6.46658 27.0726 6.60128C26.5338 6.73597 25.995 7.00536 25.3216 7.40944C24.6481 7.81352 24.1093 8.2176 23.7052 8.62168C23.4358 8.89107 23.3012 9.42985 23.4358 9.83393L23.9746 11.0462C23.8399 11.1809 23.8399 11.3156 23.7052 11.4503L22.3583 11.3156C21.9542 11.1809 21.5501 11.4503 21.2807 11.8543C21.0114 12.3931 20.742 13.0666 20.6073 13.7401C20.4726 14.4135 20.3379 15.087 20.3379 15.6258C20.3379 16.0298 20.6073 16.4339 21.0114 16.5686L22.2236 16.9727C22.2236 17.1074 22.2236 17.2421 22.2236 17.5115L21.1461 18.3196C21.0114 18.4543 20.8767 18.589 20.8767 18.7237H39.8685C39.8685 18.589 39.8685 18.589 39.8685 18.4543C40.0032 17.7809 40.1379 17.2421 40.1379 16.5686C40.1379 16.1645 39.8685 15.7605 39.4644 15.6258L38.2522 15.2217C38.2522 15.087 38.2522 14.9523 38.2522 14.6829L39.3297 13.8747C39.7338 13.6054 39.8685 13.0666 39.7338 12.6625C39.3297 11.4503 38.5216 10.238 37.7134 9.42985C37.444 9.02577 37.0399 8.89107 36.6359 9.16046ZM32.595 16.5686C32.3256 17.7809 31.1134 18.589 29.7665 18.1849C28.5542 17.9156 27.7461 16.5686 28.1501 15.3564C28.4195 14.1441 29.6318 13.336 30.9787 13.7401C32.191 14.1441 32.9991 15.3564 32.595 16.5686Z" fill="#595BD4"/>
<path d="M15.7588 18.3184C15.8935 18.4531 16.1629 18.5878 16.4323 18.5878C16.7017 18.5878 16.971 18.4531 17.1057 18.3184L19.5302 15.8939C19.9343 15.4898 19.9343 14.8164 19.5302 14.4123C19.1261 14.0082 18.4527 14.0082 18.0486 14.4123L17.5098 15.2204C17.7792 11.0449 20.069 7.13881 23.7057 4.84901C27.7466 2.42452 32.8649 2.42452 37.0404 4.84901C37.5792 5.1184 38.118 4.98371 38.3874 4.44493C38.6568 3.90615 38.5221 3.36738 37.9833 3.09799C33.269 0.26942 27.3425 0.26942 22.6282 3.09799C18.318 5.65718 15.6241 10.2368 15.3547 15.2204L14.8159 14.547C14.4119 14.1429 13.7384 14.1429 13.3343 14.547C12.9302 14.9511 12.9302 15.6245 13.3343 16.0286L15.7588 18.3184Z" fill="#595BD4"/>
</svg>
