<svg width="66" height="66" viewBox="0 0 66 66" fill="none" xmlns="http://www.w3.org/2000/svg">
<path d="M32.7135 33.9414C31.3564 33.9414 30.0545 34.479 29.0928 35.4366C28.1311 36.3942 27.5878 37.6938 27.582 39.0509H37.845C37.8392 37.6938 37.296 36.3942 36.3343 35.4366C35.3726 34.479 34.0707 33.9414 32.7135 33.9414Z" fill="#282845"/>
<path d="M32.7199 33.9313C34.1354 33.9274 35.2797 32.7767 35.2757 31.3612C35.2718 29.9457 34.1211 28.8014 32.7056 28.8053C31.2901 28.8093 30.1458 29.96 30.1497 31.3755C30.1537 32.791 31.3044 33.9353 32.7199 33.9313Z" fill="#282845"/>
<path d="M38.127 36.5963H45.134C45.135 35.5213 44.7766 34.4769 44.1156 33.6291C43.4547 32.7813 42.5292 32.179 41.4865 31.9178C40.4437 31.6566 39.3436 31.7517 38.3611 32.1878C37.3786 32.624 36.5702 33.3762 36.0645 34.3248C36.9301 34.8987 37.6389 35.6794 38.127 36.5963Z" fill="#595BD4"/>
<path d="M40.327 31.774C41.6575 31.7691 42.7321 30.6866 42.7272 29.3562C42.7223 28.0257 41.6398 26.9511 40.3094 26.956C38.9789 26.9609 37.9043 28.0434 37.9092 29.3738C37.9141 30.7043 38.9966 31.7789 40.327 31.774Z" fill="#595BD4"/>
<path d="M29.7609 34.0173C29.1974 33.1482 28.3689 32.4838 27.3981 32.1227C26.4273 31.7615 25.366 31.7228 24.3715 32.0124C23.377 32.3019 22.5023 32.9042 21.877 33.73C21.2518 34.5557 20.9093 35.561 20.9004 36.5968H27.1814C27.7666 35.5003 28.6644 34.6024 29.7609 34.0173Z" fill="#595BD4"/>
<path d="M25.702 31.7779C27.0325 31.773 28.1071 30.6905 28.1022 29.3601C28.0973 28.0296 27.0148 26.955 25.6844 26.9599C24.3539 26.9648 23.2793 28.0473 23.2842 29.3777C23.2891 30.7082 24.3716 31.7828 25.702 31.7779Z" fill="#595BD4"/>
<path d="M49.6486 32.9992L50.6661 32.4492H59.6256L60.5001 32.9992C60.5001 36.6106 59.7888 40.1866 58.4068 43.523C57.0247 46.8595 54.9991 49.891 52.4455 52.4447C49.8919 54.9983 46.8603 57.0239 43.5239 58.4059C40.1874 59.7879 36.6114 60.4992 33.0001 60.4992H32.8516V49.6422C35.0321 49.6372 37.1903 49.2027 39.2029 48.3636C41.2155 47.5244 43.0432 46.2971 44.5815 44.7517C46.1198 43.2062 47.3386 41.3729 48.1684 39.3564C48.9981 37.3399 49.4226 35.1798 49.4176 32.9992H49.6486Z" fill="#53D86A"/>
<path d="M49.6486 33H60.5001C60.5001 29.3886 59.7888 25.8127 58.4068 22.4762C57.0247 19.1398 54.9991 16.1082 52.4455 13.5546C49.8919 11.001 46.8603 8.97532 43.5239 7.59331C40.1874 6.21131 36.6114 5.5 33.0001 5.5H32.8516V16.357C35.0321 16.362 37.1903 16.7965 39.2029 17.6357C41.2155 18.4748 43.0432 19.7021 44.5815 21.2476C46.1198 22.793 47.3386 24.6263 48.1684 26.6428C48.9981 28.6593 49.4226 30.8195 49.4176 33H49.6486Z" fill="#F2C392"/>
<path d="M32.857 5.5V16.357C30.6772 16.3628 28.5199 16.7978 26.5082 17.6373C24.4965 18.4769 22.6699 19.7044 21.1326 21.2498C19.5953 22.7953 18.3775 24.6284 17.5487 26.6445C16.7198 28.6606 16.2962 30.8202 16.302 33H5.5C5.5 25.7065 8.39731 18.7118 13.5546 13.5546C18.7118 8.39731 25.7065 5.5 33 5.5" fill="#FE9526"/>
</svg>
