<svg width="66" height="66" viewBox="0 0 66 66" fill="none" xmlns="http://www.w3.org/2000/svg">
<g clip-path="url(#clip0_8976_5351)">
<path fill-rule="evenodd" clip-rule="evenodd" d="M50.152 28.1831C49.7892 28.6447 49.1208 28.7247 48.6593 28.3618C48.1977 27.999 48.1176 27.3306 48.4805 26.869L52.6745 21.5507C53.0374 21.0891 53.7056 21.009 54.1672 21.3719C54.2407 21.4297 54.3044 21.4951 54.3583 21.5663L58.5399 26.8691C58.9026 27.3307 58.8227 27.9991 58.3611 28.362C57.8994 28.7248 57.2311 28.6447 56.8682 28.1832L54.5747 25.2747V51.2492C54.5747 53.4583 53.6717 55.4659 52.2169 56.9208C50.762 58.3756 48.7544 59.2785 46.5453 59.2785H32.9727C32.3849 59.2785 31.9082 58.8019 31.9082 58.214C31.9082 57.626 32.3848 57.1494 32.9727 57.1494H46.5454C48.1669 57.1494 49.6418 56.4853 50.7118 55.4154C51.7817 54.3455 52.4458 52.8705 52.4458 51.249V25.2744L50.152 28.1831Z" fill="#595BD4"/>
<path d="M23.5538 65.0649C27.3369 63.0228 28.7483 58.3004 26.7062 54.5173C24.6641 50.7341 19.9417 49.3228 16.1586 51.3649C12.3754 53.407 10.9641 58.1293 13.0062 61.9125C15.0483 65.6956 19.7706 67.107 23.5538 65.0649Z" fill="#53D86A"/>
<path fill-rule="evenodd" clip-rule="evenodd" d="M19.8555 50.4297C24.1546 50.4297 27.6397 53.9148 27.6397 58.2139C27.6397 62.5131 24.1546 65.9982 19.8555 65.9982V50.4297Z" fill="#167FFC"/>
<path fill-rule="evenodd" clip-rule="evenodd" d="M15.7637 59.2814C15.1759 59.2814 14.6992 58.8048 14.6992 58.2169C14.6992 57.6289 15.1759 57.1523 15.7637 57.1523H23.9472C24.5352 57.1523 25.0117 57.629 25.0117 58.2169C25.0117 58.8047 24.5352 59.2814 23.9472 59.2814H15.7637Z" fill="#ECF1ED"/>
<path fill-rule="evenodd" clip-rule="evenodd" d="M19.8555 57.1523H23.9472C24.5352 57.1523 25.0117 57.629 25.0117 58.2169C25.0117 58.8047 24.5352 59.2814 23.9472 59.2814H19.8555V57.1523Z" fill="#D1D6D2"/>
<path d="M53.5108 15.5685C57.81 15.5685 61.2951 12.0834 61.2951 7.78426C61.2951 3.48513 57.81 0 53.5108 0C49.2117 0 45.7266 3.48513 45.7266 7.78426C45.7266 12.0834 49.2117 15.5685 53.5108 15.5685Z" fill="#FEB364"/>
<path fill-rule="evenodd" clip-rule="evenodd" d="M53.5117 0C57.8109 0 61.296 3.48511 61.296 7.78426C61.296 12.0834 57.8109 15.5685 53.5117 15.5685V0Z" fill="#FDA547"/>
<path fill-rule="evenodd" clip-rule="evenodd" d="M49.42 8.84966C48.832 8.84966 48.3555 8.3731 48.3555 7.78516C48.3555 7.19722 48.832 6.72065 49.42 6.72065H52.4472V3.69341C52.4472 3.1056 52.9239 2.62891 53.5117 2.62891C54.0997 2.62891 54.5762 3.1056 54.5762 3.69341V6.72065H57.6035C58.1913 6.72065 58.668 7.19734 58.668 7.78516C58.668 8.3731 58.1913 8.84966 57.6035 8.84966H54.5762V11.8769C54.5762 12.4648 54.0995 12.9414 53.5117 12.9414C52.9239 12.9414 52.4472 12.4648 52.4472 11.8769V8.84966H49.42Z" fill="#ECF1ED"/>
<path fill-rule="evenodd" clip-rule="evenodd" d="M53.5117 2.62891C54.0997 2.62891 54.5762 3.1056 54.5762 3.69341V6.72065H57.6035C58.1913 6.72065 58.668 7.19734 58.668 7.78516C58.668 8.3731 58.1913 8.84966 57.6035 8.84966H54.5762V11.8769C54.5762 12.4648 54.0995 12.9414 53.5117 12.9414V2.62891Z" fill="#D1D6D2"/>
<path fill-rule="evenodd" clip-rule="evenodd" d="M19.8544 0C23.6194 0 26.6718 2.14564 26.6718 7.09397C26.6718 12.0423 23.6194 16.0539 19.8544 16.0539C16.0894 16.0539 13.0371 12.0423 13.0371 7.09397C13.0371 2.14564 16.0895 0 19.8544 0Z" fill="#F6E2CD"/>
<path fill-rule="evenodd" clip-rule="evenodd" d="M19.8547 0C23.6196 0 26.672 2.14564 26.672 7.09397C26.672 12.0423 23.6196 16.0539 19.8547 16.0539H19.8535V0H19.8547Z" fill="#F1D7BC"/>
<path fill-rule="evenodd" clip-rule="evenodd" d="M6.70093 41.3507H33.0076C34.1069 41.3507 35.0036 40.454 35.0036 39.3547V25.0496C35.0036 21.677 32.0014 19.7642 28.5844 18.9165C22.8476 17.493 17.0325 17.3968 11.1241 18.9165C7.71504 19.7932 4.70508 21.6764 4.70508 25.0496V39.3548C4.70495 40.4541 5.60149 41.3507 6.70093 41.3507Z" fill="#FFA444"/>
<path fill-rule="evenodd" clip-rule="evenodd" d="M19.8535 41.3504H33.0081C34.1075 41.3504 35.0041 40.4537 35.0041 39.3544V25.0493C35.0041 21.6767 32.0019 19.7639 28.585 18.9162C25.695 18.1991 22.7852 17.8189 19.8536 17.8125V41.3504H19.8535Z" fill="#FF8607"/>
<path fill-rule="evenodd" clip-rule="evenodd" d="M27.5195 29.834C27.5195 29.2461 27.9961 28.7695 28.584 28.7695C29.172 28.7695 29.6485 29.2462 29.6485 29.834V41.3513H27.5195V29.834Z" fill="#FE9526"/>
<path fill-rule="evenodd" clip-rule="evenodd" d="M10.0586 29.834C10.0586 29.2461 10.5352 28.7695 11.1231 28.7695C11.711 28.7695 12.1876 29.2462 12.1876 29.834V41.3513H10.0586V29.834Z" fill="#FF8607"/>
</g>
<defs>
<clipPath id="clip0_8976_5351">
<rect width="66" height="66" fill="white"/>
</clipPath>
</defs>
</svg>
