<svg width="66" height="66" viewBox="0 0 66 66" fill="none" xmlns="http://www.w3.org/2000/svg">
<g clip-path="url(#clip0_8985_5431)">
<path d="M46.5352 18.498H42.668C42.1339 18.498 41.7012 18.9308 41.7012 19.4648V39.7676C41.7012 40.3016 42.1339 40.7344 42.668 40.7344H46.5352C47.0692 40.7344 47.502 40.3016 47.502 39.7676V19.4648C47.502 18.9308 47.0692 18.498 46.5352 18.498ZM45.5684 38.8008H43.6348V20.4316H45.5684V38.8008ZM38.8008 23.332H34.9336C34.3995 23.332 33.9668 23.7648 33.9668 24.2988V39.7676C33.9668 40.3016 34.3995 40.7344 34.9336 40.7344H38.8008C39.3348 40.7344 39.7676 40.3016 39.7676 39.7676V24.2988C39.7676 23.7648 39.3348 23.332 38.8008 23.332ZM37.834 38.8008H35.9004V25.2656H37.834V38.8008ZM31.0664 28.166H27.1992C26.6652 28.166 26.2324 28.5988 26.2324 29.1328V39.7676C26.2324 40.3016 26.6652 40.7344 27.1992 40.7344H31.0664C31.6005 40.7344 32.0332 40.3016 32.0332 39.7676V29.1328C32.0332 28.5988 31.6005 28.166 31.0664 28.166ZM30.0996 38.8008H28.166V30.0996H30.0996V38.8008ZM23.332 31.3242H19.4648C18.9308 31.3242 18.498 31.757 18.498 32.291V39.7676C18.498 40.3016 18.9308 40.7344 19.4648 40.7344H23.332C23.8661 40.7344 24.2988 40.3016 24.2988 39.7676V32.291C24.2988 31.757 23.8661 31.3242 23.332 31.3242ZM22.3652 38.8008H20.4316V33.2578H22.3652V38.8008ZM48.4688 3.99609H18.498C17.964 3.99609 17.5312 4.42883 17.5312 4.96289V11.7305C17.5312 12.2645 17.964 12.6973 18.498 12.6973H48.4688C49.0028 12.6973 49.4355 12.2645 49.4355 11.7305V4.96289C49.4355 4.42883 49.0028 3.99609 48.4688 3.99609ZM47.502 10.7637H19.4648V5.92969H47.502V10.7637Z" fill="#167FFC"/>
<path d="M61.0371 6.89648H53.3027V4.96289C53.3027 2.29737 51.1343 0.128906 48.4688 0.128906H17.5312C14.8657 0.128906 12.6973 2.29737 12.6973 4.96289V6.89648H4.96289C2.29737 6.89648 0.128906 9.06495 0.128906 11.7305V48.4688C0.128906 51.1343 2.29737 53.3027 4.96289 53.3027H27.1992V58.1367H23.0957C20.0274 58.1367 17.5312 60.6329 17.5312 63.7012V64.9043C17.5312 65.4384 17.964 65.8711 18.498 65.8711H47.502C48.036 65.8711 48.4688 65.4384 48.4688 64.9043V63.7012C48.4688 60.6329 45.9726 58.1367 42.9043 58.1367H38.8008V53.3027H61.0371C63.7026 53.3027 65.8711 51.1343 65.8711 48.4688V11.7305C65.8711 9.06495 63.7026 6.89648 61.0371 6.89648ZM61.0371 8.83008C62.6363 8.83008 63.9375 10.1313 63.9375 11.7305V42.668H61.0371V12.6973C61.0371 12.1632 60.6044 11.7305 60.0703 11.7305H53.3027V8.83008H61.0371ZM53.3027 13.6641H59.1035V42.668H53.3027V13.6641ZM14.6309 4.96289C14.6309 3.36368 15.932 2.0625 17.5312 2.0625H48.4688C50.068 2.0625 51.3691 3.36368 51.3691 4.96289V42.668H14.6309V4.96289ZM6.89648 42.668V13.6641H12.6973V42.668H6.89648ZM4.96289 8.83008H12.6973V11.7305H5.92969C5.39563 11.7305 4.96289 12.1632 4.96289 12.6973V42.668H2.0625V11.7305C2.0625 10.1313 3.36368 8.83008 4.96289 8.83008ZM46.5352 63.7012V63.9375H19.4648V63.7012C19.4648 61.6992 21.0937 60.0703 23.0957 60.0703H28.166H37.834H42.9043C44.9063 60.0703 46.5352 61.6992 46.5352 63.7012ZM36.8672 58.1367H29.1328V53.3027H36.8672V58.1367ZM61.0371 51.3691H37.834H28.166H4.96289C3.36368 51.3691 2.0625 50.068 2.0625 48.4688V44.6016C4.47807 44.6016 61.5425 44.6016 63.9375 44.6016V48.4688C63.9375 50.068 62.6363 51.3691 61.0371 51.3691Z" fill="#595BD4"/>
<path d="M18.498 16.5664H48.4688C49.0028 16.5664 49.4355 16.1337 49.4355 15.5996C49.4355 15.0656 49.0028 14.6328 48.4688 14.6328H18.498C17.964 14.6328 17.5312 15.0656 17.5312 15.5996C17.5312 16.1337 17.964 16.5664 18.498 16.5664Z" fill="#595BD4"/>
</g>
<defs>
<clipPath id="clip0_8985_5431">
<rect width="66" height="66" fill="white"/>
</clipPath>
</defs>
</svg>
