<svg width="66" height="66" viewBox="0 0 66 66" fill="none" xmlns="http://www.w3.org/2000/svg">
<path d="M50.875 41.25C50.875 60.3488 51.1363 60.1287 50.1325 61.875C49.6503 62.7103 48.9568 63.4041 48.1218 63.8867C47.2868 64.3694 46.3395 64.624 45.375 64.625H20.625C19.1663 64.625 17.7674 64.0455 16.7359 63.0141C15.7045 61.9826 15.125 60.5837 15.125 59.125V41.25C26.6063 41.25 27.2388 40.8375 28.3113 42.4737L30.7175 46.0625C30.9691 46.4368 31.3088 46.7436 31.7069 46.9556C32.1049 47.1677 32.549 47.2786 33 47.2786C33.451 47.2786 33.8951 47.1677 34.2931 46.9556C34.6912 46.7436 35.0309 46.4368 35.2825 46.0625C37.6063 42.5838 38.0325 41.25 39.9713 41.25H50.875ZM50.875 6.875V22H15.125V6.875C15.1259 5.65638 15.5315 4.47256 16.2781 3.50943C17.0247 2.5463 18.0701 1.85841 19.25 1.55375C20.1575 1.375 18.3975 1.375 45.375 1.375C46.8337 1.375 48.2326 1.95446 49.2641 2.98591C50.2955 4.01736 50.875 5.41631 50.875 6.875Z" fill="#D7D7E5"/>
<path d="M50.875 6.875V22H19.25V1.55375C20.1575 1.375 18.3975 1.375 45.375 1.375C46.8337 1.375 48.2326 1.95446 49.2641 2.98591C50.2955 4.01736 50.875 5.41631 50.875 6.875ZM50.875 43.8213C50.875 60.5688 51.1225 60.1562 50.1325 61.875H39.875C34.4049 61.875 29.1589 59.702 25.2909 55.8341C21.423 51.9661 19.25 46.7201 19.25 41.25C28.7513 41.25 26.8538 40.2875 30.7175 46.0625C30.9691 46.4368 31.3088 46.7436 31.7069 46.9556C32.1049 47.1677 32.549 47.2786 33 47.2786C33.451 47.2786 33.8951 47.1677 34.2931 46.9556C34.6912 46.7436 35.0309 46.4368 35.2825 46.0625C36.7263 43.9175 36.4788 44 37.2213 44C50.435 44 49.9813 44.0688 50.875 43.8213Z" fill="#53D86A"/>
<path d="M45.375 4.125H20.625C19.1062 4.125 17.875 5.35622 17.875 6.875V59.125C17.875 60.6438 19.1062 61.875 20.625 61.875H45.375C46.8938 61.875 48.125 60.6438 48.125 59.125V6.875C48.125 5.35622 46.8938 4.125 45.375 4.125Z" fill="#595BD4"/>
<path d="M48.125 6.875V24.75H22V4.125H45.375C46.1043 4.125 46.8038 4.41473 47.3195 4.93046C47.8353 5.44618 48.125 6.14565 48.125 6.875ZM37.2212 44H48.125V59.125C43.2158 59.1142 38.4084 57.724 34.2511 55.1129C30.0938 52.5018 26.754 48.775 24.6125 44.3575C25.3962 44.7562 25.575 45.2375 27.9675 48.8125C28.2191 49.1868 28.5588 49.4936 28.9569 49.7056C29.3549 49.9177 29.799 50.0286 30.25 50.0286C30.701 50.0286 31.1451 49.9177 31.5431 49.7056C31.9412 49.4936 32.2809 49.1868 32.5325 48.8125C34.8562 45.375 35.3237 44 37.2212 44Z" fill="#B2B3FB"/>
<path d="M57.75 27.5V35.75C57.75 37.2087 57.1705 38.6076 56.1391 39.6391C55.1076 40.6705 53.7087 41.25 52.25 41.25C39.16 41.25 38.7612 40.8375 37.6887 42.4737L35.2825 46.0625C35.0309 46.4368 34.6912 46.7436 34.2931 46.9556C33.8951 47.1677 33.451 47.2786 33 47.2786C32.549 47.2786 32.1049 47.1677 31.7069 46.9556C31.3088 46.7436 30.9691 46.4368 30.7175 46.0625C28.3937 42.5837 27.9675 41.25 26.0288 41.25H13.75C12.2913 41.25 10.8924 40.6705 9.86091 39.6391C8.82946 38.6076 8.25 37.2087 8.25 35.75V27.5C8.25 26.0413 8.82946 24.6424 9.86091 23.6109C10.8924 22.5795 12.2913 22 13.75 22H52.25C53.7087 22 55.1076 22.5795 56.1391 23.6109C57.1705 24.6424 57.75 26.0413 57.75 27.5Z" fill="#53D86A"/>
<path d="M34.8425 43.3125C32.5187 39.8338 32.0925 38.5 30.1538 38.5H17.875C16.4163 38.5 15.0174 37.9205 13.9859 36.8891C12.9545 35.8576 12.375 34.4587 12.375 33C12.375 24.1863 12.1412 23.76 13.1037 22.0687C11.7715 22.2264 10.5428 22.8654 9.64892 23.8657C8.75499 24.866 8.25748 26.1585 8.25 27.5V35.75C8.25 37.2087 8.82946 38.6076 9.86091 39.6391C10.8924 40.6705 12.2913 41.25 13.75 41.25H26.0288C27.8713 41.25 28.2288 42.35 30.7175 46.0625C30.9691 46.4368 31.3088 46.7436 31.7069 46.9556C32.1049 47.1677 32.549 47.2786 33 47.2786C33.451 47.2786 33.8951 47.1677 34.2931 46.9556C34.6912 46.7436 35.0309 46.4368 35.2825 46.0625C37.125 43.23 36.1488 45.2788 34.8425 43.3125ZM41.25 1.375C41.25 4.125 41.3325 4.565 41.0025 5.2525C40.7856 5.73499 40.4342 6.14468 39.9903 6.43246C39.5464 6.72024 39.029 6.8739 38.5 6.875H27.5C26.7707 6.875 26.0712 6.58527 25.5555 6.06954C25.0397 5.55382 24.75 4.85435 24.75 4.125V1.375H41.25Z" fill="#D7D7E5"/>
<path d="M41.25 1.375C41.25 4.125 41.3325 4.565 41.0025 5.2525C40.205 5.6375 40.3838 5.5 28.875 5.5C28.1457 5.5 27.4462 5.21027 26.9305 4.69454C26.4147 4.17882 26.125 3.47935 26.125 2.75V1.375H41.25Z" fill="#53D86A"/>
<path d="M37.1249 28.8739H34.9111L34.3749 27.0589C34.2845 26.7838 34.1095 26.5443 33.875 26.3745C33.6404 26.2047 33.3582 26.1133 33.0686 26.1133C32.7791 26.1133 32.4969 26.2047 32.2623 26.3745C32.0278 26.5443 31.8528 26.7838 31.7624 27.0589L31.0886 28.8739H28.8749C28.5908 28.8756 28.3142 28.9652 28.0831 29.1304C27.852 29.2956 27.6778 29.5284 27.5843 29.7966C27.4909 30.0649 27.4828 30.3555 27.5613 30.6286C27.6397 30.9016 27.8008 31.1437 28.0224 31.3214L29.7961 32.6964L28.9436 35.2539C28.8662 35.4515 28.8355 35.6642 28.8539 35.8756C28.8724 36.0869 28.9395 36.2912 29.05 36.4723C29.1606 36.6534 29.3115 36.8064 29.491 36.9195C29.6706 37.0325 29.8738 37.1025 30.0849 37.1239C30.8686 37.2202 31.1024 36.8627 32.9999 35.3502C33.6979 36.0297 34.4732 36.625 35.3099 37.1239C35.6439 37.2319 36.0066 37.2081 36.3237 37.0572C36.6407 36.9064 36.888 36.64 37.0149 36.3127C37.2486 35.6939 37.0149 35.4602 36.2036 32.8202L37.9911 31.4452C38.2788 31.2922 38.5029 31.0421 38.6233 30.7393C38.7438 30.4366 38.7528 30.1009 38.6487 29.7921C38.5447 29.4833 38.3344 29.2215 38.0553 29.0534C37.7762 28.8852 37.4465 28.8216 37.1249 28.8739ZM21.9999 28.8739H19.7861L19.2499 27.0589C19.1595 26.7838 18.9845 26.5443 18.75 26.3745C18.5154 26.2047 18.2332 26.1133 17.9436 26.1133C17.6541 26.1133 17.3719 26.2047 17.1373 26.3745C16.9028 26.5443 16.7278 26.7838 16.6374 27.0589L15.9636 28.8739H13.7499C13.4658 28.8756 13.1892 28.9652 12.9581 29.1304C12.727 29.2956 12.5528 29.5284 12.4593 29.7966C12.3659 30.0649 12.3578 30.3555 12.4363 30.6286C12.5147 30.9016 12.6758 31.1437 12.8974 31.3214L14.6711 32.6964L13.8186 35.2539C13.7412 35.4515 13.7105 35.6642 13.7289 35.8756C13.7474 36.0869 13.8145 36.2912 13.925 36.4723C14.0356 36.6534 14.1865 36.8064 14.366 36.9195C14.5456 37.0325 14.7488 37.1025 14.9599 37.1239C15.7299 37.2202 15.9361 36.9039 17.8749 35.3502C18.5729 36.0297 19.3482 36.625 20.1849 37.1239C20.5189 37.2319 20.8816 37.2081 21.1987 37.0572C21.5157 36.9064 21.763 36.64 21.8899 36.3127C22.1236 35.6939 21.9586 35.4602 21.0786 32.8202L22.8661 31.4452C23.1538 31.2922 23.3779 31.0421 23.4983 30.7393C23.6188 30.4366 23.6278 30.1009 23.5237 29.7921C23.4197 29.4833 23.2094 29.2215 22.9303 29.0534C22.6512 28.8852 22.3215 28.8216 21.9999 28.8739ZM53.5424 29.7952C53.1574 28.6952 52.3049 28.8739 50.0361 28.8739C49.5824 27.4989 49.4174 26.1239 48.1249 26.1239C46.8324 26.1239 46.8736 26.9077 46.2136 28.8739C44.3299 28.8739 43.1199 28.5989 42.7074 29.7952C42.2949 30.9914 43.2161 31.3764 44.9211 32.7514C43.7936 36.1477 44.1236 35.1164 44.0549 35.5014C44.0195 35.6843 44.0216 35.8724 44.0611 36.0544C44.1006 36.2364 44.1767 36.4085 44.2847 36.5602C44.3927 36.712 44.5304 36.8402 44.6894 36.9371C44.8485 37.034 45.0255 37.0975 45.2099 37.1239C46.0211 37.2339 46.2274 36.8627 48.1249 35.3502C49.7474 36.6427 50.2286 37.1652 50.8749 37.1652C51.084 37.1703 51.2915 37.1277 51.4816 37.0405C51.6718 36.9534 51.8395 36.824 51.9721 36.6623C52.1047 36.5005 52.1986 36.3106 52.2468 36.1071C52.2949 35.9035 52.296 35.6917 52.2499 35.4877C52.1811 35.1714 52.4974 36.1339 51.3836 32.7377L53.1711 31.3627C53.39 31.1736 53.5437 30.9204 53.6103 30.639C53.677 30.3576 53.6532 30.0623 53.5424 29.7952Z" fill="#FE9526"/>
<path d="M41.25 59.125H24.75C24.3853 59.125 24.0356 58.9801 23.7777 58.7223C23.5199 58.4644 23.375 58.1147 23.375 57.75C23.375 57.3853 23.5199 57.0356 23.7777 56.7777C24.0356 56.5199 24.3853 56.375 24.75 56.375H41.25C41.6147 56.375 41.9644 56.5199 42.2223 56.7777C42.4801 57.0356 42.625 57.3853 42.625 57.75C42.625 58.1147 42.4801 58.4644 42.2223 58.7223C41.9644 58.9801 41.6147 59.125 41.25 59.125Z" fill="#53D86A"/>
</svg>
