<svg width="66" height="66" viewBox="0 0 66 66" fill="none" xmlns="http://www.w3.org/2000/svg">
<path d="M28.7536 33.3671C28.5623 33.3671 28.3747 33.3139 28.2119 33.2133C28.0491 33.1128 27.9174 32.969 27.8317 32.7979C25.796 28.7265 23.3808 27.1404 19.2166 27.1404H6.69727C5.87675 27.1404 5.08984 26.8145 4.50965 26.2343C3.92946 25.6541 3.60352 24.8672 3.60352 24.0467V12.375C3.60352 11.5545 3.92946 10.7676 4.50965 10.1874C5.08984 9.6072 5.87675 9.28125 6.69727 9.28125H26.6911C27.5117 9.28125 28.2986 9.6072 28.8788 10.1874C29.4589 10.7676 29.7849 11.5545 29.7849 12.375V32.3359C29.7849 32.6094 29.6762 32.8717 29.4828 33.0651C29.2894 33.2585 29.0271 33.3671 28.7536 33.3671ZM6.69727 11.3438C6.42376 11.3438 6.16146 11.4524 5.96806 11.6458C5.77467 11.8392 5.66602 12.1015 5.66602 12.375V24.0467C5.66602 24.3202 5.77467 24.5825 5.96806 24.7759C6.16146 24.9693 6.42376 25.0779 6.69727 25.0779H19.2166C22.923 25.0779 25.6104 26.2185 27.7224 28.7904V12.375C27.7224 12.1015 27.6137 11.8392 27.4203 11.6458C27.2269 11.4524 26.9646 11.3438 26.6911 11.3438H6.69727ZM37.247 47.5489C36.9735 47.5489 36.7112 47.4402 36.5178 47.2468C36.3244 47.0534 36.2158 46.7911 36.2158 46.5176V26.5568C36.2158 25.7362 36.5417 24.9493 37.1219 24.3691C37.7021 23.7889 38.489 23.463 39.3095 23.463H59.3034C60.1239 23.463 60.9108 23.7889 61.491 24.3691C62.0712 24.9493 62.3971 25.7362 62.3971 26.5568V38.2284C62.3971 39.049 62.0712 39.8359 61.491 40.416C60.9108 40.9962 60.1239 41.3222 59.3034 41.3222H46.784C42.6198 41.3222 40.2046 42.9082 38.169 46.9796C38.0832 47.1507 37.9516 47.2946 37.7888 47.3951C37.6259 47.4956 37.4384 47.5489 37.247 47.5489ZM39.3095 25.5255C39.036 25.5255 38.7737 25.6341 38.5803 25.8275C38.3869 26.0209 38.2783 26.2832 38.2783 26.5568V42.9722C40.3934 40.4002 43.0777 39.2597 46.784 39.2597H59.3034C59.5769 39.2597 59.8392 39.151 60.0326 38.9576C60.226 38.7642 60.3346 38.5019 60.3346 38.2284V26.5568C60.3346 26.2832 60.226 26.0209 60.0326 25.8275C59.8392 25.6341 59.5769 25.5255 59.3034 25.5255H39.3095Z" fill="#FE9526"/>
<path d="M22.7631 16.9727H10.5459C10.2724 16.9727 10.0101 16.864 9.81669 16.6706C9.62329 16.4772 9.51464 16.2149 9.51464 15.9414C9.51464 15.6679 9.62329 15.4056 9.81669 15.2122C10.0101 15.0188 10.2724 14.9102 10.5459 14.9102H22.7631C23.0366 14.9102 23.2989 15.0188 23.4923 15.2122C23.6857 15.4056 23.7944 15.6679 23.7944 15.9414C23.7944 16.2149 23.6857 16.4772 23.4923 16.6706C23.2989 16.864 23.0366 16.9727 22.7631 16.9727ZM19.1372 21.2286H10.5459C10.2724 21.2286 10.0101 21.12 9.81669 20.9266C9.62329 20.7332 9.51464 20.4709 9.51464 20.1974C9.51464 19.9239 9.62329 19.6616 9.81669 19.4682C10.0101 19.2748 10.2724 19.1661 10.5459 19.1661H19.1372C19.4107 19.1661 19.673 19.2748 19.8664 19.4682C20.0598 19.6616 20.1685 19.9239 20.1685 20.1974C20.1685 20.4709 20.0598 20.7332 19.8664 20.9266C19.673 21.12 19.4107 21.2286 19.1372 21.2286ZM28.7536 59.5148C28.5622 59.5147 28.3745 59.4613 28.2117 59.3606C28.0489 59.2599 27.9173 59.1158 27.8317 58.9445C25.796 54.8742 23.3808 53.2881 19.2166 53.2881H6.69727C5.87675 53.2881 5.08984 52.9622 4.50965 52.382C3.92946 51.8018 3.60352 51.0149 3.60352 50.1944V38.5217C3.60352 37.7011 3.92946 36.9142 4.50965 36.334C5.08984 35.7539 5.87675 35.4279 6.69727 35.4279H26.6911C27.5117 35.4279 28.2986 35.7539 28.8788 36.334C29.4589 36.9142 29.7849 37.7011 29.7849 38.5217V58.4836C29.7851 58.716 29.7068 58.9416 29.5626 59.1239C29.4185 59.3063 29.217 59.4345 28.9908 59.488C28.913 59.5055 28.8334 59.5145 28.7536 59.5148ZM6.69727 37.4904C6.42376 37.4904 6.16146 37.5991 5.96806 37.7925C5.77467 37.9858 5.66602 38.2482 5.66602 38.5217V50.1944C5.66602 50.4679 5.77467 50.7302 5.96806 50.9236C6.16146 51.117 6.42376 51.2256 6.69727 51.2256H19.2166C22.923 51.2256 25.6104 52.3652 27.7224 54.9381V38.5217C27.7224 38.2482 27.6137 37.9858 27.4203 37.7925C27.2269 37.5991 26.9646 37.4904 26.6911 37.4904H6.69727Z" fill="#FE9526"/>
<path d="M22.764 49.7658H10.623C10.3495 49.7658 10.0872 49.6571 9.89384 49.4637C9.70045 49.2703 9.5918 49.008 9.5918 48.7345V39.9844C9.5918 39.7109 9.70045 39.4486 9.89384 39.2552C10.0872 39.0618 10.3495 38.9531 10.623 38.9531H22.7609C23.0344 38.9531 23.2967 39.0618 23.4901 39.2552C23.6835 39.4486 23.7921 39.7109 23.7921 39.9844V48.7345C23.7921 49.0075 23.6839 49.2693 23.4912 49.4626C23.2984 49.656 23.0369 49.765 22.764 49.7658ZM11.6574 47.7033H21.7327V41.0156H11.6543L11.6574 47.7033Z" fill="#FE9526"/>
<path d="M10.9212 46.5445C10.7043 46.5456 10.4926 46.4783 10.3162 46.3521C10.1398 46.226 10.0076 46.0474 9.9385 45.8418C9.86941 45.6362 9.86688 45.4141 9.93129 45.207C9.9957 44.9999 10.1238 44.8184 10.2973 44.6883L13.5107 42.2555C13.7009 42.1111 13.9354 42.0372 14.174 42.0464C14.4127 42.0556 14.6408 42.1474 14.8193 42.3061L16.8096 44.0798L22.2866 41.2171C22.5291 41.0903 22.8119 41.065 23.073 41.1468C23.3341 41.2286 23.552 41.4108 23.6788 41.6533C23.8056 41.8957 23.8308 42.1786 23.749 42.4397C23.6672 42.7008 23.485 42.9187 23.2426 43.0455L17.1334 46.2423C16.9478 46.3392 16.7371 46.3773 16.5293 46.3515C16.3215 46.3257 16.1265 46.2373 15.9702 46.098L14.0799 44.415L11.543 46.3393C11.3636 46.4734 11.1453 46.5455 10.9212 46.5445ZM46.5292 37.1818C46.2557 37.1818 45.9934 37.0731 45.8 36.8797C45.6066 36.6863 45.498 36.424 45.498 36.1505V28.6368C45.4978 28.4564 45.5449 28.2792 45.6347 28.1227C45.7245 27.9662 45.8537 27.836 46.0096 27.7451C46.1654 27.6542 46.3423 27.6057 46.5227 27.6046C46.7031 27.6035 46.8807 27.6497 47.0376 27.7386L53.6593 31.4965C53.818 31.5864 53.95 31.7169 54.0418 31.8745C54.1337 32.0321 54.1821 32.2113 54.1821 32.3937C54.1821 32.5761 54.1337 32.7553 54.0418 32.9129C53.95 33.0705 53.818 33.2009 53.6593 33.2909L47.0376 37.0477C46.8826 37.1356 46.7074 37.1818 46.5292 37.1818ZM47.5605 30.4075V34.3799L51.0605 32.3937L47.5605 30.4075ZM15.47 37.4973C15.1965 37.4973 14.9342 37.3887 14.7408 37.1953C14.5474 37.0019 14.4388 36.7396 14.4388 36.4661V26.1123C14.4388 25.8388 14.5474 25.5765 14.7408 25.3831C14.9342 25.1897 15.1965 25.0811 15.47 25.0811C15.7435 25.0811 16.0058 25.1897 16.1992 25.3831C16.3926 25.5765 16.5013 25.8388 16.5013 26.1123V36.4661C16.5013 36.7396 16.3926 37.0019 16.1992 37.1953C16.0058 37.3887 15.7435 37.4973 15.47 37.4973ZM46.9232 63.9592H18.5638C17.4698 63.9592 16.4206 63.5246 15.647 62.751C14.8734 61.9774 14.4388 60.9282 14.4388 59.8342V52.2545C14.4388 51.981 14.5474 51.7187 14.7408 51.5253C14.9342 51.3319 15.1965 51.2233 15.47 51.2233C15.7435 51.2233 16.0058 51.3319 16.1992 51.5253C16.3926 51.7187 16.5013 51.981 16.5013 52.2545V59.8342C16.5013 60.3812 16.7186 60.9058 17.1054 61.2926C17.4922 61.6794 18.0168 61.8967 18.5638 61.8967H46.9232C47.4702 61.8967 47.9948 61.6794 48.3816 61.2926C48.7684 60.9058 48.9857 60.3812 48.9857 59.8342V41.2934C48.9857 41.0199 49.0943 40.7576 49.2877 40.5642C49.4811 40.3708 49.7434 40.2621 50.0169 40.2621C50.2904 40.2621 50.5527 40.3708 50.7461 40.5642C50.9395 40.7576 51.0482 41.0199 51.0482 41.2934V59.8342C51.0482 60.9282 50.6136 61.9774 49.84 62.751C49.0664 63.5246 48.0172 63.9592 46.9232 63.9592ZM50.0169 25.5245C49.7434 25.5245 49.4811 25.4159 49.2877 25.2225C49.0943 25.0291 48.9857 24.7668 48.9857 24.4933V6.16797C48.9857 5.62096 48.7684 5.09635 48.3816 4.70956C47.9948 4.32277 47.4702 4.10547 46.9232 4.10547H18.5638C18.0168 4.10547 17.4922 4.32277 17.1054 4.70956C16.7186 5.09635 16.5013 5.62096 16.5013 6.16797V10.3136C16.5013 10.5871 16.3926 10.8494 16.1992 11.0428C16.0058 11.2362 15.7435 11.3448 15.47 11.3448C15.1965 11.3448 14.9342 11.2362 14.7408 11.0428C14.5474 10.8494 14.4388 10.5871 14.4388 10.3136V6.16797C14.4388 5.07395 14.8734 4.02474 15.647 3.25115C16.4206 2.47757 17.4698 2.04297 18.5638 2.04297H46.9232C48.0172 2.04297 49.0664 2.47757 49.84 3.25115C50.6136 4.02474 51.0482 5.07395 51.0482 6.16797V24.4933C51.0482 24.7668 50.9395 25.0291 50.7461 25.2225C50.5527 25.4159 50.2904 25.5245 50.0169 25.5245Z" fill="#FE9526"/>
<path d="M35.7694 6.84375H29.7129C29.4394 6.84375 29.1771 6.7351 28.9837 6.5417C28.7903 6.34831 28.6816 6.086 28.6816 5.8125C28.6816 5.539 28.7903 5.27669 28.9837 5.0833C29.1771 4.8899 29.4394 4.78125 29.7129 4.78125H35.7694C36.0429 4.78125 36.3052 4.8899 36.4986 5.0833C36.692 5.27669 36.8007 5.539 36.8007 5.8125C36.8007 6.086 36.692 6.34831 36.4986 6.5417C36.3052 6.7351 36.0429 6.84375 35.7694 6.84375ZM38.8477 6.83653C38.7102 6.83899 38.5736 6.81446 38.4455 6.76434C38.3201 6.71402 38.2074 6.63654 38.1155 6.53747C37.9234 6.34425 37.8156 6.08288 37.8156 5.81044C37.8156 5.538 37.9234 5.27662 38.1155 5.08341C38.3129 4.89943 38.5727 4.79712 38.8425 4.79712C39.1124 4.79712 39.3722 4.89943 39.5696 5.08341C39.6657 5.1778 39.7427 5.28984 39.7965 5.41341C39.8453 5.54182 39.8698 5.67821 39.8686 5.81559C39.8698 5.94984 39.844 6.08295 39.7926 6.20697C39.7412 6.331 39.6654 6.4434 39.5696 6.53747C39.4777 6.63654 39.365 6.71402 39.2396 6.76434C39.1149 6.81365 38.9818 6.83817 38.8477 6.83653Z" fill="#FE9526"/>
</svg>
