<svg width="60" height="61" viewBox="0 0 60 61" fill="none" xmlns="http://www.w3.org/2000/svg">
<path d="M3.11914 57.9813V37.9413H21.4791V56.4213V56.5413V57.9813H3.11914ZM46.9191 48.2613H42.7191C42.2391 48.2613 41.7591 48.6213 41.7591 49.2213C41.7591 49.8213 42.1191 50.1813 42.7191 50.1813H44.6391C45.4791 50.1813 46.1991 50.9013 46.1991 51.7413C46.1991 52.5813 45.4791 53.3013 44.6391 53.3013H42.7191C42.2391 53.3013 41.7591 53.6613 41.7591 54.2613C41.7591 54.8613 42.1191 55.2213 42.7191 55.2213H43.5591C44.3991 55.2213 45.1191 55.9413 45.1191 56.7813C45.1191 57.6213 44.3991 58.3413 43.5591 58.3413H31.6791C30.5991 58.3413 29.5191 58.1013 28.5591 57.6213L27.2391 56.9013C26.3991 56.4213 24.4791 56.1813 23.2791 56.0613V40.3413H23.3991C25.6791 40.3413 27.8391 39.5013 29.5191 38.1813C31.9191 36.1413 33.3591 33.3813 33.5991 30.5013C33.5991 29.9013 33.5991 29.1813 33.4791 28.5813C33.3591 27.9813 33.5991 27.5013 33.9591 27.0213C34.7991 26.0613 36.3591 26.3013 37.0791 27.2613C38.0391 28.9413 39.1191 32.6613 35.0391 38.9013C34.9191 39.1413 34.7991 39.5013 35.0391 39.8613C35.2791 40.2213 35.5191 40.3413 35.8791 40.3413H44.8791C45.7191 40.3413 46.4391 41.0613 46.4391 41.9013C46.4391 42.7413 45.7191 43.4613 44.8791 43.4613H42.9591C42.4791 43.4613 41.9991 43.8213 41.9991 44.4213C41.9991 45.0213 42.3591 45.3813 42.9591 45.3813H47.1591C47.9991 45.3813 48.7191 46.1013 48.7191 46.9413C48.4791 47.5413 47.7591 48.2613 46.9191 48.2613Z" fill="#595BD4"/>
<path d="M16.3195 49.3395C14.3995 49.3395 12.8395 50.8995 12.8395 52.8195C12.8395 54.7395 14.3995 56.2995 16.3195 56.2995C18.2395 56.2995 19.7995 54.7395 19.7995 52.8195C19.7995 50.8995 18.2395 49.3395 16.3195 49.3395ZM16.3195 54.4995C15.3595 54.4995 14.6395 53.7795 14.6395 52.8195C14.6395 51.8595 15.3595 51.1395 16.3195 51.1395C17.2795 51.1395 17.9995 51.8595 17.9995 52.8195C17.9995 53.7795 17.2795 54.4995 16.3195 54.4995ZM19.4395 24.9795C15.5995 21.6195 12.1195 28.4595 19.4395 31.6995C26.7595 28.3395 23.2795 21.4995 19.4395 24.9795ZM49.7995 24.9795C45.9595 21.6195 42.4795 28.4595 49.7995 31.6995C57.1195 28.3395 53.6395 21.4995 49.7995 24.9795ZM44.9995 3.01953C38.0395 3.01953 32.3995 6.49953 32.3995 10.6995C32.3995 12.6195 33.4795 14.2995 35.3995 15.6195V20.8995L38.8795 17.4195C40.6795 18.0195 42.8395 18.3795 44.9995 18.3795C51.9595 18.3795 57.5995 15.0195 57.5995 10.6995C57.4795 6.49953 51.9595 3.01953 44.9995 3.01953ZM40.9195 6.61953H48.9595C49.4395 6.61953 49.9195 6.97953 49.9195 7.57953C49.9195 8.05953 49.5595 8.53953 48.9595 8.53953H40.9195C40.4395 8.53953 39.9595 8.17953 39.9595 7.57953C40.0795 6.97953 40.4395 6.61953 40.9195 6.61953ZM48.9595 14.7795H40.9195C40.4395 14.7795 39.9595 14.4195 39.9595 13.8195C39.9595 13.3395 40.3195 12.8595 40.9195 12.8595H48.9595C49.4395 12.8595 49.9195 13.2195 49.9195 13.8195C49.9195 14.2995 49.4395 14.7795 48.9595 14.7795ZM51.3595 11.5395H38.5195C38.0395 11.5395 37.5595 11.1795 37.5595 10.5795C37.5595 10.0995 37.9195 9.61953 38.5195 9.61953H51.3595C51.8395 9.61953 52.3195 9.97953 52.3195 10.5795C52.3195 11.1795 51.8395 11.5395 51.3595 11.5395ZM2.51953 10.2195H3.47953V11.4195H2.63953L2.51953 10.2195ZM7.79953 18.9795H7.07953V14.0595H7.79953V18.9795ZM9.71953 12.2595H8.75953H6.23953H5.27953V9.37953H9.83953V12.2595H9.71953ZM11.5195 12.6195V9.01953L21.2395 4.45953V9.25953V12.4995V17.2995L11.5195 12.6195ZM23.7595 11.5395H23.0395V10.0995H23.7595C24.1195 10.0995 24.4795 10.4595 24.4795 10.8195C24.4795 11.1795 24.1195 11.5395 23.7595 11.5395Z" fill="#595BD4"/>
</svg>
