<svg width="66" height="66" viewBox="0 0 66 66" fill="none" xmlns="http://www.w3.org/2000/svg">
<path d="M46.4054 4.125C44.7038 4.125 43.3116 5.51719 43.3116 7.21875C43.3116 7.69312 43.4251 8.13656 43.621 8.54906L42.301 9.86906C38.1141 6.37312 31.9782 6.36281 27.7707 9.82781L24.4295 6.48656C24.6254 6.08437 24.7388 5.64094 24.7388 5.15625C24.7388 3.45469 23.3466 2.0625 21.6451 2.0625C19.9435 2.0625 18.5513 3.45469 18.5513 5.15625C18.5513 5.63063 18.6648 6.07406 18.8607 6.48656L11.6213 13.7259C11.2191 13.53 10.7757 13.4166 10.291 13.4166C8.58945 13.4166 7.19727 14.8088 7.19727 16.5103C7.19727 18.2119 8.58945 19.6041 10.291 19.6041C11.9926 19.6041 13.3848 18.2119 13.3848 16.5103C13.3848 16.0359 13.2713 15.5925 13.0754 15.18L20.3148 7.94062C20.717 8.13656 21.1604 8.25 21.6451 8.25C22.1298 8.25 22.5629 8.13656 22.9754 7.94062L26.3063 11.2716C22.7588 15.4791 22.7485 21.6666 26.2651 25.8844L25.0173 27.1322C23.9035 26.0906 22.0473 26.1112 20.9645 27.1838L16.3032 31.845C15.7566 32.3916 15.4473 33.1238 15.4473 33.9075C15.4473 34.6912 15.7463 35.4131 16.3032 35.97L17.6335 37.3003C18.1801 37.8469 18.9123 38.1562 19.696 38.1562C20.4798 38.1562 21.2016 37.8572 21.7585 37.3003L26.4198 32.6391C26.9663 32.0925 27.2757 31.3603 27.2757 30.5766C27.2757 29.7928 26.987 29.1328 26.4816 28.5862L27.7295 27.3384C29.8332 29.0916 32.4216 29.9784 35.0101 29.9784C37.9285 29.9784 40.8366 28.8647 43.0641 26.6475C47.2613 22.4503 47.4882 15.7781 43.7551 11.3128L45.0751 9.99281C45.4773 10.1887 45.9207 10.3022 46.4054 10.3022C48.107 10.3022 49.4991 8.91 49.4991 7.20844C49.4991 5.50687 48.107 4.11469 46.4054 4.11469V4.125ZM40.8366 11.3231L36.3816 15.7781C35.9795 15.5822 35.536 15.4688 35.0513 15.4688C34.5666 15.4688 34.1335 15.5822 33.721 15.7781L29.2351 11.2922C32.6279 8.61094 37.4541 8.62125 40.8263 11.3231H40.8366ZM36.0929 18.5625C36.0929 19.1297 35.6288 19.5938 35.0616 19.5938C34.4945 19.5938 34.0304 19.1297 34.0304 18.5625C34.0304 18.2841 34.1438 18.0262 34.3295 17.8406C34.3295 17.8406 34.3295 17.8406 34.3398 17.8406C34.3501 17.8406 34.3398 17.8406 34.3398 17.8303C34.5254 17.6447 34.7729 17.5312 35.0616 17.5312C35.3504 17.5312 35.5979 17.6447 35.7835 17.8303C35.7835 17.8303 35.7835 17.8303 35.7835 17.8406C35.7835 17.8509 35.7835 17.8406 35.7938 17.8406C35.9795 18.0262 36.0929 18.2738 36.0929 18.5625ZM10.3116 17.5312C9.74445 17.5312 9.28039 17.0672 9.28039 16.5C9.28039 15.9328 9.74445 15.4688 10.3116 15.4688C10.5901 15.4688 10.8479 15.5822 11.0335 15.7678C11.0335 15.7678 11.0335 15.7678 11.0335 15.7781C11.0335 15.7884 11.0335 15.7781 11.0438 15.7781C11.2295 15.9637 11.3429 16.2113 11.3429 16.5C11.3429 17.0672 10.8788 17.5312 10.3116 17.5312ZM20.9335 5.88844C20.9335 5.88844 20.9335 5.88844 20.9335 5.87812C20.9335 5.86781 20.9335 5.87812 20.9232 5.87812C20.7376 5.6925 20.6241 5.445 20.6241 5.15625C20.6241 4.58906 21.0882 4.125 21.6554 4.125C22.2226 4.125 22.6866 4.58906 22.6866 5.15625C22.6866 5.43469 22.5732 5.6925 22.3876 5.87812C22.3876 5.87812 22.3876 5.87812 22.3773 5.87812C22.367 5.87812 22.3773 5.87812 22.3773 5.88844C22.1916 6.07406 21.9441 6.1875 21.6554 6.1875C21.3666 6.1875 21.1191 6.07406 20.9335 5.88844ZM24.9657 31.185L20.3045 35.8462C19.9848 36.1659 19.4176 36.1659 19.0979 35.8462L17.7676 34.5159C17.6026 34.3509 17.5201 34.1447 17.5201 33.9178C17.5201 33.6909 17.6129 33.4744 17.7676 33.3197L22.4288 28.6584C22.5938 28.4934 22.8001 28.4109 23.027 28.4109C23.2538 28.4109 23.4704 28.5038 23.6251 28.6584L24.9554 29.9888C25.1204 30.1537 25.2029 30.36 25.2029 30.5869C25.2029 30.8137 25.1101 31.0303 24.9554 31.185H24.9657ZM41.5998 25.1934C37.9698 28.8337 32.0504 28.8234 28.4204 25.1934C25.0173 21.7903 24.8007 16.3969 27.7707 12.7359L32.267 17.2322C32.071 17.6344 31.9576 18.0778 31.9576 18.5625C31.9576 20.2641 33.3498 21.6562 35.0513 21.6562C36.7529 21.6562 38.1451 20.2641 38.1451 18.5625C38.1451 18.0881 38.0316 17.6447 37.8357 17.2322L42.2907 12.7772C45.2195 16.4381 44.9926 21.8006 41.5998 25.1934ZM46.3951 8.25C46.1166 8.25 45.8588 8.13656 45.6732 7.95094C45.6732 7.95094 45.6732 7.95094 45.6732 7.94062C45.6732 7.93031 45.6732 7.94062 45.6629 7.94062C45.4773 7.755 45.3638 7.5075 45.3638 7.21875C45.3638 6.65156 45.8279 6.1875 46.3951 6.1875C46.9623 6.1875 47.4263 6.65156 47.4263 7.21875C47.4263 7.78594 46.9623 8.25 46.3951 8.25ZM36.0929 37.125H31.9679C30.8335 37.125 29.9054 38.0531 29.9054 39.1875V61.875C29.9054 63.0094 30.8335 63.9375 31.9679 63.9375H36.0929C37.2273 63.9375 38.1554 63.0094 38.1554 61.875V39.1875C38.1554 38.0531 37.2273 37.125 36.0929 37.125ZM31.9679 61.875V39.1875H36.0929V61.875H31.9679ZM25.7804 41.25H21.6554C20.521 41.25 19.5929 42.1781 19.5929 43.3125V61.875C19.5929 63.0094 20.521 63.9375 21.6554 63.9375H25.7804C26.9148 63.9375 27.8429 63.0094 27.8429 61.875V43.3125C27.8429 42.1781 26.9148 41.25 25.7804 41.25ZM21.6554 61.875V43.3125H25.7804V61.875H21.6554ZM15.4679 47.4375H11.3429C10.2085 47.4375 9.28039 48.3656 9.28039 49.5V61.875C9.28039 63.0094 10.2085 63.9375 11.3429 63.9375H15.4679C16.6023 63.9375 17.5304 63.0094 17.5304 61.875V49.5C17.5304 48.3656 16.6023 47.4375 15.4679 47.4375ZM11.3429 61.875V49.5H15.4679V61.875H11.3429ZM46.4054 30.9375H42.2804C41.146 30.9375 40.2179 31.8656 40.2179 33V61.875C40.2179 63.0094 41.146 63.9375 42.2804 63.9375H46.4054C47.5398 63.9375 48.4679 63.0094 48.4679 61.875V33C48.4679 31.8656 47.5398 30.9375 46.4054 30.9375ZM42.2804 61.875V33H46.4054V61.875H42.2804ZM56.7179 22.6875H52.5929C51.4585 22.6875 50.5304 23.6156 50.5304 24.75V61.875C50.5304 63.0094 51.4585 63.9375 52.5929 63.9375H56.7179C57.8523 63.9375 58.7804 63.0094 58.7804 61.875V24.75C58.7804 23.6156 57.8523 22.6875 56.7179 22.6875ZM52.5929 61.875V24.75H56.7179V61.875H52.5929Z" fill="#595BD4"/>
</svg>
